G04 #@! TF.GenerationSoftware,KiCad,Pcbnew,10.0.6*
G04 #@! TF.CreationDate,2026-09-27T19:14:51-04:00*
G04 #@! TF.ProjectId,extc-board,65787463-2d62-46f6-9172-642e6b696361,rev?*
G04 #@! TF.SameCoordinates,Original*
G04 #@! TF.FileFunction,Soldermask,Top*
G04 #@! TF.FilePolarity,Negative*
%FSLAX46Y46*%
G04 Gerber Fmt 4.6, Leading zero omitted, Abs format (unit mm)*
G04 Created by KiCad (PCBNEW 10.0.6) date 2026-09-27 19:14:51*
%MOMM*%
%LPD*%
G01*
G04 APERTURE LIST*
G04 Aperture macros list*
%AMRoundRect*
0 Rectangle with rounded corners*
0 $1 Rounding radius*
0 $2 $3 $4 $5 $6 $7 $8 $9 X,Y pos of 4 corners*
0 Add a 4 corners polygon primitive as box body*
4,1,4,$2,$3,$4,$5,$6,$7,$8,$9,$2,$3,0*
0 Add four circle primitives for the rounded corners*
1,1,$1+$1,$2,$3*
1,1,$1+$1,$4,$5*
1,1,$1+$1,$6,$7*
1,1,$1+$1,$8,$9*
0 Add four rect primitives between the rounded corners*
20,1,$1+$1,$2,$3,$4,$5,0*
20,1,$1+$1,$4,$5,$6,$7,0*
20,1,$1+$1,$6,$7,$8,$9,0*
20,1,$1+$1,$8,$9,$2,$3,0*%
%AMFreePoly0*
4,1,23,0.500000,-0.750000,0.000000,-0.750000,0.000000,-0.745722,-0.065263,-0.745722,-0.191342,-0.711940,-0.304381,-0.646677,-0.396677,-0.554381,-0.461940,-0.441342,-0.495722,-0.315263,-0.495722,-0.250000,-0.500000,-0.250000,-0.500000,0.250000,-0.495722,0.250000,-0.495722,0.315263,-0.461940,0.441342,-0.396677,0.554381,-0.304381,0.646677,-0.191342,0.711940,-0.065263,0.745722,0.000000,0.745722,
0.000000,0.750000,0.500000,0.750000,0.500000,-0.750000,0.500000,-0.750000,$1*%
%AMFreePoly1*
4,1,23,0.000000,0.745722,0.065263,0.745722,0.191342,0.711940,0.304381,0.646677,0.396677,0.554381,0.461940,0.441342,0.495722,0.315263,0.495722,0.250000,0.500000,0.250000,0.500000,-0.250000,0.495722,-0.250000,0.495722,-0.315263,0.461940,-0.441342,0.396677,-0.554381,0.304381,-0.646677,0.191342,-0.711940,0.065263,-0.745722,0.000000,-0.745722,0.000000,-0.750000,-0.500000,-0.750000,
-0.500000,0.750000,0.000000,0.750000,0.000000,0.745722,0.000000,0.745722,$1*%
G04 Aperture macros list end*
%ADD10RoundRect,0.150000X-0.825000X-0.150000X0.825000X-0.150000X0.825000X0.150000X-0.825000X0.150000X0*%
%ADD11RoundRect,0.249999X-0.850001X-0.850001X0.850001X-0.850001X0.850001X0.850001X-0.850001X0.850001X0*%
%ADD12C,2.200000*%
%ADD13C,1.600000*%
%ADD14RoundRect,0.450000X-0.450000X-0.450000X0.450000X-0.450000X0.450000X0.450000X-0.450000X0.450000X0*%
%ADD15C,1.800000*%
%ADD16C,1.000000*%
%ADD17R,4.400000X1.200000*%
%ADD18R,5.600000X2.100000*%
%ADD19FreePoly0,0.000000*%
%ADD20FreePoly1,0.000000*%
%ADD21RoundRect,0.250001X-0.949999X-0.949999X0.949999X-0.949999X0.949999X0.949999X-0.949999X0.949999X0*%
%ADD22C,2.400000*%
%ADD23C,1.100000*%
%ADD24R,1.200000X3.200000*%
%ADD25R,2.200000X5.600000*%
%ADD26RoundRect,0.400000X-0.400000X-0.400000X0.400000X-0.400000X0.400000X0.400000X-0.400000X0.400000X0*%
%ADD27RoundRect,0.150000X0.700000X-0.150000X0.700000X0.150000X-0.700000X0.150000X-0.700000X-0.150000X0*%
%ADD28RoundRect,0.250000X1.150000X-0.250000X1.150000X0.250000X-1.150000X0.250000X-1.150000X-0.250000X0*%
G04 APERTURE END LIST*
G04 #@! TO.C,JP1*
G36*
X20950000Y-13150000D02*
G01*
X21250000Y-13150000D01*
X21250000Y-14650000D01*
X20950000Y-14650000D01*
X20950000Y-13150000D01*
G37*
G04 #@! TD*
D10*
G04 #@! TO.C,U1*
X2125000Y-11995000D03*
X2125000Y-13265000D03*
X2125000Y-14535000D03*
X2125000Y-15805000D03*
X7075000Y-15805000D03*
X7075000Y-14535000D03*
X7075000Y-13265000D03*
X7075000Y-11995000D03*
G04 #@! TD*
D11*
G04 #@! TO.C,D4*
X10000000Y-35450000D03*
D12*
X20160000Y-35450000D03*
G04 #@! TD*
D11*
G04 #@! TO.C,D1*
X10000000Y-24950000D03*
D12*
X20160000Y-24950000D03*
G04 #@! TD*
D13*
G04 #@! TO.C,C1*
X11100000Y-13900000D03*
X16100000Y-13900000D03*
G04 #@! TD*
G04 #@! TO.C,R1*
X25700000Y-13900000D03*
X35860000Y-13900000D03*
G04 #@! TD*
G04 #@! TO.C,PF1*
X15540000Y-78140000D03*
X18080000Y-78140000D03*
X20620000Y-78140000D03*
X23160000Y-78140000D03*
X25700000Y-78140000D03*
X28240000Y-78140000D03*
X30780000Y-78140000D03*
X33320000Y-78140000D03*
X15540000Y-80680000D03*
X18080000Y-80680000D03*
X20620000Y-80680000D03*
X23160000Y-80680000D03*
X25700000Y-80680000D03*
X28240000Y-80680000D03*
X30780000Y-80680000D03*
X33320000Y-80680000D03*
X15540000Y-83220000D03*
X18080000Y-83220000D03*
X20620000Y-83220000D03*
X23160000Y-83220000D03*
X25700000Y-83220000D03*
X28240000Y-83220000D03*
X30780000Y-83220000D03*
X33320000Y-83220000D03*
G04 #@! TD*
D14*
G04 #@! TO.C,U3*
X15110000Y-54040000D03*
D15*
X17650000Y-54040000D03*
X20190000Y-54040000D03*
X27810000Y-54040000D03*
X30350000Y-54040000D03*
X32890000Y-54040000D03*
G04 #@! TD*
D16*
G04 #@! TO.C,J4*
X29700000Y-68650000D03*
X29700000Y-73950000D03*
D17*
X30300000Y-70050000D03*
X30300000Y-72550000D03*
D18*
X27600000Y-66700000D03*
X27600000Y-75900000D03*
G04 #@! TD*
D19*
G04 #@! TO.C,JP1*
X20450000Y-13900000D03*
D20*
X21750000Y-13900000D03*
G04 #@! TD*
D21*
G04 #@! TO.C,C3*
X29000000Y-30000000D03*
D22*
X34000000Y-30000000D03*
G04 #@! TD*
D23*
G04 #@! TO.C,J3*
X10350000Y-82150000D03*
X5650000Y-82150000D03*
D24*
X9250000Y-76800001D03*
X6750000Y-76800001D03*
D25*
X12500000Y-81400000D03*
X3500000Y-81400000D03*
G04 #@! TD*
D26*
G04 #@! TO.C,J2*
X36400000Y-68000000D03*
D13*
X36400000Y-70540000D03*
X36400000Y-73080000D03*
G04 #@! TD*
D11*
G04 #@! TO.C,D3*
X10000000Y-31950000D03*
D12*
X20160000Y-31950000D03*
G04 #@! TD*
D14*
G04 #@! TO.C,F1*
X15500000Y-44500000D03*
D15*
X20580000Y-44500000D03*
G04 #@! TD*
D13*
G04 #@! TO.C,C4*
X20000000Y-67000000D03*
X20000000Y-72000000D03*
G04 #@! TD*
D27*
G04 #@! TO.C,J1*
X6250000Y-56250000D03*
X6250000Y-55000000D03*
X6250000Y-53750000D03*
X6250000Y-52500000D03*
X6250000Y-51250000D03*
X6250000Y-50000000D03*
X6250000Y-48750000D03*
D28*
X2900000Y-58100000D03*
X2900000Y-46900000D03*
G04 #@! TD*
D11*
G04 #@! TO.C,D2*
X10000000Y-28450000D03*
D12*
X20160000Y-28450000D03*
G04 #@! TD*
D23*
G04 #@! TO.C,H2*
X24400000Y-2850000D03*
X31600000Y-2850000D03*
D24*
X25500000Y-8199999D03*
X28000000Y-8199999D03*
X30500000Y-8199999D03*
D25*
X22250000Y-3600000D03*
X33750000Y-3600000D03*
G04 #@! TD*
D23*
G04 #@! TO.C,H1*
X6900000Y-2850000D03*
X14100000Y-2850000D03*
D24*
X8000000Y-8199999D03*
X10500000Y-8199999D03*
X13000000Y-8199999D03*
D25*
X4750000Y-3600000D03*
X16250000Y-3600000D03*
G04 #@! TD*
M02*
