G04 #@! TF.GenerationSoftware,KiCad,Pcbnew,10.0.6*
G04 #@! TF.CreationDate,2026-09-27T19:30:07-04:00*
G04 #@! TF.ProjectId,extc-board,65787463-2d62-46f6-9172-642e6b696361,rev?*
G04 #@! TF.SameCoordinates,Original*
G04 #@! TF.FileFunction,Soldermask,Bot*
G04 #@! TF.FilePolarity,Negative*
%FSLAX46Y46*%
G04 Gerber Fmt 4.6, Leading zero omitted, Abs format (unit mm)*
G04 Created by KiCad (PCBNEW 10.0.6) date 2026-09-27 19:30:07*
%MOMM*%
%LPD*%
G01*
G04 APERTURE LIST*
G04 Aperture macros list*
%AMRoundRect*
0 Rectangle with rounded corners*
0 $1 Rounding radius*
0 $2 $3 $4 $5 $6 $7 $8 $9 X,Y pos of 4 corners*
0 Add a 4 corners polygon primitive as box body*
4,1,4,$2,$3,$4,$5,$6,$7,$8,$9,$2,$3,0*
0 Add four circle primitives for the rounded corners*
1,1,$1+$1,$2,$3*
1,1,$1+$1,$4,$5*
1,1,$1+$1,$6,$7*
1,1,$1+$1,$8,$9*
0 Add four rect primitives between the rounded corners*
20,1,$1+$1,$2,$3,$4,$5,0*
20,1,$1+$1,$4,$5,$6,$7,0*
20,1,$1+$1,$6,$7,$8,$9,0*
20,1,$1+$1,$8,$9,$2,$3,0*%
G04 Aperture macros list end*
%ADD10C,1.100000*%
%ADD11C,1.600000*%
%ADD12RoundRect,0.250001X-0.949999X-0.949999X0.949999X-0.949999X0.949999X0.949999X-0.949999X0.949999X0*%
%ADD13C,2.400000*%
%ADD14RoundRect,0.249999X-0.850001X-0.850001X0.850001X-0.850001X0.850001X0.850001X-0.850001X0.850001X0*%
%ADD15C,2.200000*%
%ADD16RoundRect,0.450000X-0.450000X-0.450000X0.450000X-0.450000X0.450000X0.450000X-0.450000X0.450000X0*%
%ADD17C,1.800000*%
%ADD18C,1.000000*%
%ADD19RoundRect,0.400000X-0.400000X-0.400000X0.400000X-0.400000X0.400000X0.400000X-0.400000X0.400000X0*%
G04 APERTURE END LIST*
D10*
G04 #@! TO.C,J3*
X10350000Y-82150000D03*
X5650000Y-82150000D03*
G04 #@! TD*
D11*
G04 #@! TO.C,R1*
X25700000Y-13900000D03*
X35860000Y-13900000D03*
G04 #@! TD*
D10*
G04 #@! TO.C,H1*
X6900000Y-2850000D03*
X14100000Y-2850000D03*
G04 #@! TD*
D11*
G04 #@! TO.C,C4*
X20000000Y-67000000D03*
X20000000Y-72000000D03*
G04 #@! TD*
G04 #@! TO.C,PF1*
X15540000Y-78140000D03*
X18080000Y-78140000D03*
X20620000Y-78140000D03*
X23160000Y-78140000D03*
X25700000Y-78140000D03*
X28240000Y-78140000D03*
X30780000Y-78140000D03*
X33320000Y-78140000D03*
X15540000Y-80680000D03*
X18080000Y-80680000D03*
X20620000Y-80680000D03*
X23160000Y-80680000D03*
X25700000Y-80680000D03*
X28240000Y-80680000D03*
X30780000Y-80680000D03*
X33320000Y-80680000D03*
X15540000Y-83220000D03*
X18080000Y-83220000D03*
X20620000Y-83220000D03*
X23160000Y-83220000D03*
X25700000Y-83220000D03*
X28240000Y-83220000D03*
X30780000Y-83220000D03*
X33320000Y-83220000D03*
G04 #@! TD*
D12*
G04 #@! TO.C,C3*
X29000000Y-30000000D03*
D13*
X34000000Y-30000000D03*
G04 #@! TD*
D10*
G04 #@! TO.C,H2*
X24400000Y-2850000D03*
X31600000Y-2850000D03*
G04 #@! TD*
D14*
G04 #@! TO.C,D3*
X10000000Y-31950000D03*
D15*
X20160000Y-31950000D03*
G04 #@! TD*
D11*
G04 #@! TO.C,C1*
X11100000Y-13900000D03*
X16100000Y-13900000D03*
G04 #@! TD*
D14*
G04 #@! TO.C,D4*
X10000000Y-35450000D03*
D15*
X20160000Y-35450000D03*
G04 #@! TD*
D16*
G04 #@! TO.C,F1*
X15500000Y-44500000D03*
D17*
X20580000Y-44500000D03*
G04 #@! TD*
D16*
G04 #@! TO.C,U3*
X15110000Y-54040000D03*
D17*
X17650000Y-54040000D03*
X20190000Y-54040000D03*
X27810000Y-54040000D03*
X30350000Y-54040000D03*
X32890000Y-54040000D03*
G04 #@! TD*
D14*
G04 #@! TO.C,D2*
X10000000Y-28450000D03*
D15*
X20160000Y-28450000D03*
G04 #@! TD*
D14*
G04 #@! TO.C,D1*
X10000000Y-24950000D03*
D15*
X20160000Y-24950000D03*
G04 #@! TD*
D18*
G04 #@! TO.C,J4*
X29700000Y-68650000D03*
X29700000Y-73950000D03*
G04 #@! TD*
D19*
G04 #@! TO.C,J2*
X36400000Y-68000000D03*
D11*
X36400000Y-70540000D03*
X36400000Y-73080000D03*
G04 #@! TD*
M02*
