G04 #@! TF.GenerationSoftware,KiCad,Pcbnew,10.0.6*
G04 #@! TF.CreationDate,2026-09-27T19:54:45-04:00*
G04 #@! TF.ProjectId,extc-board,65787463-2d62-46f6-9172-642e6b696361,rev?*
G04 #@! TF.SameCoordinates,Original*
G04 #@! TF.FileFunction,Legend,Bot*
G04 #@! TF.FilePolarity,Positive*
%FSLAX46Y46*%
G04 Gerber Fmt 4.6, Leading zero omitted, Abs format (unit mm)*
G04 Created by KiCad (PCBNEW 10.0.6) date 2026-09-27 19:54:45*
%MOMM*%
%LPD*%
G01*
G04 APERTURE LIST*
G04 Aperture macros list*
%AMRoundRect*
0 Rectangle with rounded corners*
0 $1 Rounding radius*
0 $2 $3 $4 $5 $6 $7 $8 $9 X,Y pos of 4 corners*
0 Add a 4 corners polygon primitive as box body*
4,1,4,$2,$3,$4,$5,$6,$7,$8,$9,$2,$3,0*
0 Add four circle primitives for the rounded corners*
1,1,$1+$1,$2,$3*
1,1,$1+$1,$4,$5*
1,1,$1+$1,$6,$7*
1,1,$1+$1,$8,$9*
0 Add four rect primitives between the rounded corners*
20,1,$1+$1,$2,$3,$4,$5,0*
20,1,$1+$1,$4,$5,$6,$7,0*
20,1,$1+$1,$6,$7,$8,$9,0*
20,1,$1+$1,$8,$9,$2,$3,0*%
G04 Aperture macros list end*
%ADD10C,0.100000*%
%ADD11C,0.090000*%
%ADD12C,0.120000*%
%ADD13C,1.600000*%
%ADD14RoundRect,0.250001X-0.949999X-0.949999X0.949999X-0.949999X0.949999X0.949999X-0.949999X0.949999X0*%
%ADD15C,2.400000*%
%ADD16C,1.100000*%
%ADD17RoundRect,0.249999X-0.850001X-0.850001X0.850001X-0.850001X0.850001X0.850001X-0.850001X0.850001X0*%
%ADD18C,2.200000*%
%ADD19C,1.000000*%
%ADD20RoundRect,0.400000X-0.400000X-0.400000X0.400000X-0.400000X0.400000X0.400000X-0.400000X0.400000X0*%
%ADD21RoundRect,0.450000X-0.450000X-0.450000X0.450000X-0.450000X0.450000X0.450000X-0.450000X0.450000X0*%
%ADD22C,1.800000*%
G04 APERTURE END LIST*
D10*
X0Y-18110000D02*
X38500000Y-18110000D01*
X0Y-22310000D02*
X38500000Y-22310000D01*
X0Y-61290000D02*
X38500000Y-61290000D01*
X0Y-65489999D02*
X38500000Y-65489999D01*
D11*
X16009999Y-55984320D02*
X15552857Y-55984320D01*
X15352857Y-55612891D02*
X15152857Y-56212891D01*
X15152857Y-56212891D02*
X14952857Y-55612891D01*
X14752856Y-56212891D02*
X14752856Y-55812891D01*
X14752856Y-55612891D02*
X14781428Y-55641462D01*
X14781428Y-55641462D02*
X14752856Y-55670034D01*
X14752856Y-55670034D02*
X14724285Y-55641462D01*
X14724285Y-55641462D02*
X14752856Y-55612891D01*
X14752856Y-55612891D02*
X14752856Y-55670034D01*
X14467142Y-55812891D02*
X14467142Y-56212891D01*
X14467142Y-55870034D02*
X14438571Y-55841462D01*
X14438571Y-55841462D02*
X14381428Y-55812891D01*
X14381428Y-55812891D02*
X14295714Y-55812891D01*
X14295714Y-55812891D02*
X14238571Y-55841462D01*
X14238571Y-55841462D02*
X14210000Y-55898605D01*
X14210000Y-55898605D02*
X14210000Y-56212891D01*
X14938571Y-57312891D02*
X15281428Y-57312891D01*
X15109999Y-57312891D02*
X15109999Y-56712891D01*
X15109999Y-56712891D02*
X15167142Y-56798605D01*
X15167142Y-56798605D02*
X15224285Y-56855748D01*
X15224285Y-56855748D02*
X15281428Y-56884320D01*
X18549999Y-55984320D02*
X18092857Y-55984320D01*
X18321428Y-56212891D02*
X18321428Y-55755748D01*
X17892857Y-55612891D02*
X17692857Y-56212891D01*
X17692857Y-56212891D02*
X17492857Y-55612891D01*
X17292856Y-56212891D02*
X17292856Y-55812891D01*
X17292856Y-55612891D02*
X17321428Y-55641462D01*
X17321428Y-55641462D02*
X17292856Y-55670034D01*
X17292856Y-55670034D02*
X17264285Y-55641462D01*
X17264285Y-55641462D02*
X17292856Y-55612891D01*
X17292856Y-55612891D02*
X17292856Y-55670034D01*
X17007142Y-55812891D02*
X17007142Y-56212891D01*
X17007142Y-55870034D02*
X16978571Y-55841462D01*
X16978571Y-55841462D02*
X16921428Y-55812891D01*
X16921428Y-55812891D02*
X16835714Y-55812891D01*
X16835714Y-55812891D02*
X16778571Y-55841462D01*
X16778571Y-55841462D02*
X16750000Y-55898605D01*
X16750000Y-55898605D02*
X16750000Y-56212891D01*
X17821428Y-56770034D02*
X17792856Y-56741462D01*
X17792856Y-56741462D02*
X17735714Y-56712891D01*
X17735714Y-56712891D02*
X17592856Y-56712891D01*
X17592856Y-56712891D02*
X17535714Y-56741462D01*
X17535714Y-56741462D02*
X17507142Y-56770034D01*
X17507142Y-56770034D02*
X17478571Y-56827177D01*
X17478571Y-56827177D02*
X17478571Y-56884320D01*
X17478571Y-56884320D02*
X17507142Y-56970034D01*
X17507142Y-56970034D02*
X17849999Y-57312891D01*
X17849999Y-57312891D02*
X17478571Y-57312891D01*
X20575712Y-56212891D02*
X20775712Y-55927177D01*
X20918569Y-56212891D02*
X20918569Y-55612891D01*
X20918569Y-55612891D02*
X20689998Y-55612891D01*
X20689998Y-55612891D02*
X20632855Y-55641462D01*
X20632855Y-55641462D02*
X20604284Y-55670034D01*
X20604284Y-55670034D02*
X20575712Y-55727177D01*
X20575712Y-55727177D02*
X20575712Y-55812891D01*
X20575712Y-55812891D02*
X20604284Y-55870034D01*
X20604284Y-55870034D02*
X20632855Y-55898605D01*
X20632855Y-55898605D02*
X20689998Y-55927177D01*
X20689998Y-55927177D02*
X20918569Y-55927177D01*
X20318569Y-56212891D02*
X20318569Y-55812891D01*
X20318569Y-55870034D02*
X20289998Y-55841462D01*
X20289998Y-55841462D02*
X20232855Y-55812891D01*
X20232855Y-55812891D02*
X20147141Y-55812891D01*
X20147141Y-55812891D02*
X20089998Y-55841462D01*
X20089998Y-55841462D02*
X20061427Y-55898605D01*
X20061427Y-55898605D02*
X20061427Y-56212891D01*
X20061427Y-55898605D02*
X20032855Y-55841462D01*
X20032855Y-55841462D02*
X19975712Y-55812891D01*
X19975712Y-55812891D02*
X19889998Y-55812891D01*
X19889998Y-55812891D02*
X19832855Y-55841462D01*
X19832855Y-55841462D02*
X19804284Y-55898605D01*
X19804284Y-55898605D02*
X19804284Y-56212891D01*
X19604284Y-55812891D02*
X19375712Y-55812891D01*
X19518569Y-55612891D02*
X19518569Y-56127177D01*
X19518569Y-56127177D02*
X19489998Y-56184320D01*
X19489998Y-56184320D02*
X19432855Y-56212891D01*
X19432855Y-56212891D02*
X19375712Y-56212891D01*
X20389998Y-56712891D02*
X20018570Y-56712891D01*
X20018570Y-56712891D02*
X20218570Y-56941462D01*
X20218570Y-56941462D02*
X20132855Y-56941462D01*
X20132855Y-56941462D02*
X20075713Y-56970034D01*
X20075713Y-56970034D02*
X20047141Y-56998605D01*
X20047141Y-56998605D02*
X20018570Y-57055748D01*
X20018570Y-57055748D02*
X20018570Y-57198605D01*
X20018570Y-57198605D02*
X20047141Y-57255748D01*
X20047141Y-57255748D02*
X20075713Y-57284320D01*
X20075713Y-57284320D02*
X20132855Y-57312891D01*
X20132855Y-57312891D02*
X20304284Y-57312891D01*
X20304284Y-57312891D02*
X20361427Y-57284320D01*
X20361427Y-57284320D02*
X20389998Y-57255748D01*
X28567142Y-55984320D02*
X28110000Y-55984320D01*
X28338571Y-56212891D02*
X28338571Y-55755748D01*
X27910000Y-55612891D02*
X27710000Y-56212891D01*
X27710000Y-56212891D02*
X27510000Y-55612891D01*
X27224285Y-56212891D02*
X27281428Y-56184320D01*
X27281428Y-56184320D02*
X27309999Y-56155748D01*
X27309999Y-56155748D02*
X27338571Y-56098605D01*
X27338571Y-56098605D02*
X27338571Y-55927177D01*
X27338571Y-55927177D02*
X27309999Y-55870034D01*
X27309999Y-55870034D02*
X27281428Y-55841462D01*
X27281428Y-55841462D02*
X27224285Y-55812891D01*
X27224285Y-55812891D02*
X27138571Y-55812891D01*
X27138571Y-55812891D02*
X27081428Y-55841462D01*
X27081428Y-55841462D02*
X27052857Y-55870034D01*
X27052857Y-55870034D02*
X27024285Y-55927177D01*
X27024285Y-55927177D02*
X27024285Y-56098605D01*
X27024285Y-56098605D02*
X27052857Y-56155748D01*
X27052857Y-56155748D02*
X27081428Y-56184320D01*
X27081428Y-56184320D02*
X27138571Y-56212891D01*
X27138571Y-56212891D02*
X27224285Y-56212891D01*
X27695714Y-56712891D02*
X27809999Y-56712891D01*
X27809999Y-56712891D02*
X27867142Y-56741462D01*
X27867142Y-56741462D02*
X27895714Y-56770034D01*
X27895714Y-56770034D02*
X27952856Y-56855748D01*
X27952856Y-56855748D02*
X27981428Y-56970034D01*
X27981428Y-56970034D02*
X27981428Y-57198605D01*
X27981428Y-57198605D02*
X27952856Y-57255748D01*
X27952856Y-57255748D02*
X27924285Y-57284320D01*
X27924285Y-57284320D02*
X27867142Y-57312891D01*
X27867142Y-57312891D02*
X27752856Y-57312891D01*
X27752856Y-57312891D02*
X27695714Y-57284320D01*
X27695714Y-57284320D02*
X27667142Y-57255748D01*
X27667142Y-57255748D02*
X27638571Y-57198605D01*
X27638571Y-57198605D02*
X27638571Y-57055748D01*
X27638571Y-57055748D02*
X27667142Y-56998605D01*
X27667142Y-56998605D02*
X27695714Y-56970034D01*
X27695714Y-56970034D02*
X27752856Y-56941462D01*
X27752856Y-56941462D02*
X27867142Y-56941462D01*
X27867142Y-56941462D02*
X27924285Y-56970034D01*
X27924285Y-56970034D02*
X27952856Y-56998605D01*
X27952856Y-56998605D02*
X27981428Y-57055748D01*
X31107142Y-55984320D02*
X30650000Y-55984320D01*
X30450000Y-55612891D02*
X30250000Y-56212891D01*
X30250000Y-56212891D02*
X30050000Y-55612891D01*
X29764285Y-56212891D02*
X29821428Y-56184320D01*
X29821428Y-56184320D02*
X29849999Y-56155748D01*
X29849999Y-56155748D02*
X29878571Y-56098605D01*
X29878571Y-56098605D02*
X29878571Y-55927177D01*
X29878571Y-55927177D02*
X29849999Y-55870034D01*
X29849999Y-55870034D02*
X29821428Y-55841462D01*
X29821428Y-55841462D02*
X29764285Y-55812891D01*
X29764285Y-55812891D02*
X29678571Y-55812891D01*
X29678571Y-55812891D02*
X29621428Y-55841462D01*
X29621428Y-55841462D02*
X29592857Y-55870034D01*
X29592857Y-55870034D02*
X29564285Y-55927177D01*
X29564285Y-55927177D02*
X29564285Y-56098605D01*
X29564285Y-56098605D02*
X29592857Y-56155748D01*
X29592857Y-56155748D02*
X29621428Y-56184320D01*
X29621428Y-56184320D02*
X29678571Y-56212891D01*
X29678571Y-56212891D02*
X29764285Y-56212891D01*
X30549999Y-56712891D02*
X30149999Y-56712891D01*
X30149999Y-56712891D02*
X30407142Y-57312891D01*
X33361427Y-56212891D02*
X33361427Y-55612891D01*
X33361427Y-55612891D02*
X33018570Y-56212891D01*
X33018570Y-56212891D02*
X33018570Y-55612891D01*
X32389999Y-56155748D02*
X32418571Y-56184320D01*
X32418571Y-56184320D02*
X32504285Y-56212891D01*
X32504285Y-56212891D02*
X32561428Y-56212891D01*
X32561428Y-56212891D02*
X32647142Y-56184320D01*
X32647142Y-56184320D02*
X32704285Y-56127177D01*
X32704285Y-56127177D02*
X32732856Y-56070034D01*
X32732856Y-56070034D02*
X32761428Y-55955748D01*
X32761428Y-55955748D02*
X32761428Y-55870034D01*
X32761428Y-55870034D02*
X32732856Y-55755748D01*
X32732856Y-55755748D02*
X32704285Y-55698605D01*
X32704285Y-55698605D02*
X32647142Y-55641462D01*
X32647142Y-55641462D02*
X32561428Y-55612891D01*
X32561428Y-55612891D02*
X32504285Y-55612891D01*
X32504285Y-55612891D02*
X32418571Y-55641462D01*
X32418571Y-55641462D02*
X32389999Y-55670034D01*
X32947142Y-56970034D02*
X33004285Y-56941462D01*
X33004285Y-56941462D02*
X33032856Y-56912891D01*
X33032856Y-56912891D02*
X33061428Y-56855748D01*
X33061428Y-56855748D02*
X33061428Y-56827177D01*
X33061428Y-56827177D02*
X33032856Y-56770034D01*
X33032856Y-56770034D02*
X33004285Y-56741462D01*
X33004285Y-56741462D02*
X32947142Y-56712891D01*
X32947142Y-56712891D02*
X32832856Y-56712891D01*
X32832856Y-56712891D02*
X32775714Y-56741462D01*
X32775714Y-56741462D02*
X32747142Y-56770034D01*
X32747142Y-56770034D02*
X32718571Y-56827177D01*
X32718571Y-56827177D02*
X32718571Y-56855748D01*
X32718571Y-56855748D02*
X32747142Y-56912891D01*
X32747142Y-56912891D02*
X32775714Y-56941462D01*
X32775714Y-56941462D02*
X32832856Y-56970034D01*
X32832856Y-56970034D02*
X32947142Y-56970034D01*
X32947142Y-56970034D02*
X33004285Y-56998605D01*
X33004285Y-56998605D02*
X33032856Y-57027177D01*
X33032856Y-57027177D02*
X33061428Y-57084320D01*
X33061428Y-57084320D02*
X33061428Y-57198605D01*
X33061428Y-57198605D02*
X33032856Y-57255748D01*
X33032856Y-57255748D02*
X33004285Y-57284320D01*
X33004285Y-57284320D02*
X32947142Y-57312891D01*
X32947142Y-57312891D02*
X32832856Y-57312891D01*
X32832856Y-57312891D02*
X32775714Y-57284320D01*
X32775714Y-57284320D02*
X32747142Y-57255748D01*
X32747142Y-57255748D02*
X32718571Y-57198605D01*
X32718571Y-57198605D02*
X32718571Y-57084320D01*
X32718571Y-57084320D02*
X32747142Y-57027177D01*
X32747142Y-57027177D02*
X32775714Y-56998605D01*
X32775714Y-56998605D02*
X32832856Y-56970034D01*
D12*
X24609523Y-58163855D02*
X24609523Y-58811474D01*
X24609523Y-58811474D02*
X24571428Y-58887664D01*
X24571428Y-58887664D02*
X24533333Y-58925760D01*
X24533333Y-58925760D02*
X24457142Y-58963855D01*
X24457142Y-58963855D02*
X24304761Y-58963855D01*
X24304761Y-58963855D02*
X24228571Y-58925760D01*
X24228571Y-58925760D02*
X24190476Y-58887664D01*
X24190476Y-58887664D02*
X24152380Y-58811474D01*
X24152380Y-58811474D02*
X24152380Y-58163855D01*
X23847619Y-58163855D02*
X23352381Y-58163855D01*
X23352381Y-58163855D02*
X23619047Y-58468617D01*
X23619047Y-58468617D02*
X23504762Y-58468617D01*
X23504762Y-58468617D02*
X23428571Y-58506712D01*
X23428571Y-58506712D02*
X23390476Y-58544807D01*
X23390476Y-58544807D02*
X23352381Y-58620998D01*
X23352381Y-58620998D02*
X23352381Y-58811474D01*
X23352381Y-58811474D02*
X23390476Y-58887664D01*
X23390476Y-58887664D02*
X23428571Y-58925760D01*
X23428571Y-58925760D02*
X23504762Y-58963855D01*
X23504762Y-58963855D02*
X23733333Y-58963855D01*
X23733333Y-58963855D02*
X23809524Y-58925760D01*
X23809524Y-58925760D02*
X23847619Y-58887664D01*
%LPC*%
D13*
G04 #@! TO.C,C1*
X11100000Y-13900000D03*
X16100000Y-13900000D03*
G04 #@! TD*
G04 #@! TO.C,C4*
X20000000Y-67000000D03*
X20000000Y-72000000D03*
G04 #@! TD*
D14*
G04 #@! TO.C,C3*
X29000000Y-30000000D03*
D15*
X34000000Y-30000000D03*
G04 #@! TD*
D16*
G04 #@! TO.C,H2*
X24400000Y-2850000D03*
X31600000Y-2850000D03*
G04 #@! TD*
G04 #@! TO.C,H1*
X6900000Y-2850000D03*
X14100000Y-2850000D03*
G04 #@! TD*
G04 #@! TO.C,J3*
X10350000Y-82150000D03*
X5650000Y-82150000D03*
G04 #@! TD*
D17*
G04 #@! TO.C,D1*
X10000000Y-24950000D03*
D18*
X20160000Y-24950000D03*
G04 #@! TD*
D13*
G04 #@! TO.C,R1*
X25700000Y-13900000D03*
X35860000Y-13900000D03*
G04 #@! TD*
D17*
G04 #@! TO.C,D3*
X10000000Y-31950000D03*
D18*
X20160000Y-31950000D03*
G04 #@! TD*
D19*
G04 #@! TO.C,J4*
X29700000Y-68650000D03*
X29700000Y-73950000D03*
G04 #@! TD*
D13*
G04 #@! TO.C,PF1*
X15540000Y-78140000D03*
X18080000Y-78140000D03*
X20620000Y-78140000D03*
X23160000Y-78140000D03*
X25700000Y-78140000D03*
X28240000Y-78140000D03*
X30780000Y-78140000D03*
X33320000Y-78140000D03*
X15540000Y-80680000D03*
X18080000Y-80680000D03*
X20620000Y-80680000D03*
X23160000Y-80680000D03*
X25700000Y-80680000D03*
X28240000Y-80680000D03*
X30780000Y-80680000D03*
X33320000Y-80680000D03*
X15540000Y-83220000D03*
X18080000Y-83220000D03*
X20620000Y-83220000D03*
X23160000Y-83220000D03*
X25700000Y-83220000D03*
X28240000Y-83220000D03*
X30780000Y-83220000D03*
X33320000Y-83220000D03*
G04 #@! TD*
D20*
G04 #@! TO.C,J2*
X36400000Y-68000000D03*
D13*
X36400000Y-70540000D03*
X36400000Y-73080000D03*
G04 #@! TD*
D17*
G04 #@! TO.C,D4*
X10000000Y-35450000D03*
D18*
X20160000Y-35450000D03*
G04 #@! TD*
D21*
G04 #@! TO.C,U3*
X15110000Y-54040000D03*
D22*
X17650000Y-54040000D03*
X20190000Y-54040000D03*
X27810000Y-54040000D03*
X30350000Y-54040000D03*
X32890000Y-54040000D03*
G04 #@! TD*
D17*
G04 #@! TO.C,D2*
X10000000Y-28450000D03*
D18*
X20160000Y-28450000D03*
G04 #@! TD*
D21*
G04 #@! TO.C,F1*
X15500000Y-44500000D03*
D22*
X20580000Y-44500000D03*
G04 #@! TD*
%LPD*%
M02*
