G04 #@! TF.GenerationSoftware,KiCad,Pcbnew,10.0.6*
G04 #@! TF.CreationDate,2026-09-27T19:54:45-04:00*
G04 #@! TF.ProjectId,extc-board,65787463-2d62-46f6-9172-642e6b696361,rev?*
G04 #@! TF.SameCoordinates,Original*
G04 #@! TF.FileFunction,Copper,L1,Top*
G04 #@! TF.FilePolarity,Positive*
%FSLAX46Y46*%
G04 Gerber Fmt 4.6, Leading zero omitted, Abs format (unit mm)*
G04 Created by KiCad (PCBNEW 10.0.6) date 2026-09-27 19:54:45*
%MOMM*%
%LPD*%
G01*
G04 APERTURE LIST*
G04 Aperture macros list*
%AMRoundRect*
0 Rectangle with rounded corners*
0 $1 Rounding radius*
0 $2 $3 $4 $5 $6 $7 $8 $9 X,Y pos of 4 corners*
0 Add a 4 corners polygon primitive as box body*
4,1,4,$2,$3,$4,$5,$6,$7,$8,$9,$2,$3,0*
0 Add four circle primitives for the rounded corners*
1,1,$1+$1,$2,$3*
1,1,$1+$1,$4,$5*
1,1,$1+$1,$6,$7*
1,1,$1+$1,$8,$9*
0 Add four rect primitives between the rounded corners*
20,1,$1+$1,$2,$3,$4,$5,0*
20,1,$1+$1,$4,$5,$6,$7,0*
20,1,$1+$1,$6,$7,$8,$9,0*
20,1,$1+$1,$8,$9,$2,$3,0*%
%AMFreePoly0*
4,1,23,0.500000,-0.750000,0.000000,-0.750000,0.000000,-0.745722,-0.065263,-0.745722,-0.191342,-0.711940,-0.304381,-0.646677,-0.396677,-0.554381,-0.461940,-0.441342,-0.495722,-0.315263,-0.495722,-0.250000,-0.500000,-0.250000,-0.500000,0.250000,-0.495722,0.250000,-0.495722,0.315263,-0.461940,0.441342,-0.396677,0.554381,-0.304381,0.646677,-0.191342,0.711940,-0.065263,0.745722,0.000000,0.745722,
0.000000,0.750000,0.500000,0.750000,0.500000,-0.750000,0.500000,-0.750000,$1*%
%AMFreePoly1*
4,1,23,0.000000,0.745722,0.065263,0.745722,0.191342,0.711940,0.304381,0.646677,0.396677,0.554381,0.461940,0.441342,0.495722,0.315263,0.495722,0.250000,0.500000,0.250000,0.500000,-0.250000,0.495722,-0.250000,0.495722,-0.315263,0.461940,-0.441342,0.396677,-0.554381,0.304381,-0.646677,0.191342,-0.711940,0.065263,-0.745722,0.000000,-0.745722,0.000000,-0.750000,-0.500000,-0.750000,
-0.500000,0.750000,0.000000,0.750000,0.000000,0.745722,0.000000,0.745722,$1*%
G04 Aperture macros list end*
G04 #@! TA.AperFunction,ComponentPad*
%ADD10C,1.600000*%
G04 #@! TD*
G04 #@! TA.AperFunction,SMDPad,CuDef*
%ADD11RoundRect,0.150000X-0.825000X-0.150000X0.825000X-0.150000X0.825000X0.150000X-0.825000X0.150000X0*%
G04 #@! TD*
G04 #@! TA.AperFunction,ComponentPad*
%ADD12RoundRect,0.250001X-0.949999X-0.949999X0.949999X-0.949999X0.949999X0.949999X-0.949999X0.949999X0*%
G04 #@! TD*
G04 #@! TA.AperFunction,ComponentPad*
%ADD13C,2.400000*%
G04 #@! TD*
G04 #@! TA.AperFunction,SMDPad,CuDef*
%ADD14R,1.200000X3.200000*%
G04 #@! TD*
G04 #@! TA.AperFunction,SMDPad,CuDef*
%ADD15R,2.200000X5.600000*%
G04 #@! TD*
G04 #@! TA.AperFunction,SMDPad,CuDef*
%ADD16RoundRect,0.150000X0.700000X-0.150000X0.700000X0.150000X-0.700000X0.150000X-0.700000X-0.150000X0*%
G04 #@! TD*
G04 #@! TA.AperFunction,SMDPad,CuDef*
%ADD17RoundRect,0.250000X1.150000X-0.250000X1.150000X0.250000X-1.150000X0.250000X-1.150000X-0.250000X0*%
G04 #@! TD*
G04 #@! TA.AperFunction,SMDPad,CuDef*
%ADD18FreePoly0,0.000000*%
G04 #@! TD*
G04 #@! TA.AperFunction,SMDPad,CuDef*
%ADD19FreePoly1,0.000000*%
G04 #@! TD*
G04 #@! TA.AperFunction,ComponentPad*
%ADD20RoundRect,0.249999X-0.850001X-0.850001X0.850001X-0.850001X0.850001X0.850001X-0.850001X0.850001X0*%
G04 #@! TD*
G04 #@! TA.AperFunction,ComponentPad*
%ADD21C,2.200000*%
G04 #@! TD*
G04 #@! TA.AperFunction,SMDPad,CuDef*
%ADD22R,4.400000X1.200000*%
G04 #@! TD*
G04 #@! TA.AperFunction,SMDPad,CuDef*
%ADD23R,5.600000X2.100000*%
G04 #@! TD*
G04 #@! TA.AperFunction,ComponentPad*
%ADD24RoundRect,0.400000X-0.400000X-0.400000X0.400000X-0.400000X0.400000X0.400000X-0.400000X0.400000X0*%
G04 #@! TD*
G04 #@! TA.AperFunction,ComponentPad*
%ADD25RoundRect,0.450000X-0.450000X-0.450000X0.450000X-0.450000X0.450000X0.450000X-0.450000X0.450000X0*%
G04 #@! TD*
G04 #@! TA.AperFunction,ComponentPad*
%ADD26C,1.800000*%
G04 #@! TD*
G04 #@! TA.AperFunction,ViaPad*
%ADD27C,1.000000*%
G04 #@! TD*
G04 #@! TA.AperFunction,ViaPad*
%ADD28C,0.800000*%
G04 #@! TD*
G04 #@! TA.AperFunction,Conductor*
%ADD29C,0.500000*%
G04 #@! TD*
G04 #@! TA.AperFunction,Conductor*
%ADD30C,0.250000*%
G04 #@! TD*
G04 APERTURE END LIST*
D10*
G04 #@! TO.P,C1,1*
G04 #@! TO.N,VCC*
X11100000Y-13900000D03*
G04 #@! TO.P,C1,2*
G04 #@! TO.N,GND*
X16100000Y-13900000D03*
G04 #@! TD*
G04 #@! TO.P,C4,1*
G04 #@! TO.N,+5V*
X20000000Y-67000000D03*
G04 #@! TO.P,C4,2*
G04 #@! TO.N,GND*
X20000000Y-72000000D03*
G04 #@! TD*
D11*
G04 #@! TO.P,U1,1*
G04 #@! TO.N,VCC*
X2125000Y-11995000D03*
G04 #@! TO.P,U1,2*
G04 #@! TO.N,DATA*
X2125000Y-13265000D03*
G04 #@! TO.P,U1,3*
G04 #@! TO.N,GND*
X2125000Y-14535000D03*
G04 #@! TO.P,U1,4*
G04 #@! TO.N,SCL*
X2125000Y-15805000D03*
G04 #@! TO.P,U1,5*
G04 #@! TO.N,SDA*
X7075000Y-15805000D03*
G04 #@! TO.P,U1,6*
G04 #@! TO.N,N/C*
X7075000Y-14535000D03*
G04 #@! TO.P,U1,7*
G04 #@! TO.N,GND*
X7075000Y-13265000D03*
G04 #@! TO.P,U1,8*
X7075000Y-11995000D03*
G04 #@! TD*
D12*
G04 #@! TO.P,C3,1*
G04 #@! TO.N,VS*
X29000000Y-30000000D03*
D13*
G04 #@! TO.P,C3,2*
G04 #@! TO.N,COM*
X34000000Y-30000000D03*
G04 #@! TD*
D14*
G04 #@! TO.P,H2,1*
G04 #@! TO.N,VCC*
X25500000Y-8199999D03*
G04 #@! TO.P,H2,2*
G04 #@! TO.N,DATA*
X28000000Y-8199999D03*
G04 #@! TO.P,H2,3*
G04 #@! TO.N,GND*
X30500000Y-8199999D03*
D15*
G04 #@! TO.P,H2,MP*
G04 #@! TO.N,N/C*
X22250000Y-3600000D03*
X33750000Y-3600000D03*
G04 #@! TD*
D16*
G04 #@! TO.P,J1,1*
G04 #@! TO.N,VCC*
X6250000Y-56250000D03*
G04 #@! TO.P,J1,2*
G04 #@! TO.N,SDA*
X6250000Y-55000000D03*
G04 #@! TO.P,J1,3*
G04 #@! TO.N,SCL*
X6250000Y-53750000D03*
G04 #@! TO.P,J1,4*
G04 #@! TO.N,GPIO4*
X6250000Y-52500000D03*
G04 #@! TO.P,J1,5*
G04 #@! TO.N,GND*
X6250000Y-51250000D03*
G04 #@! TO.P,J1,6*
G04 #@! TO.N,VS*
X6250000Y-50000000D03*
G04 #@! TO.P,J1,7*
G04 #@! TO.N,COM*
X6250000Y-48750000D03*
D17*
G04 #@! TO.P,J1,MP*
G04 #@! TO.N,N/C*
X2900000Y-58100000D03*
X2900000Y-46900000D03*
G04 #@! TD*
D14*
G04 #@! TO.P,H1,1*
G04 #@! TO.N,VCC*
X8000000Y-8199999D03*
G04 #@! TO.P,H1,2*
G04 #@! TO.N,DATA*
X10500000Y-8199999D03*
G04 #@! TO.P,H1,3*
G04 #@! TO.N,GND*
X13000000Y-8199999D03*
D15*
G04 #@! TO.P,H1,MP*
G04 #@! TO.N,N/C*
X4750000Y-3600000D03*
X16250000Y-3600000D03*
G04 #@! TD*
D18*
G04 #@! TO.P,JP1,1*
G04 #@! TO.N,GPIO4*
X20450000Y-13900000D03*
D19*
G04 #@! TO.P,JP1,2*
G04 #@! TO.N,DATA*
X21750000Y-13900000D03*
G04 #@! TD*
D14*
G04 #@! TO.P,J3,1*
G04 #@! TO.N,ACR*
X9250000Y-76800001D03*
G04 #@! TO.P,J3,2*
G04 #@! TO.N,ACC*
X6750000Y-76800001D03*
D15*
G04 #@! TO.P,J3,MP*
G04 #@! TO.N,N/C*
X12500000Y-81400000D03*
X3500000Y-81400000D03*
G04 #@! TD*
D20*
G04 #@! TO.P,D1,1*
G04 #@! TO.N,VS*
X10000000Y-24950000D03*
D21*
G04 #@! TO.P,D1,2*
G04 #@! TO.N,ACF*
X20160000Y-24950000D03*
G04 #@! TD*
D10*
G04 #@! TO.P,R1,1*
G04 #@! TO.N,VCC*
X25700000Y-13900000D03*
G04 #@! TO.P,R1,2*
G04 #@! TO.N,DATA*
X35860000Y-13900000D03*
G04 #@! TD*
D20*
G04 #@! TO.P,D3,1*
G04 #@! TO.N,ACF*
X10000000Y-31950000D03*
D21*
G04 #@! TO.P,D3,2*
G04 #@! TO.N,COM*
X20160000Y-31950000D03*
G04 #@! TD*
D22*
G04 #@! TO.P,J4,1*
G04 #@! TO.N,+5V*
X30300000Y-70050000D03*
G04 #@! TO.P,J4,2*
G04 #@! TO.N,GND*
X30300000Y-72550000D03*
D23*
G04 #@! TO.P,J4,MP*
G04 #@! TO.N,N/C*
X27600000Y-66700000D03*
X27600000Y-75900000D03*
G04 #@! TD*
D10*
G04 #@! TO.P,PF1,1*
G04 #@! TO.N,N/C*
X15540000Y-78140000D03*
G04 #@! TO.P,PF1,2*
X18080000Y-78140000D03*
G04 #@! TO.P,PF1,3*
X20620000Y-78140000D03*
G04 #@! TO.P,PF1,4*
X23160000Y-78140000D03*
G04 #@! TO.P,PF1,5*
X25700000Y-78140000D03*
G04 #@! TO.P,PF1,6*
X28240000Y-78140000D03*
G04 #@! TO.P,PF1,7*
X30780000Y-78140000D03*
G04 #@! TO.P,PF1,8*
X33320000Y-78140000D03*
G04 #@! TO.P,PF1,9*
X15540000Y-80680000D03*
G04 #@! TO.P,PF1,10*
X18080000Y-80680000D03*
G04 #@! TO.P,PF1,11*
X20620000Y-80680000D03*
G04 #@! TO.P,PF1,12*
X23160000Y-80680000D03*
G04 #@! TO.P,PF1,13*
X25700000Y-80680000D03*
G04 #@! TO.P,PF1,14*
X28240000Y-80680000D03*
G04 #@! TO.P,PF1,15*
X30780000Y-80680000D03*
G04 #@! TO.P,PF1,16*
X33320000Y-80680000D03*
G04 #@! TO.P,PF1,17*
X15540000Y-83220000D03*
G04 #@! TO.P,PF1,18*
X18080000Y-83220000D03*
G04 #@! TO.P,PF1,19*
X20620000Y-83220000D03*
G04 #@! TO.P,PF1,20*
X23160000Y-83220000D03*
G04 #@! TO.P,PF1,21*
X25700000Y-83220000D03*
G04 #@! TO.P,PF1,22*
X28240000Y-83220000D03*
G04 #@! TO.P,PF1,23*
X30780000Y-83220000D03*
G04 #@! TO.P,PF1,24*
X33320000Y-83220000D03*
G04 #@! TD*
D24*
G04 #@! TO.P,J2,1*
G04 #@! TO.N,VCC*
X36400000Y-68000000D03*
D10*
G04 #@! TO.P,J2,2*
G04 #@! TO.N,DATA*
X36400000Y-70540000D03*
G04 #@! TO.P,J2,3*
G04 #@! TO.N,GND*
X36400000Y-73080000D03*
G04 #@! TD*
D20*
G04 #@! TO.P,D4,1*
G04 #@! TO.N,ACC*
X10000000Y-35450000D03*
D21*
G04 #@! TO.P,D4,2*
G04 #@! TO.N,COM*
X20160000Y-35450000D03*
G04 #@! TD*
D25*
G04 #@! TO.P,U3,1*
G04 #@! TO.N,COM*
X15110000Y-54040000D03*
D26*
G04 #@! TO.P,U3,2*
G04 #@! TO.N,VS*
X17650000Y-54040000D03*
G04 #@! TO.P,U3,3*
G04 #@! TO.N,N/C*
X20190000Y-54040000D03*
G04 #@! TO.P,U3,6*
G04 #@! TO.N,+5V*
X27810000Y-54040000D03*
G04 #@! TO.P,U3,7*
G04 #@! TO.N,GND*
X30350000Y-54040000D03*
G04 #@! TO.P,U3,8*
G04 #@! TO.N,N/C*
X32890000Y-54040000D03*
G04 #@! TD*
D20*
G04 #@! TO.P,D2,1*
G04 #@! TO.N,VS*
X10000000Y-28450000D03*
D21*
G04 #@! TO.P,D2,2*
G04 #@! TO.N,ACC*
X20160000Y-28450000D03*
G04 #@! TD*
D25*
G04 #@! TO.P,F1,1*
G04 #@! TO.N,ACR*
X15500000Y-44500000D03*
D26*
G04 #@! TO.P,F1,2*
G04 #@! TO.N,ACF*
X20580000Y-44500000D03*
G04 #@! TD*
D27*
G04 #@! TO.N,VCC*
X33199400Y-74463000D03*
X6250000Y-68314900D03*
G04 #@! TO.N,GND*
X4626700Y-41654700D03*
X9061600Y-13730400D03*
X8609900Y-50739100D03*
X10341600Y-67672400D03*
X31098100Y-12520200D03*
D28*
G04 #@! TO.N,DATA*
X3708300Y-12970200D03*
G04 #@! TO.N,SDA*
X4584700Y-54709100D03*
X6136000Y-25071600D03*
D27*
G04 #@! TO.N,ACC*
X8923100Y-53461700D03*
G04 #@! TD*
G04 #@! TO.N,VCC*
D29*
X6250000Y-68314900D02*
X6250000Y-56250000D01*
X25500000Y-13700000D02*
X25500000Y-8200000D01*
X36400000Y-68000000D02*
X36400000Y-24600000D01*
X36400000Y-24600000D02*
X25700000Y-13900000D01*
X36400000Y-68000000D02*
X34848300Y-69551700D01*
X11100000Y-13900000D02*
X11100000Y-13651700D01*
X3568300Y-10551700D02*
X8000000Y-10551700D01*
X2125000Y-11995000D02*
X3568300Y-10551700D01*
X25700000Y-13900000D02*
X25500000Y-13700000D01*
X34848300Y-72814100D02*
X33199400Y-74463000D01*
X11100000Y-13651700D02*
X8000000Y-10551700D01*
X8000000Y-8200000D02*
X8000000Y-10551700D01*
X34848300Y-69551700D02*
X34848300Y-72814100D01*
G04 #@! TO.N,GND*
X8596200Y-13265000D02*
X9061600Y-13730400D01*
X10341600Y-67672400D02*
X10341600Y-52981700D01*
X7075000Y-13265000D02*
X8596200Y-13265000D01*
X31098100Y-11149800D02*
X31098100Y-12520200D01*
X30500000Y-8200000D02*
X30500000Y-10551700D01*
X13000000Y-8200000D02*
X13000000Y-9375800D01*
X13000000Y-10800000D02*
X16100000Y-13900000D01*
X6250000Y-51250000D02*
X8609900Y-51250000D01*
X13000000Y-9375800D02*
X13000000Y-10800000D01*
X4620300Y-14629900D02*
X5985200Y-13265000D01*
X4525400Y-14535000D02*
X2125000Y-14535000D01*
X4620300Y-14629900D02*
X4620300Y-41648300D01*
X10341600Y-52981700D02*
X8609900Y-51250000D01*
X20549999Y-72550000D02*
X20000000Y-72000000D01*
X7075000Y-11995000D02*
X7075000Y-13265000D01*
X8609900Y-51250000D02*
X8609900Y-50739100D01*
X5985200Y-13265000D02*
X7075000Y-13265000D01*
X30500000Y-10551700D02*
X31098100Y-11149800D01*
X4620300Y-41648300D02*
X4626700Y-41654700D01*
X30300000Y-72550000D02*
X20549999Y-72550000D01*
X4620300Y-14629900D02*
X4525400Y-14535000D01*
G04 #@! TO.N,+5V*
X30300000Y-70050000D02*
X23000000Y-70050000D01*
X23000000Y-70050000D02*
X23000000Y-67000000D01*
X23000000Y-67000000D02*
X20000000Y-67000000D01*
G04 #@! TO.N,DATA*
D30*
X21750000Y-8861600D02*
X21750000Y-13900000D01*
X30884500Y-13900000D02*
X35860000Y-13900000D01*
X3708300Y-12970200D02*
X3413500Y-13265000D01*
X28000000Y-8962400D02*
X28000000Y-10126700D01*
X28000000Y-10126700D02*
X28000000Y-11015500D01*
X37879300Y-15919300D02*
X35860000Y-13900000D01*
X37879300Y-69060700D02*
X37879300Y-15919300D01*
X28000000Y-8962400D02*
X28000000Y-8200000D01*
X21750000Y-13900000D02*
X21750000Y-14375200D01*
X15492900Y-15326700D02*
X10500000Y-10333800D01*
X20798500Y-15326700D02*
X15492900Y-15326700D01*
X28000000Y-8200000D02*
X28000000Y-6273300D01*
X21750000Y-14375200D02*
X20798500Y-15326700D01*
X36400000Y-70540000D02*
X37879300Y-69060700D01*
X3413500Y-13265000D02*
X2125000Y-13265000D01*
X28000000Y-11015500D02*
X30884500Y-13900000D01*
X10500000Y-10333800D02*
X10500000Y-8200000D01*
X28000000Y-6273300D02*
X27700000Y-5973300D01*
X24638300Y-5973300D02*
X21750000Y-8861600D01*
X27700000Y-5973300D02*
X24638300Y-5973300D01*
G04 #@! TO.N,SCL*
X1169800Y-16760200D02*
X2125000Y-15805000D01*
X6250000Y-53750000D02*
X5954400Y-53750000D01*
X1169800Y-48965400D02*
X1169800Y-16760200D01*
X5954400Y-53750000D02*
X1169800Y-48965400D01*
G04 #@! TO.N,SDA*
X4875600Y-55000000D02*
X4584700Y-54709100D01*
X6136000Y-16744000D02*
X7075000Y-15805000D01*
X6250000Y-55000000D02*
X4875600Y-55000000D01*
X6136000Y-25071600D02*
X6136000Y-16744000D01*
G04 #@! TO.N,VS*
D29*
X29000000Y-30000000D02*
X20576000Y-38424000D01*
X20576000Y-38424000D02*
X18956800Y-38424000D01*
X29000000Y-30000000D02*
X29000000Y-22900000D01*
X18956800Y-38424000D02*
X7380800Y-50000000D01*
X10000000Y-28450000D02*
X10000000Y-24950000D01*
X7380800Y-50000000D02*
X6250000Y-50000000D01*
X10000000Y-22900000D02*
X10000000Y-24950000D01*
X29000000Y-22900000D02*
X10000000Y-22900000D01*
G04 #@! TO.N,COM*
X20160000Y-35450000D02*
X19550000Y-35450000D01*
X20160000Y-35450000D02*
X20160000Y-31950000D01*
X19550000Y-35450000D02*
X6250000Y-48750000D01*
G04 #@! TO.N,GPIO4*
D30*
X7526700Y-19491000D02*
X12526700Y-14491000D01*
X5512000Y-52500000D02*
X4723900Y-51711900D01*
X9990900Y-5973300D02*
X13904900Y-5973300D01*
X12526700Y-13232700D02*
X9573300Y-10279300D01*
X4723900Y-51711900D02*
X4723900Y-44577600D01*
X6250000Y-52500000D02*
X5512000Y-52500000D01*
X9573300Y-6390900D02*
X9990900Y-5973300D01*
X4723900Y-44577600D02*
X7526700Y-41774800D01*
X12526700Y-14491000D02*
X12526700Y-13232700D01*
X20450000Y-12518400D02*
X20450000Y-13900000D01*
X13904900Y-5973300D02*
X20450000Y-12518400D01*
X7526700Y-41774800D02*
X7526700Y-19491000D01*
X9573300Y-10279300D02*
X9573300Y-6390900D01*
G04 #@! TO.N,ACR*
D29*
X9250000Y-74448300D02*
X11934300Y-71764000D01*
X9250000Y-76800000D02*
X9250000Y-74448300D01*
X11934300Y-71764000D02*
X11934300Y-48065700D01*
X11934300Y-48065700D02*
X15500000Y-44500000D01*
G04 #@! TO.N,ACC*
X8923100Y-70943500D02*
X8923100Y-53461700D01*
X13160000Y-35450000D02*
X10000000Y-35450000D01*
X6750000Y-73116600D02*
X8923100Y-70943500D01*
X6750000Y-76800000D02*
X6750000Y-73116600D01*
X20160000Y-28450000D02*
X13160000Y-35450000D01*
G04 #@! TD*
M02*
