M48
; DRILL file KiCad 10.0.6 date 2026-09-27T19:27:13
; FORMAT={-:-/ absolute / metric / decimal}
; #@! TF.CreationDate,2026-09-27T19:27:13-04:00
; #@! TF.GenerationSoftware,Kicad,Pcbnew,10.0.6
; #@! TF.FileFunction,MixedPlating,1,2
FMAT,2
METRIC
; #@! TA.AperFunction,Plated,PTH,ViaDrill
T1C0.400
; #@! TA.AperFunction,Plated,PTH,ViaDrill
T2C0.500
; #@! TA.AperFunction,Plated,PTH,ComponentDrill
T3C0.800
; #@! TA.AperFunction,Plated,PTH,ComponentDrill
T4C1.000
; #@! TA.AperFunction,Plated,PTH,ComponentDrill
T5C1.100
; #@! TA.AperFunction,Plated,PTH,ComponentDrill
T6C1.200
; #@! TA.AperFunction,NonPlated,NPTH,ComponentDrill
T7C1.000
; #@! TA.AperFunction,NonPlated,NPTH,ComponentDrill
T8C1.100
%
G90
G05
T1
X4.585Y-53.427
X5.025Y-24.769
T2
X5.75Y-9.037
X6.705Y-47.23
X6.898Y-58.353
X9.575Y-68.393
X9.978Y-66.676
X16.712Y-72.616
X30.978Y-12.515
X32.972Y-16.75
T3
X11.1Y-13.9
X16.1Y-13.9
X20.0Y-67.0
X20.0Y-72.0
X25.7Y-13.9
X35.86Y-13.9
T4
X15.11Y-54.04
X15.5Y-44.5
X15.54Y-78.14
X15.54Y-80.68
X15.54Y-83.22
X17.65Y-54.04
X18.08Y-78.14
X18.08Y-80.68
X18.08Y-83.22
X20.19Y-54.04
X20.58Y-44.5
X20.62Y-78.14
X20.62Y-80.68
X20.62Y-83.22
X23.16Y-78.14
X23.16Y-80.68
X23.16Y-83.22
X25.7Y-78.14
X25.7Y-80.68
X25.7Y-83.22
X27.81Y-54.04
X28.24Y-78.14
X28.24Y-80.68
X28.24Y-83.22
X30.35Y-54.04
X30.78Y-78.14
X30.78Y-80.68
X30.78Y-83.22
X32.89Y-54.04
X33.32Y-78.14
X33.32Y-80.68
X33.32Y-83.22
X36.4Y-68.0
X36.4Y-70.54
X36.4Y-73.08
T5
X10.0Y-24.95
X10.0Y-28.45
X10.0Y-31.95
X10.0Y-35.45
X20.16Y-24.95
X20.16Y-28.45
X20.16Y-31.95
X20.16Y-35.45
T6
X29.0Y-30.0
X34.0Y-30.0
T7
X29.7Y-68.65
X29.7Y-73.95
T8
X5.65Y-82.15
X6.9Y-2.85
X10.35Y-82.15
X14.1Y-2.85
X24.4Y-2.85
X31.6Y-2.85
M30
