%TF.GenerationSoftware,KiCad,Pcbnew,10.0.6*%
%TF.CreationDate,2026-09-27T20:01:24-04:00*%
%TF.ProjectId,extc-board,65787463-2d62-46f6-9172-642e6b696361,rev?*%
%TF.SameCoordinates,Original*%
%TF.FileFunction,Drillmap*%
%TF.FilePolarity,Positive*%
%FSLAX45Y45*%
G04 Gerber Fmt 4.5, Leading zero omitted, Abs format (unit mm)*
G04 Created by KiCad (PCBNEW 10.0.6) date 2026-09-27 20:01:24*
%MOMM*%
%LPD*%
G01*
G04 APERTURE LIST*
%ADD10C,0.100000*%
%ADD11C,0.200000*%
%ADD12C,0.110000*%
%ADD13C,0.120000*%
G04 APERTURE END LIST*
D10*
X0Y0D02*
X3850000Y0D01*
X3850000Y-8500000D01*
X0Y-8500000D01*
X0Y0D01*
D11*
D10*
X187500Y-930660D02*
X237500Y-980660D01*
X237500Y-930660D02*
X187500Y-980660D01*
X364800Y-4145470D02*
X414800Y-4195470D01*
X414800Y-4145470D02*
X364800Y-4195470D01*
X406820Y-5100000D02*
X456820Y-5150000D01*
X456820Y-5100000D02*
X406820Y-5150000D01*
X410870Y-4816410D02*
X460870Y-4866410D01*
X460870Y-4816410D02*
X410870Y-4866410D01*
X600000Y-6786390D02*
X650000Y-6836390D01*
X650000Y-6786390D02*
X600000Y-6836390D01*
X673120Y-4716070D02*
X723120Y-4766070D01*
X723120Y-4716070D02*
X673120Y-4766070D01*
X1038230Y-5939020D02*
X1088230Y-5989020D01*
X1088230Y-5939020D02*
X1038230Y-5989020D01*
X2956520Y-1231300D02*
X3006520Y-1281300D01*
X3006520Y-1231300D02*
X2956520Y-1281300D01*
X3294940Y-7421300D02*
X3344940Y-7471300D01*
X3344940Y-7421300D02*
X3294940Y-7471300D01*
X1150000Y-1390000D02*
G75*
G02*
X1070000Y-1390000I-40000J0D01*
G01*
X1070000Y-1390000D02*
G75*
G02*
X1150000Y-1390000I40000J0D01*
G01*
X1650000Y-1390000D02*
G75*
G02*
X1570000Y-1390000I-40000J0D01*
G01*
X1570000Y-1390000D02*
G75*
G02*
X1650000Y-1390000I40000J0D01*
G01*
X2040000Y-6700000D02*
G75*
G02*
X1960000Y-6700000I-40000J0D01*
G01*
X1960000Y-6700000D02*
G75*
G02*
X2040000Y-6700000I40000J0D01*
G01*
X2040000Y-7200000D02*
G75*
G02*
X1960000Y-7200000I-40000J0D01*
G01*
X1960000Y-7200000D02*
G75*
G02*
X2040000Y-7200000I40000J0D01*
G01*
X2610000Y-1390000D02*
G75*
G02*
X2530000Y-1390000I-40000J0D01*
G01*
X2530000Y-1390000D02*
G75*
G02*
X2610000Y-1390000I40000J0D01*
G01*
X3626000Y-1390000D02*
G75*
G02*
X3546000Y-1390000I-40000J0D01*
G01*
X3546000Y-1390000D02*
G75*
G02*
X3626000Y-1390000I40000J0D01*
G01*
X1511000Y-5354000D02*
X1511000Y-5454000D01*
X1461000Y-5404000D02*
X1561000Y-5404000D01*
X1550000Y-4400000D02*
X1550000Y-4500000D01*
X1500000Y-4450000D02*
X1600000Y-4450000D01*
X1554000Y-7764000D02*
X1554000Y-7864000D01*
X1504000Y-7814000D02*
X1604000Y-7814000D01*
X1554000Y-8018000D02*
X1554000Y-8118000D01*
X1504000Y-8068000D02*
X1604000Y-8068000D01*
X1554000Y-8272000D02*
X1554000Y-8372000D01*
X1504000Y-8322000D02*
X1604000Y-8322000D01*
X1765000Y-5354000D02*
X1765000Y-5454000D01*
X1715000Y-5404000D02*
X1815000Y-5404000D01*
X1808000Y-7764000D02*
X1808000Y-7864000D01*
X1758000Y-7814000D02*
X1858000Y-7814000D01*
X1808000Y-8018000D02*
X1808000Y-8118000D01*
X1758000Y-8068000D02*
X1858000Y-8068000D01*
X1808000Y-8272000D02*
X1808000Y-8372000D01*
X1758000Y-8322000D02*
X1858000Y-8322000D01*
X2019000Y-5354000D02*
X2019000Y-5454000D01*
X1969000Y-5404000D02*
X2069000Y-5404000D01*
X2058000Y-4400000D02*
X2058000Y-4500000D01*
X2008000Y-4450000D02*
X2108000Y-4450000D01*
X2062000Y-7764000D02*
X2062000Y-7864000D01*
X2012000Y-7814000D02*
X2112000Y-7814000D01*
X2062000Y-8018000D02*
X2062000Y-8118000D01*
X2012000Y-8068000D02*
X2112000Y-8068000D01*
X2062000Y-8272000D02*
X2062000Y-8372000D01*
X2012000Y-8322000D02*
X2112000Y-8322000D01*
X2316000Y-7764000D02*
X2316000Y-7864000D01*
X2266000Y-7814000D02*
X2366000Y-7814000D01*
X2316000Y-8018000D02*
X2316000Y-8118000D01*
X2266000Y-8068000D02*
X2366000Y-8068000D01*
X2316000Y-8272000D02*
X2316000Y-8372000D01*
X2266000Y-8322000D02*
X2366000Y-8322000D01*
X2570000Y-7764000D02*
X2570000Y-7864000D01*
X2520000Y-7814000D02*
X2620000Y-7814000D01*
X2570000Y-8018000D02*
X2570000Y-8118000D01*
X2520000Y-8068000D02*
X2620000Y-8068000D01*
X2570000Y-8272000D02*
X2570000Y-8372000D01*
X2520000Y-8322000D02*
X2620000Y-8322000D01*
X2781000Y-5354000D02*
X2781000Y-5454000D01*
X2731000Y-5404000D02*
X2831000Y-5404000D01*
X2824000Y-7764000D02*
X2824000Y-7864000D01*
X2774000Y-7814000D02*
X2874000Y-7814000D01*
X2824000Y-8018000D02*
X2824000Y-8118000D01*
X2774000Y-8068000D02*
X2874000Y-8068000D01*
X2824000Y-8272000D02*
X2824000Y-8372000D01*
X2774000Y-8322000D02*
X2874000Y-8322000D01*
X3035000Y-5354000D02*
X3035000Y-5454000D01*
X2985000Y-5404000D02*
X3085000Y-5404000D01*
X3078000Y-7764000D02*
X3078000Y-7864000D01*
X3028000Y-7814000D02*
X3128000Y-7814000D01*
X3078000Y-8018000D02*
X3078000Y-8118000D01*
X3028000Y-8068000D02*
X3128000Y-8068000D01*
X3078000Y-8272000D02*
X3078000Y-8372000D01*
X3028000Y-8322000D02*
X3128000Y-8322000D01*
X3289000Y-5354000D02*
X3289000Y-5454000D01*
X3239000Y-5404000D02*
X3339000Y-5404000D01*
X3332000Y-7764000D02*
X3332000Y-7864000D01*
X3282000Y-7814000D02*
X3382000Y-7814000D01*
X3332000Y-8018000D02*
X3332000Y-8118000D01*
X3282000Y-8068000D02*
X3382000Y-8068000D01*
X3332000Y-8272000D02*
X3332000Y-8372000D01*
X3282000Y-8322000D02*
X3382000Y-8322000D01*
X3640000Y-6750000D02*
X3640000Y-6850000D01*
X3590000Y-6800000D02*
X3690000Y-6800000D01*
X3640000Y-7004000D02*
X3640000Y-7104000D01*
X3590000Y-7054000D02*
X3690000Y-7054000D01*
X3640000Y-7258000D02*
X3640000Y-7358000D01*
X3590000Y-7308000D02*
X3690000Y-7308000D01*
D12*
X1038891Y-2533891D02*
X1038891Y-2456109D01*
X961109Y-2456109D01*
X961109Y-2533891D01*
X1038891Y-2533891D01*
X1038891Y-2883891D02*
X1038891Y-2806109D01*
X961109Y-2806109D01*
X961109Y-2883891D01*
X1038891Y-2883891D01*
X1038891Y-3233891D02*
X1038891Y-3156109D01*
X961109Y-3156109D01*
X961109Y-3233891D01*
X1038891Y-3233891D01*
X1038891Y-3583891D02*
X1038891Y-3506109D01*
X961109Y-3506109D01*
X961109Y-3583891D01*
X1038891Y-3583891D01*
X2054891Y-2533891D02*
X2054891Y-2456109D01*
X1977109Y-2456109D01*
X1977109Y-2533891D01*
X2054891Y-2533891D01*
X2054891Y-2883891D02*
X2054891Y-2806109D01*
X1977109Y-2806109D01*
X1977109Y-2883891D01*
X2054891Y-2883891D01*
X2054891Y-3233891D02*
X2054891Y-3156109D01*
X1977109Y-3156109D01*
X1977109Y-3233891D01*
X2054891Y-3233891D01*
X2054891Y-3583891D02*
X2054891Y-3506109D01*
X1977109Y-3506109D01*
X1977109Y-3583891D01*
X2054891Y-3583891D01*
D13*
X2900000Y-3060000D02*
X2960000Y-3000000D01*
X2900000Y-2940000D01*
X2840000Y-3000000D01*
X2900000Y-3060000D01*
X3400000Y-3060000D02*
X3460000Y-3000000D01*
X3400000Y-2940000D01*
X3340000Y-3000000D01*
X3400000Y-3060000D01*
D10*
X2920000Y-6815000D02*
X3020000Y-6915000D01*
X3020000Y-6815000D02*
X2920000Y-6915000D01*
X3020000Y-6865000D02*
G75*
G02*
X2920000Y-6865000I-50000J0D01*
G01*
X2920000Y-6865000D02*
G75*
G02*
X3020000Y-6865000I50000J0D01*
G01*
X2920000Y-7345000D02*
X3020000Y-7445000D01*
X3020000Y-7345000D02*
X2920000Y-7445000D01*
X3020000Y-7395000D02*
G75*
G02*
X2920000Y-7395000I-50000J0D01*
G01*
X2920000Y-7395000D02*
G75*
G02*
X3020000Y-7395000I50000J0D01*
G01*
D12*
X510000Y-8160000D02*
X620000Y-8270000D01*
X620000Y-8160000D02*
X510000Y-8270000D01*
X565000Y-8160000D02*
X565000Y-8270000D01*
X510000Y-8215000D02*
X620000Y-8215000D01*
X635000Y-230000D02*
X745000Y-340000D01*
X745000Y-230000D02*
X635000Y-340000D01*
X690000Y-230000D02*
X690000Y-340000D01*
X635000Y-285000D02*
X745000Y-285000D01*
X980000Y-8160000D02*
X1090000Y-8270000D01*
X1090000Y-8160000D02*
X980000Y-8270000D01*
X1035000Y-8160000D02*
X1035000Y-8270000D01*
X980000Y-8215000D02*
X1090000Y-8215000D01*
X1355000Y-230000D02*
X1465000Y-340000D01*
X1465000Y-230000D02*
X1355000Y-340000D01*
X1410000Y-230000D02*
X1410000Y-340000D01*
X1355000Y-285000D02*
X1465000Y-285000D01*
X2385000Y-230000D02*
X2495000Y-340000D01*
X2495000Y-230000D02*
X2385000Y-340000D01*
X2440000Y-230000D02*
X2440000Y-340000D01*
X2385000Y-285000D02*
X2495000Y-285000D01*
X3105000Y-230000D02*
X3215000Y-340000D01*
X3215000Y-230000D02*
X3105000Y-340000D01*
X3160000Y-230000D02*
X3160000Y-340000D01*
X3105000Y-285000D02*
X3215000Y-285000D01*
D11*
X255777Y-8816484D02*
X255777Y-8616484D01*
X255777Y-8616484D02*
X303396Y-8616484D01*
X303396Y-8616484D02*
X331967Y-8626008D01*
X331967Y-8626008D02*
X351015Y-8645055D01*
X351015Y-8645055D02*
X360539Y-8664103D01*
X360539Y-8664103D02*
X370062Y-8702198D01*
X370062Y-8702198D02*
X370062Y-8730770D01*
X370062Y-8730770D02*
X360539Y-8768865D01*
X360539Y-8768865D02*
X351015Y-8787912D01*
X351015Y-8787912D02*
X331967Y-8806960D01*
X331967Y-8806960D02*
X303396Y-8816484D01*
X303396Y-8816484D02*
X255777Y-8816484D01*
X455777Y-8816484D02*
X455777Y-8683150D01*
X455777Y-8721246D02*
X465301Y-8702198D01*
X465301Y-8702198D02*
X474824Y-8692674D01*
X474824Y-8692674D02*
X493872Y-8683150D01*
X493872Y-8683150D02*
X512920Y-8683150D01*
X579586Y-8816484D02*
X579586Y-8683150D01*
X579586Y-8616484D02*
X570063Y-8626008D01*
X570063Y-8626008D02*
X579586Y-8635531D01*
X579586Y-8635531D02*
X589110Y-8626008D01*
X589110Y-8626008D02*
X579586Y-8616484D01*
X579586Y-8616484D02*
X579586Y-8635531D01*
X703396Y-8816484D02*
X684348Y-8806960D01*
X684348Y-8806960D02*
X674824Y-8787912D01*
X674824Y-8787912D02*
X674824Y-8616484D01*
X808158Y-8816484D02*
X789110Y-8806960D01*
X789110Y-8806960D02*
X779586Y-8787912D01*
X779586Y-8787912D02*
X779586Y-8616484D01*
X1036729Y-8816484D02*
X1036729Y-8616484D01*
X1036729Y-8616484D02*
X1103396Y-8759341D01*
X1103396Y-8759341D02*
X1170063Y-8616484D01*
X1170063Y-8616484D02*
X1170063Y-8816484D01*
X1351015Y-8816484D02*
X1351015Y-8711722D01*
X1351015Y-8711722D02*
X1341491Y-8692674D01*
X1341491Y-8692674D02*
X1322444Y-8683150D01*
X1322444Y-8683150D02*
X1284348Y-8683150D01*
X1284348Y-8683150D02*
X1265301Y-8692674D01*
X1351015Y-8806960D02*
X1331967Y-8816484D01*
X1331967Y-8816484D02*
X1284348Y-8816484D01*
X1284348Y-8816484D02*
X1265301Y-8806960D01*
X1265301Y-8806960D02*
X1255777Y-8787912D01*
X1255777Y-8787912D02*
X1255777Y-8768865D01*
X1255777Y-8768865D02*
X1265301Y-8749817D01*
X1265301Y-8749817D02*
X1284348Y-8740293D01*
X1284348Y-8740293D02*
X1331967Y-8740293D01*
X1331967Y-8740293D02*
X1351015Y-8730770D01*
X1446253Y-8683150D02*
X1446253Y-8883150D01*
X1446253Y-8692674D02*
X1465301Y-8683150D01*
X1465301Y-8683150D02*
X1503396Y-8683150D01*
X1503396Y-8683150D02*
X1522443Y-8692674D01*
X1522443Y-8692674D02*
X1531967Y-8702198D01*
X1531967Y-8702198D02*
X1541491Y-8721246D01*
X1541491Y-8721246D02*
X1541491Y-8778389D01*
X1541491Y-8778389D02*
X1531967Y-8797436D01*
X1531967Y-8797436D02*
X1522443Y-8806960D01*
X1522443Y-8806960D02*
X1503396Y-8816484D01*
X1503396Y-8816484D02*
X1465301Y-8816484D01*
X1465301Y-8816484D02*
X1446253Y-8806960D01*
X1627205Y-8797436D02*
X1636729Y-8806960D01*
X1636729Y-8806960D02*
X1627205Y-8816484D01*
X1627205Y-8816484D02*
X1617682Y-8806960D01*
X1617682Y-8806960D02*
X1627205Y-8797436D01*
X1627205Y-8797436D02*
X1627205Y-8816484D01*
X1627205Y-8692674D02*
X1636729Y-8702198D01*
X1636729Y-8702198D02*
X1627205Y-8711722D01*
X1627205Y-8711722D02*
X1617682Y-8702198D01*
X1617682Y-8702198D02*
X1627205Y-8692674D01*
X1627205Y-8692674D02*
X1627205Y-8711722D01*
D10*
X-55000Y-9120000D02*
X-5000Y-9170000D01*
X-5000Y-9120000D02*
X-55000Y-9170000D01*
D11*
X293872Y-9036484D02*
X312920Y-9036484D01*
X312920Y-9036484D02*
X331967Y-9046008D01*
X331967Y-9046008D02*
X341491Y-9055531D01*
X341491Y-9055531D02*
X351015Y-9074579D01*
X351015Y-9074579D02*
X360539Y-9112674D01*
X360539Y-9112674D02*
X360539Y-9160293D01*
X360539Y-9160293D02*
X351015Y-9198389D01*
X351015Y-9198389D02*
X341491Y-9217436D01*
X341491Y-9217436D02*
X331967Y-9226960D01*
X331967Y-9226960D02*
X312920Y-9236484D01*
X312920Y-9236484D02*
X293872Y-9236484D01*
X293872Y-9236484D02*
X274824Y-9226960D01*
X274824Y-9226960D02*
X265301Y-9217436D01*
X265301Y-9217436D02*
X255777Y-9198389D01*
X255777Y-9198389D02*
X246253Y-9160293D01*
X246253Y-9160293D02*
X246253Y-9112674D01*
X246253Y-9112674D02*
X255777Y-9074579D01*
X255777Y-9074579D02*
X265301Y-9055531D01*
X265301Y-9055531D02*
X274824Y-9046008D01*
X274824Y-9046008D02*
X293872Y-9036484D01*
X446253Y-9217436D02*
X455777Y-9226960D01*
X455777Y-9226960D02*
X446253Y-9236484D01*
X446253Y-9236484D02*
X436729Y-9226960D01*
X436729Y-9226960D02*
X446253Y-9217436D01*
X446253Y-9217436D02*
X446253Y-9236484D01*
X636729Y-9036484D02*
X541491Y-9036484D01*
X541491Y-9036484D02*
X531967Y-9131722D01*
X531967Y-9131722D02*
X541491Y-9122198D01*
X541491Y-9122198D02*
X560539Y-9112674D01*
X560539Y-9112674D02*
X608158Y-9112674D01*
X608158Y-9112674D02*
X627205Y-9122198D01*
X627205Y-9122198D02*
X636729Y-9131722D01*
X636729Y-9131722D02*
X646253Y-9150770D01*
X646253Y-9150770D02*
X646253Y-9198389D01*
X646253Y-9198389D02*
X636729Y-9217436D01*
X636729Y-9217436D02*
X627205Y-9226960D01*
X627205Y-9226960D02*
X608158Y-9236484D01*
X608158Y-9236484D02*
X560539Y-9236484D01*
X560539Y-9236484D02*
X541491Y-9226960D01*
X541491Y-9226960D02*
X531967Y-9217436D01*
X770062Y-9036484D02*
X789110Y-9036484D01*
X789110Y-9036484D02*
X808158Y-9046008D01*
X808158Y-9046008D02*
X817682Y-9055531D01*
X817682Y-9055531D02*
X827205Y-9074579D01*
X827205Y-9074579D02*
X836729Y-9112674D01*
X836729Y-9112674D02*
X836729Y-9160293D01*
X836729Y-9160293D02*
X827205Y-9198389D01*
X827205Y-9198389D02*
X817682Y-9217436D01*
X817682Y-9217436D02*
X808158Y-9226960D01*
X808158Y-9226960D02*
X789110Y-9236484D01*
X789110Y-9236484D02*
X770062Y-9236484D01*
X770062Y-9236484D02*
X751015Y-9226960D01*
X751015Y-9226960D02*
X741491Y-9217436D01*
X741491Y-9217436D02*
X731967Y-9198389D01*
X731967Y-9198389D02*
X722443Y-9160293D01*
X722443Y-9160293D02*
X722443Y-9112674D01*
X722443Y-9112674D02*
X731967Y-9074579D01*
X731967Y-9074579D02*
X741491Y-9055531D01*
X741491Y-9055531D02*
X751015Y-9046008D01*
X751015Y-9046008D02*
X770062Y-9036484D01*
X960539Y-9036484D02*
X979586Y-9036484D01*
X979586Y-9036484D02*
X998634Y-9046008D01*
X998634Y-9046008D02*
X1008158Y-9055531D01*
X1008158Y-9055531D02*
X1017682Y-9074579D01*
X1017682Y-9074579D02*
X1027205Y-9112674D01*
X1027205Y-9112674D02*
X1027205Y-9160293D01*
X1027205Y-9160293D02*
X1017682Y-9198389D01*
X1017682Y-9198389D02*
X1008158Y-9217436D01*
X1008158Y-9217436D02*
X998634Y-9226960D01*
X998634Y-9226960D02*
X979586Y-9236484D01*
X979586Y-9236484D02*
X960539Y-9236484D01*
X960539Y-9236484D02*
X941491Y-9226960D01*
X941491Y-9226960D02*
X931967Y-9217436D01*
X931967Y-9217436D02*
X922443Y-9198389D01*
X922443Y-9198389D02*
X912920Y-9160293D01*
X912920Y-9160293D02*
X912920Y-9112674D01*
X912920Y-9112674D02*
X922443Y-9074579D01*
X922443Y-9074579D02*
X931967Y-9055531D01*
X931967Y-9055531D02*
X941491Y-9046008D01*
X941491Y-9046008D02*
X960539Y-9036484D01*
X1112920Y-9236484D02*
X1112920Y-9103150D01*
X1112920Y-9122198D02*
X1122444Y-9112674D01*
X1122444Y-9112674D02*
X1141491Y-9103150D01*
X1141491Y-9103150D02*
X1170063Y-9103150D01*
X1170063Y-9103150D02*
X1189110Y-9112674D01*
X1189110Y-9112674D02*
X1198634Y-9131722D01*
X1198634Y-9131722D02*
X1198634Y-9236484D01*
X1198634Y-9131722D02*
X1208158Y-9112674D01*
X1208158Y-9112674D02*
X1227205Y-9103150D01*
X1227205Y-9103150D02*
X1255777Y-9103150D01*
X1255777Y-9103150D02*
X1274825Y-9112674D01*
X1274825Y-9112674D02*
X1284348Y-9131722D01*
X1284348Y-9131722D02*
X1284348Y-9236484D01*
X1379586Y-9236484D02*
X1379586Y-9103150D01*
X1379586Y-9122198D02*
X1389110Y-9112674D01*
X1389110Y-9112674D02*
X1408158Y-9103150D01*
X1408158Y-9103150D02*
X1436729Y-9103150D01*
X1436729Y-9103150D02*
X1455777Y-9112674D01*
X1455777Y-9112674D02*
X1465301Y-9131722D01*
X1465301Y-9131722D02*
X1465301Y-9236484D01*
X1465301Y-9131722D02*
X1474824Y-9112674D01*
X1474824Y-9112674D02*
X1493872Y-9103150D01*
X1493872Y-9103150D02*
X1522443Y-9103150D01*
X1522443Y-9103150D02*
X1541491Y-9112674D01*
X1541491Y-9112674D02*
X1551015Y-9131722D01*
X1551015Y-9131722D02*
X1551015Y-9236484D01*
X1941491Y-9026960D02*
X1770063Y-9284103D01*
X2198634Y-9036484D02*
X2217682Y-9036484D01*
X2217682Y-9036484D02*
X2236729Y-9046008D01*
X2236729Y-9046008D02*
X2246253Y-9055531D01*
X2246253Y-9055531D02*
X2255777Y-9074579D01*
X2255777Y-9074579D02*
X2265301Y-9112674D01*
X2265301Y-9112674D02*
X2265301Y-9160293D01*
X2265301Y-9160293D02*
X2255777Y-9198389D01*
X2255777Y-9198389D02*
X2246253Y-9217436D01*
X2246253Y-9217436D02*
X2236729Y-9226960D01*
X2236729Y-9226960D02*
X2217682Y-9236484D01*
X2217682Y-9236484D02*
X2198634Y-9236484D01*
X2198634Y-9236484D02*
X2179587Y-9226960D01*
X2179587Y-9226960D02*
X2170063Y-9217436D01*
X2170063Y-9217436D02*
X2160539Y-9198389D01*
X2160539Y-9198389D02*
X2151015Y-9160293D01*
X2151015Y-9160293D02*
X2151015Y-9112674D01*
X2151015Y-9112674D02*
X2160539Y-9074579D01*
X2160539Y-9074579D02*
X2170063Y-9055531D01*
X2170063Y-9055531D02*
X2179587Y-9046008D01*
X2179587Y-9046008D02*
X2198634Y-9036484D01*
X2351015Y-9217436D02*
X2360539Y-9226960D01*
X2360539Y-9226960D02*
X2351015Y-9236484D01*
X2351015Y-9236484D02*
X2341491Y-9226960D01*
X2341491Y-9226960D02*
X2351015Y-9217436D01*
X2351015Y-9217436D02*
X2351015Y-9236484D01*
X2484348Y-9036484D02*
X2503396Y-9036484D01*
X2503396Y-9036484D02*
X2522444Y-9046008D01*
X2522444Y-9046008D02*
X2531968Y-9055531D01*
X2531968Y-9055531D02*
X2541491Y-9074579D01*
X2541491Y-9074579D02*
X2551015Y-9112674D01*
X2551015Y-9112674D02*
X2551015Y-9160293D01*
X2551015Y-9160293D02*
X2541491Y-9198389D01*
X2541491Y-9198389D02*
X2531968Y-9217436D01*
X2531968Y-9217436D02*
X2522444Y-9226960D01*
X2522444Y-9226960D02*
X2503396Y-9236484D01*
X2503396Y-9236484D02*
X2484348Y-9236484D01*
X2484348Y-9236484D02*
X2465301Y-9226960D01*
X2465301Y-9226960D02*
X2455777Y-9217436D01*
X2455777Y-9217436D02*
X2446253Y-9198389D01*
X2446253Y-9198389D02*
X2436729Y-9160293D01*
X2436729Y-9160293D02*
X2436729Y-9112674D01*
X2436729Y-9112674D02*
X2446253Y-9074579D01*
X2446253Y-9074579D02*
X2455777Y-9055531D01*
X2455777Y-9055531D02*
X2465301Y-9046008D01*
X2465301Y-9046008D02*
X2484348Y-9036484D01*
X2741491Y-9236484D02*
X2627206Y-9236484D01*
X2684348Y-9236484D02*
X2684348Y-9036484D01*
X2684348Y-9036484D02*
X2665301Y-9065055D01*
X2665301Y-9065055D02*
X2646253Y-9084103D01*
X2646253Y-9084103D02*
X2627206Y-9093627D01*
X2836729Y-9236484D02*
X2874825Y-9236484D01*
X2874825Y-9236484D02*
X2893872Y-9226960D01*
X2893872Y-9226960D02*
X2903396Y-9217436D01*
X2903396Y-9217436D02*
X2922444Y-9188865D01*
X2922444Y-9188865D02*
X2931967Y-9150770D01*
X2931967Y-9150770D02*
X2931967Y-9074579D01*
X2931967Y-9074579D02*
X2922444Y-9055531D01*
X2922444Y-9055531D02*
X2912920Y-9046008D01*
X2912920Y-9046008D02*
X2893872Y-9036484D01*
X2893872Y-9036484D02*
X2855777Y-9036484D01*
X2855777Y-9036484D02*
X2836729Y-9046008D01*
X2836729Y-9046008D02*
X2827206Y-9055531D01*
X2827206Y-9055531D02*
X2817682Y-9074579D01*
X2817682Y-9074579D02*
X2817682Y-9122198D01*
X2817682Y-9122198D02*
X2827206Y-9141246D01*
X2827206Y-9141246D02*
X2836729Y-9150770D01*
X2836729Y-9150770D02*
X2855777Y-9160293D01*
X2855777Y-9160293D02*
X2893872Y-9160293D01*
X2893872Y-9160293D02*
X2912920Y-9150770D01*
X2912920Y-9150770D02*
X2922444Y-9141246D01*
X2922444Y-9141246D02*
X2931967Y-9122198D01*
X2998634Y-9036484D02*
X3131967Y-9036484D01*
X3131967Y-9036484D02*
X3046253Y-9236484D01*
X3198634Y-9036484D02*
X3198634Y-9074579D01*
X3274825Y-9036484D02*
X3274825Y-9074579D01*
X3570063Y-9312674D02*
X3560539Y-9303150D01*
X3560539Y-9303150D02*
X3541491Y-9274579D01*
X3541491Y-9274579D02*
X3531968Y-9255531D01*
X3531968Y-9255531D02*
X3522444Y-9226960D01*
X3522444Y-9226960D02*
X3512920Y-9179341D01*
X3512920Y-9179341D02*
X3512920Y-9141246D01*
X3512920Y-9141246D02*
X3522444Y-9093627D01*
X3522444Y-9093627D02*
X3531968Y-9065055D01*
X3531968Y-9065055D02*
X3541491Y-9046008D01*
X3541491Y-9046008D02*
X3560539Y-9017436D01*
X3560539Y-9017436D02*
X3570063Y-9007912D01*
X3655777Y-9236484D02*
X3693872Y-9236484D01*
X3693872Y-9236484D02*
X3712920Y-9226960D01*
X3712920Y-9226960D02*
X3722444Y-9217436D01*
X3722444Y-9217436D02*
X3741491Y-9188865D01*
X3741491Y-9188865D02*
X3751015Y-9150770D01*
X3751015Y-9150770D02*
X3751015Y-9074579D01*
X3751015Y-9074579D02*
X3741491Y-9055531D01*
X3741491Y-9055531D02*
X3731968Y-9046008D01*
X3731968Y-9046008D02*
X3712920Y-9036484D01*
X3712920Y-9036484D02*
X3674825Y-9036484D01*
X3674825Y-9036484D02*
X3655777Y-9046008D01*
X3655777Y-9046008D02*
X3646253Y-9055531D01*
X3646253Y-9055531D02*
X3636729Y-9074579D01*
X3636729Y-9074579D02*
X3636729Y-9122198D01*
X3636729Y-9122198D02*
X3646253Y-9141246D01*
X3646253Y-9141246D02*
X3655777Y-9150770D01*
X3655777Y-9150770D02*
X3674825Y-9160293D01*
X3674825Y-9160293D02*
X3712920Y-9160293D01*
X3712920Y-9160293D02*
X3731968Y-9150770D01*
X3731968Y-9150770D02*
X3741491Y-9141246D01*
X3741491Y-9141246D02*
X3751015Y-9122198D01*
X3989110Y-9236484D02*
X3989110Y-9036484D01*
X4074825Y-9236484D02*
X4074825Y-9131722D01*
X4074825Y-9131722D02*
X4065301Y-9112674D01*
X4065301Y-9112674D02*
X4046253Y-9103150D01*
X4046253Y-9103150D02*
X4017682Y-9103150D01*
X4017682Y-9103150D02*
X3998634Y-9112674D01*
X3998634Y-9112674D02*
X3989110Y-9122198D01*
X4198634Y-9236484D02*
X4179587Y-9226960D01*
X4179587Y-9226960D02*
X4170063Y-9217436D01*
X4170063Y-9217436D02*
X4160539Y-9198389D01*
X4160539Y-9198389D02*
X4160539Y-9141246D01*
X4160539Y-9141246D02*
X4170063Y-9122198D01*
X4170063Y-9122198D02*
X4179587Y-9112674D01*
X4179587Y-9112674D02*
X4198634Y-9103150D01*
X4198634Y-9103150D02*
X4227206Y-9103150D01*
X4227206Y-9103150D02*
X4246253Y-9112674D01*
X4246253Y-9112674D02*
X4255777Y-9122198D01*
X4255777Y-9122198D02*
X4265301Y-9141246D01*
X4265301Y-9141246D02*
X4265301Y-9198389D01*
X4265301Y-9198389D02*
X4255777Y-9217436D01*
X4255777Y-9217436D02*
X4246253Y-9226960D01*
X4246253Y-9226960D02*
X4227206Y-9236484D01*
X4227206Y-9236484D02*
X4198634Y-9236484D01*
X4379587Y-9236484D02*
X4360539Y-9226960D01*
X4360539Y-9226960D02*
X4351015Y-9207912D01*
X4351015Y-9207912D02*
X4351015Y-9036484D01*
X4531968Y-9226960D02*
X4512920Y-9236484D01*
X4512920Y-9236484D02*
X4474825Y-9236484D01*
X4474825Y-9236484D02*
X4455777Y-9226960D01*
X4455777Y-9226960D02*
X4446253Y-9207912D01*
X4446253Y-9207912D02*
X4446253Y-9131722D01*
X4446253Y-9131722D02*
X4455777Y-9112674D01*
X4455777Y-9112674D02*
X4474825Y-9103150D01*
X4474825Y-9103150D02*
X4512920Y-9103150D01*
X4512920Y-9103150D02*
X4531968Y-9112674D01*
X4531968Y-9112674D02*
X4541492Y-9131722D01*
X4541492Y-9131722D02*
X4541492Y-9150770D01*
X4541492Y-9150770D02*
X4446253Y-9169817D01*
X4617682Y-9226960D02*
X4636730Y-9236484D01*
X4636730Y-9236484D02*
X4674825Y-9236484D01*
X4674825Y-9236484D02*
X4693873Y-9226960D01*
X4693873Y-9226960D02*
X4703396Y-9207912D01*
X4703396Y-9207912D02*
X4703396Y-9198389D01*
X4703396Y-9198389D02*
X4693873Y-9179341D01*
X4693873Y-9179341D02*
X4674825Y-9169817D01*
X4674825Y-9169817D02*
X4646253Y-9169817D01*
X4646253Y-9169817D02*
X4627206Y-9160293D01*
X4627206Y-9160293D02*
X4617682Y-9141246D01*
X4617682Y-9141246D02*
X4617682Y-9131722D01*
X4617682Y-9131722D02*
X4627206Y-9112674D01*
X4627206Y-9112674D02*
X4646253Y-9103150D01*
X4646253Y-9103150D02*
X4674825Y-9103150D01*
X4674825Y-9103150D02*
X4693873Y-9112674D01*
X4770063Y-9312674D02*
X4779587Y-9303150D01*
X4779587Y-9303150D02*
X4798634Y-9274579D01*
X4798634Y-9274579D02*
X4808158Y-9255531D01*
X4808158Y-9255531D02*
X4817682Y-9226960D01*
X4817682Y-9226960D02*
X4827206Y-9179341D01*
X4827206Y-9179341D02*
X4827206Y-9141246D01*
X4827206Y-9141246D02*
X4817682Y-9093627D01*
X4817682Y-9093627D02*
X4808158Y-9065055D01*
X4808158Y-9065055D02*
X4798634Y-9046008D01*
X4798634Y-9046008D02*
X4779587Y-9017436D01*
X4779587Y-9017436D02*
X4770063Y-9007912D01*
D10*
X-5000Y-9409000D02*
G75*
G02*
X-85000Y-9409000I-40000J0D01*
G01*
X-85000Y-9409000D02*
G75*
G02*
X-5000Y-9409000I40000J0D01*
G01*
D11*
X293872Y-9300484D02*
X312920Y-9300484D01*
X312920Y-9300484D02*
X331967Y-9310008D01*
X331967Y-9310008D02*
X341491Y-9319531D01*
X341491Y-9319531D02*
X351015Y-9338579D01*
X351015Y-9338579D02*
X360539Y-9376674D01*
X360539Y-9376674D02*
X360539Y-9424293D01*
X360539Y-9424293D02*
X351015Y-9462389D01*
X351015Y-9462389D02*
X341491Y-9481436D01*
X341491Y-9481436D02*
X331967Y-9490960D01*
X331967Y-9490960D02*
X312920Y-9500484D01*
X312920Y-9500484D02*
X293872Y-9500484D01*
X293872Y-9500484D02*
X274824Y-9490960D01*
X274824Y-9490960D02*
X265301Y-9481436D01*
X265301Y-9481436D02*
X255777Y-9462389D01*
X255777Y-9462389D02*
X246253Y-9424293D01*
X246253Y-9424293D02*
X246253Y-9376674D01*
X246253Y-9376674D02*
X255777Y-9338579D01*
X255777Y-9338579D02*
X265301Y-9319531D01*
X265301Y-9319531D02*
X274824Y-9310008D01*
X274824Y-9310008D02*
X293872Y-9300484D01*
X446253Y-9481436D02*
X455777Y-9490960D01*
X455777Y-9490960D02*
X446253Y-9500484D01*
X446253Y-9500484D02*
X436729Y-9490960D01*
X436729Y-9490960D02*
X446253Y-9481436D01*
X446253Y-9481436D02*
X446253Y-9500484D01*
X570063Y-9386198D02*
X551015Y-9376674D01*
X551015Y-9376674D02*
X541491Y-9367150D01*
X541491Y-9367150D02*
X531967Y-9348103D01*
X531967Y-9348103D02*
X531967Y-9338579D01*
X531967Y-9338579D02*
X541491Y-9319531D01*
X541491Y-9319531D02*
X551015Y-9310008D01*
X551015Y-9310008D02*
X570063Y-9300484D01*
X570063Y-9300484D02*
X608158Y-9300484D01*
X608158Y-9300484D02*
X627205Y-9310008D01*
X627205Y-9310008D02*
X636729Y-9319531D01*
X636729Y-9319531D02*
X646253Y-9338579D01*
X646253Y-9338579D02*
X646253Y-9348103D01*
X646253Y-9348103D02*
X636729Y-9367150D01*
X636729Y-9367150D02*
X627205Y-9376674D01*
X627205Y-9376674D02*
X608158Y-9386198D01*
X608158Y-9386198D02*
X570063Y-9386198D01*
X570063Y-9386198D02*
X551015Y-9395722D01*
X551015Y-9395722D02*
X541491Y-9405246D01*
X541491Y-9405246D02*
X531967Y-9424293D01*
X531967Y-9424293D02*
X531967Y-9462389D01*
X531967Y-9462389D02*
X541491Y-9481436D01*
X541491Y-9481436D02*
X551015Y-9490960D01*
X551015Y-9490960D02*
X570063Y-9500484D01*
X570063Y-9500484D02*
X608158Y-9500484D01*
X608158Y-9500484D02*
X627205Y-9490960D01*
X627205Y-9490960D02*
X636729Y-9481436D01*
X636729Y-9481436D02*
X646253Y-9462389D01*
X646253Y-9462389D02*
X646253Y-9424293D01*
X646253Y-9424293D02*
X636729Y-9405246D01*
X636729Y-9405246D02*
X627205Y-9395722D01*
X627205Y-9395722D02*
X608158Y-9386198D01*
X770062Y-9300484D02*
X789110Y-9300484D01*
X789110Y-9300484D02*
X808158Y-9310008D01*
X808158Y-9310008D02*
X817682Y-9319531D01*
X817682Y-9319531D02*
X827205Y-9338579D01*
X827205Y-9338579D02*
X836729Y-9376674D01*
X836729Y-9376674D02*
X836729Y-9424293D01*
X836729Y-9424293D02*
X827205Y-9462389D01*
X827205Y-9462389D02*
X817682Y-9481436D01*
X817682Y-9481436D02*
X808158Y-9490960D01*
X808158Y-9490960D02*
X789110Y-9500484D01*
X789110Y-9500484D02*
X770062Y-9500484D01*
X770062Y-9500484D02*
X751015Y-9490960D01*
X751015Y-9490960D02*
X741491Y-9481436D01*
X741491Y-9481436D02*
X731967Y-9462389D01*
X731967Y-9462389D02*
X722443Y-9424293D01*
X722443Y-9424293D02*
X722443Y-9376674D01*
X722443Y-9376674D02*
X731967Y-9338579D01*
X731967Y-9338579D02*
X741491Y-9319531D01*
X741491Y-9319531D02*
X751015Y-9310008D01*
X751015Y-9310008D02*
X770062Y-9300484D01*
X960539Y-9300484D02*
X979586Y-9300484D01*
X979586Y-9300484D02*
X998634Y-9310008D01*
X998634Y-9310008D02*
X1008158Y-9319531D01*
X1008158Y-9319531D02*
X1017682Y-9338579D01*
X1017682Y-9338579D02*
X1027205Y-9376674D01*
X1027205Y-9376674D02*
X1027205Y-9424293D01*
X1027205Y-9424293D02*
X1017682Y-9462389D01*
X1017682Y-9462389D02*
X1008158Y-9481436D01*
X1008158Y-9481436D02*
X998634Y-9490960D01*
X998634Y-9490960D02*
X979586Y-9500484D01*
X979586Y-9500484D02*
X960539Y-9500484D01*
X960539Y-9500484D02*
X941491Y-9490960D01*
X941491Y-9490960D02*
X931967Y-9481436D01*
X931967Y-9481436D02*
X922443Y-9462389D01*
X922443Y-9462389D02*
X912920Y-9424293D01*
X912920Y-9424293D02*
X912920Y-9376674D01*
X912920Y-9376674D02*
X922443Y-9338579D01*
X922443Y-9338579D02*
X931967Y-9319531D01*
X931967Y-9319531D02*
X941491Y-9310008D01*
X941491Y-9310008D02*
X960539Y-9300484D01*
X1112920Y-9500484D02*
X1112920Y-9367150D01*
X1112920Y-9386198D02*
X1122444Y-9376674D01*
X1122444Y-9376674D02*
X1141491Y-9367150D01*
X1141491Y-9367150D02*
X1170063Y-9367150D01*
X1170063Y-9367150D02*
X1189110Y-9376674D01*
X1189110Y-9376674D02*
X1198634Y-9395722D01*
X1198634Y-9395722D02*
X1198634Y-9500484D01*
X1198634Y-9395722D02*
X1208158Y-9376674D01*
X1208158Y-9376674D02*
X1227205Y-9367150D01*
X1227205Y-9367150D02*
X1255777Y-9367150D01*
X1255777Y-9367150D02*
X1274825Y-9376674D01*
X1274825Y-9376674D02*
X1284348Y-9395722D01*
X1284348Y-9395722D02*
X1284348Y-9500484D01*
X1379586Y-9500484D02*
X1379586Y-9367150D01*
X1379586Y-9386198D02*
X1389110Y-9376674D01*
X1389110Y-9376674D02*
X1408158Y-9367150D01*
X1408158Y-9367150D02*
X1436729Y-9367150D01*
X1436729Y-9367150D02*
X1455777Y-9376674D01*
X1455777Y-9376674D02*
X1465301Y-9395722D01*
X1465301Y-9395722D02*
X1465301Y-9500484D01*
X1465301Y-9395722D02*
X1474824Y-9376674D01*
X1474824Y-9376674D02*
X1493872Y-9367150D01*
X1493872Y-9367150D02*
X1522443Y-9367150D01*
X1522443Y-9367150D02*
X1541491Y-9376674D01*
X1541491Y-9376674D02*
X1551015Y-9395722D01*
X1551015Y-9395722D02*
X1551015Y-9500484D01*
X1941491Y-9290960D02*
X1770063Y-9548103D01*
X2198634Y-9300484D02*
X2217682Y-9300484D01*
X2217682Y-9300484D02*
X2236729Y-9310008D01*
X2236729Y-9310008D02*
X2246253Y-9319531D01*
X2246253Y-9319531D02*
X2255777Y-9338579D01*
X2255777Y-9338579D02*
X2265301Y-9376674D01*
X2265301Y-9376674D02*
X2265301Y-9424293D01*
X2265301Y-9424293D02*
X2255777Y-9462389D01*
X2255777Y-9462389D02*
X2246253Y-9481436D01*
X2246253Y-9481436D02*
X2236729Y-9490960D01*
X2236729Y-9490960D02*
X2217682Y-9500484D01*
X2217682Y-9500484D02*
X2198634Y-9500484D01*
X2198634Y-9500484D02*
X2179587Y-9490960D01*
X2179587Y-9490960D02*
X2170063Y-9481436D01*
X2170063Y-9481436D02*
X2160539Y-9462389D01*
X2160539Y-9462389D02*
X2151015Y-9424293D01*
X2151015Y-9424293D02*
X2151015Y-9376674D01*
X2151015Y-9376674D02*
X2160539Y-9338579D01*
X2160539Y-9338579D02*
X2170063Y-9319531D01*
X2170063Y-9319531D02*
X2179587Y-9310008D01*
X2179587Y-9310008D02*
X2198634Y-9300484D01*
X2351015Y-9481436D02*
X2360539Y-9490960D01*
X2360539Y-9490960D02*
X2351015Y-9500484D01*
X2351015Y-9500484D02*
X2341491Y-9490960D01*
X2341491Y-9490960D02*
X2351015Y-9481436D01*
X2351015Y-9481436D02*
X2351015Y-9500484D01*
X2484348Y-9300484D02*
X2503396Y-9300484D01*
X2503396Y-9300484D02*
X2522444Y-9310008D01*
X2522444Y-9310008D02*
X2531968Y-9319531D01*
X2531968Y-9319531D02*
X2541491Y-9338579D01*
X2541491Y-9338579D02*
X2551015Y-9376674D01*
X2551015Y-9376674D02*
X2551015Y-9424293D01*
X2551015Y-9424293D02*
X2541491Y-9462389D01*
X2541491Y-9462389D02*
X2531968Y-9481436D01*
X2531968Y-9481436D02*
X2522444Y-9490960D01*
X2522444Y-9490960D02*
X2503396Y-9500484D01*
X2503396Y-9500484D02*
X2484348Y-9500484D01*
X2484348Y-9500484D02*
X2465301Y-9490960D01*
X2465301Y-9490960D02*
X2455777Y-9481436D01*
X2455777Y-9481436D02*
X2446253Y-9462389D01*
X2446253Y-9462389D02*
X2436729Y-9424293D01*
X2436729Y-9424293D02*
X2436729Y-9376674D01*
X2436729Y-9376674D02*
X2446253Y-9338579D01*
X2446253Y-9338579D02*
X2455777Y-9319531D01*
X2455777Y-9319531D02*
X2465301Y-9310008D01*
X2465301Y-9310008D02*
X2484348Y-9300484D01*
X2617682Y-9300484D02*
X2741491Y-9300484D01*
X2741491Y-9300484D02*
X2674825Y-9376674D01*
X2674825Y-9376674D02*
X2703396Y-9376674D01*
X2703396Y-9376674D02*
X2722444Y-9386198D01*
X2722444Y-9386198D02*
X2731968Y-9395722D01*
X2731968Y-9395722D02*
X2741491Y-9414770D01*
X2741491Y-9414770D02*
X2741491Y-9462389D01*
X2741491Y-9462389D02*
X2731968Y-9481436D01*
X2731968Y-9481436D02*
X2722444Y-9490960D01*
X2722444Y-9490960D02*
X2703396Y-9500484D01*
X2703396Y-9500484D02*
X2646253Y-9500484D01*
X2646253Y-9500484D02*
X2627206Y-9490960D01*
X2627206Y-9490960D02*
X2617682Y-9481436D01*
X2931967Y-9500484D02*
X2817682Y-9500484D01*
X2874825Y-9500484D02*
X2874825Y-9300484D01*
X2874825Y-9300484D02*
X2855777Y-9329055D01*
X2855777Y-9329055D02*
X2836729Y-9348103D01*
X2836729Y-9348103D02*
X2817682Y-9357627D01*
X3112920Y-9300484D02*
X3017682Y-9300484D01*
X3017682Y-9300484D02*
X3008158Y-9395722D01*
X3008158Y-9395722D02*
X3017682Y-9386198D01*
X3017682Y-9386198D02*
X3036729Y-9376674D01*
X3036729Y-9376674D02*
X3084348Y-9376674D01*
X3084348Y-9376674D02*
X3103396Y-9386198D01*
X3103396Y-9386198D02*
X3112920Y-9395722D01*
X3112920Y-9395722D02*
X3122444Y-9414770D01*
X3122444Y-9414770D02*
X3122444Y-9462389D01*
X3122444Y-9462389D02*
X3112920Y-9481436D01*
X3112920Y-9481436D02*
X3103396Y-9490960D01*
X3103396Y-9490960D02*
X3084348Y-9500484D01*
X3084348Y-9500484D02*
X3036729Y-9500484D01*
X3036729Y-9500484D02*
X3017682Y-9490960D01*
X3017682Y-9490960D02*
X3008158Y-9481436D01*
X3198634Y-9300484D02*
X3198634Y-9338579D01*
X3274825Y-9300484D02*
X3274825Y-9338579D01*
X3570063Y-9576674D02*
X3560539Y-9567150D01*
X3560539Y-9567150D02*
X3541491Y-9538579D01*
X3541491Y-9538579D02*
X3531968Y-9519531D01*
X3531968Y-9519531D02*
X3522444Y-9490960D01*
X3522444Y-9490960D02*
X3512920Y-9443341D01*
X3512920Y-9443341D02*
X3512920Y-9405246D01*
X3512920Y-9405246D02*
X3522444Y-9357627D01*
X3522444Y-9357627D02*
X3531968Y-9329055D01*
X3531968Y-9329055D02*
X3541491Y-9310008D01*
X3541491Y-9310008D02*
X3560539Y-9281436D01*
X3560539Y-9281436D02*
X3570063Y-9271912D01*
X3731968Y-9300484D02*
X3693872Y-9300484D01*
X3693872Y-9300484D02*
X3674825Y-9310008D01*
X3674825Y-9310008D02*
X3665301Y-9319531D01*
X3665301Y-9319531D02*
X3646253Y-9348103D01*
X3646253Y-9348103D02*
X3636729Y-9386198D01*
X3636729Y-9386198D02*
X3636729Y-9462389D01*
X3636729Y-9462389D02*
X3646253Y-9481436D01*
X3646253Y-9481436D02*
X3655777Y-9490960D01*
X3655777Y-9490960D02*
X3674825Y-9500484D01*
X3674825Y-9500484D02*
X3712920Y-9500484D01*
X3712920Y-9500484D02*
X3731968Y-9490960D01*
X3731968Y-9490960D02*
X3741491Y-9481436D01*
X3741491Y-9481436D02*
X3751015Y-9462389D01*
X3751015Y-9462389D02*
X3751015Y-9414770D01*
X3751015Y-9414770D02*
X3741491Y-9395722D01*
X3741491Y-9395722D02*
X3731968Y-9386198D01*
X3731968Y-9386198D02*
X3712920Y-9376674D01*
X3712920Y-9376674D02*
X3674825Y-9376674D01*
X3674825Y-9376674D02*
X3655777Y-9386198D01*
X3655777Y-9386198D02*
X3646253Y-9395722D01*
X3646253Y-9395722D02*
X3636729Y-9414770D01*
X3989110Y-9500484D02*
X3989110Y-9300484D01*
X4074825Y-9500484D02*
X4074825Y-9395722D01*
X4074825Y-9395722D02*
X4065301Y-9376674D01*
X4065301Y-9376674D02*
X4046253Y-9367150D01*
X4046253Y-9367150D02*
X4017682Y-9367150D01*
X4017682Y-9367150D02*
X3998634Y-9376674D01*
X3998634Y-9376674D02*
X3989110Y-9386198D01*
X4198634Y-9500484D02*
X4179587Y-9490960D01*
X4179587Y-9490960D02*
X4170063Y-9481436D01*
X4170063Y-9481436D02*
X4160539Y-9462389D01*
X4160539Y-9462389D02*
X4160539Y-9405246D01*
X4160539Y-9405246D02*
X4170063Y-9386198D01*
X4170063Y-9386198D02*
X4179587Y-9376674D01*
X4179587Y-9376674D02*
X4198634Y-9367150D01*
X4198634Y-9367150D02*
X4227206Y-9367150D01*
X4227206Y-9367150D02*
X4246253Y-9376674D01*
X4246253Y-9376674D02*
X4255777Y-9386198D01*
X4255777Y-9386198D02*
X4265301Y-9405246D01*
X4265301Y-9405246D02*
X4265301Y-9462389D01*
X4265301Y-9462389D02*
X4255777Y-9481436D01*
X4255777Y-9481436D02*
X4246253Y-9490960D01*
X4246253Y-9490960D02*
X4227206Y-9500484D01*
X4227206Y-9500484D02*
X4198634Y-9500484D01*
X4379587Y-9500484D02*
X4360539Y-9490960D01*
X4360539Y-9490960D02*
X4351015Y-9471912D01*
X4351015Y-9471912D02*
X4351015Y-9300484D01*
X4531968Y-9490960D02*
X4512920Y-9500484D01*
X4512920Y-9500484D02*
X4474825Y-9500484D01*
X4474825Y-9500484D02*
X4455777Y-9490960D01*
X4455777Y-9490960D02*
X4446253Y-9471912D01*
X4446253Y-9471912D02*
X4446253Y-9395722D01*
X4446253Y-9395722D02*
X4455777Y-9376674D01*
X4455777Y-9376674D02*
X4474825Y-9367150D01*
X4474825Y-9367150D02*
X4512920Y-9367150D01*
X4512920Y-9367150D02*
X4531968Y-9376674D01*
X4531968Y-9376674D02*
X4541492Y-9395722D01*
X4541492Y-9395722D02*
X4541492Y-9414770D01*
X4541492Y-9414770D02*
X4446253Y-9433817D01*
X4617682Y-9490960D02*
X4636730Y-9500484D01*
X4636730Y-9500484D02*
X4674825Y-9500484D01*
X4674825Y-9500484D02*
X4693873Y-9490960D01*
X4693873Y-9490960D02*
X4703396Y-9471912D01*
X4703396Y-9471912D02*
X4703396Y-9462389D01*
X4703396Y-9462389D02*
X4693873Y-9443341D01*
X4693873Y-9443341D02*
X4674825Y-9433817D01*
X4674825Y-9433817D02*
X4646253Y-9433817D01*
X4646253Y-9433817D02*
X4627206Y-9424293D01*
X4627206Y-9424293D02*
X4617682Y-9405246D01*
X4617682Y-9405246D02*
X4617682Y-9395722D01*
X4617682Y-9395722D02*
X4627206Y-9376674D01*
X4627206Y-9376674D02*
X4646253Y-9367150D01*
X4646253Y-9367150D02*
X4674825Y-9367150D01*
X4674825Y-9367150D02*
X4693873Y-9376674D01*
X4770063Y-9576674D02*
X4779587Y-9567150D01*
X4779587Y-9567150D02*
X4798634Y-9538579D01*
X4798634Y-9538579D02*
X4808158Y-9519531D01*
X4808158Y-9519531D02*
X4817682Y-9490960D01*
X4817682Y-9490960D02*
X4827206Y-9443341D01*
X4827206Y-9443341D02*
X4827206Y-9405246D01*
X4827206Y-9405246D02*
X4817682Y-9357627D01*
X4817682Y-9357627D02*
X4808158Y-9329055D01*
X4808158Y-9329055D02*
X4798634Y-9310008D01*
X4798634Y-9310008D02*
X4779587Y-9281436D01*
X4779587Y-9281436D02*
X4770063Y-9271912D01*
D10*
X-55000Y-9623000D02*
X-55000Y-9723000D01*
X-105000Y-9673000D02*
X-5000Y-9673000D01*
D11*
X360539Y-9764484D02*
X246253Y-9764484D01*
X303396Y-9764484D02*
X303396Y-9564484D01*
X303396Y-9564484D02*
X284348Y-9593055D01*
X284348Y-9593055D02*
X265301Y-9612103D01*
X265301Y-9612103D02*
X246253Y-9621627D01*
X446253Y-9745436D02*
X455777Y-9754960D01*
X455777Y-9754960D02*
X446253Y-9764484D01*
X446253Y-9764484D02*
X436729Y-9754960D01*
X436729Y-9754960D02*
X446253Y-9745436D01*
X446253Y-9745436D02*
X446253Y-9764484D01*
X579586Y-9564484D02*
X598634Y-9564484D01*
X598634Y-9564484D02*
X617682Y-9574008D01*
X617682Y-9574008D02*
X627205Y-9583531D01*
X627205Y-9583531D02*
X636729Y-9602579D01*
X636729Y-9602579D02*
X646253Y-9640674D01*
X646253Y-9640674D02*
X646253Y-9688293D01*
X646253Y-9688293D02*
X636729Y-9726389D01*
X636729Y-9726389D02*
X627205Y-9745436D01*
X627205Y-9745436D02*
X617682Y-9754960D01*
X617682Y-9754960D02*
X598634Y-9764484D01*
X598634Y-9764484D02*
X579586Y-9764484D01*
X579586Y-9764484D02*
X560539Y-9754960D01*
X560539Y-9754960D02*
X551015Y-9745436D01*
X551015Y-9745436D02*
X541491Y-9726389D01*
X541491Y-9726389D02*
X531967Y-9688293D01*
X531967Y-9688293D02*
X531967Y-9640674D01*
X531967Y-9640674D02*
X541491Y-9602579D01*
X541491Y-9602579D02*
X551015Y-9583531D01*
X551015Y-9583531D02*
X560539Y-9574008D01*
X560539Y-9574008D02*
X579586Y-9564484D01*
X770062Y-9564484D02*
X789110Y-9564484D01*
X789110Y-9564484D02*
X808158Y-9574008D01*
X808158Y-9574008D02*
X817682Y-9583531D01*
X817682Y-9583531D02*
X827205Y-9602579D01*
X827205Y-9602579D02*
X836729Y-9640674D01*
X836729Y-9640674D02*
X836729Y-9688293D01*
X836729Y-9688293D02*
X827205Y-9726389D01*
X827205Y-9726389D02*
X817682Y-9745436D01*
X817682Y-9745436D02*
X808158Y-9754960D01*
X808158Y-9754960D02*
X789110Y-9764484D01*
X789110Y-9764484D02*
X770062Y-9764484D01*
X770062Y-9764484D02*
X751015Y-9754960D01*
X751015Y-9754960D02*
X741491Y-9745436D01*
X741491Y-9745436D02*
X731967Y-9726389D01*
X731967Y-9726389D02*
X722443Y-9688293D01*
X722443Y-9688293D02*
X722443Y-9640674D01*
X722443Y-9640674D02*
X731967Y-9602579D01*
X731967Y-9602579D02*
X741491Y-9583531D01*
X741491Y-9583531D02*
X751015Y-9574008D01*
X751015Y-9574008D02*
X770062Y-9564484D01*
X960539Y-9564484D02*
X979586Y-9564484D01*
X979586Y-9564484D02*
X998634Y-9574008D01*
X998634Y-9574008D02*
X1008158Y-9583531D01*
X1008158Y-9583531D02*
X1017682Y-9602579D01*
X1017682Y-9602579D02*
X1027205Y-9640674D01*
X1027205Y-9640674D02*
X1027205Y-9688293D01*
X1027205Y-9688293D02*
X1017682Y-9726389D01*
X1017682Y-9726389D02*
X1008158Y-9745436D01*
X1008158Y-9745436D02*
X998634Y-9754960D01*
X998634Y-9754960D02*
X979586Y-9764484D01*
X979586Y-9764484D02*
X960539Y-9764484D01*
X960539Y-9764484D02*
X941491Y-9754960D01*
X941491Y-9754960D02*
X931967Y-9745436D01*
X931967Y-9745436D02*
X922443Y-9726389D01*
X922443Y-9726389D02*
X912920Y-9688293D01*
X912920Y-9688293D02*
X912920Y-9640674D01*
X912920Y-9640674D02*
X922443Y-9602579D01*
X922443Y-9602579D02*
X931967Y-9583531D01*
X931967Y-9583531D02*
X941491Y-9574008D01*
X941491Y-9574008D02*
X960539Y-9564484D01*
X1112920Y-9764484D02*
X1112920Y-9631150D01*
X1112920Y-9650198D02*
X1122444Y-9640674D01*
X1122444Y-9640674D02*
X1141491Y-9631150D01*
X1141491Y-9631150D02*
X1170063Y-9631150D01*
X1170063Y-9631150D02*
X1189110Y-9640674D01*
X1189110Y-9640674D02*
X1198634Y-9659722D01*
X1198634Y-9659722D02*
X1198634Y-9764484D01*
X1198634Y-9659722D02*
X1208158Y-9640674D01*
X1208158Y-9640674D02*
X1227205Y-9631150D01*
X1227205Y-9631150D02*
X1255777Y-9631150D01*
X1255777Y-9631150D02*
X1274825Y-9640674D01*
X1274825Y-9640674D02*
X1284348Y-9659722D01*
X1284348Y-9659722D02*
X1284348Y-9764484D01*
X1379586Y-9764484D02*
X1379586Y-9631150D01*
X1379586Y-9650198D02*
X1389110Y-9640674D01*
X1389110Y-9640674D02*
X1408158Y-9631150D01*
X1408158Y-9631150D02*
X1436729Y-9631150D01*
X1436729Y-9631150D02*
X1455777Y-9640674D01*
X1455777Y-9640674D02*
X1465301Y-9659722D01*
X1465301Y-9659722D02*
X1465301Y-9764484D01*
X1465301Y-9659722D02*
X1474824Y-9640674D01*
X1474824Y-9640674D02*
X1493872Y-9631150D01*
X1493872Y-9631150D02*
X1522443Y-9631150D01*
X1522443Y-9631150D02*
X1541491Y-9640674D01*
X1541491Y-9640674D02*
X1551015Y-9659722D01*
X1551015Y-9659722D02*
X1551015Y-9764484D01*
X1941491Y-9554960D02*
X1770063Y-9812103D01*
X2198634Y-9564484D02*
X2217682Y-9564484D01*
X2217682Y-9564484D02*
X2236729Y-9574008D01*
X2236729Y-9574008D02*
X2246253Y-9583531D01*
X2246253Y-9583531D02*
X2255777Y-9602579D01*
X2255777Y-9602579D02*
X2265301Y-9640674D01*
X2265301Y-9640674D02*
X2265301Y-9688293D01*
X2265301Y-9688293D02*
X2255777Y-9726389D01*
X2255777Y-9726389D02*
X2246253Y-9745436D01*
X2246253Y-9745436D02*
X2236729Y-9754960D01*
X2236729Y-9754960D02*
X2217682Y-9764484D01*
X2217682Y-9764484D02*
X2198634Y-9764484D01*
X2198634Y-9764484D02*
X2179587Y-9754960D01*
X2179587Y-9754960D02*
X2170063Y-9745436D01*
X2170063Y-9745436D02*
X2160539Y-9726389D01*
X2160539Y-9726389D02*
X2151015Y-9688293D01*
X2151015Y-9688293D02*
X2151015Y-9640674D01*
X2151015Y-9640674D02*
X2160539Y-9602579D01*
X2160539Y-9602579D02*
X2170063Y-9583531D01*
X2170063Y-9583531D02*
X2179587Y-9574008D01*
X2179587Y-9574008D02*
X2198634Y-9564484D01*
X2351015Y-9745436D02*
X2360539Y-9754960D01*
X2360539Y-9754960D02*
X2351015Y-9764484D01*
X2351015Y-9764484D02*
X2341491Y-9754960D01*
X2341491Y-9754960D02*
X2351015Y-9745436D01*
X2351015Y-9745436D02*
X2351015Y-9764484D01*
X2484348Y-9564484D02*
X2503396Y-9564484D01*
X2503396Y-9564484D02*
X2522444Y-9574008D01*
X2522444Y-9574008D02*
X2531968Y-9583531D01*
X2531968Y-9583531D02*
X2541491Y-9602579D01*
X2541491Y-9602579D02*
X2551015Y-9640674D01*
X2551015Y-9640674D02*
X2551015Y-9688293D01*
X2551015Y-9688293D02*
X2541491Y-9726389D01*
X2541491Y-9726389D02*
X2531968Y-9745436D01*
X2531968Y-9745436D02*
X2522444Y-9754960D01*
X2522444Y-9754960D02*
X2503396Y-9764484D01*
X2503396Y-9764484D02*
X2484348Y-9764484D01*
X2484348Y-9764484D02*
X2465301Y-9754960D01*
X2465301Y-9754960D02*
X2455777Y-9745436D01*
X2455777Y-9745436D02*
X2446253Y-9726389D01*
X2446253Y-9726389D02*
X2436729Y-9688293D01*
X2436729Y-9688293D02*
X2436729Y-9640674D01*
X2436729Y-9640674D02*
X2446253Y-9602579D01*
X2446253Y-9602579D02*
X2455777Y-9583531D01*
X2455777Y-9583531D02*
X2465301Y-9574008D01*
X2465301Y-9574008D02*
X2484348Y-9564484D01*
X2617682Y-9564484D02*
X2741491Y-9564484D01*
X2741491Y-9564484D02*
X2674825Y-9640674D01*
X2674825Y-9640674D02*
X2703396Y-9640674D01*
X2703396Y-9640674D02*
X2722444Y-9650198D01*
X2722444Y-9650198D02*
X2731968Y-9659722D01*
X2731968Y-9659722D02*
X2741491Y-9678770D01*
X2741491Y-9678770D02*
X2741491Y-9726389D01*
X2741491Y-9726389D02*
X2731968Y-9745436D01*
X2731968Y-9745436D02*
X2722444Y-9754960D01*
X2722444Y-9754960D02*
X2703396Y-9764484D01*
X2703396Y-9764484D02*
X2646253Y-9764484D01*
X2646253Y-9764484D02*
X2627206Y-9754960D01*
X2627206Y-9754960D02*
X2617682Y-9745436D01*
X2836729Y-9764484D02*
X2874825Y-9764484D01*
X2874825Y-9764484D02*
X2893872Y-9754960D01*
X2893872Y-9754960D02*
X2903396Y-9745436D01*
X2903396Y-9745436D02*
X2922444Y-9716865D01*
X2922444Y-9716865D02*
X2931967Y-9678770D01*
X2931967Y-9678770D02*
X2931967Y-9602579D01*
X2931967Y-9602579D02*
X2922444Y-9583531D01*
X2922444Y-9583531D02*
X2912920Y-9574008D01*
X2912920Y-9574008D02*
X2893872Y-9564484D01*
X2893872Y-9564484D02*
X2855777Y-9564484D01*
X2855777Y-9564484D02*
X2836729Y-9574008D01*
X2836729Y-9574008D02*
X2827206Y-9583531D01*
X2827206Y-9583531D02*
X2817682Y-9602579D01*
X2817682Y-9602579D02*
X2817682Y-9650198D01*
X2817682Y-9650198D02*
X2827206Y-9669246D01*
X2827206Y-9669246D02*
X2836729Y-9678770D01*
X2836729Y-9678770D02*
X2855777Y-9688293D01*
X2855777Y-9688293D02*
X2893872Y-9688293D01*
X2893872Y-9688293D02*
X2912920Y-9678770D01*
X2912920Y-9678770D02*
X2922444Y-9669246D01*
X2922444Y-9669246D02*
X2931967Y-9650198D01*
X3103396Y-9631150D02*
X3103396Y-9764484D01*
X3055777Y-9554960D02*
X3008158Y-9697817D01*
X3008158Y-9697817D02*
X3131967Y-9697817D01*
X3198634Y-9564484D02*
X3198634Y-9602579D01*
X3274825Y-9564484D02*
X3274825Y-9602579D01*
X3570063Y-9840674D02*
X3560539Y-9831150D01*
X3560539Y-9831150D02*
X3541491Y-9802579D01*
X3541491Y-9802579D02*
X3531968Y-9783531D01*
X3531968Y-9783531D02*
X3522444Y-9754960D01*
X3522444Y-9754960D02*
X3512920Y-9707341D01*
X3512920Y-9707341D02*
X3512920Y-9669246D01*
X3512920Y-9669246D02*
X3522444Y-9621627D01*
X3522444Y-9621627D02*
X3531968Y-9593055D01*
X3531968Y-9593055D02*
X3541491Y-9574008D01*
X3541491Y-9574008D02*
X3560539Y-9545436D01*
X3560539Y-9545436D02*
X3570063Y-9535912D01*
X3627206Y-9564484D02*
X3751015Y-9564484D01*
X3751015Y-9564484D02*
X3684348Y-9640674D01*
X3684348Y-9640674D02*
X3712920Y-9640674D01*
X3712920Y-9640674D02*
X3731968Y-9650198D01*
X3731968Y-9650198D02*
X3741491Y-9659722D01*
X3741491Y-9659722D02*
X3751015Y-9678770D01*
X3751015Y-9678770D02*
X3751015Y-9726389D01*
X3751015Y-9726389D02*
X3741491Y-9745436D01*
X3741491Y-9745436D02*
X3731968Y-9754960D01*
X3731968Y-9754960D02*
X3712920Y-9764484D01*
X3712920Y-9764484D02*
X3655777Y-9764484D01*
X3655777Y-9764484D02*
X3636729Y-9754960D01*
X3636729Y-9754960D02*
X3627206Y-9745436D01*
X3931968Y-9564484D02*
X3836729Y-9564484D01*
X3836729Y-9564484D02*
X3827206Y-9659722D01*
X3827206Y-9659722D02*
X3836729Y-9650198D01*
X3836729Y-9650198D02*
X3855777Y-9640674D01*
X3855777Y-9640674D02*
X3903396Y-9640674D01*
X3903396Y-9640674D02*
X3922444Y-9650198D01*
X3922444Y-9650198D02*
X3931968Y-9659722D01*
X3931968Y-9659722D02*
X3941491Y-9678770D01*
X3941491Y-9678770D02*
X3941491Y-9726389D01*
X3941491Y-9726389D02*
X3931968Y-9745436D01*
X3931968Y-9745436D02*
X3922444Y-9754960D01*
X3922444Y-9754960D02*
X3903396Y-9764484D01*
X3903396Y-9764484D02*
X3855777Y-9764484D01*
X3855777Y-9764484D02*
X3836729Y-9754960D01*
X3836729Y-9754960D02*
X3827206Y-9745436D01*
X4179587Y-9764484D02*
X4179587Y-9564484D01*
X4265301Y-9764484D02*
X4265301Y-9659722D01*
X4265301Y-9659722D02*
X4255777Y-9640674D01*
X4255777Y-9640674D02*
X4236730Y-9631150D01*
X4236730Y-9631150D02*
X4208158Y-9631150D01*
X4208158Y-9631150D02*
X4189110Y-9640674D01*
X4189110Y-9640674D02*
X4179587Y-9650198D01*
X4389111Y-9764484D02*
X4370063Y-9754960D01*
X4370063Y-9754960D02*
X4360539Y-9745436D01*
X4360539Y-9745436D02*
X4351015Y-9726389D01*
X4351015Y-9726389D02*
X4351015Y-9669246D01*
X4351015Y-9669246D02*
X4360539Y-9650198D01*
X4360539Y-9650198D02*
X4370063Y-9640674D01*
X4370063Y-9640674D02*
X4389111Y-9631150D01*
X4389111Y-9631150D02*
X4417682Y-9631150D01*
X4417682Y-9631150D02*
X4436730Y-9640674D01*
X4436730Y-9640674D02*
X4446253Y-9650198D01*
X4446253Y-9650198D02*
X4455777Y-9669246D01*
X4455777Y-9669246D02*
X4455777Y-9726389D01*
X4455777Y-9726389D02*
X4446253Y-9745436D01*
X4446253Y-9745436D02*
X4436730Y-9754960D01*
X4436730Y-9754960D02*
X4417682Y-9764484D01*
X4417682Y-9764484D02*
X4389111Y-9764484D01*
X4570063Y-9764484D02*
X4551015Y-9754960D01*
X4551015Y-9754960D02*
X4541492Y-9735912D01*
X4541492Y-9735912D02*
X4541492Y-9564484D01*
X4722444Y-9754960D02*
X4703396Y-9764484D01*
X4703396Y-9764484D02*
X4665301Y-9764484D01*
X4665301Y-9764484D02*
X4646253Y-9754960D01*
X4646253Y-9754960D02*
X4636730Y-9735912D01*
X4636730Y-9735912D02*
X4636730Y-9659722D01*
X4636730Y-9659722D02*
X4646253Y-9640674D01*
X4646253Y-9640674D02*
X4665301Y-9631150D01*
X4665301Y-9631150D02*
X4703396Y-9631150D01*
X4703396Y-9631150D02*
X4722444Y-9640674D01*
X4722444Y-9640674D02*
X4731968Y-9659722D01*
X4731968Y-9659722D02*
X4731968Y-9678770D01*
X4731968Y-9678770D02*
X4636730Y-9697817D01*
X4808158Y-9754960D02*
X4827206Y-9764484D01*
X4827206Y-9764484D02*
X4865301Y-9764484D01*
X4865301Y-9764484D02*
X4884349Y-9754960D01*
X4884349Y-9754960D02*
X4893873Y-9735912D01*
X4893873Y-9735912D02*
X4893873Y-9726389D01*
X4893873Y-9726389D02*
X4884349Y-9707341D01*
X4884349Y-9707341D02*
X4865301Y-9697817D01*
X4865301Y-9697817D02*
X4836730Y-9697817D01*
X4836730Y-9697817D02*
X4817682Y-9688293D01*
X4817682Y-9688293D02*
X4808158Y-9669246D01*
X4808158Y-9669246D02*
X4808158Y-9659722D01*
X4808158Y-9659722D02*
X4817682Y-9640674D01*
X4817682Y-9640674D02*
X4836730Y-9631150D01*
X4836730Y-9631150D02*
X4865301Y-9631150D01*
X4865301Y-9631150D02*
X4884349Y-9640674D01*
X4960539Y-9840674D02*
X4970063Y-9831150D01*
X4970063Y-9831150D02*
X4989111Y-9802579D01*
X4989111Y-9802579D02*
X4998634Y-9783531D01*
X4998634Y-9783531D02*
X5008158Y-9754960D01*
X5008158Y-9754960D02*
X5017682Y-9707341D01*
X5017682Y-9707341D02*
X5017682Y-9669246D01*
X5017682Y-9669246D02*
X5008158Y-9621627D01*
X5008158Y-9621627D02*
X4998634Y-9593055D01*
X4998634Y-9593055D02*
X4989111Y-9574008D01*
X4989111Y-9574008D02*
X4970063Y-9545436D01*
X4970063Y-9545436D02*
X4960539Y-9535912D01*
D12*
X-21109Y-9975891D02*
X-21109Y-9898109D01*
X-98891Y-9898109D01*
X-98891Y-9975891D01*
X-21109Y-9975891D01*
D11*
X360539Y-10028484D02*
X246253Y-10028484D01*
X303396Y-10028484D02*
X303396Y-9828484D01*
X303396Y-9828484D02*
X284348Y-9857055D01*
X284348Y-9857055D02*
X265301Y-9876103D01*
X265301Y-9876103D02*
X246253Y-9885627D01*
X446253Y-10009436D02*
X455777Y-10018960D01*
X455777Y-10018960D02*
X446253Y-10028484D01*
X446253Y-10028484D02*
X436729Y-10018960D01*
X436729Y-10018960D02*
X446253Y-10009436D01*
X446253Y-10009436D02*
X446253Y-10028484D01*
X646253Y-10028484D02*
X531967Y-10028484D01*
X589110Y-10028484D02*
X589110Y-9828484D01*
X589110Y-9828484D02*
X570063Y-9857055D01*
X570063Y-9857055D02*
X551015Y-9876103D01*
X551015Y-9876103D02*
X531967Y-9885627D01*
X770062Y-9828484D02*
X789110Y-9828484D01*
X789110Y-9828484D02*
X808158Y-9838008D01*
X808158Y-9838008D02*
X817682Y-9847531D01*
X817682Y-9847531D02*
X827205Y-9866579D01*
X827205Y-9866579D02*
X836729Y-9904674D01*
X836729Y-9904674D02*
X836729Y-9952293D01*
X836729Y-9952293D02*
X827205Y-9990389D01*
X827205Y-9990389D02*
X817682Y-10009436D01*
X817682Y-10009436D02*
X808158Y-10018960D01*
X808158Y-10018960D02*
X789110Y-10028484D01*
X789110Y-10028484D02*
X770062Y-10028484D01*
X770062Y-10028484D02*
X751015Y-10018960D01*
X751015Y-10018960D02*
X741491Y-10009436D01*
X741491Y-10009436D02*
X731967Y-9990389D01*
X731967Y-9990389D02*
X722443Y-9952293D01*
X722443Y-9952293D02*
X722443Y-9904674D01*
X722443Y-9904674D02*
X731967Y-9866579D01*
X731967Y-9866579D02*
X741491Y-9847531D01*
X741491Y-9847531D02*
X751015Y-9838008D01*
X751015Y-9838008D02*
X770062Y-9828484D01*
X960539Y-9828484D02*
X979586Y-9828484D01*
X979586Y-9828484D02*
X998634Y-9838008D01*
X998634Y-9838008D02*
X1008158Y-9847531D01*
X1008158Y-9847531D02*
X1017682Y-9866579D01*
X1017682Y-9866579D02*
X1027205Y-9904674D01*
X1027205Y-9904674D02*
X1027205Y-9952293D01*
X1027205Y-9952293D02*
X1017682Y-9990389D01*
X1017682Y-9990389D02*
X1008158Y-10009436D01*
X1008158Y-10009436D02*
X998634Y-10018960D01*
X998634Y-10018960D02*
X979586Y-10028484D01*
X979586Y-10028484D02*
X960539Y-10028484D01*
X960539Y-10028484D02*
X941491Y-10018960D01*
X941491Y-10018960D02*
X931967Y-10009436D01*
X931967Y-10009436D02*
X922443Y-9990389D01*
X922443Y-9990389D02*
X912920Y-9952293D01*
X912920Y-9952293D02*
X912920Y-9904674D01*
X912920Y-9904674D02*
X922443Y-9866579D01*
X922443Y-9866579D02*
X931967Y-9847531D01*
X931967Y-9847531D02*
X941491Y-9838008D01*
X941491Y-9838008D02*
X960539Y-9828484D01*
X1112920Y-10028484D02*
X1112920Y-9895150D01*
X1112920Y-9914198D02*
X1122444Y-9904674D01*
X1122444Y-9904674D02*
X1141491Y-9895150D01*
X1141491Y-9895150D02*
X1170063Y-9895150D01*
X1170063Y-9895150D02*
X1189110Y-9904674D01*
X1189110Y-9904674D02*
X1198634Y-9923722D01*
X1198634Y-9923722D02*
X1198634Y-10028484D01*
X1198634Y-9923722D02*
X1208158Y-9904674D01*
X1208158Y-9904674D02*
X1227205Y-9895150D01*
X1227205Y-9895150D02*
X1255777Y-9895150D01*
X1255777Y-9895150D02*
X1274825Y-9904674D01*
X1274825Y-9904674D02*
X1284348Y-9923722D01*
X1284348Y-9923722D02*
X1284348Y-10028484D01*
X1379586Y-10028484D02*
X1379586Y-9895150D01*
X1379586Y-9914198D02*
X1389110Y-9904674D01*
X1389110Y-9904674D02*
X1408158Y-9895150D01*
X1408158Y-9895150D02*
X1436729Y-9895150D01*
X1436729Y-9895150D02*
X1455777Y-9904674D01*
X1455777Y-9904674D02*
X1465301Y-9923722D01*
X1465301Y-9923722D02*
X1465301Y-10028484D01*
X1465301Y-9923722D02*
X1474824Y-9904674D01*
X1474824Y-9904674D02*
X1493872Y-9895150D01*
X1493872Y-9895150D02*
X1522443Y-9895150D01*
X1522443Y-9895150D02*
X1541491Y-9904674D01*
X1541491Y-9904674D02*
X1551015Y-9923722D01*
X1551015Y-9923722D02*
X1551015Y-10028484D01*
X1941491Y-9818960D02*
X1770063Y-10076103D01*
X2198634Y-9828484D02*
X2217682Y-9828484D01*
X2217682Y-9828484D02*
X2236729Y-9838008D01*
X2236729Y-9838008D02*
X2246253Y-9847531D01*
X2246253Y-9847531D02*
X2255777Y-9866579D01*
X2255777Y-9866579D02*
X2265301Y-9904674D01*
X2265301Y-9904674D02*
X2265301Y-9952293D01*
X2265301Y-9952293D02*
X2255777Y-9990389D01*
X2255777Y-9990389D02*
X2246253Y-10009436D01*
X2246253Y-10009436D02*
X2236729Y-10018960D01*
X2236729Y-10018960D02*
X2217682Y-10028484D01*
X2217682Y-10028484D02*
X2198634Y-10028484D01*
X2198634Y-10028484D02*
X2179587Y-10018960D01*
X2179587Y-10018960D02*
X2170063Y-10009436D01*
X2170063Y-10009436D02*
X2160539Y-9990389D01*
X2160539Y-9990389D02*
X2151015Y-9952293D01*
X2151015Y-9952293D02*
X2151015Y-9904674D01*
X2151015Y-9904674D02*
X2160539Y-9866579D01*
X2160539Y-9866579D02*
X2170063Y-9847531D01*
X2170063Y-9847531D02*
X2179587Y-9838008D01*
X2179587Y-9838008D02*
X2198634Y-9828484D01*
X2351015Y-10009436D02*
X2360539Y-10018960D01*
X2360539Y-10018960D02*
X2351015Y-10028484D01*
X2351015Y-10028484D02*
X2341491Y-10018960D01*
X2341491Y-10018960D02*
X2351015Y-10009436D01*
X2351015Y-10009436D02*
X2351015Y-10028484D01*
X2484348Y-9828484D02*
X2503396Y-9828484D01*
X2503396Y-9828484D02*
X2522444Y-9838008D01*
X2522444Y-9838008D02*
X2531968Y-9847531D01*
X2531968Y-9847531D02*
X2541491Y-9866579D01*
X2541491Y-9866579D02*
X2551015Y-9904674D01*
X2551015Y-9904674D02*
X2551015Y-9952293D01*
X2551015Y-9952293D02*
X2541491Y-9990389D01*
X2541491Y-9990389D02*
X2531968Y-10009436D01*
X2531968Y-10009436D02*
X2522444Y-10018960D01*
X2522444Y-10018960D02*
X2503396Y-10028484D01*
X2503396Y-10028484D02*
X2484348Y-10028484D01*
X2484348Y-10028484D02*
X2465301Y-10018960D01*
X2465301Y-10018960D02*
X2455777Y-10009436D01*
X2455777Y-10009436D02*
X2446253Y-9990389D01*
X2446253Y-9990389D02*
X2436729Y-9952293D01*
X2436729Y-9952293D02*
X2436729Y-9904674D01*
X2436729Y-9904674D02*
X2446253Y-9866579D01*
X2446253Y-9866579D02*
X2455777Y-9847531D01*
X2455777Y-9847531D02*
X2465301Y-9838008D01*
X2465301Y-9838008D02*
X2484348Y-9828484D01*
X2722444Y-9895150D02*
X2722444Y-10028484D01*
X2674825Y-9818960D02*
X2627206Y-9961817D01*
X2627206Y-9961817D02*
X2751015Y-9961817D01*
X2808158Y-9828484D02*
X2931967Y-9828484D01*
X2931967Y-9828484D02*
X2865301Y-9904674D01*
X2865301Y-9904674D02*
X2893872Y-9904674D01*
X2893872Y-9904674D02*
X2912920Y-9914198D01*
X2912920Y-9914198D02*
X2922444Y-9923722D01*
X2922444Y-9923722D02*
X2931967Y-9942770D01*
X2931967Y-9942770D02*
X2931967Y-9990389D01*
X2931967Y-9990389D02*
X2922444Y-10009436D01*
X2922444Y-10009436D02*
X2912920Y-10018960D01*
X2912920Y-10018960D02*
X2893872Y-10028484D01*
X2893872Y-10028484D02*
X2836729Y-10028484D01*
X2836729Y-10028484D02*
X2817682Y-10018960D01*
X2817682Y-10018960D02*
X2808158Y-10009436D01*
X2998634Y-9828484D02*
X3122444Y-9828484D01*
X3122444Y-9828484D02*
X3055777Y-9904674D01*
X3055777Y-9904674D02*
X3084348Y-9904674D01*
X3084348Y-9904674D02*
X3103396Y-9914198D01*
X3103396Y-9914198D02*
X3112920Y-9923722D01*
X3112920Y-9923722D02*
X3122444Y-9942770D01*
X3122444Y-9942770D02*
X3122444Y-9990389D01*
X3122444Y-9990389D02*
X3112920Y-10009436D01*
X3112920Y-10009436D02*
X3103396Y-10018960D01*
X3103396Y-10018960D02*
X3084348Y-10028484D01*
X3084348Y-10028484D02*
X3027206Y-10028484D01*
X3027206Y-10028484D02*
X3008158Y-10018960D01*
X3008158Y-10018960D02*
X2998634Y-10009436D01*
X3198634Y-9828484D02*
X3198634Y-9866579D01*
X3274825Y-9828484D02*
X3274825Y-9866579D01*
X3570063Y-10104674D02*
X3560539Y-10095150D01*
X3560539Y-10095150D02*
X3541491Y-10066579D01*
X3541491Y-10066579D02*
X3531968Y-10047531D01*
X3531968Y-10047531D02*
X3522444Y-10018960D01*
X3522444Y-10018960D02*
X3512920Y-9971341D01*
X3512920Y-9971341D02*
X3512920Y-9933246D01*
X3512920Y-9933246D02*
X3522444Y-9885627D01*
X3522444Y-9885627D02*
X3531968Y-9857055D01*
X3531968Y-9857055D02*
X3541491Y-9838008D01*
X3541491Y-9838008D02*
X3560539Y-9809436D01*
X3560539Y-9809436D02*
X3570063Y-9799912D01*
X3674825Y-9914198D02*
X3655777Y-9904674D01*
X3655777Y-9904674D02*
X3646253Y-9895150D01*
X3646253Y-9895150D02*
X3636729Y-9876103D01*
X3636729Y-9876103D02*
X3636729Y-9866579D01*
X3636729Y-9866579D02*
X3646253Y-9847531D01*
X3646253Y-9847531D02*
X3655777Y-9838008D01*
X3655777Y-9838008D02*
X3674825Y-9828484D01*
X3674825Y-9828484D02*
X3712920Y-9828484D01*
X3712920Y-9828484D02*
X3731968Y-9838008D01*
X3731968Y-9838008D02*
X3741491Y-9847531D01*
X3741491Y-9847531D02*
X3751015Y-9866579D01*
X3751015Y-9866579D02*
X3751015Y-9876103D01*
X3751015Y-9876103D02*
X3741491Y-9895150D01*
X3741491Y-9895150D02*
X3731968Y-9904674D01*
X3731968Y-9904674D02*
X3712920Y-9914198D01*
X3712920Y-9914198D02*
X3674825Y-9914198D01*
X3674825Y-9914198D02*
X3655777Y-9923722D01*
X3655777Y-9923722D02*
X3646253Y-9933246D01*
X3646253Y-9933246D02*
X3636729Y-9952293D01*
X3636729Y-9952293D02*
X3636729Y-9990389D01*
X3636729Y-9990389D02*
X3646253Y-10009436D01*
X3646253Y-10009436D02*
X3655777Y-10018960D01*
X3655777Y-10018960D02*
X3674825Y-10028484D01*
X3674825Y-10028484D02*
X3712920Y-10028484D01*
X3712920Y-10028484D02*
X3731968Y-10018960D01*
X3731968Y-10018960D02*
X3741491Y-10009436D01*
X3741491Y-10009436D02*
X3751015Y-9990389D01*
X3751015Y-9990389D02*
X3751015Y-9952293D01*
X3751015Y-9952293D02*
X3741491Y-9933246D01*
X3741491Y-9933246D02*
X3731968Y-9923722D01*
X3731968Y-9923722D02*
X3712920Y-9914198D01*
X3989110Y-10028484D02*
X3989110Y-9828484D01*
X4074825Y-10028484D02*
X4074825Y-9923722D01*
X4074825Y-9923722D02*
X4065301Y-9904674D01*
X4065301Y-9904674D02*
X4046253Y-9895150D01*
X4046253Y-9895150D02*
X4017682Y-9895150D01*
X4017682Y-9895150D02*
X3998634Y-9904674D01*
X3998634Y-9904674D02*
X3989110Y-9914198D01*
X4198634Y-10028484D02*
X4179587Y-10018960D01*
X4179587Y-10018960D02*
X4170063Y-10009436D01*
X4170063Y-10009436D02*
X4160539Y-9990389D01*
X4160539Y-9990389D02*
X4160539Y-9933246D01*
X4160539Y-9933246D02*
X4170063Y-9914198D01*
X4170063Y-9914198D02*
X4179587Y-9904674D01*
X4179587Y-9904674D02*
X4198634Y-9895150D01*
X4198634Y-9895150D02*
X4227206Y-9895150D01*
X4227206Y-9895150D02*
X4246253Y-9904674D01*
X4246253Y-9904674D02*
X4255777Y-9914198D01*
X4255777Y-9914198D02*
X4265301Y-9933246D01*
X4265301Y-9933246D02*
X4265301Y-9990389D01*
X4265301Y-9990389D02*
X4255777Y-10009436D01*
X4255777Y-10009436D02*
X4246253Y-10018960D01*
X4246253Y-10018960D02*
X4227206Y-10028484D01*
X4227206Y-10028484D02*
X4198634Y-10028484D01*
X4379587Y-10028484D02*
X4360539Y-10018960D01*
X4360539Y-10018960D02*
X4351015Y-9999912D01*
X4351015Y-9999912D02*
X4351015Y-9828484D01*
X4531968Y-10018960D02*
X4512920Y-10028484D01*
X4512920Y-10028484D02*
X4474825Y-10028484D01*
X4474825Y-10028484D02*
X4455777Y-10018960D01*
X4455777Y-10018960D02*
X4446253Y-9999912D01*
X4446253Y-9999912D02*
X4446253Y-9923722D01*
X4446253Y-9923722D02*
X4455777Y-9904674D01*
X4455777Y-9904674D02*
X4474825Y-9895150D01*
X4474825Y-9895150D02*
X4512920Y-9895150D01*
X4512920Y-9895150D02*
X4531968Y-9904674D01*
X4531968Y-9904674D02*
X4541492Y-9923722D01*
X4541492Y-9923722D02*
X4541492Y-9942770D01*
X4541492Y-9942770D02*
X4446253Y-9961817D01*
X4617682Y-10018960D02*
X4636730Y-10028484D01*
X4636730Y-10028484D02*
X4674825Y-10028484D01*
X4674825Y-10028484D02*
X4693873Y-10018960D01*
X4693873Y-10018960D02*
X4703396Y-9999912D01*
X4703396Y-9999912D02*
X4703396Y-9990389D01*
X4703396Y-9990389D02*
X4693873Y-9971341D01*
X4693873Y-9971341D02*
X4674825Y-9961817D01*
X4674825Y-9961817D02*
X4646253Y-9961817D01*
X4646253Y-9961817D02*
X4627206Y-9952293D01*
X4627206Y-9952293D02*
X4617682Y-9933246D01*
X4617682Y-9933246D02*
X4617682Y-9923722D01*
X4617682Y-9923722D02*
X4627206Y-9904674D01*
X4627206Y-9904674D02*
X4646253Y-9895150D01*
X4646253Y-9895150D02*
X4674825Y-9895150D01*
X4674825Y-9895150D02*
X4693873Y-9904674D01*
X4770063Y-10104674D02*
X4779587Y-10095150D01*
X4779587Y-10095150D02*
X4798634Y-10066579D01*
X4798634Y-10066579D02*
X4808158Y-10047531D01*
X4808158Y-10047531D02*
X4817682Y-10018960D01*
X4817682Y-10018960D02*
X4827206Y-9971341D01*
X4827206Y-9971341D02*
X4827206Y-9933246D01*
X4827206Y-9933246D02*
X4817682Y-9885627D01*
X4817682Y-9885627D02*
X4808158Y-9857055D01*
X4808158Y-9857055D02*
X4798634Y-9838008D01*
X4798634Y-9838008D02*
X4779587Y-9809436D01*
X4779587Y-9809436D02*
X4770063Y-9799912D01*
D13*
X-65000Y-10261000D02*
X-5000Y-10201000D01*
X-65000Y-10141000D01*
X-125000Y-10201000D01*
X-65000Y-10261000D01*
D11*
X360539Y-10292484D02*
X246253Y-10292484D01*
X303396Y-10292484D02*
X303396Y-10092484D01*
X303396Y-10092484D02*
X284348Y-10121055D01*
X284348Y-10121055D02*
X265301Y-10140103D01*
X265301Y-10140103D02*
X246253Y-10149627D01*
X446253Y-10273436D02*
X455777Y-10282960D01*
X455777Y-10282960D02*
X446253Y-10292484D01*
X446253Y-10292484D02*
X436729Y-10282960D01*
X436729Y-10282960D02*
X446253Y-10273436D01*
X446253Y-10273436D02*
X446253Y-10292484D01*
X531967Y-10111531D02*
X541491Y-10102008D01*
X541491Y-10102008D02*
X560539Y-10092484D01*
X560539Y-10092484D02*
X608158Y-10092484D01*
X608158Y-10092484D02*
X627205Y-10102008D01*
X627205Y-10102008D02*
X636729Y-10111531D01*
X636729Y-10111531D02*
X646253Y-10130579D01*
X646253Y-10130579D02*
X646253Y-10149627D01*
X646253Y-10149627D02*
X636729Y-10178198D01*
X636729Y-10178198D02*
X522443Y-10292484D01*
X522443Y-10292484D02*
X646253Y-10292484D01*
X770062Y-10092484D02*
X789110Y-10092484D01*
X789110Y-10092484D02*
X808158Y-10102008D01*
X808158Y-10102008D02*
X817682Y-10111531D01*
X817682Y-10111531D02*
X827205Y-10130579D01*
X827205Y-10130579D02*
X836729Y-10168674D01*
X836729Y-10168674D02*
X836729Y-10216293D01*
X836729Y-10216293D02*
X827205Y-10254389D01*
X827205Y-10254389D02*
X817682Y-10273436D01*
X817682Y-10273436D02*
X808158Y-10282960D01*
X808158Y-10282960D02*
X789110Y-10292484D01*
X789110Y-10292484D02*
X770062Y-10292484D01*
X770062Y-10292484D02*
X751015Y-10282960D01*
X751015Y-10282960D02*
X741491Y-10273436D01*
X741491Y-10273436D02*
X731967Y-10254389D01*
X731967Y-10254389D02*
X722443Y-10216293D01*
X722443Y-10216293D02*
X722443Y-10168674D01*
X722443Y-10168674D02*
X731967Y-10130579D01*
X731967Y-10130579D02*
X741491Y-10111531D01*
X741491Y-10111531D02*
X751015Y-10102008D01*
X751015Y-10102008D02*
X770062Y-10092484D01*
X960539Y-10092484D02*
X979586Y-10092484D01*
X979586Y-10092484D02*
X998634Y-10102008D01*
X998634Y-10102008D02*
X1008158Y-10111531D01*
X1008158Y-10111531D02*
X1017682Y-10130579D01*
X1017682Y-10130579D02*
X1027205Y-10168674D01*
X1027205Y-10168674D02*
X1027205Y-10216293D01*
X1027205Y-10216293D02*
X1017682Y-10254389D01*
X1017682Y-10254389D02*
X1008158Y-10273436D01*
X1008158Y-10273436D02*
X998634Y-10282960D01*
X998634Y-10282960D02*
X979586Y-10292484D01*
X979586Y-10292484D02*
X960539Y-10292484D01*
X960539Y-10292484D02*
X941491Y-10282960D01*
X941491Y-10282960D02*
X931967Y-10273436D01*
X931967Y-10273436D02*
X922443Y-10254389D01*
X922443Y-10254389D02*
X912920Y-10216293D01*
X912920Y-10216293D02*
X912920Y-10168674D01*
X912920Y-10168674D02*
X922443Y-10130579D01*
X922443Y-10130579D02*
X931967Y-10111531D01*
X931967Y-10111531D02*
X941491Y-10102008D01*
X941491Y-10102008D02*
X960539Y-10092484D01*
X1112920Y-10292484D02*
X1112920Y-10159150D01*
X1112920Y-10178198D02*
X1122444Y-10168674D01*
X1122444Y-10168674D02*
X1141491Y-10159150D01*
X1141491Y-10159150D02*
X1170063Y-10159150D01*
X1170063Y-10159150D02*
X1189110Y-10168674D01*
X1189110Y-10168674D02*
X1198634Y-10187722D01*
X1198634Y-10187722D02*
X1198634Y-10292484D01*
X1198634Y-10187722D02*
X1208158Y-10168674D01*
X1208158Y-10168674D02*
X1227205Y-10159150D01*
X1227205Y-10159150D02*
X1255777Y-10159150D01*
X1255777Y-10159150D02*
X1274825Y-10168674D01*
X1274825Y-10168674D02*
X1284348Y-10187722D01*
X1284348Y-10187722D02*
X1284348Y-10292484D01*
X1379586Y-10292484D02*
X1379586Y-10159150D01*
X1379586Y-10178198D02*
X1389110Y-10168674D01*
X1389110Y-10168674D02*
X1408158Y-10159150D01*
X1408158Y-10159150D02*
X1436729Y-10159150D01*
X1436729Y-10159150D02*
X1455777Y-10168674D01*
X1455777Y-10168674D02*
X1465301Y-10187722D01*
X1465301Y-10187722D02*
X1465301Y-10292484D01*
X1465301Y-10187722D02*
X1474824Y-10168674D01*
X1474824Y-10168674D02*
X1493872Y-10159150D01*
X1493872Y-10159150D02*
X1522443Y-10159150D01*
X1522443Y-10159150D02*
X1541491Y-10168674D01*
X1541491Y-10168674D02*
X1551015Y-10187722D01*
X1551015Y-10187722D02*
X1551015Y-10292484D01*
X1941491Y-10082960D02*
X1770063Y-10340103D01*
X2198634Y-10092484D02*
X2217682Y-10092484D01*
X2217682Y-10092484D02*
X2236729Y-10102008D01*
X2236729Y-10102008D02*
X2246253Y-10111531D01*
X2246253Y-10111531D02*
X2255777Y-10130579D01*
X2255777Y-10130579D02*
X2265301Y-10168674D01*
X2265301Y-10168674D02*
X2265301Y-10216293D01*
X2265301Y-10216293D02*
X2255777Y-10254389D01*
X2255777Y-10254389D02*
X2246253Y-10273436D01*
X2246253Y-10273436D02*
X2236729Y-10282960D01*
X2236729Y-10282960D02*
X2217682Y-10292484D01*
X2217682Y-10292484D02*
X2198634Y-10292484D01*
X2198634Y-10292484D02*
X2179587Y-10282960D01*
X2179587Y-10282960D02*
X2170063Y-10273436D01*
X2170063Y-10273436D02*
X2160539Y-10254389D01*
X2160539Y-10254389D02*
X2151015Y-10216293D01*
X2151015Y-10216293D02*
X2151015Y-10168674D01*
X2151015Y-10168674D02*
X2160539Y-10130579D01*
X2160539Y-10130579D02*
X2170063Y-10111531D01*
X2170063Y-10111531D02*
X2179587Y-10102008D01*
X2179587Y-10102008D02*
X2198634Y-10092484D01*
X2351015Y-10273436D02*
X2360539Y-10282960D01*
X2360539Y-10282960D02*
X2351015Y-10292484D01*
X2351015Y-10292484D02*
X2341491Y-10282960D01*
X2341491Y-10282960D02*
X2351015Y-10273436D01*
X2351015Y-10273436D02*
X2351015Y-10292484D01*
X2484348Y-10092484D02*
X2503396Y-10092484D01*
X2503396Y-10092484D02*
X2522444Y-10102008D01*
X2522444Y-10102008D02*
X2531968Y-10111531D01*
X2531968Y-10111531D02*
X2541491Y-10130579D01*
X2541491Y-10130579D02*
X2551015Y-10168674D01*
X2551015Y-10168674D02*
X2551015Y-10216293D01*
X2551015Y-10216293D02*
X2541491Y-10254389D01*
X2541491Y-10254389D02*
X2531968Y-10273436D01*
X2531968Y-10273436D02*
X2522444Y-10282960D01*
X2522444Y-10282960D02*
X2503396Y-10292484D01*
X2503396Y-10292484D02*
X2484348Y-10292484D01*
X2484348Y-10292484D02*
X2465301Y-10282960D01*
X2465301Y-10282960D02*
X2455777Y-10273436D01*
X2455777Y-10273436D02*
X2446253Y-10254389D01*
X2446253Y-10254389D02*
X2436729Y-10216293D01*
X2436729Y-10216293D02*
X2436729Y-10168674D01*
X2436729Y-10168674D02*
X2446253Y-10130579D01*
X2446253Y-10130579D02*
X2455777Y-10111531D01*
X2455777Y-10111531D02*
X2465301Y-10102008D01*
X2465301Y-10102008D02*
X2484348Y-10092484D01*
X2722444Y-10159150D02*
X2722444Y-10292484D01*
X2674825Y-10082960D02*
X2627206Y-10225817D01*
X2627206Y-10225817D02*
X2751015Y-10225817D01*
X2808158Y-10092484D02*
X2941491Y-10092484D01*
X2941491Y-10092484D02*
X2855777Y-10292484D01*
X3008158Y-10111531D02*
X3017682Y-10102008D01*
X3017682Y-10102008D02*
X3036729Y-10092484D01*
X3036729Y-10092484D02*
X3084348Y-10092484D01*
X3084348Y-10092484D02*
X3103396Y-10102008D01*
X3103396Y-10102008D02*
X3112920Y-10111531D01*
X3112920Y-10111531D02*
X3122444Y-10130579D01*
X3122444Y-10130579D02*
X3122444Y-10149627D01*
X3122444Y-10149627D02*
X3112920Y-10178198D01*
X3112920Y-10178198D02*
X2998634Y-10292484D01*
X2998634Y-10292484D02*
X3122444Y-10292484D01*
X3198634Y-10092484D02*
X3198634Y-10130579D01*
X3274825Y-10092484D02*
X3274825Y-10130579D01*
X3570063Y-10368674D02*
X3560539Y-10359150D01*
X3560539Y-10359150D02*
X3541491Y-10330579D01*
X3541491Y-10330579D02*
X3531968Y-10311531D01*
X3531968Y-10311531D02*
X3522444Y-10282960D01*
X3522444Y-10282960D02*
X3512920Y-10235341D01*
X3512920Y-10235341D02*
X3512920Y-10197246D01*
X3512920Y-10197246D02*
X3522444Y-10149627D01*
X3522444Y-10149627D02*
X3531968Y-10121055D01*
X3531968Y-10121055D02*
X3541491Y-10102008D01*
X3541491Y-10102008D02*
X3560539Y-10073436D01*
X3560539Y-10073436D02*
X3570063Y-10063912D01*
X3636729Y-10111531D02*
X3646253Y-10102008D01*
X3646253Y-10102008D02*
X3665301Y-10092484D01*
X3665301Y-10092484D02*
X3712920Y-10092484D01*
X3712920Y-10092484D02*
X3731968Y-10102008D01*
X3731968Y-10102008D02*
X3741491Y-10111531D01*
X3741491Y-10111531D02*
X3751015Y-10130579D01*
X3751015Y-10130579D02*
X3751015Y-10149627D01*
X3751015Y-10149627D02*
X3741491Y-10178198D01*
X3741491Y-10178198D02*
X3627206Y-10292484D01*
X3627206Y-10292484D02*
X3751015Y-10292484D01*
X3989110Y-10292484D02*
X3989110Y-10092484D01*
X4074825Y-10292484D02*
X4074825Y-10187722D01*
X4074825Y-10187722D02*
X4065301Y-10168674D01*
X4065301Y-10168674D02*
X4046253Y-10159150D01*
X4046253Y-10159150D02*
X4017682Y-10159150D01*
X4017682Y-10159150D02*
X3998634Y-10168674D01*
X3998634Y-10168674D02*
X3989110Y-10178198D01*
X4198634Y-10292484D02*
X4179587Y-10282960D01*
X4179587Y-10282960D02*
X4170063Y-10273436D01*
X4170063Y-10273436D02*
X4160539Y-10254389D01*
X4160539Y-10254389D02*
X4160539Y-10197246D01*
X4160539Y-10197246D02*
X4170063Y-10178198D01*
X4170063Y-10178198D02*
X4179587Y-10168674D01*
X4179587Y-10168674D02*
X4198634Y-10159150D01*
X4198634Y-10159150D02*
X4227206Y-10159150D01*
X4227206Y-10159150D02*
X4246253Y-10168674D01*
X4246253Y-10168674D02*
X4255777Y-10178198D01*
X4255777Y-10178198D02*
X4265301Y-10197246D01*
X4265301Y-10197246D02*
X4265301Y-10254389D01*
X4265301Y-10254389D02*
X4255777Y-10273436D01*
X4255777Y-10273436D02*
X4246253Y-10282960D01*
X4246253Y-10282960D02*
X4227206Y-10292484D01*
X4227206Y-10292484D02*
X4198634Y-10292484D01*
X4379587Y-10292484D02*
X4360539Y-10282960D01*
X4360539Y-10282960D02*
X4351015Y-10263912D01*
X4351015Y-10263912D02*
X4351015Y-10092484D01*
X4531968Y-10282960D02*
X4512920Y-10292484D01*
X4512920Y-10292484D02*
X4474825Y-10292484D01*
X4474825Y-10292484D02*
X4455777Y-10282960D01*
X4455777Y-10282960D02*
X4446253Y-10263912D01*
X4446253Y-10263912D02*
X4446253Y-10187722D01*
X4446253Y-10187722D02*
X4455777Y-10168674D01*
X4455777Y-10168674D02*
X4474825Y-10159150D01*
X4474825Y-10159150D02*
X4512920Y-10159150D01*
X4512920Y-10159150D02*
X4531968Y-10168674D01*
X4531968Y-10168674D02*
X4541492Y-10187722D01*
X4541492Y-10187722D02*
X4541492Y-10206770D01*
X4541492Y-10206770D02*
X4446253Y-10225817D01*
X4617682Y-10282960D02*
X4636730Y-10292484D01*
X4636730Y-10292484D02*
X4674825Y-10292484D01*
X4674825Y-10292484D02*
X4693873Y-10282960D01*
X4693873Y-10282960D02*
X4703396Y-10263912D01*
X4703396Y-10263912D02*
X4703396Y-10254389D01*
X4703396Y-10254389D02*
X4693873Y-10235341D01*
X4693873Y-10235341D02*
X4674825Y-10225817D01*
X4674825Y-10225817D02*
X4646253Y-10225817D01*
X4646253Y-10225817D02*
X4627206Y-10216293D01*
X4627206Y-10216293D02*
X4617682Y-10197246D01*
X4617682Y-10197246D02*
X4617682Y-10187722D01*
X4617682Y-10187722D02*
X4627206Y-10168674D01*
X4627206Y-10168674D02*
X4646253Y-10159150D01*
X4646253Y-10159150D02*
X4674825Y-10159150D01*
X4674825Y-10159150D02*
X4693873Y-10168674D01*
X4770063Y-10368674D02*
X4779587Y-10359150D01*
X4779587Y-10359150D02*
X4798634Y-10330579D01*
X4798634Y-10330579D02*
X4808158Y-10311531D01*
X4808158Y-10311531D02*
X4817682Y-10282960D01*
X4817682Y-10282960D02*
X4827206Y-10235341D01*
X4827206Y-10235341D02*
X4827206Y-10197246D01*
X4827206Y-10197246D02*
X4817682Y-10149627D01*
X4817682Y-10149627D02*
X4808158Y-10121055D01*
X4808158Y-10121055D02*
X4798634Y-10102008D01*
X4798634Y-10102008D02*
X4779587Y-10073436D01*
X4779587Y-10073436D02*
X4770063Y-10063912D01*
D10*
X-105000Y-10415000D02*
X-5000Y-10515000D01*
X-5000Y-10415000D02*
X-105000Y-10515000D01*
X-5000Y-10465000D02*
G75*
G02*
X-105000Y-10465000I-50000J0D01*
G01*
X-105000Y-10465000D02*
G75*
G02*
X-5000Y-10465000I50000J0D01*
G01*
D11*
X360539Y-10556484D02*
X246253Y-10556484D01*
X303396Y-10556484D02*
X303396Y-10356484D01*
X303396Y-10356484D02*
X284348Y-10385055D01*
X284348Y-10385055D02*
X265301Y-10404103D01*
X265301Y-10404103D02*
X246253Y-10413627D01*
X446253Y-10537436D02*
X455777Y-10546960D01*
X455777Y-10546960D02*
X446253Y-10556484D01*
X446253Y-10556484D02*
X436729Y-10546960D01*
X436729Y-10546960D02*
X446253Y-10537436D01*
X446253Y-10537436D02*
X446253Y-10556484D01*
X579586Y-10356484D02*
X598634Y-10356484D01*
X598634Y-10356484D02*
X617682Y-10366008D01*
X617682Y-10366008D02*
X627205Y-10375531D01*
X627205Y-10375531D02*
X636729Y-10394579D01*
X636729Y-10394579D02*
X646253Y-10432674D01*
X646253Y-10432674D02*
X646253Y-10480293D01*
X646253Y-10480293D02*
X636729Y-10518389D01*
X636729Y-10518389D02*
X627205Y-10537436D01*
X627205Y-10537436D02*
X617682Y-10546960D01*
X617682Y-10546960D02*
X598634Y-10556484D01*
X598634Y-10556484D02*
X579586Y-10556484D01*
X579586Y-10556484D02*
X560539Y-10546960D01*
X560539Y-10546960D02*
X551015Y-10537436D01*
X551015Y-10537436D02*
X541491Y-10518389D01*
X541491Y-10518389D02*
X531967Y-10480293D01*
X531967Y-10480293D02*
X531967Y-10432674D01*
X531967Y-10432674D02*
X541491Y-10394579D01*
X541491Y-10394579D02*
X551015Y-10375531D01*
X551015Y-10375531D02*
X560539Y-10366008D01*
X560539Y-10366008D02*
X579586Y-10356484D01*
X770062Y-10356484D02*
X789110Y-10356484D01*
X789110Y-10356484D02*
X808158Y-10366008D01*
X808158Y-10366008D02*
X817682Y-10375531D01*
X817682Y-10375531D02*
X827205Y-10394579D01*
X827205Y-10394579D02*
X836729Y-10432674D01*
X836729Y-10432674D02*
X836729Y-10480293D01*
X836729Y-10480293D02*
X827205Y-10518389D01*
X827205Y-10518389D02*
X817682Y-10537436D01*
X817682Y-10537436D02*
X808158Y-10546960D01*
X808158Y-10546960D02*
X789110Y-10556484D01*
X789110Y-10556484D02*
X770062Y-10556484D01*
X770062Y-10556484D02*
X751015Y-10546960D01*
X751015Y-10546960D02*
X741491Y-10537436D01*
X741491Y-10537436D02*
X731967Y-10518389D01*
X731967Y-10518389D02*
X722443Y-10480293D01*
X722443Y-10480293D02*
X722443Y-10432674D01*
X722443Y-10432674D02*
X731967Y-10394579D01*
X731967Y-10394579D02*
X741491Y-10375531D01*
X741491Y-10375531D02*
X751015Y-10366008D01*
X751015Y-10366008D02*
X770062Y-10356484D01*
X960539Y-10356484D02*
X979586Y-10356484D01*
X979586Y-10356484D02*
X998634Y-10366008D01*
X998634Y-10366008D02*
X1008158Y-10375531D01*
X1008158Y-10375531D02*
X1017682Y-10394579D01*
X1017682Y-10394579D02*
X1027205Y-10432674D01*
X1027205Y-10432674D02*
X1027205Y-10480293D01*
X1027205Y-10480293D02*
X1017682Y-10518389D01*
X1017682Y-10518389D02*
X1008158Y-10537436D01*
X1008158Y-10537436D02*
X998634Y-10546960D01*
X998634Y-10546960D02*
X979586Y-10556484D01*
X979586Y-10556484D02*
X960539Y-10556484D01*
X960539Y-10556484D02*
X941491Y-10546960D01*
X941491Y-10546960D02*
X931967Y-10537436D01*
X931967Y-10537436D02*
X922443Y-10518389D01*
X922443Y-10518389D02*
X912920Y-10480293D01*
X912920Y-10480293D02*
X912920Y-10432674D01*
X912920Y-10432674D02*
X922443Y-10394579D01*
X922443Y-10394579D02*
X931967Y-10375531D01*
X931967Y-10375531D02*
X941491Y-10366008D01*
X941491Y-10366008D02*
X960539Y-10356484D01*
X1112920Y-10556484D02*
X1112920Y-10423150D01*
X1112920Y-10442198D02*
X1122444Y-10432674D01*
X1122444Y-10432674D02*
X1141491Y-10423150D01*
X1141491Y-10423150D02*
X1170063Y-10423150D01*
X1170063Y-10423150D02*
X1189110Y-10432674D01*
X1189110Y-10432674D02*
X1198634Y-10451722D01*
X1198634Y-10451722D02*
X1198634Y-10556484D01*
X1198634Y-10451722D02*
X1208158Y-10432674D01*
X1208158Y-10432674D02*
X1227205Y-10423150D01*
X1227205Y-10423150D02*
X1255777Y-10423150D01*
X1255777Y-10423150D02*
X1274825Y-10432674D01*
X1274825Y-10432674D02*
X1284348Y-10451722D01*
X1284348Y-10451722D02*
X1284348Y-10556484D01*
X1379586Y-10556484D02*
X1379586Y-10423150D01*
X1379586Y-10442198D02*
X1389110Y-10432674D01*
X1389110Y-10432674D02*
X1408158Y-10423150D01*
X1408158Y-10423150D02*
X1436729Y-10423150D01*
X1436729Y-10423150D02*
X1455777Y-10432674D01*
X1455777Y-10432674D02*
X1465301Y-10451722D01*
X1465301Y-10451722D02*
X1465301Y-10556484D01*
X1465301Y-10451722D02*
X1474824Y-10432674D01*
X1474824Y-10432674D02*
X1493872Y-10423150D01*
X1493872Y-10423150D02*
X1522443Y-10423150D01*
X1522443Y-10423150D02*
X1541491Y-10432674D01*
X1541491Y-10432674D02*
X1551015Y-10451722D01*
X1551015Y-10451722D02*
X1551015Y-10556484D01*
X1941491Y-10346960D02*
X1770063Y-10604103D01*
X2198634Y-10356484D02*
X2217682Y-10356484D01*
X2217682Y-10356484D02*
X2236729Y-10366008D01*
X2236729Y-10366008D02*
X2246253Y-10375531D01*
X2246253Y-10375531D02*
X2255777Y-10394579D01*
X2255777Y-10394579D02*
X2265301Y-10432674D01*
X2265301Y-10432674D02*
X2265301Y-10480293D01*
X2265301Y-10480293D02*
X2255777Y-10518389D01*
X2255777Y-10518389D02*
X2246253Y-10537436D01*
X2246253Y-10537436D02*
X2236729Y-10546960D01*
X2236729Y-10546960D02*
X2217682Y-10556484D01*
X2217682Y-10556484D02*
X2198634Y-10556484D01*
X2198634Y-10556484D02*
X2179587Y-10546960D01*
X2179587Y-10546960D02*
X2170063Y-10537436D01*
X2170063Y-10537436D02*
X2160539Y-10518389D01*
X2160539Y-10518389D02*
X2151015Y-10480293D01*
X2151015Y-10480293D02*
X2151015Y-10432674D01*
X2151015Y-10432674D02*
X2160539Y-10394579D01*
X2160539Y-10394579D02*
X2170063Y-10375531D01*
X2170063Y-10375531D02*
X2179587Y-10366008D01*
X2179587Y-10366008D02*
X2198634Y-10356484D01*
X2351015Y-10537436D02*
X2360539Y-10546960D01*
X2360539Y-10546960D02*
X2351015Y-10556484D01*
X2351015Y-10556484D02*
X2341491Y-10546960D01*
X2341491Y-10546960D02*
X2351015Y-10537436D01*
X2351015Y-10537436D02*
X2351015Y-10556484D01*
X2484348Y-10356484D02*
X2503396Y-10356484D01*
X2503396Y-10356484D02*
X2522444Y-10366008D01*
X2522444Y-10366008D02*
X2531968Y-10375531D01*
X2531968Y-10375531D02*
X2541491Y-10394579D01*
X2541491Y-10394579D02*
X2551015Y-10432674D01*
X2551015Y-10432674D02*
X2551015Y-10480293D01*
X2551015Y-10480293D02*
X2541491Y-10518389D01*
X2541491Y-10518389D02*
X2531968Y-10537436D01*
X2531968Y-10537436D02*
X2522444Y-10546960D01*
X2522444Y-10546960D02*
X2503396Y-10556484D01*
X2503396Y-10556484D02*
X2484348Y-10556484D01*
X2484348Y-10556484D02*
X2465301Y-10546960D01*
X2465301Y-10546960D02*
X2455777Y-10537436D01*
X2455777Y-10537436D02*
X2446253Y-10518389D01*
X2446253Y-10518389D02*
X2436729Y-10480293D01*
X2436729Y-10480293D02*
X2436729Y-10432674D01*
X2436729Y-10432674D02*
X2446253Y-10394579D01*
X2446253Y-10394579D02*
X2455777Y-10375531D01*
X2455777Y-10375531D02*
X2465301Y-10366008D01*
X2465301Y-10366008D02*
X2484348Y-10356484D01*
X2617682Y-10356484D02*
X2741491Y-10356484D01*
X2741491Y-10356484D02*
X2674825Y-10432674D01*
X2674825Y-10432674D02*
X2703396Y-10432674D01*
X2703396Y-10432674D02*
X2722444Y-10442198D01*
X2722444Y-10442198D02*
X2731968Y-10451722D01*
X2731968Y-10451722D02*
X2741491Y-10470770D01*
X2741491Y-10470770D02*
X2741491Y-10518389D01*
X2741491Y-10518389D02*
X2731968Y-10537436D01*
X2731968Y-10537436D02*
X2722444Y-10546960D01*
X2722444Y-10546960D02*
X2703396Y-10556484D01*
X2703396Y-10556484D02*
X2646253Y-10556484D01*
X2646253Y-10556484D02*
X2627206Y-10546960D01*
X2627206Y-10546960D02*
X2617682Y-10537436D01*
X2836729Y-10556484D02*
X2874825Y-10556484D01*
X2874825Y-10556484D02*
X2893872Y-10546960D01*
X2893872Y-10546960D02*
X2903396Y-10537436D01*
X2903396Y-10537436D02*
X2922444Y-10508865D01*
X2922444Y-10508865D02*
X2931967Y-10470770D01*
X2931967Y-10470770D02*
X2931967Y-10394579D01*
X2931967Y-10394579D02*
X2922444Y-10375531D01*
X2922444Y-10375531D02*
X2912920Y-10366008D01*
X2912920Y-10366008D02*
X2893872Y-10356484D01*
X2893872Y-10356484D02*
X2855777Y-10356484D01*
X2855777Y-10356484D02*
X2836729Y-10366008D01*
X2836729Y-10366008D02*
X2827206Y-10375531D01*
X2827206Y-10375531D02*
X2817682Y-10394579D01*
X2817682Y-10394579D02*
X2817682Y-10442198D01*
X2817682Y-10442198D02*
X2827206Y-10461246D01*
X2827206Y-10461246D02*
X2836729Y-10470770D01*
X2836729Y-10470770D02*
X2855777Y-10480293D01*
X2855777Y-10480293D02*
X2893872Y-10480293D01*
X2893872Y-10480293D02*
X2912920Y-10470770D01*
X2912920Y-10470770D02*
X2922444Y-10461246D01*
X2922444Y-10461246D02*
X2931967Y-10442198D01*
X3103396Y-10423150D02*
X3103396Y-10556484D01*
X3055777Y-10346960D02*
X3008158Y-10489817D01*
X3008158Y-10489817D02*
X3131967Y-10489817D01*
X3198634Y-10356484D02*
X3198634Y-10394579D01*
X3274825Y-10356484D02*
X3274825Y-10394579D01*
X3570063Y-10632674D02*
X3560539Y-10623150D01*
X3560539Y-10623150D02*
X3541491Y-10594579D01*
X3541491Y-10594579D02*
X3531968Y-10575531D01*
X3531968Y-10575531D02*
X3522444Y-10546960D01*
X3522444Y-10546960D02*
X3512920Y-10499341D01*
X3512920Y-10499341D02*
X3512920Y-10461246D01*
X3512920Y-10461246D02*
X3522444Y-10413627D01*
X3522444Y-10413627D02*
X3531968Y-10385055D01*
X3531968Y-10385055D02*
X3541491Y-10366008D01*
X3541491Y-10366008D02*
X3560539Y-10337436D01*
X3560539Y-10337436D02*
X3570063Y-10327912D01*
X3636729Y-10375531D02*
X3646253Y-10366008D01*
X3646253Y-10366008D02*
X3665301Y-10356484D01*
X3665301Y-10356484D02*
X3712920Y-10356484D01*
X3712920Y-10356484D02*
X3731968Y-10366008D01*
X3731968Y-10366008D02*
X3741491Y-10375531D01*
X3741491Y-10375531D02*
X3751015Y-10394579D01*
X3751015Y-10394579D02*
X3751015Y-10413627D01*
X3751015Y-10413627D02*
X3741491Y-10442198D01*
X3741491Y-10442198D02*
X3627206Y-10556484D01*
X3627206Y-10556484D02*
X3751015Y-10556484D01*
X3989110Y-10556484D02*
X3989110Y-10356484D01*
X4074825Y-10556484D02*
X4074825Y-10451722D01*
X4074825Y-10451722D02*
X4065301Y-10432674D01*
X4065301Y-10432674D02*
X4046253Y-10423150D01*
X4046253Y-10423150D02*
X4017682Y-10423150D01*
X4017682Y-10423150D02*
X3998634Y-10432674D01*
X3998634Y-10432674D02*
X3989110Y-10442198D01*
X4198634Y-10556484D02*
X4179587Y-10546960D01*
X4179587Y-10546960D02*
X4170063Y-10537436D01*
X4170063Y-10537436D02*
X4160539Y-10518389D01*
X4160539Y-10518389D02*
X4160539Y-10461246D01*
X4160539Y-10461246D02*
X4170063Y-10442198D01*
X4170063Y-10442198D02*
X4179587Y-10432674D01*
X4179587Y-10432674D02*
X4198634Y-10423150D01*
X4198634Y-10423150D02*
X4227206Y-10423150D01*
X4227206Y-10423150D02*
X4246253Y-10432674D01*
X4246253Y-10432674D02*
X4255777Y-10442198D01*
X4255777Y-10442198D02*
X4265301Y-10461246D01*
X4265301Y-10461246D02*
X4265301Y-10518389D01*
X4265301Y-10518389D02*
X4255777Y-10537436D01*
X4255777Y-10537436D02*
X4246253Y-10546960D01*
X4246253Y-10546960D02*
X4227206Y-10556484D01*
X4227206Y-10556484D02*
X4198634Y-10556484D01*
X4379587Y-10556484D02*
X4360539Y-10546960D01*
X4360539Y-10546960D02*
X4351015Y-10527912D01*
X4351015Y-10527912D02*
X4351015Y-10356484D01*
X4531968Y-10546960D02*
X4512920Y-10556484D01*
X4512920Y-10556484D02*
X4474825Y-10556484D01*
X4474825Y-10556484D02*
X4455777Y-10546960D01*
X4455777Y-10546960D02*
X4446253Y-10527912D01*
X4446253Y-10527912D02*
X4446253Y-10451722D01*
X4446253Y-10451722D02*
X4455777Y-10432674D01*
X4455777Y-10432674D02*
X4474825Y-10423150D01*
X4474825Y-10423150D02*
X4512920Y-10423150D01*
X4512920Y-10423150D02*
X4531968Y-10432674D01*
X4531968Y-10432674D02*
X4541492Y-10451722D01*
X4541492Y-10451722D02*
X4541492Y-10470770D01*
X4541492Y-10470770D02*
X4446253Y-10489817D01*
X4617682Y-10546960D02*
X4636730Y-10556484D01*
X4636730Y-10556484D02*
X4674825Y-10556484D01*
X4674825Y-10556484D02*
X4693873Y-10546960D01*
X4693873Y-10546960D02*
X4703396Y-10527912D01*
X4703396Y-10527912D02*
X4703396Y-10518389D01*
X4703396Y-10518389D02*
X4693873Y-10499341D01*
X4693873Y-10499341D02*
X4674825Y-10489817D01*
X4674825Y-10489817D02*
X4646253Y-10489817D01*
X4646253Y-10489817D02*
X4627206Y-10480293D01*
X4627206Y-10480293D02*
X4617682Y-10461246D01*
X4617682Y-10461246D02*
X4617682Y-10451722D01*
X4617682Y-10451722D02*
X4627206Y-10432674D01*
X4627206Y-10432674D02*
X4646253Y-10423150D01*
X4646253Y-10423150D02*
X4674825Y-10423150D01*
X4674825Y-10423150D02*
X4693873Y-10432674D01*
X4770063Y-10632674D02*
X4779587Y-10623150D01*
X4779587Y-10623150D02*
X4798634Y-10594579D01*
X4798634Y-10594579D02*
X4808158Y-10575531D01*
X4808158Y-10575531D02*
X4817682Y-10546960D01*
X4817682Y-10546960D02*
X4827206Y-10499341D01*
X4827206Y-10499341D02*
X4827206Y-10461246D01*
X4827206Y-10461246D02*
X4817682Y-10413627D01*
X4817682Y-10413627D02*
X4808158Y-10385055D01*
X4808158Y-10385055D02*
X4798634Y-10366008D01*
X4798634Y-10366008D02*
X4779587Y-10337436D01*
X4779587Y-10337436D02*
X4770063Y-10327912D01*
X5131968Y-10632674D02*
X5122444Y-10623150D01*
X5122444Y-10623150D02*
X5103396Y-10594579D01*
X5103396Y-10594579D02*
X5093873Y-10575531D01*
X5093873Y-10575531D02*
X5084349Y-10546960D01*
X5084349Y-10546960D02*
X5074825Y-10499341D01*
X5074825Y-10499341D02*
X5074825Y-10461246D01*
X5074825Y-10461246D02*
X5084349Y-10413627D01*
X5084349Y-10413627D02*
X5093873Y-10385055D01*
X5093873Y-10385055D02*
X5103396Y-10366008D01*
X5103396Y-10366008D02*
X5122444Y-10337436D01*
X5122444Y-10337436D02*
X5131968Y-10327912D01*
X5208158Y-10423150D02*
X5208158Y-10556484D01*
X5208158Y-10442198D02*
X5217682Y-10432674D01*
X5217682Y-10432674D02*
X5236730Y-10423150D01*
X5236730Y-10423150D02*
X5265301Y-10423150D01*
X5265301Y-10423150D02*
X5284349Y-10432674D01*
X5284349Y-10432674D02*
X5293873Y-10451722D01*
X5293873Y-10451722D02*
X5293873Y-10556484D01*
X5417682Y-10556484D02*
X5398634Y-10546960D01*
X5398634Y-10546960D02*
X5389111Y-10537436D01*
X5389111Y-10537436D02*
X5379587Y-10518389D01*
X5379587Y-10518389D02*
X5379587Y-10461246D01*
X5379587Y-10461246D02*
X5389111Y-10442198D01*
X5389111Y-10442198D02*
X5398634Y-10432674D01*
X5398634Y-10432674D02*
X5417682Y-10423150D01*
X5417682Y-10423150D02*
X5446254Y-10423150D01*
X5446254Y-10423150D02*
X5465301Y-10432674D01*
X5465301Y-10432674D02*
X5474825Y-10442198D01*
X5474825Y-10442198D02*
X5484349Y-10461246D01*
X5484349Y-10461246D02*
X5484349Y-10518389D01*
X5484349Y-10518389D02*
X5474825Y-10537436D01*
X5474825Y-10537436D02*
X5465301Y-10546960D01*
X5465301Y-10546960D02*
X5446254Y-10556484D01*
X5446254Y-10556484D02*
X5417682Y-10556484D01*
X5541492Y-10423150D02*
X5617682Y-10423150D01*
X5570063Y-10356484D02*
X5570063Y-10527912D01*
X5570063Y-10527912D02*
X5579587Y-10546960D01*
X5579587Y-10546960D02*
X5598634Y-10556484D01*
X5598634Y-10556484D02*
X5617682Y-10556484D01*
X5836730Y-10423150D02*
X5836730Y-10623150D01*
X5836730Y-10432674D02*
X5855777Y-10423150D01*
X5855777Y-10423150D02*
X5893873Y-10423150D01*
X5893873Y-10423150D02*
X5912920Y-10432674D01*
X5912920Y-10432674D02*
X5922444Y-10442198D01*
X5922444Y-10442198D02*
X5931968Y-10461246D01*
X5931968Y-10461246D02*
X5931968Y-10518389D01*
X5931968Y-10518389D02*
X5922444Y-10537436D01*
X5922444Y-10537436D02*
X5912920Y-10546960D01*
X5912920Y-10546960D02*
X5893873Y-10556484D01*
X5893873Y-10556484D02*
X5855777Y-10556484D01*
X5855777Y-10556484D02*
X5836730Y-10546960D01*
X6046253Y-10556484D02*
X6027206Y-10546960D01*
X6027206Y-10546960D02*
X6017682Y-10527912D01*
X6017682Y-10527912D02*
X6017682Y-10356484D01*
X6208158Y-10556484D02*
X6208158Y-10451722D01*
X6208158Y-10451722D02*
X6198634Y-10432674D01*
X6198634Y-10432674D02*
X6179587Y-10423150D01*
X6179587Y-10423150D02*
X6141492Y-10423150D01*
X6141492Y-10423150D02*
X6122444Y-10432674D01*
X6208158Y-10546960D02*
X6189111Y-10556484D01*
X6189111Y-10556484D02*
X6141492Y-10556484D01*
X6141492Y-10556484D02*
X6122444Y-10546960D01*
X6122444Y-10546960D02*
X6112920Y-10527912D01*
X6112920Y-10527912D02*
X6112920Y-10508865D01*
X6112920Y-10508865D02*
X6122444Y-10489817D01*
X6122444Y-10489817D02*
X6141492Y-10480293D01*
X6141492Y-10480293D02*
X6189111Y-10480293D01*
X6189111Y-10480293D02*
X6208158Y-10470770D01*
X6274825Y-10423150D02*
X6351015Y-10423150D01*
X6303396Y-10356484D02*
X6303396Y-10527912D01*
X6303396Y-10527912D02*
X6312920Y-10546960D01*
X6312920Y-10546960D02*
X6331968Y-10556484D01*
X6331968Y-10556484D02*
X6351015Y-10556484D01*
X6493873Y-10546960D02*
X6474825Y-10556484D01*
X6474825Y-10556484D02*
X6436730Y-10556484D01*
X6436730Y-10556484D02*
X6417682Y-10546960D01*
X6417682Y-10546960D02*
X6408158Y-10527912D01*
X6408158Y-10527912D02*
X6408158Y-10451722D01*
X6408158Y-10451722D02*
X6417682Y-10432674D01*
X6417682Y-10432674D02*
X6436730Y-10423150D01*
X6436730Y-10423150D02*
X6474825Y-10423150D01*
X6474825Y-10423150D02*
X6493873Y-10432674D01*
X6493873Y-10432674D02*
X6503396Y-10451722D01*
X6503396Y-10451722D02*
X6503396Y-10470770D01*
X6503396Y-10470770D02*
X6408158Y-10489817D01*
X6674825Y-10556484D02*
X6674825Y-10356484D01*
X6674825Y-10546960D02*
X6655777Y-10556484D01*
X6655777Y-10556484D02*
X6617682Y-10556484D01*
X6617682Y-10556484D02*
X6598634Y-10546960D01*
X6598634Y-10546960D02*
X6589111Y-10537436D01*
X6589111Y-10537436D02*
X6579587Y-10518389D01*
X6579587Y-10518389D02*
X6579587Y-10461246D01*
X6579587Y-10461246D02*
X6589111Y-10442198D01*
X6589111Y-10442198D02*
X6598634Y-10432674D01*
X6598634Y-10432674D02*
X6617682Y-10423150D01*
X6617682Y-10423150D02*
X6655777Y-10423150D01*
X6655777Y-10423150D02*
X6674825Y-10432674D01*
X6751015Y-10632674D02*
X6760539Y-10623150D01*
X6760539Y-10623150D02*
X6779587Y-10594579D01*
X6779587Y-10594579D02*
X6789111Y-10575531D01*
X6789111Y-10575531D02*
X6798634Y-10546960D01*
X6798634Y-10546960D02*
X6808158Y-10499341D01*
X6808158Y-10499341D02*
X6808158Y-10461246D01*
X6808158Y-10461246D02*
X6798634Y-10413627D01*
X6798634Y-10413627D02*
X6789111Y-10385055D01*
X6789111Y-10385055D02*
X6779587Y-10366008D01*
X6779587Y-10366008D02*
X6760539Y-10337436D01*
X6760539Y-10337436D02*
X6751015Y-10327912D01*
D12*
X-115000Y-10674000D02*
X-5000Y-10784000D01*
X-5000Y-10674000D02*
X-115000Y-10784000D01*
X-60000Y-10674000D02*
X-60000Y-10784000D01*
X-115000Y-10729000D02*
X-5000Y-10729000D01*
D11*
X360539Y-10820484D02*
X246253Y-10820484D01*
X303396Y-10820484D02*
X303396Y-10620484D01*
X303396Y-10620484D02*
X284348Y-10649055D01*
X284348Y-10649055D02*
X265301Y-10668103D01*
X265301Y-10668103D02*
X246253Y-10677627D01*
X446253Y-10801436D02*
X455777Y-10810960D01*
X455777Y-10810960D02*
X446253Y-10820484D01*
X446253Y-10820484D02*
X436729Y-10810960D01*
X436729Y-10810960D02*
X446253Y-10801436D01*
X446253Y-10801436D02*
X446253Y-10820484D01*
X646253Y-10820484D02*
X531967Y-10820484D01*
X589110Y-10820484D02*
X589110Y-10620484D01*
X589110Y-10620484D02*
X570063Y-10649055D01*
X570063Y-10649055D02*
X551015Y-10668103D01*
X551015Y-10668103D02*
X531967Y-10677627D01*
X770062Y-10620484D02*
X789110Y-10620484D01*
X789110Y-10620484D02*
X808158Y-10630008D01*
X808158Y-10630008D02*
X817682Y-10639531D01*
X817682Y-10639531D02*
X827205Y-10658579D01*
X827205Y-10658579D02*
X836729Y-10696674D01*
X836729Y-10696674D02*
X836729Y-10744293D01*
X836729Y-10744293D02*
X827205Y-10782389D01*
X827205Y-10782389D02*
X817682Y-10801436D01*
X817682Y-10801436D02*
X808158Y-10810960D01*
X808158Y-10810960D02*
X789110Y-10820484D01*
X789110Y-10820484D02*
X770062Y-10820484D01*
X770062Y-10820484D02*
X751015Y-10810960D01*
X751015Y-10810960D02*
X741491Y-10801436D01*
X741491Y-10801436D02*
X731967Y-10782389D01*
X731967Y-10782389D02*
X722443Y-10744293D01*
X722443Y-10744293D02*
X722443Y-10696674D01*
X722443Y-10696674D02*
X731967Y-10658579D01*
X731967Y-10658579D02*
X741491Y-10639531D01*
X741491Y-10639531D02*
X751015Y-10630008D01*
X751015Y-10630008D02*
X770062Y-10620484D01*
X960539Y-10620484D02*
X979586Y-10620484D01*
X979586Y-10620484D02*
X998634Y-10630008D01*
X998634Y-10630008D02*
X1008158Y-10639531D01*
X1008158Y-10639531D02*
X1017682Y-10658579D01*
X1017682Y-10658579D02*
X1027205Y-10696674D01*
X1027205Y-10696674D02*
X1027205Y-10744293D01*
X1027205Y-10744293D02*
X1017682Y-10782389D01*
X1017682Y-10782389D02*
X1008158Y-10801436D01*
X1008158Y-10801436D02*
X998634Y-10810960D01*
X998634Y-10810960D02*
X979586Y-10820484D01*
X979586Y-10820484D02*
X960539Y-10820484D01*
X960539Y-10820484D02*
X941491Y-10810960D01*
X941491Y-10810960D02*
X931967Y-10801436D01*
X931967Y-10801436D02*
X922443Y-10782389D01*
X922443Y-10782389D02*
X912920Y-10744293D01*
X912920Y-10744293D02*
X912920Y-10696674D01*
X912920Y-10696674D02*
X922443Y-10658579D01*
X922443Y-10658579D02*
X931967Y-10639531D01*
X931967Y-10639531D02*
X941491Y-10630008D01*
X941491Y-10630008D02*
X960539Y-10620484D01*
X1112920Y-10820484D02*
X1112920Y-10687150D01*
X1112920Y-10706198D02*
X1122444Y-10696674D01*
X1122444Y-10696674D02*
X1141491Y-10687150D01*
X1141491Y-10687150D02*
X1170063Y-10687150D01*
X1170063Y-10687150D02*
X1189110Y-10696674D01*
X1189110Y-10696674D02*
X1198634Y-10715722D01*
X1198634Y-10715722D02*
X1198634Y-10820484D01*
X1198634Y-10715722D02*
X1208158Y-10696674D01*
X1208158Y-10696674D02*
X1227205Y-10687150D01*
X1227205Y-10687150D02*
X1255777Y-10687150D01*
X1255777Y-10687150D02*
X1274825Y-10696674D01*
X1274825Y-10696674D02*
X1284348Y-10715722D01*
X1284348Y-10715722D02*
X1284348Y-10820484D01*
X1379586Y-10820484D02*
X1379586Y-10687150D01*
X1379586Y-10706198D02*
X1389110Y-10696674D01*
X1389110Y-10696674D02*
X1408158Y-10687150D01*
X1408158Y-10687150D02*
X1436729Y-10687150D01*
X1436729Y-10687150D02*
X1455777Y-10696674D01*
X1455777Y-10696674D02*
X1465301Y-10715722D01*
X1465301Y-10715722D02*
X1465301Y-10820484D01*
X1465301Y-10715722D02*
X1474824Y-10696674D01*
X1474824Y-10696674D02*
X1493872Y-10687150D01*
X1493872Y-10687150D02*
X1522443Y-10687150D01*
X1522443Y-10687150D02*
X1541491Y-10696674D01*
X1541491Y-10696674D02*
X1551015Y-10715722D01*
X1551015Y-10715722D02*
X1551015Y-10820484D01*
X1941491Y-10610960D02*
X1770063Y-10868103D01*
X2198634Y-10620484D02*
X2217682Y-10620484D01*
X2217682Y-10620484D02*
X2236729Y-10630008D01*
X2236729Y-10630008D02*
X2246253Y-10639531D01*
X2246253Y-10639531D02*
X2255777Y-10658579D01*
X2255777Y-10658579D02*
X2265301Y-10696674D01*
X2265301Y-10696674D02*
X2265301Y-10744293D01*
X2265301Y-10744293D02*
X2255777Y-10782389D01*
X2255777Y-10782389D02*
X2246253Y-10801436D01*
X2246253Y-10801436D02*
X2236729Y-10810960D01*
X2236729Y-10810960D02*
X2217682Y-10820484D01*
X2217682Y-10820484D02*
X2198634Y-10820484D01*
X2198634Y-10820484D02*
X2179587Y-10810960D01*
X2179587Y-10810960D02*
X2170063Y-10801436D01*
X2170063Y-10801436D02*
X2160539Y-10782389D01*
X2160539Y-10782389D02*
X2151015Y-10744293D01*
X2151015Y-10744293D02*
X2151015Y-10696674D01*
X2151015Y-10696674D02*
X2160539Y-10658579D01*
X2160539Y-10658579D02*
X2170063Y-10639531D01*
X2170063Y-10639531D02*
X2179587Y-10630008D01*
X2179587Y-10630008D02*
X2198634Y-10620484D01*
X2351015Y-10801436D02*
X2360539Y-10810960D01*
X2360539Y-10810960D02*
X2351015Y-10820484D01*
X2351015Y-10820484D02*
X2341491Y-10810960D01*
X2341491Y-10810960D02*
X2351015Y-10801436D01*
X2351015Y-10801436D02*
X2351015Y-10820484D01*
X2484348Y-10620484D02*
X2503396Y-10620484D01*
X2503396Y-10620484D02*
X2522444Y-10630008D01*
X2522444Y-10630008D02*
X2531968Y-10639531D01*
X2531968Y-10639531D02*
X2541491Y-10658579D01*
X2541491Y-10658579D02*
X2551015Y-10696674D01*
X2551015Y-10696674D02*
X2551015Y-10744293D01*
X2551015Y-10744293D02*
X2541491Y-10782389D01*
X2541491Y-10782389D02*
X2531968Y-10801436D01*
X2531968Y-10801436D02*
X2522444Y-10810960D01*
X2522444Y-10810960D02*
X2503396Y-10820484D01*
X2503396Y-10820484D02*
X2484348Y-10820484D01*
X2484348Y-10820484D02*
X2465301Y-10810960D01*
X2465301Y-10810960D02*
X2455777Y-10801436D01*
X2455777Y-10801436D02*
X2446253Y-10782389D01*
X2446253Y-10782389D02*
X2436729Y-10744293D01*
X2436729Y-10744293D02*
X2436729Y-10696674D01*
X2436729Y-10696674D02*
X2446253Y-10658579D01*
X2446253Y-10658579D02*
X2455777Y-10639531D01*
X2455777Y-10639531D02*
X2465301Y-10630008D01*
X2465301Y-10630008D02*
X2484348Y-10620484D01*
X2722444Y-10687150D02*
X2722444Y-10820484D01*
X2674825Y-10610960D02*
X2627206Y-10753817D01*
X2627206Y-10753817D02*
X2751015Y-10753817D01*
X2808158Y-10620484D02*
X2931967Y-10620484D01*
X2931967Y-10620484D02*
X2865301Y-10696674D01*
X2865301Y-10696674D02*
X2893872Y-10696674D01*
X2893872Y-10696674D02*
X2912920Y-10706198D01*
X2912920Y-10706198D02*
X2922444Y-10715722D01*
X2922444Y-10715722D02*
X2931967Y-10734770D01*
X2931967Y-10734770D02*
X2931967Y-10782389D01*
X2931967Y-10782389D02*
X2922444Y-10801436D01*
X2922444Y-10801436D02*
X2912920Y-10810960D01*
X2912920Y-10810960D02*
X2893872Y-10820484D01*
X2893872Y-10820484D02*
X2836729Y-10820484D01*
X2836729Y-10820484D02*
X2817682Y-10810960D01*
X2817682Y-10810960D02*
X2808158Y-10801436D01*
X2998634Y-10620484D02*
X3122444Y-10620484D01*
X3122444Y-10620484D02*
X3055777Y-10696674D01*
X3055777Y-10696674D02*
X3084348Y-10696674D01*
X3084348Y-10696674D02*
X3103396Y-10706198D01*
X3103396Y-10706198D02*
X3112920Y-10715722D01*
X3112920Y-10715722D02*
X3122444Y-10734770D01*
X3122444Y-10734770D02*
X3122444Y-10782389D01*
X3122444Y-10782389D02*
X3112920Y-10801436D01*
X3112920Y-10801436D02*
X3103396Y-10810960D01*
X3103396Y-10810960D02*
X3084348Y-10820484D01*
X3084348Y-10820484D02*
X3027206Y-10820484D01*
X3027206Y-10820484D02*
X3008158Y-10810960D01*
X3008158Y-10810960D02*
X2998634Y-10801436D01*
X3198634Y-10620484D02*
X3198634Y-10658579D01*
X3274825Y-10620484D02*
X3274825Y-10658579D01*
X3570063Y-10896674D02*
X3560539Y-10887150D01*
X3560539Y-10887150D02*
X3541491Y-10858579D01*
X3541491Y-10858579D02*
X3531968Y-10839531D01*
X3531968Y-10839531D02*
X3522444Y-10810960D01*
X3522444Y-10810960D02*
X3512920Y-10763341D01*
X3512920Y-10763341D02*
X3512920Y-10725246D01*
X3512920Y-10725246D02*
X3522444Y-10677627D01*
X3522444Y-10677627D02*
X3531968Y-10649055D01*
X3531968Y-10649055D02*
X3541491Y-10630008D01*
X3541491Y-10630008D02*
X3560539Y-10601436D01*
X3560539Y-10601436D02*
X3570063Y-10591912D01*
X3731968Y-10620484D02*
X3693872Y-10620484D01*
X3693872Y-10620484D02*
X3674825Y-10630008D01*
X3674825Y-10630008D02*
X3665301Y-10639531D01*
X3665301Y-10639531D02*
X3646253Y-10668103D01*
X3646253Y-10668103D02*
X3636729Y-10706198D01*
X3636729Y-10706198D02*
X3636729Y-10782389D01*
X3636729Y-10782389D02*
X3646253Y-10801436D01*
X3646253Y-10801436D02*
X3655777Y-10810960D01*
X3655777Y-10810960D02*
X3674825Y-10820484D01*
X3674825Y-10820484D02*
X3712920Y-10820484D01*
X3712920Y-10820484D02*
X3731968Y-10810960D01*
X3731968Y-10810960D02*
X3741491Y-10801436D01*
X3741491Y-10801436D02*
X3751015Y-10782389D01*
X3751015Y-10782389D02*
X3751015Y-10734770D01*
X3751015Y-10734770D02*
X3741491Y-10715722D01*
X3741491Y-10715722D02*
X3731968Y-10706198D01*
X3731968Y-10706198D02*
X3712920Y-10696674D01*
X3712920Y-10696674D02*
X3674825Y-10696674D01*
X3674825Y-10696674D02*
X3655777Y-10706198D01*
X3655777Y-10706198D02*
X3646253Y-10715722D01*
X3646253Y-10715722D02*
X3636729Y-10734770D01*
X3989110Y-10820484D02*
X3989110Y-10620484D01*
X4074825Y-10820484D02*
X4074825Y-10715722D01*
X4074825Y-10715722D02*
X4065301Y-10696674D01*
X4065301Y-10696674D02*
X4046253Y-10687150D01*
X4046253Y-10687150D02*
X4017682Y-10687150D01*
X4017682Y-10687150D02*
X3998634Y-10696674D01*
X3998634Y-10696674D02*
X3989110Y-10706198D01*
X4198634Y-10820484D02*
X4179587Y-10810960D01*
X4179587Y-10810960D02*
X4170063Y-10801436D01*
X4170063Y-10801436D02*
X4160539Y-10782389D01*
X4160539Y-10782389D02*
X4160539Y-10725246D01*
X4160539Y-10725246D02*
X4170063Y-10706198D01*
X4170063Y-10706198D02*
X4179587Y-10696674D01*
X4179587Y-10696674D02*
X4198634Y-10687150D01*
X4198634Y-10687150D02*
X4227206Y-10687150D01*
X4227206Y-10687150D02*
X4246253Y-10696674D01*
X4246253Y-10696674D02*
X4255777Y-10706198D01*
X4255777Y-10706198D02*
X4265301Y-10725246D01*
X4265301Y-10725246D02*
X4265301Y-10782389D01*
X4265301Y-10782389D02*
X4255777Y-10801436D01*
X4255777Y-10801436D02*
X4246253Y-10810960D01*
X4246253Y-10810960D02*
X4227206Y-10820484D01*
X4227206Y-10820484D02*
X4198634Y-10820484D01*
X4379587Y-10820484D02*
X4360539Y-10810960D01*
X4360539Y-10810960D02*
X4351015Y-10791912D01*
X4351015Y-10791912D02*
X4351015Y-10620484D01*
X4531968Y-10810960D02*
X4512920Y-10820484D01*
X4512920Y-10820484D02*
X4474825Y-10820484D01*
X4474825Y-10820484D02*
X4455777Y-10810960D01*
X4455777Y-10810960D02*
X4446253Y-10791912D01*
X4446253Y-10791912D02*
X4446253Y-10715722D01*
X4446253Y-10715722D02*
X4455777Y-10696674D01*
X4455777Y-10696674D02*
X4474825Y-10687150D01*
X4474825Y-10687150D02*
X4512920Y-10687150D01*
X4512920Y-10687150D02*
X4531968Y-10696674D01*
X4531968Y-10696674D02*
X4541492Y-10715722D01*
X4541492Y-10715722D02*
X4541492Y-10734770D01*
X4541492Y-10734770D02*
X4446253Y-10753817D01*
X4617682Y-10810960D02*
X4636730Y-10820484D01*
X4636730Y-10820484D02*
X4674825Y-10820484D01*
X4674825Y-10820484D02*
X4693873Y-10810960D01*
X4693873Y-10810960D02*
X4703396Y-10791912D01*
X4703396Y-10791912D02*
X4703396Y-10782389D01*
X4703396Y-10782389D02*
X4693873Y-10763341D01*
X4693873Y-10763341D02*
X4674825Y-10753817D01*
X4674825Y-10753817D02*
X4646253Y-10753817D01*
X4646253Y-10753817D02*
X4627206Y-10744293D01*
X4627206Y-10744293D02*
X4617682Y-10725246D01*
X4617682Y-10725246D02*
X4617682Y-10715722D01*
X4617682Y-10715722D02*
X4627206Y-10696674D01*
X4627206Y-10696674D02*
X4646253Y-10687150D01*
X4646253Y-10687150D02*
X4674825Y-10687150D01*
X4674825Y-10687150D02*
X4693873Y-10696674D01*
X4770063Y-10896674D02*
X4779587Y-10887150D01*
X4779587Y-10887150D02*
X4798634Y-10858579D01*
X4798634Y-10858579D02*
X4808158Y-10839531D01*
X4808158Y-10839531D02*
X4817682Y-10810960D01*
X4817682Y-10810960D02*
X4827206Y-10763341D01*
X4827206Y-10763341D02*
X4827206Y-10725246D01*
X4827206Y-10725246D02*
X4817682Y-10677627D01*
X4817682Y-10677627D02*
X4808158Y-10649055D01*
X4808158Y-10649055D02*
X4798634Y-10630008D01*
X4798634Y-10630008D02*
X4779587Y-10601436D01*
X4779587Y-10601436D02*
X4770063Y-10591912D01*
X5131968Y-10896674D02*
X5122444Y-10887150D01*
X5122444Y-10887150D02*
X5103396Y-10858579D01*
X5103396Y-10858579D02*
X5093873Y-10839531D01*
X5093873Y-10839531D02*
X5084349Y-10810960D01*
X5084349Y-10810960D02*
X5074825Y-10763341D01*
X5074825Y-10763341D02*
X5074825Y-10725246D01*
X5074825Y-10725246D02*
X5084349Y-10677627D01*
X5084349Y-10677627D02*
X5093873Y-10649055D01*
X5093873Y-10649055D02*
X5103396Y-10630008D01*
X5103396Y-10630008D02*
X5122444Y-10601436D01*
X5122444Y-10601436D02*
X5131968Y-10591912D01*
X5208158Y-10687150D02*
X5208158Y-10820484D01*
X5208158Y-10706198D02*
X5217682Y-10696674D01*
X5217682Y-10696674D02*
X5236730Y-10687150D01*
X5236730Y-10687150D02*
X5265301Y-10687150D01*
X5265301Y-10687150D02*
X5284349Y-10696674D01*
X5284349Y-10696674D02*
X5293873Y-10715722D01*
X5293873Y-10715722D02*
X5293873Y-10820484D01*
X5417682Y-10820484D02*
X5398634Y-10810960D01*
X5398634Y-10810960D02*
X5389111Y-10801436D01*
X5389111Y-10801436D02*
X5379587Y-10782389D01*
X5379587Y-10782389D02*
X5379587Y-10725246D01*
X5379587Y-10725246D02*
X5389111Y-10706198D01*
X5389111Y-10706198D02*
X5398634Y-10696674D01*
X5398634Y-10696674D02*
X5417682Y-10687150D01*
X5417682Y-10687150D02*
X5446254Y-10687150D01*
X5446254Y-10687150D02*
X5465301Y-10696674D01*
X5465301Y-10696674D02*
X5474825Y-10706198D01*
X5474825Y-10706198D02*
X5484349Y-10725246D01*
X5484349Y-10725246D02*
X5484349Y-10782389D01*
X5484349Y-10782389D02*
X5474825Y-10801436D01*
X5474825Y-10801436D02*
X5465301Y-10810960D01*
X5465301Y-10810960D02*
X5446254Y-10820484D01*
X5446254Y-10820484D02*
X5417682Y-10820484D01*
X5541492Y-10687150D02*
X5617682Y-10687150D01*
X5570063Y-10620484D02*
X5570063Y-10791912D01*
X5570063Y-10791912D02*
X5579587Y-10810960D01*
X5579587Y-10810960D02*
X5598634Y-10820484D01*
X5598634Y-10820484D02*
X5617682Y-10820484D01*
X5836730Y-10687150D02*
X5836730Y-10887150D01*
X5836730Y-10696674D02*
X5855777Y-10687150D01*
X5855777Y-10687150D02*
X5893873Y-10687150D01*
X5893873Y-10687150D02*
X5912920Y-10696674D01*
X5912920Y-10696674D02*
X5922444Y-10706198D01*
X5922444Y-10706198D02*
X5931968Y-10725246D01*
X5931968Y-10725246D02*
X5931968Y-10782389D01*
X5931968Y-10782389D02*
X5922444Y-10801436D01*
X5922444Y-10801436D02*
X5912920Y-10810960D01*
X5912920Y-10810960D02*
X5893873Y-10820484D01*
X5893873Y-10820484D02*
X5855777Y-10820484D01*
X5855777Y-10820484D02*
X5836730Y-10810960D01*
X6046253Y-10820484D02*
X6027206Y-10810960D01*
X6027206Y-10810960D02*
X6017682Y-10791912D01*
X6017682Y-10791912D02*
X6017682Y-10620484D01*
X6208158Y-10820484D02*
X6208158Y-10715722D01*
X6208158Y-10715722D02*
X6198634Y-10696674D01*
X6198634Y-10696674D02*
X6179587Y-10687150D01*
X6179587Y-10687150D02*
X6141492Y-10687150D01*
X6141492Y-10687150D02*
X6122444Y-10696674D01*
X6208158Y-10810960D02*
X6189111Y-10820484D01*
X6189111Y-10820484D02*
X6141492Y-10820484D01*
X6141492Y-10820484D02*
X6122444Y-10810960D01*
X6122444Y-10810960D02*
X6112920Y-10791912D01*
X6112920Y-10791912D02*
X6112920Y-10772865D01*
X6112920Y-10772865D02*
X6122444Y-10753817D01*
X6122444Y-10753817D02*
X6141492Y-10744293D01*
X6141492Y-10744293D02*
X6189111Y-10744293D01*
X6189111Y-10744293D02*
X6208158Y-10734770D01*
X6274825Y-10687150D02*
X6351015Y-10687150D01*
X6303396Y-10620484D02*
X6303396Y-10791912D01*
X6303396Y-10791912D02*
X6312920Y-10810960D01*
X6312920Y-10810960D02*
X6331968Y-10820484D01*
X6331968Y-10820484D02*
X6351015Y-10820484D01*
X6493873Y-10810960D02*
X6474825Y-10820484D01*
X6474825Y-10820484D02*
X6436730Y-10820484D01*
X6436730Y-10820484D02*
X6417682Y-10810960D01*
X6417682Y-10810960D02*
X6408158Y-10791912D01*
X6408158Y-10791912D02*
X6408158Y-10715722D01*
X6408158Y-10715722D02*
X6417682Y-10696674D01*
X6417682Y-10696674D02*
X6436730Y-10687150D01*
X6436730Y-10687150D02*
X6474825Y-10687150D01*
X6474825Y-10687150D02*
X6493873Y-10696674D01*
X6493873Y-10696674D02*
X6503396Y-10715722D01*
X6503396Y-10715722D02*
X6503396Y-10734770D01*
X6503396Y-10734770D02*
X6408158Y-10753817D01*
X6674825Y-10820484D02*
X6674825Y-10620484D01*
X6674825Y-10810960D02*
X6655777Y-10820484D01*
X6655777Y-10820484D02*
X6617682Y-10820484D01*
X6617682Y-10820484D02*
X6598634Y-10810960D01*
X6598634Y-10810960D02*
X6589111Y-10801436D01*
X6589111Y-10801436D02*
X6579587Y-10782389D01*
X6579587Y-10782389D02*
X6579587Y-10725246D01*
X6579587Y-10725246D02*
X6589111Y-10706198D01*
X6589111Y-10706198D02*
X6598634Y-10696674D01*
X6598634Y-10696674D02*
X6617682Y-10687150D01*
X6617682Y-10687150D02*
X6655777Y-10687150D01*
X6655777Y-10687150D02*
X6674825Y-10696674D01*
X6751015Y-10896674D02*
X6760539Y-10887150D01*
X6760539Y-10887150D02*
X6779587Y-10858579D01*
X6779587Y-10858579D02*
X6789111Y-10839531D01*
X6789111Y-10839531D02*
X6798634Y-10810960D01*
X6798634Y-10810960D02*
X6808158Y-10763341D01*
X6808158Y-10763341D02*
X6808158Y-10725246D01*
X6808158Y-10725246D02*
X6798634Y-10677627D01*
X6798634Y-10677627D02*
X6789111Y-10649055D01*
X6789111Y-10649055D02*
X6779587Y-10630008D01*
X6779587Y-10630008D02*
X6760539Y-10601436D01*
X6760539Y-10601436D02*
X6751015Y-10591912D01*
M02*
