G04 #@! TF.GenerationSoftware,KiCad,Pcbnew,10.0.6*
G04 #@! TF.CreationDate,2026-09-27T00:19:12-04:00*
G04 #@! TF.ProjectId,ext-board,6578742d-626f-4617-9264-2e6b69636164,rev?*
G04 #@! TF.SameCoordinates,Original*
G04 #@! TF.FileFunction,Copper,L1,Top*
G04 #@! TF.FilePolarity,Positive*
%FSLAX46Y46*%
G04 Gerber Fmt 4.6, Leading zero omitted, Abs format (unit mm)*
G04 Created by KiCad (PCBNEW 10.0.6) date 2026-09-27 00:19:12*
%MOMM*%
%LPD*%
G01*
G04 APERTURE LIST*
G04 Aperture macros list*
%AMRoundRect*
0 Rectangle with rounded corners*
0 $1 Rounding radius*
0 $2 $3 $4 $5 $6 $7 $8 $9 X,Y pos of 4 corners*
0 Add a 4 corners polygon primitive as box body*
4,1,4,$2,$3,$4,$5,$6,$7,$8,$9,$2,$3,0*
0 Add four circle primitives for the rounded corners*
1,1,$1+$1,$2,$3*
1,1,$1+$1,$4,$5*
1,1,$1+$1,$6,$7*
1,1,$1+$1,$8,$9*
0 Add four rect primitives between the rounded corners*
20,1,$1+$1,$2,$3,$4,$5,0*
20,1,$1+$1,$4,$5,$6,$7,0*
20,1,$1+$1,$6,$7,$8,$9,0*
20,1,$1+$1,$8,$9,$2,$3,0*%
%AMFreePoly0*
4,1,23,0.500000,-0.750000,0.000000,-0.750000,0.000000,-0.745722,-0.065263,-0.745722,-0.191342,-0.711940,-0.304381,-0.646677,-0.396677,-0.554381,-0.461940,-0.441342,-0.495722,-0.315263,-0.495722,-0.250000,-0.500000,-0.250000,-0.500000,0.250000,-0.495722,0.250000,-0.495722,0.315263,-0.461940,0.441342,-0.396677,0.554381,-0.304381,0.646677,-0.191342,0.711940,-0.065263,0.745722,0.000000,0.745722,
0.000000,0.750000,0.500000,0.750000,0.500000,-0.750000,0.500000,-0.750000,$1*%
%AMFreePoly1*
4,1,23,0.000000,0.745722,0.065263,0.745722,0.191342,0.711940,0.304381,0.646677,0.396677,0.554381,0.461940,0.441342,0.495722,0.315263,0.495722,0.250000,0.500000,0.250000,0.500000,-0.250000,0.495722,-0.250000,0.495722,-0.315263,0.461940,-0.441342,0.396677,-0.554381,0.304381,-0.646677,0.191342,-0.711940,0.065263,-0.745722,0.000000,-0.745722,0.000000,-0.750000,-0.500000,-0.750000,
-0.500000,0.750000,0.000000,0.750000,0.000000,0.745722,0.000000,0.745722,$1*%
%AMFreePoly2*
4,1,23,0.550000,-0.750000,0.000000,-0.750000,0.000000,-0.745722,-0.065263,-0.745722,-0.191342,-0.711940,-0.304381,-0.646677,-0.396677,-0.554381,-0.461940,-0.441342,-0.495722,-0.315263,-0.495722,-0.250000,-0.500000,-0.250000,-0.500000,0.250000,-0.495722,0.250000,-0.495722,0.315263,-0.461940,0.441342,-0.396677,0.554381,-0.304381,0.646677,-0.191342,0.711940,-0.065263,0.745722,0.000000,0.745722,
0.000000,0.750000,0.550000,0.750000,0.550000,-0.750000,0.550000,-0.750000,$1*%
%AMFreePoly3*
4,1,23,0.000000,0.745722,0.065263,0.745722,0.191342,0.711940,0.304381,0.646677,0.396677,0.554381,0.461940,0.441342,0.495722,0.315263,0.495722,0.250000,0.500000,0.250000,0.500000,-0.250000,0.495722,-0.250000,0.495722,-0.315263,0.461940,-0.441342,0.396677,-0.554381,0.304381,-0.646677,0.191342,-0.711940,0.065263,-0.745722,0.000000,-0.745722,0.000000,-0.750000,-0.550000,-0.750000,
-0.550000,0.750000,0.000000,0.750000,0.000000,0.745722,0.000000,0.745722,$1*%
G04 Aperture macros list end*
G04 #@! TA.AperFunction,ComponentPad*
%ADD10C,1.600000*%
G04 #@! TD*
G04 #@! TA.AperFunction,ComponentPad*
%ADD11RoundRect,0.487500X0.487500X0.487500X-0.487500X0.487500X-0.487500X-0.487500X0.487500X-0.487500X0*%
G04 #@! TD*
G04 #@! TA.AperFunction,ComponentPad*
%ADD12C,1.950000*%
G04 #@! TD*
G04 #@! TA.AperFunction,ComponentPad*
%ADD13RoundRect,0.450000X-0.450000X-0.450000X0.450000X-0.450000X0.450000X0.450000X-0.450000X0.450000X0*%
G04 #@! TD*
G04 #@! TA.AperFunction,ComponentPad*
%ADD14C,1.800000*%
G04 #@! TD*
G04 #@! TA.AperFunction,ComponentPad*
%ADD15RoundRect,0.487500X-0.487500X-0.487500X0.487500X-0.487500X0.487500X0.487500X-0.487500X0.487500X0*%
G04 #@! TD*
G04 #@! TA.AperFunction,ComponentPad*
%ADD16RoundRect,0.249999X-0.850001X-0.850001X0.850001X-0.850001X0.850001X0.850001X-0.850001X0.850001X0*%
G04 #@! TD*
G04 #@! TA.AperFunction,ComponentPad*
%ADD17C,2.200000*%
G04 #@! TD*
G04 #@! TA.AperFunction,SMDPad,CuDef*
%ADD18FreePoly0,90.000000*%
G04 #@! TD*
G04 #@! TA.AperFunction,SMDPad,CuDef*
%ADD19FreePoly1,90.000000*%
G04 #@! TD*
G04 #@! TA.AperFunction,ComponentPad*
%ADD20RoundRect,0.400000X-0.400000X-0.400000X0.400000X-0.400000X0.400000X0.400000X-0.400000X0.400000X0*%
G04 #@! TD*
G04 #@! TA.AperFunction,SMDPad,CuDef*
%ADD21FreePoly2,0.000000*%
G04 #@! TD*
G04 #@! TA.AperFunction,SMDPad,CuDef*
%ADD22R,1.000000X1.500000*%
G04 #@! TD*
G04 #@! TA.AperFunction,SMDPad,CuDef*
%ADD23FreePoly3,0.000000*%
G04 #@! TD*
G04 #@! TA.AperFunction,SMDPad,CuDef*
%ADD24RoundRect,0.150000X0.700000X-0.150000X0.700000X0.150000X-0.700000X0.150000X-0.700000X-0.150000X0*%
G04 #@! TD*
G04 #@! TA.AperFunction,SMDPad,CuDef*
%ADD25RoundRect,0.250000X1.150000X-0.250000X1.150000X0.250000X-1.150000X0.250000X-1.150000X-0.250000X0*%
G04 #@! TD*
G04 #@! TA.AperFunction,SMDPad,CuDef*
%ADD26RoundRect,0.150000X-0.825000X-0.150000X0.825000X-0.150000X0.825000X0.150000X-0.825000X0.150000X0*%
G04 #@! TD*
G04 #@! TA.AperFunction,ComponentPad*
%ADD27RoundRect,0.250000X-0.600000X-0.750000X0.600000X-0.750000X0.600000X0.750000X-0.600000X0.750000X0*%
G04 #@! TD*
G04 #@! TA.AperFunction,ComponentPad*
%ADD28O,1.700000X2.000000*%
G04 #@! TD*
G04 #@! TA.AperFunction,ComponentPad*
%ADD29RoundRect,0.250001X-0.949999X-0.949999X0.949999X-0.949999X0.949999X0.949999X-0.949999X0.949999X0*%
G04 #@! TD*
G04 #@! TA.AperFunction,ComponentPad*
%ADD30C,2.400000*%
G04 #@! TD*
G04 #@! TA.AperFunction,ViaPad*
%ADD31C,1.000000*%
G04 #@! TD*
G04 #@! TA.AperFunction,ViaPad*
%ADD32C,0.800000*%
G04 #@! TD*
G04 #@! TA.AperFunction,Conductor*
%ADD33C,0.500000*%
G04 #@! TD*
G04 #@! TA.AperFunction,Conductor*
%ADD34C,0.400000*%
G04 #@! TD*
G04 #@! TA.AperFunction,Conductor*
%ADD35C,0.250000*%
G04 #@! TD*
G04 APERTURE END LIST*
D10*
G04 #@! TO.P,C4,1*
G04 #@! TO.N,+5V*
X23300000Y-67000000D03*
G04 #@! TO.P,C4,2*
G04 #@! TO.N,GND*
X23300000Y-72000000D03*
G04 #@! TD*
G04 #@! TO.P,PF1,1*
G04 #@! TO.N,N/C*
X13000000Y-75600000D03*
G04 #@! TO.P,PF1,2*
X15540000Y-75600000D03*
G04 #@! TO.P,PF1,3*
X18080000Y-75600000D03*
G04 #@! TO.P,PF1,4*
X20620000Y-75600000D03*
G04 #@! TO.P,PF1,5*
X23160000Y-75600000D03*
G04 #@! TO.P,PF1,6*
X25700000Y-75600000D03*
G04 #@! TO.P,PF1,7*
X13000000Y-78140000D03*
G04 #@! TO.P,PF1,8*
X15540000Y-78140000D03*
G04 #@! TO.P,PF1,9*
X18080000Y-78140000D03*
G04 #@! TO.P,PF1,10*
X20620000Y-78140000D03*
G04 #@! TO.P,PF1,11*
X23160000Y-78140000D03*
G04 #@! TO.P,PF1,12*
X25700000Y-78140000D03*
G04 #@! TO.P,PF1,13*
X13000000Y-80680000D03*
G04 #@! TO.P,PF1,14*
X15540000Y-80680000D03*
G04 #@! TO.P,PF1,15*
X18080000Y-80680000D03*
G04 #@! TO.P,PF1,16*
X20620000Y-80680000D03*
G04 #@! TO.P,PF1,17*
X23160000Y-80680000D03*
G04 #@! TO.P,PF1,18*
X25700000Y-80680000D03*
G04 #@! TO.P,PF1,19*
X13000000Y-83220000D03*
G04 #@! TO.P,PF1,20*
X15540000Y-83220000D03*
G04 #@! TO.P,PF1,21*
X18080000Y-83220000D03*
G04 #@! TO.P,PF1,22*
X20620000Y-83220000D03*
G04 #@! TO.P,PF1,23*
X23160000Y-83220000D03*
G04 #@! TO.P,PF1,24*
X25700000Y-83220000D03*
G04 #@! TD*
D11*
G04 #@! TO.P,J3,1*
G04 #@! TO.N,ACR*
X8500000Y-81300000D03*
D12*
G04 #@! TO.P,J3,2*
G04 #@! TO.N,ACC*
X6000000Y-81300000D03*
G04 #@! TD*
D13*
G04 #@! TO.P,F1,1*
G04 #@! TO.N,ACR*
X15500000Y-44500000D03*
D14*
G04 #@! TO.P,F1,2*
G04 #@! TO.N,ACF*
X20580000Y-44500000D03*
G04 #@! TD*
D15*
G04 #@! TO.P,H1,1*
G04 #@! TO.N,VCC*
X5070000Y-3700000D03*
D12*
G04 #@! TO.P,H1,2*
G04 #@! TO.N,DATA*
X7570000Y-3700000D03*
G04 #@! TO.P,H1,3*
G04 #@! TO.N,GND*
X10070000Y-3700000D03*
G04 #@! TD*
D16*
G04 #@! TO.P,D1,1*
G04 #@! TO.N,VS*
X10000000Y-24950000D03*
D17*
G04 #@! TO.P,D1,2*
G04 #@! TO.N,ACF*
X20160000Y-24950000D03*
G04 #@! TD*
D16*
G04 #@! TO.P,D4,1*
G04 #@! TO.N,ACC*
X10000000Y-35450000D03*
D17*
G04 #@! TO.P,D4,2*
G04 #@! TO.N,COM*
X20160000Y-35450000D03*
G04 #@! TD*
D13*
G04 #@! TO.P,U3,1*
G04 #@! TO.N,COM*
X13110000Y-54040000D03*
D14*
G04 #@! TO.P,U3,2*
G04 #@! TO.N,VS*
X15650000Y-54040000D03*
G04 #@! TO.P,U3,3*
G04 #@! TO.N,N/C*
X18190000Y-54040000D03*
G04 #@! TO.P,U3,6*
G04 #@! TO.N,+5V*
X25810000Y-54040000D03*
G04 #@! TO.P,U3,7*
G04 #@! TO.N,GND*
X28350000Y-54040000D03*
G04 #@! TO.P,U3,8*
G04 #@! TO.N,N/C*
X30890000Y-54040000D03*
G04 #@! TD*
D18*
G04 #@! TO.P,JP1,1*
G04 #@! TO.N,GPIO4*
X11300000Y-15350000D03*
D19*
G04 #@! TO.P,JP1,2*
G04 #@! TO.N,DATA*
X11300000Y-14050000D03*
G04 #@! TD*
D16*
G04 #@! TO.P,D3,1*
G04 #@! TO.N,ACF*
X10000000Y-31950000D03*
D17*
G04 #@! TO.P,D3,2*
G04 #@! TO.N,COM*
X20160000Y-31950000D03*
G04 #@! TD*
D20*
G04 #@! TO.P,J2,1*
G04 #@! TO.N,VCC*
X35500000Y-68000000D03*
D10*
G04 #@! TO.P,J2,2*
G04 #@! TO.N,DATA*
X35500000Y-70540000D03*
G04 #@! TO.P,J2,3*
G04 #@! TO.N,GND*
X35500000Y-73080000D03*
G04 #@! TD*
G04 #@! TO.P,C2,1*
G04 #@! TO.N,VCC*
X30800000Y-10400000D03*
G04 #@! TO.P,C2,2*
G04 #@! TO.N,GND*
X35800000Y-10400000D03*
G04 #@! TD*
D15*
G04 #@! TO.P,H2,1*
G04 #@! TO.N,VCC*
X17770000Y-3700000D03*
D12*
G04 #@! TO.P,H2,2*
G04 #@! TO.N,DATA*
X20270000Y-3700000D03*
G04 #@! TO.P,H2,3*
G04 #@! TO.N,GND*
X22770000Y-3700000D03*
G04 #@! TD*
D21*
G04 #@! TO.P,JP2,1*
G04 #@! TO.N,DATA*
X21700000Y-15200000D03*
D22*
G04 #@! TO.P,JP2,2*
G04 #@! TO.N,H3_DATA*
X23000000Y-15200000D03*
D23*
G04 #@! TO.P,JP2,3*
G04 #@! TO.N,DATA_H3*
X24300000Y-15200000D03*
G04 #@! TD*
D24*
G04 #@! TO.P,J1,1*
G04 #@! TO.N,VCC*
X6250000Y-56250000D03*
G04 #@! TO.P,J1,2*
G04 #@! TO.N,SDA*
X6250000Y-55000000D03*
G04 #@! TO.P,J1,3*
G04 #@! TO.N,SCL*
X6250000Y-53750000D03*
G04 #@! TO.P,J1,4*
G04 #@! TO.N,GPIO4*
X6250000Y-52500000D03*
G04 #@! TO.P,J1,5*
G04 #@! TO.N,GND*
X6250000Y-51250000D03*
G04 #@! TO.P,J1,6*
G04 #@! TO.N,VS*
X6250000Y-50000000D03*
G04 #@! TO.P,J1,7*
G04 #@! TO.N,COM*
X6250000Y-48750000D03*
D25*
G04 #@! TO.P,J1,MP*
G04 #@! TO.N,N/C*
X2900000Y-58100000D03*
X2900000Y-46900000D03*
G04 #@! TD*
D15*
G04 #@! TO.P,H3,1*
G04 #@! TO.N,VCC*
X30470000Y-3700000D03*
D12*
G04 #@! TO.P,H3,2*
G04 #@! TO.N,H3_DATA*
X32970000Y-3700000D03*
G04 #@! TO.P,H3,3*
G04 #@! TO.N,GND*
X35470000Y-3700000D03*
G04 #@! TD*
D26*
G04 #@! TO.P,U2,1*
G04 #@! TO.N,VCC*
X31025000Y-13145000D03*
G04 #@! TO.P,U2,2*
G04 #@! TO.N,DATA_H3*
X31025000Y-14415000D03*
G04 #@! TO.P,U2,3*
G04 #@! TO.N,GND*
X31025000Y-15685000D03*
G04 #@! TO.P,U2,4*
G04 #@! TO.N,SCL*
X31025000Y-16955000D03*
G04 #@! TO.P,U2,5*
G04 #@! TO.N,SDA*
X35975000Y-16955000D03*
G04 #@! TO.P,U2,6*
G04 #@! TO.N,N/C*
X35975000Y-15685000D03*
G04 #@! TO.P,U2,7*
G04 #@! TO.N,GND*
X35975000Y-14415000D03*
G04 #@! TO.P,U2,8*
G04 #@! TO.N,VCC*
X35975000Y-13145000D03*
G04 #@! TD*
D10*
G04 #@! TO.P,R1,1*
G04 #@! TO.N,VCC*
X17820000Y-10800000D03*
G04 #@! TO.P,R1,2*
G04 #@! TO.N,DATA*
X27980000Y-10800000D03*
G04 #@! TD*
D16*
G04 #@! TO.P,D2,1*
G04 #@! TO.N,VS*
X10000000Y-28450000D03*
D17*
G04 #@! TO.P,D2,2*
G04 #@! TO.N,ACC*
X20160000Y-28450000D03*
G04 #@! TD*
D10*
G04 #@! TO.P,C1,1*
G04 #@! TO.N,VCC*
X9700000Y-11000000D03*
G04 #@! TO.P,C1,2*
G04 #@! TO.N,GND*
X14700000Y-11000000D03*
G04 #@! TD*
D27*
G04 #@! TO.P,J4,1*
G04 #@! TO.N,+5V*
X28000000Y-69200000D03*
D28*
G04 #@! TO.P,J4,2*
G04 #@! TO.N,GND*
X30500000Y-69200000D03*
G04 #@! TD*
D29*
G04 #@! TO.P,C3,1*
G04 #@! TO.N,VS*
X29000000Y-30000000D03*
D30*
G04 #@! TO.P,C3,2*
G04 #@! TO.N,COM*
X34000000Y-30000000D03*
G04 #@! TD*
D26*
G04 #@! TO.P,U1,1*
G04 #@! TO.N,VCC*
X2025000Y-10595000D03*
G04 #@! TO.P,U1,2*
G04 #@! TO.N,DATA*
X2025000Y-11865000D03*
G04 #@! TO.P,U1,3*
G04 #@! TO.N,GND*
X2025000Y-13135000D03*
G04 #@! TO.P,U1,4*
G04 #@! TO.N,SCL*
X2025000Y-14405000D03*
G04 #@! TO.P,U1,5*
G04 #@! TO.N,SDA*
X6975000Y-14405000D03*
G04 #@! TO.P,U1,6*
G04 #@! TO.N,N/C*
X6975000Y-13135000D03*
G04 #@! TO.P,U1,7*
G04 #@! TO.N,GND*
X6975000Y-11865000D03*
G04 #@! TO.P,U1,8*
X6975000Y-10595000D03*
G04 #@! TD*
D31*
G04 #@! TO.N,GND*
X33071400Y-14439900D03*
G04 #@! TO.N,ACC*
X6000000Y-57554500D03*
G04 #@! TO.N,VCC*
X32795000Y-59640200D03*
X8151700Y-55783800D03*
X7520100Y-47436000D03*
G04 #@! TO.N,VS*
X9108300Y-51811700D03*
D32*
G04 #@! TO.N,SDA*
X34392500Y-15988400D03*
X7218700Y-15737400D03*
G04 #@! TO.N,SCL*
X29437100Y-16896000D03*
X8632300Y-17214600D03*
G04 #@! TD*
G04 #@! TO.N,+5V*
D33*
X28000000Y-69200000D02*
X24550000Y-65750000D01*
X23300000Y-67000000D02*
X24550000Y-65750000D01*
X25810000Y-64490000D02*
X25810000Y-54040000D01*
X24550000Y-65750000D02*
X25810000Y-64490000D01*
G04 #@! TO.N,GND*
X33096300Y-14415000D02*
X33071400Y-14439900D01*
X33071300Y-14439900D02*
X33071400Y-14439900D01*
X4278300Y-11865000D02*
X6975000Y-11865000D01*
X6975000Y-6795000D02*
X10070000Y-3700000D01*
X28350000Y-54040000D02*
X30500000Y-56190000D01*
X35470000Y-10070000D02*
X35800000Y-10400000D01*
X32757900Y-15685000D02*
X31025000Y-15685000D01*
X32757900Y-15685000D02*
X32757900Y-17595700D01*
X10560500Y-59260500D02*
X10560500Y-55120800D01*
X6975000Y-10595000D02*
X6975000Y-6795000D01*
X10560500Y-55120800D02*
X7852300Y-52412600D01*
X7852300Y-51976200D02*
X7126100Y-51250000D01*
X35470000Y-3700000D02*
X35470000Y-10070000D01*
X3008300Y-13135000D02*
X4278300Y-11865000D01*
X32757900Y-17595700D02*
X31793300Y-18560300D01*
X32101700Y-69681700D02*
X35500000Y-73080000D01*
X31793300Y-50596700D02*
X28350000Y-54040000D01*
X32101700Y-69200000D02*
X32101700Y-69681700D01*
X6975000Y-11865000D02*
X6975000Y-10595000D01*
X2025000Y-13135000D02*
X3008300Y-13135000D01*
X31793300Y-18560300D02*
X31793300Y-50596700D01*
X7852300Y-52412600D02*
X7852300Y-51976200D01*
X23300000Y-72000000D02*
X10560500Y-59260500D01*
X30500000Y-56190000D02*
X30500000Y-69200000D01*
X35975000Y-14415000D02*
X33096300Y-14415000D01*
X33071300Y-15371600D02*
X33071300Y-14439900D01*
X7126100Y-51250000D02*
X6250000Y-51250000D01*
X32757900Y-15685000D02*
X33071300Y-15371600D01*
X30500000Y-69200000D02*
X32101700Y-69200000D01*
G04 #@! TO.N,ACR*
X21748300Y-50748300D02*
X21748300Y-67901500D01*
X8500000Y-77878800D02*
X8500000Y-81300000D01*
X21748300Y-67901500D02*
X24860100Y-71013300D01*
X15500000Y-44500000D02*
X21748300Y-50748300D01*
X24860100Y-72642000D02*
X23500500Y-74001600D01*
X12377200Y-74001600D02*
X8500000Y-77878800D01*
X23500500Y-74001600D02*
X12377200Y-74001600D01*
X24860100Y-71013300D02*
X24860100Y-72642000D01*
G04 #@! TO.N,ACC*
X6000000Y-81300000D02*
X6000000Y-57554500D01*
G04 #@! TO.N,ACF*
X22016500Y-43063500D02*
X20580000Y-44500000D01*
X22016500Y-26806500D02*
X22016500Y-43063500D01*
X20160000Y-24950000D02*
X22016500Y-26806500D01*
G04 #@! TO.N,VCC*
X7685500Y-56250000D02*
X8151700Y-55783800D01*
D34*
X31025000Y-13145000D02*
X35975000Y-13145000D01*
D33*
X35500000Y-62345200D02*
X35500000Y-68000000D01*
X30800000Y-11057500D02*
X30800000Y-10400000D01*
X2025000Y-10595000D02*
X2025000Y-6745000D01*
X32795000Y-59640200D02*
X35500000Y-62345200D01*
X32887500Y-13145000D02*
X30800000Y-11057500D01*
X7520100Y-47436000D02*
X7520100Y-22900000D01*
X17820000Y-12600100D02*
X17820000Y-10800000D01*
X17820000Y-3750000D02*
X17770000Y-3700000D01*
X2025000Y-6745000D02*
X5070000Y-3700000D01*
X6250000Y-56250000D02*
X7685500Y-56250000D01*
X7520100Y-22900000D02*
X17820000Y-12600100D01*
X17820000Y-10800000D02*
X17820000Y-3750000D01*
G04 #@! TO.N,DATA*
D35*
X21700000Y-15200000D02*
X21700000Y-5357700D01*
X5022100Y-6379800D02*
X5022100Y-9672200D01*
X25166500Y-5357700D02*
X28431400Y-2092800D01*
X37225000Y-11894500D02*
X37588500Y-12258000D01*
X37588500Y-68451500D02*
X35500000Y-70540000D01*
X7570000Y-3831900D02*
X5022100Y-6379800D01*
X28431400Y-2092800D02*
X36213300Y-2092800D01*
X5022100Y-9672200D02*
X2829300Y-11865000D01*
X12645700Y-2059100D02*
X11693800Y-3011000D01*
X20270000Y-3582800D02*
X18746300Y-2059100D01*
X21700000Y-5357700D02*
X25166500Y-5357700D01*
X2829300Y-11865000D02*
X2025000Y-11865000D01*
X21700000Y-5130000D02*
X20270000Y-3700000D01*
X7570000Y-3700000D02*
X7570000Y-3831900D01*
X37588500Y-12258000D02*
X37588500Y-68451500D01*
X18746300Y-2059100D02*
X12645700Y-2059100D01*
X10775600Y-2092800D02*
X9177200Y-2092800D01*
X31452000Y-8969100D02*
X34377400Y-11894500D01*
X37275700Y-3155200D02*
X37275700Y-11843800D01*
X9177200Y-2092800D02*
X7570000Y-3700000D01*
X36213300Y-2092800D02*
X37275700Y-3155200D01*
X11300000Y-14050000D02*
X11693800Y-13656200D01*
X11693800Y-13656200D02*
X11693800Y-3011000D01*
X11693800Y-3011000D02*
X10775600Y-2092800D01*
X20270000Y-3700000D02*
X20270000Y-3582800D01*
X27980000Y-10800000D02*
X29810900Y-8969100D01*
X34377400Y-11894500D02*
X37225000Y-11894500D01*
X29810900Y-8969100D02*
X31452000Y-8969100D01*
X21700000Y-5357700D02*
X21700000Y-5130000D01*
X37275700Y-11843800D02*
X37225000Y-11894500D01*
G04 #@! TO.N,VS*
D33*
X15650000Y-50301400D02*
X15650000Y-54040000D01*
X13761500Y-32211500D02*
X13761500Y-48412900D01*
X10000000Y-24950000D02*
X10000000Y-28450000D01*
X7296600Y-50000000D02*
X9108300Y-51811700D01*
X6250000Y-50000000D02*
X7296600Y-50000000D01*
X29000000Y-22900000D02*
X10000000Y-22900000D01*
X29000000Y-30000000D02*
X29000000Y-22900000D01*
X10000000Y-28450000D02*
X13761500Y-32211500D01*
X13761500Y-48412900D02*
X15650000Y-50301400D01*
X10000000Y-22900000D02*
X10000000Y-24950000D01*
G04 #@! TO.N,COM*
X13110000Y-54040000D02*
X7820000Y-48750000D01*
X7820000Y-48750000D02*
X6250000Y-48750000D01*
G04 #@! TO.N,GPIO4*
D35*
X4762900Y-24005900D02*
X11300000Y-17468800D01*
X11300000Y-17468800D02*
X11300000Y-15350000D01*
X4762900Y-51720200D02*
X4762900Y-24005900D01*
X6250000Y-52500000D02*
X5542700Y-52500000D01*
X5542700Y-52500000D02*
X4762900Y-51720200D01*
G04 #@! TO.N,H3_DATA*
X23000000Y-15200000D02*
X23000000Y-14123300D01*
X32970000Y-4153300D02*
X32970000Y-3700000D01*
X23000000Y-14123300D02*
X32970000Y-4153300D01*
G04 #@! TO.N,DATA_H3*
X31025000Y-14415000D02*
X25085000Y-14415000D01*
X25085000Y-14415000D02*
X24300000Y-15200000D01*
G04 #@! TO.N,SDA*
X5964000Y-55000000D02*
X6250000Y-55000000D01*
X7218700Y-15737400D02*
X716200Y-22239900D01*
X6975000Y-14405000D02*
X7218700Y-14648700D01*
X35359100Y-16955000D02*
X35975000Y-16955000D01*
X7218700Y-14648700D02*
X7218700Y-15737400D01*
X34392500Y-15988400D02*
X35359100Y-16955000D01*
X716200Y-22239900D02*
X716200Y-49752200D01*
X716200Y-49752200D02*
X5964000Y-55000000D01*
G04 #@! TO.N,SCL*
X4605700Y-13770000D02*
X3970700Y-14405000D01*
X1167900Y-48976300D02*
X1167900Y-24679000D01*
X8632300Y-14409000D02*
X7993300Y-13770000D01*
X5941600Y-53750000D02*
X1167900Y-48976300D01*
X8632300Y-17214600D02*
X8632300Y-14409000D01*
X3970700Y-14405000D02*
X2025000Y-14405000D01*
X6250000Y-53750000D02*
X5941600Y-53750000D01*
X7993300Y-13770000D02*
X4605700Y-13770000D01*
X29437100Y-16896000D02*
X30966000Y-16896000D01*
X1167900Y-24679000D02*
X8632300Y-17214600D01*
X30966000Y-16896000D02*
X31025000Y-16955000D01*
G04 #@! TD*
M02*
