G04 #@! TF.GenerationSoftware,KiCad,Pcbnew,10.0.6*
G04 #@! TF.CreationDate,2026-09-27T00:39:32-04:00*
G04 #@! TF.ProjectId,ext-board,6578742d-626f-4617-9264-2e6b69636164,rev?*
G04 #@! TF.SameCoordinates,Original*
G04 #@! TF.FileFunction,Legend,Bot*
G04 #@! TF.FilePolarity,Positive*
%FSLAX46Y46*%
G04 Gerber Fmt 4.6, Leading zero omitted, Abs format (unit mm)*
G04 Created by KiCad (PCBNEW 10.0.6) date 2026-09-27 00:39:32*
%MOMM*%
%LPD*%
G01*
G04 APERTURE LIST*
G04 Aperture macros list*
%AMRoundRect*
0 Rectangle with rounded corners*
0 $1 Rounding radius*
0 $2 $3 $4 $5 $6 $7 $8 $9 X,Y pos of 4 corners*
0 Add a 4 corners polygon primitive as box body*
4,1,4,$2,$3,$4,$5,$6,$7,$8,$9,$2,$3,0*
0 Add four circle primitives for the rounded corners*
1,1,$1+$1,$2,$3*
1,1,$1+$1,$4,$5*
1,1,$1+$1,$6,$7*
1,1,$1+$1,$8,$9*
0 Add four rect primitives between the rounded corners*
20,1,$1+$1,$2,$3,$4,$5,0*
20,1,$1+$1,$4,$5,$6,$7,0*
20,1,$1+$1,$6,$7,$8,$9,0*
20,1,$1+$1,$8,$9,$2,$3,0*%
G04 Aperture macros list end*
%ADD10C,0.100000*%
%ADD11RoundRect,0.487500X-0.487500X-0.487500X0.487500X-0.487500X0.487500X0.487500X-0.487500X0.487500X0*%
%ADD12C,1.950000*%
%ADD13C,1.600000*%
%ADD14O,1.200000X2.400000*%
%ADD15RoundRect,0.249999X-0.850001X-0.850001X0.850001X-0.850001X0.850001X0.850001X-0.850001X0.850001X0*%
%ADD16C,2.200000*%
%ADD17RoundRect,0.450000X-0.450000X-0.450000X0.450000X-0.450000X0.450000X0.450000X-0.450000X0.450000X0*%
%ADD18C,1.800000*%
%ADD19RoundRect,0.250000X-0.600000X-0.750000X0.600000X-0.750000X0.600000X0.750000X-0.600000X0.750000X0*%
%ADD20O,1.700000X2.000000*%
%ADD21RoundRect,0.400000X-0.400000X-0.400000X0.400000X-0.400000X0.400000X0.400000X-0.400000X0.400000X0*%
%ADD22RoundRect,0.487500X0.487500X0.487500X-0.487500X0.487500X-0.487500X-0.487500X0.487500X-0.487500X0*%
%ADD23RoundRect,0.250001X-0.949999X-0.949999X0.949999X-0.949999X0.949999X0.949999X-0.949999X0.949999X0*%
%ADD24C,2.400000*%
G04 APERTURE END LIST*
D10*
X0Y-18110000D02*
X38500000Y-18110000D01*
X0Y-22310000D02*
X38500000Y-22310000D01*
X0Y-61290000D02*
X38500000Y-61290000D01*
X0Y-65489999D02*
X38500000Y-65489999D01*
%LPC*%
D11*
G04 #@! TO.C,H2*
X17770000Y-3700000D03*
D12*
X20270000Y-3700000D03*
X22770000Y-3700000D03*
G04 #@! TD*
D13*
G04 #@! TO.C,R1*
X17820000Y-10800000D03*
X27980000Y-10800000D03*
G04 #@! TD*
D11*
G04 #@! TO.C,H3*
X30470000Y-3700000D03*
D12*
X32970000Y-3700000D03*
X35470000Y-3700000D03*
G04 #@! TD*
D13*
G04 #@! TO.C,C1*
X9700000Y-11000000D03*
X14700000Y-11000000D03*
G04 #@! TD*
G04 #@! TO.C,C2*
X30800000Y-10400000D03*
X35800000Y-10400000D03*
G04 #@! TD*
D14*
G04 #@! TO.C,TS1*
X28700000Y-75600000D03*
X32500000Y-75600000D03*
G04 #@! TD*
D15*
G04 #@! TO.C,D1*
X10000000Y-24950000D03*
D16*
X20160000Y-24950000D03*
G04 #@! TD*
D17*
G04 #@! TO.C,U3*
X13110000Y-54040000D03*
D18*
X15650000Y-54040000D03*
X18190000Y-54040000D03*
X25810000Y-54040000D03*
X28350000Y-54040000D03*
X30890000Y-54040000D03*
G04 #@! TD*
D15*
G04 #@! TO.C,D4*
X10000000Y-35450000D03*
D16*
X20160000Y-35450000D03*
G04 #@! TD*
D19*
G04 #@! TO.C,J4*
X28000000Y-69200000D03*
D20*
X30500000Y-69200000D03*
G04 #@! TD*
D21*
G04 #@! TO.C,J2*
X35500000Y-68000000D03*
D13*
X35500000Y-70540000D03*
X35500000Y-73080000D03*
G04 #@! TD*
D11*
G04 #@! TO.C,H1*
X5070000Y-3700000D03*
D12*
X7570000Y-3700000D03*
X10070000Y-3700000D03*
G04 #@! TD*
D15*
G04 #@! TO.C,D3*
X10000000Y-31950000D03*
D16*
X20160000Y-31950000D03*
G04 #@! TD*
D13*
G04 #@! TO.C,PF1*
X13000000Y-75600000D03*
X15540000Y-75600000D03*
X18080000Y-75600000D03*
X20620000Y-75600000D03*
X23160000Y-75600000D03*
X25700000Y-75600000D03*
X13000000Y-78140000D03*
X15540000Y-78140000D03*
X18080000Y-78140000D03*
X20620000Y-78140000D03*
X23160000Y-78140000D03*
X25700000Y-78140000D03*
X13000000Y-80680000D03*
X15540000Y-80680000D03*
X18080000Y-80680000D03*
X20620000Y-80680000D03*
X23160000Y-80680000D03*
X25700000Y-80680000D03*
X13000000Y-83220000D03*
X15540000Y-83220000D03*
X18080000Y-83220000D03*
X20620000Y-83220000D03*
X23160000Y-83220000D03*
X25700000Y-83220000D03*
G04 #@! TD*
D22*
G04 #@! TO.C,J3*
X8500000Y-81300000D03*
D12*
X6000000Y-81300000D03*
G04 #@! TD*
D15*
G04 #@! TO.C,D2*
X10000000Y-28450000D03*
D16*
X20160000Y-28450000D03*
G04 #@! TD*
D13*
G04 #@! TO.C,C4*
X23300000Y-67000000D03*
X23300000Y-72000000D03*
G04 #@! TD*
D23*
G04 #@! TO.C,C3*
X29000000Y-30000000D03*
D24*
X34000000Y-30000000D03*
G04 #@! TD*
D17*
G04 #@! TO.C,F1*
X15500000Y-44500000D03*
D18*
X20580000Y-44500000D03*
G04 #@! TD*
%LPD*%
M02*
