%TF.GenerationSoftware,KiCad,Pcbnew,10.0.6*%
%TF.CreationDate,2026-09-12T11:27:56-04:00*%
%TF.ProjectId,ext-board,6578742d-626f-4617-9264-2e6b69636164,rev?*%
%TF.SameCoordinates,Original*%
%TF.FileFunction,Copper,L1,Top*%
%TF.FilePolarity,Positive*%
%FSLAX46Y46*%
G04 Gerber Fmt 4.6, Leading zero omitted, Abs format (unit mm)*
G04 Created by KiCad (PCBNEW 10.0.6) date 2026-09-12 11:27:56*
%MOMM*%
%LPD*%
G01*
G04 APERTURE LIST*
G04 Aperture macros list*
%AMRoundRect*
0 Rectangle with rounded corners*
0 $1 Rounding radius*
0 $2 $3 $4 $5 $6 $7 $8 $9 X,Y pos of 4 corners*
0 Add a 4 corners polygon primitive as box body*
4,1,4,$2,$3,$4,$5,$6,$7,$8,$9,$2,$3,0*
0 Add four circle primitives for the rounded corners*
1,1,$1+$1,$2,$3*
1,1,$1+$1,$4,$5*
1,1,$1+$1,$6,$7*
1,1,$1+$1,$8,$9*
0 Add four rect primitives between the rounded corners*
20,1,$1+$1,$2,$3,$4,$5,0*
20,1,$1+$1,$4,$5,$6,$7,0*
20,1,$1+$1,$6,$7,$8,$9,0*
20,1,$1+$1,$8,$9,$2,$3,0*%
%AMFreePoly0*
4,1,23,0.500000,-0.750000,0.000000,-0.750000,0.000000,-0.745722,-0.065263,-0.745722,-0.191342,-0.711940,-0.304381,-0.646677,-0.396677,-0.554381,-0.461940,-0.441342,-0.495722,-0.315263,-0.495722,-0.250000,-0.500000,-0.250000,-0.500000,0.250000,-0.495722,0.250000,-0.495722,0.315263,-0.461940,0.441342,-0.396677,0.554381,-0.304381,0.646677,-0.191342,0.711940,-0.065263,0.745722,0.000000,0.745722,
0.000000,0.750000,0.500000,0.750000,0.500000,-0.750000,0.500000,-0.750000,$1*%
%AMFreePoly1*
4,1,23,0.000000,0.745722,0.065263,0.745722,0.191342,0.711940,0.304381,0.646677,0.396677,0.554381,0.461940,0.441342,0.495722,0.315263,0.495722,0.250000,0.500000,0.250000,0.500000,-0.250000,0.495722,-0.250000,0.495722,-0.315263,0.461940,-0.441342,0.396677,-0.554381,0.304381,-0.646677,0.191342,-0.711940,0.065263,-0.745722,0.000000,-0.745722,0.000000,-0.750000,-0.500000,-0.750000,
-0.500000,0.750000,0.000000,0.750000,0.000000,0.745722,0.000000,0.745722,$1*%
%AMFreePoly2*
4,1,23,0.550000,-0.750000,0.000000,-0.750000,0.000000,-0.745722,-0.065263,-0.745722,-0.191342,-0.711940,-0.304381,-0.646677,-0.396677,-0.554381,-0.461940,-0.441342,-0.495722,-0.315263,-0.495722,-0.250000,-0.500000,-0.250000,-0.500000,0.250000,-0.495722,0.250000,-0.495722,0.315263,-0.461940,0.441342,-0.396677,0.554381,-0.304381,0.646677,-0.191342,0.711940,-0.065263,0.745722,0.000000,0.745722,
0.000000,0.750000,0.550000,0.750000,0.550000,-0.750000,0.550000,-0.750000,$1*%
%AMFreePoly3*
4,1,23,0.000000,0.745722,0.065263,0.745722,0.191342,0.711940,0.304381,0.646677,0.396677,0.554381,0.461940,0.441342,0.495722,0.315263,0.495722,0.250000,0.500000,0.250000,0.500000,-0.250000,0.495722,-0.250000,0.495722,-0.315263,0.461940,-0.441342,0.396677,-0.554381,0.304381,-0.646677,0.191342,-0.711940,0.065263,-0.745722,0.000000,-0.745722,0.000000,-0.750000,-0.550000,-0.750000,
-0.550000,0.750000,0.000000,0.750000,0.000000,0.745722,0.000000,0.745722,$1*%
G04 Aperture macros list end*
%TA.AperFunction,ComponentPad*%
%ADD10C,1.600000*%
%TD*%
%TA.AperFunction,ComponentPad*%
%ADD11RoundRect,0.487500X0.487500X0.487500X-0.487500X0.487500X-0.487500X-0.487500X0.487500X-0.487500X0*%
%TD*%
%TA.AperFunction,ComponentPad*%
%ADD12C,1.950000*%
%TD*%
%TA.AperFunction,ComponentPad*%
%ADD13RoundRect,0.400000X-0.400000X-0.400000X0.400000X-0.400000X0.400000X0.400000X-0.400000X0.400000X0*%
%TD*%
%TA.AperFunction,SMDPad,CuDef*%
%ADD14RoundRect,0.150000X-0.825000X-0.150000X0.825000X-0.150000X0.825000X0.150000X-0.825000X0.150000X0*%
%TD*%
%TA.AperFunction,ComponentPad*%
%ADD15RoundRect,0.487500X-0.487500X-0.487500X0.487500X-0.487500X0.487500X0.487500X-0.487500X0.487500X0*%
%TD*%
%TA.AperFunction,SMDPad,CuDef*%
%ADD16FreePoly0,90.000000*%
%TD*%
%TA.AperFunction,SMDPad,CuDef*%
%ADD17FreePoly1,90.000000*%
%TD*%
%TA.AperFunction,SMDPad,CuDef*%
%ADD18FreePoly2,0.000000*%
%TD*%
%TA.AperFunction,SMDPad,CuDef*%
%ADD19R,1.000000X1.500000*%
%TD*%
%TA.AperFunction,SMDPad,CuDef*%
%ADD20FreePoly3,0.000000*%
%TD*%
%TA.AperFunction,ViaPad*%
%ADD21C,1.000000*%
%TD*%
%TA.AperFunction,ViaPad*%
%ADD22C,0.800000*%
%TD*%
%TA.AperFunction,Conductor*%
%ADD23C,0.500000*%
%TD*%
%TA.AperFunction,Conductor*%
%ADD24C,0.250000*%
%TD*%
%ADD25C,0.350000*%
G04 APERTURE END LIST*
D10*
%TO.P,R1,1*%
%TO.N,VCC*%
X22000000Y-16300000D03*
%TO.P,R1,2*%
%TO.N,DATA*%
X32160000Y-16300000D03*
%TD*%
D11*
%TO.P,J1,1*%
%TO.N,VCC*%
X30350000Y-44340000D03*
D12*
%TO.P,J1,2*%
%TO.N,SDA*%
X27850000Y-44340000D03*
%TO.P,J1,3*%
%TO.N,SCL*%
X25350000Y-44340000D03*
%TO.P,J1,4*%
%TO.N,GPIO4*%
X22850000Y-44340000D03*
%TO.P,J1,5*%
%TO.N,GND*%
X20350000Y-44340000D03*
%TD*%
D13*
%TO.P,J2,1*%
%TO.N,VCC*%
X35500000Y-68000000D03*
D10*
%TO.P,J2,2*%
%TO.N,DATA*%
X35500000Y-70540000D03*
%TO.P,J2,3*%
%TO.N,GND*%
X35500000Y-73080000D03*
%TD*%
D14*
%TO.P,U2,1*%
%TO.N,VCC*%
X27525000Y-28095000D03*
%TO.P,U2,2*%
%TO.N,DATA_H3*%
X27525000Y-29365000D03*
%TO.P,U2,3*%
%TO.N,GND*%
X27525000Y-30635000D03*
%TO.P,U2,4*%
%TO.N,SCL*%
X27525000Y-31905000D03*
%TO.P,U2,5*%
%TO.N,SDA*%
X32475000Y-31905000D03*
%TO.P,U2,6*%
%TO.N,N/C*%
X32475000Y-30635000D03*
%TO.P,U2,7*%
%TO.N,GND*%
X32475000Y-29365000D03*
%TO.P,U2,8*%
%TO.N,VCC*%
X32475000Y-28095000D03*
%TD*%
D15*
%TO.P,H1,1*%
%TO.N,VCC*%
X5070000Y-3700000D03*
D12*
%TO.P,H1,2*%
%TO.N,DATA*%
X7570000Y-3700000D03*
%TO.P,H1,3*%
%TO.N,GND*%
X10070000Y-3700000D03*
%TD*%
D10*
%TO.P,C1,1*%
%TO.N,VCC*%
X20500000Y-11000000D03*
%TO.P,C1,2*%
%TO.N,GND*%
X25500000Y-11000000D03*
%TD*%
D14*
%TO.P,U1,1*%
%TO.N,VCC*%
X8525000Y-10595000D03*
%TO.P,U1,2*%
%TO.N,DATA*%
X8525000Y-11865000D03*
%TO.P,U1,3*%
%TO.N,GND*%
X8525000Y-13135000D03*
%TO.P,U1,4*%
%TO.N,SCL*%
X8525000Y-14405000D03*
%TO.P,U1,5*%
%TO.N,SDA*%
X13475000Y-14405000D03*
%TO.P,U1,6*%
%TO.N,N/C*%
X13475000Y-13135000D03*
%TO.P,U1,7*%
%TO.N,GND*%
X13475000Y-11865000D03*
%TO.P,U1,8*%
X13475000Y-10595000D03*
%TD*%
D16*
%TO.P,JP1,1*%
%TO.N,GPIO4*%
X34500000Y-15150000D03*
D17*
%TO.P,JP1,2*%
%TO.N,DATA*%
X34500000Y-13850000D03*
%TD*%
D10*
%TO.P,C2,1*%
%TO.N,VCC*%
X30000000Y-37500000D03*
%TO.P,C2,2*%
%TO.N,GND*%
X35000000Y-37500000D03*
%TD*%
%TO.P,PF1,1*%
%TO.N,N/C*%
X5300000Y-68000000D03*
%TO.P,PF1,2*%
X7840000Y-68000000D03*
%TO.P,PF1,3*%
X10380000Y-68000000D03*
%TO.P,PF1,4*%
X12920000Y-68000000D03*
%TO.P,PF1,5*%
X15460000Y-68000000D03*
%TO.P,PF1,6*%
X18000000Y-68000000D03*
%TO.P,PF1,7*%
X20540000Y-68000000D03*
%TO.P,PF1,8*%
X23080000Y-68000000D03*
%TO.P,PF1,9*%
X25620000Y-68000000D03*
%TO.P,PF1,10*%
X28160000Y-68000000D03*
%TO.P,PF1,11*%
X30700000Y-68000000D03*
%TO.P,PF1,12*%
X5300000Y-70540000D03*
%TO.P,PF1,13*%
X7840000Y-70540000D03*
%TO.P,PF1,14*%
X10380000Y-70540000D03*
%TO.P,PF1,15*%
X12920000Y-70540000D03*
%TO.P,PF1,16*%
X15460000Y-70540000D03*
%TO.P,PF1,17*%
X18000000Y-70540000D03*
%TO.P,PF1,18*%
X20540000Y-70540000D03*
%TO.P,PF1,19*%
X23080000Y-70540000D03*
%TO.P,PF1,20*%
X25620000Y-70540000D03*
%TO.P,PF1,21*%
X28160000Y-70540000D03*
%TO.P,PF1,22*%
X30700000Y-70540000D03*
%TO.P,PF1,23*%
X5300000Y-73080000D03*
%TO.P,PF1,24*%
X7840000Y-73080000D03*
%TO.P,PF1,25*%
X10380000Y-73080000D03*
%TO.P,PF1,26*%
X12920000Y-73080000D03*
%TO.P,PF1,27*%
X15460000Y-73080000D03*
%TO.P,PF1,28*%
X18000000Y-73080000D03*
%TO.P,PF1,29*%
X20540000Y-73080000D03*
%TO.P,PF1,30*%
X23080000Y-73080000D03*
%TO.P,PF1,31*%
X25620000Y-73080000D03*
%TO.P,PF1,32*%
X28160000Y-73080000D03*
%TO.P,PF1,33*%
X30700000Y-73080000D03*
%TO.P,PF1,34*%
X5300000Y-75620000D03*
%TO.P,PF1,35*%
X7840000Y-75620000D03*
%TO.P,PF1,36*%
X10380000Y-75620000D03*
%TO.P,PF1,37*%
X12920000Y-75620000D03*
%TO.P,PF1,38*%
X15460000Y-75620000D03*
%TO.P,PF1,39*%
X18000000Y-75620000D03*
%TO.P,PF1,40*%
X20540000Y-75620000D03*
%TO.P,PF1,41*%
X23080000Y-75620000D03*
%TO.P,PF1,42*%
X25620000Y-75620000D03*
%TO.P,PF1,43*%
X28160000Y-75620000D03*
%TO.P,PF1,44*%
X30700000Y-75620000D03*
%TO.P,PF1,45*%
X5300000Y-78160000D03*
%TO.P,PF1,46*%
X7840000Y-78160000D03*
%TO.P,PF1,47*%
X10380000Y-78160000D03*
%TO.P,PF1,48*%
X12920000Y-78160000D03*
%TO.P,PF1,49*%
X15460000Y-78160000D03*
%TO.P,PF1,50*%
X18000000Y-78160000D03*
%TO.P,PF1,51*%
X20540000Y-78160000D03*
%TO.P,PF1,52*%
X23080000Y-78160000D03*
%TO.P,PF1,53*%
X25620000Y-78160000D03*
%TO.P,PF1,54*%
X28160000Y-78160000D03*
%TO.P,PF1,55*%
X30700000Y-78160000D03*
%TO.P,PF1,56*%
X5300000Y-80700000D03*
%TO.P,PF1,57*%
X7840000Y-80700000D03*
%TO.P,PF1,58*%
X10380000Y-80700000D03*
%TO.P,PF1,59*%
X12920000Y-80700000D03*
%TO.P,PF1,60*%
X15460000Y-80700000D03*
%TO.P,PF1,61*%
X18000000Y-80700000D03*
%TO.P,PF1,62*%
X20540000Y-80700000D03*
%TO.P,PF1,63*%
X23080000Y-80700000D03*
%TO.P,PF1,64*%
X25620000Y-80700000D03*
%TO.P,PF1,65*%
X28160000Y-80700000D03*
%TO.P,PF1,66*%
X30700000Y-80700000D03*
%TD*%
D15*
%TO.P,H3,1*%
%TO.N,VCC*%
X30470000Y-3700000D03*
D12*
%TO.P,H3,2*%
%TO.N,H3_DATA*%
X32970000Y-3700000D03*
%TO.P,H3,3*%
%TO.N,GND*%
X35470000Y-3700000D03*
%TD*%
D15*
%TO.P,H2,1*%
%TO.N,VCC*%
X17770000Y-3700000D03*
D12*
%TO.P,H2,2*%
%TO.N,DATA*%
X20270000Y-3700000D03*
%TO.P,H2,3*%
%TO.N,GND*%
X22770000Y-3700000D03*
%TD*%
D18*
%TO.P,JP2,1*%
%TO.N,DATA*%
X20700000Y-29000000D03*
D19*
%TO.P,JP2,2*%
%TO.N,H3_DATA*%
X22000000Y-29000000D03*
D20*
%TO.P,JP2,3*%
%TO.N,DATA_H3*%
X23300000Y-29000000D03*
%TD*%
D21*
%TO.N,VCC*%
X35500000Y-56990200D03*
D22*
%TO.N,DATA*%
X37254200Y-16749800D03*
%TO.N,GPIO4*%
X34500000Y-28245300D03*
%TD*%
%TO.N,VCC*%
D23*
X5070000Y-7140000D02*
X8525000Y-10595000D01*
X30350000Y-44340000D02*
X30350000Y-37850000D01*
X27525000Y-21825000D02*
X22000000Y-16300000D01*
X30000000Y-37500000D02*
X30000000Y-29896200D01*
X27525000Y-28095000D02*
X28198800Y-28095000D01*
X22000000Y-16300000D02*
X22000000Y-12500000D01*
X27525000Y-28095000D02*
X27525000Y-21825000D01*
X21835000Y-12335000D02*
X20500000Y-11000000D01*
X35500000Y-68000000D02*
X35500000Y-56990200D01*
X21835000Y-12335000D02*
X30470000Y-3700000D01*
X5070000Y-3700000D02*
X5070000Y-7140000D01*
X30350000Y-37850000D02*
X30000000Y-37500000D01*
X28198800Y-28095000D02*
X30000000Y-29896200D01*
X30000000Y-29896200D02*
X31801200Y-28095000D01*
X22000000Y-12500000D02*
X21835000Y-12335000D01*
X31801200Y-28095000D02*
X32475000Y-28095000D01*
%TO.N,DATA*%
D24*
X18813900Y-27113900D02*
X20700000Y-29000000D01*
X7570000Y-3700000D02*
X9904400Y-6034400D01*
X37254200Y-68785800D02*
X35500000Y-70540000D01*
X8995300Y-11865000D02*
X8525000Y-11865000D01*
X9904400Y-10955900D02*
X8995300Y-11865000D01*
X20270000Y-3700000D02*
X18813900Y-5156100D01*
X9904400Y-6034400D02*
X9904400Y-10955900D01*
X34076900Y-13850000D02*
X32160000Y-15766900D01*
X32160000Y-15766900D02*
X32160000Y-16300000D01*
X18813900Y-5156100D02*
X18813900Y-27113900D01*
X37254200Y-16749800D02*
X37254200Y-68785800D01*
X34500000Y-13850000D02*
X34076900Y-13850000D01*
%TO.N,SDA*%
X32475000Y-44482400D02*
X31259700Y-45697700D01*
X13475000Y-14405000D02*
X16845000Y-17775000D01*
X29207700Y-45697700D02*
X27850000Y-44340000D01*
X31259700Y-45697700D02*
X29207700Y-45697700D01*
X16845000Y-17775000D02*
X16845000Y-43425100D01*
X19571800Y-46151900D02*
X26038100Y-46151900D01*
X32475000Y-31905000D02*
X32475000Y-44482400D01*
X16845000Y-43425100D02*
X19571800Y-46151900D01*
X26038100Y-46151900D02*
X27850000Y-44340000D01*
%TO.N,SCL*%
X10810100Y-13770000D02*
X14503600Y-13770000D01*
X25350000Y-34080000D02*
X25350000Y-44340000D01*
X17348300Y-43249800D02*
X19790200Y-45691700D01*
X23998300Y-45691700D02*
X25350000Y-44340000D01*
X14503600Y-13770000D02*
X17348300Y-16614700D01*
X10175100Y-14405000D02*
X10810100Y-13770000D01*
X17348300Y-16614700D02*
X17348300Y-43249800D01*
X19790200Y-45691700D02*
X23998300Y-45691700D01*
X27525000Y-31905000D02*
X25350000Y-34080000D01*
X8525000Y-14405000D02*
X10175100Y-14405000D01*
%TO.N,GPIO4*%
X34500000Y-15150000D02*
X34500000Y-28245300D01*
%TO.N,GND*%
D23*
X35470000Y-3700000D02*
X35470000Y-11000000D01*
X26862700Y-30635000D02*
X27525000Y-30635000D01*
X34191200Y-71771200D02*
X35500000Y-73080000D01*
X10365700Y-3995700D02*
X10070000Y-3700000D01*
X12792600Y-11865000D02*
X11522600Y-13135000D01*
X13475000Y-3995700D02*
X10365700Y-3995700D01*
X35768400Y-11298400D02*
X35470000Y-11000000D01*
X35000000Y-29365000D02*
X32475000Y-29365000D01*
X22770000Y-3700000D02*
X21283300Y-2213300D01*
X35000000Y-37500000D02*
X35000000Y-29365000D01*
X35000000Y-29365000D02*
X35768400Y-28596600D01*
X20350000Y-44340000D02*
X20350000Y-37147700D01*
X20350000Y-37147700D02*
X26862700Y-30635000D01*
X35470000Y-11000000D02*
X25500000Y-11000000D01*
X13475000Y-11865000D02*
X12792600Y-11865000D01*
X21283300Y-2213300D02*
X15257400Y-2213300D01*
X15257400Y-2213300D02*
X13475000Y-3995700D01*
X35000000Y-37500000D02*
X34191200Y-38308800D01*
X34191200Y-38308800D02*
X34191200Y-71771200D01*
X13475000Y-10595000D02*
X13475000Y-11865000D01*
X13475000Y-3995700D02*
X13475000Y-10595000D01*
X35768400Y-28596600D02*
X35768400Y-11298400D01*
X11522600Y-13135000D02*
X8525000Y-13135000D01*
%TO.N,DATA_H3*%
D24*
X23300000Y-29000000D02*
X27160000Y-29000000D01*
X27160000Y-29000000D02*
X27525000Y-29365000D01*
%TO.N,H3_DATA*%
X31588100Y-2318100D02*
X27475900Y-2318100D01*
X21373300Y-17606300D02*
X21373300Y-17608500D01*
X19321900Y-10472100D02*
X19321900Y-15554900D01*
X19321900Y-15554900D02*
X21373300Y-17606300D01*
X32970000Y-3700000D02*
X31588100Y-2318100D01*
X22000000Y-18235200D02*
X22000000Y-29000000D01*
X21373300Y-17608500D02*
X22000000Y-18235200D01*
X27475900Y-2318100D02*
X19321900Y-10472100D01*
%TD*%
D25*
X35500000Y-56990200D03*
X37254200Y-16749800D03*
X34500000Y-28245300D03*
X22000000Y-16300000D03*
X32160000Y-16300000D03*
X30350000Y-44340000D03*
X27850000Y-44340000D03*
X25350000Y-44340000D03*
X22850000Y-44340000D03*
X20350000Y-44340000D03*
X35500000Y-68000000D03*
X35500000Y-70540000D03*
X35500000Y-73080000D03*
X5070000Y-3700000D03*
X7570000Y-3700000D03*
X10070000Y-3700000D03*
X20500000Y-11000000D03*
X25500000Y-11000000D03*
X30000000Y-37500000D03*
X35000000Y-37500000D03*
X5300000Y-68000000D03*
X7840000Y-68000000D03*
X10380000Y-68000000D03*
X12920000Y-68000000D03*
X15460000Y-68000000D03*
X18000000Y-68000000D03*
X20540000Y-68000000D03*
X23080000Y-68000000D03*
X25620000Y-68000000D03*
X28160000Y-68000000D03*
X30700000Y-68000000D03*
X5300000Y-70540000D03*
X7840000Y-70540000D03*
X10380000Y-70540000D03*
X12920000Y-70540000D03*
X15460000Y-70540000D03*
X18000000Y-70540000D03*
X20540000Y-70540000D03*
X23080000Y-70540000D03*
X25620000Y-70540000D03*
X28160000Y-70540000D03*
X30700000Y-70540000D03*
X5300000Y-73080000D03*
X7840000Y-73080000D03*
X10380000Y-73080000D03*
X12920000Y-73080000D03*
X15460000Y-73080000D03*
X18000000Y-73080000D03*
X20540000Y-73080000D03*
X23080000Y-73080000D03*
X25620000Y-73080000D03*
X28160000Y-73080000D03*
X30700000Y-73080000D03*
X5300000Y-75620000D03*
X7840000Y-75620000D03*
X10380000Y-75620000D03*
X12920000Y-75620000D03*
X15460000Y-75620000D03*
X18000000Y-75620000D03*
X20540000Y-75620000D03*
X23080000Y-75620000D03*
X25620000Y-75620000D03*
X28160000Y-75620000D03*
X30700000Y-75620000D03*
X5300000Y-78160000D03*
X7840000Y-78160000D03*
X10380000Y-78160000D03*
X12920000Y-78160000D03*
X15460000Y-78160000D03*
X18000000Y-78160000D03*
X20540000Y-78160000D03*
X23080000Y-78160000D03*
X25620000Y-78160000D03*
X28160000Y-78160000D03*
X30700000Y-78160000D03*
X5300000Y-80700000D03*
X7840000Y-80700000D03*
X10380000Y-80700000D03*
X12920000Y-80700000D03*
X15460000Y-80700000D03*
X18000000Y-80700000D03*
X20540000Y-80700000D03*
X23080000Y-80700000D03*
X25620000Y-80700000D03*
X28160000Y-80700000D03*
X30700000Y-80700000D03*
X30470000Y-3700000D03*
X32970000Y-3700000D03*
X35470000Y-3700000D03*
X17770000Y-3700000D03*
X20270000Y-3700000D03*
X22770000Y-3700000D03*
M02*
