M48
; DRILL file KiCad 10.0.6 date 2026-09-12T11:27:56
; FORMAT={-:-/ absolute / metric / decimal}
; #@! TF.CreationDate,2026-09-12T11:27:56-04:00
; #@! TF.GenerationSoftware,Kicad,Pcbnew,10.0.6
; #@! TF.FileFunction,MixedPlating,1,2
FMAT,2
METRIC
; #@! TA.AperFunction,Plated,PTH,ViaDrill
T1C0.400
; #@! TA.AperFunction,Plated,PTH,ViaDrill
T2C0.500
; #@! TA.AperFunction,Plated,PTH,ComponentDrill
T3C0.800
; #@! TA.AperFunction,Plated,PTH,ComponentDrill
T4C1.000
; #@! TA.AperFunction,Plated,PTH,ComponentDrill
T5C1.100
%
G90
G05
T1
X34.5Y-28.245
X37.254Y-16.75
T2
X35.5Y-56.99
T3
X20.5Y-11.0
X22.0Y-16.3
X25.5Y-11.0
X30.0Y-37.5
X32.16Y-16.3
X35.0Y-37.5
T4
X5.3Y-68.0
X5.3Y-70.54
X5.3Y-73.08
X5.3Y-75.62
X5.3Y-78.16
X5.3Y-80.7
X7.84Y-68.0
X7.84Y-70.54
X7.84Y-73.08
X7.84Y-75.62
X7.84Y-78.16
X7.84Y-80.7
X10.38Y-68.0
X10.38Y-70.54
X10.38Y-73.08
X10.38Y-75.62
X10.38Y-78.16
X10.38Y-80.7
X12.92Y-68.0
X12.92Y-70.54
X12.92Y-73.08
X12.92Y-75.62
X12.92Y-78.16
X12.92Y-80.7
X15.46Y-68.0
X15.46Y-70.54
X15.46Y-73.08
X15.46Y-75.62
X15.46Y-78.16
X15.46Y-80.7
X18.0Y-68.0
X18.0Y-70.54
X18.0Y-73.08
X18.0Y-75.62
X18.0Y-78.16
X18.0Y-80.7
X20.54Y-68.0
X20.54Y-70.54
X20.54Y-73.08
X20.54Y-75.62
X20.54Y-78.16
X20.54Y-80.7
X23.08Y-68.0
X23.08Y-70.54
X23.08Y-73.08
X23.08Y-75.62
X23.08Y-78.16
X23.08Y-80.7
X25.62Y-68.0
X25.62Y-70.54
X25.62Y-73.08
X25.62Y-75.62
X25.62Y-78.16
X25.62Y-80.7
X28.16Y-68.0
X28.16Y-70.54
X28.16Y-73.08
X28.16Y-75.62
X28.16Y-78.16
X28.16Y-80.7
X30.7Y-68.0
X30.7Y-70.54
X30.7Y-73.08
X30.7Y-75.62
X30.7Y-78.16
X30.7Y-80.7
X35.5Y-68.0
X35.5Y-70.54
X35.5Y-73.08
T5
X5.07Y-3.7
X7.57Y-3.7
X10.07Y-3.7
X17.77Y-3.7
X20.27Y-3.7
X20.35Y-44.34
X22.77Y-3.7
X22.85Y-44.34
X25.35Y-44.34
X27.85Y-44.34
X30.35Y-44.34
X30.47Y-3.7
X32.97Y-3.7
X35.47Y-3.7
M30
