G04 #@! TF.GenerationSoftware,KiCad,Pcbnew,10.0.6*
G04 #@! TF.CreationDate,2026-09-27T00:03:39-04:00*
G04 #@! TF.ProjectId,ext-board,6578742d-626f-4617-9264-2e6b69636164,rev?*
G04 #@! TF.SameCoordinates,Original*
G04 #@! TF.FileFunction,Legend,Top*
G04 #@! TF.FilePolarity,Positive*
%FSLAX46Y46*%
G04 Gerber Fmt 4.6, Leading zero omitted, Abs format (unit mm)*
G04 Created by KiCad (PCBNEW 10.0.6) date 2026-09-27 00:03:39*
%MOMM*%
%LPD*%
G01*
G04 APERTURE LIST*
G04 Aperture macros list*
%AMRoundRect*
0 Rectangle with rounded corners*
0 $1 Rounding radius*
0 $2 $3 $4 $5 $6 $7 $8 $9 X,Y pos of 4 corners*
0 Add a 4 corners polygon primitive as box body*
4,1,4,$2,$3,$4,$5,$6,$7,$8,$9,$2,$3,0*
0 Add four circle primitives for the rounded corners*
1,1,$1+$1,$2,$3*
1,1,$1+$1,$4,$5*
1,1,$1+$1,$6,$7*
1,1,$1+$1,$8,$9*
0 Add four rect primitives between the rounded corners*
20,1,$1+$1,$2,$3,$4,$5,0*
20,1,$1+$1,$4,$5,$6,$7,0*
20,1,$1+$1,$6,$7,$8,$9,0*
20,1,$1+$1,$8,$9,$2,$3,0*%
%AMFreePoly0*
4,1,23,0.500000,-0.750000,0.000000,-0.750000,0.000000,-0.745722,-0.065263,-0.745722,-0.191342,-0.711940,-0.304381,-0.646677,-0.396677,-0.554381,-0.461940,-0.441342,-0.495722,-0.315263,-0.495722,-0.250000,-0.500000,-0.250000,-0.500000,0.250000,-0.495722,0.250000,-0.495722,0.315263,-0.461940,0.441342,-0.396677,0.554381,-0.304381,0.646677,-0.191342,0.711940,-0.065263,0.745722,0.000000,0.745722,
0.000000,0.750000,0.500000,0.750000,0.500000,-0.750000,0.500000,-0.750000,$1*%
%AMFreePoly1*
4,1,23,0.000000,0.745722,0.065263,0.745722,0.191342,0.711940,0.304381,0.646677,0.396677,0.554381,0.461940,0.441342,0.495722,0.315263,0.495722,0.250000,0.500000,0.250000,0.500000,-0.250000,0.495722,-0.250000,0.495722,-0.315263,0.461940,-0.441342,0.396677,-0.554381,0.304381,-0.646677,0.191342,-0.711940,0.065263,-0.745722,0.000000,-0.745722,0.000000,-0.750000,-0.500000,-0.750000,
-0.500000,0.750000,0.000000,0.750000,0.000000,0.745722,0.000000,0.745722,$1*%
%AMFreePoly2*
4,1,23,0.550000,-0.750000,0.000000,-0.750000,0.000000,-0.745722,-0.065263,-0.745722,-0.191342,-0.711940,-0.304381,-0.646677,-0.396677,-0.554381,-0.461940,-0.441342,-0.495722,-0.315263,-0.495722,-0.250000,-0.500000,-0.250000,-0.500000,0.250000,-0.495722,0.250000,-0.495722,0.315263,-0.461940,0.441342,-0.396677,0.554381,-0.304381,0.646677,-0.191342,0.711940,-0.065263,0.745722,0.000000,0.745722,
0.000000,0.750000,0.550000,0.750000,0.550000,-0.750000,0.550000,-0.750000,$1*%
%AMFreePoly3*
4,1,23,0.000000,0.745722,0.065263,0.745722,0.191342,0.711940,0.304381,0.646677,0.396677,0.554381,0.461940,0.441342,0.495722,0.315263,0.495722,0.250000,0.500000,0.250000,0.500000,-0.250000,0.495722,-0.250000,0.495722,-0.315263,0.461940,-0.441342,0.396677,-0.554381,0.304381,-0.646677,0.191342,-0.711940,0.065263,-0.745722,0.000000,-0.745722,0.000000,-0.750000,-0.550000,-0.750000,
-0.550000,0.750000,0.000000,0.750000,0.000000,0.745722,0.000000,0.745722,$1*%
G04 Aperture macros list end*
%ADD10C,0.560000*%
%ADD11C,0.244999*%
%ADD12C,0.097500*%
%ADD13C,0.105000*%
%ADD14C,0.120000*%
%ADD15C,0.170000*%
%ADD16C,0.150000*%
%ADD17C,0.090000*%
%ADD18RoundRect,0.450000X-0.450000X-0.450000X0.450000X-0.450000X0.450000X0.450000X-0.450000X0.450000X0*%
%ADD19C,1.800000*%
%ADD20RoundRect,0.249999X-0.850001X-0.850001X0.850001X-0.850001X0.850001X0.850001X-0.850001X0.850001X0*%
%ADD21C,2.200000*%
%ADD22RoundRect,0.400000X-0.400000X-0.400000X0.400000X-0.400000X0.400000X0.400000X-0.400000X0.400000X0*%
%ADD23C,1.600000*%
%ADD24RoundRect,0.150000X-0.825000X-0.150000X0.825000X-0.150000X0.825000X0.150000X-0.825000X0.150000X0*%
%ADD25RoundRect,0.150000X0.700000X-0.150000X0.700000X0.150000X-0.700000X0.150000X-0.700000X-0.150000X0*%
%ADD26RoundRect,0.250000X1.150000X-0.250000X1.150000X0.250000X-1.150000X0.250000X-1.150000X-0.250000X0*%
%ADD27RoundRect,0.250001X-0.949999X-0.949999X0.949999X-0.949999X0.949999X0.949999X-0.949999X0.949999X0*%
%ADD28C,2.400000*%
%ADD29RoundRect,0.487500X-0.487500X-0.487500X0.487500X-0.487500X0.487500X0.487500X-0.487500X0.487500X0*%
%ADD30C,1.950000*%
%ADD31RoundRect,0.487500X0.487500X0.487500X-0.487500X0.487500X-0.487500X-0.487500X0.487500X-0.487500X0*%
%ADD32RoundRect,0.250000X-0.600000X-0.750000X0.600000X-0.750000X0.600000X0.750000X-0.600000X0.750000X0*%
%ADD33O,1.700000X2.000000*%
%ADD34FreePoly0,90.000000*%
%ADD35FreePoly1,90.000000*%
%ADD36O,1.200000X2.400000*%
%ADD37FreePoly2,0.000000*%
%ADD38R,1.000000X1.500000*%
%ADD39FreePoly3,0.000000*%
G04 APERTURE END LIST*
D10*
X29835000Y-38654999D02*
X29835000Y-40894999D01*
X29835000Y-38654999D02*
X30115000Y-38654999D01*
X29835000Y-40894999D02*
X30115000Y-40894999D01*
X30115000Y-38654999D02*
X30404877Y-38693163D01*
X30404877Y-38693163D02*
X30675000Y-38805051D01*
X30404877Y-40856836D02*
X30115000Y-40894999D01*
X30675000Y-38805051D02*
X30906959Y-38983040D01*
X30675000Y-40744948D02*
X30404877Y-40856836D01*
X30906959Y-38983040D02*
X31084948Y-39215000D01*
X30906959Y-40566959D02*
X30675000Y-40744948D01*
X31084948Y-39215000D02*
X31196836Y-39485122D01*
X31084948Y-40334999D02*
X30906959Y-40566959D01*
X31196836Y-39485122D02*
X31235000Y-39775000D01*
X31196836Y-40064877D02*
X31084948Y-40334999D01*
D11*
X34297500Y-40300000D02*
G75*
G02*
X28102500Y-40300000I-3097500J0D01*
G01*
X28102500Y-40300000D02*
G75*
G02*
X34297500Y-40300000I3097500J0D01*
G01*
D10*
X31235000Y-39775000D02*
X31196836Y-40064877D01*
X32040000Y-39550999D02*
X32040000Y-41791000D01*
X32040000Y-41791000D02*
X33040999Y-41791000D01*
D12*
X2999998Y-63262299D02*
X2999998Y-63912299D01*
X2999998Y-63293251D02*
X3061903Y-63262299D01*
X3061903Y-63262299D02*
X3185713Y-63262299D01*
X3185713Y-63262299D02*
X3247617Y-63293251D01*
X3247617Y-63293251D02*
X3278570Y-63324203D01*
X3278570Y-63324203D02*
X3309522Y-63386108D01*
X3309522Y-63386108D02*
X3309522Y-63571822D01*
X3309522Y-63571822D02*
X3278570Y-63633727D01*
X3278570Y-63633727D02*
X3247617Y-63664680D01*
X3247617Y-63664680D02*
X3185713Y-63695632D01*
X3185713Y-63695632D02*
X3061903Y-63695632D01*
X3061903Y-63695632D02*
X2999998Y-63664680D01*
X3588093Y-63695632D02*
X3588093Y-63262299D01*
X3588093Y-63045632D02*
X3557141Y-63076584D01*
X3557141Y-63076584D02*
X3588093Y-63107537D01*
X3588093Y-63107537D02*
X3619046Y-63076584D01*
X3619046Y-63076584D02*
X3588093Y-63045632D01*
X3588093Y-63045632D02*
X3588093Y-63107537D01*
X3835713Y-63262299D02*
X3990475Y-63695632D01*
X3990475Y-63695632D02*
X4145236Y-63262299D01*
X4671427Y-63695632D02*
X4671427Y-63355156D01*
X4671427Y-63355156D02*
X4640474Y-63293251D01*
X4640474Y-63293251D02*
X4578570Y-63262299D01*
X4578570Y-63262299D02*
X4454760Y-63262299D01*
X4454760Y-63262299D02*
X4392855Y-63293251D01*
X4671427Y-63664680D02*
X4609522Y-63695632D01*
X4609522Y-63695632D02*
X4454760Y-63695632D01*
X4454760Y-63695632D02*
X4392855Y-63664680D01*
X4392855Y-63664680D02*
X4361903Y-63602775D01*
X4361903Y-63602775D02*
X4361903Y-63540870D01*
X4361903Y-63540870D02*
X4392855Y-63478965D01*
X4392855Y-63478965D02*
X4454760Y-63448013D01*
X4454760Y-63448013D02*
X4609522Y-63448013D01*
X4609522Y-63448013D02*
X4671427Y-63417060D01*
X5259522Y-63664680D02*
X5197617Y-63695632D01*
X5197617Y-63695632D02*
X5073808Y-63695632D01*
X5073808Y-63695632D02*
X5011903Y-63664680D01*
X5011903Y-63664680D02*
X4980950Y-63633727D01*
X4980950Y-63633727D02*
X4949998Y-63571822D01*
X4949998Y-63571822D02*
X4949998Y-63386108D01*
X4949998Y-63386108D02*
X4980950Y-63324203D01*
X4980950Y-63324203D02*
X5011903Y-63293251D01*
X5011903Y-63293251D02*
X5073808Y-63262299D01*
X5073808Y-63262299D02*
X5197617Y-63262299D01*
X5197617Y-63262299D02*
X5259522Y-63293251D01*
X6033331Y-63355156D02*
X6249998Y-63355156D01*
X6342855Y-63695632D02*
X6033331Y-63695632D01*
X6033331Y-63695632D02*
X6033331Y-63045632D01*
X6033331Y-63045632D02*
X6342855Y-63045632D01*
X6559522Y-63045632D02*
X6992855Y-63695632D01*
X6992855Y-63045632D02*
X6559522Y-63695632D01*
X7147617Y-63045632D02*
X7519046Y-63045632D01*
X7333332Y-63695632D02*
X7333332Y-63045632D01*
X8230950Y-63695632D02*
X8230950Y-63262299D01*
X8230950Y-63386108D02*
X8261903Y-63324203D01*
X8261903Y-63324203D02*
X8292855Y-63293251D01*
X8292855Y-63293251D02*
X8354760Y-63262299D01*
X8354760Y-63262299D02*
X8416665Y-63262299D01*
X8880950Y-63664680D02*
X8819046Y-63695632D01*
X8819046Y-63695632D02*
X8695236Y-63695632D01*
X8695236Y-63695632D02*
X8633331Y-63664680D01*
X8633331Y-63664680D02*
X8602379Y-63602775D01*
X8602379Y-63602775D02*
X8602379Y-63355156D01*
X8602379Y-63355156D02*
X8633331Y-63293251D01*
X8633331Y-63293251D02*
X8695236Y-63262299D01*
X8695236Y-63262299D02*
X8819046Y-63262299D01*
X8819046Y-63262299D02*
X8880950Y-63293251D01*
X8880950Y-63293251D02*
X8911903Y-63355156D01*
X8911903Y-63355156D02*
X8911903Y-63417060D01*
X8911903Y-63417060D02*
X8602379Y-63478965D01*
X9128570Y-63262299D02*
X9283332Y-63695632D01*
X9283332Y-63695632D02*
X9438093Y-63262299D01*
X10397617Y-63355156D02*
X10490474Y-63386108D01*
X10490474Y-63386108D02*
X10521427Y-63417060D01*
X10521427Y-63417060D02*
X10552379Y-63478965D01*
X10552379Y-63478965D02*
X10552379Y-63571822D01*
X10552379Y-63571822D02*
X10521427Y-63633727D01*
X10521427Y-63633727D02*
X10490474Y-63664680D01*
X10490474Y-63664680D02*
X10428569Y-63695632D01*
X10428569Y-63695632D02*
X10180950Y-63695632D01*
X10180950Y-63695632D02*
X10180950Y-63045632D01*
X10180950Y-63045632D02*
X10397617Y-63045632D01*
X10397617Y-63045632D02*
X10459522Y-63076584D01*
X10459522Y-63076584D02*
X10490474Y-63107537D01*
X10490474Y-63107537D02*
X10521427Y-63169441D01*
X10521427Y-63169441D02*
X10521427Y-63231346D01*
X10521427Y-63231346D02*
X10490474Y-63293251D01*
X10490474Y-63293251D02*
X10459522Y-63324203D01*
X10459522Y-63324203D02*
X10397617Y-63355156D01*
X10397617Y-63355156D02*
X10180950Y-63355156D01*
X10830950Y-63633727D02*
X10861903Y-63664680D01*
X10861903Y-63664680D02*
X10830950Y-63695632D01*
X10830950Y-63695632D02*
X10799998Y-63664680D01*
X10799998Y-63664680D02*
X10830950Y-63633727D01*
X10830950Y-63633727D02*
X10830950Y-63695632D01*
X10830950Y-63293251D02*
X10861903Y-63324203D01*
X10861903Y-63324203D02*
X10830950Y-63355156D01*
X10830950Y-63355156D02*
X10799998Y-63324203D01*
X10799998Y-63324203D02*
X10830950Y-63293251D01*
X10830950Y-63293251D02*
X10830950Y-63355156D01*
X11604760Y-63107537D02*
X11635712Y-63076584D01*
X11635712Y-63076584D02*
X11697617Y-63045632D01*
X11697617Y-63045632D02*
X11852379Y-63045632D01*
X11852379Y-63045632D02*
X11914284Y-63076584D01*
X11914284Y-63076584D02*
X11945236Y-63107537D01*
X11945236Y-63107537D02*
X11976189Y-63169441D01*
X11976189Y-63169441D02*
X11976189Y-63231346D01*
X11976189Y-63231346D02*
X11945236Y-63324203D01*
X11945236Y-63324203D02*
X11573808Y-63695632D01*
X11573808Y-63695632D02*
X11976189Y-63695632D01*
X12533332Y-63262299D02*
X12533332Y-63695632D01*
X12378570Y-63014680D02*
X12223808Y-63478965D01*
X12223808Y-63478965D02*
X12626189Y-63478965D01*
X13276189Y-63045632D02*
X13492856Y-63695632D01*
X13492856Y-63695632D02*
X13709523Y-63045632D01*
X13895237Y-63509918D02*
X14204761Y-63509918D01*
X13833332Y-63695632D02*
X14049999Y-63045632D01*
X14049999Y-63045632D02*
X14266666Y-63695632D01*
X14854761Y-63633727D02*
X14823809Y-63664680D01*
X14823809Y-63664680D02*
X14730951Y-63695632D01*
X14730951Y-63695632D02*
X14669047Y-63695632D01*
X14669047Y-63695632D02*
X14576190Y-63664680D01*
X14576190Y-63664680D02*
X14514285Y-63602775D01*
X14514285Y-63602775D02*
X14483332Y-63540870D01*
X14483332Y-63540870D02*
X14452380Y-63417060D01*
X14452380Y-63417060D02*
X14452380Y-63324203D01*
X14452380Y-63324203D02*
X14483332Y-63200394D01*
X14483332Y-63200394D02*
X14514285Y-63138489D01*
X14514285Y-63138489D02*
X14576190Y-63076584D01*
X14576190Y-63076584D02*
X14669047Y-63045632D01*
X14669047Y-63045632D02*
X14730951Y-63045632D01*
X14730951Y-63045632D02*
X14823809Y-63076584D01*
X14823809Y-63076584D02*
X14854761Y-63107537D01*
X15628570Y-63695632D02*
X15628570Y-63262299D01*
X15628570Y-63045632D02*
X15597618Y-63076584D01*
X15597618Y-63076584D02*
X15628570Y-63107537D01*
X15628570Y-63107537D02*
X15659523Y-63076584D01*
X15659523Y-63076584D02*
X15628570Y-63045632D01*
X15628570Y-63045632D02*
X15628570Y-63107537D01*
X15938094Y-63262299D02*
X15938094Y-63695632D01*
X15938094Y-63324203D02*
X15969047Y-63293251D01*
X15969047Y-63293251D02*
X16030952Y-63262299D01*
X16030952Y-63262299D02*
X16123809Y-63262299D01*
X16123809Y-63262299D02*
X16185713Y-63293251D01*
X16185713Y-63293251D02*
X16216666Y-63355156D01*
X16216666Y-63355156D02*
X16216666Y-63695632D01*
X17207142Y-63045632D02*
X17207142Y-63509918D01*
X17207142Y-63509918D02*
X17176189Y-63602775D01*
X17176189Y-63602775D02*
X17114285Y-63664680D01*
X17114285Y-63664680D02*
X17021427Y-63695632D01*
X17021427Y-63695632D02*
X16959523Y-63695632D01*
X17454761Y-63045632D02*
X17857142Y-63045632D01*
X17857142Y-63045632D02*
X17640475Y-63293251D01*
X17640475Y-63293251D02*
X17733332Y-63293251D01*
X17733332Y-63293251D02*
X17795237Y-63324203D01*
X17795237Y-63324203D02*
X17826189Y-63355156D01*
X17826189Y-63355156D02*
X17857142Y-63417060D01*
X17857142Y-63417060D02*
X17857142Y-63571822D01*
X17857142Y-63571822D02*
X17826189Y-63633727D01*
X17826189Y-63633727D02*
X17795237Y-63664680D01*
X17795237Y-63664680D02*
X17733332Y-63695632D01*
X17733332Y-63695632D02*
X17547618Y-63695632D01*
X17547618Y-63695632D02*
X17485713Y-63664680D01*
X17485713Y-63664680D02*
X17454761Y-63633727D01*
X18166666Y-63664680D02*
X18166666Y-63695632D01*
X18166666Y-63695632D02*
X18135713Y-63757537D01*
X18135713Y-63757537D02*
X18104761Y-63788489D01*
X18847618Y-63045632D02*
X19064285Y-63695632D01*
X19064285Y-63695632D02*
X19280952Y-63045632D01*
X19466666Y-63664680D02*
X19559523Y-63695632D01*
X19559523Y-63695632D02*
X19714285Y-63695632D01*
X19714285Y-63695632D02*
X19776190Y-63664680D01*
X19776190Y-63664680D02*
X19807142Y-63633727D01*
X19807142Y-63633727D02*
X19838095Y-63571822D01*
X19838095Y-63571822D02*
X19838095Y-63509918D01*
X19838095Y-63509918D02*
X19807142Y-63448013D01*
X19807142Y-63448013D02*
X19776190Y-63417060D01*
X19776190Y-63417060D02*
X19714285Y-63386108D01*
X19714285Y-63386108D02*
X19590476Y-63355156D01*
X19590476Y-63355156D02*
X19528571Y-63324203D01*
X19528571Y-63324203D02*
X19497618Y-63293251D01*
X19497618Y-63293251D02*
X19466666Y-63231346D01*
X19466666Y-63231346D02*
X19466666Y-63169441D01*
X19466666Y-63169441D02*
X19497618Y-63107537D01*
X19497618Y-63107537D02*
X19528571Y-63076584D01*
X19528571Y-63076584D02*
X19590476Y-63045632D01*
X19590476Y-63045632D02*
X19745237Y-63045632D01*
X19745237Y-63045632D02*
X19838095Y-63076584D01*
X20580952Y-63014680D02*
X20023809Y-63850394D01*
X21169047Y-63633727D02*
X21138095Y-63664680D01*
X21138095Y-63664680D02*
X21045237Y-63695632D01*
X21045237Y-63695632D02*
X20983333Y-63695632D01*
X20983333Y-63695632D02*
X20890476Y-63664680D01*
X20890476Y-63664680D02*
X20828571Y-63602775D01*
X20828571Y-63602775D02*
X20797618Y-63540870D01*
X20797618Y-63540870D02*
X20766666Y-63417060D01*
X20766666Y-63417060D02*
X20766666Y-63324203D01*
X20766666Y-63324203D02*
X20797618Y-63200394D01*
X20797618Y-63200394D02*
X20828571Y-63138489D01*
X20828571Y-63138489D02*
X20890476Y-63076584D01*
X20890476Y-63076584D02*
X20983333Y-63045632D01*
X20983333Y-63045632D02*
X21045237Y-63045632D01*
X21045237Y-63045632D02*
X21138095Y-63076584D01*
X21138095Y-63076584D02*
X21169047Y-63107537D01*
X21571428Y-63045632D02*
X21695237Y-63045632D01*
X21695237Y-63045632D02*
X21757142Y-63076584D01*
X21757142Y-63076584D02*
X21819047Y-63138489D01*
X21819047Y-63138489D02*
X21849999Y-63262299D01*
X21849999Y-63262299D02*
X21849999Y-63478965D01*
X21849999Y-63478965D02*
X21819047Y-63602775D01*
X21819047Y-63602775D02*
X21757142Y-63664680D01*
X21757142Y-63664680D02*
X21695237Y-63695632D01*
X21695237Y-63695632D02*
X21571428Y-63695632D01*
X21571428Y-63695632D02*
X21509523Y-63664680D01*
X21509523Y-63664680D02*
X21447618Y-63602775D01*
X21447618Y-63602775D02*
X21416666Y-63478965D01*
X21416666Y-63478965D02*
X21416666Y-63262299D01*
X21416666Y-63262299D02*
X21447618Y-63138489D01*
X21447618Y-63138489D02*
X21509523Y-63076584D01*
X21509523Y-63076584D02*
X21571428Y-63045632D01*
X22128570Y-63695632D02*
X22128570Y-63045632D01*
X22128570Y-63045632D02*
X22345237Y-63509918D01*
X22345237Y-63509918D02*
X22561904Y-63045632D01*
X22561904Y-63045632D02*
X22561904Y-63695632D01*
X23459523Y-63695632D02*
X23397618Y-63664680D01*
X23397618Y-63664680D02*
X23366665Y-63633727D01*
X23366665Y-63633727D02*
X23335713Y-63571822D01*
X23335713Y-63571822D02*
X23335713Y-63386108D01*
X23335713Y-63386108D02*
X23366665Y-63324203D01*
X23366665Y-63324203D02*
X23397618Y-63293251D01*
X23397618Y-63293251D02*
X23459523Y-63262299D01*
X23459523Y-63262299D02*
X23552380Y-63262299D01*
X23552380Y-63262299D02*
X23614284Y-63293251D01*
X23614284Y-63293251D02*
X23645237Y-63324203D01*
X23645237Y-63324203D02*
X23676189Y-63386108D01*
X23676189Y-63386108D02*
X23676189Y-63571822D01*
X23676189Y-63571822D02*
X23645237Y-63633727D01*
X23645237Y-63633727D02*
X23614284Y-63664680D01*
X23614284Y-63664680D02*
X23552380Y-63695632D01*
X23552380Y-63695632D02*
X23459523Y-63695632D01*
X24233332Y-63262299D02*
X24233332Y-63695632D01*
X23954760Y-63262299D02*
X23954760Y-63602775D01*
X23954760Y-63602775D02*
X23985713Y-63664680D01*
X23985713Y-63664680D02*
X24047618Y-63695632D01*
X24047618Y-63695632D02*
X24140475Y-63695632D01*
X24140475Y-63695632D02*
X24202379Y-63664680D01*
X24202379Y-63664680D02*
X24233332Y-63633727D01*
X24449998Y-63262299D02*
X24697617Y-63262299D01*
X24542855Y-63045632D02*
X24542855Y-63602775D01*
X24542855Y-63602775D02*
X24573808Y-63664680D01*
X24573808Y-63664680D02*
X24635713Y-63695632D01*
X24635713Y-63695632D02*
X24697617Y-63695632D01*
X25595237Y-63045632D02*
X25595237Y-63509918D01*
X25595237Y-63509918D02*
X25564284Y-63602775D01*
X25564284Y-63602775D02*
X25502380Y-63664680D01*
X25502380Y-63664680D02*
X25409522Y-63695632D01*
X25409522Y-63695632D02*
X25347618Y-63695632D01*
X26245237Y-63695632D02*
X25873808Y-63695632D01*
X26059522Y-63695632D02*
X26059522Y-63045632D01*
X26059522Y-63045632D02*
X25997618Y-63138489D01*
X25997618Y-63138489D02*
X25935713Y-63200394D01*
X25935713Y-63200394D02*
X25873808Y-63231346D01*
X26523808Y-63633727D02*
X26554761Y-63664680D01*
X26554761Y-63664680D02*
X26523808Y-63695632D01*
X26523808Y-63695632D02*
X26492856Y-63664680D01*
X26492856Y-63664680D02*
X26523808Y-63633727D01*
X26523808Y-63633727D02*
X26523808Y-63695632D01*
X27111904Y-63045632D02*
X26988094Y-63045632D01*
X26988094Y-63045632D02*
X26926190Y-63076584D01*
X26926190Y-63076584D02*
X26895237Y-63107537D01*
X26895237Y-63107537D02*
X26833332Y-63200394D01*
X26833332Y-63200394D02*
X26802380Y-63324203D01*
X26802380Y-63324203D02*
X26802380Y-63571822D01*
X26802380Y-63571822D02*
X26833332Y-63633727D01*
X26833332Y-63633727D02*
X26864285Y-63664680D01*
X26864285Y-63664680D02*
X26926190Y-63695632D01*
X26926190Y-63695632D02*
X27049999Y-63695632D01*
X27049999Y-63695632D02*
X27111904Y-63664680D01*
X27111904Y-63664680D02*
X27142856Y-63633727D01*
X27142856Y-63633727D02*
X27173809Y-63571822D01*
X27173809Y-63571822D02*
X27173809Y-63417060D01*
X27173809Y-63417060D02*
X27142856Y-63355156D01*
X27142856Y-63355156D02*
X27111904Y-63324203D01*
X27111904Y-63324203D02*
X27049999Y-63293251D01*
X27049999Y-63293251D02*
X26926190Y-63293251D01*
X26926190Y-63293251D02*
X26864285Y-63324203D01*
X26864285Y-63324203D02*
X26833332Y-63355156D01*
X26833332Y-63355156D02*
X26802380Y-63417060D01*
X27916666Y-63014680D02*
X27359523Y-63850394D01*
X28071428Y-63045632D02*
X28504761Y-63045632D01*
X28504761Y-63045632D02*
X28226190Y-63695632D01*
X28783333Y-63664680D02*
X28783333Y-63695632D01*
X28783333Y-63695632D02*
X28752380Y-63757537D01*
X28752380Y-63757537D02*
X28721428Y-63788489D01*
X29866666Y-63045632D02*
X29557142Y-63045632D01*
X29557142Y-63045632D02*
X29526190Y-63355156D01*
X29526190Y-63355156D02*
X29557142Y-63324203D01*
X29557142Y-63324203D02*
X29619047Y-63293251D01*
X29619047Y-63293251D02*
X29773809Y-63293251D01*
X29773809Y-63293251D02*
X29835714Y-63324203D01*
X29835714Y-63324203D02*
X29866666Y-63355156D01*
X29866666Y-63355156D02*
X29897619Y-63417060D01*
X29897619Y-63417060D02*
X29897619Y-63571822D01*
X29897619Y-63571822D02*
X29866666Y-63633727D01*
X29866666Y-63633727D02*
X29835714Y-63664680D01*
X29835714Y-63664680D02*
X29773809Y-63695632D01*
X29773809Y-63695632D02*
X29619047Y-63695632D01*
X29619047Y-63695632D02*
X29557142Y-63664680D01*
X29557142Y-63664680D02*
X29526190Y-63633727D01*
X30176190Y-63633727D02*
X30207143Y-63664680D01*
X30207143Y-63664680D02*
X30176190Y-63695632D01*
X30176190Y-63695632D02*
X30145238Y-63664680D01*
X30145238Y-63664680D02*
X30176190Y-63633727D01*
X30176190Y-63633727D02*
X30176190Y-63695632D01*
X30826191Y-63695632D02*
X30454762Y-63695632D01*
X30640476Y-63695632D02*
X30640476Y-63045632D01*
X30640476Y-63045632D02*
X30578572Y-63138489D01*
X30578572Y-63138489D02*
X30516667Y-63200394D01*
X30516667Y-63200394D02*
X30454762Y-63231346D01*
X31507143Y-63045632D02*
X31723810Y-63695632D01*
X31723810Y-63695632D02*
X31940477Y-63045632D01*
X32745239Y-63695632D02*
X32683334Y-63664680D01*
X32683334Y-63664680D02*
X32652381Y-63633727D01*
X32652381Y-63633727D02*
X32621429Y-63571822D01*
X32621429Y-63571822D02*
X32621429Y-63386108D01*
X32621429Y-63386108D02*
X32652381Y-63324203D01*
X32652381Y-63324203D02*
X32683334Y-63293251D01*
X32683334Y-63293251D02*
X32745239Y-63262299D01*
X32745239Y-63262299D02*
X32838096Y-63262299D01*
X32838096Y-63262299D02*
X32900000Y-63293251D01*
X32900000Y-63293251D02*
X32930953Y-63324203D01*
X32930953Y-63324203D02*
X32961905Y-63386108D01*
X32961905Y-63386108D02*
X32961905Y-63571822D01*
X32961905Y-63571822D02*
X32930953Y-63633727D01*
X32930953Y-63633727D02*
X32900000Y-63664680D01*
X32900000Y-63664680D02*
X32838096Y-63695632D01*
X32838096Y-63695632D02*
X32745239Y-63695632D01*
X33519048Y-63262299D02*
X33519048Y-63695632D01*
X33240476Y-63262299D02*
X33240476Y-63602775D01*
X33240476Y-63602775D02*
X33271429Y-63664680D01*
X33271429Y-63664680D02*
X33333334Y-63695632D01*
X33333334Y-63695632D02*
X33426191Y-63695632D01*
X33426191Y-63695632D02*
X33488095Y-63664680D01*
X33488095Y-63664680D02*
X33519048Y-63633727D01*
X33735714Y-63262299D02*
X33983333Y-63262299D01*
X33828571Y-63045632D02*
X33828571Y-63602775D01*
X33828571Y-63602775D02*
X33859524Y-63664680D01*
X33859524Y-63664680D02*
X33921429Y-63695632D01*
X33921429Y-63695632D02*
X33983333Y-63695632D01*
X34880953Y-63045632D02*
X34880953Y-63509918D01*
X34880953Y-63509918D02*
X34850000Y-63602775D01*
X34850000Y-63602775D02*
X34788096Y-63664680D01*
X34788096Y-63664680D02*
X34695238Y-63695632D01*
X34695238Y-63695632D02*
X34633334Y-63695632D01*
X35469048Y-63262299D02*
X35469048Y-63695632D01*
X35314286Y-63014680D02*
X35159524Y-63478965D01*
X35159524Y-63478965D02*
X35561905Y-63478965D01*
D13*
X30200001Y-65018373D02*
X29866667Y-65018373D01*
X29866667Y-65018373D02*
X29833334Y-65351706D01*
X29833334Y-65351706D02*
X29866667Y-65318373D01*
X29866667Y-65318373D02*
X29933334Y-65285040D01*
X29933334Y-65285040D02*
X30100001Y-65285040D01*
X30100001Y-65285040D02*
X30166667Y-65318373D01*
X30166667Y-65318373D02*
X30200001Y-65351706D01*
X30200001Y-65351706D02*
X30233334Y-65418373D01*
X30233334Y-65418373D02*
X30233334Y-65585040D01*
X30233334Y-65585040D02*
X30200001Y-65651706D01*
X30200001Y-65651706D02*
X30166667Y-65685040D01*
X30166667Y-65685040D02*
X30100001Y-65718373D01*
X30100001Y-65718373D02*
X29933334Y-65718373D01*
X29933334Y-65718373D02*
X29866667Y-65685040D01*
X29866667Y-65685040D02*
X29833334Y-65651706D01*
X30433334Y-65018373D02*
X30666668Y-65718373D01*
X30666668Y-65718373D02*
X30900001Y-65018373D01*
X31800001Y-65018373D02*
X31933334Y-65018373D01*
X31933334Y-65018373D02*
X32000001Y-65051706D01*
X32000001Y-65051706D02*
X32066667Y-65118373D01*
X32066667Y-65118373D02*
X32100001Y-65251706D01*
X32100001Y-65251706D02*
X32100001Y-65485040D01*
X32100001Y-65485040D02*
X32066667Y-65618373D01*
X32066667Y-65618373D02*
X32000001Y-65685040D01*
X32000001Y-65685040D02*
X31933334Y-65718373D01*
X31933334Y-65718373D02*
X31800001Y-65718373D01*
X31800001Y-65718373D02*
X31733334Y-65685040D01*
X31733334Y-65685040D02*
X31666667Y-65618373D01*
X31666667Y-65618373D02*
X31633334Y-65485040D01*
X31633334Y-65485040D02*
X31633334Y-65251706D01*
X31633334Y-65251706D02*
X31666667Y-65118373D01*
X31666667Y-65118373D02*
X31733334Y-65051706D01*
X31733334Y-65051706D02*
X31800001Y-65018373D01*
X32400000Y-65018373D02*
X32400000Y-65585040D01*
X32400000Y-65585040D02*
X32433334Y-65651706D01*
X32433334Y-65651706D02*
X32466667Y-65685040D01*
X32466667Y-65685040D02*
X32533334Y-65718373D01*
X32533334Y-65718373D02*
X32666667Y-65718373D01*
X32666667Y-65718373D02*
X32733334Y-65685040D01*
X32733334Y-65685040D02*
X32766667Y-65651706D01*
X32766667Y-65651706D02*
X32800000Y-65585040D01*
X32800000Y-65585040D02*
X32800000Y-65018373D01*
X33033333Y-65018373D02*
X33433333Y-65018373D01*
X33233333Y-65718373D02*
X33233333Y-65018373D01*
X8868373Y-61200001D02*
X8868373Y-61533334D01*
X8868373Y-61533334D02*
X8168373Y-61533334D01*
X8868373Y-60966667D02*
X8168373Y-60966667D01*
X8868373Y-60633334D02*
X8168373Y-60633334D01*
X8168373Y-60633334D02*
X8868373Y-60233334D01*
X8868373Y-60233334D02*
X8168373Y-60233334D01*
X8868373Y-59900001D02*
X8168373Y-59900001D01*
X8868373Y-59500001D02*
X8468373Y-59800001D01*
X8168373Y-59500001D02*
X8568373Y-59900001D01*
X8868373Y-58300001D02*
X8868373Y-58700001D01*
X8868373Y-58500001D02*
X8168373Y-58500001D01*
X8168373Y-58500001D02*
X8268373Y-58566668D01*
X8268373Y-58566668D02*
X8335040Y-58633335D01*
X8335040Y-58633335D02*
X8368373Y-58700001D01*
X8501706Y-58000001D02*
X8501706Y-57466668D01*
X8701706Y-57466668D02*
X8701706Y-58000001D01*
X8168373Y-57200001D02*
X8168373Y-56766667D01*
X8168373Y-56766667D02*
X8435040Y-57000001D01*
X8435040Y-57000001D02*
X8435040Y-56900001D01*
X8435040Y-56900001D02*
X8468373Y-56833334D01*
X8468373Y-56833334D02*
X8501706Y-56800001D01*
X8501706Y-56800001D02*
X8568373Y-56766667D01*
X8568373Y-56766667D02*
X8735040Y-56766667D01*
X8735040Y-56766667D02*
X8801706Y-56800001D01*
X8801706Y-56800001D02*
X8835040Y-56833334D01*
X8835040Y-56833334D02*
X8868373Y-56900001D01*
X8868373Y-56900001D02*
X8868373Y-57100001D01*
X8868373Y-57100001D02*
X8835040Y-57166667D01*
X8835040Y-57166667D02*
X8801706Y-57200001D01*
X8168373Y-56566667D02*
X8868373Y-56333334D01*
X8868373Y-56333334D02*
X8168373Y-56100000D01*
X8168373Y-55933334D02*
X8168373Y-55500000D01*
X8168373Y-55500000D02*
X8435040Y-55733334D01*
X8435040Y-55733334D02*
X8435040Y-55633334D01*
X8435040Y-55633334D02*
X8468373Y-55566667D01*
X8468373Y-55566667D02*
X8501706Y-55533334D01*
X8501706Y-55533334D02*
X8568373Y-55500000D01*
X8568373Y-55500000D02*
X8735040Y-55500000D01*
X8735040Y-55500000D02*
X8801706Y-55533334D01*
X8801706Y-55533334D02*
X8835040Y-55566667D01*
X8835040Y-55566667D02*
X8868373Y-55633334D01*
X8868373Y-55633334D02*
X8868373Y-55833334D01*
X8868373Y-55833334D02*
X8835040Y-55900000D01*
X8835040Y-55900000D02*
X8801706Y-55933334D01*
X8235040Y-54700000D02*
X8201706Y-54666667D01*
X8201706Y-54666667D02*
X8168373Y-54600000D01*
X8168373Y-54600000D02*
X8168373Y-54433334D01*
X8168373Y-54433334D02*
X8201706Y-54366667D01*
X8201706Y-54366667D02*
X8235040Y-54333334D01*
X8235040Y-54333334D02*
X8301706Y-54300000D01*
X8301706Y-54300000D02*
X8368373Y-54300000D01*
X8368373Y-54300000D02*
X8468373Y-54333334D01*
X8468373Y-54333334D02*
X8868373Y-54733334D01*
X8868373Y-54733334D02*
X8868373Y-54300000D01*
X8501706Y-54000000D02*
X8501706Y-53466667D01*
X8701706Y-53466667D02*
X8701706Y-54000000D01*
X8835040Y-53166666D02*
X8868373Y-53066666D01*
X8868373Y-53066666D02*
X8868373Y-52900000D01*
X8868373Y-52900000D02*
X8835040Y-52833333D01*
X8835040Y-52833333D02*
X8801706Y-52800000D01*
X8801706Y-52800000D02*
X8735040Y-52766666D01*
X8735040Y-52766666D02*
X8668373Y-52766666D01*
X8668373Y-52766666D02*
X8601706Y-52800000D01*
X8601706Y-52800000D02*
X8568373Y-52833333D01*
X8568373Y-52833333D02*
X8535040Y-52900000D01*
X8535040Y-52900000D02*
X8501706Y-53033333D01*
X8501706Y-53033333D02*
X8468373Y-53100000D01*
X8468373Y-53100000D02*
X8435040Y-53133333D01*
X8435040Y-53133333D02*
X8368373Y-53166666D01*
X8368373Y-53166666D02*
X8301706Y-53166666D01*
X8301706Y-53166666D02*
X8235040Y-53133333D01*
X8235040Y-53133333D02*
X8201706Y-53100000D01*
X8201706Y-53100000D02*
X8168373Y-53033333D01*
X8168373Y-53033333D02*
X8168373Y-52866666D01*
X8168373Y-52866666D02*
X8201706Y-52766666D01*
X8868373Y-52466666D02*
X8168373Y-52466666D01*
X8168373Y-52466666D02*
X8168373Y-52299999D01*
X8168373Y-52299999D02*
X8201706Y-52199999D01*
X8201706Y-52199999D02*
X8268373Y-52133333D01*
X8268373Y-52133333D02*
X8335040Y-52099999D01*
X8335040Y-52099999D02*
X8468373Y-52066666D01*
X8468373Y-52066666D02*
X8568373Y-52066666D01*
X8568373Y-52066666D02*
X8701706Y-52099999D01*
X8701706Y-52099999D02*
X8768373Y-52133333D01*
X8768373Y-52133333D02*
X8835040Y-52199999D01*
X8835040Y-52199999D02*
X8868373Y-52299999D01*
X8868373Y-52299999D02*
X8868373Y-52466666D01*
X8668373Y-51799999D02*
X8668373Y-51466666D01*
X8868373Y-51866666D02*
X8168373Y-51633333D01*
X8168373Y-51633333D02*
X8868373Y-51399999D01*
X8168373Y-50700000D02*
X8168373Y-50266666D01*
X8168373Y-50266666D02*
X8435040Y-50500000D01*
X8435040Y-50500000D02*
X8435040Y-50400000D01*
X8435040Y-50400000D02*
X8468373Y-50333333D01*
X8468373Y-50333333D02*
X8501706Y-50300000D01*
X8501706Y-50300000D02*
X8568373Y-50266666D01*
X8568373Y-50266666D02*
X8735040Y-50266666D01*
X8735040Y-50266666D02*
X8801706Y-50300000D01*
X8801706Y-50300000D02*
X8835040Y-50333333D01*
X8835040Y-50333333D02*
X8868373Y-50400000D01*
X8868373Y-50400000D02*
X8868373Y-50600000D01*
X8868373Y-50600000D02*
X8835040Y-50666666D01*
X8835040Y-50666666D02*
X8801706Y-50700000D01*
X8501706Y-49966666D02*
X8501706Y-49433333D01*
X8701706Y-49433333D02*
X8701706Y-49966666D01*
X8835040Y-49133332D02*
X8868373Y-49033332D01*
X8868373Y-49033332D02*
X8868373Y-48866666D01*
X8868373Y-48866666D02*
X8835040Y-48799999D01*
X8835040Y-48799999D02*
X8801706Y-48766666D01*
X8801706Y-48766666D02*
X8735040Y-48733332D01*
X8735040Y-48733332D02*
X8668373Y-48733332D01*
X8668373Y-48733332D02*
X8601706Y-48766666D01*
X8601706Y-48766666D02*
X8568373Y-48799999D01*
X8568373Y-48799999D02*
X8535040Y-48866666D01*
X8535040Y-48866666D02*
X8501706Y-48999999D01*
X8501706Y-48999999D02*
X8468373Y-49066666D01*
X8468373Y-49066666D02*
X8435040Y-49099999D01*
X8435040Y-49099999D02*
X8368373Y-49133332D01*
X8368373Y-49133332D02*
X8301706Y-49133332D01*
X8301706Y-49133332D02*
X8235040Y-49099999D01*
X8235040Y-49099999D02*
X8201706Y-49066666D01*
X8201706Y-49066666D02*
X8168373Y-48999999D01*
X8168373Y-48999999D02*
X8168373Y-48833332D01*
X8168373Y-48833332D02*
X8201706Y-48733332D01*
X8801706Y-48033332D02*
X8835040Y-48066665D01*
X8835040Y-48066665D02*
X8868373Y-48166665D01*
X8868373Y-48166665D02*
X8868373Y-48233332D01*
X8868373Y-48233332D02*
X8835040Y-48333332D01*
X8835040Y-48333332D02*
X8768373Y-48399999D01*
X8768373Y-48399999D02*
X8701706Y-48433332D01*
X8701706Y-48433332D02*
X8568373Y-48466665D01*
X8568373Y-48466665D02*
X8468373Y-48466665D01*
X8468373Y-48466665D02*
X8335040Y-48433332D01*
X8335040Y-48433332D02*
X8268373Y-48399999D01*
X8268373Y-48399999D02*
X8201706Y-48333332D01*
X8201706Y-48333332D02*
X8168373Y-48233332D01*
X8168373Y-48233332D02*
X8168373Y-48166665D01*
X8168373Y-48166665D02*
X8201706Y-48066665D01*
X8201706Y-48066665D02*
X8235040Y-48033332D01*
X8868373Y-47399999D02*
X8868373Y-47733332D01*
X8868373Y-47733332D02*
X8168373Y-47733332D01*
X8401706Y-46333332D02*
X8868373Y-46333332D01*
X8135040Y-46499999D02*
X8635040Y-46666665D01*
X8635040Y-46666665D02*
X8635040Y-46233332D01*
X8501706Y-45966665D02*
X8501706Y-45433332D01*
X8701706Y-45433332D02*
X8701706Y-45966665D01*
X8201706Y-44733331D02*
X8168373Y-44799998D01*
X8168373Y-44799998D02*
X8168373Y-44899998D01*
X8168373Y-44899998D02*
X8201706Y-44999998D01*
X8201706Y-44999998D02*
X8268373Y-45066665D01*
X8268373Y-45066665D02*
X8335040Y-45099998D01*
X8335040Y-45099998D02*
X8468373Y-45133331D01*
X8468373Y-45133331D02*
X8568373Y-45133331D01*
X8568373Y-45133331D02*
X8701706Y-45099998D01*
X8701706Y-45099998D02*
X8768373Y-45066665D01*
X8768373Y-45066665D02*
X8835040Y-44999998D01*
X8835040Y-44999998D02*
X8868373Y-44899998D01*
X8868373Y-44899998D02*
X8868373Y-44833331D01*
X8868373Y-44833331D02*
X8835040Y-44733331D01*
X8835040Y-44733331D02*
X8801706Y-44699998D01*
X8801706Y-44699998D02*
X8568373Y-44699998D01*
X8568373Y-44699998D02*
X8568373Y-44833331D01*
X8868373Y-44399998D02*
X8168373Y-44399998D01*
X8168373Y-44399998D02*
X8168373Y-44133331D01*
X8168373Y-44133331D02*
X8201706Y-44066665D01*
X8201706Y-44066665D02*
X8235040Y-44033331D01*
X8235040Y-44033331D02*
X8301706Y-43999998D01*
X8301706Y-43999998D02*
X8401706Y-43999998D01*
X8401706Y-43999998D02*
X8468373Y-44033331D01*
X8468373Y-44033331D02*
X8501706Y-44066665D01*
X8501706Y-44066665D02*
X8535040Y-44133331D01*
X8535040Y-44133331D02*
X8535040Y-44399998D01*
X8868373Y-43699998D02*
X8168373Y-43699998D01*
X8168373Y-43233332D02*
X8168373Y-43099998D01*
X8168373Y-43099998D02*
X8201706Y-43033332D01*
X8201706Y-43033332D02*
X8268373Y-42966665D01*
X8268373Y-42966665D02*
X8401706Y-42933332D01*
X8401706Y-42933332D02*
X8635040Y-42933332D01*
X8635040Y-42933332D02*
X8768373Y-42966665D01*
X8768373Y-42966665D02*
X8835040Y-43033332D01*
X8835040Y-43033332D02*
X8868373Y-43099998D01*
X8868373Y-43099998D02*
X8868373Y-43233332D01*
X8868373Y-43233332D02*
X8835040Y-43299998D01*
X8835040Y-43299998D02*
X8768373Y-43366665D01*
X8768373Y-43366665D02*
X8635040Y-43399998D01*
X8635040Y-43399998D02*
X8401706Y-43399998D01*
X8401706Y-43399998D02*
X8268373Y-43366665D01*
X8268373Y-43366665D02*
X8201706Y-43299998D01*
X8201706Y-43299998D02*
X8168373Y-43233332D01*
X8401706Y-42333332D02*
X8868373Y-42333332D01*
X8135040Y-42499999D02*
X8635040Y-42666665D01*
X8635040Y-42666665D02*
X8635040Y-42233332D01*
X8168373Y-41099999D02*
X8168373Y-41433332D01*
X8168373Y-41433332D02*
X8501706Y-41466665D01*
X8501706Y-41466665D02*
X8468373Y-41433332D01*
X8468373Y-41433332D02*
X8435040Y-41366665D01*
X8435040Y-41366665D02*
X8435040Y-41199999D01*
X8435040Y-41199999D02*
X8468373Y-41133332D01*
X8468373Y-41133332D02*
X8501706Y-41099999D01*
X8501706Y-41099999D02*
X8568373Y-41066665D01*
X8568373Y-41066665D02*
X8735040Y-41066665D01*
X8735040Y-41066665D02*
X8801706Y-41099999D01*
X8801706Y-41099999D02*
X8835040Y-41133332D01*
X8835040Y-41133332D02*
X8868373Y-41199999D01*
X8868373Y-41199999D02*
X8868373Y-41366665D01*
X8868373Y-41366665D02*
X8835040Y-41433332D01*
X8835040Y-41433332D02*
X8801706Y-41466665D01*
X8501706Y-40766665D02*
X8501706Y-40233332D01*
X8701706Y-40233332D02*
X8701706Y-40766665D01*
X8201706Y-39533331D02*
X8168373Y-39599998D01*
X8168373Y-39599998D02*
X8168373Y-39699998D01*
X8168373Y-39699998D02*
X8201706Y-39799998D01*
X8201706Y-39799998D02*
X8268373Y-39866665D01*
X8268373Y-39866665D02*
X8335040Y-39899998D01*
X8335040Y-39899998D02*
X8468373Y-39933331D01*
X8468373Y-39933331D02*
X8568373Y-39933331D01*
X8568373Y-39933331D02*
X8701706Y-39899998D01*
X8701706Y-39899998D02*
X8768373Y-39866665D01*
X8768373Y-39866665D02*
X8835040Y-39799998D01*
X8835040Y-39799998D02*
X8868373Y-39699998D01*
X8868373Y-39699998D02*
X8868373Y-39633331D01*
X8868373Y-39633331D02*
X8835040Y-39533331D01*
X8835040Y-39533331D02*
X8801706Y-39499998D01*
X8801706Y-39499998D02*
X8568373Y-39499998D01*
X8568373Y-39499998D02*
X8568373Y-39633331D01*
X8868373Y-39199998D02*
X8168373Y-39199998D01*
X8168373Y-39199998D02*
X8868373Y-38799998D01*
X8868373Y-38799998D02*
X8168373Y-38799998D01*
X8868373Y-38466665D02*
X8168373Y-38466665D01*
X8168373Y-38466665D02*
X8168373Y-38299998D01*
X8168373Y-38299998D02*
X8201706Y-38199998D01*
X8201706Y-38199998D02*
X8268373Y-38133332D01*
X8268373Y-38133332D02*
X8335040Y-38099998D01*
X8335040Y-38099998D02*
X8468373Y-38066665D01*
X8468373Y-38066665D02*
X8568373Y-38066665D01*
X8568373Y-38066665D02*
X8701706Y-38099998D01*
X8701706Y-38099998D02*
X8768373Y-38133332D01*
X8768373Y-38133332D02*
X8835040Y-38199998D01*
X8835040Y-38199998D02*
X8868373Y-38299998D01*
X8868373Y-38299998D02*
X8868373Y-38466665D01*
X8168373Y-36933332D02*
X8168373Y-37066665D01*
X8168373Y-37066665D02*
X8201706Y-37133332D01*
X8201706Y-37133332D02*
X8235040Y-37166665D01*
X8235040Y-37166665D02*
X8335040Y-37233332D01*
X8335040Y-37233332D02*
X8468373Y-37266665D01*
X8468373Y-37266665D02*
X8735040Y-37266665D01*
X8735040Y-37266665D02*
X8801706Y-37233332D01*
X8801706Y-37233332D02*
X8835040Y-37199999D01*
X8835040Y-37199999D02*
X8868373Y-37133332D01*
X8868373Y-37133332D02*
X8868373Y-36999999D01*
X8868373Y-36999999D02*
X8835040Y-36933332D01*
X8835040Y-36933332D02*
X8801706Y-36899999D01*
X8801706Y-36899999D02*
X8735040Y-36866665D01*
X8735040Y-36866665D02*
X8568373Y-36866665D01*
X8568373Y-36866665D02*
X8501706Y-36899999D01*
X8501706Y-36899999D02*
X8468373Y-36933332D01*
X8468373Y-36933332D02*
X8435040Y-36999999D01*
X8435040Y-36999999D02*
X8435040Y-37133332D01*
X8435040Y-37133332D02*
X8468373Y-37199999D01*
X8468373Y-37199999D02*
X8501706Y-37233332D01*
X8501706Y-37233332D02*
X8568373Y-37266665D01*
X8501706Y-36566665D02*
X8501706Y-36033332D01*
X8701706Y-36033332D02*
X8701706Y-36566665D01*
X8168373Y-35799998D02*
X8868373Y-35566665D01*
X8868373Y-35566665D02*
X8168373Y-35333331D01*
X8835040Y-35133331D02*
X8868373Y-35033331D01*
X8868373Y-35033331D02*
X8868373Y-34866665D01*
X8868373Y-34866665D02*
X8835040Y-34799998D01*
X8835040Y-34799998D02*
X8801706Y-34766665D01*
X8801706Y-34766665D02*
X8735040Y-34733331D01*
X8735040Y-34733331D02*
X8668373Y-34733331D01*
X8668373Y-34733331D02*
X8601706Y-34766665D01*
X8601706Y-34766665D02*
X8568373Y-34799998D01*
X8568373Y-34799998D02*
X8535040Y-34866665D01*
X8535040Y-34866665D02*
X8501706Y-34999998D01*
X8501706Y-34999998D02*
X8468373Y-35066665D01*
X8468373Y-35066665D02*
X8435040Y-35099998D01*
X8435040Y-35099998D02*
X8368373Y-35133331D01*
X8368373Y-35133331D02*
X8301706Y-35133331D01*
X8301706Y-35133331D02*
X8235040Y-35099998D01*
X8235040Y-35099998D02*
X8201706Y-35066665D01*
X8201706Y-35066665D02*
X8168373Y-34999998D01*
X8168373Y-34999998D02*
X8168373Y-34833331D01*
X8168373Y-34833331D02*
X8201706Y-34733331D01*
X8168373Y-33966665D02*
X8168373Y-33499998D01*
X8168373Y-33499998D02*
X8868373Y-33799998D01*
X8501706Y-33233331D02*
X8501706Y-32699998D01*
X8701706Y-32699998D02*
X8701706Y-33233331D01*
X8801706Y-31966664D02*
X8835040Y-31999997D01*
X8835040Y-31999997D02*
X8868373Y-32099997D01*
X8868373Y-32099997D02*
X8868373Y-32166664D01*
X8868373Y-32166664D02*
X8835040Y-32266664D01*
X8835040Y-32266664D02*
X8768373Y-32333331D01*
X8768373Y-32333331D02*
X8701706Y-32366664D01*
X8701706Y-32366664D02*
X8568373Y-32399997D01*
X8568373Y-32399997D02*
X8468373Y-32399997D01*
X8468373Y-32399997D02*
X8335040Y-32366664D01*
X8335040Y-32366664D02*
X8268373Y-32333331D01*
X8268373Y-32333331D02*
X8201706Y-32266664D01*
X8201706Y-32266664D02*
X8168373Y-32166664D01*
X8168373Y-32166664D02*
X8168373Y-32099997D01*
X8168373Y-32099997D02*
X8201706Y-31999997D01*
X8201706Y-31999997D02*
X8235040Y-31966664D01*
X8168373Y-31533331D02*
X8168373Y-31399997D01*
X8168373Y-31399997D02*
X8201706Y-31333331D01*
X8201706Y-31333331D02*
X8268373Y-31266664D01*
X8268373Y-31266664D02*
X8401706Y-31233331D01*
X8401706Y-31233331D02*
X8635040Y-31233331D01*
X8635040Y-31233331D02*
X8768373Y-31266664D01*
X8768373Y-31266664D02*
X8835040Y-31333331D01*
X8835040Y-31333331D02*
X8868373Y-31399997D01*
X8868373Y-31399997D02*
X8868373Y-31533331D01*
X8868373Y-31533331D02*
X8835040Y-31599997D01*
X8835040Y-31599997D02*
X8768373Y-31666664D01*
X8768373Y-31666664D02*
X8635040Y-31699997D01*
X8635040Y-31699997D02*
X8401706Y-31699997D01*
X8401706Y-31699997D02*
X8268373Y-31666664D01*
X8268373Y-31666664D02*
X8201706Y-31599997D01*
X8201706Y-31599997D02*
X8168373Y-31533331D01*
X8868373Y-30933331D02*
X8168373Y-30933331D01*
X8168373Y-30933331D02*
X8668373Y-30699998D01*
X8668373Y-30699998D02*
X8168373Y-30466664D01*
X8168373Y-30466664D02*
X8868373Y-30466664D01*
D14*
X3061904Y-9163855D02*
X3061904Y-8363855D01*
X3061904Y-8744807D02*
X3519047Y-8744807D01*
X3519047Y-9163855D02*
X3519047Y-8363855D01*
X4319046Y-9163855D02*
X3861903Y-9163855D01*
X4090475Y-9163855D02*
X4090475Y-8363855D01*
X4090475Y-8363855D02*
X4014284Y-8478140D01*
X4014284Y-8478140D02*
X3938094Y-8554331D01*
X3938094Y-8554331D02*
X3861903Y-8592426D01*
X5157142Y-8630521D02*
X5461904Y-8630521D01*
X5271428Y-8363855D02*
X5271428Y-9049569D01*
X5271428Y-9049569D02*
X5309523Y-9125760D01*
X5309523Y-9125760D02*
X5385713Y-9163855D01*
X5385713Y-9163855D02*
X5461904Y-9163855D01*
X5728571Y-9163855D02*
X5728571Y-8630521D01*
X5728571Y-8782902D02*
X5766666Y-8706712D01*
X5766666Y-8706712D02*
X5804761Y-8668617D01*
X5804761Y-8668617D02*
X5880952Y-8630521D01*
X5880952Y-8630521D02*
X5957142Y-8630521D01*
X6566666Y-8630521D02*
X6566666Y-9163855D01*
X6223809Y-8630521D02*
X6223809Y-9049569D01*
X6223809Y-9049569D02*
X6261904Y-9125760D01*
X6261904Y-9125760D02*
X6338094Y-9163855D01*
X6338094Y-9163855D02*
X6452380Y-9163855D01*
X6452380Y-9163855D02*
X6528571Y-9125760D01*
X6528571Y-9125760D02*
X6566666Y-9087664D01*
X6947619Y-8630521D02*
X6947619Y-9163855D01*
X6947619Y-8706712D02*
X6985714Y-8668617D01*
X6985714Y-8668617D02*
X7061904Y-8630521D01*
X7061904Y-8630521D02*
X7176190Y-8630521D01*
X7176190Y-8630521D02*
X7252381Y-8668617D01*
X7252381Y-8668617D02*
X7290476Y-8744807D01*
X7290476Y-8744807D02*
X7290476Y-9163855D01*
X7671429Y-9163855D02*
X7671429Y-8363855D01*
X7747619Y-8859093D02*
X7976191Y-9163855D01*
X7976191Y-8630521D02*
X7671429Y-8935283D01*
X5249999Y-77240045D02*
X5288095Y-77201950D01*
X5288095Y-77201950D02*
X5364285Y-77163855D01*
X5364285Y-77163855D02*
X5554761Y-77163855D01*
X5554761Y-77163855D02*
X5630952Y-77201950D01*
X5630952Y-77201950D02*
X5669047Y-77240045D01*
X5669047Y-77240045D02*
X5707142Y-77316236D01*
X5707142Y-77316236D02*
X5707142Y-77392426D01*
X5707142Y-77392426D02*
X5669047Y-77506712D01*
X5669047Y-77506712D02*
X5211904Y-77963855D01*
X5211904Y-77963855D02*
X5707142Y-77963855D01*
X6392857Y-77430521D02*
X6392857Y-77963855D01*
X6202381Y-77125760D02*
X6011904Y-77697188D01*
X6011904Y-77697188D02*
X6507143Y-77697188D01*
X7307143Y-77163855D02*
X7573810Y-77963855D01*
X7573810Y-77963855D02*
X7840476Y-77163855D01*
X8069047Y-77735283D02*
X8450000Y-77735283D01*
X7992857Y-77963855D02*
X8259524Y-77163855D01*
X8259524Y-77163855D02*
X8526190Y-77963855D01*
X9250000Y-77887664D02*
X9211904Y-77925760D01*
X9211904Y-77925760D02*
X9097619Y-77963855D01*
X9097619Y-77963855D02*
X9021428Y-77963855D01*
X9021428Y-77963855D02*
X8907142Y-77925760D01*
X8907142Y-77925760D02*
X8830952Y-77849569D01*
X8830952Y-77849569D02*
X8792857Y-77773379D01*
X8792857Y-77773379D02*
X8754761Y-77620998D01*
X8754761Y-77620998D02*
X8754761Y-77506712D01*
X8754761Y-77506712D02*
X8792857Y-77354331D01*
X8792857Y-77354331D02*
X8830952Y-77278140D01*
X8830952Y-77278140D02*
X8907142Y-77201950D01*
X8907142Y-77201950D02*
X9021428Y-77163855D01*
X9021428Y-77163855D02*
X9097619Y-77163855D01*
X9097619Y-77163855D02*
X9211904Y-77201950D01*
X9211904Y-77201950D02*
X9250000Y-77240045D01*
X5893809Y-6763855D02*
X6160476Y-7563855D01*
X6160476Y-7563855D02*
X6427142Y-6763855D01*
X7303333Y-7563855D02*
X7303333Y-6763855D01*
X7303333Y-6763855D02*
X7493809Y-6763855D01*
X7493809Y-6763855D02*
X7608095Y-6801950D01*
X7608095Y-6801950D02*
X7684285Y-6878140D01*
X7684285Y-6878140D02*
X7722380Y-6954331D01*
X7722380Y-6954331D02*
X7760476Y-7106712D01*
X7760476Y-7106712D02*
X7760476Y-7220998D01*
X7760476Y-7220998D02*
X7722380Y-7373379D01*
X7722380Y-7373379D02*
X7684285Y-7449569D01*
X7684285Y-7449569D02*
X7608095Y-7525760D01*
X7608095Y-7525760D02*
X7493809Y-7563855D01*
X7493809Y-7563855D02*
X7303333Y-7563855D01*
X9131904Y-6801950D02*
X9055714Y-6763855D01*
X9055714Y-6763855D02*
X8941428Y-6763855D01*
X8941428Y-6763855D02*
X8827142Y-6801950D01*
X8827142Y-6801950D02*
X8750952Y-6878140D01*
X8750952Y-6878140D02*
X8712857Y-6954331D01*
X8712857Y-6954331D02*
X8674761Y-7106712D01*
X8674761Y-7106712D02*
X8674761Y-7220998D01*
X8674761Y-7220998D02*
X8712857Y-7373379D01*
X8712857Y-7373379D02*
X8750952Y-7449569D01*
X8750952Y-7449569D02*
X8827142Y-7525760D01*
X8827142Y-7525760D02*
X8941428Y-7563855D01*
X8941428Y-7563855D02*
X9017619Y-7563855D01*
X9017619Y-7563855D02*
X9131904Y-7525760D01*
X9131904Y-7525760D02*
X9170000Y-7487664D01*
X9170000Y-7487664D02*
X9170000Y-7220998D01*
X9170000Y-7220998D02*
X9017619Y-7220998D01*
X17717619Y-8663855D02*
X17717619Y-7863855D01*
X17717619Y-8244807D02*
X18174762Y-8244807D01*
X18174762Y-8663855D02*
X18174762Y-7863855D01*
X18517618Y-7940045D02*
X18555714Y-7901950D01*
X18555714Y-7901950D02*
X18631904Y-7863855D01*
X18631904Y-7863855D02*
X18822380Y-7863855D01*
X18822380Y-7863855D02*
X18898571Y-7901950D01*
X18898571Y-7901950D02*
X18936666Y-7940045D01*
X18936666Y-7940045D02*
X18974761Y-8016236D01*
X18974761Y-8016236D02*
X18974761Y-8092426D01*
X18974761Y-8092426D02*
X18936666Y-8206712D01*
X18936666Y-8206712D02*
X18479523Y-8663855D01*
X18479523Y-8663855D02*
X18974761Y-8663855D01*
X19889047Y-8625760D02*
X19965238Y-8663855D01*
X19965238Y-8663855D02*
X20117619Y-8663855D01*
X20117619Y-8663855D02*
X20193809Y-8625760D01*
X20193809Y-8625760D02*
X20231905Y-8549569D01*
X20231905Y-8549569D02*
X20231905Y-8511474D01*
X20231905Y-8511474D02*
X20193809Y-8435283D01*
X20193809Y-8435283D02*
X20117619Y-8397188D01*
X20117619Y-8397188D02*
X20003333Y-8397188D01*
X20003333Y-8397188D02*
X19927143Y-8359093D01*
X19927143Y-8359093D02*
X19889047Y-8282902D01*
X19889047Y-8282902D02*
X19889047Y-8244807D01*
X19889047Y-8244807D02*
X19927143Y-8168617D01*
X19927143Y-8168617D02*
X20003333Y-8130521D01*
X20003333Y-8130521D02*
X20117619Y-8130521D01*
X20117619Y-8130521D02*
X20193809Y-8168617D01*
X20574762Y-8130521D02*
X20574762Y-8930521D01*
X20574762Y-8168617D02*
X20650952Y-8130521D01*
X20650952Y-8130521D02*
X20803333Y-8130521D01*
X20803333Y-8130521D02*
X20879524Y-8168617D01*
X20879524Y-8168617D02*
X20917619Y-8206712D01*
X20917619Y-8206712D02*
X20955714Y-8282902D01*
X20955714Y-8282902D02*
X20955714Y-8511474D01*
X20955714Y-8511474D02*
X20917619Y-8587664D01*
X20917619Y-8587664D02*
X20879524Y-8625760D01*
X20879524Y-8625760D02*
X20803333Y-8663855D01*
X20803333Y-8663855D02*
X20650952Y-8663855D01*
X20650952Y-8663855D02*
X20574762Y-8625760D01*
X21641429Y-8663855D02*
X21641429Y-8244807D01*
X21641429Y-8244807D02*
X21603334Y-8168617D01*
X21603334Y-8168617D02*
X21527143Y-8130521D01*
X21527143Y-8130521D02*
X21374762Y-8130521D01*
X21374762Y-8130521D02*
X21298572Y-8168617D01*
X21641429Y-8625760D02*
X21565238Y-8663855D01*
X21565238Y-8663855D02*
X21374762Y-8663855D01*
X21374762Y-8663855D02*
X21298572Y-8625760D01*
X21298572Y-8625760D02*
X21260476Y-8549569D01*
X21260476Y-8549569D02*
X21260476Y-8473379D01*
X21260476Y-8473379D02*
X21298572Y-8397188D01*
X21298572Y-8397188D02*
X21374762Y-8359093D01*
X21374762Y-8359093D02*
X21565238Y-8359093D01*
X21565238Y-8359093D02*
X21641429Y-8320998D01*
X22022382Y-8663855D02*
X22022382Y-8130521D01*
X22022382Y-8282902D02*
X22060477Y-8206712D01*
X22060477Y-8206712D02*
X22098572Y-8168617D01*
X22098572Y-8168617D02*
X22174763Y-8130521D01*
X22174763Y-8130521D02*
X22250953Y-8130521D01*
X22822382Y-8625760D02*
X22746191Y-8663855D01*
X22746191Y-8663855D02*
X22593810Y-8663855D01*
X22593810Y-8663855D02*
X22517620Y-8625760D01*
X22517620Y-8625760D02*
X22479524Y-8549569D01*
X22479524Y-8549569D02*
X22479524Y-8244807D01*
X22479524Y-8244807D02*
X22517620Y-8168617D01*
X22517620Y-8168617D02*
X22593810Y-8130521D01*
X22593810Y-8130521D02*
X22746191Y-8130521D01*
X22746191Y-8130521D02*
X22822382Y-8168617D01*
X22822382Y-8168617D02*
X22860477Y-8244807D01*
X22860477Y-8244807D02*
X22860477Y-8320998D01*
X22860477Y-8320998D02*
X22479524Y-8397188D01*
X27828571Y-46442306D02*
X27942857Y-46480401D01*
X27942857Y-46480401D02*
X27980952Y-46518497D01*
X27980952Y-46518497D02*
X28019048Y-46594687D01*
X28019048Y-46594687D02*
X28019048Y-46708973D01*
X28019048Y-46708973D02*
X27980952Y-46785163D01*
X27980952Y-46785163D02*
X27942857Y-46823259D01*
X27942857Y-46823259D02*
X27866667Y-46861354D01*
X27866667Y-46861354D02*
X27561905Y-46861354D01*
X27561905Y-46861354D02*
X27561905Y-46061354D01*
X27561905Y-46061354D02*
X27828571Y-46061354D01*
X27828571Y-46061354D02*
X27904762Y-46099449D01*
X27904762Y-46099449D02*
X27942857Y-46137544D01*
X27942857Y-46137544D02*
X27980952Y-46213735D01*
X27980952Y-46213735D02*
X27980952Y-46289925D01*
X27980952Y-46289925D02*
X27942857Y-46366116D01*
X27942857Y-46366116D02*
X27904762Y-46404211D01*
X27904762Y-46404211D02*
X27828571Y-46442306D01*
X27828571Y-46442306D02*
X27561905Y-46442306D01*
X28514286Y-46061354D02*
X28666667Y-46061354D01*
X28666667Y-46061354D02*
X28742857Y-46099449D01*
X28742857Y-46099449D02*
X28819048Y-46175639D01*
X28819048Y-46175639D02*
X28857143Y-46328020D01*
X28857143Y-46328020D02*
X28857143Y-46594687D01*
X28857143Y-46594687D02*
X28819048Y-46747068D01*
X28819048Y-46747068D02*
X28742857Y-46823259D01*
X28742857Y-46823259D02*
X28666667Y-46861354D01*
X28666667Y-46861354D02*
X28514286Y-46861354D01*
X28514286Y-46861354D02*
X28438095Y-46823259D01*
X28438095Y-46823259D02*
X28361905Y-46747068D01*
X28361905Y-46747068D02*
X28323809Y-46594687D01*
X28323809Y-46594687D02*
X28323809Y-46328020D01*
X28323809Y-46328020D02*
X28361905Y-46175639D01*
X28361905Y-46175639D02*
X28438095Y-46099449D01*
X28438095Y-46099449D02*
X28514286Y-46061354D01*
X29161904Y-46632782D02*
X29542857Y-46632782D01*
X29085714Y-46861354D02*
X29352381Y-46061354D01*
X29352381Y-46061354D02*
X29619047Y-46861354D01*
X30342857Y-46861354D02*
X30076190Y-46480401D01*
X29885714Y-46861354D02*
X29885714Y-46061354D01*
X29885714Y-46061354D02*
X30190476Y-46061354D01*
X30190476Y-46061354D02*
X30266666Y-46099449D01*
X30266666Y-46099449D02*
X30304761Y-46137544D01*
X30304761Y-46137544D02*
X30342857Y-46213735D01*
X30342857Y-46213735D02*
X30342857Y-46328020D01*
X30342857Y-46328020D02*
X30304761Y-46404211D01*
X30304761Y-46404211D02*
X30266666Y-46442306D01*
X30266666Y-46442306D02*
X30190476Y-46480401D01*
X30190476Y-46480401D02*
X29885714Y-46480401D01*
X30685714Y-46861354D02*
X30685714Y-46061354D01*
X30685714Y-46061354D02*
X30876190Y-46061354D01*
X30876190Y-46061354D02*
X30990476Y-46099449D01*
X30990476Y-46099449D02*
X31066666Y-46175639D01*
X31066666Y-46175639D02*
X31104761Y-46251830D01*
X31104761Y-46251830D02*
X31142857Y-46404211D01*
X31142857Y-46404211D02*
X31142857Y-46518497D01*
X31142857Y-46518497D02*
X31104761Y-46670878D01*
X31104761Y-46670878D02*
X31066666Y-46747068D01*
X31066666Y-46747068D02*
X30990476Y-46823259D01*
X30990476Y-46823259D02*
X30876190Y-46861354D01*
X30876190Y-46861354D02*
X30685714Y-46861354D01*
X32628571Y-46328020D02*
X32819047Y-46861354D01*
X32819047Y-46861354D02*
X33009524Y-46328020D01*
X33733333Y-46861354D02*
X33276190Y-46861354D01*
X33504762Y-46861354D02*
X33504762Y-46061354D01*
X33504762Y-46061354D02*
X33428571Y-46175639D01*
X33428571Y-46175639D02*
X33352381Y-46251830D01*
X33352381Y-46251830D02*
X33276190Y-46289925D01*
X34076191Y-46785163D02*
X34114286Y-46823259D01*
X34114286Y-46823259D02*
X34076191Y-46861354D01*
X34076191Y-46861354D02*
X34038095Y-46823259D01*
X34038095Y-46823259D02*
X34076191Y-46785163D01*
X34076191Y-46785163D02*
X34076191Y-46861354D01*
X34609524Y-46061354D02*
X34685714Y-46061354D01*
X34685714Y-46061354D02*
X34761905Y-46099449D01*
X34761905Y-46099449D02*
X34800000Y-46137544D01*
X34800000Y-46137544D02*
X34838095Y-46213735D01*
X34838095Y-46213735D02*
X34876190Y-46366116D01*
X34876190Y-46366116D02*
X34876190Y-46556592D01*
X34876190Y-46556592D02*
X34838095Y-46708973D01*
X34838095Y-46708973D02*
X34800000Y-46785163D01*
X34800000Y-46785163D02*
X34761905Y-46823259D01*
X34761905Y-46823259D02*
X34685714Y-46861354D01*
X34685714Y-46861354D02*
X34609524Y-46861354D01*
X34609524Y-46861354D02*
X34533333Y-46823259D01*
X34533333Y-46823259D02*
X34495238Y-46785163D01*
X34495238Y-46785163D02*
X34457143Y-46708973D01*
X34457143Y-46708973D02*
X34419047Y-46556592D01*
X34419047Y-46556592D02*
X34419047Y-46366116D01*
X34419047Y-46366116D02*
X34457143Y-46213735D01*
X34457143Y-46213735D02*
X34495238Y-46137544D01*
X34495238Y-46137544D02*
X34533333Y-46099449D01*
X34533333Y-46099449D02*
X34609524Y-46061354D01*
X28438095Y-48361354D02*
X28171428Y-47980401D01*
X27980952Y-48361354D02*
X27980952Y-47561354D01*
X27980952Y-47561354D02*
X28285714Y-47561354D01*
X28285714Y-47561354D02*
X28361904Y-47599449D01*
X28361904Y-47599449D02*
X28399999Y-47637544D01*
X28399999Y-47637544D02*
X28438095Y-47713735D01*
X28438095Y-47713735D02*
X28438095Y-47828020D01*
X28438095Y-47828020D02*
X28399999Y-47904211D01*
X28399999Y-47904211D02*
X28361904Y-47942306D01*
X28361904Y-47942306D02*
X28285714Y-47980401D01*
X28285714Y-47980401D02*
X27980952Y-47980401D01*
X29085714Y-48323259D02*
X29009523Y-48361354D01*
X29009523Y-48361354D02*
X28857142Y-48361354D01*
X28857142Y-48361354D02*
X28780952Y-48323259D01*
X28780952Y-48323259D02*
X28742856Y-48247068D01*
X28742856Y-48247068D02*
X28742856Y-47942306D01*
X28742856Y-47942306D02*
X28780952Y-47866116D01*
X28780952Y-47866116D02*
X28857142Y-47828020D01*
X28857142Y-47828020D02*
X29009523Y-47828020D01*
X29009523Y-47828020D02*
X29085714Y-47866116D01*
X29085714Y-47866116D02*
X29123809Y-47942306D01*
X29123809Y-47942306D02*
X29123809Y-48018497D01*
X29123809Y-48018497D02*
X28742856Y-48094687D01*
X29390475Y-47828020D02*
X29580951Y-48361354D01*
X29580951Y-48361354D02*
X29771428Y-47828020D01*
X30952380Y-47942306D02*
X31066666Y-47980401D01*
X31066666Y-47980401D02*
X31104761Y-48018497D01*
X31104761Y-48018497D02*
X31142857Y-48094687D01*
X31142857Y-48094687D02*
X31142857Y-48208973D01*
X31142857Y-48208973D02*
X31104761Y-48285163D01*
X31104761Y-48285163D02*
X31066666Y-48323259D01*
X31066666Y-48323259D02*
X30990476Y-48361354D01*
X30990476Y-48361354D02*
X30685714Y-48361354D01*
X30685714Y-48361354D02*
X30685714Y-47561354D01*
X30685714Y-47561354D02*
X30952380Y-47561354D01*
X30952380Y-47561354D02*
X31028571Y-47599449D01*
X31028571Y-47599449D02*
X31066666Y-47637544D01*
X31066666Y-47637544D02*
X31104761Y-47713735D01*
X31104761Y-47713735D02*
X31104761Y-47789925D01*
X31104761Y-47789925D02*
X31066666Y-47866116D01*
X31066666Y-47866116D02*
X31028571Y-47904211D01*
X31028571Y-47904211D02*
X30952380Y-47942306D01*
X30952380Y-47942306D02*
X30685714Y-47942306D01*
X32704762Y-47942306D02*
X32971428Y-47942306D01*
X33085714Y-48361354D02*
X32704762Y-48361354D01*
X32704762Y-48361354D02*
X32704762Y-47561354D01*
X32704762Y-47561354D02*
X33085714Y-47561354D01*
X33352381Y-47561354D02*
X33885715Y-48361354D01*
X33885715Y-47561354D02*
X33352381Y-48361354D01*
X34076191Y-47561354D02*
X34533334Y-47561354D01*
X34304762Y-48361354D02*
X34304762Y-47561354D01*
X28531904Y-8663855D02*
X28531904Y-7863855D01*
X28531904Y-8244807D02*
X28989047Y-8244807D01*
X28989047Y-8663855D02*
X28989047Y-7863855D01*
X29293808Y-7863855D02*
X29789046Y-7863855D01*
X29789046Y-7863855D02*
X29522380Y-8168617D01*
X29522380Y-8168617D02*
X29636665Y-8168617D01*
X29636665Y-8168617D02*
X29712856Y-8206712D01*
X29712856Y-8206712D02*
X29750951Y-8244807D01*
X29750951Y-8244807D02*
X29789046Y-8320998D01*
X29789046Y-8320998D02*
X29789046Y-8511474D01*
X29789046Y-8511474D02*
X29750951Y-8587664D01*
X29750951Y-8587664D02*
X29712856Y-8625760D01*
X29712856Y-8625760D02*
X29636665Y-8663855D01*
X29636665Y-8663855D02*
X29408094Y-8663855D01*
X29408094Y-8663855D02*
X29331903Y-8625760D01*
X29331903Y-8625760D02*
X29293808Y-8587664D01*
X30703332Y-8625760D02*
X30779523Y-8663855D01*
X30779523Y-8663855D02*
X30931904Y-8663855D01*
X30931904Y-8663855D02*
X31008094Y-8625760D01*
X31008094Y-8625760D02*
X31046190Y-8549569D01*
X31046190Y-8549569D02*
X31046190Y-8511474D01*
X31046190Y-8511474D02*
X31008094Y-8435283D01*
X31008094Y-8435283D02*
X30931904Y-8397188D01*
X30931904Y-8397188D02*
X30817618Y-8397188D01*
X30817618Y-8397188D02*
X30741428Y-8359093D01*
X30741428Y-8359093D02*
X30703332Y-8282902D01*
X30703332Y-8282902D02*
X30703332Y-8244807D01*
X30703332Y-8244807D02*
X30741428Y-8168617D01*
X30741428Y-8168617D02*
X30817618Y-8130521D01*
X30817618Y-8130521D02*
X30931904Y-8130521D01*
X30931904Y-8130521D02*
X31008094Y-8168617D01*
X31389047Y-8130521D02*
X31389047Y-8930521D01*
X31389047Y-8168617D02*
X31465237Y-8130521D01*
X31465237Y-8130521D02*
X31617618Y-8130521D01*
X31617618Y-8130521D02*
X31693809Y-8168617D01*
X31693809Y-8168617D02*
X31731904Y-8206712D01*
X31731904Y-8206712D02*
X31769999Y-8282902D01*
X31769999Y-8282902D02*
X31769999Y-8511474D01*
X31769999Y-8511474D02*
X31731904Y-8587664D01*
X31731904Y-8587664D02*
X31693809Y-8625760D01*
X31693809Y-8625760D02*
X31617618Y-8663855D01*
X31617618Y-8663855D02*
X31465237Y-8663855D01*
X31465237Y-8663855D02*
X31389047Y-8625760D01*
X32455714Y-8663855D02*
X32455714Y-8244807D01*
X32455714Y-8244807D02*
X32417619Y-8168617D01*
X32417619Y-8168617D02*
X32341428Y-8130521D01*
X32341428Y-8130521D02*
X32189047Y-8130521D01*
X32189047Y-8130521D02*
X32112857Y-8168617D01*
X32455714Y-8625760D02*
X32379523Y-8663855D01*
X32379523Y-8663855D02*
X32189047Y-8663855D01*
X32189047Y-8663855D02*
X32112857Y-8625760D01*
X32112857Y-8625760D02*
X32074761Y-8549569D01*
X32074761Y-8549569D02*
X32074761Y-8473379D01*
X32074761Y-8473379D02*
X32112857Y-8397188D01*
X32112857Y-8397188D02*
X32189047Y-8359093D01*
X32189047Y-8359093D02*
X32379523Y-8359093D01*
X32379523Y-8359093D02*
X32455714Y-8320998D01*
X32836667Y-8663855D02*
X32836667Y-8130521D01*
X32836667Y-8282902D02*
X32874762Y-8206712D01*
X32874762Y-8206712D02*
X32912857Y-8168617D01*
X32912857Y-8168617D02*
X32989048Y-8130521D01*
X32989048Y-8130521D02*
X33065238Y-8130521D01*
X33636667Y-8625760D02*
X33560476Y-8663855D01*
X33560476Y-8663855D02*
X33408095Y-8663855D01*
X33408095Y-8663855D02*
X33331905Y-8625760D01*
X33331905Y-8625760D02*
X33293809Y-8549569D01*
X33293809Y-8549569D02*
X33293809Y-8244807D01*
X33293809Y-8244807D02*
X33331905Y-8168617D01*
X33331905Y-8168617D02*
X33408095Y-8130521D01*
X33408095Y-8130521D02*
X33560476Y-8130521D01*
X33560476Y-8130521D02*
X33636667Y-8168617D01*
X33636667Y-8168617D02*
X33674762Y-8244807D01*
X33674762Y-8244807D02*
X33674762Y-8320998D01*
X33674762Y-8320998D02*
X33293809Y-8397188D01*
X34589047Y-7825760D02*
X33903333Y-8854331D01*
X35008095Y-7863855D02*
X35084285Y-7863855D01*
X35084285Y-7863855D02*
X35160476Y-7901950D01*
X35160476Y-7901950D02*
X35198571Y-7940045D01*
X35198571Y-7940045D02*
X35236666Y-8016236D01*
X35236666Y-8016236D02*
X35274761Y-8168617D01*
X35274761Y-8168617D02*
X35274761Y-8359093D01*
X35274761Y-8359093D02*
X35236666Y-8511474D01*
X35236666Y-8511474D02*
X35198571Y-8587664D01*
X35198571Y-8587664D02*
X35160476Y-8625760D01*
X35160476Y-8625760D02*
X35084285Y-8663855D01*
X35084285Y-8663855D02*
X35008095Y-8663855D01*
X35008095Y-8663855D02*
X34931904Y-8625760D01*
X34931904Y-8625760D02*
X34893809Y-8587664D01*
X34893809Y-8587664D02*
X34855714Y-8511474D01*
X34855714Y-8511474D02*
X34817618Y-8359093D01*
X34817618Y-8359093D02*
X34817618Y-8168617D01*
X34817618Y-8168617D02*
X34855714Y-8016236D01*
X34855714Y-8016236D02*
X34893809Y-7940045D01*
X34893809Y-7940045D02*
X34931904Y-7901950D01*
X34931904Y-7901950D02*
X35008095Y-7863855D01*
X35541428Y-8663855D02*
X35960476Y-8130521D01*
X35541428Y-8130521D02*
X35960476Y-8663855D01*
X36684285Y-8663855D02*
X36227142Y-8663855D01*
X36455714Y-8663855D02*
X36455714Y-7863855D01*
X36455714Y-7863855D02*
X36379523Y-7978140D01*
X36379523Y-7978140D02*
X36303333Y-8054331D01*
X36303333Y-8054331D02*
X36227142Y-8092426D01*
X37065238Y-8663855D02*
X37217619Y-8663855D01*
X37217619Y-8663855D02*
X37293809Y-8625760D01*
X37293809Y-8625760D02*
X37331905Y-8587664D01*
X37331905Y-8587664D02*
X37408095Y-8473379D01*
X37408095Y-8473379D02*
X37446190Y-8320998D01*
X37446190Y-8320998D02*
X37446190Y-8016236D01*
X37446190Y-8016236D02*
X37408095Y-7940045D01*
X37408095Y-7940045D02*
X37370000Y-7901950D01*
X37370000Y-7901950D02*
X37293809Y-7863855D01*
X37293809Y-7863855D02*
X37141428Y-7863855D01*
X37141428Y-7863855D02*
X37065238Y-7901950D01*
X37065238Y-7901950D02*
X37027143Y-7940045D01*
X37027143Y-7940045D02*
X36989047Y-8016236D01*
X36989047Y-8016236D02*
X36989047Y-8206712D01*
X36989047Y-8206712D02*
X37027143Y-8282902D01*
X37027143Y-8282902D02*
X37065238Y-8320998D01*
X37065238Y-8320998D02*
X37141428Y-8359093D01*
X37141428Y-8359093D02*
X37293809Y-8359093D01*
X37293809Y-8359093D02*
X37370000Y-8320998D01*
X37370000Y-8320998D02*
X37408095Y-8282902D01*
X37408095Y-8282902D02*
X37446190Y-8206712D01*
D15*
X25452381Y-45381886D02*
X25452381Y-44531886D01*
X25452381Y-44531886D02*
X25776191Y-44531886D01*
X25776191Y-44531886D02*
X25857143Y-44572362D01*
X25857143Y-44572362D02*
X25897620Y-44612838D01*
X25897620Y-44612838D02*
X25938096Y-44693790D01*
X25938096Y-44693790D02*
X25938096Y-44815219D01*
X25938096Y-44815219D02*
X25897620Y-44896171D01*
X25897620Y-44896171D02*
X25857143Y-44936648D01*
X25857143Y-44936648D02*
X25776191Y-44977124D01*
X25776191Y-44977124D02*
X25452381Y-44977124D01*
X26302381Y-45381886D02*
X26302381Y-44531886D01*
X26585715Y-44531886D02*
X26869048Y-45381886D01*
X26869048Y-45381886D02*
X27152382Y-44531886D01*
X27395238Y-45139029D02*
X27800000Y-45139029D01*
X27314286Y-45381886D02*
X27597619Y-44531886D01*
X27597619Y-44531886D02*
X27880953Y-45381886D01*
X28650000Y-45300933D02*
X28609524Y-45341410D01*
X28609524Y-45341410D02*
X28488095Y-45381886D01*
X28488095Y-45381886D02*
X28407143Y-45381886D01*
X28407143Y-45381886D02*
X28285714Y-45341410D01*
X28285714Y-45341410D02*
X28204762Y-45260457D01*
X28204762Y-45260457D02*
X28164285Y-45179505D01*
X28164285Y-45179505D02*
X28123809Y-45017600D01*
X28123809Y-45017600D02*
X28123809Y-44896171D01*
X28123809Y-44896171D02*
X28164285Y-44734267D01*
X28164285Y-44734267D02*
X28204762Y-44653314D01*
X28204762Y-44653314D02*
X28285714Y-44572362D01*
X28285714Y-44572362D02*
X28407143Y-44531886D01*
X28407143Y-44531886D02*
X28488095Y-44531886D01*
X28488095Y-44531886D02*
X28609524Y-44572362D01*
X28609524Y-44572362D02*
X28650000Y-44612838D01*
X29661904Y-45381886D02*
X29661904Y-44531886D01*
X29661904Y-44531886D02*
X29945238Y-45139029D01*
X29945238Y-45139029D02*
X30228571Y-44531886D01*
X30228571Y-44531886D02*
X30228571Y-45381886D01*
X30795238Y-44531886D02*
X30957143Y-44531886D01*
X30957143Y-44531886D02*
X31038095Y-44572362D01*
X31038095Y-44572362D02*
X31119048Y-44653314D01*
X31119048Y-44653314D02*
X31159524Y-44815219D01*
X31159524Y-44815219D02*
X31159524Y-45098552D01*
X31159524Y-45098552D02*
X31119048Y-45260457D01*
X31119048Y-45260457D02*
X31038095Y-45341410D01*
X31038095Y-45341410D02*
X30957143Y-45381886D01*
X30957143Y-45381886D02*
X30795238Y-45381886D01*
X30795238Y-45381886D02*
X30714286Y-45341410D01*
X30714286Y-45341410D02*
X30633333Y-45260457D01*
X30633333Y-45260457D02*
X30592857Y-45098552D01*
X30592857Y-45098552D02*
X30592857Y-44815219D01*
X30592857Y-44815219D02*
X30633333Y-44653314D01*
X30633333Y-44653314D02*
X30714286Y-44572362D01*
X30714286Y-44572362D02*
X30795238Y-44531886D01*
X31523809Y-45381886D02*
X31523809Y-44531886D01*
X31523809Y-44531886D02*
X32009524Y-45381886D01*
X32009524Y-45381886D02*
X32009524Y-44531886D01*
X32414285Y-45381886D02*
X32414285Y-44531886D01*
X32697619Y-44531886D02*
X33183333Y-44531886D01*
X32940476Y-45381886D02*
X32940476Y-44531886D01*
X33628571Y-44531886D02*
X33790476Y-44531886D01*
X33790476Y-44531886D02*
X33871428Y-44572362D01*
X33871428Y-44572362D02*
X33952381Y-44653314D01*
X33952381Y-44653314D02*
X33992857Y-44815219D01*
X33992857Y-44815219D02*
X33992857Y-45098552D01*
X33992857Y-45098552D02*
X33952381Y-45260457D01*
X33952381Y-45260457D02*
X33871428Y-45341410D01*
X33871428Y-45341410D02*
X33790476Y-45381886D01*
X33790476Y-45381886D02*
X33628571Y-45381886D01*
X33628571Y-45381886D02*
X33547619Y-45341410D01*
X33547619Y-45341410D02*
X33466666Y-45260457D01*
X33466666Y-45260457D02*
X33426190Y-45098552D01*
X33426190Y-45098552D02*
X33426190Y-44815219D01*
X33426190Y-44815219D02*
X33466666Y-44653314D01*
X33466666Y-44653314D02*
X33547619Y-44572362D01*
X33547619Y-44572362D02*
X33628571Y-44531886D01*
X34842857Y-45381886D02*
X34559523Y-44977124D01*
X34357142Y-45381886D02*
X34357142Y-44531886D01*
X34357142Y-44531886D02*
X34680952Y-44531886D01*
X34680952Y-44531886D02*
X34761904Y-44572362D01*
X34761904Y-44572362D02*
X34802381Y-44612838D01*
X34802381Y-44612838D02*
X34842857Y-44693790D01*
X34842857Y-44693790D02*
X34842857Y-44815219D01*
X34842857Y-44815219D02*
X34802381Y-44896171D01*
X34802381Y-44896171D02*
X34761904Y-44936648D01*
X34761904Y-44936648D02*
X34680952Y-44977124D01*
X34680952Y-44977124D02*
X34357142Y-44977124D01*
X35207142Y-45381886D02*
X35207142Y-44531886D01*
X35611904Y-45381886D02*
X35611904Y-44531886D01*
X35611904Y-44531886D02*
X36097619Y-45381886D01*
X36097619Y-45381886D02*
X36097619Y-44531886D01*
X36947619Y-44572362D02*
X36866666Y-44531886D01*
X36866666Y-44531886D02*
X36745238Y-44531886D01*
X36745238Y-44531886D02*
X36623809Y-44572362D01*
X36623809Y-44572362D02*
X36542857Y-44653314D01*
X36542857Y-44653314D02*
X36502380Y-44734267D01*
X36502380Y-44734267D02*
X36461904Y-44896171D01*
X36461904Y-44896171D02*
X36461904Y-45017600D01*
X36461904Y-45017600D02*
X36502380Y-45179505D01*
X36502380Y-45179505D02*
X36542857Y-45260457D01*
X36542857Y-45260457D02*
X36623809Y-45341410D01*
X36623809Y-45341410D02*
X36745238Y-45381886D01*
X36745238Y-45381886D02*
X36826190Y-45381886D01*
X36826190Y-45381886D02*
X36947619Y-45341410D01*
X36947619Y-45341410D02*
X36988095Y-45300933D01*
X36988095Y-45300933D02*
X36988095Y-45017600D01*
X36988095Y-45017600D02*
X36826190Y-45017600D01*
D14*
X21390476Y-58203855D02*
X21390476Y-58851474D01*
X21390476Y-58851474D02*
X21428571Y-58927664D01*
X21428571Y-58927664D02*
X21466666Y-58965760D01*
X21466666Y-58965760D02*
X21542857Y-59003855D01*
X21542857Y-59003855D02*
X21695238Y-59003855D01*
X21695238Y-59003855D02*
X21771428Y-58965760D01*
X21771428Y-58965760D02*
X21809523Y-58927664D01*
X21809523Y-58927664D02*
X21847619Y-58851474D01*
X21847619Y-58851474D02*
X21847619Y-58203855D01*
X22152380Y-58203855D02*
X22647618Y-58203855D01*
X22647618Y-58203855D02*
X22380952Y-58508617D01*
X22380952Y-58508617D02*
X22495237Y-58508617D01*
X22495237Y-58508617D02*
X22571428Y-58546712D01*
X22571428Y-58546712D02*
X22609523Y-58584807D01*
X22609523Y-58584807D02*
X22647618Y-58660998D01*
X22647618Y-58660998D02*
X22647618Y-58851474D01*
X22647618Y-58851474D02*
X22609523Y-58927664D01*
X22609523Y-58927664D02*
X22571428Y-58965760D01*
X22571428Y-58965760D02*
X22495237Y-59003855D01*
X22495237Y-59003855D02*
X22266666Y-59003855D01*
X22266666Y-59003855D02*
X22190475Y-58965760D01*
X22190475Y-58965760D02*
X22152380Y-58927664D01*
D13*
X8400003Y-52158373D02*
X8000003Y-52158373D01*
X8200003Y-52158373D02*
X8200003Y-51458373D01*
X8200003Y-51458373D02*
X8133336Y-51558373D01*
X8133336Y-51558373D02*
X8066670Y-51625040D01*
X8066670Y-51625040D02*
X8000003Y-51658373D01*
X9233336Y-51891706D02*
X9766670Y-51891706D01*
X10000003Y-51458373D02*
X10233337Y-52158373D01*
X10233337Y-52158373D02*
X10466670Y-51458373D01*
X10700003Y-52158373D02*
X10700003Y-51691706D01*
X10700003Y-51458373D02*
X10666670Y-51491706D01*
X10666670Y-51491706D02*
X10700003Y-51525040D01*
X10700003Y-51525040D02*
X10733337Y-51491706D01*
X10733337Y-51491706D02*
X10700003Y-51458373D01*
X10700003Y-51458373D02*
X10700003Y-51525040D01*
X11033336Y-51691706D02*
X11033336Y-52158373D01*
X11033336Y-51758373D02*
X11066670Y-51725040D01*
X11066670Y-51725040D02*
X11133336Y-51691706D01*
X11133336Y-51691706D02*
X11233336Y-51691706D01*
X11233336Y-51691706D02*
X11300003Y-51725040D01*
X11300003Y-51725040D02*
X11333336Y-51791706D01*
X11333336Y-51791706D02*
X11333336Y-52158373D01*
X12700002Y-51525040D02*
X12733335Y-51491706D01*
X12733335Y-51491706D02*
X12800002Y-51458373D01*
X12800002Y-51458373D02*
X12966669Y-51458373D01*
X12966669Y-51458373D02*
X13033335Y-51491706D01*
X13033335Y-51491706D02*
X13066669Y-51525040D01*
X13066669Y-51525040D02*
X13100002Y-51591706D01*
X13100002Y-51591706D02*
X13100002Y-51658373D01*
X13100002Y-51658373D02*
X13066669Y-51758373D01*
X13066669Y-51758373D02*
X12666669Y-52158373D01*
X12666669Y-52158373D02*
X13100002Y-52158373D01*
X13933335Y-51891706D02*
X14466669Y-51891706D01*
X14200002Y-52158373D02*
X14200002Y-51625040D01*
X14700002Y-51458373D02*
X14933336Y-52158373D01*
X14933336Y-52158373D02*
X15166669Y-51458373D01*
X15400002Y-52158373D02*
X15400002Y-51691706D01*
X15400002Y-51458373D02*
X15366669Y-51491706D01*
X15366669Y-51491706D02*
X15400002Y-51525040D01*
X15400002Y-51525040D02*
X15433336Y-51491706D01*
X15433336Y-51491706D02*
X15400002Y-51458373D01*
X15400002Y-51458373D02*
X15400002Y-51525040D01*
X15733335Y-51691706D02*
X15733335Y-52158373D01*
X15733335Y-51758373D02*
X15766669Y-51725040D01*
X15766669Y-51725040D02*
X15833335Y-51691706D01*
X15833335Y-51691706D02*
X15933335Y-51691706D01*
X15933335Y-51691706D02*
X16000002Y-51725040D01*
X16000002Y-51725040D02*
X16033335Y-51791706D01*
X16033335Y-51791706D02*
X16033335Y-52158373D01*
X17366668Y-51458373D02*
X17800001Y-51458373D01*
X17800001Y-51458373D02*
X17566668Y-51725040D01*
X17566668Y-51725040D02*
X17666668Y-51725040D01*
X17666668Y-51725040D02*
X17733334Y-51758373D01*
X17733334Y-51758373D02*
X17766668Y-51791706D01*
X17766668Y-51791706D02*
X17800001Y-51858373D01*
X17800001Y-51858373D02*
X17800001Y-52025040D01*
X17800001Y-52025040D02*
X17766668Y-52091706D01*
X17766668Y-52091706D02*
X17733334Y-52125040D01*
X17733334Y-52125040D02*
X17666668Y-52158373D01*
X17666668Y-52158373D02*
X17466668Y-52158373D01*
X17466668Y-52158373D02*
X17400001Y-52125040D01*
X17400001Y-52125040D02*
X17366668Y-52091706D01*
X19033334Y-52158373D02*
X18800001Y-51825040D01*
X18633334Y-52158373D02*
X18633334Y-51458373D01*
X18633334Y-51458373D02*
X18900001Y-51458373D01*
X18900001Y-51458373D02*
X18966668Y-51491706D01*
X18966668Y-51491706D02*
X19000001Y-51525040D01*
X19000001Y-51525040D02*
X19033334Y-51591706D01*
X19033334Y-51591706D02*
X19033334Y-51691706D01*
X19033334Y-51691706D02*
X19000001Y-51758373D01*
X19000001Y-51758373D02*
X18966668Y-51791706D01*
X18966668Y-51791706D02*
X18900001Y-51825040D01*
X18900001Y-51825040D02*
X18633334Y-51825040D01*
X19333334Y-52158373D02*
X19333334Y-51691706D01*
X19333334Y-51758373D02*
X19366668Y-51725040D01*
X19366668Y-51725040D02*
X19433334Y-51691706D01*
X19433334Y-51691706D02*
X19533334Y-51691706D01*
X19533334Y-51691706D02*
X19600001Y-51725040D01*
X19600001Y-51725040D02*
X19633334Y-51791706D01*
X19633334Y-51791706D02*
X19633334Y-52158373D01*
X19633334Y-51791706D02*
X19666668Y-51725040D01*
X19666668Y-51725040D02*
X19733334Y-51691706D01*
X19733334Y-51691706D02*
X19833334Y-51691706D01*
X19833334Y-51691706D02*
X19900001Y-51725040D01*
X19900001Y-51725040D02*
X19933334Y-51791706D01*
X19933334Y-51791706D02*
X19933334Y-52158373D01*
X20166667Y-51691706D02*
X20433334Y-51691706D01*
X20266667Y-51458373D02*
X20266667Y-52058373D01*
X20266667Y-52058373D02*
X20300001Y-52125040D01*
X20300001Y-52125040D02*
X20366667Y-52158373D01*
X20366667Y-52158373D02*
X20433334Y-52158373D01*
X25233331Y-51458373D02*
X25099998Y-51458373D01*
X25099998Y-51458373D02*
X25033331Y-51491706D01*
X25033331Y-51491706D02*
X24999998Y-51525040D01*
X24999998Y-51525040D02*
X24933331Y-51625040D01*
X24933331Y-51625040D02*
X24899998Y-51758373D01*
X24899998Y-51758373D02*
X24899998Y-52025040D01*
X24899998Y-52025040D02*
X24933331Y-52091706D01*
X24933331Y-52091706D02*
X24966665Y-52125040D01*
X24966665Y-52125040D02*
X25033331Y-52158373D01*
X25033331Y-52158373D02*
X25166665Y-52158373D01*
X25166665Y-52158373D02*
X25233331Y-52125040D01*
X25233331Y-52125040D02*
X25266665Y-52091706D01*
X25266665Y-52091706D02*
X25299998Y-52025040D01*
X25299998Y-52025040D02*
X25299998Y-51858373D01*
X25299998Y-51858373D02*
X25266665Y-51791706D01*
X25266665Y-51791706D02*
X25233331Y-51758373D01*
X25233331Y-51758373D02*
X25166665Y-51725040D01*
X25166665Y-51725040D02*
X25033331Y-51725040D01*
X25033331Y-51725040D02*
X24966665Y-51758373D01*
X24966665Y-51758373D02*
X24933331Y-51791706D01*
X24933331Y-51791706D02*
X24899998Y-51858373D01*
X26133331Y-51891706D02*
X26666665Y-51891706D01*
X26399998Y-52158373D02*
X26399998Y-51625040D01*
X26899998Y-51458373D02*
X27133332Y-52158373D01*
X27133332Y-52158373D02*
X27366665Y-51458373D01*
X27699998Y-52158373D02*
X27633332Y-52125040D01*
X27633332Y-52125040D02*
X27599998Y-52091706D01*
X27599998Y-52091706D02*
X27566665Y-52025040D01*
X27566665Y-52025040D02*
X27566665Y-51825040D01*
X27566665Y-51825040D02*
X27599998Y-51758373D01*
X27599998Y-51758373D02*
X27633332Y-51725040D01*
X27633332Y-51725040D02*
X27699998Y-51691706D01*
X27699998Y-51691706D02*
X27799998Y-51691706D01*
X27799998Y-51691706D02*
X27866665Y-51725040D01*
X27866665Y-51725040D02*
X27899998Y-51758373D01*
X27899998Y-51758373D02*
X27933332Y-51825040D01*
X27933332Y-51825040D02*
X27933332Y-52025040D01*
X27933332Y-52025040D02*
X27899998Y-52091706D01*
X27899998Y-52091706D02*
X27866665Y-52125040D01*
X27866665Y-52125040D02*
X27799998Y-52158373D01*
X27799998Y-52158373D02*
X27699998Y-52158373D01*
X29233331Y-51458373D02*
X29699997Y-51458373D01*
X29699997Y-51458373D02*
X29399997Y-52158373D01*
X30499997Y-51891706D02*
X31033331Y-51891706D01*
X31266664Y-51458373D02*
X31499998Y-52158373D01*
X31499998Y-52158373D02*
X31733331Y-51458373D01*
X32066664Y-52158373D02*
X31999998Y-52125040D01*
X31999998Y-52125040D02*
X31966664Y-52091706D01*
X31966664Y-52091706D02*
X31933331Y-52025040D01*
X31933331Y-52025040D02*
X31933331Y-51825040D01*
X31933331Y-51825040D02*
X31966664Y-51758373D01*
X31966664Y-51758373D02*
X31999998Y-51725040D01*
X31999998Y-51725040D02*
X32066664Y-51691706D01*
X32066664Y-51691706D02*
X32166664Y-51691706D01*
X32166664Y-51691706D02*
X32233331Y-51725040D01*
X32233331Y-51725040D02*
X32266664Y-51758373D01*
X32266664Y-51758373D02*
X32299998Y-51825040D01*
X32299998Y-51825040D02*
X32299998Y-52025040D01*
X32299998Y-52025040D02*
X32266664Y-52091706D01*
X32266664Y-52091706D02*
X32233331Y-52125040D01*
X32233331Y-52125040D02*
X32166664Y-52158373D01*
X32166664Y-52158373D02*
X32066664Y-52158373D01*
X33766663Y-51758373D02*
X33699997Y-51725040D01*
X33699997Y-51725040D02*
X33666663Y-51691706D01*
X33666663Y-51691706D02*
X33633330Y-51625040D01*
X33633330Y-51625040D02*
X33633330Y-51591706D01*
X33633330Y-51591706D02*
X33666663Y-51525040D01*
X33666663Y-51525040D02*
X33699997Y-51491706D01*
X33699997Y-51491706D02*
X33766663Y-51458373D01*
X33766663Y-51458373D02*
X33899997Y-51458373D01*
X33899997Y-51458373D02*
X33966663Y-51491706D01*
X33966663Y-51491706D02*
X33999997Y-51525040D01*
X33999997Y-51525040D02*
X34033330Y-51591706D01*
X34033330Y-51591706D02*
X34033330Y-51625040D01*
X34033330Y-51625040D02*
X33999997Y-51691706D01*
X33999997Y-51691706D02*
X33966663Y-51725040D01*
X33966663Y-51725040D02*
X33899997Y-51758373D01*
X33899997Y-51758373D02*
X33766663Y-51758373D01*
X33766663Y-51758373D02*
X33699997Y-51791706D01*
X33699997Y-51791706D02*
X33666663Y-51825040D01*
X33666663Y-51825040D02*
X33633330Y-51891706D01*
X33633330Y-51891706D02*
X33633330Y-52025040D01*
X33633330Y-52025040D02*
X33666663Y-52091706D01*
X33666663Y-52091706D02*
X33699997Y-52125040D01*
X33699997Y-52125040D02*
X33766663Y-52158373D01*
X33766663Y-52158373D02*
X33899997Y-52158373D01*
X33899997Y-52158373D02*
X33966663Y-52125040D01*
X33966663Y-52125040D02*
X33999997Y-52091706D01*
X33999997Y-52091706D02*
X34033330Y-52025040D01*
X34033330Y-52025040D02*
X34033330Y-51891706D01*
X34033330Y-51891706D02*
X33999997Y-51825040D01*
X33999997Y-51825040D02*
X33966663Y-51791706D01*
X33966663Y-51791706D02*
X33899997Y-51758373D01*
X34866663Y-52158373D02*
X34866663Y-51458373D01*
X34866663Y-51458373D02*
X35266663Y-52158373D01*
X35266663Y-52158373D02*
X35266663Y-51458373D01*
X35999996Y-52091706D02*
X35966663Y-52125040D01*
X35966663Y-52125040D02*
X35866663Y-52158373D01*
X35866663Y-52158373D02*
X35799996Y-52158373D01*
X35799996Y-52158373D02*
X35699996Y-52125040D01*
X35699996Y-52125040D02*
X35633330Y-52058373D01*
X35633330Y-52058373D02*
X35599996Y-51991706D01*
X35599996Y-51991706D02*
X35566663Y-51858373D01*
X35566663Y-51858373D02*
X35566663Y-51758373D01*
X35566663Y-51758373D02*
X35599996Y-51625040D01*
X35599996Y-51625040D02*
X35633330Y-51558373D01*
X35633330Y-51558373D02*
X35699996Y-51491706D01*
X35699996Y-51491706D02*
X35799996Y-51458373D01*
X35799996Y-51458373D02*
X35866663Y-51458373D01*
X35866663Y-51458373D02*
X35966663Y-51491706D01*
X35966663Y-51491706D02*
X35999996Y-51525040D01*
D14*
X21483333Y-28767593D02*
X21483333Y-28067593D01*
X21483333Y-28067593D02*
X21650000Y-28067593D01*
X21650000Y-28067593D02*
X21750000Y-28100926D01*
X21750000Y-28100926D02*
X21816667Y-28167593D01*
X21816667Y-28167593D02*
X21850000Y-28234260D01*
X21850000Y-28234260D02*
X21883333Y-28367593D01*
X21883333Y-28367593D02*
X21883333Y-28467593D01*
X21883333Y-28467593D02*
X21850000Y-28600926D01*
X21850000Y-28600926D02*
X21816667Y-28667593D01*
X21816667Y-28667593D02*
X21750000Y-28734260D01*
X21750000Y-28734260D02*
X21650000Y-28767593D01*
X21650000Y-28767593D02*
X21483333Y-28767593D01*
X22150000Y-28134260D02*
X22183333Y-28100926D01*
X22183333Y-28100926D02*
X22250000Y-28067593D01*
X22250000Y-28067593D02*
X22416667Y-28067593D01*
X22416667Y-28067593D02*
X22483333Y-28100926D01*
X22483333Y-28100926D02*
X22516667Y-28134260D01*
X22516667Y-28134260D02*
X22550000Y-28200926D01*
X22550000Y-28200926D02*
X22550000Y-28267593D01*
X22550000Y-28267593D02*
X22516667Y-28367593D01*
X22516667Y-28367593D02*
X22116667Y-28767593D01*
X22116667Y-28767593D02*
X22550000Y-28767593D01*
D16*
X9738095Y-26804819D02*
X9738095Y-25804819D01*
X10309523Y-26804819D02*
X9880952Y-26233390D01*
X10309523Y-25804819D02*
X9738095Y-26376247D01*
D14*
X35233333Y-65023855D02*
X35233333Y-65595283D01*
X35233333Y-65595283D02*
X35195238Y-65709569D01*
X35195238Y-65709569D02*
X35119047Y-65785760D01*
X35119047Y-65785760D02*
X35004762Y-65823855D01*
X35004762Y-65823855D02*
X34928571Y-65823855D01*
X35576190Y-65100045D02*
X35614286Y-65061950D01*
X35614286Y-65061950D02*
X35690476Y-65023855D01*
X35690476Y-65023855D02*
X35880952Y-65023855D01*
X35880952Y-65023855D02*
X35957143Y-65061950D01*
X35957143Y-65061950D02*
X35995238Y-65100045D01*
X35995238Y-65100045D02*
X36033333Y-65176236D01*
X36033333Y-65176236D02*
X36033333Y-65252426D01*
X36033333Y-65252426D02*
X35995238Y-65366712D01*
X35995238Y-65366712D02*
X35538095Y-65823855D01*
X35538095Y-65823855D02*
X36033333Y-65823855D01*
X32890476Y-11213855D02*
X32890476Y-11861474D01*
X32890476Y-11861474D02*
X32928571Y-11937664D01*
X32928571Y-11937664D02*
X32966666Y-11975760D01*
X32966666Y-11975760D02*
X33042857Y-12013855D01*
X33042857Y-12013855D02*
X33195238Y-12013855D01*
X33195238Y-12013855D02*
X33271428Y-11975760D01*
X33271428Y-11975760D02*
X33309523Y-11937664D01*
X33309523Y-11937664D02*
X33347619Y-11861474D01*
X33347619Y-11861474D02*
X33347619Y-11213855D01*
X33690475Y-11290045D02*
X33728571Y-11251950D01*
X33728571Y-11251950D02*
X33804761Y-11213855D01*
X33804761Y-11213855D02*
X33995237Y-11213855D01*
X33995237Y-11213855D02*
X34071428Y-11251950D01*
X34071428Y-11251950D02*
X34109523Y-11290045D01*
X34109523Y-11290045D02*
X34147618Y-11366236D01*
X34147618Y-11366236D02*
X34147618Y-11442426D01*
X34147618Y-11442426D02*
X34109523Y-11556712D01*
X34109523Y-11556712D02*
X33652380Y-12013855D01*
X33652380Y-12013855D02*
X34147618Y-12013855D01*
X14866667Y-13763855D02*
X14600000Y-13382902D01*
X14409524Y-13763855D02*
X14409524Y-12963855D01*
X14409524Y-12963855D02*
X14714286Y-12963855D01*
X14714286Y-12963855D02*
X14790476Y-13001950D01*
X14790476Y-13001950D02*
X14828571Y-13040045D01*
X14828571Y-13040045D02*
X14866667Y-13116236D01*
X14866667Y-13116236D02*
X14866667Y-13230521D01*
X14866667Y-13230521D02*
X14828571Y-13306712D01*
X14828571Y-13306712D02*
X14790476Y-13344807D01*
X14790476Y-13344807D02*
X14714286Y-13382902D01*
X14714286Y-13382902D02*
X14409524Y-13382902D01*
X15628571Y-13763855D02*
X15171428Y-13763855D01*
X15400000Y-13763855D02*
X15400000Y-12963855D01*
X15400000Y-12963855D02*
X15323809Y-13078140D01*
X15323809Y-13078140D02*
X15247619Y-13154331D01*
X15247619Y-13154331D02*
X15171428Y-13192426D01*
X17773333Y-47194807D02*
X17506667Y-47194807D01*
X17506667Y-47613855D02*
X17506667Y-46813855D01*
X17506667Y-46813855D02*
X17887619Y-46813855D01*
X18611428Y-47613855D02*
X18154285Y-47613855D01*
X18382857Y-47613855D02*
X18382857Y-46813855D01*
X18382857Y-46813855D02*
X18306666Y-46928140D01*
X18306666Y-46928140D02*
X18230476Y-47004331D01*
X18230476Y-47004331D02*
X18154285Y-47042426D01*
X3863855Y-45121666D02*
X4435283Y-45121666D01*
X4435283Y-45121666D02*
X4549569Y-45159761D01*
X4549569Y-45159761D02*
X4625760Y-45235952D01*
X4625760Y-45235952D02*
X4663855Y-45350237D01*
X4663855Y-45350237D02*
X4663855Y-45426428D01*
X4663855Y-44321666D02*
X4663855Y-44778809D01*
X4663855Y-44550237D02*
X3863855Y-44550237D01*
X3863855Y-44550237D02*
X3978140Y-44626428D01*
X3978140Y-44626428D02*
X4054331Y-44702618D01*
X4054331Y-44702618D02*
X4092426Y-44778809D01*
X31366667Y-23187664D02*
X31328571Y-23225760D01*
X31328571Y-23225760D02*
X31214286Y-23263855D01*
X31214286Y-23263855D02*
X31138095Y-23263855D01*
X31138095Y-23263855D02*
X31023809Y-23225760D01*
X31023809Y-23225760D02*
X30947619Y-23149569D01*
X30947619Y-23149569D02*
X30909524Y-23073379D01*
X30909524Y-23073379D02*
X30871428Y-22920998D01*
X30871428Y-22920998D02*
X30871428Y-22806712D01*
X30871428Y-22806712D02*
X30909524Y-22654331D01*
X30909524Y-22654331D02*
X30947619Y-22578140D01*
X30947619Y-22578140D02*
X31023809Y-22501950D01*
X31023809Y-22501950D02*
X31138095Y-22463855D01*
X31138095Y-22463855D02*
X31214286Y-22463855D01*
X31214286Y-22463855D02*
X31328571Y-22501950D01*
X31328571Y-22501950D02*
X31366667Y-22540045D01*
X31633333Y-22463855D02*
X32128571Y-22463855D01*
X32128571Y-22463855D02*
X31861905Y-22768617D01*
X31861905Y-22768617D02*
X31976190Y-22768617D01*
X31976190Y-22768617D02*
X32052381Y-22806712D01*
X32052381Y-22806712D02*
X32090476Y-22844807D01*
X32090476Y-22844807D02*
X32128571Y-22920998D01*
X32128571Y-22920998D02*
X32128571Y-23111474D01*
X32128571Y-23111474D02*
X32090476Y-23187664D01*
X32090476Y-23187664D02*
X32052381Y-23225760D01*
X32052381Y-23225760D02*
X31976190Y-23263855D01*
X31976190Y-23263855D02*
X31747619Y-23263855D01*
X31747619Y-23263855D02*
X31671428Y-23225760D01*
X31671428Y-23225760D02*
X31633333Y-23187664D01*
X21483333Y-32267593D02*
X21483333Y-31567593D01*
X21483333Y-31567593D02*
X21650000Y-31567593D01*
X21650000Y-31567593D02*
X21750000Y-31600926D01*
X21750000Y-31600926D02*
X21816667Y-31667593D01*
X21816667Y-31667593D02*
X21850000Y-31734260D01*
X21850000Y-31734260D02*
X21883333Y-31867593D01*
X21883333Y-31867593D02*
X21883333Y-31967593D01*
X21883333Y-31967593D02*
X21850000Y-32100926D01*
X21850000Y-32100926D02*
X21816667Y-32167593D01*
X21816667Y-32167593D02*
X21750000Y-32234260D01*
X21750000Y-32234260D02*
X21650000Y-32267593D01*
X21650000Y-32267593D02*
X21483333Y-32267593D01*
X22116667Y-31567593D02*
X22550000Y-31567593D01*
X22550000Y-31567593D02*
X22316667Y-31834260D01*
X22316667Y-31834260D02*
X22416667Y-31834260D01*
X22416667Y-31834260D02*
X22483333Y-31867593D01*
X22483333Y-31867593D02*
X22516667Y-31900926D01*
X22516667Y-31900926D02*
X22550000Y-31967593D01*
X22550000Y-31967593D02*
X22550000Y-32134260D01*
X22550000Y-32134260D02*
X22516667Y-32200926D01*
X22516667Y-32200926D02*
X22483333Y-32234260D01*
X22483333Y-32234260D02*
X22416667Y-32267593D01*
X22416667Y-32267593D02*
X22216667Y-32267593D01*
X22216667Y-32267593D02*
X22150000Y-32234260D01*
X22150000Y-32234260D02*
X22116667Y-32200926D01*
D16*
X9738095Y-30304819D02*
X9738095Y-29304819D01*
X10309523Y-30304819D02*
X9880952Y-29733390D01*
X10309523Y-29304819D02*
X9738095Y-29876247D01*
D14*
X19660476Y-2463855D02*
X19660476Y-1663855D01*
X19660476Y-2044807D02*
X20117619Y-2044807D01*
X20117619Y-2463855D02*
X20117619Y-1663855D01*
X20460475Y-1740045D02*
X20498571Y-1701950D01*
X20498571Y-1701950D02*
X20574761Y-1663855D01*
X20574761Y-1663855D02*
X20765237Y-1663855D01*
X20765237Y-1663855D02*
X20841428Y-1701950D01*
X20841428Y-1701950D02*
X20879523Y-1740045D01*
X20879523Y-1740045D02*
X20917618Y-1816236D01*
X20917618Y-1816236D02*
X20917618Y-1892426D01*
X20917618Y-1892426D02*
X20879523Y-2006712D01*
X20879523Y-2006712D02*
X20422380Y-2463855D01*
X20422380Y-2463855D02*
X20917618Y-2463855D01*
D13*
X17970000Y-7218373D02*
X17570000Y-7218373D01*
X17770000Y-7218373D02*
X17770000Y-6518373D01*
X17770000Y-6518373D02*
X17703333Y-6618373D01*
X17703333Y-6618373D02*
X17636667Y-6685040D01*
X17636667Y-6685040D02*
X17570000Y-6718373D01*
D14*
X18416667Y-73423855D02*
X18416667Y-72623855D01*
X18416667Y-72623855D02*
X18721429Y-72623855D01*
X18721429Y-72623855D02*
X18797619Y-72661950D01*
X18797619Y-72661950D02*
X18835714Y-72700045D01*
X18835714Y-72700045D02*
X18873810Y-72776236D01*
X18873810Y-72776236D02*
X18873810Y-72890521D01*
X18873810Y-72890521D02*
X18835714Y-72966712D01*
X18835714Y-72966712D02*
X18797619Y-73004807D01*
X18797619Y-73004807D02*
X18721429Y-73042902D01*
X18721429Y-73042902D02*
X18416667Y-73042902D01*
X19483333Y-73004807D02*
X19216667Y-73004807D01*
X19216667Y-73423855D02*
X19216667Y-72623855D01*
X19216667Y-72623855D02*
X19597619Y-72623855D01*
X20321428Y-73423855D02*
X19864285Y-73423855D01*
X20092857Y-73423855D02*
X20092857Y-72623855D01*
X20092857Y-72623855D02*
X20016666Y-72738140D01*
X20016666Y-72738140D02*
X19940476Y-72814331D01*
X19940476Y-72814331D02*
X19864285Y-72852426D01*
X12066667Y-9187664D02*
X12028571Y-9225760D01*
X12028571Y-9225760D02*
X11914286Y-9263855D01*
X11914286Y-9263855D02*
X11838095Y-9263855D01*
X11838095Y-9263855D02*
X11723809Y-9225760D01*
X11723809Y-9225760D02*
X11647619Y-9149569D01*
X11647619Y-9149569D02*
X11609524Y-9073379D01*
X11609524Y-9073379D02*
X11571428Y-8920998D01*
X11571428Y-8920998D02*
X11571428Y-8806712D01*
X11571428Y-8806712D02*
X11609524Y-8654331D01*
X11609524Y-8654331D02*
X11647619Y-8578140D01*
X11647619Y-8578140D02*
X11723809Y-8501950D01*
X11723809Y-8501950D02*
X11838095Y-8463855D01*
X11838095Y-8463855D02*
X11914286Y-8463855D01*
X11914286Y-8463855D02*
X12028571Y-8501950D01*
X12028571Y-8501950D02*
X12066667Y-8540045D01*
X12828571Y-9263855D02*
X12371428Y-9263855D01*
X12600000Y-9263855D02*
X12600000Y-8463855D01*
X12600000Y-8463855D02*
X12523809Y-8578140D01*
X12523809Y-8578140D02*
X12447619Y-8654331D01*
X12447619Y-8654331D02*
X12371428Y-8692426D01*
X21487664Y-69633332D02*
X21525760Y-69671428D01*
X21525760Y-69671428D02*
X21563855Y-69785713D01*
X21563855Y-69785713D02*
X21563855Y-69861904D01*
X21563855Y-69861904D02*
X21525760Y-69976190D01*
X21525760Y-69976190D02*
X21449569Y-70052380D01*
X21449569Y-70052380D02*
X21373379Y-70090475D01*
X21373379Y-70090475D02*
X21220998Y-70128571D01*
X21220998Y-70128571D02*
X21106712Y-70128571D01*
X21106712Y-70128571D02*
X20954331Y-70090475D01*
X20954331Y-70090475D02*
X20878140Y-70052380D01*
X20878140Y-70052380D02*
X20801950Y-69976190D01*
X20801950Y-69976190D02*
X20763855Y-69861904D01*
X20763855Y-69861904D02*
X20763855Y-69785713D01*
X20763855Y-69785713D02*
X20801950Y-69671428D01*
X20801950Y-69671428D02*
X20840045Y-69633332D01*
X21030521Y-68947618D02*
X21563855Y-68947618D01*
X20725760Y-69138094D02*
X21297188Y-69328571D01*
X21297188Y-69328571D02*
X21297188Y-68833332D01*
X21483333Y-35767593D02*
X21483333Y-35067593D01*
X21483333Y-35067593D02*
X21650000Y-35067593D01*
X21650000Y-35067593D02*
X21750000Y-35100926D01*
X21750000Y-35100926D02*
X21816667Y-35167593D01*
X21816667Y-35167593D02*
X21850000Y-35234260D01*
X21850000Y-35234260D02*
X21883333Y-35367593D01*
X21883333Y-35367593D02*
X21883333Y-35467593D01*
X21883333Y-35467593D02*
X21850000Y-35600926D01*
X21850000Y-35600926D02*
X21816667Y-35667593D01*
X21816667Y-35667593D02*
X21750000Y-35734260D01*
X21750000Y-35734260D02*
X21650000Y-35767593D01*
X21650000Y-35767593D02*
X21483333Y-35767593D01*
X22483333Y-35300926D02*
X22483333Y-35767593D01*
X22316667Y-35034260D02*
X22150000Y-35534260D01*
X22150000Y-35534260D02*
X22583333Y-35534260D01*
D16*
X9738095Y-33804819D02*
X9738095Y-32804819D01*
X10309523Y-33804819D02*
X9880952Y-33233390D01*
X10309523Y-32804819D02*
X9738095Y-33376247D01*
D14*
X6983333Y-82463855D02*
X6983333Y-83035283D01*
X6983333Y-83035283D02*
X6945238Y-83149569D01*
X6945238Y-83149569D02*
X6869047Y-83225760D01*
X6869047Y-83225760D02*
X6754762Y-83263855D01*
X6754762Y-83263855D02*
X6678571Y-83263855D01*
X7288095Y-82463855D02*
X7783333Y-82463855D01*
X7783333Y-82463855D02*
X7516667Y-82768617D01*
X7516667Y-82768617D02*
X7630952Y-82768617D01*
X7630952Y-82768617D02*
X7707143Y-82806712D01*
X7707143Y-82806712D02*
X7745238Y-82844807D01*
X7745238Y-82844807D02*
X7783333Y-82920998D01*
X7783333Y-82920998D02*
X7783333Y-83111474D01*
X7783333Y-83111474D02*
X7745238Y-83187664D01*
X7745238Y-83187664D02*
X7707143Y-83225760D01*
X7707143Y-83225760D02*
X7630952Y-83263855D01*
X7630952Y-83263855D02*
X7402381Y-83263855D01*
X7402381Y-83263855D02*
X7326190Y-83225760D01*
X7326190Y-83225760D02*
X7288095Y-83187664D01*
D13*
X8700000Y-78418373D02*
X8300000Y-78418373D01*
X8500000Y-78418373D02*
X8500000Y-77718373D01*
X8500000Y-77718373D02*
X8433333Y-77818373D01*
X8433333Y-77818373D02*
X8366667Y-77885040D01*
X8366667Y-77885040D02*
X8300000Y-77918373D01*
D14*
X26033333Y-64963855D02*
X26033333Y-65535283D01*
X26033333Y-65535283D02*
X25995238Y-65649569D01*
X25995238Y-65649569D02*
X25919047Y-65725760D01*
X25919047Y-65725760D02*
X25804762Y-65763855D01*
X25804762Y-65763855D02*
X25728571Y-65763855D01*
X26757143Y-65230521D02*
X26757143Y-65763855D01*
X26566667Y-64925760D02*
X26376190Y-65497188D01*
X26376190Y-65497188D02*
X26871429Y-65497188D01*
X21483333Y-25267593D02*
X21483333Y-24567593D01*
X21483333Y-24567593D02*
X21650000Y-24567593D01*
X21650000Y-24567593D02*
X21750000Y-24600926D01*
X21750000Y-24600926D02*
X21816667Y-24667593D01*
X21816667Y-24667593D02*
X21850000Y-24734260D01*
X21850000Y-24734260D02*
X21883333Y-24867593D01*
X21883333Y-24867593D02*
X21883333Y-24967593D01*
X21883333Y-24967593D02*
X21850000Y-25100926D01*
X21850000Y-25100926D02*
X21816667Y-25167593D01*
X21816667Y-25167593D02*
X21750000Y-25234260D01*
X21750000Y-25234260D02*
X21650000Y-25267593D01*
X21650000Y-25267593D02*
X21483333Y-25267593D01*
X22550000Y-25267593D02*
X22150000Y-25267593D01*
X22350000Y-25267593D02*
X22350000Y-24567593D01*
X22350000Y-24567593D02*
X22283333Y-24667593D01*
X22283333Y-24667593D02*
X22216667Y-24734260D01*
X22216667Y-24734260D02*
X22150000Y-24767593D01*
D16*
X9738095Y-23304819D02*
X9738095Y-22304819D01*
X10309523Y-23304819D02*
X9880952Y-22733390D01*
X10309523Y-22304819D02*
X9738095Y-22876247D01*
D14*
X32360476Y-2463855D02*
X32360476Y-1663855D01*
X32360476Y-2044807D02*
X32817619Y-2044807D01*
X32817619Y-2463855D02*
X32817619Y-1663855D01*
X33122380Y-1663855D02*
X33617618Y-1663855D01*
X33617618Y-1663855D02*
X33350952Y-1968617D01*
X33350952Y-1968617D02*
X33465237Y-1968617D01*
X33465237Y-1968617D02*
X33541428Y-2006712D01*
X33541428Y-2006712D02*
X33579523Y-2044807D01*
X33579523Y-2044807D02*
X33617618Y-2120998D01*
X33617618Y-2120998D02*
X33617618Y-2311474D01*
X33617618Y-2311474D02*
X33579523Y-2387664D01*
X33579523Y-2387664D02*
X33541428Y-2425760D01*
X33541428Y-2425760D02*
X33465237Y-2463855D01*
X33465237Y-2463855D02*
X33236666Y-2463855D01*
X33236666Y-2463855D02*
X33160475Y-2425760D01*
X33160475Y-2425760D02*
X33122380Y-2387664D01*
D13*
X30670000Y-7218373D02*
X30270000Y-7218373D01*
X30470000Y-7218373D02*
X30470000Y-6518373D01*
X30470000Y-6518373D02*
X30403333Y-6618373D01*
X30403333Y-6618373D02*
X30336667Y-6685040D01*
X30336667Y-6685040D02*
X30270000Y-6718373D01*
D14*
X6960476Y-2463855D02*
X6960476Y-1663855D01*
X6960476Y-2044807D02*
X7417619Y-2044807D01*
X7417619Y-2463855D02*
X7417619Y-1663855D01*
X8217618Y-2463855D02*
X7760475Y-2463855D01*
X7989047Y-2463855D02*
X7989047Y-1663855D01*
X7989047Y-1663855D02*
X7912856Y-1778140D01*
X7912856Y-1778140D02*
X7836666Y-1854331D01*
X7836666Y-1854331D02*
X7760475Y-1892426D01*
D13*
X5270000Y-7218373D02*
X4870000Y-7218373D01*
X5070000Y-7218373D02*
X5070000Y-6518373D01*
X5070000Y-6518373D02*
X5003333Y-6618373D01*
X5003333Y-6618373D02*
X4936667Y-6685040D01*
X4936667Y-6685040D02*
X4870000Y-6718373D01*
D14*
X9063855Y-15366666D02*
X9635283Y-15366666D01*
X9635283Y-15366666D02*
X9749569Y-15404761D01*
X9749569Y-15404761D02*
X9825760Y-15480952D01*
X9825760Y-15480952D02*
X9863855Y-15595237D01*
X9863855Y-15595237D02*
X9863855Y-15671428D01*
X9863855Y-14985713D02*
X9063855Y-14985713D01*
X9063855Y-14985713D02*
X9063855Y-14680951D01*
X9063855Y-14680951D02*
X9101950Y-14604761D01*
X9101950Y-14604761D02*
X9140045Y-14566666D01*
X9140045Y-14566666D02*
X9216236Y-14528570D01*
X9216236Y-14528570D02*
X9330521Y-14528570D01*
X9330521Y-14528570D02*
X9406712Y-14566666D01*
X9406712Y-14566666D02*
X9444807Y-14604761D01*
X9444807Y-14604761D02*
X9482902Y-14680951D01*
X9482902Y-14680951D02*
X9482902Y-14985713D01*
X9863855Y-13766666D02*
X9863855Y-14223809D01*
X9863855Y-13995237D02*
X9063855Y-13995237D01*
X9063855Y-13995237D02*
X9178140Y-14071428D01*
X9178140Y-14071428D02*
X9254331Y-14147618D01*
X9254331Y-14147618D02*
X9292426Y-14223809D01*
X27866667Y-13287664D02*
X27828571Y-13325760D01*
X27828571Y-13325760D02*
X27714286Y-13363855D01*
X27714286Y-13363855D02*
X27638095Y-13363855D01*
X27638095Y-13363855D02*
X27523809Y-13325760D01*
X27523809Y-13325760D02*
X27447619Y-13249569D01*
X27447619Y-13249569D02*
X27409524Y-13173379D01*
X27409524Y-13173379D02*
X27371428Y-13020998D01*
X27371428Y-13020998D02*
X27371428Y-12906712D01*
X27371428Y-12906712D02*
X27409524Y-12754331D01*
X27409524Y-12754331D02*
X27447619Y-12678140D01*
X27447619Y-12678140D02*
X27523809Y-12601950D01*
X27523809Y-12601950D02*
X27638095Y-12563855D01*
X27638095Y-12563855D02*
X27714286Y-12563855D01*
X27714286Y-12563855D02*
X27828571Y-12601950D01*
X27828571Y-12601950D02*
X27866667Y-12640045D01*
X28171428Y-12640045D02*
X28209524Y-12601950D01*
X28209524Y-12601950D02*
X28285714Y-12563855D01*
X28285714Y-12563855D02*
X28476190Y-12563855D01*
X28476190Y-12563855D02*
X28552381Y-12601950D01*
X28552381Y-12601950D02*
X28590476Y-12640045D01*
X28590476Y-12640045D02*
X28628571Y-12716236D01*
X28628571Y-12716236D02*
X28628571Y-12792426D01*
X28628571Y-12792426D02*
X28590476Y-12906712D01*
X28590476Y-12906712D02*
X28133333Y-13363855D01*
X28133333Y-13363855D02*
X28628571Y-13363855D01*
X3890476Y-15863855D02*
X3890476Y-16511474D01*
X3890476Y-16511474D02*
X3928571Y-16587664D01*
X3928571Y-16587664D02*
X3966666Y-16625760D01*
X3966666Y-16625760D02*
X4042857Y-16663855D01*
X4042857Y-16663855D02*
X4195238Y-16663855D01*
X4195238Y-16663855D02*
X4271428Y-16625760D01*
X4271428Y-16625760D02*
X4309523Y-16587664D01*
X4309523Y-16587664D02*
X4347619Y-16511474D01*
X4347619Y-16511474D02*
X4347619Y-15863855D01*
X5147618Y-16663855D02*
X4690475Y-16663855D01*
X4919047Y-16663855D02*
X4919047Y-15863855D01*
X4919047Y-15863855D02*
X4842856Y-15978140D01*
X4842856Y-15978140D02*
X4766666Y-16054331D01*
X4766666Y-16054331D02*
X4690475Y-16092426D01*
X29609523Y-72763855D02*
X30066666Y-72763855D01*
X29838094Y-73563855D02*
X29838094Y-72763855D01*
X30295237Y-73525760D02*
X30409523Y-73563855D01*
X30409523Y-73563855D02*
X30599999Y-73563855D01*
X30599999Y-73563855D02*
X30676190Y-73525760D01*
X30676190Y-73525760D02*
X30714285Y-73487664D01*
X30714285Y-73487664D02*
X30752380Y-73411474D01*
X30752380Y-73411474D02*
X30752380Y-73335283D01*
X30752380Y-73335283D02*
X30714285Y-73259093D01*
X30714285Y-73259093D02*
X30676190Y-73220998D01*
X30676190Y-73220998D02*
X30599999Y-73182902D01*
X30599999Y-73182902D02*
X30447618Y-73144807D01*
X30447618Y-73144807D02*
X30371428Y-73106712D01*
X30371428Y-73106712D02*
X30333333Y-73068617D01*
X30333333Y-73068617D02*
X30295237Y-72992426D01*
X30295237Y-72992426D02*
X30295237Y-72916236D01*
X30295237Y-72916236D02*
X30333333Y-72840045D01*
X30333333Y-72840045D02*
X30371428Y-72801950D01*
X30371428Y-72801950D02*
X30447618Y-72763855D01*
X30447618Y-72763855D02*
X30638095Y-72763855D01*
X30638095Y-72763855D02*
X30752380Y-72801950D01*
X31514285Y-73563855D02*
X31057142Y-73563855D01*
X31285714Y-73563855D02*
X31285714Y-72763855D01*
X31285714Y-72763855D02*
X31209523Y-72878140D01*
X31209523Y-72878140D02*
X31133333Y-72954331D01*
X31133333Y-72954331D02*
X31057142Y-72992426D01*
D17*
X30085714Y-77872891D02*
X30314286Y-77872891D01*
X30171429Y-77672891D02*
X30171429Y-78187177D01*
X30171429Y-78187177D02*
X30200000Y-78244320D01*
X30200000Y-78244320D02*
X30257143Y-78272891D01*
X30257143Y-78272891D02*
X30314286Y-78272891D01*
X30514286Y-78272891D02*
X30514286Y-77872891D01*
X30514286Y-77672891D02*
X30485714Y-77701462D01*
X30485714Y-77701462D02*
X30514286Y-77730034D01*
X30514286Y-77730034D02*
X30542857Y-77701462D01*
X30542857Y-77701462D02*
X30514286Y-77672891D01*
X30514286Y-77672891D02*
X30514286Y-77730034D01*
X31028571Y-78244320D02*
X30971428Y-78272891D01*
X30971428Y-78272891D02*
X30857143Y-78272891D01*
X30857143Y-78272891D02*
X30800000Y-78244320D01*
X30800000Y-78244320D02*
X30771428Y-78187177D01*
X30771428Y-78187177D02*
X30771428Y-77958605D01*
X30771428Y-77958605D02*
X30800000Y-77901462D01*
X30800000Y-77901462D02*
X30857143Y-77872891D01*
X30857143Y-77872891D02*
X30971428Y-77872891D01*
X30971428Y-77872891D02*
X31028571Y-77901462D01*
X31028571Y-77901462D02*
X31057143Y-77958605D01*
X31057143Y-77958605D02*
X31057143Y-78015748D01*
X31057143Y-78015748D02*
X30771428Y-78072891D01*
D14*
X22333333Y-12963855D02*
X22333333Y-13535283D01*
X22333333Y-13535283D02*
X22295238Y-13649569D01*
X22295238Y-13649569D02*
X22219047Y-13725760D01*
X22219047Y-13725760D02*
X22104762Y-13763855D01*
X22104762Y-13763855D02*
X22028571Y-13763855D01*
X22714286Y-13763855D02*
X22714286Y-12963855D01*
X22714286Y-12963855D02*
X23019048Y-12963855D01*
X23019048Y-12963855D02*
X23095238Y-13001950D01*
X23095238Y-13001950D02*
X23133333Y-13040045D01*
X23133333Y-13040045D02*
X23171429Y-13116236D01*
X23171429Y-13116236D02*
X23171429Y-13230521D01*
X23171429Y-13230521D02*
X23133333Y-13306712D01*
X23133333Y-13306712D02*
X23095238Y-13344807D01*
X23095238Y-13344807D02*
X23019048Y-13382902D01*
X23019048Y-13382902D02*
X22714286Y-13382902D01*
X23476190Y-13040045D02*
X23514286Y-13001950D01*
X23514286Y-13001950D02*
X23590476Y-12963855D01*
X23590476Y-12963855D02*
X23780952Y-12963855D01*
X23780952Y-12963855D02*
X23857143Y-13001950D01*
X23857143Y-13001950D02*
X23895238Y-13040045D01*
X23895238Y-13040045D02*
X23933333Y-13116236D01*
X23933333Y-13116236D02*
X23933333Y-13192426D01*
X23933333Y-13192426D02*
X23895238Y-13306712D01*
X23895238Y-13306712D02*
X23438095Y-13763855D01*
X23438095Y-13763855D02*
X23933333Y-13763855D01*
G04 #@! TO.C,U3*
X10900000Y-50400000D02*
X33100000Y-50400000D01*
X33100000Y-60200000D01*
X10900000Y-60200000D01*
X10900000Y-50400000D01*
G04 #@! TO.C,D2*
X11340000Y-28450000D02*
X12360000Y-28450000D01*
X13140000Y-26980000D02*
X13140000Y-29920000D01*
X13260000Y-26980000D02*
X13260000Y-29920000D01*
X13380000Y-26980000D02*
X13380000Y-29920000D01*
X18820000Y-28450000D02*
X17800000Y-28450000D01*
X12360000Y-26980000D02*
X17800000Y-26980000D01*
X17800000Y-29920000D01*
X12360000Y-29920000D01*
X12360000Y-26980000D01*
G04 #@! TO.C,U2*
X31440000Y-12490000D02*
X35560000Y-12490000D01*
X31440000Y-12585000D02*
X31440000Y-12490000D01*
X31440000Y-17610000D02*
X31440000Y-17515000D01*
X35560000Y-12490000D02*
X35560000Y-12585000D01*
X35560000Y-17515000D02*
X35560000Y-17610000D01*
X35560000Y-17610000D02*
X31440000Y-17610000D01*
X30900000Y-12580000D02*
X30660000Y-12250000D01*
X31140000Y-12250000D01*
X30900000Y-12580000D01*
G36*
X30900000Y-12580000D02*
G01*
X30660000Y-12250000D01*
X31140000Y-12250000D01*
X30900000Y-12580000D01*
G37*
G04 #@! TO.C,R1*
X18860000Y-10800000D02*
X19630000Y-10800000D01*
X26940000Y-10800000D02*
X26170000Y-10800000D01*
X19630000Y-9430000D02*
X26170000Y-9430000D01*
X26170000Y-12170000D01*
X19630000Y-12170000D01*
X19630000Y-9430000D01*
G04 #@! TO.C,F1*
X11540000Y-42950000D02*
X24540000Y-42950000D01*
X24540000Y-46050000D01*
X11540000Y-46050000D01*
X11540000Y-42950000D01*
G04 #@! TO.C,J1*
X1690000Y-57340000D02*
X1690000Y-47660000D01*
X4560000Y-46390000D02*
X6160000Y-46390000D01*
X4560000Y-58610000D02*
X6160000Y-58610000D01*
X6160000Y-46390000D02*
X6160000Y-48190000D01*
X6160000Y-56810000D02*
X7100000Y-56810000D01*
X6160000Y-58610000D02*
X6160000Y-56810000D01*
G04 #@! TO.C,C3*
X24682918Y-26425000D02*
X25932918Y-26425000D01*
X25307918Y-25800000D02*
X25307918Y-27050000D01*
X31500000Y-23670000D02*
X31500000Y-36330000D01*
X31540000Y-23670000D02*
X31540000Y-36330000D01*
X31580000Y-23671000D02*
X31580000Y-36329000D01*
X31620000Y-23671000D02*
X31620000Y-36329000D01*
X31660000Y-23672000D02*
X31660000Y-36328000D01*
X31700000Y-23673000D02*
X31700000Y-36327000D01*
X31740000Y-23675000D02*
X31740000Y-36325000D01*
X31780000Y-23676000D02*
X31780000Y-36324000D01*
X31820000Y-23678000D02*
X31820000Y-36322000D01*
X31860000Y-23680000D02*
X31860000Y-36320000D01*
X31900000Y-23683000D02*
X31900000Y-36317000D01*
X31940000Y-23685000D02*
X31940000Y-36315000D01*
X31980000Y-23688000D02*
X31980000Y-36312000D01*
X32020000Y-23691000D02*
X32020000Y-36309000D01*
X32060000Y-23695000D02*
X32060000Y-36305000D01*
X32100000Y-23698000D02*
X32100000Y-36302000D01*
X32140000Y-23702000D02*
X32140000Y-36298000D01*
X32180000Y-23706000D02*
X32180000Y-36294000D01*
X32220000Y-23711000D02*
X32220000Y-36289000D01*
X32260000Y-23716000D02*
X32260000Y-36284000D01*
X32300000Y-23720000D02*
X32300000Y-36280000D01*
X32340000Y-23726000D02*
X32340000Y-36274000D01*
X32380000Y-23731000D02*
X32380000Y-36269000D01*
X32420000Y-23737000D02*
X32420000Y-36263000D01*
X32460000Y-23743000D02*
X32460000Y-36257000D01*
X32500000Y-23749000D02*
X32500000Y-36251000D01*
X32540000Y-23755000D02*
X32540000Y-36245000D01*
X32580000Y-23762000D02*
X32580000Y-28560000D01*
X32580000Y-31440000D02*
X32580000Y-36238000D01*
X32620000Y-23769000D02*
X32620000Y-28560000D01*
X32620000Y-31440000D02*
X32620000Y-36231000D01*
X32660000Y-23777000D02*
X32660000Y-28560000D01*
X32660000Y-31440000D02*
X32660000Y-36223000D01*
X32700000Y-23784000D02*
X32700000Y-28560000D01*
X32700000Y-31440000D02*
X32700000Y-36216000D01*
X32740000Y-23792000D02*
X32740000Y-28560000D01*
X32740000Y-31440000D02*
X32740000Y-36208000D01*
X32780000Y-23800000D02*
X32780000Y-28560000D01*
X32780000Y-31440000D02*
X32780000Y-36200000D01*
X32820000Y-23808000D02*
X32820000Y-28560000D01*
X32820000Y-31440000D02*
X32820000Y-36192000D01*
X32860000Y-23817000D02*
X32860000Y-28560000D01*
X32860000Y-31440000D02*
X32860000Y-36183000D01*
X32900000Y-23826000D02*
X32900000Y-28560000D01*
X32900000Y-31440000D02*
X32900000Y-36174000D01*
X32940000Y-23835000D02*
X32940000Y-28560000D01*
X32940000Y-31440000D02*
X32940000Y-36165000D01*
X32980000Y-23844000D02*
X32980000Y-28560000D01*
X32980000Y-31440000D02*
X32980000Y-36156000D01*
X33020000Y-23854000D02*
X33020000Y-28560000D01*
X33020000Y-31440000D02*
X33020000Y-36146000D01*
X33060000Y-23864000D02*
X33060000Y-28560000D01*
X33060000Y-31440000D02*
X33060000Y-36136000D01*
X33100000Y-23874000D02*
X33100000Y-28560000D01*
X33100000Y-31440000D02*
X33100000Y-36126000D01*
X33140000Y-23885000D02*
X33140000Y-28560000D01*
X33140000Y-31440000D02*
X33140000Y-36115000D01*
X33180000Y-23896000D02*
X33180000Y-28560000D01*
X33180000Y-31440000D02*
X33180000Y-36104000D01*
X33220000Y-23907000D02*
X33220000Y-28560000D01*
X33220000Y-31440000D02*
X33220000Y-36093000D01*
X33260000Y-23918000D02*
X33260000Y-28560000D01*
X33260000Y-31440000D02*
X33260000Y-36082000D01*
X33300000Y-23930000D02*
X33300000Y-28560000D01*
X33300000Y-31440000D02*
X33300000Y-36070000D01*
X33340000Y-23942000D02*
X33340000Y-28560000D01*
X33340000Y-31440000D02*
X33340000Y-36058000D01*
X33380000Y-23954000D02*
X33380000Y-28560000D01*
X33380000Y-31440000D02*
X33380000Y-36046000D01*
X33420000Y-23966000D02*
X33420000Y-28560000D01*
X33420000Y-31440000D02*
X33420000Y-36034000D01*
X33460000Y-23979000D02*
X33460000Y-28560000D01*
X33460000Y-31440000D02*
X33460000Y-36021000D01*
X33500000Y-23992000D02*
X33500000Y-28560000D01*
X33500000Y-31440000D02*
X33500000Y-36008000D01*
X33540000Y-24005000D02*
X33540000Y-28560000D01*
X33540000Y-31440000D02*
X33540000Y-35995000D01*
X33580000Y-24019000D02*
X33580000Y-28560000D01*
X33580000Y-31440000D02*
X33580000Y-35981000D01*
X33620000Y-24033000D02*
X33620000Y-28560000D01*
X33620000Y-31440000D02*
X33620000Y-35967000D01*
X33660000Y-24047000D02*
X33660000Y-28560000D01*
X33660000Y-31440000D02*
X33660000Y-35953000D01*
X33700000Y-24062000D02*
X33700000Y-28560000D01*
X33700000Y-31440000D02*
X33700000Y-35938000D01*
X33740000Y-24077000D02*
X33740000Y-28560000D01*
X33740000Y-31440000D02*
X33740000Y-35923000D01*
X33780000Y-24092000D02*
X33780000Y-28560000D01*
X33780000Y-31440000D02*
X33780000Y-35908000D01*
X33820000Y-24108000D02*
X33820000Y-28560000D01*
X33820000Y-31440000D02*
X33820000Y-35892000D01*
X33860000Y-24123000D02*
X33860000Y-28560000D01*
X33860000Y-31440000D02*
X33860000Y-35877000D01*
X33900000Y-24139000D02*
X33900000Y-28560000D01*
X33900000Y-31440000D02*
X33900000Y-35861000D01*
X33940000Y-24156000D02*
X33940000Y-28560000D01*
X33940000Y-31440000D02*
X33940000Y-35844000D01*
X33980000Y-24173000D02*
X33980000Y-28560000D01*
X33980000Y-31440000D02*
X33980000Y-35827000D01*
X34020000Y-24190000D02*
X34020000Y-28560000D01*
X34020000Y-31440000D02*
X34020000Y-35810000D01*
X34060000Y-24207000D02*
X34060000Y-28560000D01*
X34060000Y-31440000D02*
X34060000Y-35793000D01*
X34100000Y-24225000D02*
X34100000Y-28560000D01*
X34100000Y-31440000D02*
X34100000Y-35775000D01*
X34140000Y-24243000D02*
X34140000Y-28560000D01*
X34140000Y-31440000D02*
X34140000Y-35757000D01*
X34180000Y-24261000D02*
X34180000Y-28560000D01*
X34180000Y-31440000D02*
X34180000Y-35739000D01*
X34220000Y-24280000D02*
X34220000Y-28560000D01*
X34220000Y-31440000D02*
X34220000Y-35720000D01*
X34260000Y-24299000D02*
X34260000Y-28560000D01*
X34260000Y-31440000D02*
X34260000Y-35701000D01*
X34300000Y-24318000D02*
X34300000Y-28560000D01*
X34300000Y-31440000D02*
X34300000Y-35682000D01*
X34340000Y-24338000D02*
X34340000Y-28560000D01*
X34340000Y-31440000D02*
X34340000Y-35662000D01*
X34380000Y-24358000D02*
X34380000Y-28560000D01*
X34380000Y-31440000D02*
X34380000Y-35642000D01*
X34420000Y-24379000D02*
X34420000Y-28560000D01*
X34420000Y-31440000D02*
X34420000Y-35621000D01*
X34460000Y-24399000D02*
X34460000Y-28560000D01*
X34460000Y-31440000D02*
X34460000Y-35601000D01*
X34500000Y-24421000D02*
X34500000Y-28560000D01*
X34500000Y-31440000D02*
X34500000Y-35579000D01*
X34540000Y-24442000D02*
X34540000Y-28560000D01*
X34540000Y-31440000D02*
X34540000Y-35558000D01*
X34580000Y-24464000D02*
X34580000Y-28560000D01*
X34580000Y-31440000D02*
X34580000Y-35536000D01*
X34620000Y-24486000D02*
X34620000Y-28560000D01*
X34620000Y-31440000D02*
X34620000Y-35514000D01*
X34660000Y-24509000D02*
X34660000Y-28560000D01*
X34660000Y-31440000D02*
X34660000Y-35491000D01*
X34700000Y-24532000D02*
X34700000Y-28560000D01*
X34700000Y-31440000D02*
X34700000Y-35468000D01*
X34740000Y-24556000D02*
X34740000Y-28560000D01*
X34740000Y-31440000D02*
X34740000Y-35444000D01*
X34780000Y-24579000D02*
X34780000Y-28560000D01*
X34780000Y-31440000D02*
X34780000Y-35421000D01*
X34820000Y-24604000D02*
X34820000Y-28560000D01*
X34820000Y-31440000D02*
X34820000Y-35396000D01*
X34860000Y-24628000D02*
X34860000Y-28560000D01*
X34860000Y-31440000D02*
X34860000Y-35372000D01*
X34900000Y-24653000D02*
X34900000Y-28560000D01*
X34900000Y-31440000D02*
X34900000Y-35347000D01*
X34940000Y-24679000D02*
X34940000Y-28560000D01*
X34940000Y-31440000D02*
X34940000Y-35321000D01*
X34980000Y-24705000D02*
X34980000Y-28560000D01*
X34980000Y-31440000D02*
X34980000Y-35295000D01*
X35020000Y-24731000D02*
X35020000Y-28560000D01*
X35020000Y-31440000D02*
X35020000Y-35269000D01*
X35060000Y-24758000D02*
X35060000Y-28560000D01*
X35060000Y-31440000D02*
X35060000Y-35242000D01*
X35100000Y-24785000D02*
X35100000Y-28560000D01*
X35100000Y-31440000D02*
X35100000Y-35215000D01*
X35140000Y-24812000D02*
X35140000Y-28560000D01*
X35140000Y-31440000D02*
X35140000Y-35188000D01*
X35180000Y-24841000D02*
X35180000Y-28560000D01*
X35180000Y-31440000D02*
X35180000Y-35159000D01*
X35220000Y-24869000D02*
X35220000Y-28560000D01*
X35220000Y-31440000D02*
X35220000Y-35131000D01*
X35260000Y-24898000D02*
X35260000Y-28560000D01*
X35260000Y-31440000D02*
X35260000Y-35102000D01*
X35300000Y-24928000D02*
X35300000Y-28560000D01*
X35300000Y-31440000D02*
X35300000Y-35072000D01*
X35340000Y-24958000D02*
X35340000Y-28560000D01*
X35340000Y-31440000D02*
X35340000Y-35042000D01*
X35380000Y-24988000D02*
X35380000Y-28560000D01*
X35380000Y-31440000D02*
X35380000Y-35012000D01*
X35420000Y-25019000D02*
X35420000Y-28560000D01*
X35420000Y-31440000D02*
X35420000Y-34981000D01*
X35460000Y-25050000D02*
X35460000Y-34950000D01*
X35500000Y-25082000D02*
X35500000Y-34918000D01*
X35540000Y-25115000D02*
X35540000Y-34885000D01*
X35580000Y-25148000D02*
X35580000Y-34852000D01*
X35620000Y-25182000D02*
X35620000Y-34818000D01*
X35660000Y-25216000D02*
X35660000Y-34784000D01*
X35700000Y-25251000D02*
X35700000Y-34749000D01*
X35740000Y-25286000D02*
X35740000Y-34714000D01*
X35780000Y-25322000D02*
X35780000Y-34678000D01*
X35820000Y-25359000D02*
X35820000Y-34641000D01*
X35860000Y-25396000D02*
X35860000Y-34604000D01*
X35900000Y-25434000D02*
X35900000Y-34566000D01*
X35940000Y-25472000D02*
X35940000Y-34528000D01*
X35980000Y-25512000D02*
X35980000Y-34488000D01*
X36020000Y-25552000D02*
X36020000Y-34448000D01*
X36060000Y-25592000D02*
X36060000Y-34408000D01*
X36100000Y-25634000D02*
X36100000Y-34366000D01*
X36140000Y-25676000D02*
X36140000Y-34324000D01*
X36180000Y-25719000D02*
X36180000Y-34281000D01*
X36220000Y-25762000D02*
X36220000Y-34238000D01*
X36260000Y-25807000D02*
X36260000Y-34193000D01*
X36300000Y-25852000D02*
X36300000Y-34148000D01*
X36340000Y-25899000D02*
X36340000Y-34101000D01*
X36380000Y-25946000D02*
X36380000Y-34054000D01*
X36420000Y-25994000D02*
X36420000Y-34006000D01*
X36460000Y-26043000D02*
X36460000Y-33957000D01*
X36500000Y-26093000D02*
X36500000Y-33907000D01*
X36540000Y-26144000D02*
X36540000Y-33856000D01*
X36580000Y-26197000D02*
X36580000Y-33803000D01*
X36620000Y-26250000D02*
X36620000Y-33750000D01*
X36660000Y-26305000D02*
X36660000Y-33695000D01*
X36700000Y-26361000D02*
X36700000Y-33639000D01*
X36740000Y-26418000D02*
X36740000Y-33582000D01*
X36780000Y-26477000D02*
X36780000Y-33523000D01*
X36820000Y-26537000D02*
X36820000Y-33463000D01*
X36860000Y-26598000D02*
X36860000Y-33402000D01*
X36900000Y-26661000D02*
X36900000Y-33339000D01*
X36940000Y-26726000D02*
X36940000Y-33274000D01*
X36980000Y-26792000D02*
X36980000Y-33208000D01*
X37020000Y-26861000D02*
X37020000Y-33139000D01*
X37060000Y-26931000D02*
X37060000Y-33069000D01*
X37100000Y-27004000D02*
X37100000Y-32996000D01*
X37140000Y-27079000D02*
X37140000Y-32921000D01*
X37180000Y-27157000D02*
X37180000Y-32843000D01*
X37220000Y-27237000D02*
X37220000Y-32763000D01*
X37260000Y-27320000D02*
X37260000Y-32680000D01*
X37300000Y-27406000D02*
X37300000Y-32594000D01*
X37340000Y-27496000D02*
X37340000Y-32504000D01*
X37380000Y-27590000D02*
X37380000Y-32410000D01*
X37420000Y-27688000D02*
X37420000Y-32312000D01*
X37460000Y-27792000D02*
X37460000Y-32208000D01*
X37500000Y-27901000D02*
X37500000Y-32099000D01*
X37540000Y-28016000D02*
X37540000Y-31984000D01*
X37580000Y-28140000D02*
X37580000Y-31860000D01*
X37620000Y-28273000D02*
X37620000Y-31727000D01*
X37660000Y-28418000D02*
X37660000Y-31582000D01*
X37700000Y-28578000D02*
X37700000Y-31422000D01*
X37740000Y-28760000D02*
X37740000Y-31240000D01*
X37780000Y-28973000D02*
X37780000Y-31027000D01*
X37820000Y-29243000D02*
X37820000Y-30757000D01*
X37860000Y-29683000D02*
X37860000Y-30317000D01*
X37870000Y-30000000D02*
G75*
G02*
X25130000Y-30000000I-6370000J0D01*
G01*
X25130000Y-30000000D02*
G75*
G02*
X37870000Y-30000000I6370000J0D01*
G01*
G04 #@! TO.C,D3*
X11340000Y-31950000D02*
X12360000Y-31950000D01*
X13140000Y-30480000D02*
X13140000Y-33420000D01*
X13260000Y-30480000D02*
X13260000Y-33420000D01*
X13380000Y-30480000D02*
X13380000Y-33420000D01*
X18820000Y-31950000D02*
X17800000Y-31950000D01*
X12360000Y-30480000D02*
X17800000Y-30480000D01*
X17800000Y-33420000D01*
X12360000Y-33420000D01*
X12360000Y-30480000D01*
G04 #@! TO.C,H2*
X15570001Y1800000D02*
X24969999Y1800000D01*
X24969999Y-5900000D01*
X15570001Y-5900000D01*
X15570001Y1800000D01*
G04 #@! TO.C,C1*
X8580000Y-9630000D02*
X15820000Y-9630000D01*
X8580000Y-12370000D02*
X8580000Y-9630000D01*
X15820000Y-9630000D02*
X15820000Y-12370000D01*
X15820000Y-12370000D02*
X8580000Y-12370000D01*
G04 #@! TO.C,C4*
X21930000Y-65880000D02*
X24670000Y-65880000D01*
X21930000Y-73120000D02*
X21930000Y-65880000D01*
X24670000Y-65880000D02*
X24670000Y-73120000D01*
X24670000Y-73120000D02*
X21930000Y-73120000D01*
G04 #@! TO.C,D4*
X11340000Y-35450000D02*
X12360000Y-35450000D01*
X13140000Y-33980000D02*
X13140000Y-36920000D01*
X13260000Y-33980000D02*
X13260000Y-36920000D01*
X13380000Y-33980000D02*
X13380000Y-36920000D01*
X18820000Y-35450000D02*
X17800000Y-35450000D01*
X12360000Y-33980000D02*
X17800000Y-33980000D01*
X17800000Y-36920000D01*
X12360000Y-36920000D01*
X12360000Y-33980000D01*
G04 #@! TO.C,J3*
X3800000Y-79100000D02*
X10700000Y-79100000D01*
X10700000Y-86800000D01*
X3800000Y-86800000D01*
X3800000Y-79100000D01*
G04 #@! TO.C,J4*
X25150000Y-66450000D02*
X25150000Y-67700000D01*
X25450000Y-69000000D02*
X26200000Y-69000000D01*
X26200000Y-69000000D02*
X26200000Y-71950000D01*
X26200000Y-71950000D02*
X29250000Y-71950000D01*
X26400000Y-66450000D02*
X25150000Y-66450000D01*
X32300000Y-69000000D02*
X32300000Y-71950000D01*
X32300000Y-71950000D02*
X29250000Y-71950000D01*
X33050000Y-69000000D02*
X32300000Y-69000000D01*
X25440000Y-66740000D02*
X33060000Y-66740000D01*
X33060000Y-72710000D01*
X25440000Y-72710000D01*
X25440000Y-66740000D01*
X25450000Y-66750000D02*
X27250000Y-66750000D01*
X27250000Y-67500000D01*
X25450000Y-67500000D01*
X25450000Y-66750000D01*
X28750000Y-66750000D02*
X29750000Y-66750000D01*
X29750000Y-67500000D01*
X28750000Y-67500000D01*
X28750000Y-66750000D01*
X31250000Y-66750000D02*
X33050000Y-66750000D01*
X33050000Y-67500000D01*
X31250000Y-67500000D01*
X31250000Y-66750000D01*
G04 #@! TO.C,D1*
X11340000Y-24950000D02*
X12360000Y-24950000D01*
X13140000Y-23480000D02*
X13140000Y-26420000D01*
X13260000Y-23480000D02*
X13260000Y-26420000D01*
X13380000Y-23480000D02*
X13380000Y-26420000D01*
X18820000Y-24950000D02*
X17800000Y-24950000D01*
X12360000Y-23480000D02*
X17800000Y-23480000D01*
X17800000Y-26420000D01*
X12360000Y-26420000D01*
X12360000Y-23480000D01*
G04 #@! TO.C,H3*
X28270001Y1800000D02*
X37669999Y1800000D01*
X37669999Y-5900000D01*
X28270001Y-5900000D01*
X28270001Y1800000D01*
G04 #@! TO.C,H1*
X2870001Y1800000D02*
X12269999Y1800000D01*
X12269999Y-5900000D01*
X2870001Y-5900000D01*
X2870001Y1800000D01*
G04 #@! TO.C,JP1*
X10300000Y-15400000D02*
X10300000Y-14000000D01*
X11000000Y-13300000D02*
X11600000Y-13300000D01*
X11600000Y-16100000D02*
X11000000Y-16100000D01*
X12300000Y-14000000D02*
X12300000Y-15400000D01*
X10300000Y-14000000D02*
G75*
G02*
X11000000Y-13300000I700000J0D01*
G01*
X11000000Y-16100000D02*
G75*
G02*
X10300000Y-15400000I-1J699999D01*
G01*
X11600000Y-13300000D02*
G75*
G02*
X12300000Y-14000000I0J-700000D01*
G01*
X12300000Y-15400000D02*
G75*
G02*
X11600000Y-16100000I-699999J-1D01*
G01*
G04 #@! TO.C,C2*
X29680000Y-9030000D02*
X36920000Y-9030000D01*
X29680000Y-11770000D02*
X29680000Y-9030000D01*
X36920000Y-9030000D02*
X36920000Y-11770000D01*
X36920000Y-11770000D02*
X29680000Y-11770000D01*
G04 #@! TO.C,U1*
X2440000Y-9940000D02*
X6560000Y-9940000D01*
X2440000Y-10035000D02*
X2440000Y-9940000D01*
X2440000Y-15060000D02*
X2440000Y-14965000D01*
X6560000Y-9940000D02*
X6560000Y-10035000D01*
X6560000Y-14965000D02*
X6560000Y-15060000D01*
X6560000Y-15060000D02*
X2440000Y-15060000D01*
X1900000Y-10030000D02*
X1660000Y-9700000D01*
X2140000Y-9700000D01*
X1900000Y-10030000D01*
G36*
X1900000Y-10030000D02*
G01*
X1660000Y-9700000D01*
X2140000Y-9700000D01*
X1900000Y-10030000D01*
G37*
G04 #@! TO.C,JP2*
X20950000Y-15500000D02*
X20950000Y-14900000D01*
X21500000Y-16700000D02*
X22100000Y-16700000D01*
X21600000Y-14200000D02*
X24400000Y-14200000D01*
X21800000Y-16400000D02*
X21500000Y-16700000D01*
X21800000Y-16400000D02*
X22100000Y-16700000D01*
X24400000Y-16200000D02*
X21600000Y-16200000D01*
X25050000Y-14900000D02*
X25050000Y-15500000D01*
X20950000Y-14900000D02*
G75*
G02*
X21650000Y-14200000I699999J1D01*
G01*
X21650000Y-16200000D02*
G75*
G02*
X20950000Y-15500000I-1J699999D01*
G01*
X24350000Y-14200000D02*
G75*
G02*
X25050000Y-14900000I0J-700000D01*
G01*
X25050000Y-15500000D02*
G75*
G02*
X24350000Y-16200000I-700000J0D01*
G01*
G04 #@! TD*
%LPC*%
G04 #@! TO.C,JP1*
G36*
X10550000Y-14550000D02*
G01*
X12050000Y-14550000D01*
X12050000Y-14850000D01*
X10550000Y-14850000D01*
X10550000Y-14550000D01*
G37*
G04 #@! TO.C,JP2*
G36*
X22250000Y-14450000D02*
G01*
X23750000Y-14450000D01*
X23750000Y-15950000D01*
X22250000Y-15950000D01*
X22250000Y-14450000D01*
G37*
G04 #@! TD*
D18*
G04 #@! TO.C,U3*
X13110000Y-54040000D03*
D19*
X15650000Y-54040000D03*
X18190000Y-54040000D03*
X25810000Y-54040000D03*
X28350000Y-54040000D03*
X30890000Y-54040000D03*
G04 #@! TD*
D20*
G04 #@! TO.C,D2*
X10000000Y-28450000D03*
D21*
X20160000Y-28450000D03*
G04 #@! TD*
D22*
G04 #@! TO.C,J2*
X35500000Y-68000000D03*
D23*
X35500000Y-70540000D03*
X35500000Y-73080000D03*
G04 #@! TD*
D24*
G04 #@! TO.C,U2*
X31025000Y-13145000D03*
X31025000Y-14415000D03*
X31025000Y-15685000D03*
X31025000Y-16955000D03*
X35975000Y-16955000D03*
X35975000Y-15685000D03*
X35975000Y-14415000D03*
X35975000Y-13145000D03*
G04 #@! TD*
D23*
G04 #@! TO.C,R1*
X17820000Y-10800000D03*
X27980000Y-10800000D03*
G04 #@! TD*
D18*
G04 #@! TO.C,F1*
X15500000Y-44500000D03*
D19*
X20580000Y-44500000D03*
G04 #@! TD*
D25*
G04 #@! TO.C,J1*
X6250000Y-56250000D03*
X6250000Y-55000000D03*
X6250000Y-53750000D03*
X6250000Y-52500000D03*
X6250000Y-51250000D03*
X6250000Y-50000000D03*
X6250000Y-48750000D03*
D26*
X2900000Y-58100000D03*
X2900000Y-46900000D03*
G04 #@! TD*
D27*
G04 #@! TO.C,C3*
X29000000Y-30000000D03*
D28*
X34000000Y-30000000D03*
G04 #@! TD*
D20*
G04 #@! TO.C,D3*
X10000000Y-31950000D03*
D21*
X20160000Y-31950000D03*
G04 #@! TD*
D29*
G04 #@! TO.C,H2*
X17770000Y-3700000D03*
D30*
X20270000Y-3700000D03*
X22770000Y-3700000D03*
G04 #@! TD*
D23*
G04 #@! TO.C,PF1*
X13000000Y-75600000D03*
X15540000Y-75600000D03*
X18080000Y-75600000D03*
X20620000Y-75600000D03*
X23160000Y-75600000D03*
X25700000Y-75600000D03*
X13000000Y-78140000D03*
X15540000Y-78140000D03*
X18080000Y-78140000D03*
X20620000Y-78140000D03*
X23160000Y-78140000D03*
X25700000Y-78140000D03*
X13000000Y-80680000D03*
X15540000Y-80680000D03*
X18080000Y-80680000D03*
X20620000Y-80680000D03*
X23160000Y-80680000D03*
X25700000Y-80680000D03*
X13000000Y-83220000D03*
X15540000Y-83220000D03*
X18080000Y-83220000D03*
X20620000Y-83220000D03*
X23160000Y-83220000D03*
X25700000Y-83220000D03*
G04 #@! TD*
G04 #@! TO.C,C1*
X9700000Y-11000000D03*
X14700000Y-11000000D03*
G04 #@! TD*
G04 #@! TO.C,C4*
X23300000Y-67000000D03*
X23300000Y-72000000D03*
G04 #@! TD*
D20*
G04 #@! TO.C,D4*
X10000000Y-35450000D03*
D21*
X20160000Y-35450000D03*
G04 #@! TD*
D31*
G04 #@! TO.C,J3*
X8500000Y-81300000D03*
D30*
X6000000Y-81300000D03*
G04 #@! TD*
D32*
G04 #@! TO.C,J4*
X28000000Y-69200000D03*
D33*
X30500000Y-69200000D03*
G04 #@! TD*
D20*
G04 #@! TO.C,D1*
X10000000Y-24950000D03*
D21*
X20160000Y-24950000D03*
G04 #@! TD*
D29*
G04 #@! TO.C,H3*
X30470000Y-3700000D03*
D30*
X32970000Y-3700000D03*
X35470000Y-3700000D03*
G04 #@! TD*
D29*
G04 #@! TO.C,H1*
X5070000Y-3700000D03*
D30*
X7570000Y-3700000D03*
X10070000Y-3700000D03*
G04 #@! TD*
D34*
G04 #@! TO.C,JP1*
X11300000Y-15350000D03*
D35*
X11300000Y-14050000D03*
G04 #@! TD*
D23*
G04 #@! TO.C,C2*
X30800000Y-10400000D03*
X35800000Y-10400000D03*
G04 #@! TD*
D24*
G04 #@! TO.C,U1*
X2025000Y-10595000D03*
X2025000Y-11865000D03*
X2025000Y-13135000D03*
X2025000Y-14405000D03*
X6975000Y-14405000D03*
X6975000Y-13135000D03*
X6975000Y-11865000D03*
X6975000Y-10595000D03*
G04 #@! TD*
D36*
G04 #@! TO.C,TS1*
X28700000Y-75600000D03*
X32500000Y-75600000D03*
G04 #@! TD*
D37*
G04 #@! TO.C,JP2*
X21700000Y-15200000D03*
D38*
X23000000Y-15200000D03*
D39*
X24300000Y-15200000D03*
G04 #@! TD*
%LPD*%
M02*
