G04 #@! TF.GenerationSoftware,KiCad,Pcbnew,10.0.6*
G04 #@! TF.CreationDate,2026-09-27T00:34:58-04:00*
G04 #@! TF.ProjectId,ext-board,6578742d-626f-4617-9264-2e6b69636164,rev?*
G04 #@! TF.SameCoordinates,Original*
G04 #@! TF.FileFunction,Copper,L2,Bot*
G04 #@! TF.FilePolarity,Positive*
%FSLAX46Y46*%
G04 Gerber Fmt 4.6, Leading zero omitted, Abs format (unit mm)*
G04 Created by KiCad (PCBNEW 10.0.6) date 2026-09-27 00:34:58*
%MOMM*%
%LPD*%
G01*
G04 APERTURE LIST*
G04 Aperture macros list*
%AMRoundRect*
0 Rectangle with rounded corners*
0 $1 Rounding radius*
0 $2 $3 $4 $5 $6 $7 $8 $9 X,Y pos of 4 corners*
0 Add a 4 corners polygon primitive as box body*
4,1,4,$2,$3,$4,$5,$6,$7,$8,$9,$2,$3,0*
0 Add four circle primitives for the rounded corners*
1,1,$1+$1,$2,$3*
1,1,$1+$1,$4,$5*
1,1,$1+$1,$6,$7*
1,1,$1+$1,$8,$9*
0 Add four rect primitives between the rounded corners*
20,1,$1+$1,$2,$3,$4,$5,0*
20,1,$1+$1,$4,$5,$6,$7,0*
20,1,$1+$1,$6,$7,$8,$9,0*
20,1,$1+$1,$8,$9,$2,$3,0*%
G04 Aperture macros list end*
G04 #@! TA.AperFunction,ComponentPad*
%ADD10RoundRect,0.487500X-0.487500X-0.487500X0.487500X-0.487500X0.487500X0.487500X-0.487500X0.487500X0*%
G04 #@! TD*
G04 #@! TA.AperFunction,ComponentPad*
%ADD11C,1.950000*%
G04 #@! TD*
G04 #@! TA.AperFunction,ComponentPad*
%ADD12RoundRect,0.400000X-0.400000X-0.400000X0.400000X-0.400000X0.400000X0.400000X-0.400000X0.400000X0*%
G04 #@! TD*
G04 #@! TA.AperFunction,ComponentPad*
%ADD13C,1.600000*%
G04 #@! TD*
G04 #@! TA.AperFunction,ComponentPad*
%ADD14RoundRect,0.249999X-0.850001X-0.850001X0.850001X-0.850001X0.850001X0.850001X-0.850001X0.850001X0*%
G04 #@! TD*
G04 #@! TA.AperFunction,ComponentPad*
%ADD15C,2.200000*%
G04 #@! TD*
G04 #@! TA.AperFunction,ComponentPad*
%ADD16RoundRect,0.450000X-0.450000X-0.450000X0.450000X-0.450000X0.450000X0.450000X-0.450000X0.450000X0*%
G04 #@! TD*
G04 #@! TA.AperFunction,ComponentPad*
%ADD17C,1.800000*%
G04 #@! TD*
G04 #@! TA.AperFunction,ComponentPad*
%ADD18RoundRect,0.487500X0.487500X0.487500X-0.487500X0.487500X-0.487500X-0.487500X0.487500X-0.487500X0*%
G04 #@! TD*
G04 #@! TA.AperFunction,ComponentPad*
%ADD19RoundRect,0.250000X-0.600000X-0.750000X0.600000X-0.750000X0.600000X0.750000X-0.600000X0.750000X0*%
G04 #@! TD*
G04 #@! TA.AperFunction,ComponentPad*
%ADD20O,1.700000X2.000000*%
G04 #@! TD*
G04 #@! TA.AperFunction,ComponentPad*
%ADD21RoundRect,0.250001X-0.949999X-0.949999X0.949999X-0.949999X0.949999X0.949999X-0.949999X0.949999X0*%
G04 #@! TD*
G04 #@! TA.AperFunction,ComponentPad*
%ADD22C,2.400000*%
G04 #@! TD*
G04 #@! TA.AperFunction,ViaPad*
%ADD23C,1.000000*%
G04 #@! TD*
G04 #@! TA.AperFunction,ViaPad*
%ADD24C,0.800000*%
G04 #@! TD*
G04 #@! TA.AperFunction,Conductor*
%ADD25C,0.500000*%
G04 #@! TD*
G04 #@! TA.AperFunction,Conductor*
%ADD26C,0.250000*%
G04 #@! TD*
G04 APERTURE END LIST*
D10*
G04 #@! TO.P,H3,1*
G04 #@! TO.N,VCC*
X30470000Y-3700000D03*
D11*
G04 #@! TO.P,H3,2*
G04 #@! TO.N,H3_DATA*
X32970000Y-3700000D03*
G04 #@! TO.P,H3,3*
G04 #@! TO.N,GND*
X35470000Y-3700000D03*
G04 #@! TD*
D12*
G04 #@! TO.P,J2,1*
G04 #@! TO.N,VCC*
X35500000Y-68000000D03*
D13*
G04 #@! TO.P,J2,2*
G04 #@! TO.N,DATA*
X35500000Y-70540000D03*
G04 #@! TO.P,J2,3*
G04 #@! TO.N,GND*
X35500000Y-73080000D03*
G04 #@! TD*
G04 #@! TO.P,R1,1*
G04 #@! TO.N,VCC*
X17820000Y-10800000D03*
G04 #@! TO.P,R1,2*
G04 #@! TO.N,DATA*
X27980000Y-10800000D03*
G04 #@! TD*
D14*
G04 #@! TO.P,D1,1*
G04 #@! TO.N,VS*
X10000000Y-24950000D03*
D15*
G04 #@! TO.P,D1,2*
G04 #@! TO.N,ACF*
X20160000Y-24950000D03*
G04 #@! TD*
D10*
G04 #@! TO.P,H1,1*
G04 #@! TO.N,VCC*
X5070000Y-3700000D03*
D11*
G04 #@! TO.P,H1,2*
G04 #@! TO.N,DATA*
X7570000Y-3700000D03*
G04 #@! TO.P,H1,3*
G04 #@! TO.N,GND*
X10070000Y-3700000D03*
G04 #@! TD*
D16*
G04 #@! TO.P,F1,1*
G04 #@! TO.N,ACR*
X15500000Y-44500000D03*
D17*
G04 #@! TO.P,F1,2*
G04 #@! TO.N,ACF*
X20580000Y-44500000D03*
G04 #@! TD*
D18*
G04 #@! TO.P,J3,1*
G04 #@! TO.N,ACR*
X8500000Y-81300000D03*
D11*
G04 #@! TO.P,J3,2*
G04 #@! TO.N,ACC*
X6000000Y-81300000D03*
G04 #@! TD*
D14*
G04 #@! TO.P,D3,1*
G04 #@! TO.N,ACF*
X10000000Y-31950000D03*
D15*
G04 #@! TO.P,D3,2*
G04 #@! TO.N,COM*
X20160000Y-31950000D03*
G04 #@! TD*
D13*
G04 #@! TO.P,C2,1*
G04 #@! TO.N,VCC*
X30800000Y-10400000D03*
G04 #@! TO.P,C2,2*
G04 #@! TO.N,GND*
X35800000Y-10400000D03*
G04 #@! TD*
D16*
G04 #@! TO.P,U3,1*
G04 #@! TO.N,COM*
X13110000Y-54040000D03*
D17*
G04 #@! TO.P,U3,2*
G04 #@! TO.N,VS*
X15650000Y-54040000D03*
G04 #@! TO.P,U3,3*
G04 #@! TO.N,N/C*
X18190000Y-54040000D03*
G04 #@! TO.P,U3,6*
G04 #@! TO.N,+5V*
X25810000Y-54040000D03*
G04 #@! TO.P,U3,7*
G04 #@! TO.N,GND*
X28350000Y-54040000D03*
G04 #@! TO.P,U3,8*
G04 #@! TO.N,N/C*
X30890000Y-54040000D03*
G04 #@! TD*
D14*
G04 #@! TO.P,D4,1*
G04 #@! TO.N,ACC*
X10000000Y-35450000D03*
D15*
G04 #@! TO.P,D4,2*
G04 #@! TO.N,COM*
X20160000Y-35450000D03*
G04 #@! TD*
D14*
G04 #@! TO.P,D2,1*
G04 #@! TO.N,VS*
X10000000Y-28450000D03*
D15*
G04 #@! TO.P,D2,2*
G04 #@! TO.N,ACC*
X20160000Y-28450000D03*
G04 #@! TD*
D13*
G04 #@! TO.P,C4,1*
G04 #@! TO.N,+5V*
X23300000Y-67000000D03*
G04 #@! TO.P,C4,2*
G04 #@! TO.N,GND*
X23300000Y-72000000D03*
G04 #@! TD*
D19*
G04 #@! TO.P,J4,1*
G04 #@! TO.N,+5V*
X28000000Y-69200000D03*
D20*
G04 #@! TO.P,J4,2*
G04 #@! TO.N,GND*
X30500000Y-69200000D03*
G04 #@! TD*
D10*
G04 #@! TO.P,H2,1*
G04 #@! TO.N,VCC*
X17770000Y-3700000D03*
D11*
G04 #@! TO.P,H2,2*
G04 #@! TO.N,DATA*
X20270000Y-3700000D03*
G04 #@! TO.P,H2,3*
G04 #@! TO.N,GND*
X22770000Y-3700000D03*
G04 #@! TD*
D13*
G04 #@! TO.P,PF1,1*
G04 #@! TO.N,N/C*
X13000000Y-75600000D03*
G04 #@! TO.P,PF1,2*
X15540000Y-75600000D03*
G04 #@! TO.P,PF1,3*
X18080000Y-75600000D03*
G04 #@! TO.P,PF1,4*
X20620000Y-75600000D03*
G04 #@! TO.P,PF1,5*
X23160000Y-75600000D03*
G04 #@! TO.P,PF1,6*
X25700000Y-75600000D03*
G04 #@! TO.P,PF1,7*
X13000000Y-78140000D03*
G04 #@! TO.P,PF1,8*
X15540000Y-78140000D03*
G04 #@! TO.P,PF1,9*
X18080000Y-78140000D03*
G04 #@! TO.P,PF1,10*
X20620000Y-78140000D03*
G04 #@! TO.P,PF1,11*
X23160000Y-78140000D03*
G04 #@! TO.P,PF1,12*
X25700000Y-78140000D03*
G04 #@! TO.P,PF1,13*
X13000000Y-80680000D03*
G04 #@! TO.P,PF1,14*
X15540000Y-80680000D03*
G04 #@! TO.P,PF1,15*
X18080000Y-80680000D03*
G04 #@! TO.P,PF1,16*
X20620000Y-80680000D03*
G04 #@! TO.P,PF1,17*
X23160000Y-80680000D03*
G04 #@! TO.P,PF1,18*
X25700000Y-80680000D03*
G04 #@! TO.P,PF1,19*
X13000000Y-83220000D03*
G04 #@! TO.P,PF1,20*
X15540000Y-83220000D03*
G04 #@! TO.P,PF1,21*
X18080000Y-83220000D03*
G04 #@! TO.P,PF1,22*
X20620000Y-83220000D03*
G04 #@! TO.P,PF1,23*
X23160000Y-83220000D03*
G04 #@! TO.P,PF1,24*
X25700000Y-83220000D03*
G04 #@! TD*
G04 #@! TO.P,C1,1*
G04 #@! TO.N,VCC*
X9700000Y-11000000D03*
G04 #@! TO.P,C1,2*
G04 #@! TO.N,GND*
X14700000Y-11000000D03*
G04 #@! TD*
D21*
G04 #@! TO.P,C3,1*
G04 #@! TO.N,VS*
X29000000Y-30000000D03*
D22*
G04 #@! TO.P,C3,2*
G04 #@! TO.N,COM*
X34000000Y-30000000D03*
G04 #@! TD*
D23*
G04 #@! TO.N,GND*
X28993800Y-15272400D03*
X20875000Y-67018800D03*
X33509200Y-25071600D03*
D24*
G04 #@! TO.N,SCL*
X32876600Y-16460400D03*
X9247000Y-16054900D03*
G04 #@! TO.N,SDA*
X34386100Y-16955000D03*
X6975000Y-16001100D03*
D23*
G04 #@! TO.N,ACR*
X8500000Y-60005500D03*
G04 #@! TO.N,ACC*
X6000000Y-57592100D03*
G04 #@! TD*
G04 #@! TO.N,VCC*
D25*
X5070000Y-6370000D02*
X5070000Y-3700000D01*
X30800000Y-10400000D02*
X30800000Y-4030000D01*
X9700000Y-11000000D02*
X5070000Y-6370000D01*
X30800000Y-4030000D02*
X30470000Y-3700000D01*
X11258200Y-12558200D02*
X9700000Y-11000000D01*
X16061800Y-12558200D02*
X11258200Y-12558200D01*
X17820000Y-10800000D02*
X16061800Y-12558200D01*
G04 #@! TO.N,GND*
X35988100Y-27550500D02*
X35988100Y-46401900D01*
X30500000Y-70992100D02*
X24307900Y-70992100D01*
X35470000Y-10400000D02*
X35800000Y-10400000D01*
X14700000Y-11000000D02*
X14700000Y-8330000D01*
X14700000Y-8330000D02*
X10070000Y-3700000D01*
X24307900Y-70992100D02*
X24307900Y-70451700D01*
X35470000Y-10400000D02*
X33671700Y-10400000D01*
X30500000Y-69200000D02*
X30500000Y-70951700D01*
X24307900Y-70992100D02*
X23300000Y-72000000D01*
X29505300Y-14566400D02*
X28993800Y-15077900D01*
X33671700Y-10400000D02*
X29505300Y-14566400D01*
X22770000Y-7831200D02*
X15198800Y-7831200D01*
X35470000Y-10400000D02*
X35470000Y-3700000D01*
X28993800Y-15077900D02*
X28993800Y-15272400D01*
X15198800Y-7831200D02*
X14700000Y-8330000D01*
X30500000Y-70951700D02*
X30500000Y-70992100D01*
X33412100Y-70992100D02*
X35500000Y-73080000D01*
X35988100Y-46401900D02*
X28350000Y-54040000D01*
X29505300Y-14566400D02*
X22770000Y-7831200D01*
X22770000Y-7831200D02*
X22770000Y-3700000D01*
X33509200Y-25071600D02*
X35988100Y-27550500D01*
X30500000Y-70992100D02*
X33412100Y-70992100D01*
X24307900Y-70451700D02*
X20875000Y-67018800D01*
G04 #@! TO.N,SCL*
D26*
X9652500Y-16460400D02*
X32876600Y-16460400D01*
X9247000Y-16054900D02*
X9652500Y-16460400D01*
G04 #@! TO.N,SDA*
X8161000Y-17187100D02*
X34154000Y-17187100D01*
X6975000Y-16001100D02*
X8161000Y-17187100D01*
X34154000Y-17187100D02*
X34386100Y-16955000D01*
G04 #@! TO.N,DATA*
X18698700Y-2070100D02*
X20270000Y-3641400D01*
X7570000Y-3700000D02*
X9199900Y-2070100D01*
X9199900Y-2070100D02*
X18698700Y-2070100D01*
X27980000Y-6600700D02*
X27980000Y-10800000D01*
X23461900Y-2082600D02*
X27980000Y-6600700D01*
X21828800Y-2082600D02*
X23461900Y-2082600D01*
X20270000Y-3641400D02*
X21828800Y-2082600D01*
X20270000Y-3700000D02*
X20270000Y-3641400D01*
G04 #@! TO.N,ACF*
D25*
X10000000Y-31950000D02*
X17000000Y-24950000D01*
X17000000Y-24950000D02*
X20160000Y-24950000D01*
G04 #@! TO.N,ACR*
X19861800Y-54761500D02*
X14617900Y-60005400D01*
X19861800Y-48861800D02*
X19861800Y-54761500D01*
X14617900Y-60005400D02*
X8500000Y-60005400D01*
X15500000Y-44500000D02*
X19861800Y-48861800D01*
X8500000Y-60005400D02*
X8500000Y-60005500D01*
G04 #@! TO.N,ACC*
X10000000Y-35450000D02*
X6000000Y-39450000D01*
X13160000Y-35450000D02*
X10000000Y-35450000D01*
X20160000Y-28450000D02*
X13160000Y-35450000D01*
X6000000Y-39450000D02*
X6000000Y-57592100D01*
G04 #@! TO.N,COM*
X13110000Y-54040000D02*
X13110000Y-42500000D01*
X20238800Y-32028800D02*
X20238800Y-35371200D01*
X31971200Y-32028800D02*
X20238800Y-32028800D01*
X13110000Y-42500000D02*
X20160000Y-35450000D01*
X20238800Y-35371200D02*
X20160000Y-35450000D01*
X34000000Y-30000000D02*
X31971200Y-32028800D01*
X20238800Y-32028800D02*
X20160000Y-31950000D01*
G04 #@! TO.N,+5V*
X28000000Y-69200000D02*
X25500000Y-69200000D01*
X25500000Y-69200000D02*
X23300000Y-67000000D01*
G04 #@! TD*
M02*
