%TF.GenerationSoftware,KiCad,Pcbnew,10.0.6*%
%TF.CreationDate,2026-09-12T20:59:23-04:00*%
%TF.ProjectId,ext-board,6578742d-626f-4617-9264-2e6b69636164,rev?*%
%TF.SameCoordinates,Original*%
%TF.FileFunction,Legend,Top*%
%TF.FilePolarity,Positive*%
%FSLAX46Y46*%
G04 Gerber Fmt 4.6, Leading zero omitted, Abs format (unit mm)*
G04 Created by KiCad (PCBNEW 10.0.6) date 2026-09-12 20:59:23*
%MOMM*%
%LPD*%
G01*
G04 APERTURE LIST*
%ADD10C,0.120000*%
%ADD11C,0.105000*%
G04 APERTURE END LIST*
D10*
X3061904Y-9163855D02*
X3061904Y-8363855D01*
X3061904Y-8744807D02*
X3519047Y-8744807D01*
X3519047Y-9163855D02*
X3519047Y-8363855D01*
X4319046Y-9163855D02*
X3861903Y-9163855D01*
X4090475Y-9163855D02*
X4090475Y-8363855D01*
X4090475Y-8363855D02*
X4014284Y-8478140D01*
X4014284Y-8478140D02*
X3938094Y-8554331D01*
X3938094Y-8554331D02*
X3861903Y-8592426D01*
X5157142Y-8630521D02*
X5461904Y-8630521D01*
X5271428Y-8363855D02*
X5271428Y-9049569D01*
X5271428Y-9049569D02*
X5309523Y-9125760D01*
X5309523Y-9125760D02*
X5385713Y-9163855D01*
X5385713Y-9163855D02*
X5461904Y-9163855D01*
X5728571Y-9163855D02*
X5728571Y-8630521D01*
X5728571Y-8782902D02*
X5766666Y-8706712D01*
X5766666Y-8706712D02*
X5804761Y-8668617D01*
X5804761Y-8668617D02*
X5880952Y-8630521D01*
X5880952Y-8630521D02*
X5957142Y-8630521D01*
X6566666Y-8630521D02*
X6566666Y-9163855D01*
X6223809Y-8630521D02*
X6223809Y-9049569D01*
X6223809Y-9049569D02*
X6261904Y-9125760D01*
X6261904Y-9125760D02*
X6338094Y-9163855D01*
X6338094Y-9163855D02*
X6452380Y-9163855D01*
X6452380Y-9163855D02*
X6528571Y-9125760D01*
X6528571Y-9125760D02*
X6566666Y-9087664D01*
X6947619Y-8630521D02*
X6947619Y-9163855D01*
X6947619Y-8706712D02*
X6985714Y-8668617D01*
X6985714Y-8668617D02*
X7061904Y-8630521D01*
X7061904Y-8630521D02*
X7176190Y-8630521D01*
X7176190Y-8630521D02*
X7252381Y-8668617D01*
X7252381Y-8668617D02*
X7290476Y-8744807D01*
X7290476Y-8744807D02*
X7290476Y-9163855D01*
X7671429Y-9163855D02*
X7671429Y-8363855D01*
X7747619Y-8859093D02*
X7976191Y-9163855D01*
X7976191Y-8630521D02*
X7671429Y-8935283D01*
X5893809Y-6763855D02*
X6160476Y-7563855D01*
X6160476Y-7563855D02*
X6427142Y-6763855D01*
X7303333Y-7563855D02*
X7303333Y-6763855D01*
X7303333Y-6763855D02*
X7493809Y-6763855D01*
X7493809Y-6763855D02*
X7608095Y-6801950D01*
X7608095Y-6801950D02*
X7684285Y-6878140D01*
X7684285Y-6878140D02*
X7722380Y-6954331D01*
X7722380Y-6954331D02*
X7760476Y-7106712D01*
X7760476Y-7106712D02*
X7760476Y-7220998D01*
X7760476Y-7220998D02*
X7722380Y-7373379D01*
X7722380Y-7373379D02*
X7684285Y-7449569D01*
X7684285Y-7449569D02*
X7608095Y-7525760D01*
X7608095Y-7525760D02*
X7493809Y-7563855D01*
X7493809Y-7563855D02*
X7303333Y-7563855D01*
X9131904Y-6801950D02*
X9055714Y-6763855D01*
X9055714Y-6763855D02*
X8941428Y-6763855D01*
X8941428Y-6763855D02*
X8827142Y-6801950D01*
X8827142Y-6801950D02*
X8750952Y-6878140D01*
X8750952Y-6878140D02*
X8712857Y-6954331D01*
X8712857Y-6954331D02*
X8674761Y-7106712D01*
X8674761Y-7106712D02*
X8674761Y-7220998D01*
X8674761Y-7220998D02*
X8712857Y-7373379D01*
X8712857Y-7373379D02*
X8750952Y-7449569D01*
X8750952Y-7449569D02*
X8827142Y-7525760D01*
X8827142Y-7525760D02*
X8941428Y-7563855D01*
X8941428Y-7563855D02*
X9017619Y-7563855D01*
X9017619Y-7563855D02*
X9131904Y-7525760D01*
X9131904Y-7525760D02*
X9170000Y-7487664D01*
X9170000Y-7487664D02*
X9170000Y-7220998D01*
X9170000Y-7220998D02*
X9017619Y-7220998D01*
X2590476Y-51863855D02*
X2209524Y-51863855D01*
X2209524Y-51863855D02*
X2209524Y-51063855D01*
X2857143Y-51863855D02*
X2857143Y-51063855D01*
X3238095Y-51863855D02*
X3238095Y-51063855D01*
X3238095Y-51063855D02*
X3695238Y-51863855D01*
X3695238Y-51863855D02*
X3695238Y-51063855D01*
X4076190Y-51863855D02*
X4076190Y-51063855D01*
X4533333Y-51863855D02*
X4190475Y-51406712D01*
X4533333Y-51063855D02*
X4076190Y-51520998D01*
X5904761Y-51863855D02*
X5447618Y-51863855D01*
X5676190Y-51863855D02*
X5676190Y-51063855D01*
X5676190Y-51063855D02*
X5599999Y-51178140D01*
X5599999Y-51178140D02*
X5523809Y-51254331D01*
X5523809Y-51254331D02*
X5447618Y-51292426D01*
X6247619Y-51444807D02*
X6857143Y-51444807D01*
X6857143Y-51673379D02*
X6247619Y-51673379D01*
X7161904Y-51063855D02*
X7657142Y-51063855D01*
X7657142Y-51063855D02*
X7390476Y-51368617D01*
X7390476Y-51368617D02*
X7504761Y-51368617D01*
X7504761Y-51368617D02*
X7580952Y-51406712D01*
X7580952Y-51406712D02*
X7619047Y-51444807D01*
X7619047Y-51444807D02*
X7657142Y-51520998D01*
X7657142Y-51520998D02*
X7657142Y-51711474D01*
X7657142Y-51711474D02*
X7619047Y-51787664D01*
X7619047Y-51787664D02*
X7580952Y-51825760D01*
X7580952Y-51825760D02*
X7504761Y-51863855D01*
X7504761Y-51863855D02*
X7276190Y-51863855D01*
X7276190Y-51863855D02*
X7199999Y-51825760D01*
X7199999Y-51825760D02*
X7161904Y-51787664D01*
X7885714Y-51063855D02*
X8152381Y-51863855D01*
X8152381Y-51863855D02*
X8419047Y-51063855D01*
X8609523Y-51063855D02*
X9104761Y-51063855D01*
X9104761Y-51063855D02*
X8838095Y-51368617D01*
X8838095Y-51368617D02*
X8952380Y-51368617D01*
X8952380Y-51368617D02*
X9028571Y-51406712D01*
X9028571Y-51406712D02*
X9066666Y-51444807D01*
X9066666Y-51444807D02*
X9104761Y-51520998D01*
X9104761Y-51520998D02*
X9104761Y-51711474D01*
X9104761Y-51711474D02*
X9066666Y-51787664D01*
X9066666Y-51787664D02*
X9028571Y-51825760D01*
X9028571Y-51825760D02*
X8952380Y-51863855D01*
X8952380Y-51863855D02*
X8723809Y-51863855D01*
X8723809Y-51863855D02*
X8647618Y-51825760D01*
X8647618Y-51825760D02*
X8609523Y-51787664D01*
X10019047Y-51140045D02*
X10057143Y-51101950D01*
X10057143Y-51101950D02*
X10133333Y-51063855D01*
X10133333Y-51063855D02*
X10323809Y-51063855D01*
X10323809Y-51063855D02*
X10400000Y-51101950D01*
X10400000Y-51101950D02*
X10438095Y-51140045D01*
X10438095Y-51140045D02*
X10476190Y-51216236D01*
X10476190Y-51216236D02*
X10476190Y-51292426D01*
X10476190Y-51292426D02*
X10438095Y-51406712D01*
X10438095Y-51406712D02*
X9980952Y-51863855D01*
X9980952Y-51863855D02*
X10476190Y-51863855D01*
X10819048Y-51444807D02*
X11428572Y-51444807D01*
X11428572Y-51673379D02*
X10819048Y-51673379D01*
X11771428Y-51825760D02*
X11885714Y-51863855D01*
X11885714Y-51863855D02*
X12076190Y-51863855D01*
X12076190Y-51863855D02*
X12152381Y-51825760D01*
X12152381Y-51825760D02*
X12190476Y-51787664D01*
X12190476Y-51787664D02*
X12228571Y-51711474D01*
X12228571Y-51711474D02*
X12228571Y-51635283D01*
X12228571Y-51635283D02*
X12190476Y-51559093D01*
X12190476Y-51559093D02*
X12152381Y-51520998D01*
X12152381Y-51520998D02*
X12076190Y-51482902D01*
X12076190Y-51482902D02*
X11923809Y-51444807D01*
X11923809Y-51444807D02*
X11847619Y-51406712D01*
X11847619Y-51406712D02*
X11809524Y-51368617D01*
X11809524Y-51368617D02*
X11771428Y-51292426D01*
X11771428Y-51292426D02*
X11771428Y-51216236D01*
X11771428Y-51216236D02*
X11809524Y-51140045D01*
X11809524Y-51140045D02*
X11847619Y-51101950D01*
X11847619Y-51101950D02*
X11923809Y-51063855D01*
X11923809Y-51063855D02*
X12114286Y-51063855D01*
X12114286Y-51063855D02*
X12228571Y-51101950D01*
X12571429Y-51863855D02*
X12571429Y-51063855D01*
X12571429Y-51063855D02*
X12761905Y-51063855D01*
X12761905Y-51063855D02*
X12876191Y-51101950D01*
X12876191Y-51101950D02*
X12952381Y-51178140D01*
X12952381Y-51178140D02*
X12990476Y-51254331D01*
X12990476Y-51254331D02*
X13028572Y-51406712D01*
X13028572Y-51406712D02*
X13028572Y-51520998D01*
X13028572Y-51520998D02*
X12990476Y-51673379D01*
X12990476Y-51673379D02*
X12952381Y-51749569D01*
X12952381Y-51749569D02*
X12876191Y-51825760D01*
X12876191Y-51825760D02*
X12761905Y-51863855D01*
X12761905Y-51863855D02*
X12571429Y-51863855D01*
X13333333Y-51635283D02*
X13714286Y-51635283D01*
X13257143Y-51863855D02*
X13523810Y-51063855D01*
X13523810Y-51063855D02*
X13790476Y-51863855D01*
X14590476Y-51063855D02*
X15085714Y-51063855D01*
X15085714Y-51063855D02*
X14819048Y-51368617D01*
X14819048Y-51368617D02*
X14933333Y-51368617D01*
X14933333Y-51368617D02*
X15009524Y-51406712D01*
X15009524Y-51406712D02*
X15047619Y-51444807D01*
X15047619Y-51444807D02*
X15085714Y-51520998D01*
X15085714Y-51520998D02*
X15085714Y-51711474D01*
X15085714Y-51711474D02*
X15047619Y-51787664D01*
X15047619Y-51787664D02*
X15009524Y-51825760D01*
X15009524Y-51825760D02*
X14933333Y-51863855D01*
X14933333Y-51863855D02*
X14704762Y-51863855D01*
X14704762Y-51863855D02*
X14628571Y-51825760D01*
X14628571Y-51825760D02*
X14590476Y-51787664D01*
X15428572Y-51444807D02*
X16038096Y-51444807D01*
X16038096Y-51673379D02*
X15428572Y-51673379D01*
X16380952Y-51825760D02*
X16495238Y-51863855D01*
X16495238Y-51863855D02*
X16685714Y-51863855D01*
X16685714Y-51863855D02*
X16761905Y-51825760D01*
X16761905Y-51825760D02*
X16800000Y-51787664D01*
X16800000Y-51787664D02*
X16838095Y-51711474D01*
X16838095Y-51711474D02*
X16838095Y-51635283D01*
X16838095Y-51635283D02*
X16800000Y-51559093D01*
X16800000Y-51559093D02*
X16761905Y-51520998D01*
X16761905Y-51520998D02*
X16685714Y-51482902D01*
X16685714Y-51482902D02*
X16533333Y-51444807D01*
X16533333Y-51444807D02*
X16457143Y-51406712D01*
X16457143Y-51406712D02*
X16419048Y-51368617D01*
X16419048Y-51368617D02*
X16380952Y-51292426D01*
X16380952Y-51292426D02*
X16380952Y-51216236D01*
X16380952Y-51216236D02*
X16419048Y-51140045D01*
X16419048Y-51140045D02*
X16457143Y-51101950D01*
X16457143Y-51101950D02*
X16533333Y-51063855D01*
X16533333Y-51063855D02*
X16723810Y-51063855D01*
X16723810Y-51063855D02*
X16838095Y-51101950D01*
X17638096Y-51787664D02*
X17600000Y-51825760D01*
X17600000Y-51825760D02*
X17485715Y-51863855D01*
X17485715Y-51863855D02*
X17409524Y-51863855D01*
X17409524Y-51863855D02*
X17295238Y-51825760D01*
X17295238Y-51825760D02*
X17219048Y-51749569D01*
X17219048Y-51749569D02*
X17180953Y-51673379D01*
X17180953Y-51673379D02*
X17142857Y-51520998D01*
X17142857Y-51520998D02*
X17142857Y-51406712D01*
X17142857Y-51406712D02*
X17180953Y-51254331D01*
X17180953Y-51254331D02*
X17219048Y-51178140D01*
X17219048Y-51178140D02*
X17295238Y-51101950D01*
X17295238Y-51101950D02*
X17409524Y-51063855D01*
X17409524Y-51063855D02*
X17485715Y-51063855D01*
X17485715Y-51063855D02*
X17600000Y-51101950D01*
X17600000Y-51101950D02*
X17638096Y-51140045D01*
X18361905Y-51863855D02*
X17980953Y-51863855D01*
X17980953Y-51863855D02*
X17980953Y-51063855D01*
X19580953Y-51330521D02*
X19580953Y-51863855D01*
X19390477Y-51025760D02*
X19200000Y-51597188D01*
X19200000Y-51597188D02*
X19695239Y-51597188D01*
X20000001Y-51444807D02*
X20609525Y-51444807D01*
X20609525Y-51673379D02*
X20000001Y-51673379D01*
X21409524Y-51101950D02*
X21333334Y-51063855D01*
X21333334Y-51063855D02*
X21219048Y-51063855D01*
X21219048Y-51063855D02*
X21104762Y-51101950D01*
X21104762Y-51101950D02*
X21028572Y-51178140D01*
X21028572Y-51178140D02*
X20990477Y-51254331D01*
X20990477Y-51254331D02*
X20952381Y-51406712D01*
X20952381Y-51406712D02*
X20952381Y-51520998D01*
X20952381Y-51520998D02*
X20990477Y-51673379D01*
X20990477Y-51673379D02*
X21028572Y-51749569D01*
X21028572Y-51749569D02*
X21104762Y-51825760D01*
X21104762Y-51825760D02*
X21219048Y-51863855D01*
X21219048Y-51863855D02*
X21295239Y-51863855D01*
X21295239Y-51863855D02*
X21409524Y-51825760D01*
X21409524Y-51825760D02*
X21447620Y-51787664D01*
X21447620Y-51787664D02*
X21447620Y-51520998D01*
X21447620Y-51520998D02*
X21295239Y-51520998D01*
X21790477Y-51863855D02*
X21790477Y-51063855D01*
X21790477Y-51063855D02*
X22095239Y-51063855D01*
X22095239Y-51063855D02*
X22171429Y-51101950D01*
X22171429Y-51101950D02*
X22209524Y-51140045D01*
X22209524Y-51140045D02*
X22247620Y-51216236D01*
X22247620Y-51216236D02*
X22247620Y-51330521D01*
X22247620Y-51330521D02*
X22209524Y-51406712D01*
X22209524Y-51406712D02*
X22171429Y-51444807D01*
X22171429Y-51444807D02*
X22095239Y-51482902D01*
X22095239Y-51482902D02*
X21790477Y-51482902D01*
X22590477Y-51863855D02*
X22590477Y-51063855D01*
X23123810Y-51063855D02*
X23276191Y-51063855D01*
X23276191Y-51063855D02*
X23352381Y-51101950D01*
X23352381Y-51101950D02*
X23428572Y-51178140D01*
X23428572Y-51178140D02*
X23466667Y-51330521D01*
X23466667Y-51330521D02*
X23466667Y-51597188D01*
X23466667Y-51597188D02*
X23428572Y-51749569D01*
X23428572Y-51749569D02*
X23352381Y-51825760D01*
X23352381Y-51825760D02*
X23276191Y-51863855D01*
X23276191Y-51863855D02*
X23123810Y-51863855D01*
X23123810Y-51863855D02*
X23047619Y-51825760D01*
X23047619Y-51825760D02*
X22971429Y-51749569D01*
X22971429Y-51749569D02*
X22933333Y-51597188D01*
X22933333Y-51597188D02*
X22933333Y-51330521D01*
X22933333Y-51330521D02*
X22971429Y-51178140D01*
X22971429Y-51178140D02*
X23047619Y-51101950D01*
X23047619Y-51101950D02*
X23123810Y-51063855D01*
X24152381Y-51330521D02*
X24152381Y-51863855D01*
X23961905Y-51025760D02*
X23771428Y-51597188D01*
X23771428Y-51597188D02*
X24266667Y-51597188D01*
X25561905Y-51063855D02*
X25180953Y-51063855D01*
X25180953Y-51063855D02*
X25142857Y-51444807D01*
X25142857Y-51444807D02*
X25180953Y-51406712D01*
X25180953Y-51406712D02*
X25257143Y-51368617D01*
X25257143Y-51368617D02*
X25447619Y-51368617D01*
X25447619Y-51368617D02*
X25523810Y-51406712D01*
X25523810Y-51406712D02*
X25561905Y-51444807D01*
X25561905Y-51444807D02*
X25600000Y-51520998D01*
X25600000Y-51520998D02*
X25600000Y-51711474D01*
X25600000Y-51711474D02*
X25561905Y-51787664D01*
X25561905Y-51787664D02*
X25523810Y-51825760D01*
X25523810Y-51825760D02*
X25447619Y-51863855D01*
X25447619Y-51863855D02*
X25257143Y-51863855D01*
X25257143Y-51863855D02*
X25180953Y-51825760D01*
X25180953Y-51825760D02*
X25142857Y-51787664D01*
X25942858Y-51444807D02*
X26552382Y-51444807D01*
X26552382Y-51673379D02*
X25942858Y-51673379D01*
X27352381Y-51101950D02*
X27276191Y-51063855D01*
X27276191Y-51063855D02*
X27161905Y-51063855D01*
X27161905Y-51063855D02*
X27047619Y-51101950D01*
X27047619Y-51101950D02*
X26971429Y-51178140D01*
X26971429Y-51178140D02*
X26933334Y-51254331D01*
X26933334Y-51254331D02*
X26895238Y-51406712D01*
X26895238Y-51406712D02*
X26895238Y-51520998D01*
X26895238Y-51520998D02*
X26933334Y-51673379D01*
X26933334Y-51673379D02*
X26971429Y-51749569D01*
X26971429Y-51749569D02*
X27047619Y-51825760D01*
X27047619Y-51825760D02*
X27161905Y-51863855D01*
X27161905Y-51863855D02*
X27238096Y-51863855D01*
X27238096Y-51863855D02*
X27352381Y-51825760D01*
X27352381Y-51825760D02*
X27390477Y-51787664D01*
X27390477Y-51787664D02*
X27390477Y-51520998D01*
X27390477Y-51520998D02*
X27238096Y-51520998D01*
X27733334Y-51863855D02*
X27733334Y-51063855D01*
X27733334Y-51063855D02*
X28190477Y-51863855D01*
X28190477Y-51863855D02*
X28190477Y-51063855D01*
X28571429Y-51863855D02*
X28571429Y-51063855D01*
X28571429Y-51063855D02*
X28761905Y-51063855D01*
X28761905Y-51063855D02*
X28876191Y-51101950D01*
X28876191Y-51101950D02*
X28952381Y-51178140D01*
X28952381Y-51178140D02*
X28990476Y-51254331D01*
X28990476Y-51254331D02*
X29028572Y-51406712D01*
X29028572Y-51406712D02*
X29028572Y-51520998D01*
X29028572Y-51520998D02*
X28990476Y-51673379D01*
X28990476Y-51673379D02*
X28952381Y-51749569D01*
X28952381Y-51749569D02*
X28876191Y-51825760D01*
X28876191Y-51825760D02*
X28761905Y-51863855D01*
X28761905Y-51863855D02*
X28571429Y-51863855D01*
X14678571Y-23830521D02*
X14678571Y-24630521D01*
X14678571Y-23868617D02*
X14754761Y-23830521D01*
X14754761Y-23830521D02*
X14907142Y-23830521D01*
X14907142Y-23830521D02*
X14983333Y-23868617D01*
X14983333Y-23868617D02*
X15021428Y-23906712D01*
X15021428Y-23906712D02*
X15059523Y-23982902D01*
X15059523Y-23982902D02*
X15059523Y-24211474D01*
X15059523Y-24211474D02*
X15021428Y-24287664D01*
X15021428Y-24287664D02*
X14983333Y-24325760D01*
X14983333Y-24325760D02*
X14907142Y-24363855D01*
X14907142Y-24363855D02*
X14754761Y-24363855D01*
X14754761Y-24363855D02*
X14678571Y-24325760D01*
X15402381Y-24363855D02*
X15402381Y-23830521D01*
X15402381Y-23563855D02*
X15364285Y-23601950D01*
X15364285Y-23601950D02*
X15402381Y-23640045D01*
X15402381Y-23640045D02*
X15440476Y-23601950D01*
X15440476Y-23601950D02*
X15402381Y-23563855D01*
X15402381Y-23563855D02*
X15402381Y-23640045D01*
X15707142Y-23830521D02*
X15897618Y-24363855D01*
X15897618Y-24363855D02*
X16088095Y-23830521D01*
X16735714Y-24363855D02*
X16735714Y-23944807D01*
X16735714Y-23944807D02*
X16697619Y-23868617D01*
X16697619Y-23868617D02*
X16621428Y-23830521D01*
X16621428Y-23830521D02*
X16469047Y-23830521D01*
X16469047Y-23830521D02*
X16392857Y-23868617D01*
X16735714Y-24325760D02*
X16659523Y-24363855D01*
X16659523Y-24363855D02*
X16469047Y-24363855D01*
X16469047Y-24363855D02*
X16392857Y-24325760D01*
X16392857Y-24325760D02*
X16354761Y-24249569D01*
X16354761Y-24249569D02*
X16354761Y-24173379D01*
X16354761Y-24173379D02*
X16392857Y-24097188D01*
X16392857Y-24097188D02*
X16469047Y-24059093D01*
X16469047Y-24059093D02*
X16659523Y-24059093D01*
X16659523Y-24059093D02*
X16735714Y-24020998D01*
X17459524Y-24325760D02*
X17383333Y-24363855D01*
X17383333Y-24363855D02*
X17230952Y-24363855D01*
X17230952Y-24363855D02*
X17154762Y-24325760D01*
X17154762Y-24325760D02*
X17116667Y-24287664D01*
X17116667Y-24287664D02*
X17078571Y-24211474D01*
X17078571Y-24211474D02*
X17078571Y-23982902D01*
X17078571Y-23982902D02*
X17116667Y-23906712D01*
X17116667Y-23906712D02*
X17154762Y-23868617D01*
X17154762Y-23868617D02*
X17230952Y-23830521D01*
X17230952Y-23830521D02*
X17383333Y-23830521D01*
X17383333Y-23830521D02*
X17459524Y-23868617D01*
X18411905Y-23944807D02*
X18678571Y-23944807D01*
X18792857Y-24363855D02*
X18411905Y-24363855D01*
X18411905Y-24363855D02*
X18411905Y-23563855D01*
X18411905Y-23563855D02*
X18792857Y-23563855D01*
X19059524Y-23563855D02*
X19592858Y-24363855D01*
X19592858Y-23563855D02*
X19059524Y-24363855D01*
X19783334Y-23563855D02*
X20240477Y-23563855D01*
X20011905Y-24363855D02*
X20011905Y-23563855D01*
X21116668Y-24363855D02*
X21116668Y-23830521D01*
X21116668Y-23982902D02*
X21154763Y-23906712D01*
X21154763Y-23906712D02*
X21192858Y-23868617D01*
X21192858Y-23868617D02*
X21269049Y-23830521D01*
X21269049Y-23830521D02*
X21345239Y-23830521D01*
X21916668Y-24325760D02*
X21840477Y-24363855D01*
X21840477Y-24363855D02*
X21688096Y-24363855D01*
X21688096Y-24363855D02*
X21611906Y-24325760D01*
X21611906Y-24325760D02*
X21573810Y-24249569D01*
X21573810Y-24249569D02*
X21573810Y-23944807D01*
X21573810Y-23944807D02*
X21611906Y-23868617D01*
X21611906Y-23868617D02*
X21688096Y-23830521D01*
X21688096Y-23830521D02*
X21840477Y-23830521D01*
X21840477Y-23830521D02*
X21916668Y-23868617D01*
X21916668Y-23868617D02*
X21954763Y-23944807D01*
X21954763Y-23944807D02*
X21954763Y-24020998D01*
X21954763Y-24020998D02*
X21573810Y-24097188D01*
X22221429Y-23830521D02*
X22411905Y-24363855D01*
X22411905Y-24363855D02*
X22602382Y-23830521D01*
X23478572Y-24135283D02*
X23859525Y-24135283D01*
X23402382Y-24363855D02*
X23669049Y-23563855D01*
X23669049Y-23563855D02*
X23935715Y-24363855D01*
X17717619Y-9363855D02*
X17717619Y-8563855D01*
X17717619Y-8944807D02*
X18174762Y-8944807D01*
X18174762Y-9363855D02*
X18174762Y-8563855D01*
X18517618Y-8640045D02*
X18555714Y-8601950D01*
X18555714Y-8601950D02*
X18631904Y-8563855D01*
X18631904Y-8563855D02*
X18822380Y-8563855D01*
X18822380Y-8563855D02*
X18898571Y-8601950D01*
X18898571Y-8601950D02*
X18936666Y-8640045D01*
X18936666Y-8640045D02*
X18974761Y-8716236D01*
X18974761Y-8716236D02*
X18974761Y-8792426D01*
X18974761Y-8792426D02*
X18936666Y-8906712D01*
X18936666Y-8906712D02*
X18479523Y-9363855D01*
X18479523Y-9363855D02*
X18974761Y-9363855D01*
X19889047Y-9325760D02*
X19965238Y-9363855D01*
X19965238Y-9363855D02*
X20117619Y-9363855D01*
X20117619Y-9363855D02*
X20193809Y-9325760D01*
X20193809Y-9325760D02*
X20231905Y-9249569D01*
X20231905Y-9249569D02*
X20231905Y-9211474D01*
X20231905Y-9211474D02*
X20193809Y-9135283D01*
X20193809Y-9135283D02*
X20117619Y-9097188D01*
X20117619Y-9097188D02*
X20003333Y-9097188D01*
X20003333Y-9097188D02*
X19927143Y-9059093D01*
X19927143Y-9059093D02*
X19889047Y-8982902D01*
X19889047Y-8982902D02*
X19889047Y-8944807D01*
X19889047Y-8944807D02*
X19927143Y-8868617D01*
X19927143Y-8868617D02*
X20003333Y-8830521D01*
X20003333Y-8830521D02*
X20117619Y-8830521D01*
X20117619Y-8830521D02*
X20193809Y-8868617D01*
X20574762Y-8830521D02*
X20574762Y-9630521D01*
X20574762Y-8868617D02*
X20650952Y-8830521D01*
X20650952Y-8830521D02*
X20803333Y-8830521D01*
X20803333Y-8830521D02*
X20879524Y-8868617D01*
X20879524Y-8868617D02*
X20917619Y-8906712D01*
X20917619Y-8906712D02*
X20955714Y-8982902D01*
X20955714Y-8982902D02*
X20955714Y-9211474D01*
X20955714Y-9211474D02*
X20917619Y-9287664D01*
X20917619Y-9287664D02*
X20879524Y-9325760D01*
X20879524Y-9325760D02*
X20803333Y-9363855D01*
X20803333Y-9363855D02*
X20650952Y-9363855D01*
X20650952Y-9363855D02*
X20574762Y-9325760D01*
X21641429Y-9363855D02*
X21641429Y-8944807D01*
X21641429Y-8944807D02*
X21603334Y-8868617D01*
X21603334Y-8868617D02*
X21527143Y-8830521D01*
X21527143Y-8830521D02*
X21374762Y-8830521D01*
X21374762Y-8830521D02*
X21298572Y-8868617D01*
X21641429Y-9325760D02*
X21565238Y-9363855D01*
X21565238Y-9363855D02*
X21374762Y-9363855D01*
X21374762Y-9363855D02*
X21298572Y-9325760D01*
X21298572Y-9325760D02*
X21260476Y-9249569D01*
X21260476Y-9249569D02*
X21260476Y-9173379D01*
X21260476Y-9173379D02*
X21298572Y-9097188D01*
X21298572Y-9097188D02*
X21374762Y-9059093D01*
X21374762Y-9059093D02*
X21565238Y-9059093D01*
X21565238Y-9059093D02*
X21641429Y-9020998D01*
X22022382Y-9363855D02*
X22022382Y-8830521D01*
X22022382Y-8982902D02*
X22060477Y-8906712D01*
X22060477Y-8906712D02*
X22098572Y-8868617D01*
X22098572Y-8868617D02*
X22174763Y-8830521D01*
X22174763Y-8830521D02*
X22250953Y-8830521D01*
X22822382Y-9325760D02*
X22746191Y-9363855D01*
X22746191Y-9363855D02*
X22593810Y-9363855D01*
X22593810Y-9363855D02*
X22517620Y-9325760D01*
X22517620Y-9325760D02*
X22479524Y-9249569D01*
X22479524Y-9249569D02*
X22479524Y-8944807D01*
X22479524Y-8944807D02*
X22517620Y-8868617D01*
X22517620Y-8868617D02*
X22593810Y-8830521D01*
X22593810Y-8830521D02*
X22746191Y-8830521D01*
X22746191Y-8830521D02*
X22822382Y-8868617D01*
X22822382Y-8868617D02*
X22860477Y-8944807D01*
X22860477Y-8944807D02*
X22860477Y-9020998D01*
X22860477Y-9020998D02*
X22479524Y-9097188D01*
X28531904Y-9363855D02*
X28531904Y-8563855D01*
X28531904Y-8944807D02*
X28989047Y-8944807D01*
X28989047Y-9363855D02*
X28989047Y-8563855D01*
X29293808Y-8563855D02*
X29789046Y-8563855D01*
X29789046Y-8563855D02*
X29522380Y-8868617D01*
X29522380Y-8868617D02*
X29636665Y-8868617D01*
X29636665Y-8868617D02*
X29712856Y-8906712D01*
X29712856Y-8906712D02*
X29750951Y-8944807D01*
X29750951Y-8944807D02*
X29789046Y-9020998D01*
X29789046Y-9020998D02*
X29789046Y-9211474D01*
X29789046Y-9211474D02*
X29750951Y-9287664D01*
X29750951Y-9287664D02*
X29712856Y-9325760D01*
X29712856Y-9325760D02*
X29636665Y-9363855D01*
X29636665Y-9363855D02*
X29408094Y-9363855D01*
X29408094Y-9363855D02*
X29331903Y-9325760D01*
X29331903Y-9325760D02*
X29293808Y-9287664D01*
X30703332Y-9325760D02*
X30779523Y-9363855D01*
X30779523Y-9363855D02*
X30931904Y-9363855D01*
X30931904Y-9363855D02*
X31008094Y-9325760D01*
X31008094Y-9325760D02*
X31046190Y-9249569D01*
X31046190Y-9249569D02*
X31046190Y-9211474D01*
X31046190Y-9211474D02*
X31008094Y-9135283D01*
X31008094Y-9135283D02*
X30931904Y-9097188D01*
X30931904Y-9097188D02*
X30817618Y-9097188D01*
X30817618Y-9097188D02*
X30741428Y-9059093D01*
X30741428Y-9059093D02*
X30703332Y-8982902D01*
X30703332Y-8982902D02*
X30703332Y-8944807D01*
X30703332Y-8944807D02*
X30741428Y-8868617D01*
X30741428Y-8868617D02*
X30817618Y-8830521D01*
X30817618Y-8830521D02*
X30931904Y-8830521D01*
X30931904Y-8830521D02*
X31008094Y-8868617D01*
X31389047Y-8830521D02*
X31389047Y-9630521D01*
X31389047Y-8868617D02*
X31465237Y-8830521D01*
X31465237Y-8830521D02*
X31617618Y-8830521D01*
X31617618Y-8830521D02*
X31693809Y-8868617D01*
X31693809Y-8868617D02*
X31731904Y-8906712D01*
X31731904Y-8906712D02*
X31769999Y-8982902D01*
X31769999Y-8982902D02*
X31769999Y-9211474D01*
X31769999Y-9211474D02*
X31731904Y-9287664D01*
X31731904Y-9287664D02*
X31693809Y-9325760D01*
X31693809Y-9325760D02*
X31617618Y-9363855D01*
X31617618Y-9363855D02*
X31465237Y-9363855D01*
X31465237Y-9363855D02*
X31389047Y-9325760D01*
X32455714Y-9363855D02*
X32455714Y-8944807D01*
X32455714Y-8944807D02*
X32417619Y-8868617D01*
X32417619Y-8868617D02*
X32341428Y-8830521D01*
X32341428Y-8830521D02*
X32189047Y-8830521D01*
X32189047Y-8830521D02*
X32112857Y-8868617D01*
X32455714Y-9325760D02*
X32379523Y-9363855D01*
X32379523Y-9363855D02*
X32189047Y-9363855D01*
X32189047Y-9363855D02*
X32112857Y-9325760D01*
X32112857Y-9325760D02*
X32074761Y-9249569D01*
X32074761Y-9249569D02*
X32074761Y-9173379D01*
X32074761Y-9173379D02*
X32112857Y-9097188D01*
X32112857Y-9097188D02*
X32189047Y-9059093D01*
X32189047Y-9059093D02*
X32379523Y-9059093D01*
X32379523Y-9059093D02*
X32455714Y-9020998D01*
X32836667Y-9363855D02*
X32836667Y-8830521D01*
X32836667Y-8982902D02*
X32874762Y-8906712D01*
X32874762Y-8906712D02*
X32912857Y-8868617D01*
X32912857Y-8868617D02*
X32989048Y-8830521D01*
X32989048Y-8830521D02*
X33065238Y-8830521D01*
X33636667Y-9325760D02*
X33560476Y-9363855D01*
X33560476Y-9363855D02*
X33408095Y-9363855D01*
X33408095Y-9363855D02*
X33331905Y-9325760D01*
X33331905Y-9325760D02*
X33293809Y-9249569D01*
X33293809Y-9249569D02*
X33293809Y-8944807D01*
X33293809Y-8944807D02*
X33331905Y-8868617D01*
X33331905Y-8868617D02*
X33408095Y-8830521D01*
X33408095Y-8830521D02*
X33560476Y-8830521D01*
X33560476Y-8830521D02*
X33636667Y-8868617D01*
X33636667Y-8868617D02*
X33674762Y-8944807D01*
X33674762Y-8944807D02*
X33674762Y-9020998D01*
X33674762Y-9020998D02*
X33293809Y-9097188D01*
X34589047Y-8525760D02*
X33903333Y-9554331D01*
X35008095Y-8563855D02*
X35084285Y-8563855D01*
X35084285Y-8563855D02*
X35160476Y-8601950D01*
X35160476Y-8601950D02*
X35198571Y-8640045D01*
X35198571Y-8640045D02*
X35236666Y-8716236D01*
X35236666Y-8716236D02*
X35274761Y-8868617D01*
X35274761Y-8868617D02*
X35274761Y-9059093D01*
X35274761Y-9059093D02*
X35236666Y-9211474D01*
X35236666Y-9211474D02*
X35198571Y-9287664D01*
X35198571Y-9287664D02*
X35160476Y-9325760D01*
X35160476Y-9325760D02*
X35084285Y-9363855D01*
X35084285Y-9363855D02*
X35008095Y-9363855D01*
X35008095Y-9363855D02*
X34931904Y-9325760D01*
X34931904Y-9325760D02*
X34893809Y-9287664D01*
X34893809Y-9287664D02*
X34855714Y-9211474D01*
X34855714Y-9211474D02*
X34817618Y-9059093D01*
X34817618Y-9059093D02*
X34817618Y-8868617D01*
X34817618Y-8868617D02*
X34855714Y-8716236D01*
X34855714Y-8716236D02*
X34893809Y-8640045D01*
X34893809Y-8640045D02*
X34931904Y-8601950D01*
X34931904Y-8601950D02*
X35008095Y-8563855D01*
X35541428Y-9363855D02*
X35960476Y-8830521D01*
X35541428Y-8830521D02*
X35960476Y-9363855D01*
X36684285Y-9363855D02*
X36227142Y-9363855D01*
X36455714Y-9363855D02*
X36455714Y-8563855D01*
X36455714Y-8563855D02*
X36379523Y-8678140D01*
X36379523Y-8678140D02*
X36303333Y-8754331D01*
X36303333Y-8754331D02*
X36227142Y-8792426D01*
X37065238Y-9363855D02*
X37217619Y-9363855D01*
X37217619Y-9363855D02*
X37293809Y-9325760D01*
X37293809Y-9325760D02*
X37331905Y-9287664D01*
X37331905Y-9287664D02*
X37408095Y-9173379D01*
X37408095Y-9173379D02*
X37446190Y-9020998D01*
X37446190Y-9020998D02*
X37446190Y-8716236D01*
X37446190Y-8716236D02*
X37408095Y-8640045D01*
X37408095Y-8640045D02*
X37370000Y-8601950D01*
X37370000Y-8601950D02*
X37293809Y-8563855D01*
X37293809Y-8563855D02*
X37141428Y-8563855D01*
X37141428Y-8563855D02*
X37065238Y-8601950D01*
X37065238Y-8601950D02*
X37027143Y-8640045D01*
X37027143Y-8640045D02*
X36989047Y-8716236D01*
X36989047Y-8716236D02*
X36989047Y-8906712D01*
X36989047Y-8906712D02*
X37027143Y-8982902D01*
X37027143Y-8982902D02*
X37065238Y-9020998D01*
X37065238Y-9020998D02*
X37141428Y-9059093D01*
X37141428Y-9059093D02*
X37293809Y-9059093D01*
X37293809Y-9059093D02*
X37370000Y-9020998D01*
X37370000Y-9020998D02*
X37408095Y-8982902D01*
X37408095Y-8982902D02*
X37446190Y-8906712D01*
X6630521Y-50123809D02*
X7430521Y-50123809D01*
X6668617Y-50123809D02*
X6630521Y-50047619D01*
X6630521Y-50047619D02*
X6630521Y-49895238D01*
X6630521Y-49895238D02*
X6668617Y-49819047D01*
X6668617Y-49819047D02*
X6706712Y-49780952D01*
X6706712Y-49780952D02*
X6782902Y-49742857D01*
X6782902Y-49742857D02*
X7011474Y-49742857D01*
X7011474Y-49742857D02*
X7087664Y-49780952D01*
X7087664Y-49780952D02*
X7125760Y-49819047D01*
X7125760Y-49819047D02*
X7163855Y-49895238D01*
X7163855Y-49895238D02*
X7163855Y-50047619D01*
X7163855Y-50047619D02*
X7125760Y-50123809D01*
X7163855Y-49285714D02*
X7125760Y-49361904D01*
X7125760Y-49361904D02*
X7087664Y-49399999D01*
X7087664Y-49399999D02*
X7011474Y-49438095D01*
X7011474Y-49438095D02*
X6782902Y-49438095D01*
X6782902Y-49438095D02*
X6706712Y-49399999D01*
X6706712Y-49399999D02*
X6668617Y-49361904D01*
X6668617Y-49361904D02*
X6630521Y-49285714D01*
X6630521Y-49285714D02*
X6630521Y-49171428D01*
X6630521Y-49171428D02*
X6668617Y-49095237D01*
X6668617Y-49095237D02*
X6706712Y-49057142D01*
X6706712Y-49057142D02*
X6782902Y-49019047D01*
X6782902Y-49019047D02*
X7011474Y-49019047D01*
X7011474Y-49019047D02*
X7087664Y-49057142D01*
X7087664Y-49057142D02*
X7125760Y-49095237D01*
X7125760Y-49095237D02*
X7163855Y-49171428D01*
X7163855Y-49171428D02*
X7163855Y-49285714D01*
X6630521Y-48752380D02*
X7163855Y-48599999D01*
X7163855Y-48599999D02*
X6782902Y-48447618D01*
X6782902Y-48447618D02*
X7163855Y-48295237D01*
X7163855Y-48295237D02*
X6630521Y-48142856D01*
X7125760Y-47533332D02*
X7163855Y-47609523D01*
X7163855Y-47609523D02*
X7163855Y-47761904D01*
X7163855Y-47761904D02*
X7125760Y-47838094D01*
X7125760Y-47838094D02*
X7049569Y-47876190D01*
X7049569Y-47876190D02*
X6744807Y-47876190D01*
X6744807Y-47876190D02*
X6668617Y-47838094D01*
X6668617Y-47838094D02*
X6630521Y-47761904D01*
X6630521Y-47761904D02*
X6630521Y-47609523D01*
X6630521Y-47609523D02*
X6668617Y-47533332D01*
X6668617Y-47533332D02*
X6744807Y-47495237D01*
X6744807Y-47495237D02*
X6820998Y-47495237D01*
X6820998Y-47495237D02*
X6897188Y-47876190D01*
X7163855Y-47152380D02*
X6630521Y-47152380D01*
X6782902Y-47152380D02*
X6706712Y-47114285D01*
X6706712Y-47114285D02*
X6668617Y-47076190D01*
X6668617Y-47076190D02*
X6630521Y-46999999D01*
X6630521Y-46999999D02*
X6630521Y-46923809D01*
X7163855Y-46047618D02*
X6630521Y-46047618D01*
X6782902Y-46047618D02*
X6706712Y-46009523D01*
X6706712Y-46009523D02*
X6668617Y-45971428D01*
X6668617Y-45971428D02*
X6630521Y-45895237D01*
X6630521Y-45895237D02*
X6630521Y-45819047D01*
X7163855Y-45552380D02*
X6630521Y-45552380D01*
X6363855Y-45552380D02*
X6401950Y-45590476D01*
X6401950Y-45590476D02*
X6440045Y-45552380D01*
X6440045Y-45552380D02*
X6401950Y-45514285D01*
X6401950Y-45514285D02*
X6363855Y-45552380D01*
X6363855Y-45552380D02*
X6440045Y-45552380D01*
X7125760Y-45209524D02*
X7163855Y-45133333D01*
X7163855Y-45133333D02*
X7163855Y-44980952D01*
X7163855Y-44980952D02*
X7125760Y-44904762D01*
X7125760Y-44904762D02*
X7049569Y-44866666D01*
X7049569Y-44866666D02*
X7011474Y-44866666D01*
X7011474Y-44866666D02*
X6935283Y-44904762D01*
X6935283Y-44904762D02*
X6897188Y-44980952D01*
X6897188Y-44980952D02*
X6897188Y-45095238D01*
X6897188Y-45095238D02*
X6859093Y-45171428D01*
X6859093Y-45171428D02*
X6782902Y-45209524D01*
X6782902Y-45209524D02*
X6744807Y-45209524D01*
X6744807Y-45209524D02*
X6668617Y-45171428D01*
X6668617Y-45171428D02*
X6630521Y-45095238D01*
X6630521Y-45095238D02*
X6630521Y-44980952D01*
X6630521Y-44980952D02*
X6668617Y-44904762D01*
X7125760Y-44219047D02*
X7163855Y-44295238D01*
X7163855Y-44295238D02*
X7163855Y-44447619D01*
X7163855Y-44447619D02*
X7125760Y-44523809D01*
X7125760Y-44523809D02*
X7049569Y-44561905D01*
X7049569Y-44561905D02*
X6744807Y-44561905D01*
X6744807Y-44561905D02*
X6668617Y-44523809D01*
X6668617Y-44523809D02*
X6630521Y-44447619D01*
X6630521Y-44447619D02*
X6630521Y-44295238D01*
X6630521Y-44295238D02*
X6668617Y-44219047D01*
X6668617Y-44219047D02*
X6744807Y-44180952D01*
X6744807Y-44180952D02*
X6820998Y-44180952D01*
X6820998Y-44180952D02*
X6897188Y-44561905D01*
X7163855Y-43838095D02*
X6630521Y-43838095D01*
X6782902Y-43838095D02*
X6706712Y-43800000D01*
X6706712Y-43800000D02*
X6668617Y-43761905D01*
X6668617Y-43761905D02*
X6630521Y-43685714D01*
X6630521Y-43685714D02*
X6630521Y-43609524D01*
X6630521Y-42847619D02*
X6630521Y-42542857D01*
X7163855Y-42733333D02*
X6478140Y-42733333D01*
X6478140Y-42733333D02*
X6401950Y-42695238D01*
X6401950Y-42695238D02*
X6363855Y-42619048D01*
X6363855Y-42619048D02*
X6363855Y-42542857D01*
X7163855Y-42276190D02*
X6630521Y-42276190D01*
X6363855Y-42276190D02*
X6401950Y-42314286D01*
X6401950Y-42314286D02*
X6440045Y-42276190D01*
X6440045Y-42276190D02*
X6401950Y-42238095D01*
X6401950Y-42238095D02*
X6363855Y-42276190D01*
X6363855Y-42276190D02*
X6440045Y-42276190D01*
X7125760Y-41590476D02*
X7163855Y-41666667D01*
X7163855Y-41666667D02*
X7163855Y-41819048D01*
X7163855Y-41819048D02*
X7125760Y-41895238D01*
X7125760Y-41895238D02*
X7049569Y-41933334D01*
X7049569Y-41933334D02*
X6744807Y-41933334D01*
X6744807Y-41933334D02*
X6668617Y-41895238D01*
X6668617Y-41895238D02*
X6630521Y-41819048D01*
X6630521Y-41819048D02*
X6630521Y-41666667D01*
X6630521Y-41666667D02*
X6668617Y-41590476D01*
X6668617Y-41590476D02*
X6744807Y-41552381D01*
X6744807Y-41552381D02*
X6820998Y-41552381D01*
X6820998Y-41552381D02*
X6897188Y-41933334D01*
X7163855Y-41095239D02*
X7125760Y-41171429D01*
X7125760Y-41171429D02*
X7049569Y-41209524D01*
X7049569Y-41209524D02*
X6363855Y-41209524D01*
X7163855Y-40447619D02*
X6363855Y-40447619D01*
X7125760Y-40447619D02*
X7163855Y-40523810D01*
X7163855Y-40523810D02*
X7163855Y-40676191D01*
X7163855Y-40676191D02*
X7125760Y-40752381D01*
X7125760Y-40752381D02*
X7087664Y-40790476D01*
X7087664Y-40790476D02*
X7011474Y-40828572D01*
X7011474Y-40828572D02*
X6782902Y-40828572D01*
X6782902Y-40828572D02*
X6706712Y-40790476D01*
X6706712Y-40790476D02*
X6668617Y-40752381D01*
X6668617Y-40752381D02*
X6630521Y-40676191D01*
X6630521Y-40676191D02*
X6630521Y-40523810D01*
X6630521Y-40523810D02*
X6668617Y-40447619D01*
X6859093Y-39457142D02*
X6859093Y-38847619D01*
X7163855Y-37857142D02*
X6363855Y-37857142D01*
X6859093Y-37780952D02*
X7163855Y-37552380D01*
X6630521Y-37552380D02*
X6935283Y-37857142D01*
X7125760Y-36904761D02*
X7163855Y-36980952D01*
X7163855Y-36980952D02*
X7163855Y-37133333D01*
X7163855Y-37133333D02*
X7125760Y-37209523D01*
X7125760Y-37209523D02*
X7049569Y-37247619D01*
X7049569Y-37247619D02*
X6744807Y-37247619D01*
X6744807Y-37247619D02*
X6668617Y-37209523D01*
X6668617Y-37209523D02*
X6630521Y-37133333D01*
X6630521Y-37133333D02*
X6630521Y-36980952D01*
X6630521Y-36980952D02*
X6668617Y-36904761D01*
X6668617Y-36904761D02*
X6744807Y-36866666D01*
X6744807Y-36866666D02*
X6820998Y-36866666D01*
X6820998Y-36866666D02*
X6897188Y-37247619D01*
X7125760Y-36219047D02*
X7163855Y-36295238D01*
X7163855Y-36295238D02*
X7163855Y-36447619D01*
X7163855Y-36447619D02*
X7125760Y-36523809D01*
X7125760Y-36523809D02*
X7049569Y-36561905D01*
X7049569Y-36561905D02*
X6744807Y-36561905D01*
X6744807Y-36561905D02*
X6668617Y-36523809D01*
X6668617Y-36523809D02*
X6630521Y-36447619D01*
X6630521Y-36447619D02*
X6630521Y-36295238D01*
X6630521Y-36295238D02*
X6668617Y-36219047D01*
X6668617Y-36219047D02*
X6744807Y-36180952D01*
X6744807Y-36180952D02*
X6820998Y-36180952D01*
X6820998Y-36180952D02*
X6897188Y-36561905D01*
X6630521Y-35838095D02*
X7430521Y-35838095D01*
X6668617Y-35838095D02*
X6630521Y-35761905D01*
X6630521Y-35761905D02*
X6630521Y-35609524D01*
X6630521Y-35609524D02*
X6668617Y-35533333D01*
X6668617Y-35533333D02*
X6706712Y-35495238D01*
X6706712Y-35495238D02*
X6782902Y-35457143D01*
X6782902Y-35457143D02*
X7011474Y-35457143D01*
X7011474Y-35457143D02*
X7087664Y-35495238D01*
X7087664Y-35495238D02*
X7125760Y-35533333D01*
X7125760Y-35533333D02*
X7163855Y-35609524D01*
X7163855Y-35609524D02*
X7163855Y-35761905D01*
X7163855Y-35761905D02*
X7125760Y-35838095D01*
X7125760Y-34161904D02*
X7163855Y-34238095D01*
X7163855Y-34238095D02*
X7163855Y-34390476D01*
X7163855Y-34390476D02*
X7125760Y-34466666D01*
X7125760Y-34466666D02*
X7087664Y-34504761D01*
X7087664Y-34504761D02*
X7011474Y-34542857D01*
X7011474Y-34542857D02*
X6782902Y-34542857D01*
X6782902Y-34542857D02*
X6706712Y-34504761D01*
X6706712Y-34504761D02*
X6668617Y-34466666D01*
X6668617Y-34466666D02*
X6630521Y-34390476D01*
X6630521Y-34390476D02*
X6630521Y-34238095D01*
X6630521Y-34238095D02*
X6668617Y-34161904D01*
X7163855Y-33704762D02*
X7125760Y-33780952D01*
X7125760Y-33780952D02*
X7049569Y-33819047D01*
X7049569Y-33819047D02*
X6363855Y-33819047D01*
X7125760Y-33095237D02*
X7163855Y-33171428D01*
X7163855Y-33171428D02*
X7163855Y-33323809D01*
X7163855Y-33323809D02*
X7125760Y-33399999D01*
X7125760Y-33399999D02*
X7049569Y-33438095D01*
X7049569Y-33438095D02*
X6744807Y-33438095D01*
X6744807Y-33438095D02*
X6668617Y-33399999D01*
X6668617Y-33399999D02*
X6630521Y-33323809D01*
X6630521Y-33323809D02*
X6630521Y-33171428D01*
X6630521Y-33171428D02*
X6668617Y-33095237D01*
X6668617Y-33095237D02*
X6744807Y-33057142D01*
X6744807Y-33057142D02*
X6820998Y-33057142D01*
X6820998Y-33057142D02*
X6897188Y-33438095D01*
X7163855Y-32371428D02*
X6744807Y-32371428D01*
X6744807Y-32371428D02*
X6668617Y-32409523D01*
X6668617Y-32409523D02*
X6630521Y-32485714D01*
X6630521Y-32485714D02*
X6630521Y-32638095D01*
X6630521Y-32638095D02*
X6668617Y-32714285D01*
X7125760Y-32371428D02*
X7163855Y-32447619D01*
X7163855Y-32447619D02*
X7163855Y-32638095D01*
X7163855Y-32638095D02*
X7125760Y-32714285D01*
X7125760Y-32714285D02*
X7049569Y-32752381D01*
X7049569Y-32752381D02*
X6973379Y-32752381D01*
X6973379Y-32752381D02*
X6897188Y-32714285D01*
X6897188Y-32714285D02*
X6859093Y-32638095D01*
X6859093Y-32638095D02*
X6859093Y-32447619D01*
X6859093Y-32447619D02*
X6820998Y-32371428D01*
X7163855Y-31990475D02*
X6630521Y-31990475D01*
X6782902Y-31990475D02*
X6706712Y-31952380D01*
X6706712Y-31952380D02*
X6668617Y-31914285D01*
X6668617Y-31914285D02*
X6630521Y-31838094D01*
X6630521Y-31838094D02*
X6630521Y-31761904D01*
X30330521Y-51123809D02*
X31130521Y-51123809D01*
X30368617Y-51123809D02*
X30330521Y-51047619D01*
X30330521Y-51047619D02*
X30330521Y-50895238D01*
X30330521Y-50895238D02*
X30368617Y-50819047D01*
X30368617Y-50819047D02*
X30406712Y-50780952D01*
X30406712Y-50780952D02*
X30482902Y-50742857D01*
X30482902Y-50742857D02*
X30711474Y-50742857D01*
X30711474Y-50742857D02*
X30787664Y-50780952D01*
X30787664Y-50780952D02*
X30825760Y-50819047D01*
X30825760Y-50819047D02*
X30863855Y-50895238D01*
X30863855Y-50895238D02*
X30863855Y-51047619D01*
X30863855Y-51047619D02*
X30825760Y-51123809D01*
X30863855Y-50285714D02*
X30825760Y-50361904D01*
X30825760Y-50361904D02*
X30749569Y-50399999D01*
X30749569Y-50399999D02*
X30063855Y-50399999D01*
X30330521Y-49638094D02*
X30863855Y-49638094D01*
X30330521Y-49980951D02*
X30749569Y-49980951D01*
X30749569Y-49980951D02*
X30825760Y-49942856D01*
X30825760Y-49942856D02*
X30863855Y-49866666D01*
X30863855Y-49866666D02*
X30863855Y-49752380D01*
X30863855Y-49752380D02*
X30825760Y-49676189D01*
X30825760Y-49676189D02*
X30787664Y-49638094D01*
X30330521Y-48914284D02*
X30978140Y-48914284D01*
X30978140Y-48914284D02*
X31054331Y-48952379D01*
X31054331Y-48952379D02*
X31092426Y-48990475D01*
X31092426Y-48990475D02*
X31130521Y-49066665D01*
X31130521Y-49066665D02*
X31130521Y-49180951D01*
X31130521Y-49180951D02*
X31092426Y-49257141D01*
X30825760Y-48914284D02*
X30863855Y-48990475D01*
X30863855Y-48990475D02*
X30863855Y-49142856D01*
X30863855Y-49142856D02*
X30825760Y-49219046D01*
X30825760Y-49219046D02*
X30787664Y-49257141D01*
X30787664Y-49257141D02*
X30711474Y-49295237D01*
X30711474Y-49295237D02*
X30482902Y-49295237D01*
X30482902Y-49295237D02*
X30406712Y-49257141D01*
X30406712Y-49257141D02*
X30368617Y-49219046D01*
X30368617Y-49219046D02*
X30330521Y-49142856D01*
X30330521Y-49142856D02*
X30330521Y-48990475D01*
X30330521Y-48990475D02*
X30368617Y-48914284D01*
X30863855Y-47580950D02*
X30444807Y-47580950D01*
X30444807Y-47580950D02*
X30368617Y-47619045D01*
X30368617Y-47619045D02*
X30330521Y-47695236D01*
X30330521Y-47695236D02*
X30330521Y-47847617D01*
X30330521Y-47847617D02*
X30368617Y-47923807D01*
X30825760Y-47580950D02*
X30863855Y-47657141D01*
X30863855Y-47657141D02*
X30863855Y-47847617D01*
X30863855Y-47847617D02*
X30825760Y-47923807D01*
X30825760Y-47923807D02*
X30749569Y-47961903D01*
X30749569Y-47961903D02*
X30673379Y-47961903D01*
X30673379Y-47961903D02*
X30597188Y-47923807D01*
X30597188Y-47923807D02*
X30559093Y-47847617D01*
X30559093Y-47847617D02*
X30559093Y-47657141D01*
X30559093Y-47657141D02*
X30520998Y-47580950D01*
X30825760Y-46857140D02*
X30863855Y-46933331D01*
X30863855Y-46933331D02*
X30863855Y-47085712D01*
X30863855Y-47085712D02*
X30825760Y-47161902D01*
X30825760Y-47161902D02*
X30787664Y-47199997D01*
X30787664Y-47199997D02*
X30711474Y-47238093D01*
X30711474Y-47238093D02*
X30482902Y-47238093D01*
X30482902Y-47238093D02*
X30406712Y-47199997D01*
X30406712Y-47199997D02*
X30368617Y-47161902D01*
X30368617Y-47161902D02*
X30330521Y-47085712D01*
X30330521Y-47085712D02*
X30330521Y-46933331D01*
X30330521Y-46933331D02*
X30368617Y-46857140D01*
X30825760Y-46171426D02*
X30863855Y-46247617D01*
X30863855Y-46247617D02*
X30863855Y-46399998D01*
X30863855Y-46399998D02*
X30825760Y-46476188D01*
X30825760Y-46476188D02*
X30787664Y-46514283D01*
X30787664Y-46514283D02*
X30711474Y-46552379D01*
X30711474Y-46552379D02*
X30482902Y-46552379D01*
X30482902Y-46552379D02*
X30406712Y-46514283D01*
X30406712Y-46514283D02*
X30368617Y-46476188D01*
X30368617Y-46476188D02*
X30330521Y-46399998D01*
X30330521Y-46399998D02*
X30330521Y-46247617D01*
X30330521Y-46247617D02*
X30368617Y-46171426D01*
X30825760Y-45523807D02*
X30863855Y-45599998D01*
X30863855Y-45599998D02*
X30863855Y-45752379D01*
X30863855Y-45752379D02*
X30825760Y-45828569D01*
X30825760Y-45828569D02*
X30749569Y-45866665D01*
X30749569Y-45866665D02*
X30444807Y-45866665D01*
X30444807Y-45866665D02*
X30368617Y-45828569D01*
X30368617Y-45828569D02*
X30330521Y-45752379D01*
X30330521Y-45752379D02*
X30330521Y-45599998D01*
X30330521Y-45599998D02*
X30368617Y-45523807D01*
X30368617Y-45523807D02*
X30444807Y-45485712D01*
X30444807Y-45485712D02*
X30520998Y-45485712D01*
X30520998Y-45485712D02*
X30597188Y-45866665D01*
X30825760Y-45180951D02*
X30863855Y-45104760D01*
X30863855Y-45104760D02*
X30863855Y-44952379D01*
X30863855Y-44952379D02*
X30825760Y-44876189D01*
X30825760Y-44876189D02*
X30749569Y-44838093D01*
X30749569Y-44838093D02*
X30711474Y-44838093D01*
X30711474Y-44838093D02*
X30635283Y-44876189D01*
X30635283Y-44876189D02*
X30597188Y-44952379D01*
X30597188Y-44952379D02*
X30597188Y-45066665D01*
X30597188Y-45066665D02*
X30559093Y-45142855D01*
X30559093Y-45142855D02*
X30482902Y-45180951D01*
X30482902Y-45180951D02*
X30444807Y-45180951D01*
X30444807Y-45180951D02*
X30368617Y-45142855D01*
X30368617Y-45142855D02*
X30330521Y-45066665D01*
X30330521Y-45066665D02*
X30330521Y-44952379D01*
X30330521Y-44952379D02*
X30368617Y-44876189D01*
X30825760Y-44533332D02*
X30863855Y-44457141D01*
X30863855Y-44457141D02*
X30863855Y-44304760D01*
X30863855Y-44304760D02*
X30825760Y-44228570D01*
X30825760Y-44228570D02*
X30749569Y-44190474D01*
X30749569Y-44190474D02*
X30711474Y-44190474D01*
X30711474Y-44190474D02*
X30635283Y-44228570D01*
X30635283Y-44228570D02*
X30597188Y-44304760D01*
X30597188Y-44304760D02*
X30597188Y-44419046D01*
X30597188Y-44419046D02*
X30559093Y-44495236D01*
X30559093Y-44495236D02*
X30482902Y-44533332D01*
X30482902Y-44533332D02*
X30444807Y-44533332D01*
X30444807Y-44533332D02*
X30368617Y-44495236D01*
X30368617Y-44495236D02*
X30330521Y-44419046D01*
X30330521Y-44419046D02*
X30330521Y-44304760D01*
X30330521Y-44304760D02*
X30368617Y-44228570D01*
X30787664Y-43847617D02*
X30825760Y-43809522D01*
X30825760Y-43809522D02*
X30863855Y-43847617D01*
X30863855Y-43847617D02*
X30825760Y-43885713D01*
X30825760Y-43885713D02*
X30787664Y-43847617D01*
X30787664Y-43847617D02*
X30863855Y-43847617D01*
X30368617Y-43847617D02*
X30406712Y-43809522D01*
X30406712Y-43809522D02*
X30444807Y-43847617D01*
X30444807Y-43847617D02*
X30406712Y-43885713D01*
X30406712Y-43885713D02*
X30368617Y-43847617D01*
X30368617Y-43847617D02*
X30444807Y-43847617D01*
X30863855Y-42857141D02*
X30063855Y-42857141D01*
X30559093Y-42780951D02*
X30863855Y-42552379D01*
X30330521Y-42552379D02*
X30635283Y-42857141D01*
X30825760Y-41904760D02*
X30863855Y-41980951D01*
X30863855Y-41980951D02*
X30863855Y-42133332D01*
X30863855Y-42133332D02*
X30825760Y-42209522D01*
X30825760Y-42209522D02*
X30749569Y-42247618D01*
X30749569Y-42247618D02*
X30444807Y-42247618D01*
X30444807Y-42247618D02*
X30368617Y-42209522D01*
X30368617Y-42209522D02*
X30330521Y-42133332D01*
X30330521Y-42133332D02*
X30330521Y-41980951D01*
X30330521Y-41980951D02*
X30368617Y-41904760D01*
X30368617Y-41904760D02*
X30444807Y-41866665D01*
X30444807Y-41866665D02*
X30520998Y-41866665D01*
X30520998Y-41866665D02*
X30597188Y-42247618D01*
X30825760Y-41219046D02*
X30863855Y-41295237D01*
X30863855Y-41295237D02*
X30863855Y-41447618D01*
X30863855Y-41447618D02*
X30825760Y-41523808D01*
X30825760Y-41523808D02*
X30749569Y-41561904D01*
X30749569Y-41561904D02*
X30444807Y-41561904D01*
X30444807Y-41561904D02*
X30368617Y-41523808D01*
X30368617Y-41523808D02*
X30330521Y-41447618D01*
X30330521Y-41447618D02*
X30330521Y-41295237D01*
X30330521Y-41295237D02*
X30368617Y-41219046D01*
X30368617Y-41219046D02*
X30444807Y-41180951D01*
X30444807Y-41180951D02*
X30520998Y-41180951D01*
X30520998Y-41180951D02*
X30597188Y-41561904D01*
X30330521Y-40838094D02*
X31130521Y-40838094D01*
X30368617Y-40838094D02*
X30330521Y-40761904D01*
X30330521Y-40761904D02*
X30330521Y-40609523D01*
X30330521Y-40609523D02*
X30368617Y-40533332D01*
X30368617Y-40533332D02*
X30406712Y-40495237D01*
X30406712Y-40495237D02*
X30482902Y-40457142D01*
X30482902Y-40457142D02*
X30711474Y-40457142D01*
X30711474Y-40457142D02*
X30787664Y-40495237D01*
X30787664Y-40495237D02*
X30825760Y-40533332D01*
X30825760Y-40533332D02*
X30863855Y-40609523D01*
X30863855Y-40609523D02*
X30863855Y-40761904D01*
X30863855Y-40761904D02*
X30825760Y-40838094D01*
X30825760Y-39161903D02*
X30863855Y-39238094D01*
X30863855Y-39238094D02*
X30863855Y-39390475D01*
X30863855Y-39390475D02*
X30825760Y-39466665D01*
X30825760Y-39466665D02*
X30787664Y-39504760D01*
X30787664Y-39504760D02*
X30711474Y-39542856D01*
X30711474Y-39542856D02*
X30482902Y-39542856D01*
X30482902Y-39542856D02*
X30406712Y-39504760D01*
X30406712Y-39504760D02*
X30368617Y-39466665D01*
X30368617Y-39466665D02*
X30330521Y-39390475D01*
X30330521Y-39390475D02*
X30330521Y-39238094D01*
X30330521Y-39238094D02*
X30368617Y-39161903D01*
X30863855Y-38704761D02*
X30825760Y-38780951D01*
X30825760Y-38780951D02*
X30749569Y-38819046D01*
X30749569Y-38819046D02*
X30063855Y-38819046D01*
X30825760Y-38095236D02*
X30863855Y-38171427D01*
X30863855Y-38171427D02*
X30863855Y-38323808D01*
X30863855Y-38323808D02*
X30825760Y-38399998D01*
X30825760Y-38399998D02*
X30749569Y-38438094D01*
X30749569Y-38438094D02*
X30444807Y-38438094D01*
X30444807Y-38438094D02*
X30368617Y-38399998D01*
X30368617Y-38399998D02*
X30330521Y-38323808D01*
X30330521Y-38323808D02*
X30330521Y-38171427D01*
X30330521Y-38171427D02*
X30368617Y-38095236D01*
X30368617Y-38095236D02*
X30444807Y-38057141D01*
X30444807Y-38057141D02*
X30520998Y-38057141D01*
X30520998Y-38057141D02*
X30597188Y-38438094D01*
X30863855Y-37371427D02*
X30444807Y-37371427D01*
X30444807Y-37371427D02*
X30368617Y-37409522D01*
X30368617Y-37409522D02*
X30330521Y-37485713D01*
X30330521Y-37485713D02*
X30330521Y-37638094D01*
X30330521Y-37638094D02*
X30368617Y-37714284D01*
X30825760Y-37371427D02*
X30863855Y-37447618D01*
X30863855Y-37447618D02*
X30863855Y-37638094D01*
X30863855Y-37638094D02*
X30825760Y-37714284D01*
X30825760Y-37714284D02*
X30749569Y-37752380D01*
X30749569Y-37752380D02*
X30673379Y-37752380D01*
X30673379Y-37752380D02*
X30597188Y-37714284D01*
X30597188Y-37714284D02*
X30559093Y-37638094D01*
X30559093Y-37638094D02*
X30559093Y-37447618D01*
X30559093Y-37447618D02*
X30520998Y-37371427D01*
X30863855Y-36990474D02*
X30330521Y-36990474D01*
X30482902Y-36990474D02*
X30406712Y-36952379D01*
X30406712Y-36952379D02*
X30368617Y-36914284D01*
X30368617Y-36914284D02*
X30330521Y-36838093D01*
X30330521Y-36838093D02*
X30330521Y-36761903D01*
X26946667Y-14293855D02*
X26680000Y-13912902D01*
X26489524Y-14293855D02*
X26489524Y-13493855D01*
X26489524Y-13493855D02*
X26794286Y-13493855D01*
X26794286Y-13493855D02*
X26870476Y-13531950D01*
X26870476Y-13531950D02*
X26908571Y-13570045D01*
X26908571Y-13570045D02*
X26946667Y-13646236D01*
X26946667Y-13646236D02*
X26946667Y-13760521D01*
X26946667Y-13760521D02*
X26908571Y-13836712D01*
X26908571Y-13836712D02*
X26870476Y-13874807D01*
X26870476Y-13874807D02*
X26794286Y-13912902D01*
X26794286Y-13912902D02*
X26489524Y-13912902D01*
X27708571Y-14293855D02*
X27251428Y-14293855D01*
X27480000Y-14293855D02*
X27480000Y-13493855D01*
X27480000Y-13493855D02*
X27403809Y-13608140D01*
X27403809Y-13608140D02*
X27327619Y-13684331D01*
X27327619Y-13684331D02*
X27251428Y-13722426D01*
X35233333Y-65023855D02*
X35233333Y-65595283D01*
X35233333Y-65595283D02*
X35195238Y-65709569D01*
X35195238Y-65709569D02*
X35119047Y-65785760D01*
X35119047Y-65785760D02*
X35004762Y-65823855D01*
X35004762Y-65823855D02*
X34928571Y-65823855D01*
X35576190Y-65100045D02*
X35614286Y-65061950D01*
X35614286Y-65061950D02*
X35690476Y-65023855D01*
X35690476Y-65023855D02*
X35880952Y-65023855D01*
X35880952Y-65023855D02*
X35957143Y-65061950D01*
X35957143Y-65061950D02*
X35995238Y-65100045D01*
X35995238Y-65100045D02*
X36033333Y-65176236D01*
X36033333Y-65176236D02*
X36033333Y-65252426D01*
X36033333Y-65252426D02*
X35995238Y-65366712D01*
X35995238Y-65366712D02*
X35538095Y-65823855D01*
X35538095Y-65823855D02*
X36033333Y-65823855D01*
X10390476Y-8663855D02*
X10390476Y-9311474D01*
X10390476Y-9311474D02*
X10428571Y-9387664D01*
X10428571Y-9387664D02*
X10466666Y-9425760D01*
X10466666Y-9425760D02*
X10542857Y-9463855D01*
X10542857Y-9463855D02*
X10695238Y-9463855D01*
X10695238Y-9463855D02*
X10771428Y-9425760D01*
X10771428Y-9425760D02*
X10809523Y-9387664D01*
X10809523Y-9387664D02*
X10847619Y-9311474D01*
X10847619Y-9311474D02*
X10847619Y-8663855D01*
X11647618Y-9463855D02*
X11190475Y-9463855D01*
X11419047Y-9463855D02*
X11419047Y-8663855D01*
X11419047Y-8663855D02*
X11342856Y-8778140D01*
X11342856Y-8778140D02*
X11266666Y-8854331D01*
X11266666Y-8854331D02*
X11190475Y-8892426D01*
X21333333Y-26763855D02*
X21333333Y-27335283D01*
X21333333Y-27335283D02*
X21295238Y-27449569D01*
X21295238Y-27449569D02*
X21219047Y-27525760D01*
X21219047Y-27525760D02*
X21104762Y-27563855D01*
X21104762Y-27563855D02*
X21028571Y-27563855D01*
X21714286Y-27563855D02*
X21714286Y-26763855D01*
X21714286Y-26763855D02*
X22019048Y-26763855D01*
X22019048Y-26763855D02*
X22095238Y-26801950D01*
X22095238Y-26801950D02*
X22133333Y-26840045D01*
X22133333Y-26840045D02*
X22171429Y-26916236D01*
X22171429Y-26916236D02*
X22171429Y-27030521D01*
X22171429Y-27030521D02*
X22133333Y-27106712D01*
X22133333Y-27106712D02*
X22095238Y-27144807D01*
X22095238Y-27144807D02*
X22019048Y-27182902D01*
X22019048Y-27182902D02*
X21714286Y-27182902D01*
X22476190Y-26840045D02*
X22514286Y-26801950D01*
X22514286Y-26801950D02*
X22590476Y-26763855D01*
X22590476Y-26763855D02*
X22780952Y-26763855D01*
X22780952Y-26763855D02*
X22857143Y-26801950D01*
X22857143Y-26801950D02*
X22895238Y-26840045D01*
X22895238Y-26840045D02*
X22933333Y-26916236D01*
X22933333Y-26916236D02*
X22933333Y-26992426D01*
X22933333Y-26992426D02*
X22895238Y-27106712D01*
X22895238Y-27106712D02*
X22438095Y-27563855D01*
X22438095Y-27563855D02*
X22933333Y-27563855D01*
X32360476Y-2463855D02*
X32360476Y-1663855D01*
X32360476Y-2044807D02*
X32817619Y-2044807D01*
X32817619Y-2463855D02*
X32817619Y-1663855D01*
X33122380Y-1663855D02*
X33617618Y-1663855D01*
X33617618Y-1663855D02*
X33350952Y-1968617D01*
X33350952Y-1968617D02*
X33465237Y-1968617D01*
X33465237Y-1968617D02*
X33541428Y-2006712D01*
X33541428Y-2006712D02*
X33579523Y-2044807D01*
X33579523Y-2044807D02*
X33617618Y-2120998D01*
X33617618Y-2120998D02*
X33617618Y-2311474D01*
X33617618Y-2311474D02*
X33579523Y-2387664D01*
X33579523Y-2387664D02*
X33541428Y-2425760D01*
X33541428Y-2425760D02*
X33465237Y-2463855D01*
X33465237Y-2463855D02*
X33236666Y-2463855D01*
X33236666Y-2463855D02*
X33160475Y-2425760D01*
X33160475Y-2425760D02*
X33122380Y-2387664D01*
D11*
X30670000Y-7218373D02*
X30270000Y-7218373D01*
X30470000Y-7218373D02*
X30470000Y-6518373D01*
X30470000Y-6518373D02*
X30403333Y-6618373D01*
X30403333Y-6618373D02*
X30336667Y-6685040D01*
X30336667Y-6685040D02*
X30270000Y-6718373D01*
D10*
X17066667Y-65823855D02*
X17066667Y-65023855D01*
X17066667Y-65023855D02*
X17371429Y-65023855D01*
X17371429Y-65023855D02*
X17447619Y-65061950D01*
X17447619Y-65061950D02*
X17485714Y-65100045D01*
X17485714Y-65100045D02*
X17523810Y-65176236D01*
X17523810Y-65176236D02*
X17523810Y-65290521D01*
X17523810Y-65290521D02*
X17485714Y-65366712D01*
X17485714Y-65366712D02*
X17447619Y-65404807D01*
X17447619Y-65404807D02*
X17371429Y-65442902D01*
X17371429Y-65442902D02*
X17066667Y-65442902D01*
X18133333Y-65404807D02*
X17866667Y-65404807D01*
X17866667Y-65823855D02*
X17866667Y-65023855D01*
X17866667Y-65023855D02*
X18247619Y-65023855D01*
X18971428Y-65823855D02*
X18514285Y-65823855D01*
X18742857Y-65823855D02*
X18742857Y-65023855D01*
X18742857Y-65023855D02*
X18666666Y-65138140D01*
X18666666Y-65138140D02*
X18590476Y-65214331D01*
X18590476Y-65214331D02*
X18514285Y-65252426D01*
X19660476Y-2463855D02*
X19660476Y-1663855D01*
X19660476Y-2044807D02*
X20117619Y-2044807D01*
X20117619Y-2463855D02*
X20117619Y-1663855D01*
X20460475Y-1740045D02*
X20498571Y-1701950D01*
X20498571Y-1701950D02*
X20574761Y-1663855D01*
X20574761Y-1663855D02*
X20765237Y-1663855D01*
X20765237Y-1663855D02*
X20841428Y-1701950D01*
X20841428Y-1701950D02*
X20879523Y-1740045D01*
X20879523Y-1740045D02*
X20917618Y-1816236D01*
X20917618Y-1816236D02*
X20917618Y-1892426D01*
X20917618Y-1892426D02*
X20879523Y-2006712D01*
X20879523Y-2006712D02*
X20422380Y-2463855D01*
X20422380Y-2463855D02*
X20917618Y-2463855D01*
D11*
X17970000Y-7218373D02*
X17570000Y-7218373D01*
X17770000Y-7218373D02*
X17770000Y-6518373D01*
X17770000Y-6518373D02*
X17703333Y-6618373D01*
X17703333Y-6618373D02*
X17636667Y-6685040D01*
X17636667Y-6685040D02*
X17570000Y-6718373D01*
D10*
X18366667Y-36887664D02*
X18328571Y-36925760D01*
X18328571Y-36925760D02*
X18214286Y-36963855D01*
X18214286Y-36963855D02*
X18138095Y-36963855D01*
X18138095Y-36963855D02*
X18023809Y-36925760D01*
X18023809Y-36925760D02*
X17947619Y-36849569D01*
X17947619Y-36849569D02*
X17909524Y-36773379D01*
X17909524Y-36773379D02*
X17871428Y-36620998D01*
X17871428Y-36620998D02*
X17871428Y-36506712D01*
X17871428Y-36506712D02*
X17909524Y-36354331D01*
X17909524Y-36354331D02*
X17947619Y-36278140D01*
X17947619Y-36278140D02*
X18023809Y-36201950D01*
X18023809Y-36201950D02*
X18138095Y-36163855D01*
X18138095Y-36163855D02*
X18214286Y-36163855D01*
X18214286Y-36163855D02*
X18328571Y-36201950D01*
X18328571Y-36201950D02*
X18366667Y-36240045D01*
X18671428Y-36240045D02*
X18709524Y-36201950D01*
X18709524Y-36201950D02*
X18785714Y-36163855D01*
X18785714Y-36163855D02*
X18976190Y-36163855D01*
X18976190Y-36163855D02*
X19052381Y-36201950D01*
X19052381Y-36201950D02*
X19090476Y-36240045D01*
X19090476Y-36240045D02*
X19128571Y-36316236D01*
X19128571Y-36316236D02*
X19128571Y-36392426D01*
X19128571Y-36392426D02*
X19090476Y-36506712D01*
X19090476Y-36506712D02*
X18633333Y-36963855D01*
X18633333Y-36963855D02*
X19128571Y-36963855D01*
X15333333Y-45503855D02*
X15333333Y-46075283D01*
X15333333Y-46075283D02*
X15295238Y-46189569D01*
X15295238Y-46189569D02*
X15219047Y-46265760D01*
X15219047Y-46265760D02*
X15104762Y-46303855D01*
X15104762Y-46303855D02*
X15028571Y-46303855D01*
X16133333Y-46303855D02*
X15676190Y-46303855D01*
X15904762Y-46303855D02*
X15904762Y-45503855D01*
X15904762Y-45503855D02*
X15828571Y-45618140D01*
X15828571Y-45618140D02*
X15752381Y-45694331D01*
X15752381Y-45694331D02*
X15676190Y-45732426D01*
D11*
X20800000Y-41458373D02*
X20400000Y-41458373D01*
X20600000Y-41458373D02*
X20600000Y-40758373D01*
X20600000Y-40758373D02*
X20533333Y-40858373D01*
X20533333Y-40858373D02*
X20466667Y-40925040D01*
X20466667Y-40925040D02*
X20400000Y-40958373D01*
D10*
X32263855Y-15166666D02*
X32835283Y-15166666D01*
X32835283Y-15166666D02*
X32949569Y-15204761D01*
X32949569Y-15204761D02*
X33025760Y-15280952D01*
X33025760Y-15280952D02*
X33063855Y-15395237D01*
X33063855Y-15395237D02*
X33063855Y-15471428D01*
X33063855Y-14785713D02*
X32263855Y-14785713D01*
X32263855Y-14785713D02*
X32263855Y-14480951D01*
X32263855Y-14480951D02*
X32301950Y-14404761D01*
X32301950Y-14404761D02*
X32340045Y-14366666D01*
X32340045Y-14366666D02*
X32416236Y-14328570D01*
X32416236Y-14328570D02*
X32530521Y-14328570D01*
X32530521Y-14328570D02*
X32606712Y-14366666D01*
X32606712Y-14366666D02*
X32644807Y-14404761D01*
X32644807Y-14404761D02*
X32682902Y-14480951D01*
X32682902Y-14480951D02*
X32682902Y-14785713D01*
X33063855Y-13566666D02*
X33063855Y-14023809D01*
X33063855Y-13795237D02*
X32263855Y-13795237D01*
X32263855Y-13795237D02*
X32378140Y-13871428D01*
X32378140Y-13871428D02*
X32454331Y-13947618D01*
X32454331Y-13947618D02*
X32492426Y-14023809D01*
X29390476Y-26163855D02*
X29390476Y-26811474D01*
X29390476Y-26811474D02*
X29428571Y-26887664D01*
X29428571Y-26887664D02*
X29466666Y-26925760D01*
X29466666Y-26925760D02*
X29542857Y-26963855D01*
X29542857Y-26963855D02*
X29695238Y-26963855D01*
X29695238Y-26963855D02*
X29771428Y-26925760D01*
X29771428Y-26925760D02*
X29809523Y-26887664D01*
X29809523Y-26887664D02*
X29847619Y-26811474D01*
X29847619Y-26811474D02*
X29847619Y-26163855D01*
X30190475Y-26240045D02*
X30228571Y-26201950D01*
X30228571Y-26201950D02*
X30304761Y-26163855D01*
X30304761Y-26163855D02*
X30495237Y-26163855D01*
X30495237Y-26163855D02*
X30571428Y-26201950D01*
X30571428Y-26201950D02*
X30609523Y-26240045D01*
X30609523Y-26240045D02*
X30647618Y-26316236D01*
X30647618Y-26316236D02*
X30647618Y-26392426D01*
X30647618Y-26392426D02*
X30609523Y-26506712D01*
X30609523Y-26506712D02*
X30152380Y-26963855D01*
X30152380Y-26963855D02*
X30647618Y-26963855D01*
X6960476Y-2463855D02*
X6960476Y-1663855D01*
X6960476Y-2044807D02*
X7417619Y-2044807D01*
X7417619Y-2463855D02*
X7417619Y-1663855D01*
X8217618Y-2463855D02*
X7760475Y-2463855D01*
X7989047Y-2463855D02*
X7989047Y-1663855D01*
X7989047Y-1663855D02*
X7912856Y-1778140D01*
X7912856Y-1778140D02*
X7836666Y-1854331D01*
X7836666Y-1854331D02*
X7760475Y-1892426D01*
D11*
X5270000Y-7218373D02*
X4870000Y-7218373D01*
X5070000Y-7218373D02*
X5070000Y-6518373D01*
X5070000Y-6518373D02*
X5003333Y-6618373D01*
X5003333Y-6618373D02*
X4936667Y-6685040D01*
X4936667Y-6685040D02*
X4870000Y-6718373D01*
D10*
X20366667Y-13887664D02*
X20328571Y-13925760D01*
X20328571Y-13925760D02*
X20214286Y-13963855D01*
X20214286Y-13963855D02*
X20138095Y-13963855D01*
X20138095Y-13963855D02*
X20023809Y-13925760D01*
X20023809Y-13925760D02*
X19947619Y-13849569D01*
X19947619Y-13849569D02*
X19909524Y-13773379D01*
X19909524Y-13773379D02*
X19871428Y-13620998D01*
X19871428Y-13620998D02*
X19871428Y-13506712D01*
X19871428Y-13506712D02*
X19909524Y-13354331D01*
X19909524Y-13354331D02*
X19947619Y-13278140D01*
X19947619Y-13278140D02*
X20023809Y-13201950D01*
X20023809Y-13201950D02*
X20138095Y-13163855D01*
X20138095Y-13163855D02*
X20214286Y-13163855D01*
X20214286Y-13163855D02*
X20328571Y-13201950D01*
X20328571Y-13201950D02*
X20366667Y-13240045D01*
X21128571Y-13963855D02*
X20671428Y-13963855D01*
X20900000Y-13963855D02*
X20900000Y-13163855D01*
X20900000Y-13163855D02*
X20823809Y-13278140D01*
X20823809Y-13278140D02*
X20747619Y-13354331D01*
X20747619Y-13354331D02*
X20671428Y-13392426D01*
%TO.C,R1*%
X23040000Y-16300000D02*
X23810000Y-16300000D01*
X31120000Y-16300000D02*
X30350000Y-16300000D01*
X23810000Y-14930000D02*
X30350000Y-14930000D01*
X30350000Y-17670000D01*
X23810000Y-17670000D01*
X23810000Y-14930000D01*
%TO.C,U1*%
X8940000Y-9940000D02*
X13060000Y-9940000D01*
X8940000Y-10035000D02*
X8940000Y-9940000D01*
X8940000Y-15060000D02*
X8940000Y-14965000D01*
X13060000Y-9940000D02*
X13060000Y-10035000D01*
X13060000Y-14965000D02*
X13060000Y-15060000D01*
X13060000Y-15060000D02*
X8940000Y-15060000D01*
X8400000Y-10030000D02*
X8160000Y-9700000D01*
X8640000Y-9700000D01*
X8400000Y-10030000D01*
G36*
X8400000Y-10030000D02*
G01*
X8160000Y-9700000D01*
X8640000Y-9700000D01*
X8400000Y-10030000D01*
G37*
%TO.C,JP2*%
X19950000Y-29300000D02*
X19950000Y-28700000D01*
X20500000Y-30500000D02*
X21100000Y-30500000D01*
X20600000Y-28000000D02*
X23400000Y-28000000D01*
X20800000Y-30200000D02*
X20500000Y-30500000D01*
X20800000Y-30200000D02*
X21100000Y-30500000D01*
X23400000Y-30000000D02*
X20600000Y-30000000D01*
X24050000Y-28700000D02*
X24050000Y-29300000D01*
X19950000Y-28700000D02*
G75*
G02*
X20650000Y-28000000I699999J1D01*
G01*
X20650000Y-30000000D02*
G75*
G02*
X19950000Y-29300000I-1J699999D01*
G01*
X23350000Y-28000000D02*
G75*
G02*
X24050000Y-28700000I0J-700000D01*
G01*
X24050000Y-29300000D02*
G75*
G02*
X23350000Y-30000000I-700000J0D01*
G01*
%TO.C,H3*%
X28270001Y1800000D02*
X37669999Y1800000D01*
X37669999Y-5900000D01*
X28270001Y-5900000D01*
X28270001Y1800000D01*
%TO.C,H2*%
X15570001Y1800000D02*
X24969999Y1800000D01*
X24969999Y-5900000D01*
X15570001Y-5900000D01*
X15570001Y1800000D01*
%TO.C,C2*%
X17380000Y-32630000D02*
X24620000Y-32630000D01*
X17380000Y-35370000D02*
X17380000Y-32630000D01*
X24620000Y-32630000D02*
X24620000Y-35370000D01*
X24620000Y-35370000D02*
X17380000Y-35370000D01*
%TO.C,J1*%
X8400001Y-42140000D02*
X22799999Y-42140000D01*
X22799999Y-49840000D01*
X8400001Y-49840000D01*
X8400001Y-42140000D01*
%TO.C,JP1*%
X33500000Y-15200000D02*
X33500000Y-13800000D01*
X34200000Y-13100000D02*
X34800000Y-13100000D01*
X34800000Y-15900000D02*
X34200000Y-15900000D01*
X35500000Y-13800000D02*
X35500000Y-15200000D01*
X33500000Y-13800000D02*
G75*
G02*
X34200000Y-13100000I700000J0D01*
G01*
X34200000Y-15900000D02*
G75*
G02*
X33500000Y-15200000I-1J699999D01*
G01*
X34800000Y-13100000D02*
G75*
G02*
X35500000Y-13800000I0J-700000D01*
G01*
X35500000Y-15200000D02*
G75*
G02*
X34800000Y-15900000I-699999J-1D01*
G01*
%TO.C,U2*%
X27940000Y-27440000D02*
X32060000Y-27440000D01*
X27940000Y-27535000D02*
X27940000Y-27440000D01*
X27940000Y-32560000D02*
X27940000Y-32465000D01*
X32060000Y-27440000D02*
X32060000Y-27535000D01*
X32060000Y-32465000D02*
X32060000Y-32560000D01*
X32060000Y-32560000D02*
X27940000Y-32560000D01*
X27400000Y-27530000D02*
X27160000Y-27200000D01*
X27640000Y-27200000D01*
X27400000Y-27530000D01*
G36*
X27400000Y-27530000D02*
G01*
X27160000Y-27200000D01*
X27640000Y-27200000D01*
X27400000Y-27530000D01*
G37*
%TO.C,H1*%
X2870001Y1800000D02*
X12269999Y1800000D01*
X12269999Y-5900000D01*
X2870001Y-5900000D01*
X2870001Y1800000D01*
%TO.C,C1*%
X19380000Y-9630000D02*
X26620000Y-9630000D01*
X19380000Y-12370000D02*
X19380000Y-9630000D01*
X26620000Y-9630000D02*
X26620000Y-12370000D01*
X26620000Y-12370000D02*
X19380000Y-12370000D01*
%TD*%
M02*
