M48
; DRILL file KiCad 10.0.6 date 2026-09-27T00:22:05
; FORMAT={-:-/ absolute / metric / decimal}
; #@! TF.CreationDate,2026-09-27T00:22:05-04:00
; #@! TF.GenerationSoftware,Kicad,Pcbnew,10.0.6
; #@! TF.FileFunction,MixedPlating,1,2
FMAT,2
METRIC
; #@! TA.AperFunction,Plated,PTH,ViaDrill
T1C0.400
; #@! TA.AperFunction,Plated,PTH,ViaDrill
T2C0.500
; #@! TA.AperFunction,Plated,PTH,ComponentDrill
T3C0.800
; #@! TA.AperFunction,Plated,PTH,ComponentDrill
T4C1.000
; #@! TA.AperFunction,Plated,PTH,ComponentDrill
T5C1.100
; #@! TA.AperFunction,Plated,PTH,ComponentDrill
T6C1.200
; #@! TA.AperFunction,NonPlated,NPTH,ComponentDrill
T7C1.200
%
G90
G05
T1
X2.285Y-16.75
X29.417Y-16.955
T2
X4.374Y-49.541
X4.391Y-51.477
X6.474Y-47.434
X8.146Y-15.714
T3
X9.7Y-11.0
X14.7Y-11.0
X17.82Y-10.8
X23.3Y-67.0
X23.3Y-72.0
X27.98Y-10.8
X30.8Y-10.4
X35.8Y-10.4
T4
X13.0Y-75.6
X13.0Y-78.14
X13.0Y-80.68
X13.0Y-83.22
X13.11Y-54.04
X15.5Y-44.5
X15.54Y-75.6
X15.54Y-78.14
X15.54Y-80.68
X15.54Y-83.22
X15.65Y-54.04
X18.08Y-75.6
X18.08Y-78.14
X18.08Y-80.68
X18.08Y-83.22
X18.19Y-54.04
X20.58Y-44.5
X20.62Y-75.6
X20.62Y-78.14
X20.62Y-80.68
X20.62Y-83.22
X23.16Y-75.6
X23.16Y-78.14
X23.16Y-80.68
X23.16Y-83.22
X25.7Y-75.6
X25.7Y-78.14
X25.7Y-80.68
X25.7Y-83.22
X25.81Y-54.04
X28.0Y-69.2
X28.35Y-54.04
X30.5Y-69.2
X30.89Y-54.04
X35.5Y-68.0
X35.5Y-70.54
X35.5Y-73.08
T5
X5.07Y-3.7
X6.0Y-81.3
X7.57Y-3.7
X8.5Y-81.3
X10.0Y-24.95
X10.0Y-28.45
X10.0Y-31.95
X10.0Y-35.45
X10.07Y-3.7
X17.77Y-3.7
X20.16Y-24.95
X20.16Y-28.45
X20.16Y-31.95
X20.16Y-35.45
X20.27Y-3.7
X22.77Y-3.7
X30.47Y-3.7
X32.97Y-3.7
X35.47Y-3.7
T6
X29.0Y-30.0
X34.0Y-30.0
T7
X28.7Y-75.0G85X28.7Y-76.2
G05
X32.5Y-75.0G85X32.5Y-76.2
G05
M30
