%TF.GenerationSoftware,KiCad,Pcbnew,10.0.6*%
%TF.CreationDate,2026-09-12T11:27:56-04:00*%
%TF.ProjectId,ext-board,6578742d-626f-4617-9264-2e6b69636164,rev?*%
%TF.SameCoordinates,Original*%
%TF.FileFunction,Copper,L2,Bot*%
%TF.FilePolarity,Positive*%
%FSLAX46Y46*%
G04 Gerber Fmt 4.6, Leading zero omitted, Abs format (unit mm)*
G04 Created by KiCad (PCBNEW 10.0.6) date 2026-09-12 11:27:56*
%MOMM*%
%LPD*%
G01*
G04 APERTURE LIST*
G04 Aperture macros list*
%AMRoundRect*
0 Rectangle with rounded corners*
0 $1 Rounding radius*
0 $2 $3 $4 $5 $6 $7 $8 $9 X,Y pos of 4 corners*
0 Add a 4 corners polygon primitive as box body*
4,1,4,$2,$3,$4,$5,$6,$7,$8,$9,$2,$3,0*
0 Add four circle primitives for the rounded corners*
1,1,$1+$1,$2,$3*
1,1,$1+$1,$4,$5*
1,1,$1+$1,$6,$7*
1,1,$1+$1,$8,$9*
0 Add four rect primitives between the rounded corners*
20,1,$1+$1,$2,$3,$4,$5,0*
20,1,$1+$1,$4,$5,$6,$7,0*
20,1,$1+$1,$6,$7,$8,$9,0*
20,1,$1+$1,$8,$9,$2,$3,0*%
G04 Aperture macros list end*
%TA.AperFunction,ComponentPad*%
%ADD10C,1.600000*%
%TD*%
%TA.AperFunction,ComponentPad*%
%ADD11RoundRect,0.487500X0.487500X0.487500X-0.487500X0.487500X-0.487500X-0.487500X0.487500X-0.487500X0*%
%TD*%
%TA.AperFunction,ComponentPad*%
%ADD12C,1.950000*%
%TD*%
%TA.AperFunction,ComponentPad*%
%ADD13RoundRect,0.400000X-0.400000X-0.400000X0.400000X-0.400000X0.400000X0.400000X-0.400000X0.400000X0*%
%TD*%
%TA.AperFunction,ComponentPad*%
%ADD14RoundRect,0.487500X-0.487500X-0.487500X0.487500X-0.487500X0.487500X0.487500X-0.487500X0.487500X0*%
%TD*%
%TA.AperFunction,ViaPad*%
%ADD15C,1.000000*%
%TD*%
%TA.AperFunction,ViaPad*%
%ADD16C,0.800000*%
%TD*%
%TA.AperFunction,Conductor*%
%ADD17C,0.500000*%
%TD*%
%TA.AperFunction,Conductor*%
%ADD18C,0.250000*%
%TD*%
%ADD19C,0.350000*%
G04 APERTURE END LIST*
D10*
%TO.P,R1,1*%
%TO.N,VCC*%
X22000000Y-16300000D03*
%TO.P,R1,2*%
%TO.N,DATA*%
X32160000Y-16300000D03*
%TD*%
D11*
%TO.P,J1,1*%
%TO.N,VCC*%
X30350000Y-44340000D03*
D12*
%TO.P,J1,2*%
%TO.N,SDA*%
X27850000Y-44340000D03*
%TO.P,J1,3*%
%TO.N,SCL*%
X25350000Y-44340000D03*
%TO.P,J1,4*%
%TO.N,GPIO4*%
X22850000Y-44340000D03*
%TO.P,J1,5*%
%TO.N,GND*%
X20350000Y-44340000D03*
%TD*%
D13*
%TO.P,J2,1*%
%TO.N,VCC*%
X35500000Y-68000000D03*
D10*
%TO.P,J2,2*%
%TO.N,DATA*%
X35500000Y-70540000D03*
%TO.P,J2,3*%
%TO.N,GND*%
X35500000Y-73080000D03*
%TD*%
D14*
%TO.P,H1,1*%
%TO.N,VCC*%
X5070000Y-3700000D03*
D12*
%TO.P,H1,2*%
%TO.N,DATA*%
X7570000Y-3700000D03*
%TO.P,H1,3*%
%TO.N,GND*%
X10070000Y-3700000D03*
%TD*%
D10*
%TO.P,C1,1*%
%TO.N,VCC*%
X20500000Y-11000000D03*
%TO.P,C1,2*%
%TO.N,GND*%
X25500000Y-11000000D03*
%TD*%
%TO.P,C2,1*%
%TO.N,VCC*%
X30000000Y-37500000D03*
%TO.P,C2,2*%
%TO.N,GND*%
X35000000Y-37500000D03*
%TD*%
%TO.P,PF1,1*%
%TO.N,N/C*%
X5300000Y-68000000D03*
%TO.P,PF1,2*%
X7840000Y-68000000D03*
%TO.P,PF1,3*%
X10380000Y-68000000D03*
%TO.P,PF1,4*%
X12920000Y-68000000D03*
%TO.P,PF1,5*%
X15460000Y-68000000D03*
%TO.P,PF1,6*%
X18000000Y-68000000D03*
%TO.P,PF1,7*%
X20540000Y-68000000D03*
%TO.P,PF1,8*%
X23080000Y-68000000D03*
%TO.P,PF1,9*%
X25620000Y-68000000D03*
%TO.P,PF1,10*%
X28160000Y-68000000D03*
%TO.P,PF1,11*%
X30700000Y-68000000D03*
%TO.P,PF1,12*%
X5300000Y-70540000D03*
%TO.P,PF1,13*%
X7840000Y-70540000D03*
%TO.P,PF1,14*%
X10380000Y-70540000D03*
%TO.P,PF1,15*%
X12920000Y-70540000D03*
%TO.P,PF1,16*%
X15460000Y-70540000D03*
%TO.P,PF1,17*%
X18000000Y-70540000D03*
%TO.P,PF1,18*%
X20540000Y-70540000D03*
%TO.P,PF1,19*%
X23080000Y-70540000D03*
%TO.P,PF1,20*%
X25620000Y-70540000D03*
%TO.P,PF1,21*%
X28160000Y-70540000D03*
%TO.P,PF1,22*%
X30700000Y-70540000D03*
%TO.P,PF1,23*%
X5300000Y-73080000D03*
%TO.P,PF1,24*%
X7840000Y-73080000D03*
%TO.P,PF1,25*%
X10380000Y-73080000D03*
%TO.P,PF1,26*%
X12920000Y-73080000D03*
%TO.P,PF1,27*%
X15460000Y-73080000D03*
%TO.P,PF1,28*%
X18000000Y-73080000D03*
%TO.P,PF1,29*%
X20540000Y-73080000D03*
%TO.P,PF1,30*%
X23080000Y-73080000D03*
%TO.P,PF1,31*%
X25620000Y-73080000D03*
%TO.P,PF1,32*%
X28160000Y-73080000D03*
%TO.P,PF1,33*%
X30700000Y-73080000D03*
%TO.P,PF1,34*%
X5300000Y-75620000D03*
%TO.P,PF1,35*%
X7840000Y-75620000D03*
%TO.P,PF1,36*%
X10380000Y-75620000D03*
%TO.P,PF1,37*%
X12920000Y-75620000D03*
%TO.P,PF1,38*%
X15460000Y-75620000D03*
%TO.P,PF1,39*%
X18000000Y-75620000D03*
%TO.P,PF1,40*%
X20540000Y-75620000D03*
%TO.P,PF1,41*%
X23080000Y-75620000D03*
%TO.P,PF1,42*%
X25620000Y-75620000D03*
%TO.P,PF1,43*%
X28160000Y-75620000D03*
%TO.P,PF1,44*%
X30700000Y-75620000D03*
%TO.P,PF1,45*%
X5300000Y-78160000D03*
%TO.P,PF1,46*%
X7840000Y-78160000D03*
%TO.P,PF1,47*%
X10380000Y-78160000D03*
%TO.P,PF1,48*%
X12920000Y-78160000D03*
%TO.P,PF1,49*%
X15460000Y-78160000D03*
%TO.P,PF1,50*%
X18000000Y-78160000D03*
%TO.P,PF1,51*%
X20540000Y-78160000D03*
%TO.P,PF1,52*%
X23080000Y-78160000D03*
%TO.P,PF1,53*%
X25620000Y-78160000D03*
%TO.P,PF1,54*%
X28160000Y-78160000D03*
%TO.P,PF1,55*%
X30700000Y-78160000D03*
%TO.P,PF1,56*%
X5300000Y-80700000D03*
%TO.P,PF1,57*%
X7840000Y-80700000D03*
%TO.P,PF1,58*%
X10380000Y-80700000D03*
%TO.P,PF1,59*%
X12920000Y-80700000D03*
%TO.P,PF1,60*%
X15460000Y-80700000D03*
%TO.P,PF1,61*%
X18000000Y-80700000D03*
%TO.P,PF1,62*%
X20540000Y-80700000D03*
%TO.P,PF1,63*%
X23080000Y-80700000D03*
%TO.P,PF1,64*%
X25620000Y-80700000D03*
%TO.P,PF1,65*%
X28160000Y-80700000D03*
%TO.P,PF1,66*%
X30700000Y-80700000D03*
%TD*%
D14*
%TO.P,H3,1*%
%TO.N,VCC*%
X30470000Y-3700000D03*
D12*
%TO.P,H3,2*%
%TO.N,H3_DATA*%
X32970000Y-3700000D03*
%TO.P,H3,3*%
%TO.N,GND*%
X35470000Y-3700000D03*
%TD*%
D14*
%TO.P,H2,1*%
%TO.N,VCC*%
X17770000Y-3700000D03*
D12*
%TO.P,H2,2*%
%TO.N,DATA*%
X20270000Y-3700000D03*
%TO.P,H2,3*%
%TO.N,GND*%
X22770000Y-3700000D03*
%TD*%
D15*
%TO.N,VCC*%
X35500000Y-56990200D03*
D16*
%TO.N,DATA*%
X37254200Y-16749800D03*
%TO.N,GPIO4*%
X34500000Y-28245300D03*
%TD*%
%TO.N,VCC*%
D17*
X17770000Y-5242200D02*
X17770000Y-8270000D01*
X6612200Y-5242200D02*
X5070000Y-3700000D01*
X17770000Y-3700000D02*
X17770000Y-5242200D01*
X17770000Y-8270000D02*
X20500000Y-11000000D01*
X30350000Y-51840200D02*
X35500000Y-56990200D01*
X30350000Y-44340000D02*
X30350000Y-51840200D01*
X17770000Y-5242200D02*
X6612200Y-5242200D01*
%TO.N,DATA*%
D18*
X32160000Y-16300000D02*
X36804400Y-16300000D01*
X8951200Y-2318800D02*
X7570000Y-3700000D01*
X29124500Y-16300000D02*
X32160000Y-16300000D01*
X20270000Y-3700000D02*
X18888800Y-2318800D01*
X18888800Y-2318800D02*
X8951200Y-2318800D01*
X36804400Y-16300000D02*
X37254200Y-16749800D01*
X20270000Y-7445500D02*
X29124500Y-16300000D01*
X20270000Y-3700000D02*
X20270000Y-7445500D01*
%TO.N,GPIO4*%
X22850000Y-44340000D02*
X24752600Y-42437400D01*
X31726800Y-42437400D02*
X36176800Y-37987400D01*
X24752600Y-42437400D02*
X31726800Y-42437400D01*
X36176800Y-37987400D02*
X36176800Y-29922100D01*
X36176800Y-29922100D02*
X34500000Y-28245300D01*
%TO.N,GND*%
D17*
X35000000Y-37500000D02*
X31415800Y-41084200D01*
X31415800Y-41084200D02*
X23605800Y-41084200D01*
X25500000Y-11000000D02*
X22770000Y-8270000D01*
X22770000Y-8270000D02*
X22770000Y-3700000D01*
X23605800Y-41084200D02*
X20350000Y-44340000D01*
%TD*%
D19*
X35500000Y-56990200D03*
X37254200Y-16749800D03*
X34500000Y-28245300D03*
X22000000Y-16300000D03*
X32160000Y-16300000D03*
X30350000Y-44340000D03*
X27850000Y-44340000D03*
X25350000Y-44340000D03*
X22850000Y-44340000D03*
X20350000Y-44340000D03*
X35500000Y-68000000D03*
X35500000Y-70540000D03*
X35500000Y-73080000D03*
X5070000Y-3700000D03*
X7570000Y-3700000D03*
X10070000Y-3700000D03*
X20500000Y-11000000D03*
X25500000Y-11000000D03*
X30000000Y-37500000D03*
X35000000Y-37500000D03*
X5300000Y-68000000D03*
X7840000Y-68000000D03*
X10380000Y-68000000D03*
X12920000Y-68000000D03*
X15460000Y-68000000D03*
X18000000Y-68000000D03*
X20540000Y-68000000D03*
X23080000Y-68000000D03*
X25620000Y-68000000D03*
X28160000Y-68000000D03*
X30700000Y-68000000D03*
X5300000Y-70540000D03*
X7840000Y-70540000D03*
X10380000Y-70540000D03*
X12920000Y-70540000D03*
X15460000Y-70540000D03*
X18000000Y-70540000D03*
X20540000Y-70540000D03*
X23080000Y-70540000D03*
X25620000Y-70540000D03*
X28160000Y-70540000D03*
X30700000Y-70540000D03*
X5300000Y-73080000D03*
X7840000Y-73080000D03*
X10380000Y-73080000D03*
X12920000Y-73080000D03*
X15460000Y-73080000D03*
X18000000Y-73080000D03*
X20540000Y-73080000D03*
X23080000Y-73080000D03*
X25620000Y-73080000D03*
X28160000Y-73080000D03*
X30700000Y-73080000D03*
X5300000Y-75620000D03*
X7840000Y-75620000D03*
X10380000Y-75620000D03*
X12920000Y-75620000D03*
X15460000Y-75620000D03*
X18000000Y-75620000D03*
X20540000Y-75620000D03*
X23080000Y-75620000D03*
X25620000Y-75620000D03*
X28160000Y-75620000D03*
X30700000Y-75620000D03*
X5300000Y-78160000D03*
X7840000Y-78160000D03*
X10380000Y-78160000D03*
X12920000Y-78160000D03*
X15460000Y-78160000D03*
X18000000Y-78160000D03*
X20540000Y-78160000D03*
X23080000Y-78160000D03*
X25620000Y-78160000D03*
X28160000Y-78160000D03*
X30700000Y-78160000D03*
X5300000Y-80700000D03*
X7840000Y-80700000D03*
X10380000Y-80700000D03*
X12920000Y-80700000D03*
X15460000Y-80700000D03*
X18000000Y-80700000D03*
X20540000Y-80700000D03*
X23080000Y-80700000D03*
X25620000Y-80700000D03*
X28160000Y-80700000D03*
X30700000Y-80700000D03*
X30470000Y-3700000D03*
X32970000Y-3700000D03*
X35470000Y-3700000D03*
X17770000Y-3700000D03*
X20270000Y-3700000D03*
X22770000Y-3700000D03*
M02*
