G04 #@! TF.GenerationSoftware,KiCad,Pcbnew,10.0.6*
G04 #@! TF.CreationDate,2026-09-26T22:36:58-04:00*
G04 #@! TF.ProjectId,ext-board,6578742d-626f-4617-9264-2e6b69636164,rev?*
G04 #@! TF.SameCoordinates,Original*
G04 #@! TF.FileFunction,Copper,L1,Top*
G04 #@! TF.FilePolarity,Positive*
%FSLAX46Y46*%
G04 Gerber Fmt 4.6, Leading zero omitted, Abs format (unit mm)*
G04 Created by KiCad (PCBNEW 10.0.6) date 2026-09-26 22:36:58*
%MOMM*%
%LPD*%
G01*
G04 APERTURE LIST*
G04 Aperture macros list*
%AMRoundRect*
0 Rectangle with rounded corners*
0 $1 Rounding radius*
0 $2 $3 $4 $5 $6 $7 $8 $9 X,Y pos of 4 corners*
0 Add a 4 corners polygon primitive as box body*
4,1,4,$2,$3,$4,$5,$6,$7,$8,$9,$2,$3,0*
0 Add four circle primitives for the rounded corners*
1,1,$1+$1,$2,$3*
1,1,$1+$1,$4,$5*
1,1,$1+$1,$6,$7*
1,1,$1+$1,$8,$9*
0 Add four rect primitives between the rounded corners*
20,1,$1+$1,$2,$3,$4,$5,0*
20,1,$1+$1,$4,$5,$6,$7,0*
20,1,$1+$1,$6,$7,$8,$9,0*
20,1,$1+$1,$8,$9,$2,$3,0*%
%AMFreePoly0*
4,1,23,0.550000,-0.750000,0.000000,-0.750000,0.000000,-0.745722,-0.065263,-0.745722,-0.191342,-0.711940,-0.304381,-0.646677,-0.396677,-0.554381,-0.461940,-0.441342,-0.495722,-0.315263,-0.495722,-0.250000,-0.500000,-0.250000,-0.500000,0.250000,-0.495722,0.250000,-0.495722,0.315263,-0.461940,0.441342,-0.396677,0.554381,-0.304381,0.646677,-0.191342,0.711940,-0.065263,0.745722,0.000000,0.745722,
0.000000,0.750000,0.550000,0.750000,0.550000,-0.750000,0.550000,-0.750000,$1*%
%AMFreePoly1*
4,1,23,0.000000,0.745722,0.065263,0.745722,0.191342,0.711940,0.304381,0.646677,0.396677,0.554381,0.461940,0.441342,0.495722,0.315263,0.495722,0.250000,0.500000,0.250000,0.500000,-0.250000,0.495722,-0.250000,0.495722,-0.315263,0.461940,-0.441342,0.396677,-0.554381,0.304381,-0.646677,0.191342,-0.711940,0.065263,-0.745722,0.000000,-0.745722,0.000000,-0.750000,-0.550000,-0.750000,
-0.550000,0.750000,0.000000,0.750000,0.000000,0.745722,0.000000,0.745722,$1*%
%AMFreePoly2*
4,1,23,0.500000,-0.750000,0.000000,-0.750000,0.000000,-0.745722,-0.065263,-0.745722,-0.191342,-0.711940,-0.304381,-0.646677,-0.396677,-0.554381,-0.461940,-0.441342,-0.495722,-0.315263,-0.495722,-0.250000,-0.500000,-0.250000,-0.500000,0.250000,-0.495722,0.250000,-0.495722,0.315263,-0.461940,0.441342,-0.396677,0.554381,-0.304381,0.646677,-0.191342,0.711940,-0.065263,0.745722,0.000000,0.745722,
0.000000,0.750000,0.500000,0.750000,0.500000,-0.750000,0.500000,-0.750000,$1*%
%AMFreePoly3*
4,1,23,0.000000,0.745722,0.065263,0.745722,0.191342,0.711940,0.304381,0.646677,0.396677,0.554381,0.461940,0.441342,0.495722,0.315263,0.495722,0.250000,0.500000,0.250000,0.500000,-0.250000,0.495722,-0.250000,0.495722,-0.315263,0.461940,-0.441342,0.396677,-0.554381,0.304381,-0.646677,0.191342,-0.711940,0.065263,-0.745722,0.000000,-0.745722,0.000000,-0.750000,-0.500000,-0.750000,
-0.500000,0.750000,0.000000,0.750000,0.000000,0.745722,0.000000,0.745722,$1*%
G04 Aperture macros list end*
G04 #@! TA.AperFunction,ComponentPad*
%ADD10C,1.600000*%
G04 #@! TD*
G04 #@! TA.AperFunction,ComponentPad*
%ADD11RoundRect,0.249999X-0.850001X-0.850001X0.850001X-0.850001X0.850001X0.850001X-0.850001X0.850001X0*%
G04 #@! TD*
G04 #@! TA.AperFunction,ComponentPad*
%ADD12C,2.200000*%
G04 #@! TD*
G04 #@! TA.AperFunction,ComponentPad*
%ADD13RoundRect,0.487500X0.487500X0.487500X-0.487500X0.487500X-0.487500X-0.487500X0.487500X-0.487500X0*%
G04 #@! TD*
G04 #@! TA.AperFunction,ComponentPad*
%ADD14C,1.950000*%
G04 #@! TD*
G04 #@! TA.AperFunction,ComponentPad*
%ADD15RoundRect,0.450000X-0.450000X-0.450000X0.450000X-0.450000X0.450000X0.450000X-0.450000X0.450000X0*%
G04 #@! TD*
G04 #@! TA.AperFunction,ComponentPad*
%ADD16C,1.800000*%
G04 #@! TD*
G04 #@! TA.AperFunction,ComponentPad*
%ADD17RoundRect,0.400000X-0.400000X-0.400000X0.400000X-0.400000X0.400000X0.400000X-0.400000X0.400000X0*%
G04 #@! TD*
G04 #@! TA.AperFunction,SMDPad,CuDef*
%ADD18FreePoly0,0.000000*%
G04 #@! TD*
G04 #@! TA.AperFunction,SMDPad,CuDef*
%ADD19R,1.000000X1.500000*%
G04 #@! TD*
G04 #@! TA.AperFunction,SMDPad,CuDef*
%ADD20FreePoly1,0.000000*%
G04 #@! TD*
G04 #@! TA.AperFunction,ComponentPad*
%ADD21RoundRect,0.487500X-0.487500X-0.487500X0.487500X-0.487500X0.487500X0.487500X-0.487500X0.487500X0*%
G04 #@! TD*
G04 #@! TA.AperFunction,SMDPad,CuDef*
%ADD22RoundRect,0.150000X-0.825000X-0.150000X0.825000X-0.150000X0.825000X0.150000X-0.825000X0.150000X0*%
G04 #@! TD*
G04 #@! TA.AperFunction,ComponentPad*
%ADD23RoundRect,0.250001X-0.949999X-0.949999X0.949999X-0.949999X0.949999X0.949999X-0.949999X0.949999X0*%
G04 #@! TD*
G04 #@! TA.AperFunction,ComponentPad*
%ADD24C,2.400000*%
G04 #@! TD*
G04 #@! TA.AperFunction,SMDPad,CuDef*
%ADD25FreePoly2,90.000000*%
G04 #@! TD*
G04 #@! TA.AperFunction,SMDPad,CuDef*
%ADD26FreePoly3,90.000000*%
G04 #@! TD*
G04 #@! TA.AperFunction,ComponentPad*
%ADD27RoundRect,0.250000X-0.600000X-0.750000X0.600000X-0.750000X0.600000X0.750000X-0.600000X0.750000X0*%
G04 #@! TD*
G04 #@! TA.AperFunction,ComponentPad*
%ADD28O,1.700000X2.000000*%
G04 #@! TD*
G04 #@! TA.AperFunction,SMDPad,CuDef*
%ADD29RoundRect,0.150000X0.700000X-0.150000X0.700000X0.150000X-0.700000X0.150000X-0.700000X-0.150000X0*%
G04 #@! TD*
G04 #@! TA.AperFunction,SMDPad,CuDef*
%ADD30RoundRect,0.250000X1.150000X-0.250000X1.150000X0.250000X-1.150000X0.250000X-1.150000X-0.250000X0*%
G04 #@! TD*
G04 #@! TA.AperFunction,ViaPad*
%ADD31C,1.000000*%
G04 #@! TD*
G04 #@! TA.AperFunction,ViaPad*
%ADD32C,0.800000*%
G04 #@! TD*
G04 #@! TA.AperFunction,Conductor*
%ADD33C,0.500000*%
G04 #@! TD*
G04 #@! TA.AperFunction,Conductor*
%ADD34C,0.400000*%
G04 #@! TD*
G04 #@! TA.AperFunction,Conductor*
%ADD35C,0.250000*%
G04 #@! TD*
G04 APERTURE END LIST*
D10*
G04 #@! TO.P,R1,1*
G04 #@! TO.N,VCC*
X17820000Y-10800000D03*
G04 #@! TO.P,R1,2*
G04 #@! TO.N,DATA*
X27980000Y-10800000D03*
G04 #@! TD*
D11*
G04 #@! TO.P,D3,1*
G04 #@! TO.N,ACF*
X10000000Y-31950000D03*
D12*
G04 #@! TO.P,D3,2*
G04 #@! TO.N,COM*
X20160000Y-31950000D03*
G04 #@! TD*
D13*
G04 #@! TO.P,J3,1*
G04 #@! TO.N,ACR*
X8500000Y-81300000D03*
D14*
G04 #@! TO.P,J3,2*
G04 #@! TO.N,ACC*
X6000000Y-81300000D03*
G04 #@! TD*
D10*
G04 #@! TO.P,C4,1*
G04 #@! TO.N,+5V*
X23300000Y-67000000D03*
G04 #@! TO.P,C4,2*
G04 #@! TO.N,GND*
X23300000Y-72000000D03*
G04 #@! TD*
D15*
G04 #@! TO.P,F1,1*
G04 #@! TO.N,ACR*
X15500000Y-44500000D03*
D16*
G04 #@! TO.P,F1,2*
G04 #@! TO.N,ACF*
X20580000Y-44500000D03*
G04 #@! TD*
D15*
G04 #@! TO.P,U3,1*
G04 #@! TO.N,COM*
X13110000Y-54040000D03*
D16*
G04 #@! TO.P,U3,2*
G04 #@! TO.N,VS*
X15650000Y-54040000D03*
G04 #@! TO.P,U3,3*
G04 #@! TO.N,N/C*
X18190000Y-54040000D03*
G04 #@! TO.P,U3,6*
G04 #@! TO.N,+5V*
X25810000Y-54040000D03*
G04 #@! TO.P,U3,7*
G04 #@! TO.N,GND*
X28350000Y-54040000D03*
G04 #@! TO.P,U3,8*
G04 #@! TO.N,N/C*
X30890000Y-54040000D03*
G04 #@! TD*
D17*
G04 #@! TO.P,J2,1*
G04 #@! TO.N,VCC*
X35500000Y-68000000D03*
D10*
G04 #@! TO.P,J2,2*
G04 #@! TO.N,DATA*
X35500000Y-70540000D03*
G04 #@! TO.P,J2,3*
G04 #@! TO.N,GND*
X35500000Y-73080000D03*
G04 #@! TD*
D18*
G04 #@! TO.P,JP2,1*
G04 #@! TO.N,DATA*
X21700000Y-15200000D03*
D19*
G04 #@! TO.P,JP2,2*
G04 #@! TO.N,H3_DATA*
X23000000Y-15200000D03*
D20*
G04 #@! TO.P,JP2,3*
G04 #@! TO.N,DATA_H3*
X24300000Y-15200000D03*
G04 #@! TD*
D21*
G04 #@! TO.P,H1,1*
G04 #@! TO.N,VCC*
X5070000Y-3700000D03*
D14*
G04 #@! TO.P,H1,2*
G04 #@! TO.N,DATA*
X7570000Y-3700000D03*
G04 #@! TO.P,H1,3*
G04 #@! TO.N,GND*
X10070000Y-3700000D03*
G04 #@! TD*
D10*
G04 #@! TO.P,PF1,1*
G04 #@! TO.N,N/C*
X13000000Y-75600000D03*
G04 #@! TO.P,PF1,2*
X15540000Y-75600000D03*
G04 #@! TO.P,PF1,3*
X18080000Y-75600000D03*
G04 #@! TO.P,PF1,4*
X20620000Y-75600000D03*
G04 #@! TO.P,PF1,5*
X23160000Y-75600000D03*
G04 #@! TO.P,PF1,6*
X25700000Y-75600000D03*
G04 #@! TO.P,PF1,7*
X13000000Y-78140000D03*
G04 #@! TO.P,PF1,8*
X15540000Y-78140000D03*
G04 #@! TO.P,PF1,9*
X18080000Y-78140000D03*
G04 #@! TO.P,PF1,10*
X20620000Y-78140000D03*
G04 #@! TO.P,PF1,11*
X23160000Y-78140000D03*
G04 #@! TO.P,PF1,12*
X25700000Y-78140000D03*
G04 #@! TO.P,PF1,13*
X13000000Y-80680000D03*
G04 #@! TO.P,PF1,14*
X15540000Y-80680000D03*
G04 #@! TO.P,PF1,15*
X18080000Y-80680000D03*
G04 #@! TO.P,PF1,16*
X20620000Y-80680000D03*
G04 #@! TO.P,PF1,17*
X23160000Y-80680000D03*
G04 #@! TO.P,PF1,18*
X25700000Y-80680000D03*
G04 #@! TO.P,PF1,19*
X13000000Y-83220000D03*
G04 #@! TO.P,PF1,20*
X15540000Y-83220000D03*
G04 #@! TO.P,PF1,21*
X18080000Y-83220000D03*
G04 #@! TO.P,PF1,22*
X20620000Y-83220000D03*
G04 #@! TO.P,PF1,23*
X23160000Y-83220000D03*
G04 #@! TO.P,PF1,24*
X25700000Y-83220000D03*
G04 #@! TD*
D22*
G04 #@! TO.P,U2,1*
G04 #@! TO.N,VCC*
X31025000Y-13145000D03*
G04 #@! TO.P,U2,2*
G04 #@! TO.N,DATA_H3*
X31025000Y-14415000D03*
G04 #@! TO.P,U2,3*
G04 #@! TO.N,GND*
X31025000Y-15685000D03*
G04 #@! TO.P,U2,4*
G04 #@! TO.N,SCL*
X31025000Y-16955000D03*
G04 #@! TO.P,U2,5*
G04 #@! TO.N,SDA*
X35975000Y-16955000D03*
G04 #@! TO.P,U2,6*
G04 #@! TO.N,N/C*
X35975000Y-15685000D03*
G04 #@! TO.P,U2,7*
G04 #@! TO.N,GND*
X35975000Y-14415000D03*
G04 #@! TO.P,U2,8*
G04 #@! TO.N,VCC*
X35975000Y-13145000D03*
G04 #@! TD*
D23*
G04 #@! TO.P,C3,1*
G04 #@! TO.N,VS*
X29000000Y-30000000D03*
D24*
G04 #@! TO.P,C3,2*
G04 #@! TO.N,COM*
X34000000Y-30000000D03*
G04 #@! TD*
D21*
G04 #@! TO.P,H3,1*
G04 #@! TO.N,VCC*
X30470000Y-3700000D03*
D14*
G04 #@! TO.P,H3,2*
G04 #@! TO.N,H3_DATA*
X32970000Y-3700000D03*
G04 #@! TO.P,H3,3*
G04 #@! TO.N,GND*
X35470000Y-3700000D03*
G04 #@! TD*
D25*
G04 #@! TO.P,JP1,1*
G04 #@! TO.N,GPIO4*
X11300000Y-15350000D03*
D26*
G04 #@! TO.P,JP1,2*
G04 #@! TO.N,DATA*
X11300000Y-14050000D03*
G04 #@! TD*
D21*
G04 #@! TO.P,H2,1*
G04 #@! TO.N,VCC*
X17770000Y-3700000D03*
D14*
G04 #@! TO.P,H2,2*
G04 #@! TO.N,DATA*
X20270000Y-3700000D03*
G04 #@! TO.P,H2,3*
G04 #@! TO.N,GND*
X22770000Y-3700000D03*
G04 #@! TD*
D27*
G04 #@! TO.P,J4,1*
G04 #@! TO.N,+5V*
X28000000Y-69200000D03*
D28*
G04 #@! TO.P,J4,2*
G04 #@! TO.N,GND*
X30500000Y-69200000D03*
G04 #@! TD*
D22*
G04 #@! TO.P,U1,1*
G04 #@! TO.N,VCC*
X2025000Y-10595000D03*
G04 #@! TO.P,U1,2*
G04 #@! TO.N,DATA*
X2025000Y-11865000D03*
G04 #@! TO.P,U1,3*
G04 #@! TO.N,GND*
X2025000Y-13135000D03*
G04 #@! TO.P,U1,4*
G04 #@! TO.N,SCL*
X2025000Y-14405000D03*
G04 #@! TO.P,U1,5*
G04 #@! TO.N,SDA*
X6975000Y-14405000D03*
G04 #@! TO.P,U1,6*
G04 #@! TO.N,N/C*
X6975000Y-13135000D03*
G04 #@! TO.P,U1,7*
G04 #@! TO.N,GND*
X6975000Y-11865000D03*
G04 #@! TO.P,U1,8*
X6975000Y-10595000D03*
G04 #@! TD*
D10*
G04 #@! TO.P,C2,1*
G04 #@! TO.N,VCC*
X30800000Y-10400000D03*
G04 #@! TO.P,C2,2*
G04 #@! TO.N,GND*
X35800000Y-10400000D03*
G04 #@! TD*
D11*
G04 #@! TO.P,D4,1*
G04 #@! TO.N,ACC*
X10000000Y-35450000D03*
D12*
G04 #@! TO.P,D4,2*
G04 #@! TO.N,COM*
X20160000Y-35450000D03*
G04 #@! TD*
D11*
G04 #@! TO.P,D1,1*
G04 #@! TO.N,VS*
X10000000Y-24950000D03*
D12*
G04 #@! TO.P,D1,2*
G04 #@! TO.N,ACF*
X20160000Y-24950000D03*
G04 #@! TD*
D11*
G04 #@! TO.P,D2,1*
G04 #@! TO.N,VS*
X10000000Y-28450000D03*
D12*
G04 #@! TO.P,D2,2*
G04 #@! TO.N,ACC*
X20160000Y-28450000D03*
G04 #@! TD*
D10*
G04 #@! TO.P,C1,1*
G04 #@! TO.N,VCC*
X9700000Y-11000000D03*
G04 #@! TO.P,C1,2*
G04 #@! TO.N,GND*
X14700000Y-11000000D03*
G04 #@! TD*
D29*
G04 #@! TO.P,J1,1*
G04 #@! TO.N,VCC*
X6250000Y-56250000D03*
G04 #@! TO.P,J1,2*
G04 #@! TO.N,SDA*
X6250000Y-55000000D03*
G04 #@! TO.P,J1,3*
G04 #@! TO.N,SCL*
X6250000Y-53750000D03*
G04 #@! TO.P,J1,4*
G04 #@! TO.N,GPIO4*
X6250000Y-52500000D03*
G04 #@! TO.P,J1,5*
G04 #@! TO.N,GND*
X6250000Y-51250000D03*
G04 #@! TO.P,J1,6*
G04 #@! TO.N,VS*
X6250000Y-50000000D03*
G04 #@! TO.P,J1,7*
G04 #@! TO.N,COM*
X6250000Y-48750000D03*
D30*
G04 #@! TO.P,J1,MP*
G04 #@! TO.N,N/C*
X2900000Y-58100000D03*
X2900000Y-46900000D03*
G04 #@! TD*
D31*
G04 #@! TO.N,VCC*
X27047300Y-14965900D03*
X6250000Y-66492300D03*
G04 #@! TO.N,COM*
X6255100Y-47410700D03*
G04 #@! TO.N,GND*
X33118400Y-24220900D03*
X33151000Y-15725900D03*
D32*
G04 #@! TO.N,SCL*
X9250300Y-16273000D03*
X28892000Y-16275500D03*
G04 #@! TO.N,SDA*
X6975000Y-16502200D03*
X34390900Y-16955000D03*
G04 #@! TD*
G04 #@! TO.N,VCC*
D33*
X35500000Y-68000000D02*
X35500000Y-51776400D01*
X30800000Y-12700200D02*
X30800000Y-10400000D01*
X17770000Y-9378300D02*
X17770000Y-10750000D01*
D34*
X31025000Y-13145000D02*
X35975000Y-13145000D01*
D33*
X11321700Y-9378300D02*
X9700000Y-11000000D01*
X30800000Y-4030000D02*
X30470000Y-3700000D01*
X17770000Y-10750000D02*
X17820000Y-10800000D01*
X17770000Y-3700000D02*
X17770000Y-9378300D01*
X27047300Y-16230500D02*
X27047300Y-14965900D01*
X35500000Y-51776400D02*
X31811800Y-48088200D01*
X17770000Y-9378300D02*
X11321700Y-9378300D01*
X30800000Y-10400000D02*
X30800000Y-4030000D01*
X2025000Y-10595000D02*
X5070000Y-7550000D01*
X31811800Y-48088200D02*
X31811800Y-20995000D01*
X5070000Y-7550000D02*
X5070000Y-3700000D01*
X6250000Y-56250000D02*
X6250000Y-66492300D01*
X31811800Y-20995000D02*
X27047300Y-16230500D01*
X31244800Y-13145000D02*
X30800000Y-12700200D01*
G04 #@! TO.N,DATA*
D35*
X24100000Y-10800000D02*
X27980000Y-10800000D01*
X11300000Y-14050000D02*
X20550000Y-14050000D01*
X7570000Y-7141900D02*
X7570000Y-3700000D01*
X23744900Y-17716900D02*
X21700000Y-15672000D01*
X30880800Y-23466100D02*
X25131600Y-17716900D01*
X2025000Y-11865000D02*
X2846900Y-11865000D01*
X30880800Y-49938000D02*
X30880800Y-23466100D01*
X20550000Y-14050000D02*
X20700000Y-14200000D01*
X20700000Y-14200000D02*
X24100000Y-10800000D01*
X33077100Y-52134300D02*
X30880800Y-49938000D01*
X21700000Y-15672000D02*
X21700000Y-15200000D01*
X25131600Y-17716900D02*
X23744900Y-17716900D01*
X2846900Y-11865000D02*
X7570000Y-7141900D01*
X20700000Y-14200000D02*
X21700000Y-15200000D01*
X24100000Y-7530000D02*
X24100000Y-10800000D01*
X33077100Y-68117100D02*
X33077100Y-52134300D01*
X20270000Y-3700000D02*
X24100000Y-7530000D01*
X35500000Y-70540000D02*
X33077100Y-68117100D01*
G04 #@! TO.N,ACF*
D33*
X22022500Y-43057500D02*
X22022500Y-26812500D01*
X20580000Y-44500000D02*
X22022500Y-43057500D01*
X22022500Y-26812500D02*
X20160000Y-24950000D01*
G04 #@! TO.N,COM*
X6255100Y-48744900D02*
X6255100Y-47410700D01*
X6250000Y-48750000D02*
X6255100Y-48744900D01*
G04 #@! TO.N,ACR*
X19847400Y-48847400D02*
X19847400Y-58988300D01*
X8500000Y-70335700D02*
X8500000Y-81300000D01*
X19847400Y-58988300D02*
X8500000Y-70335700D01*
X15500000Y-44500000D02*
X19847400Y-48847400D01*
G04 #@! TO.N,ACC*
X10000000Y-67419000D02*
X6000000Y-71419000D01*
X10000000Y-35450000D02*
X10000000Y-67419000D01*
X6000000Y-71419000D02*
X6000000Y-81300000D01*
G04 #@! TO.N,+5V*
X25810000Y-67000000D02*
X23300000Y-67000000D01*
X25810000Y-67000000D02*
X25810000Y-67010000D01*
X25810000Y-67010000D02*
X28000000Y-69200000D01*
X25810000Y-54040000D02*
X25810000Y-67000000D01*
G04 #@! TO.N,GND*
X33151000Y-15725900D02*
X33118400Y-15758500D01*
X9057300Y-12551700D02*
X13148300Y-12551700D01*
X6975000Y-11865000D02*
X8370600Y-11865000D01*
X11266700Y-81277400D02*
X11266700Y-75109500D01*
X30500000Y-69200000D02*
X30500000Y-56190000D01*
X7913400Y-67990200D02*
X4261100Y-71642500D01*
X7144600Y-51250000D02*
X7913400Y-52018800D01*
X31065900Y-15725900D02*
X33151000Y-15725900D01*
X14376200Y-72000000D02*
X23300000Y-72000000D01*
X6975000Y-10595000D02*
X6975000Y-11865000D01*
X35470000Y-10070000D02*
X35470000Y-3700000D01*
X34461900Y-14415000D02*
X33151000Y-15725900D01*
X5484000Y-11865000D02*
X4214000Y-13135000D01*
X31025000Y-15685000D02*
X31065900Y-15725900D01*
X35975000Y-14415000D02*
X34461900Y-14415000D01*
X13148300Y-12551700D02*
X14700000Y-11000000D01*
X35800000Y-10400000D02*
X35470000Y-10070000D01*
X11266700Y-75109500D02*
X14376200Y-72000000D01*
X4261100Y-82068300D02*
X5225200Y-83032400D01*
X4214000Y-13135000D02*
X2025000Y-13135000D01*
X33118400Y-15758500D02*
X33118400Y-24220900D01*
X30500000Y-56190000D02*
X28350000Y-54040000D01*
X8370600Y-11865000D02*
X9057300Y-12551700D01*
X6975000Y-11865000D02*
X5484000Y-11865000D01*
X7913400Y-52018800D02*
X7913400Y-67990200D01*
X4261100Y-71642500D02*
X4261100Y-82068300D01*
X9511700Y-83032400D02*
X11266700Y-81277400D01*
X5225200Y-83032400D02*
X9511700Y-83032400D01*
X6250000Y-51250000D02*
X7144600Y-51250000D01*
G04 #@! TO.N,VS*
X7154100Y-50000000D02*
X6250000Y-50000000D01*
X29000000Y-30000000D02*
X29000000Y-22900000D01*
X10000000Y-24950000D02*
X10000000Y-28450000D01*
X15650000Y-54040000D02*
X15650000Y-50301400D01*
X29000000Y-22900000D02*
X10000000Y-22900000D01*
X12070500Y-46721900D02*
X12070500Y-30896800D01*
X8138100Y-30693800D02*
X8138100Y-49016000D01*
X15650000Y-50301400D02*
X12070500Y-46721900D01*
X12070500Y-30896800D02*
X10002800Y-28829100D01*
X10002800Y-28829100D02*
X8138100Y-30693800D01*
X10000000Y-28826300D02*
X10002800Y-28829100D01*
X10000000Y-28450000D02*
X10000000Y-28826300D01*
X8138100Y-49016000D02*
X7154100Y-50000000D01*
X10000000Y-22900000D02*
X10000000Y-24950000D01*
G04 #@! TO.N,H3_DATA*
D35*
X31459000Y-2071800D02*
X29532600Y-2071800D01*
X28865200Y-8211000D02*
X29146800Y-8492600D01*
X24094000Y-13029300D02*
X23000000Y-14123300D01*
X32970000Y-3582800D02*
X31459000Y-2071800D01*
X29532600Y-2071800D02*
X28865200Y-2739200D01*
X32970000Y-3700000D02*
X32970000Y-3582800D01*
X23000000Y-15200000D02*
X23000000Y-14123300D01*
X29146800Y-8492600D02*
X29146800Y-11271200D01*
X29146800Y-11271200D02*
X27388700Y-13029300D01*
X28865200Y-2739200D02*
X28865200Y-8211000D01*
X27388700Y-13029300D02*
X24094000Y-13029300D01*
G04 #@! TO.N,DATA_H3*
X28099000Y-14415000D02*
X27514300Y-13830300D01*
X25669700Y-13830300D02*
X24300000Y-15200000D01*
X31025000Y-14415000D02*
X28099000Y-14415000D01*
X27514300Y-13830300D02*
X25669700Y-13830300D01*
G04 #@! TO.N,SCL*
X1149700Y-24373600D02*
X9250300Y-16273000D01*
X5324900Y-14405000D02*
X2025000Y-14405000D01*
X1149700Y-48924800D02*
X1149700Y-24373600D01*
X5952200Y-13777700D02*
X5324900Y-14405000D01*
X9250300Y-16273000D02*
X9250300Y-14980600D01*
X5974900Y-53750000D02*
X1149700Y-48924800D01*
X9250300Y-14980600D02*
X8047400Y-13777700D01*
X28892000Y-16275500D02*
X29571500Y-16955000D01*
X6250000Y-53750000D02*
X5974900Y-53750000D01*
X8047400Y-13777700D02*
X5952200Y-13777700D01*
X29571500Y-16955000D02*
X31025000Y-16955000D01*
G04 #@! TO.N,SDA*
X698000Y-22779200D02*
X698000Y-49734900D01*
X34390900Y-16955000D02*
X35975000Y-16955000D01*
X6975000Y-16502200D02*
X6975000Y-14405000D01*
X5963100Y-55000000D02*
X6250000Y-55000000D01*
X698000Y-49734900D02*
X5963100Y-55000000D01*
X6975000Y-16502200D02*
X698000Y-22779200D01*
G04 #@! TO.N,GPIO4*
X5542600Y-52500000D02*
X4745100Y-51702500D01*
X4745100Y-51702500D02*
X4745100Y-21904900D01*
X4745100Y-21904900D02*
X11300000Y-15350000D01*
X6250000Y-52500000D02*
X5542600Y-52500000D01*
G04 #@! TD*
M02*
