G04 #@! TF.GenerationSoftware,KiCad,Pcbnew,10.0.6*
G04 #@! TF.CreationDate,2026-09-26T22:36:58-04:00*
G04 #@! TF.ProjectId,ext-board,6578742d-626f-4617-9264-2e6b69636164,rev?*
G04 #@! TF.SameCoordinates,Original*
G04 #@! TF.FileFunction,Soldermask,Top*
G04 #@! TF.FilePolarity,Negative*
%FSLAX46Y46*%
G04 Gerber Fmt 4.6, Leading zero omitted, Abs format (unit mm)*
G04 Created by KiCad (PCBNEW 10.0.6) date 2026-09-26 22:36:58*
%MOMM*%
%LPD*%
G01*
G04 APERTURE LIST*
G04 Aperture macros list*
%AMRoundRect*
0 Rectangle with rounded corners*
0 $1 Rounding radius*
0 $2 $3 $4 $5 $6 $7 $8 $9 X,Y pos of 4 corners*
0 Add a 4 corners polygon primitive as box body*
4,1,4,$2,$3,$4,$5,$6,$7,$8,$9,$2,$3,0*
0 Add four circle primitives for the rounded corners*
1,1,$1+$1,$2,$3*
1,1,$1+$1,$4,$5*
1,1,$1+$1,$6,$7*
1,1,$1+$1,$8,$9*
0 Add four rect primitives between the rounded corners*
20,1,$1+$1,$2,$3,$4,$5,0*
20,1,$1+$1,$4,$5,$6,$7,0*
20,1,$1+$1,$6,$7,$8,$9,0*
20,1,$1+$1,$8,$9,$2,$3,0*%
%AMFreePoly0*
4,1,23,0.550000,-0.750000,0.000000,-0.750000,0.000000,-0.745722,-0.065263,-0.745722,-0.191342,-0.711940,-0.304381,-0.646677,-0.396677,-0.554381,-0.461940,-0.441342,-0.495722,-0.315263,-0.495722,-0.250000,-0.500000,-0.250000,-0.500000,0.250000,-0.495722,0.250000,-0.495722,0.315263,-0.461940,0.441342,-0.396677,0.554381,-0.304381,0.646677,-0.191342,0.711940,-0.065263,0.745722,0.000000,0.745722,
0.000000,0.750000,0.550000,0.750000,0.550000,-0.750000,0.550000,-0.750000,$1*%
%AMFreePoly1*
4,1,23,0.000000,0.745722,0.065263,0.745722,0.191342,0.711940,0.304381,0.646677,0.396677,0.554381,0.461940,0.441342,0.495722,0.315263,0.495722,0.250000,0.500000,0.250000,0.500000,-0.250000,0.495722,-0.250000,0.495722,-0.315263,0.461940,-0.441342,0.396677,-0.554381,0.304381,-0.646677,0.191342,-0.711940,0.065263,-0.745722,0.000000,-0.745722,0.000000,-0.750000,-0.550000,-0.750000,
-0.550000,0.750000,0.000000,0.750000,0.000000,0.745722,0.000000,0.745722,$1*%
%AMFreePoly2*
4,1,23,0.500000,-0.750000,0.000000,-0.750000,0.000000,-0.745722,-0.065263,-0.745722,-0.191342,-0.711940,-0.304381,-0.646677,-0.396677,-0.554381,-0.461940,-0.441342,-0.495722,-0.315263,-0.495722,-0.250000,-0.500000,-0.250000,-0.500000,0.250000,-0.495722,0.250000,-0.495722,0.315263,-0.461940,0.441342,-0.396677,0.554381,-0.304381,0.646677,-0.191342,0.711940,-0.065263,0.745722,0.000000,0.745722,
0.000000,0.750000,0.500000,0.750000,0.500000,-0.750000,0.500000,-0.750000,$1*%
%AMFreePoly3*
4,1,23,0.000000,0.745722,0.065263,0.745722,0.191342,0.711940,0.304381,0.646677,0.396677,0.554381,0.461940,0.441342,0.495722,0.315263,0.495722,0.250000,0.500000,0.250000,0.500000,-0.250000,0.495722,-0.250000,0.495722,-0.315263,0.461940,-0.441342,0.396677,-0.554381,0.304381,-0.646677,0.191342,-0.711940,0.065263,-0.745722,0.000000,-0.745722,0.000000,-0.750000,-0.500000,-0.750000,
-0.500000,0.750000,0.000000,0.750000,0.000000,0.745722,0.000000,0.745722,$1*%
G04 Aperture macros list end*
%ADD10C,1.600000*%
%ADD11O,1.200000X2.400000*%
%ADD12RoundRect,0.249999X-0.850001X-0.850001X0.850001X-0.850001X0.850001X0.850001X-0.850001X0.850001X0*%
%ADD13C,2.200000*%
%ADD14RoundRect,0.487500X0.487500X0.487500X-0.487500X0.487500X-0.487500X-0.487500X0.487500X-0.487500X0*%
%ADD15C,1.950000*%
%ADD16RoundRect,0.450000X-0.450000X-0.450000X0.450000X-0.450000X0.450000X0.450000X-0.450000X0.450000X0*%
%ADD17C,1.800000*%
%ADD18RoundRect,0.400000X-0.400000X-0.400000X0.400000X-0.400000X0.400000X0.400000X-0.400000X0.400000X0*%
%ADD19FreePoly0,0.000000*%
%ADD20R,1.000000X1.500000*%
%ADD21FreePoly1,0.000000*%
%ADD22RoundRect,0.487500X-0.487500X-0.487500X0.487500X-0.487500X0.487500X0.487500X-0.487500X0.487500X0*%
%ADD23RoundRect,0.150000X-0.825000X-0.150000X0.825000X-0.150000X0.825000X0.150000X-0.825000X0.150000X0*%
%ADD24RoundRect,0.250001X-0.949999X-0.949999X0.949999X-0.949999X0.949999X0.949999X-0.949999X0.949999X0*%
%ADD25C,2.400000*%
%ADD26FreePoly2,90.000000*%
%ADD27FreePoly3,90.000000*%
%ADD28RoundRect,0.250000X-0.600000X-0.750000X0.600000X-0.750000X0.600000X0.750000X-0.600000X0.750000X0*%
%ADD29O,1.700000X2.000000*%
%ADD30RoundRect,0.150000X0.700000X-0.150000X0.700000X0.150000X-0.700000X0.150000X-0.700000X-0.150000X0*%
%ADD31RoundRect,0.250000X1.150000X-0.250000X1.150000X0.250000X-1.150000X0.250000X-1.150000X-0.250000X0*%
G04 APERTURE END LIST*
G04 #@! TO.C,JP2*
G36*
X22250000Y-14450000D02*
G01*
X23750000Y-14450000D01*
X23750000Y-15950000D01*
X22250000Y-15950000D01*
X22250000Y-14450000D01*
G37*
G04 #@! TO.C,JP1*
G36*
X10550000Y-14550000D02*
G01*
X12050000Y-14550000D01*
X12050000Y-14850000D01*
X10550000Y-14850000D01*
X10550000Y-14550000D01*
G37*
G04 #@! TD*
D10*
G04 #@! TO.C,R1*
X17820000Y-10800000D03*
X27980000Y-10800000D03*
G04 #@! TD*
D11*
G04 #@! TO.C,TS1*
X28700000Y-75600000D03*
X32500000Y-75600000D03*
G04 #@! TD*
D12*
G04 #@! TO.C,D3*
X10000000Y-31950000D03*
D13*
X20160000Y-31950000D03*
G04 #@! TD*
D14*
G04 #@! TO.C,J3*
X8500000Y-81300000D03*
D15*
X6000000Y-81300000D03*
G04 #@! TD*
D10*
G04 #@! TO.C,C4*
X23300000Y-67000000D03*
X23300000Y-72000000D03*
G04 #@! TD*
D16*
G04 #@! TO.C,F1*
X15500000Y-44500000D03*
D17*
X20580000Y-44500000D03*
G04 #@! TD*
D16*
G04 #@! TO.C,U3*
X13110000Y-54040000D03*
D17*
X15650000Y-54040000D03*
X18190000Y-54040000D03*
X25810000Y-54040000D03*
X28350000Y-54040000D03*
X30890000Y-54040000D03*
G04 #@! TD*
D18*
G04 #@! TO.C,J2*
X35500000Y-68000000D03*
D10*
X35500000Y-70540000D03*
X35500000Y-73080000D03*
G04 #@! TD*
D19*
G04 #@! TO.C,JP2*
X21700000Y-15200000D03*
D20*
X23000000Y-15200000D03*
D21*
X24300000Y-15200000D03*
G04 #@! TD*
D22*
G04 #@! TO.C,H1*
X5070000Y-3700000D03*
D15*
X7570000Y-3700000D03*
X10070000Y-3700000D03*
G04 #@! TD*
D10*
G04 #@! TO.C,PF1*
X13000000Y-75600000D03*
X15540000Y-75600000D03*
X18080000Y-75600000D03*
X20620000Y-75600000D03*
X23160000Y-75600000D03*
X25700000Y-75600000D03*
X13000000Y-78140000D03*
X15540000Y-78140000D03*
X18080000Y-78140000D03*
X20620000Y-78140000D03*
X23160000Y-78140000D03*
X25700000Y-78140000D03*
X13000000Y-80680000D03*
X15540000Y-80680000D03*
X18080000Y-80680000D03*
X20620000Y-80680000D03*
X23160000Y-80680000D03*
X25700000Y-80680000D03*
X13000000Y-83220000D03*
X15540000Y-83220000D03*
X18080000Y-83220000D03*
X20620000Y-83220000D03*
X23160000Y-83220000D03*
X25700000Y-83220000D03*
G04 #@! TD*
D23*
G04 #@! TO.C,U2*
X31025000Y-13145000D03*
X31025000Y-14415000D03*
X31025000Y-15685000D03*
X31025000Y-16955000D03*
X35975000Y-16955000D03*
X35975000Y-15685000D03*
X35975000Y-14415000D03*
X35975000Y-13145000D03*
G04 #@! TD*
D24*
G04 #@! TO.C,C3*
X29000000Y-30000000D03*
D25*
X34000000Y-30000000D03*
G04 #@! TD*
D22*
G04 #@! TO.C,H3*
X30470000Y-3700000D03*
D15*
X32970000Y-3700000D03*
X35470000Y-3700000D03*
G04 #@! TD*
D26*
G04 #@! TO.C,JP1*
X11300000Y-15350000D03*
D27*
X11300000Y-14050000D03*
G04 #@! TD*
D22*
G04 #@! TO.C,H2*
X17770000Y-3700000D03*
D15*
X20270000Y-3700000D03*
X22770000Y-3700000D03*
G04 #@! TD*
D28*
G04 #@! TO.C,J4*
X28000000Y-69200000D03*
D29*
X30500000Y-69200000D03*
G04 #@! TD*
D23*
G04 #@! TO.C,U1*
X2025000Y-10595000D03*
X2025000Y-11865000D03*
X2025000Y-13135000D03*
X2025000Y-14405000D03*
X6975000Y-14405000D03*
X6975000Y-13135000D03*
X6975000Y-11865000D03*
X6975000Y-10595000D03*
G04 #@! TD*
D10*
G04 #@! TO.C,C2*
X30800000Y-10400000D03*
X35800000Y-10400000D03*
G04 #@! TD*
D12*
G04 #@! TO.C,D4*
X10000000Y-35450000D03*
D13*
X20160000Y-35450000D03*
G04 #@! TD*
D12*
G04 #@! TO.C,D1*
X10000000Y-24950000D03*
D13*
X20160000Y-24950000D03*
G04 #@! TD*
D12*
G04 #@! TO.C,D2*
X10000000Y-28450000D03*
D13*
X20160000Y-28450000D03*
G04 #@! TD*
D10*
G04 #@! TO.C,C1*
X9700000Y-11000000D03*
X14700000Y-11000000D03*
G04 #@! TD*
D30*
G04 #@! TO.C,J1*
X6250000Y-56250000D03*
X6250000Y-55000000D03*
X6250000Y-53750000D03*
X6250000Y-52500000D03*
X6250000Y-51250000D03*
X6250000Y-50000000D03*
X6250000Y-48750000D03*
D31*
X2900000Y-58100000D03*
X2900000Y-46900000D03*
G04 #@! TD*
M02*
