%TF.GenerationSoftware,KiCad,Pcbnew,10.0.6*%
%TF.CreationDate,2026-09-12T11:27:56-04:00*%
%TF.ProjectId,ext-board,6578742d-626f-4617-9264-2e6b69636164,rev?*%
%TF.SameCoordinates,Original*%
%TF.FileFunction,Soldermask,Bot*%
%TF.FilePolarity,Negative*%
%FSLAX46Y46*%
G04 Gerber Fmt 4.6, Leading zero omitted, Abs format (unit mm)*
G04 Created by KiCad (PCBNEW 10.0.6) date 2026-09-12 11:27:56*
%MOMM*%
%LPD*%
G01*
G04 APERTURE LIST*
G04 Aperture macros list*
%AMRoundRect*
0 Rectangle with rounded corners*
0 $1 Rounding radius*
0 $2 $3 $4 $5 $6 $7 $8 $9 X,Y pos of 4 corners*
0 Add a 4 corners polygon primitive as box body*
4,1,4,$2,$3,$4,$5,$6,$7,$8,$9,$2,$3,0*
0 Add four circle primitives for the rounded corners*
1,1,$1+$1,$2,$3*
1,1,$1+$1,$4,$5*
1,1,$1+$1,$6,$7*
1,1,$1+$1,$8,$9*
0 Add four rect primitives between the rounded corners*
20,1,$1+$1,$2,$3,$4,$5,0*
20,1,$1+$1,$4,$5,$6,$7,0*
20,1,$1+$1,$6,$7,$8,$9,0*
20,1,$1+$1,$8,$9,$2,$3,0*%
G04 Aperture macros list end*
%ADD10C,1.600000*%
%ADD11RoundRect,0.487500X0.487500X0.487500X-0.487500X0.487500X-0.487500X-0.487500X0.487500X-0.487500X0*%
%ADD12C,1.950000*%
%ADD13RoundRect,0.400000X-0.400000X-0.400000X0.400000X-0.400000X0.400000X0.400000X-0.400000X0.400000X0*%
%ADD14RoundRect,0.487500X-0.487500X-0.487500X0.487500X-0.487500X0.487500X0.487500X-0.487500X0.487500X0*%
%ADD15C,0.350000*%
G04 APERTURE END LIST*
D10*
%TO.C,R1*%
X22000000Y-16300000D03*
X32160000Y-16300000D03*
%TD*%
D11*
%TO.C,J1*%
X30350000Y-44340000D03*
D12*
X27850000Y-44340000D03*
X25350000Y-44340000D03*
X22850000Y-44340000D03*
X20350000Y-44340000D03*
%TD*%
D13*
%TO.C,J2*%
X35500000Y-68000000D03*
D10*
X35500000Y-70540000D03*
X35500000Y-73080000D03*
%TD*%
D14*
%TO.C,H1*%
X5070000Y-3700000D03*
D12*
X7570000Y-3700000D03*
X10070000Y-3700000D03*
%TD*%
D10*
%TO.C,C1*%
X20500000Y-11000000D03*
X25500000Y-11000000D03*
%TD*%
%TO.C,C2*%
X30000000Y-37500000D03*
X35000000Y-37500000D03*
%TD*%
%TO.C,PF1*%
X5300000Y-68000000D03*
X7840000Y-68000000D03*
X10380000Y-68000000D03*
X12920000Y-68000000D03*
X15460000Y-68000000D03*
X18000000Y-68000000D03*
X20540000Y-68000000D03*
X23080000Y-68000000D03*
X25620000Y-68000000D03*
X28160000Y-68000000D03*
X30700000Y-68000000D03*
X5300000Y-70540000D03*
X7840000Y-70540000D03*
X10380000Y-70540000D03*
X12920000Y-70540000D03*
X15460000Y-70540000D03*
X18000000Y-70540000D03*
X20540000Y-70540000D03*
X23080000Y-70540000D03*
X25620000Y-70540000D03*
X28160000Y-70540000D03*
X30700000Y-70540000D03*
X5300000Y-73080000D03*
X7840000Y-73080000D03*
X10380000Y-73080000D03*
X12920000Y-73080000D03*
X15460000Y-73080000D03*
X18000000Y-73080000D03*
X20540000Y-73080000D03*
X23080000Y-73080000D03*
X25620000Y-73080000D03*
X28160000Y-73080000D03*
X30700000Y-73080000D03*
X5300000Y-75620000D03*
X7840000Y-75620000D03*
X10380000Y-75620000D03*
X12920000Y-75620000D03*
X15460000Y-75620000D03*
X18000000Y-75620000D03*
X20540000Y-75620000D03*
X23080000Y-75620000D03*
X25620000Y-75620000D03*
X28160000Y-75620000D03*
X30700000Y-75620000D03*
X5300000Y-78160000D03*
X7840000Y-78160000D03*
X10380000Y-78160000D03*
X12920000Y-78160000D03*
X15460000Y-78160000D03*
X18000000Y-78160000D03*
X20540000Y-78160000D03*
X23080000Y-78160000D03*
X25620000Y-78160000D03*
X28160000Y-78160000D03*
X30700000Y-78160000D03*
X5300000Y-80700000D03*
X7840000Y-80700000D03*
X10380000Y-80700000D03*
X12920000Y-80700000D03*
X15460000Y-80700000D03*
X18000000Y-80700000D03*
X20540000Y-80700000D03*
X23080000Y-80700000D03*
X25620000Y-80700000D03*
X28160000Y-80700000D03*
X30700000Y-80700000D03*
%TD*%
D14*
%TO.C,H3*%
X30470000Y-3700000D03*
D12*
X32970000Y-3700000D03*
X35470000Y-3700000D03*
%TD*%
D14*
%TO.C,H2*%
X17770000Y-3700000D03*
D12*
X20270000Y-3700000D03*
X22770000Y-3700000D03*
%TD*%
D15*
X22000000Y-16300000D03*
X32160000Y-16300000D03*
X30350000Y-44340000D03*
X27850000Y-44340000D03*
X25350000Y-44340000D03*
X22850000Y-44340000D03*
X20350000Y-44340000D03*
X35500000Y-68000000D03*
X35500000Y-70540000D03*
X35500000Y-73080000D03*
X5070000Y-3700000D03*
X7570000Y-3700000D03*
X10070000Y-3700000D03*
X20500000Y-11000000D03*
X25500000Y-11000000D03*
X30000000Y-37500000D03*
X35000000Y-37500000D03*
X5300000Y-68000000D03*
X7840000Y-68000000D03*
X10380000Y-68000000D03*
X12920000Y-68000000D03*
X15460000Y-68000000D03*
X18000000Y-68000000D03*
X20540000Y-68000000D03*
X23080000Y-68000000D03*
X25620000Y-68000000D03*
X28160000Y-68000000D03*
X30700000Y-68000000D03*
X5300000Y-70540000D03*
X7840000Y-70540000D03*
X10380000Y-70540000D03*
X12920000Y-70540000D03*
X15460000Y-70540000D03*
X18000000Y-70540000D03*
X20540000Y-70540000D03*
X23080000Y-70540000D03*
X25620000Y-70540000D03*
X28160000Y-70540000D03*
X30700000Y-70540000D03*
X5300000Y-73080000D03*
X7840000Y-73080000D03*
X10380000Y-73080000D03*
X12920000Y-73080000D03*
X15460000Y-73080000D03*
X18000000Y-73080000D03*
X20540000Y-73080000D03*
X23080000Y-73080000D03*
X25620000Y-73080000D03*
X28160000Y-73080000D03*
X30700000Y-73080000D03*
X5300000Y-75620000D03*
X7840000Y-75620000D03*
X10380000Y-75620000D03*
X12920000Y-75620000D03*
X15460000Y-75620000D03*
X18000000Y-75620000D03*
X20540000Y-75620000D03*
X23080000Y-75620000D03*
X25620000Y-75620000D03*
X28160000Y-75620000D03*
X30700000Y-75620000D03*
X5300000Y-78160000D03*
X7840000Y-78160000D03*
X10380000Y-78160000D03*
X12920000Y-78160000D03*
X15460000Y-78160000D03*
X18000000Y-78160000D03*
X20540000Y-78160000D03*
X23080000Y-78160000D03*
X25620000Y-78160000D03*
X28160000Y-78160000D03*
X30700000Y-78160000D03*
X5300000Y-80700000D03*
X7840000Y-80700000D03*
X10380000Y-80700000D03*
X12920000Y-80700000D03*
X15460000Y-80700000D03*
X18000000Y-80700000D03*
X20540000Y-80700000D03*
X23080000Y-80700000D03*
X25620000Y-80700000D03*
X28160000Y-80700000D03*
X30700000Y-80700000D03*
X30470000Y-3700000D03*
X32970000Y-3700000D03*
X35470000Y-3700000D03*
X17770000Y-3700000D03*
X20270000Y-3700000D03*
X22770000Y-3700000D03*
M02*
