%TF.GenerationSoftware,KiCad,Pcbnew,10.0.6*%
%TF.CreationDate,2026-09-12T20:59:23-04:00*%
%TF.ProjectId,ext-board,6578742d-626f-4617-9264-2e6b69636164,rev?*%
%TF.SameCoordinates,Original*%
%TF.FileFunction,Copper,L1,Top*%
%TF.FilePolarity,Positive*%
%FSLAX46Y46*%
G04 Gerber Fmt 4.6, Leading zero omitted, Abs format (unit mm)*
G04 Created by KiCad (PCBNEW 10.0.6) date 2026-09-12 20:59:23*
%MOMM*%
%LPD*%
G01*
G04 APERTURE LIST*
G04 Aperture macros list*
%AMRoundRect*
0 Rectangle with rounded corners*
0 $1 Rounding radius*
0 $2 $3 $4 $5 $6 $7 $8 $9 X,Y pos of 4 corners*
0 Add a 4 corners polygon primitive as box body*
4,1,4,$2,$3,$4,$5,$6,$7,$8,$9,$2,$3,0*
0 Add four circle primitives for the rounded corners*
1,1,$1+$1,$2,$3*
1,1,$1+$1,$4,$5*
1,1,$1+$1,$6,$7*
1,1,$1+$1,$8,$9*
0 Add four rect primitives between the rounded corners*
20,1,$1+$1,$2,$3,$4,$5,0*
20,1,$1+$1,$4,$5,$6,$7,0*
20,1,$1+$1,$6,$7,$8,$9,0*
20,1,$1+$1,$8,$9,$2,$3,0*%
%AMFreePoly0*
4,1,23,0.550000,-0.750000,0.000000,-0.750000,0.000000,-0.745722,-0.065263,-0.745722,-0.191342,-0.711940,-0.304381,-0.646677,-0.396677,-0.554381,-0.461940,-0.441342,-0.495722,-0.315263,-0.495722,-0.250000,-0.500000,-0.250000,-0.500000,0.250000,-0.495722,0.250000,-0.495722,0.315263,-0.461940,0.441342,-0.396677,0.554381,-0.304381,0.646677,-0.191342,0.711940,-0.065263,0.745722,0.000000,0.745722,
0.000000,0.750000,0.550000,0.750000,0.550000,-0.750000,0.550000,-0.750000,$1*%
%AMFreePoly1*
4,1,23,0.000000,0.745722,0.065263,0.745722,0.191342,0.711940,0.304381,0.646677,0.396677,0.554381,0.461940,0.441342,0.495722,0.315263,0.495722,0.250000,0.500000,0.250000,0.500000,-0.250000,0.495722,-0.250000,0.495722,-0.315263,0.461940,-0.441342,0.396677,-0.554381,0.304381,-0.646677,0.191342,-0.711940,0.065263,-0.745722,0.000000,-0.745722,0.000000,-0.750000,-0.550000,-0.750000,
-0.550000,0.750000,0.000000,0.750000,0.000000,0.745722,0.000000,0.745722,$1*%
%AMFreePoly2*
4,1,23,0.500000,-0.750000,0.000000,-0.750000,0.000000,-0.745722,-0.065263,-0.745722,-0.191342,-0.711940,-0.304381,-0.646677,-0.396677,-0.554381,-0.461940,-0.441342,-0.495722,-0.315263,-0.495722,-0.250000,-0.500000,-0.250000,-0.500000,0.250000,-0.495722,0.250000,-0.495722,0.315263,-0.461940,0.441342,-0.396677,0.554381,-0.304381,0.646677,-0.191342,0.711940,-0.065263,0.745722,0.000000,0.745722,
0.000000,0.750000,0.500000,0.750000,0.500000,-0.750000,0.500000,-0.750000,$1*%
%AMFreePoly3*
4,1,23,0.000000,0.745722,0.065263,0.745722,0.191342,0.711940,0.304381,0.646677,0.396677,0.554381,0.461940,0.441342,0.495722,0.315263,0.495722,0.250000,0.500000,0.250000,0.500000,-0.250000,0.495722,-0.250000,0.495722,-0.315263,0.461940,-0.441342,0.396677,-0.554381,0.304381,-0.646677,0.191342,-0.711940,0.065263,-0.745722,0.000000,-0.745722,0.000000,-0.750000,-0.500000,-0.750000,
-0.500000,0.750000,0.000000,0.750000,0.000000,0.745722,0.000000,0.745722,$1*%
G04 Aperture macros list end*
%TA.AperFunction,ComponentPad*%
%ADD10C,1.600000*%
%TD*%
%TA.AperFunction,ComponentPad*%
%ADD11RoundRect,0.400000X-0.400000X-0.400000X0.400000X-0.400000X0.400000X0.400000X-0.400000X0.400000X0*%
%TD*%
%TA.AperFunction,SMDPad,CuDef*%
%ADD12RoundRect,0.150000X-0.825000X-0.150000X0.825000X-0.150000X0.825000X0.150000X-0.825000X0.150000X0*%
%TD*%
%TA.AperFunction,SMDPad,CuDef*%
%ADD13FreePoly0,0.000000*%
%TD*%
%TA.AperFunction,SMDPad,CuDef*%
%ADD14R,1.000000X1.500000*%
%TD*%
%TA.AperFunction,SMDPad,CuDef*%
%ADD15FreePoly1,0.000000*%
%TD*%
%TA.AperFunction,ComponentPad*%
%ADD16RoundRect,0.487500X-0.487500X-0.487500X0.487500X-0.487500X0.487500X0.487500X-0.487500X0.487500X0*%
%TD*%
%TA.AperFunction,ComponentPad*%
%ADD17C,1.950000*%
%TD*%
%TA.AperFunction,ComponentPad*%
%ADD18RoundRect,0.487500X0.487500X0.487500X-0.487500X0.487500X-0.487500X-0.487500X0.487500X-0.487500X0*%
%TD*%
%TA.AperFunction,SMDPad,CuDef*%
%ADD19FreePoly2,90.000000*%
%TD*%
%TA.AperFunction,SMDPad,CuDef*%
%ADD20FreePoly3,90.000000*%
%TD*%
%TA.AperFunction,ViaPad*%
%ADD21C,0.800000*%
%TD*%
%TA.AperFunction,Conductor*%
%ADD22C,0.500000*%
%TD*%
%TA.AperFunction,Conductor*%
%ADD23C,0.250000*%
%TD*%
%ADD24C,0.350000*%
G04 APERTURE END LIST*
D10*
%TO.P,R1,1*%
%TO.N,VCC*%
X22000000Y-16300000D03*
%TO.P,R1,2*%
%TO.N,DATA*%
X32160000Y-16300000D03*
%TD*%
D11*
%TO.P,J2,1*%
%TO.N,VCC*%
X35500000Y-68000000D03*
D10*
%TO.P,J2,2*%
%TO.N,DATA*%
X35500000Y-70540000D03*
%TO.P,J2,3*%
%TO.N,GND*%
X35500000Y-73080000D03*
%TD*%
D12*
%TO.P,U1,1*%
%TO.N,VCC*%
X8525000Y-10595000D03*
%TO.P,U1,2*%
%TO.N,DATA*%
X8525000Y-11865000D03*
%TO.P,U1,3*%
%TO.N,GND*%
X8525000Y-13135000D03*
%TO.P,U1,4*%
%TO.N,SCL*%
X8525000Y-14405000D03*
%TO.P,U1,5*%
%TO.N,SDA*%
X13475000Y-14405000D03*
%TO.P,U1,6*%
%TO.N,N/C*%
X13475000Y-13135000D03*
%TO.P,U1,7*%
%TO.N,GND*%
X13475000Y-11865000D03*
%TO.P,U1,8*%
X13475000Y-10595000D03*
%TD*%
D13*
%TO.P,JP2,1*%
%TO.N,DATA*%
X20700000Y-29000000D03*
D14*
%TO.P,JP2,2*%
%TO.N,H3_DATA*%
X22000000Y-29000000D03*
D15*
%TO.P,JP2,3*%
%TO.N,DATA_H3*%
X23300000Y-29000000D03*
%TD*%
D16*
%TO.P,H3,1*%
%TO.N,VCC*%
X30470000Y-3700000D03*
D17*
%TO.P,H3,2*%
%TO.N,H3_DATA*%
X32970000Y-3700000D03*
%TO.P,H3,3*%
%TO.N,GND*%
X35470000Y-3700000D03*
%TD*%
D10*
%TO.P,PF1,1*%
%TO.N,N/C*%
X5300000Y-68000000D03*
%TO.P,PF1,2*%
X7840000Y-68000000D03*
%TO.P,PF1,3*%
X10380000Y-68000000D03*
%TO.P,PF1,4*%
X12920000Y-68000000D03*
%TO.P,PF1,5*%
X15460000Y-68000000D03*
%TO.P,PF1,6*%
X18000000Y-68000000D03*
%TO.P,PF1,7*%
X20540000Y-68000000D03*
%TO.P,PF1,8*%
X23080000Y-68000000D03*
%TO.P,PF1,9*%
X25620000Y-68000000D03*
%TO.P,PF1,10*%
X28160000Y-68000000D03*
%TO.P,PF1,11*%
X30700000Y-68000000D03*
%TO.P,PF1,12*%
X5300000Y-70540000D03*
%TO.P,PF1,13*%
X7840000Y-70540000D03*
%TO.P,PF1,14*%
X10380000Y-70540000D03*
%TO.P,PF1,15*%
X12920000Y-70540000D03*
%TO.P,PF1,16*%
X15460000Y-70540000D03*
%TO.P,PF1,17*%
X18000000Y-70540000D03*
%TO.P,PF1,18*%
X20540000Y-70540000D03*
%TO.P,PF1,19*%
X23080000Y-70540000D03*
%TO.P,PF1,20*%
X25620000Y-70540000D03*
%TO.P,PF1,21*%
X28160000Y-70540000D03*
%TO.P,PF1,22*%
X30700000Y-70540000D03*
%TO.P,PF1,23*%
X5300000Y-73080000D03*
%TO.P,PF1,24*%
X7840000Y-73080000D03*
%TO.P,PF1,25*%
X10380000Y-73080000D03*
%TO.P,PF1,26*%
X12920000Y-73080000D03*
%TO.P,PF1,27*%
X15460000Y-73080000D03*
%TO.P,PF1,28*%
X18000000Y-73080000D03*
%TO.P,PF1,29*%
X20540000Y-73080000D03*
%TO.P,PF1,30*%
X23080000Y-73080000D03*
%TO.P,PF1,31*%
X25620000Y-73080000D03*
%TO.P,PF1,32*%
X28160000Y-73080000D03*
%TO.P,PF1,33*%
X30700000Y-73080000D03*
%TO.P,PF1,34*%
X5300000Y-75620000D03*
%TO.P,PF1,35*%
X7840000Y-75620000D03*
%TO.P,PF1,36*%
X10380000Y-75620000D03*
%TO.P,PF1,37*%
X12920000Y-75620000D03*
%TO.P,PF1,38*%
X15460000Y-75620000D03*
%TO.P,PF1,39*%
X18000000Y-75620000D03*
%TO.P,PF1,40*%
X20540000Y-75620000D03*
%TO.P,PF1,41*%
X23080000Y-75620000D03*
%TO.P,PF1,42*%
X25620000Y-75620000D03*
%TO.P,PF1,43*%
X28160000Y-75620000D03*
%TO.P,PF1,44*%
X30700000Y-75620000D03*
%TO.P,PF1,45*%
X5300000Y-78160000D03*
%TO.P,PF1,46*%
X7840000Y-78160000D03*
%TO.P,PF1,47*%
X10380000Y-78160000D03*
%TO.P,PF1,48*%
X12920000Y-78160000D03*
%TO.P,PF1,49*%
X15460000Y-78160000D03*
%TO.P,PF1,50*%
X18000000Y-78160000D03*
%TO.P,PF1,51*%
X20540000Y-78160000D03*
%TO.P,PF1,52*%
X23080000Y-78160000D03*
%TO.P,PF1,53*%
X25620000Y-78160000D03*
%TO.P,PF1,54*%
X28160000Y-78160000D03*
%TO.P,PF1,55*%
X30700000Y-78160000D03*
%TO.P,PF1,56*%
X5300000Y-80700000D03*
%TO.P,PF1,57*%
X7840000Y-80700000D03*
%TO.P,PF1,58*%
X10380000Y-80700000D03*
%TO.P,PF1,59*%
X12920000Y-80700000D03*
%TO.P,PF1,60*%
X15460000Y-80700000D03*
%TO.P,PF1,61*%
X18000000Y-80700000D03*
%TO.P,PF1,62*%
X20540000Y-80700000D03*
%TO.P,PF1,63*%
X23080000Y-80700000D03*
%TO.P,PF1,64*%
X25620000Y-80700000D03*
%TO.P,PF1,65*%
X28160000Y-80700000D03*
%TO.P,PF1,66*%
X30700000Y-80700000D03*
%TD*%
D16*
%TO.P,H2,1*%
%TO.N,VCC*%
X17770000Y-3700000D03*
D17*
%TO.P,H2,2*%
%TO.N,DATA*%
X20270000Y-3700000D03*
%TO.P,H2,3*%
%TO.N,GND*%
X22770000Y-3700000D03*
%TD*%
D10*
%TO.P,C2,1*%
%TO.N,VCC*%
X18500000Y-34000000D03*
%TO.P,C2,2*%
%TO.N,GND*%
X23500000Y-34000000D03*
%TD*%
D18*
%TO.P,J1,1*%
%TO.N,VCC*%
X20600000Y-44340000D03*
D17*
%TO.P,J1,2*%
%TO.N,SDA*%
X18100000Y-44340000D03*
%TO.P,J1,3*%
%TO.N,SCL*%
X15600000Y-44340000D03*
%TO.P,J1,4*%
%TO.N,GPIO4*%
X13100000Y-44340000D03*
%TO.P,J1,5*%
%TO.N,GND*%
X10600000Y-44340000D03*
%TD*%
D19*
%TO.P,JP1,1*%
%TO.N,GPIO4*%
X34500000Y-15150000D03*
D20*
%TO.P,JP1,2*%
%TO.N,DATA*%
X34500000Y-13850000D03*
%TD*%
D12*
%TO.P,U2,1*%
%TO.N,VCC*%
X27525000Y-28095000D03*
%TO.P,U2,2*%
%TO.N,DATA_H3*%
X27525000Y-29365000D03*
%TO.P,U2,3*%
%TO.N,GND*%
X27525000Y-30635000D03*
%TO.P,U2,4*%
%TO.N,SCL*%
X27525000Y-31905000D03*
%TO.P,U2,5*%
%TO.N,SDA*%
X32475000Y-31905000D03*
%TO.P,U2,6*%
%TO.N,N/C*%
X32475000Y-30635000D03*
%TO.P,U2,7*%
%TO.N,GND*%
X32475000Y-29365000D03*
%TO.P,U2,8*%
%TO.N,VCC*%
X32475000Y-28095000D03*
%TD*%
D16*
%TO.P,H1,1*%
%TO.N,VCC*%
X5070000Y-3700000D03*
D17*
%TO.P,H1,2*%
%TO.N,DATA*%
X7570000Y-3700000D03*
%TO.P,H1,3*%
%TO.N,GND*%
X10070000Y-3700000D03*
%TD*%
D10*
%TO.P,C1,1*%
%TO.N,VCC*%
X20500000Y-11000000D03*
%TO.P,C1,2*%
%TO.N,GND*%
X25500000Y-11000000D03*
%TD*%
D21*
%TO.N,SCL*%
X23837000Y-36254600D03*
%TO.N,GPIO4*%
X34500000Y-26898600D03*
%TD*%
%TO.N,VCC*%
D22*
X22000000Y-16300000D02*
X22000000Y-18884500D01*
X17770000Y-3700000D02*
X19264200Y-2205800D01*
X5276900Y-3700000D02*
X5276900Y-7346900D01*
X6764500Y-2212400D02*
X5276900Y-3700000D01*
X16282400Y-2212400D02*
X6764500Y-2212400D01*
X17770000Y-3700000D02*
X17770000Y-8270000D01*
X20500000Y-11000000D02*
X18500000Y-13000000D01*
X19264200Y-2205800D02*
X28975800Y-2205800D01*
X5276900Y-7346900D02*
X8525000Y-10595000D01*
X27525000Y-24409500D02*
X27525000Y-28095000D01*
X17770000Y-8270000D02*
X20500000Y-11000000D01*
X22000000Y-18884500D02*
X27525000Y-24409500D01*
X28975800Y-2205800D02*
X30470000Y-3700000D01*
X20600000Y-44340000D02*
X35500000Y-59240000D01*
X35500000Y-59240000D02*
X35500000Y-68000000D01*
X18500000Y-13000000D02*
X18500000Y-34000000D01*
X17770000Y-3700000D02*
X16282400Y-2212400D01*
X5276900Y-3700000D02*
X5070000Y-3700000D01*
X32475000Y-28095000D02*
X27525000Y-28095000D01*
%TO.N,DATA*%
D23*
X20352000Y-28652000D02*
X20700000Y-29000000D01*
X34067600Y-13850000D02*
X34500000Y-13850000D01*
X20270000Y-3700000D02*
X21676700Y-5106700D01*
X37497500Y-16433100D02*
X37497500Y-72776400D01*
X20352000Y-13498400D02*
X20352000Y-28652000D01*
X21676700Y-5106700D02*
X21676700Y-12173700D01*
X35010800Y-74294000D02*
X34299400Y-73582600D01*
X37497500Y-72776400D02*
X35979900Y-74294000D01*
X32160000Y-16300000D02*
X32160000Y-15757600D01*
X7570000Y-3700000D02*
X9894900Y-6024900D01*
X9894900Y-10957200D02*
X8987100Y-11865000D01*
X8987100Y-11865000D02*
X8525000Y-11865000D01*
X35979900Y-74294000D02*
X35010800Y-74294000D01*
X21676700Y-12173700D02*
X20352000Y-13498400D01*
X34500000Y-13850000D02*
X34914400Y-13850000D01*
X34299400Y-73582600D02*
X34299400Y-71740600D01*
X34299400Y-71740600D02*
X35500000Y-70540000D01*
X34914400Y-13850000D02*
X37497500Y-16433100D01*
X32160000Y-15757600D02*
X34067600Y-13850000D01*
X9894900Y-6024900D02*
X9894900Y-10957200D01*
%TO.N,GND*%
D22*
X33184300Y-29365000D02*
X36838700Y-33019400D01*
X25500000Y-11000000D02*
X28170000Y-11000000D01*
X33952300Y-27674800D02*
X33952300Y-28597000D01*
X13475000Y-10595000D02*
X13475000Y-11865000D01*
X28170000Y-21892500D02*
X33952300Y-27674800D01*
X28170000Y-11000000D02*
X35470000Y-3700000D01*
X33952300Y-28597000D02*
X33184300Y-29365000D01*
X12792600Y-11865000D02*
X11522600Y-13135000D01*
X13475000Y-7105000D02*
X13475000Y-10595000D01*
X36838700Y-71741300D02*
X35500000Y-73080000D01*
X27525000Y-30635000D02*
X29207300Y-30635000D01*
X36838700Y-33019400D02*
X36838700Y-71741300D01*
X29207300Y-30635000D02*
X30477300Y-29365000D01*
X13475000Y-11865000D02*
X12792600Y-11865000D01*
X28170000Y-11000000D02*
X28170000Y-21892500D01*
X11522600Y-13135000D02*
X8525000Y-13135000D01*
X10070000Y-3700000D02*
X13475000Y-7105000D01*
X26865000Y-30635000D02*
X27525000Y-30635000D01*
X30477300Y-29365000D02*
X32475000Y-29365000D01*
X32475000Y-29365000D02*
X33184300Y-29365000D01*
X23500000Y-34000000D02*
X26865000Y-30635000D01*
%TO.N,SCL*%
D23*
X23837000Y-36254600D02*
X27525000Y-32566600D01*
X8525000Y-14405000D02*
X8525000Y-37265000D01*
X8525000Y-37265000D02*
X15600000Y-44340000D01*
X27525000Y-32566600D02*
X27525000Y-31905000D01*
%TO.N,SDA*%
X21551400Y-40888600D02*
X21551400Y-40888500D01*
X27755500Y-36266200D02*
X28113800Y-36266200D01*
X13475000Y-30659400D02*
X13475000Y-14405000D01*
X23572000Y-38867900D02*
X25153800Y-38867900D01*
X18100000Y-44340000D02*
X21551400Y-40888600D01*
X22627800Y-39812100D02*
X13475000Y-30659400D01*
X22627800Y-39812100D02*
X23572000Y-38867900D01*
X21551400Y-40888500D02*
X22627800Y-39812100D01*
X28113800Y-36266200D02*
X32475000Y-31905000D01*
X25153800Y-38867900D02*
X27755500Y-36266200D01*
%TO.N,H3_DATA*%
X26533000Y-8295700D02*
X28374300Y-8295700D01*
X22000000Y-29000000D02*
X22000000Y-20757700D01*
X20816400Y-14012300D02*
X26533000Y-8295700D01*
X28374300Y-8295700D02*
X32970000Y-3700000D01*
X22000000Y-20757700D02*
X20816400Y-19574100D01*
X20816400Y-19574100D02*
X20816400Y-14012300D01*
%TO.N,DATA_H3*%
X27160000Y-29000000D02*
X27525000Y-29365000D01*
X23300000Y-29000000D02*
X27160000Y-29000000D01*
%TO.N,GPIO4*%
X34500000Y-15150000D02*
X34500000Y-26898600D01*
%TD*%
D24*
X23837000Y-36254600D03*
X34500000Y-26898600D03*
X22000000Y-16300000D03*
X32160000Y-16300000D03*
X35500000Y-68000000D03*
X35500000Y-70540000D03*
X35500000Y-73080000D03*
X30470000Y-3700000D03*
X32970000Y-3700000D03*
X35470000Y-3700000D03*
X5300000Y-68000000D03*
X7840000Y-68000000D03*
X10380000Y-68000000D03*
X12920000Y-68000000D03*
X15460000Y-68000000D03*
X18000000Y-68000000D03*
X20540000Y-68000000D03*
X23080000Y-68000000D03*
X25620000Y-68000000D03*
X28160000Y-68000000D03*
X30700000Y-68000000D03*
X5300000Y-70540000D03*
X7840000Y-70540000D03*
X10380000Y-70540000D03*
X12920000Y-70540000D03*
X15460000Y-70540000D03*
X18000000Y-70540000D03*
X20540000Y-70540000D03*
X23080000Y-70540000D03*
X25620000Y-70540000D03*
X28160000Y-70540000D03*
X30700000Y-70540000D03*
X5300000Y-73080000D03*
X7840000Y-73080000D03*
X10380000Y-73080000D03*
X12920000Y-73080000D03*
X15460000Y-73080000D03*
X18000000Y-73080000D03*
X20540000Y-73080000D03*
X23080000Y-73080000D03*
X25620000Y-73080000D03*
X28160000Y-73080000D03*
X30700000Y-73080000D03*
X5300000Y-75620000D03*
X7840000Y-75620000D03*
X10380000Y-75620000D03*
X12920000Y-75620000D03*
X15460000Y-75620000D03*
X18000000Y-75620000D03*
X20540000Y-75620000D03*
X23080000Y-75620000D03*
X25620000Y-75620000D03*
X28160000Y-75620000D03*
X30700000Y-75620000D03*
X5300000Y-78160000D03*
X7840000Y-78160000D03*
X10380000Y-78160000D03*
X12920000Y-78160000D03*
X15460000Y-78160000D03*
X18000000Y-78160000D03*
X20540000Y-78160000D03*
X23080000Y-78160000D03*
X25620000Y-78160000D03*
X28160000Y-78160000D03*
X30700000Y-78160000D03*
X5300000Y-80700000D03*
X7840000Y-80700000D03*
X10380000Y-80700000D03*
X12920000Y-80700000D03*
X15460000Y-80700000D03*
X18000000Y-80700000D03*
X20540000Y-80700000D03*
X23080000Y-80700000D03*
X25620000Y-80700000D03*
X28160000Y-80700000D03*
X30700000Y-80700000D03*
X17770000Y-3700000D03*
X20270000Y-3700000D03*
X22770000Y-3700000D03*
X18500000Y-34000000D03*
X23500000Y-34000000D03*
X20600000Y-44340000D03*
X18100000Y-44340000D03*
X15600000Y-44340000D03*
X13100000Y-44340000D03*
X10600000Y-44340000D03*
X5070000Y-3700000D03*
X7570000Y-3700000D03*
X10070000Y-3700000D03*
X20500000Y-11000000D03*
X25500000Y-11000000D03*
M02*
