<?xml version="1.0" standalone="no"?>
 <!DOCTYPE svg PUBLIC "-//W3C//DTD SVG 1.1//EN" 
 "http://www.w3.org/Graphics/SVG/1.1/DTD/svg11.dtd"> 
<svg
  xmlns:svg="http://www.w3.org/2000/svg"
  xmlns="http://www.w3.org/2000/svg"
  xmlns:xlink="http://www.w3.org/1999/xlink"
  xmlns:inkscape="http://www.inkscape.org/namespaces/inkscape"
  version="1.1"
  width="38.4810mm" height="84.9884mm" viewBox="0.0000 0.0000 38.4810 84.9884">
<title>SVG Image created as ext-board-copper-back.svg date 2026-09-12T20:59:24 </title>
  <desc>Image generated by PCBNEW </desc>
<g style="fill:#000000; fill-opacity:1.0000;stroke:#000000; stroke-opacity:1.0000;
stroke-linecap:round; stroke-linejoin:round;"
 transform="translate(0 0) scale(1 1)">
</g>
<g style="fill:#000000; fill-opacity:1.0000; stroke:none;">
<circle cx="16.4810" cy="16.3000" r="0.8000" /> 
<circle cx="6.3210" cy="16.3000" r="0.8000" /> 
<path style="fill:#000000; fill-opacity:1.0000; stroke:none;fill-rule:evenodd;"
d="M 3.7810,67.6000
3.7614,67.4764
3.7046,67.3649
3.6161,67.2764
3.5046,67.2196
3.3810,67.2000
2.5810,67.2000
2.4574,67.2196
2.3459,67.2764
2.2574,67.3649
2.2006,67.4764
2.1810,67.6000
2.1810,68.4000
2.2006,68.5236
2.2574,68.6351
2.3459,68.7236
2.4574,68.7804
2.5810,68.8000
3.3810,68.8000
3.5046,68.7804
3.6161,68.7236
3.7046,68.6351
3.7614,68.5236
3.7810,68.4000
Z" /> 
<circle cx="2.9810" cy="70.5400" r="0.8000" /> 
<circle cx="2.9810" cy="73.0800" r="0.8000" /> 
<path style="fill:#000000; fill-opacity:1.0000; stroke:none;fill-rule:evenodd;"
d="M 8.9860,3.2125
8.9749,3.1089
8.9264,2.9789
8.8432,2.8678
8.7321,2.7846
8.6021,2.7361
8.4985,2.7250
7.5235,2.7250
7.4199,2.7361
7.2899,2.7846
7.1788,2.8678
7.0956,2.9789
7.0471,3.1089
7.0360,3.2125
7.0360,4.1875
7.0471,4.2911
7.0956,4.4211
7.1788,4.5322
7.2899,4.6154
7.4199,4.6639
7.5235,4.6750
8.4985,4.6750
8.6021,4.6639
8.7321,4.6154
8.8432,4.5322
8.9264,4.4211
8.9749,4.2911
8.9860,4.1875
Z" /> 
<circle cx="5.5110" cy="3.7000" r="0.9750" /> 
<circle cx="3.0110" cy="3.7000" r="0.9750" /> 
<circle cx="33.1810" cy="68.0000" r="0.8000" /> 
<circle cx="30.6410" cy="68.0000" r="0.8000" /> 
<circle cx="28.1010" cy="68.0000" r="0.8000" /> 
<circle cx="25.5610" cy="68.0000" r="0.8000" /> 
<circle cx="23.0210" cy="68.0000" r="0.8000" /> 
<circle cx="20.4810" cy="68.0000" r="0.8000" /> 
<circle cx="17.9410" cy="68.0000" r="0.8000" /> 
<circle cx="15.4010" cy="68.0000" r="0.8000" /> 
<circle cx="12.8610" cy="68.0000" r="0.8000" /> 
<circle cx="10.3210" cy="68.0000" r="0.8000" /> 
<circle cx="7.7810" cy="68.0000" r="0.8000" /> 
<circle cx="33.1810" cy="70.5400" r="0.8000" /> 
<circle cx="30.6410" cy="70.5400" r="0.8000" /> 
<circle cx="28.1010" cy="70.5400" r="0.8000" /> 
<circle cx="25.5610" cy="70.5400" r="0.8000" /> 
<circle cx="23.0210" cy="70.5400" r="0.8000" /> 
<circle cx="20.4810" cy="70.5400" r="0.8000" /> 
<circle cx="17.9410" cy="70.5400" r="0.8000" /> 
<circle cx="15.4010" cy="70.5400" r="0.8000" /> 
<circle cx="12.8610" cy="70.5400" r="0.8000" /> 
<circle cx="10.3210" cy="70.5400" r="0.8000" /> 
<circle cx="7.7810" cy="70.5400" r="0.8000" /> 
<circle cx="33.1810" cy="73.0800" r="0.8000" /> 
<circle cx="30.6410" cy="73.0800" r="0.8000" /> 
<circle cx="28.1010" cy="73.0800" r="0.8000" /> 
<circle cx="25.5610" cy="73.0800" r="0.8000" /> 
<circle cx="23.0210" cy="73.0800" r="0.8000" /> 
<circle cx="20.4810" cy="73.0800" r="0.8000" /> 
<circle cx="17.9410" cy="73.0800" r="0.8000" /> 
<circle cx="15.4010" cy="73.0800" r="0.8000" /> 
<circle cx="12.8610" cy="73.0800" r="0.8000" /> 
<circle cx="10.3210" cy="73.0800" r="0.8000" /> 
<circle cx="7.7810" cy="73.0800" r="0.8000" /> 
<circle cx="33.1810" cy="75.6200" r="0.8000" /> 
<circle cx="30.6410" cy="75.6200" r="0.8000" /> 
<circle cx="28.1010" cy="75.6200" r="0.8000" /> 
<circle cx="25.5610" cy="75.6200" r="0.8000" /> 
<circle cx="23.0210" cy="75.6200" r="0.8000" /> 
<circle cx="20.4810" cy="75.6200" r="0.8000" /> 
<circle cx="17.9410" cy="75.6200" r="0.8000" /> 
<circle cx="15.4010" cy="75.6200" r="0.8000" /> 
<circle cx="12.8610" cy="75.6200" r="0.8000" /> 
<circle cx="10.3210" cy="75.6200" r="0.8000" /> 
<circle cx="7.7810" cy="75.6200" r="0.8000" /> 
<circle cx="33.1810" cy="78.1600" r="0.8000" /> 
<circle cx="30.6410" cy="78.1600" r="0.8000" /> 
<circle cx="28.1010" cy="78.1600" r="0.8000" /> 
<circle cx="25.5610" cy="78.1600" r="0.8000" /> 
<circle cx="23.0210" cy="78.1600" r="0.8000" /> 
<circle cx="20.4810" cy="78.1600" r="0.8000" /> 
<circle cx="17.9410" cy="78.1600" r="0.8000" /> 
<circle cx="15.4010" cy="78.1600" r="0.8000" /> 
<circle cx="12.8610" cy="78.1600" r="0.8000" /> 
<circle cx="10.3210" cy="78.1600" r="0.8000" /> 
<circle cx="7.7810" cy="78.1600" r="0.8000" /> 
<circle cx="33.1810" cy="80.7000" r="0.8000" /> 
<circle cx="30.6410" cy="80.7000" r="0.8000" /> 
<circle cx="28.1010" cy="80.7000" r="0.8000" /> 
<circle cx="25.5610" cy="80.7000" r="0.8000" /> 
<circle cx="23.0210" cy="80.7000" r="0.8000" /> 
<circle cx="20.4810" cy="80.7000" r="0.8000" /> 
<circle cx="17.9410" cy="80.7000" r="0.8000" /> 
<circle cx="15.4010" cy="80.7000" r="0.8000" /> 
<circle cx="12.8610" cy="80.7000" r="0.8000" /> 
<circle cx="10.3210" cy="80.7000" r="0.8000" /> 
<circle cx="7.7810" cy="80.7000" r="0.8000" /> 
<path style="fill:#000000; fill-opacity:1.0000; stroke:none;fill-rule:evenodd;"
d="M 21.6860,3.2125
21.6749,3.1089
21.6264,2.9789
21.5432,2.8678
21.4321,2.7846
21.3021,2.7361
21.1985,2.7250
20.2235,2.7250
20.1199,2.7361
19.9899,2.7846
19.8788,2.8678
19.7956,2.9789
19.7471,3.1089
19.7360,3.2125
19.7360,4.1875
19.7471,4.2911
19.7956,4.4211
19.8788,4.5322
19.9899,4.6154
20.1199,4.6639
20.2235,4.6750
21.1985,4.6750
21.3021,4.6639
21.4321,4.6154
21.5432,4.5322
21.6264,4.4211
21.6749,4.2911
21.6860,4.1875
Z" /> 
<circle cx="18.2110" cy="3.7000" r="0.9750" /> 
<circle cx="15.7110" cy="3.7000" r="0.9750" /> 
<circle cx="19.9810" cy="34.0000" r="0.8000" /> 
<circle cx="14.9810" cy="34.0000" r="0.8000" /> 
<path style="fill:#000000; fill-opacity:1.0000; stroke:none;fill-rule:evenodd;"
d="M 16.9060,44.8275
16.9171,44.9311
16.9656,45.0611
17.0488,45.1722
17.1599,45.2554
17.2899,45.3039
17.3935,45.3150
18.3685,45.3150
18.4721,45.3039
18.6021,45.2554
18.7132,45.1722
18.7964,45.0611
18.8449,44.9311
18.8560,44.8275
18.8560,43.8525
18.8449,43.7489
18.7964,43.6189
18.7132,43.5078
18.6021,43.4246
18.4721,43.3761
18.3685,43.3650
17.3935,43.3650
17.2899,43.3761
17.1599,43.4246
17.0488,43.5078
16.9656,43.6189
16.9171,43.7489
16.9060,43.8525
Z" /> 
<circle cx="20.3810" cy="44.3400" r="0.9750" /> 
<circle cx="22.8810" cy="44.3400" r="0.9750" /> 
<circle cx="25.3810" cy="44.3400" r="0.9750" /> 
<circle cx="27.8810" cy="44.3400" r="0.9750" /> 
<path style="fill:#000000; fill-opacity:1.0000; stroke:none;fill-rule:evenodd;"
d="M 34.3860,3.2125
34.3749,3.1089
34.3264,2.9789
34.2432,2.8678
34.1321,2.7846
34.0021,2.7361
33.8985,2.7250
32.9235,2.7250
32.8199,2.7361
32.6899,2.7846
32.5788,2.8678
32.4956,2.9789
32.4471,3.1089
32.4360,3.2125
32.4360,4.1875
32.4471,4.2911
32.4956,4.4211
32.5788,4.5322
32.6899,4.6154
32.8199,4.6639
32.9235,4.6750
33.8985,4.6750
34.0021,4.6639
34.1321,4.6154
34.2432,4.5322
34.3264,4.4211
34.3749,4.2911
34.3860,4.1875
Z" /> 
<circle cx="30.9110" cy="3.7000" r="0.9750" /> 
<circle cx="28.4110" cy="3.7000" r="0.9750" /> 
<circle cx="17.9810" cy="11.0000" r="0.8000" /> 
<circle cx="12.9810" cy="11.0000" r="0.8000" /> 
<circle cx="14.6440" cy="36.2546" r="0.4000" /> 
<circle cx="3.9810" cy="26.8986" r="0.4000" /> 
</g>
<g style="fill:none; 
stroke:#000000; stroke-width:0.5000; stroke-opacity:1; 
stroke-linecap:round; stroke-linejoin:round;">
<path d="M16.4810 12.5000
L16.4810 16.3000
" />
<path d="M17.9810 11.0000
L16.4810 12.5000
" />
<path d="M13.6771 40.1361
L13.6771 33.4532
" />
<path d="M14.4554 32.6749
L18.6559 32.6749
" />
<path d="M17.8810 44.3400
L13.6771 40.1361
" />
<path d="M13.6771 33.4532
L14.4554 32.6749
" />
<path d="M18.6559 32.6749
L19.9810 34.0000
" />
</g>
<g style="fill:none; 
stroke:#000000; stroke-width:0.2500; stroke-opacity:1; 
stroke-linecap:round; stroke-linejoin:round;">
<path d="M19.5681 2.3429
L29.5539 2.3429
" />
<path d="M15.1788 2.3188
L16.8298 2.3188
" />
<path d="M29.5539 2.3429
L30.9110 3.7000
" />
<path d="M6.3210 11.1766
L15.1788 2.3188
" />
<path d="M6.3210 16.3000
L6.3210 11.1766
" />
<path d="M16.8298 2.3188
L18.2110 3.7000
" />
<path d="M18.2110 3.7000
L19.5681 2.3429
" />
</g>
<g style="fill:none; 
stroke:#000000; stroke-width:0.5000; stroke-opacity:1; 
stroke-linecap:round; stroke-linejoin:round;">
<path d="M27.8810 44.3400
L17.5410 34.0000
" />
<path d="M15.7110 5.2157
L15.7110 3.7000
" />
<path d="M12.9810 11.0000
L15.7110 8.2700
" />
<path d="M15.7110 8.2700
L15.7110 5.2157
" />
<path d="M15.7110 5.2157
L26.8953 5.2157
" />
<path d="M17.5410 34.0000
L14.9810 34.0000
" />
<path d="M26.8953 5.2157
L28.4110 3.7000
" />
</g>
<g style="fill:none; 
stroke:#000000; stroke-width:0.2500; stroke-opacity:1; 
stroke-linecap:round; stroke-linejoin:round;">
<path d="M22.8810 44.3400
L14.7956 36.2546
" />
<path d="M14.7956 36.2546
L14.6440 36.2546
" />
<path d="M25.3810 44.3400
L24.0012 45.7198
" />
<path d="M3.9810 32.7067
L3.9810 26.8986
" />
<path d="M16.9941 45.7198
L3.9810 32.7067
" />
<path d="M24.0012 45.7198
L16.9941 45.7198
" />
</g>
<g style="fill:none; 
stroke:#000000; stroke-width:0.1000; stroke-opacity:1; 
stroke-linecap:round; stroke-linejoin:round;">
<path d="M38.4810 18.1100
L-0.0190 18.1100
" />
<path d="M38.4810 22.3100
L-0.0190 22.3100
" />
<path d="M38.4810 61.2900
L-0.0190 61.2900
" />
<path d="M38.4810 65.4900
L-0.0190 65.4900
" />
<path style="fill:none; 
stroke:#000000; stroke-width:0.1000; stroke-opacity:1; 
stroke-linecap:round; stroke-linejoin:round;fill:none"
d="M 38.4810,0.0000
-0.0190,0.0000
-0.0190,85.0000
38.4810,85.0000
Z" /> 
</g>
<g style="fill:#FFFFFF; fill-opacity:1.0000; stroke:none;">
<circle cx="14.6440" cy="36.2546" r="0.2000" /> 
<circle cx="3.9810" cy="26.8986" r="0.2000" /> 
</g>
<g style="fill:#FFFFFF; fill-opacity:1.0000; stroke:none;">
<circle cx="16.4810" cy="16.3000" r="0.4000" /> 
</g>
<g style="fill:#FFFFFF; fill-opacity:1.0000; stroke:none;">
<circle cx="6.3210" cy="16.3000" r="0.4000" /> 
</g>
<g style="fill:#FFFFFF; fill-opacity:1.0000; stroke:none;">
<circle cx="2.9810" cy="68.0000" r="0.5000" /> 
</g>
<g style="fill:#FFFFFF; fill-opacity:1.0000; stroke:none;">
<circle cx="2.9810" cy="70.5400" r="0.5000" /> 
</g>
<g style="fill:#FFFFFF; fill-opacity:1.0000; stroke:none;">
<circle cx="2.9810" cy="73.0800" r="0.5000" /> 
</g>
<g style="fill:#FFFFFF; fill-opacity:1.0000; stroke:none;">
<circle cx="8.0110" cy="3.7000" r="0.5500" /> 
</g>
<g style="fill:#FFFFFF; fill-opacity:1.0000; stroke:none;">
<circle cx="5.5110" cy="3.7000" r="0.5500" /> 
</g>
<g style="fill:#FFFFFF; fill-opacity:1.0000; stroke:none;">
<circle cx="3.0110" cy="3.7000" r="0.5500" /> 
</g>
<g style="fill:#FFFFFF; fill-opacity:1.0000; stroke:none;">
<circle cx="33.1810" cy="68.0000" r="0.5000" /> 
</g>
<g style="fill:#FFFFFF; fill-opacity:1.0000; stroke:none;">
<circle cx="30.6410" cy="68.0000" r="0.5000" /> 
</g>
<g style="fill:#FFFFFF; fill-opacity:1.0000; stroke:none;">
<circle cx="28.1010" cy="68.0000" r="0.5000" /> 
</g>
<g style="fill:#FFFFFF; fill-opacity:1.0000; stroke:none;">
<circle cx="25.5610" cy="68.0000" r="0.5000" /> 
</g>
<g style="fill:#FFFFFF; fill-opacity:1.0000; stroke:none;">
<circle cx="23.0210" cy="68.0000" r="0.5000" /> 
</g>
<g style="fill:#FFFFFF; fill-opacity:1.0000; stroke:none;">
<circle cx="20.4810" cy="68.0000" r="0.5000" /> 
</g>
<g style="fill:#FFFFFF; fill-opacity:1.0000; stroke:none;">
<circle cx="17.9410" cy="68.0000" r="0.5000" /> 
</g>
<g style="fill:#FFFFFF; fill-opacity:1.0000; stroke:none;">
<circle cx="15.4010" cy="68.0000" r="0.5000" /> 
</g>
<g style="fill:#FFFFFF; fill-opacity:1.0000; stroke:none;">
<circle cx="12.8610" cy="68.0000" r="0.5000" /> 
</g>
<g style="fill:#FFFFFF; fill-opacity:1.0000; stroke:none;">
<circle cx="10.3210" cy="68.0000" r="0.5000" /> 
</g>
<g style="fill:#FFFFFF; fill-opacity:1.0000; stroke:none;">
<circle cx="7.7810" cy="68.0000" r="0.5000" /> 
</g>
<g style="fill:#FFFFFF; fill-opacity:1.0000; stroke:none;">
<circle cx="33.1810" cy="70.5400" r="0.5000" /> 
</g>
<g style="fill:#FFFFFF; fill-opacity:1.0000; stroke:none;">
<circle cx="30.6410" cy="70.5400" r="0.5000" /> 
</g>
<g style="fill:#FFFFFF; fill-opacity:1.0000; stroke:none;">
<circle cx="28.1010" cy="70.5400" r="0.5000" /> 
</g>
<g style="fill:#FFFFFF; fill-opacity:1.0000; stroke:none;">
<circle cx="25.5610" cy="70.5400" r="0.5000" /> 
</g>
<g style="fill:#FFFFFF; fill-opacity:1.0000; stroke:none;">
<circle cx="23.0210" cy="70.5400" r="0.5000" /> 
</g>
<g style="fill:#FFFFFF; fill-opacity:1.0000; stroke:none;">
<circle cx="20.4810" cy="70.5400" r="0.5000" /> 
</g>
<g style="fill:#FFFFFF; fill-opacity:1.0000; stroke:none;">
<circle cx="17.9410" cy="70.5400" r="0.5000" /> 
</g>
<g style="fill:#FFFFFF; fill-opacity:1.0000; stroke:none;">
<circle cx="15.4010" cy="70.5400" r="0.5000" /> 
</g>
<g style="fill:#FFFFFF; fill-opacity:1.0000; stroke:none;">
<circle cx="12.8610" cy="70.5400" r="0.5000" /> 
</g>
<g style="fill:#FFFFFF; fill-opacity:1.0000; stroke:none;">
<circle cx="10.3210" cy="70.5400" r="0.5000" /> 
</g>
<g style="fill:#FFFFFF; fill-opacity:1.0000; stroke:none;">
<circle cx="7.7810" cy="70.5400" r="0.5000" /> 
</g>
<g style="fill:#FFFFFF; fill-opacity:1.0000; stroke:none;">
<circle cx="33.1810" cy="73.0800" r="0.5000" /> 
</g>
<g style="fill:#FFFFFF; fill-opacity:1.0000; stroke:none;">
<circle cx="30.6410" cy="73.0800" r="0.5000" /> 
</g>
<g style="fill:#FFFFFF; fill-opacity:1.0000; stroke:none;">
<circle cx="28.1010" cy="73.0800" r="0.5000" /> 
</g>
<g style="fill:#FFFFFF; fill-opacity:1.0000; stroke:none;">
<circle cx="25.5610" cy="73.0800" r="0.5000" /> 
</g>
<g style="fill:#FFFFFF; fill-opacity:1.0000; stroke:none;">
<circle cx="23.0210" cy="73.0800" r="0.5000" /> 
</g>
<g style="fill:#FFFFFF; fill-opacity:1.0000; stroke:none;">
<circle cx="20.4810" cy="73.0800" r="0.5000" /> 
</g>
<g style="fill:#FFFFFF; fill-opacity:1.0000; stroke:none;">
<circle cx="17.9410" cy="73.0800" r="0.5000" /> 
</g>
<g style="fill:#FFFFFF; fill-opacity:1.0000; stroke:none;">
<circle cx="15.4010" cy="73.0800" r="0.5000" /> 
</g>
<g style="fill:#FFFFFF; fill-opacity:1.0000; stroke:none;">
<circle cx="12.8610" cy="73.0800" r="0.5000" /> 
</g>
<g style="fill:#FFFFFF; fill-opacity:1.0000; stroke:none;">
<circle cx="10.3210" cy="73.0800" r="0.5000" /> 
</g>
<g style="fill:#FFFFFF; fill-opacity:1.0000; stroke:none;">
<circle cx="7.7810" cy="73.0800" r="0.5000" /> 
</g>
<g style="fill:#FFFFFF; fill-opacity:1.0000; stroke:none;">
<circle cx="33.1810" cy="75.6200" r="0.5000" /> 
</g>
<g style="fill:#FFFFFF; fill-opacity:1.0000; stroke:none;">
<circle cx="30.6410" cy="75.6200" r="0.5000" /> 
</g>
<g style="fill:#FFFFFF; fill-opacity:1.0000; stroke:none;">
<circle cx="28.1010" cy="75.6200" r="0.5000" /> 
</g>
<g style="fill:#FFFFFF; fill-opacity:1.0000; stroke:none;">
<circle cx="25.5610" cy="75.6200" r="0.5000" /> 
</g>
<g style="fill:#FFFFFF; fill-opacity:1.0000; stroke:none;">
<circle cx="23.0210" cy="75.6200" r="0.5000" /> 
</g>
<g style="fill:#FFFFFF; fill-opacity:1.0000; stroke:none;">
<circle cx="20.4810" cy="75.6200" r="0.5000" /> 
</g>
<g style="fill:#FFFFFF; fill-opacity:1.0000; stroke:none;">
<circle cx="17.9410" cy="75.6200" r="0.5000" /> 
</g>
<g style="fill:#FFFFFF; fill-opacity:1.0000; stroke:none;">
<circle cx="15.4010" cy="75.6200" r="0.5000" /> 
</g>
<g style="fill:#FFFFFF; fill-opacity:1.0000; stroke:none;">
<circle cx="12.8610" cy="75.6200" r="0.5000" /> 
</g>
<g style="fill:#FFFFFF; fill-opacity:1.0000; stroke:none;">
<circle cx="10.3210" cy="75.6200" r="0.5000" /> 
</g>
<g style="fill:#FFFFFF; fill-opacity:1.0000; stroke:none;">
<circle cx="7.7810" cy="75.6200" r="0.5000" /> 
</g>
<g style="fill:#FFFFFF; fill-opacity:1.0000; stroke:none;">
<circle cx="33.1810" cy="78.1600" r="0.5000" /> 
</g>
<g style="fill:#FFFFFF; fill-opacity:1.0000; stroke:none;">
<circle cx="30.6410" cy="78.1600" r="0.5000" /> 
</g>
<g style="fill:#FFFFFF; fill-opacity:1.0000; stroke:none;">
<circle cx="28.1010" cy="78.1600" r="0.5000" /> 
</g>
<g style="fill:#FFFFFF; fill-opacity:1.0000; stroke:none;">
<circle cx="25.5610" cy="78.1600" r="0.5000" /> 
</g>
<g style="fill:#FFFFFF; fill-opacity:1.0000; stroke:none;">
<circle cx="23.0210" cy="78.1600" r="0.5000" /> 
</g>
<g style="fill:#FFFFFF; fill-opacity:1.0000; stroke:none;">
<circle cx="20.4810" cy="78.1600" r="0.5000" /> 
</g>
<g style="fill:#FFFFFF; fill-opacity:1.0000; stroke:none;">
<circle cx="17.9410" cy="78.1600" r="0.5000" /> 
</g>
<g style="fill:#FFFFFF; fill-opacity:1.0000; stroke:none;">
<circle cx="15.4010" cy="78.1600" r="0.5000" /> 
</g>
<g style="fill:#FFFFFF; fill-opacity:1.0000; stroke:none;">
<circle cx="12.8610" cy="78.1600" r="0.5000" /> 
</g>
<g style="fill:#FFFFFF; fill-opacity:1.0000; stroke:none;">
<circle cx="10.3210" cy="78.1600" r="0.5000" /> 
</g>
<g style="fill:#FFFFFF; fill-opacity:1.0000; stroke:none;">
<circle cx="7.7810" cy="78.1600" r="0.5000" /> 
</g>
<g style="fill:#FFFFFF; fill-opacity:1.0000; stroke:none;">
<circle cx="33.1810" cy="80.7000" r="0.5000" /> 
</g>
<g style="fill:#FFFFFF; fill-opacity:1.0000; stroke:none;">
<circle cx="30.6410" cy="80.7000" r="0.5000" /> 
</g>
<g style="fill:#FFFFFF; fill-opacity:1.0000; stroke:none;">
<circle cx="28.1010" cy="80.7000" r="0.5000" /> 
</g>
<g style="fill:#FFFFFF; fill-opacity:1.0000; stroke:none;">
<circle cx="25.5610" cy="80.7000" r="0.5000" /> 
</g>
<g style="fill:#FFFFFF; fill-opacity:1.0000; stroke:none;">
<circle cx="23.0210" cy="80.7000" r="0.5000" /> 
</g>
<g style="fill:#FFFFFF; fill-opacity:1.0000; stroke:none;">
<circle cx="20.4810" cy="80.7000" r="0.5000" /> 
</g>
<g style="fill:#FFFFFF; fill-opacity:1.0000; stroke:none;">
<circle cx="17.9410" cy="80.7000" r="0.5000" /> 
</g>
<g style="fill:#FFFFFF; fill-opacity:1.0000; stroke:none;">
<circle cx="15.4010" cy="80.7000" r="0.5000" /> 
</g>
<g style="fill:#FFFFFF; fill-opacity:1.0000; stroke:none;">
<circle cx="12.8610" cy="80.7000" r="0.5000" /> 
</g>
<g style="fill:#FFFFFF; fill-opacity:1.0000; stroke:none;">
<circle cx="10.3210" cy="80.7000" r="0.5000" /> 
</g>
<g style="fill:#FFFFFF; fill-opacity:1.0000; stroke:none;">
<circle cx="7.7810" cy="80.7000" r="0.5000" /> 
</g>
<g style="fill:#FFFFFF; fill-opacity:1.0000; stroke:none;">
<circle cx="20.7110" cy="3.7000" r="0.5500" /> 
</g>
<g style="fill:#FFFFFF; fill-opacity:1.0000; stroke:none;">
<circle cx="18.2110" cy="3.7000" r="0.5500" /> 
</g>
<g style="fill:#FFFFFF; fill-opacity:1.0000; stroke:none;">
<circle cx="15.7110" cy="3.7000" r="0.5500" /> 
</g>
<g style="fill:#FFFFFF; fill-opacity:1.0000; stroke:none;">
<circle cx="19.9810" cy="34.0000" r="0.4000" /> 
</g>
<g style="fill:#FFFFFF; fill-opacity:1.0000; stroke:none;">
<circle cx="14.9810" cy="34.0000" r="0.4000" /> 
</g>
<g style="fill:#FFFFFF; fill-opacity:1.0000; stroke:none;">
<circle cx="17.8810" cy="44.3400" r="0.5500" /> 
</g>
<g style="fill:#FFFFFF; fill-opacity:1.0000; stroke:none;">
<circle cx="20.3810" cy="44.3400" r="0.5500" /> 
</g>
<g style="fill:#FFFFFF; fill-opacity:1.0000; stroke:none;">
<circle cx="22.8810" cy="44.3400" r="0.5500" /> 
</g>
<g style="fill:#FFFFFF; fill-opacity:1.0000; stroke:none;">
<circle cx="25.3810" cy="44.3400" r="0.5500" /> 
</g>
<g style="fill:#FFFFFF; fill-opacity:1.0000; stroke:none;">
<circle cx="27.8810" cy="44.3400" r="0.5500" /> 
</g>
<g style="fill:#FFFFFF; fill-opacity:1.0000; stroke:none;">
<circle cx="33.4110" cy="3.7000" r="0.5500" /> 
</g>
<g style="fill:#FFFFFF; fill-opacity:1.0000; stroke:none;">
<circle cx="30.9110" cy="3.7000" r="0.5500" /> 
</g>
<g style="fill:#FFFFFF; fill-opacity:1.0000; stroke:none;">
<circle cx="28.4110" cy="3.7000" r="0.5500" /> 
</g>
<g style="fill:#FFFFFF; fill-opacity:1.0000; stroke:none;">
<circle cx="17.9810" cy="11.0000" r="0.4000" /> 
</g>
<g style="fill:#FFFFFF; fill-opacity:1.0000; stroke:none;">
<circle cx="12.9810" cy="11.0000" r="0.4000" /> 
</g> 
</svg>
