%TF.GenerationSoftware,KiCad,Pcbnew,10.0.6*%
%TF.CreationDate,2026-09-12T20:39:10-04:00*%
%TF.ProjectId,int-board,696e742d-626f-4617-9264-2e6b69636164,rev?*%
%TF.SameCoordinates,Original*%
%TF.FileFunction,Copper,L2,Bot*%
%TF.FilePolarity,Positive*%
%FSLAX46Y46*%
G04 Gerber Fmt 4.6, Leading zero omitted, Abs format (unit mm)*
G04 Created by KiCad (PCBNEW 10.0.6) date 2026-09-12 20:39:10*
%MOMM*%
%LPD*%
G01*
G04 APERTURE LIST*
G04 Aperture macros list*
%AMRoundRect*
0 Rectangle with rounded corners*
0 $1 Rounding radius*
0 $2 $3 $4 $5 $6 $7 $8 $9 X,Y pos of 4 corners*
0 Add a 4 corners polygon primitive as box body*
4,1,4,$2,$3,$4,$5,$6,$7,$8,$9,$2,$3,0*
0 Add four circle primitives for the rounded corners*
1,1,$1+$1,$2,$3*
1,1,$1+$1,$4,$5*
1,1,$1+$1,$6,$7*
1,1,$1+$1,$8,$9*
0 Add four rect primitives between the rounded corners*
20,1,$1+$1,$2,$3,$4,$5,0*
20,1,$1+$1,$4,$5,$6,$7,0*
20,1,$1+$1,$6,$7,$8,$9,0*
20,1,$1+$1,$8,$9,$2,$3,0*%
G04 Aperture macros list end*
%TA.AperFunction,ComponentPad*%
%ADD10C,1.800000*%
%TD*%
%TA.AperFunction,ComponentPad*%
%ADD11RoundRect,0.249999X-0.850001X-0.850001X0.850001X-0.850001X0.850001X0.850001X-0.850001X0.850001X0*%
%TD*%
%TA.AperFunction,ComponentPad*%
%ADD12C,2.200000*%
%TD*%
%TA.AperFunction,ComponentPad*%
%ADD13RoundRect,0.450000X-0.450000X-0.450000X0.450000X-0.450000X0.450000X0.450000X-0.450000X0.450000X0*%
%TD*%
%TA.AperFunction,ComponentPad*%
%ADD14RoundRect,0.250000X0.550000X-0.550000X0.550000X0.550000X-0.550000X0.550000X-0.550000X-0.550000X0*%
%TD*%
%TA.AperFunction,ComponentPad*%
%ADD15C,1.600000*%
%TD*%
%TA.AperFunction,ComponentPad*%
%ADD16RoundRect,0.487500X-0.487500X-0.487500X0.487500X-0.487500X0.487500X0.487500X-0.487500X0.487500X0*%
%TD*%
%TA.AperFunction,ComponentPad*%
%ADD17C,1.950000*%
%TD*%
%TA.AperFunction,ComponentPad*%
%ADD18RoundRect,0.250001X-0.949999X0.949999X-0.949999X-0.949999X0.949999X-0.949999X0.949999X0.949999X0*%
%TD*%
%TA.AperFunction,ComponentPad*%
%ADD19C,2.400000*%
%TD*%
%TA.AperFunction,ComponentPad*%
%ADD20RoundRect,0.487500X-0.487500X0.487500X-0.487500X-0.487500X0.487500X-0.487500X0.487500X0.487500X0*%
%TD*%
%TA.AperFunction,ComponentPad*%
%ADD21RoundRect,0.400000X-0.400000X-0.400000X0.400000X-0.400000X0.400000X0.400000X-0.400000X0.400000X0*%
%TD*%
%TA.AperFunction,ComponentPad*%
%ADD22RoundRect,0.425000X-0.425000X-0.425000X0.425000X-0.425000X0.425000X0.425000X-0.425000X0.425000X0*%
%TD*%
%TA.AperFunction,ComponentPad*%
%ADD23C,1.700000*%
%TD*%
%TA.AperFunction,ViaPad*%
%ADD24C,1.000000*%
%TD*%
%TA.AperFunction,ViaPad*%
%ADD25C,0.800000*%
%TD*%
%TA.AperFunction,Conductor*%
%ADD26C,0.500000*%
%TD*%
%TA.AperFunction,Conductor*%
%ADD27C,0.250000*%
%TD*%
%ADD28C,0.350000*%
G04 APERTURE END LIST*
D10*
%TO.P,TP3,1*%
%TO.N,GND*%
X46000000Y-81000000D03*
%TD*%
D11*
%TO.P,D1,1*%
%TO.N,VS*%
X45500000Y-73400000D03*
D12*
%TO.P,D1,2*%
%TO.N,ACF*%
X55660000Y-73400000D03*
%TD*%
D13*
%TO.P,F1,1*%
%TO.N,ACR*%
X52460000Y-25500000D03*
D10*
%TO.P,F1,2*%
%TO.N,ACF*%
X57540000Y-25500000D03*
%TD*%
%TO.P,TP1,1*%
%TO.N,VS*%
X40000000Y-81000000D03*
%TD*%
%TO.P,TP2,1*%
%TO.N,COM*%
X43000000Y-81000000D03*
%TD*%
D14*
%TO.P,U1,1*%
%TO.N,VS*%
X10500000Y-32310000D03*
D15*
%TO.P,U1,2*%
%TO.N,K1*%
X13040000Y-32310000D03*
%TO.P,U1,3*%
%TO.N,VS*%
X15580000Y-32310000D03*
%TO.P,U1,4*%
%TO.N,K2*%
X18120000Y-32310000D03*
%TO.P,U1,5*%
%TO.N,VS*%
X20660000Y-32310000D03*
%TO.P,U1,6*%
%TO.N,K3*%
X23200000Y-32310000D03*
%TO.P,U1,7*%
%TO.N,VS*%
X25740000Y-32310000D03*
%TO.P,U1,8*%
%TO.N,K4*%
X28280000Y-32310000D03*
%TO.P,U1,9*%
%TO.N,GND*%
X28280000Y-24690000D03*
%TO.P,U1,10*%
%TO.N,GPIO25*%
X25740000Y-24690000D03*
%TO.P,U1,11*%
%TO.N,GND*%
X23200000Y-24690000D03*
%TO.P,U1,12*%
%TO.N,GPIO22*%
X20660000Y-24690000D03*
%TO.P,U1,13*%
%TO.N,GND*%
X18120000Y-24690000D03*
%TO.P,U1,14*%
%TO.N,GPIO27*%
X15580000Y-24690000D03*
%TO.P,U1,15*%
%TO.N,GND*%
X13040000Y-24690000D03*
%TO.P,U1,16*%
%TO.N,GPIO17*%
X10500000Y-24690000D03*
%TD*%
D14*
%TO.P,U2,1*%
%TO.N,VS*%
X10500000Y-44810000D03*
D15*
%TO.P,U2,2*%
%TO.N,K5*%
X13040000Y-44810000D03*
%TO.P,U2,3*%
%TO.N,VS*%
X15580000Y-44810000D03*
%TO.P,U2,4*%
%TO.N,K6*%
X18120000Y-44810000D03*
%TO.P,U2,5*%
%TO.N,VS*%
X20660000Y-44810000D03*
%TO.P,U2,6*%
%TO.N,K7*%
X23200000Y-44810000D03*
%TO.P,U2,7*%
%TO.N,VS*%
X25740000Y-44810000D03*
%TO.P,U2,8*%
%TO.N,K8*%
X28280000Y-44810000D03*
%TO.P,U2,9*%
%TO.N,GND*%
X28280000Y-37190000D03*
%TO.P,U2,10*%
%TO.N,GPIO23*%
X25740000Y-37190000D03*
%TO.P,U2,11*%
%TO.N,GND*%
X23200000Y-37190000D03*
%TO.P,U2,12*%
%TO.N,GPIO12*%
X20660000Y-37190000D03*
%TO.P,U2,13*%
%TO.N,GND*%
X18120000Y-37190000D03*
%TO.P,U2,14*%
%TO.N,GPIO5*%
X15580000Y-37190000D03*
%TO.P,U2,15*%
%TO.N,GND*%
X13040000Y-37190000D03*
%TO.P,U2,16*%
%TO.N,GPIO6*%
X10500000Y-37190000D03*
%TD*%
%TO.P,R8,1*%
%TO.N,K8*%
X41500000Y-35920000D03*
%TO.P,R8,2*%
%TO.N,S_SCALA*%
X41500000Y-46080000D03*
%TD*%
D16*
%TO.P,J4,1*%
%TO.N,ACR*%
X44450000Y-6950000D03*
D17*
%TO.P,J4,2*%
%TO.N,ACC*%
X46950000Y-6950000D03*
%TO.P,J4,3*%
%TO.N,S_SP-D*%
X49450000Y-6950000D03*
%TO.P,J4,4*%
%TO.N,COM*%
X51950000Y-6950000D03*
%TD*%
D18*
%TO.P,C1,1*%
%TO.N,VS*%
X46800000Y-16500000D03*
D19*
%TO.P,C1,2*%
%TO.N,COM*%
X46800000Y-41500000D03*
%TD*%
D15*
%TO.P,J9,3*%
%TO.N,SCL*%
X7310000Y-13450000D03*
%TO.P,J9,4*%
%TO.N,GPIO4*%
X7310000Y-15990000D03*
%TO.P,J9,5*%
%TO.N,GND*%
X7310000Y-18530000D03*
%TO.P,J9,6*%
%TO.N,GPIO18*%
X7310000Y-21070000D03*
%TO.P,J9,7*%
%TO.N,SDA*%
X7310000Y-23610000D03*
%TO.P,J9,8*%
%TO.N,+5V*%
X7310000Y-26150000D03*
%TO.P,J9,9*%
%TO.N,3V3*%
X7310000Y-28690000D03*
%TO.P,J9,10*%
%TO.N,GPIO10*%
X7310000Y-31230000D03*
%TO.P,J9,11*%
%TO.N,GPIO9*%
X7310000Y-33770000D03*
%TO.P,J9,12*%
%TO.N,GPIO11*%
X7310000Y-36310000D03*
%TO.P,J9,13*%
%TO.N,GPIO7*%
X7310000Y-38850000D03*
%TO.P,J9,14*%
%TO.N,GPIO8*%
X7310000Y-41390000D03*
%TO.P,J9,15*%
%TO.N,GND*%
X7310000Y-43930000D03*
%TO.P,J9,17*%
X7310000Y-49010000D03*
%TO.P,J9,19*%
%TO.N,GPIO20*%
X7310000Y-54090000D03*
%TO.P,J9,20*%
%TO.N,GPIO21*%
X7310000Y-56630000D03*
%TD*%
D11*
%TO.P,D4,1*%
%TO.N,ACC*%
X45500000Y-70200000D03*
D12*
%TO.P,D4,2*%
%TO.N,COM*%
X55660000Y-70200000D03*
%TD*%
D15*
%TO.P,R9,1*%
%TO.N,K9*%
X31700000Y-48420000D03*
%TO.P,R9,2*%
%TO.N,S_HPHEAT*%
X31700000Y-58580000D03*
%TD*%
D11*
%TO.P,D3,1*%
%TO.N,ACF*%
X45500000Y-67000000D03*
D12*
%TO.P,D3,2*%
%TO.N,COM*%
X55660000Y-67000000D03*
%TD*%
D20*
%TO.P,J6,1*%
%TO.N,3V3*%
X53000000Y-29500000D03*
D17*
%TO.P,J6,2*%
%TO.N,SDA*%
X53000000Y-32000000D03*
%TO.P,J6,3*%
%TO.N,SCL*%
X53000000Y-34500000D03*
%TO.P,J6,4*%
%TO.N,GPIO4*%
X53000000Y-37000000D03*
%TO.P,J6,5*%
%TO.N,GND*%
X53000000Y-39500000D03*
%TD*%
D15*
%TO.P,R2,1*%
%TO.N,K2*%
X35000000Y-23420000D03*
%TO.P,R2,2*%
%TO.N,S_DHW*%
X35000000Y-33580000D03*
%TD*%
%TO.P,R7,1*%
%TO.N,K7*%
X38250000Y-35920000D03*
%TO.P,R7,2*%
%TO.N,S_DEHUM*%
X38250000Y-46080000D03*
%TD*%
D16*
%TO.P,J1,1*%
%TO.N,S_ZV*%
X9350000Y-6950000D03*
D17*
%TO.P,J1,2*%
%TO.N,S_DHW*%
X11850000Y-6950000D03*
%TO.P,J1,3*%
%TO.N,S_BLR*%
X14350000Y-6950000D03*
%TO.P,J1,4*%
%TO.N,COM*%
X16850000Y-6950000D03*
%TD*%
D20*
%TO.P,J7,1*%
%TO.N,VS*%
X53000000Y-46750000D03*
D17*
%TO.P,J7,2*%
%TO.N,COM*%
X53000000Y-49250000D03*
%TO.P,J7,3*%
%TO.N,+5V*%
X53000000Y-51750000D03*
%TO.P,J7,4*%
%TO.N,GND*%
X53000000Y-54250000D03*
%TD*%
D16*
%TO.P,J2,1*%
%TO.N,S_CHIL*%
X21050000Y-6950000D03*
D17*
%TO.P,J2,2*%
%TO.N,S_BOS1*%
X23550000Y-6950000D03*
%TO.P,J2,3*%
%TO.N,S_BOS2*%
X26050000Y-6950000D03*
%TO.P,J2,4*%
%TO.N,COM*%
X28550000Y-6950000D03*
%TD*%
D15*
%TO.P,R3,1*%
%TO.N,K3*%
X38250000Y-23420000D03*
%TO.P,R3,2*%
%TO.N,S_BLR*%
X38250000Y-33580000D03*
%TD*%
%TO.P,R12,1*%
%TO.N,K12*%
X41500000Y-48420000D03*
%TO.P,R12,2*%
%TO.N,S_SP-E*%
X41500000Y-58580000D03*
%TD*%
%TO.P,R5,1*%
%TO.N,K5*%
X31700000Y-35920000D03*
%TO.P,R5,2*%
%TO.N,S_BOS1*%
X31700000Y-46080000D03*
%TD*%
D16*
%TO.P,J3,1*%
%TO.N,S_DEHUM*%
X32750000Y-6950000D03*
D17*
%TO.P,J3,2*%
%TO.N,S_SCALA*%
X35250000Y-6950000D03*
%TO.P,J3,3*%
%TO.N,S_HPHEAT*%
X37750000Y-6950000D03*
%TO.P,J3,4*%
%TO.N,COM*%
X40250000Y-6950000D03*
%TD*%
D21*
%TO.P,J8,1*%
%TO.N,S_SP-C*%
X49500000Y-82000000D03*
D15*
%TO.P,J8,2*%
%TO.N,S_SP-E*%
X52040000Y-82000000D03*
%TO.P,J8,3*%
%TO.N,COM*%
X54580000Y-82000000D03*
%TD*%
%TO.P,R10,1*%
%TO.N,K10*%
X35000000Y-48420000D03*
%TO.P,R10,2*%
%TO.N,S_SP-D*%
X35000000Y-58580000D03*
%TD*%
D11*
%TO.P,D2,1*%
%TO.N,VS*%
X45500000Y-76600000D03*
D12*
%TO.P,D2,2*%
%TO.N,ACC*%
X55660000Y-76600000D03*
%TD*%
D15*
%TO.P,R1,1*%
%TO.N,K1*%
X31700000Y-23420000D03*
%TO.P,R1,2*%
%TO.N,S_ZV*%
X31700000Y-33580000D03*
%TD*%
%TO.P,R4,1*%
%TO.N,K4*%
X41500000Y-23420000D03*
%TO.P,R4,2*%
%TO.N,S_CHIL*%
X41500000Y-33580000D03*
%TD*%
D14*
%TO.P,U3,1*%
%TO.N,VS*%
X10500000Y-57310000D03*
D15*
%TO.P,U3,2*%
%TO.N,K9*%
X13040000Y-57310000D03*
%TO.P,U3,3*%
%TO.N,VS*%
X15580000Y-57310000D03*
%TO.P,U3,4*%
%TO.N,K10*%
X18120000Y-57310000D03*
%TO.P,U3,5*%
%TO.N,VS*%
X20660000Y-57310000D03*
%TO.P,U3,6*%
%TO.N,K11*%
X23200000Y-57310000D03*
%TO.P,U3,7*%
%TO.N,VS*%
X25740000Y-57310000D03*
%TO.P,U3,8*%
%TO.N,K12*%
X28280000Y-57310000D03*
%TO.P,U3,9*%
%TO.N,GND*%
X28280000Y-49690000D03*
%TO.P,U3,10*%
%TO.N,GPIO16*%
X25740000Y-49690000D03*
%TO.P,U3,11*%
%TO.N,GND*%
X23200000Y-49690000D03*
%TO.P,U3,12*%
%TO.N,GPIO13*%
X20660000Y-49690000D03*
%TO.P,U3,13*%
%TO.N,GND*%
X18120000Y-49690000D03*
%TO.P,U3,14*%
%TO.N,GPIO19*%
X15580000Y-49690000D03*
%TO.P,U3,15*%
%TO.N,GND*%
X13040000Y-49690000D03*
%TO.P,U3,16*%
%TO.N,GPIO24*%
X10500000Y-49690000D03*
%TD*%
%TO.P,R6,1*%
%TO.N,K6*%
X35000000Y-35920000D03*
%TO.P,R6,2*%
%TO.N,S_BOS2*%
X35000000Y-46080000D03*
%TD*%
%TO.P,R11,1*%
%TO.N,K11*%
X38250000Y-48420000D03*
%TO.P,R11,2*%
%TO.N,S_SP-C*%
X38250000Y-58580000D03*
%TD*%
D22*
%TO.P,J5,1*%
%TO.N,N/C*%
X4770000Y-8370000D03*
D23*
%TO.P,J5,2*%
%TO.N,+5V*%
X2230000Y-8370000D03*
%TO.P,J5,3*%
%TO.N,SDA*%
X4770000Y-10910000D03*
%TO.P,J5,4*%
%TO.N,+5V*%
X2230000Y-10910000D03*
%TO.P,J5,5*%
%TO.N,SCL*%
X4770000Y-13450000D03*
%TO.P,J5,6*%
%TO.N,GND*%
X2230000Y-13450000D03*
%TO.P,J5,7*%
%TO.N,GPIO4*%
X4770000Y-15990000D03*
%TO.P,J5,8*%
%TO.N,N/C*%
X2230000Y-15990000D03*
%TO.P,J5,9*%
%TO.N,GND*%
X4770000Y-18530000D03*
%TO.P,J5,10*%
%TO.N,N/C*%
X2230000Y-18530000D03*
%TO.P,J5,11*%
%TO.N,GPIO17*%
X4770000Y-21070000D03*
%TO.P,J5,12*%
%TO.N,GPIO18*%
X2230000Y-21070000D03*
%TO.P,J5,13*%
%TO.N,GPIO27*%
X4770000Y-23610000D03*
%TO.P,J5,14*%
%TO.N,GND*%
X2230000Y-23610000D03*
%TO.P,J5,15*%
%TO.N,GPIO22*%
X4770000Y-26150000D03*
%TO.P,J5,16*%
%TO.N,GPIO23*%
X2230000Y-26150000D03*
%TO.P,J5,17*%
%TO.N,3V3*%
X4770000Y-28690000D03*
%TO.P,J5,18*%
%TO.N,GPIO24*%
X2230000Y-28690000D03*
%TO.P,J5,19*%
%TO.N,GPIO10*%
X4770000Y-31230000D03*
%TO.P,J5,20*%
%TO.N,GND*%
X2230000Y-31230000D03*
%TO.P,J5,21*%
%TO.N,GPIO9*%
X4770000Y-33770000D03*
%TO.P,J5,22*%
%TO.N,GPIO25*%
X2230000Y-33770000D03*
%TO.P,J5,23*%
%TO.N,GPIO11*%
X4770000Y-36310000D03*
%TO.P,J5,24*%
%TO.N,GPIO8*%
X2230000Y-36310000D03*
%TO.P,J5,25*%
%TO.N,N/C*%
X4770000Y-38850000D03*
%TO.P,J5,26*%
%TO.N,GPIO7*%
X2230000Y-38850000D03*
%TO.P,J5,27*%
%TO.N,N/C*%
X4770000Y-41390000D03*
%TO.P,J5,28*%
X2230000Y-41390000D03*
%TO.P,J5,29*%
%TO.N,GPIO5*%
X4770000Y-43930000D03*
%TO.P,J5,30*%
%TO.N,GND*%
X2230000Y-43930000D03*
%TO.P,J5,31*%
%TO.N,GPIO6*%
X4770000Y-46470000D03*
%TO.P,J5,32*%
%TO.N,GPIO12*%
X2230000Y-46470000D03*
%TO.P,J5,33*%
%TO.N,GPIO13*%
X4770000Y-49010000D03*
%TO.P,J5,34*%
%TO.N,GND*%
X2230000Y-49010000D03*
%TO.P,J5,35*%
%TO.N,GPIO19*%
X4770000Y-51550000D03*
%TO.P,J5,36*%
%TO.N,GPIO16*%
X2230000Y-51550000D03*
%TO.P,J5,37*%
%TO.N,N/C*%
X4770000Y-54090000D03*
%TO.P,J5,38*%
%TO.N,GPIO20*%
X2230000Y-54090000D03*
%TO.P,J5,39*%
%TO.N,N/C*%
X4770000Y-56630000D03*
%TO.P,J5,40*%
%TO.N,GPIO21*%
X2230000Y-56630000D03*
%TD*%
D24*
%TO.N,GND*%
X47424700Y-35871500D03*
%TO.N,VS*%
X51534300Y-53224600D03*
%TO.N,ACR*%
X52460000Y-13966200D03*
D25*
%TO.N,SCL*%
X46809600Y-13657600D03*
%TO.N,GPIO4*%
X53870100Y-16749800D03*
%TO.N,SDA*%
X48902900Y-13609700D03*
D24*
%TO.N,+5V*%
X44498400Y-12518100D03*
D25*
%TO.N,3V3*%
X50117500Y-16749800D03*
%TO.N,S_ZV*%
X27217600Y-11826100D03*
%TO.N,S_BLR*%
X37404600Y-11822100D03*
%TO.N,S_CHIL*%
X29448300Y-34750000D03*
%TD*%
%TO.N,GND*%
D26*
X16802600Y-35872600D02*
X18120000Y-37190000D01*
X26967600Y-35877500D02*
X30591400Y-32253700D01*
X16788600Y-51021400D02*
X18120000Y-49690000D01*
X19421700Y-50991700D02*
X21898300Y-50991700D01*
X53000000Y-39500000D02*
X54492000Y-40992000D01*
X14357400Y-35872600D02*
X16802600Y-35872600D01*
X54492000Y-40992000D02*
X54492000Y-52758000D01*
X13040000Y-24260000D02*
X13040000Y-24690000D01*
X10865600Y-51864400D02*
X13040000Y-49690000D01*
X18120000Y-37190000D02*
X19430400Y-35879600D01*
X26975800Y-50994200D02*
X24504200Y-50994200D01*
X14371400Y-51021400D02*
X16788600Y-51021400D01*
X21889600Y-35879600D02*
X23200000Y-37190000D01*
X8639200Y-57157800D02*
X7781400Y-58015600D01*
X24512500Y-35877500D02*
X26967500Y-35877500D01*
X878300Y-50361700D02*
X2230000Y-49010000D01*
X54492000Y-52758000D02*
X53000000Y-54250000D01*
X28280000Y-24690000D02*
X26976700Y-25993300D01*
X7310000Y-18530000D02*
X13040000Y-24260000D01*
X878300Y-57228200D02*
X878300Y-50361700D01*
X10164400Y-51864400D02*
X8639200Y-53389600D01*
X13040000Y-37190000D02*
X14357400Y-35872600D01*
X7310000Y-43930000D02*
X13040000Y-38200000D01*
X28280000Y-49690000D02*
X26975800Y-50994200D01*
X4770000Y-18530000D02*
X7310000Y-18530000D01*
X43806900Y-32253700D02*
X47424700Y-35871500D01*
X13040000Y-49690000D02*
X14371400Y-51021400D01*
X7781400Y-58015600D02*
X1665700Y-58015600D01*
X26967600Y-35877500D02*
X28280000Y-37190000D01*
X26976700Y-25993300D02*
X24503300Y-25993300D01*
X23200000Y-37190000D02*
X24512500Y-35877500D01*
X26967500Y-35877500D02*
X26967600Y-35877500D01*
X1665700Y-58015600D02*
X878300Y-57228200D01*
X8639200Y-53389600D02*
X8639200Y-57157800D01*
X7310000Y-49010000D02*
X10164400Y-51864400D01*
X13040000Y-38200000D02*
X13040000Y-37190000D01*
X18120000Y-49690000D02*
X19421700Y-50991700D01*
X30591400Y-32253700D02*
X43806900Y-32253700D01*
X21898300Y-50991700D02*
X23200000Y-49690000D01*
X19430400Y-35879600D02*
X21889600Y-35879600D01*
X24503300Y-25993300D02*
X23200000Y-24690000D01*
X24504200Y-50994200D02*
X23200000Y-49690000D01*
X10164400Y-51864400D02*
X10865600Y-51864400D01*
%TO.N,VS*%
X20660000Y-44810000D02*
X19342700Y-46127300D01*
X25740000Y-32310000D02*
X24433600Y-33616400D01*
X19358300Y-33611700D02*
X20660000Y-32310000D01*
X24436000Y-46114000D02*
X21964000Y-46114000D01*
X15580000Y-32310000D02*
X16881700Y-33611700D01*
X20660000Y-57310000D02*
X19343600Y-58626400D01*
X24433600Y-33616400D02*
X21966400Y-33616400D01*
X19343600Y-58626400D02*
X16896400Y-58626400D01*
X15580000Y-44810000D02*
X14275300Y-46114700D01*
X10500000Y-32310000D02*
X11801700Y-33611700D01*
X25740000Y-44810000D02*
X24436000Y-46114000D01*
X11801700Y-33611700D02*
X14278300Y-33611700D01*
X14278300Y-33611700D02*
X15580000Y-32310000D01*
X19342700Y-46127300D02*
X16897300Y-46127300D01*
X16881700Y-33611700D02*
X19358300Y-33611700D01*
X11804700Y-46114700D02*
X10500000Y-44810000D01*
X21964000Y-46114000D02*
X20660000Y-44810000D01*
X45500000Y-76600000D02*
X44400000Y-76600000D01*
X16897300Y-46127300D02*
X15580000Y-44810000D01*
X16896400Y-58626400D02*
X15580000Y-57310000D01*
X21966400Y-33616400D02*
X20660000Y-32310000D01*
X14275300Y-46114700D02*
X11804700Y-46114700D01*
X51523300Y-53213600D02*
X51534300Y-53224600D01*
X51523300Y-48226700D02*
X51523300Y-53213600D01*
X53000000Y-46750000D02*
X51523300Y-48226700D01*
X44400000Y-76600000D02*
X40000000Y-81000000D01*
%TO.N,ACF*%
X49260000Y-67000000D02*
X55660000Y-73400000D01*
X45500000Y-67000000D02*
X49260000Y-67000000D01*
%TO.N,ACR*%
X53453400Y-6362800D02*
X53453400Y-12972800D01*
X53453400Y-12972800D02*
X52460000Y-13966200D01*
X52562500Y-5471900D02*
X53453400Y-6362800D01*
X45928100Y-5471900D02*
X52562500Y-5471900D01*
X44450000Y-6950000D02*
X45928100Y-5471900D01*
%TO.N,COM*%
X27063200Y-8436800D02*
X18336800Y-8436800D01*
X28550000Y-6950000D02*
X27063200Y-8436800D01*
X30034400Y-8434400D02*
X28550000Y-6950000D01*
X38765600Y-8434400D02*
X30034400Y-8434400D01*
X40250000Y-6950000D02*
X38765600Y-8434400D01*
X54580000Y-82000000D02*
X53192300Y-83387700D01*
X18336800Y-8436800D02*
X16850000Y-6950000D01*
X50471400Y-8428600D02*
X41728600Y-8428600D01*
X53192300Y-83387700D02*
X45387700Y-83387700D01*
X51950000Y-6950000D02*
X50471400Y-8428600D01*
X45387700Y-83387700D02*
X43000000Y-81000000D01*
X41728600Y-8428600D02*
X40250000Y-6950000D01*
%TO.N,K1*%
D27*
X18341600Y-30577900D02*
X14772100Y-30577900D01*
X27488600Y-26620000D02*
X22299500Y-26620000D01*
X14772100Y-30577900D02*
X13040000Y-32310000D01*
X29253300Y-25866700D02*
X28241900Y-25866700D01*
X22299500Y-26620000D02*
X18341600Y-30577900D01*
X28241900Y-25866700D02*
X27488600Y-26620000D01*
X31700000Y-23420000D02*
X29253300Y-25866700D01*
%TO.N,K2*%
X27807800Y-27071700D02*
X28015100Y-26864400D01*
X23358300Y-27071700D02*
X27807800Y-27071700D01*
X28015100Y-26864400D02*
X31555600Y-26864400D01*
X31555600Y-26864400D02*
X35000000Y-23420000D01*
X18120000Y-32310000D02*
X23358300Y-27071700D01*
%TO.N,K3*%
X23208300Y-32310000D02*
X28202200Y-27316100D01*
X28202200Y-27316100D02*
X32635000Y-27316100D01*
X32690100Y-27261000D02*
X34409000Y-27261000D01*
X34409000Y-27261000D02*
X38250000Y-23420000D01*
X23200000Y-32310000D02*
X23208300Y-32310000D01*
X32635000Y-27316100D02*
X32690100Y-27261000D01*
%TO.N,K4*%
X37153700Y-27766300D02*
X32823700Y-27766300D01*
X32823700Y-27766300D02*
X28280000Y-32310000D01*
X41500000Y-23420000D02*
X37153700Y-27766300D01*
%TO.N,GPIO25*%
X10906600Y-29889400D02*
X8296000Y-32500000D01*
X25740000Y-24690000D02*
X24538300Y-23488300D01*
X17069100Y-29889400D02*
X10906600Y-29889400D01*
X21894700Y-25063800D02*
X17069100Y-29889400D01*
X3500000Y-32500000D02*
X2230000Y-33770000D01*
X24538300Y-23488300D02*
X22670800Y-23488300D01*
X8296000Y-32500000D02*
X3500000Y-32500000D01*
X21894700Y-24264400D02*
X21894700Y-25063800D01*
X22670800Y-23488300D02*
X21894700Y-24264400D01*
%TO.N,GPIO22*%
X17987800Y-27362200D02*
X5982200Y-27362200D01*
X20660000Y-24690000D02*
X17987800Y-27362200D01*
X5982200Y-27362200D02*
X4770000Y-26150000D01*
%TO.N,GPIO27*%
X4770000Y-23610000D02*
X6015000Y-24855000D01*
X9391500Y-25871100D02*
X14398900Y-25871100D01*
X6015000Y-24855000D02*
X8375400Y-24855000D01*
X14398900Y-25871100D02*
X15580000Y-24690000D01*
X8375400Y-24855000D02*
X9391500Y-25871100D01*
%TO.N,GPIO17*%
X8150000Y-22340000D02*
X10500000Y-24690000D01*
X4770000Y-21070000D02*
X6040000Y-22340000D01*
X6040000Y-22340000D02*
X8150000Y-22340000D01*
%TO.N,K5*%
X28717300Y-38902700D02*
X31700000Y-35920000D01*
X18947300Y-38902700D02*
X28717300Y-38902700D01*
X13040000Y-44810000D02*
X18947300Y-38902700D01*
%TO.N,K6*%
X20351400Y-42578600D02*
X18120000Y-44810000D01*
X35000000Y-35920000D02*
X28341400Y-42578600D01*
X28341400Y-42578600D02*
X20351400Y-42578600D01*
%TO.N,K7*%
X31122100Y-43047900D02*
X24962100Y-43047900D01*
X24962100Y-43047900D02*
X23200000Y-44810000D01*
X38250000Y-35920000D02*
X31122100Y-43047900D01*
%TO.N,K8*%
X41500000Y-35920000D02*
X32610000Y-44810000D01*
X32610000Y-44810000D02*
X28280000Y-44810000D01*
%TO.N,GPIO12*%
X8023700Y-45592800D02*
X6088500Y-45592800D01*
X9067000Y-44218800D02*
X9067000Y-44549500D01*
X11157200Y-42128600D02*
X9067000Y-44218800D01*
X5765500Y-45269800D02*
X3430200Y-45269800D01*
X9067000Y-44549500D02*
X8023700Y-45592800D01*
X20660000Y-37190000D02*
X20020000Y-37190000D01*
X15081400Y-42128600D02*
X11157200Y-42128600D01*
X6088500Y-45592800D02*
X5765500Y-45269800D01*
X20020000Y-37190000D02*
X15081400Y-42128600D01*
X3430200Y-45269800D02*
X2230000Y-46470000D01*
%TO.N,GPIO5*%
X8615300Y-43927800D02*
X8615300Y-44339700D01*
X6424100Y-45108900D02*
X5245200Y-43930000D01*
X7846100Y-45108900D02*
X6424100Y-45108900D01*
X15353100Y-37190000D02*
X8615300Y-43927800D01*
X5245200Y-43930000D02*
X4770000Y-43930000D01*
X8615300Y-44339700D02*
X7846100Y-45108900D01*
X15580000Y-37190000D02*
X15353100Y-37190000D01*
%TO.N,GPIO6*%
X5233800Y-42624600D02*
X1726400Y-42624600D01*
X949600Y-43401400D02*
X949600Y-46958300D01*
X7526900Y-40262400D02*
X6813700Y-40262400D01*
X6005600Y-41070500D02*
X6005600Y-41852800D01*
X10500000Y-37289300D02*
X7526900Y-40262400D01*
X6813700Y-40262400D02*
X6005600Y-41070500D01*
X1726400Y-42624600D02*
X949600Y-43401400D01*
X1696000Y-47704700D02*
X3535300Y-47704700D01*
X3535300Y-47704700D02*
X4770000Y-46470000D01*
X949600Y-46958300D02*
X1696000Y-47704700D01*
X6005600Y-41852800D02*
X5233800Y-42624600D01*
X10500000Y-37190000D02*
X10500000Y-37289300D01*
%TO.N,ACC*%
D26*
X51900000Y-76600000D02*
X55660000Y-76600000D01*
X45500000Y-70200000D02*
X51900000Y-76600000D01*
%TO.N,SCL*%
D27*
X7310000Y-13450000D02*
X7717300Y-13857300D01*
X7717300Y-13857300D02*
X46609900Y-13857300D01*
X46609900Y-13857300D02*
X46809600Y-13657600D01*
X4770000Y-13450000D02*
X7310000Y-13450000D01*
%TO.N,GPIO4*%
X51504600Y-14384300D02*
X53870100Y-16749800D01*
X4770000Y-15990000D02*
X7310000Y-15990000D01*
X8915700Y-14384300D02*
X51504600Y-14384300D01*
X7310000Y-15990000D02*
X8915700Y-14384300D01*
%TO.N,GPIO18*%
X6075300Y-19835300D02*
X7310000Y-21070000D01*
X3464700Y-19835300D02*
X6075300Y-19835300D01*
X2230000Y-21070000D02*
X3464700Y-19835300D01*
%TO.N,SDA*%
X45638700Y-13405500D02*
X46114500Y-12929700D01*
X46114500Y-12929700D02*
X48222900Y-12929700D01*
X9985300Y-13405500D02*
X45638700Y-13405500D01*
X48222900Y-12929700D02*
X48902900Y-13609700D01*
X7489800Y-10910000D02*
X9985300Y-13405500D01*
X4770000Y-10910000D02*
X7489800Y-10910000D01*
%TO.N,+5V*%
D26*
X44286200Y-12730300D02*
X44498400Y-12518100D01*
X5951700Y-7005200D02*
X11676800Y-12730300D01*
X3594800Y-7005200D02*
X5951700Y-7005200D01*
X11676800Y-12730300D02*
X44286200Y-12730300D01*
X2230000Y-8370000D02*
X3594800Y-7005200D01*
%TO.N,3V3*%
D27*
X3454900Y-25634700D02*
X2675000Y-24854800D01*
X3534500Y-18899400D02*
X3534500Y-18019000D01*
X7310000Y-28690000D02*
X4770000Y-28690000D01*
X3534500Y-18019000D02*
X4318500Y-17235000D01*
X48246300Y-14878600D02*
X50117500Y-16749800D01*
X3454900Y-27374900D02*
X3454900Y-25634700D01*
X2727200Y-19706700D02*
X3534500Y-18899400D01*
X1919400Y-19706700D02*
X2727200Y-19706700D01*
X2675000Y-24854800D02*
X1673400Y-24854800D01*
X4770000Y-28690000D02*
X3454900Y-27374900D01*
X956500Y-24137900D02*
X956500Y-20669600D01*
X38822500Y-17235000D02*
X41178900Y-14878600D01*
X41178900Y-14878600D02*
X48246300Y-14878600D01*
X1673400Y-24854800D02*
X956500Y-24137900D01*
X956500Y-20669600D02*
X1919400Y-19706700D01*
X4318500Y-17235000D02*
X38822500Y-17235000D01*
%TO.N,GPIO10*%
X4770000Y-31230000D02*
X7310000Y-31230000D01*
%TO.N,GPIO9*%
X4770000Y-33770000D02*
X7310000Y-33770000D01*
%TO.N,GPIO11*%
X4770000Y-36310000D02*
X7310000Y-36310000D01*
%TO.N,GPIO7*%
X7310000Y-38850000D02*
X6133300Y-37673300D01*
X6133300Y-37673300D02*
X3406700Y-37673300D01*
X3406700Y-37673300D02*
X2230000Y-38850000D01*
%TO.N,GPIO20*%
X6119400Y-52899400D02*
X7310000Y-54090000D01*
X2230000Y-54090000D02*
X3420600Y-52899400D01*
X3420600Y-52899400D02*
X6119400Y-52899400D01*
%TO.N,GPIO21*%
X2230000Y-56630000D02*
X3420600Y-55439400D01*
X3420600Y-55439400D02*
X6119400Y-55439400D01*
X6119400Y-55439400D02*
X7310000Y-56630000D01*
%TO.N,K9*%
X18703400Y-51646600D02*
X13040000Y-57310000D01*
X28473400Y-51646600D02*
X18703400Y-51646600D01*
X31700000Y-48420000D02*
X28473400Y-51646600D01*
%TO.N,S_ZV*%
X14226100Y-11826100D02*
X27217600Y-11826100D01*
X9350000Y-6950000D02*
X14226100Y-11826100D01*
%TO.N,S_BLR*%
X35801400Y-10218900D02*
X17618900Y-10218900D01*
X37404600Y-11822100D02*
X35801400Y-10218900D01*
X17618900Y-10218900D02*
X14350000Y-6950000D01*
%TO.N,S_CHIL*%
X40330000Y-34750000D02*
X29448300Y-34750000D01*
X41500000Y-33580000D02*
X40330000Y-34750000D01*
%TO.N,K12*%
X41500000Y-48420000D02*
X32610000Y-57310000D01*
X32610000Y-57310000D02*
X28280000Y-57310000D01*
%TO.N,K10*%
X22968600Y-52461400D02*
X18120000Y-57310000D01*
X30958600Y-52461400D02*
X22968600Y-52461400D01*
X35000000Y-48420000D02*
X30958600Y-52461400D01*
%TO.N,K11*%
X25735600Y-54774400D02*
X31895600Y-54774400D01*
X31895600Y-54774400D02*
X38250000Y-48420000D01*
X23200000Y-57310000D02*
X25735600Y-54774400D01*
%TO.N,GPIO13*%
X4770000Y-49010000D02*
X5975400Y-47804600D01*
X18774600Y-47804600D02*
X20660000Y-49690000D01*
X5975400Y-47804600D02*
X18774600Y-47804600D01*
%TD*%
D28*
X47424700Y-35871500D03*
X51534300Y-53224600D03*
X52460000Y-13966200D03*
X46809600Y-13657600D03*
X53870100Y-16749800D03*
X48902900Y-13609700D03*
X44498400Y-12518100D03*
X50117500Y-16749800D03*
X27217600Y-11826100D03*
X37404600Y-11822100D03*
X29448300Y-34750000D03*
X46000000Y-81000000D03*
X45500000Y-73400000D03*
X55660000Y-73400000D03*
X52460000Y-25500000D03*
X57540000Y-25500000D03*
X40000000Y-81000000D03*
X43000000Y-81000000D03*
X10500000Y-32310000D03*
X13040000Y-32310000D03*
X15580000Y-32310000D03*
X18120000Y-32310000D03*
X20660000Y-32310000D03*
X23200000Y-32310000D03*
X25740000Y-32310000D03*
X28280000Y-32310000D03*
X28280000Y-24690000D03*
X25740000Y-24690000D03*
X23200000Y-24690000D03*
X20660000Y-24690000D03*
X18120000Y-24690000D03*
X15580000Y-24690000D03*
X13040000Y-24690000D03*
X10500000Y-24690000D03*
X10500000Y-44810000D03*
X13040000Y-44810000D03*
X15580000Y-44810000D03*
X18120000Y-44810000D03*
X20660000Y-44810000D03*
X23200000Y-44810000D03*
X25740000Y-44810000D03*
X28280000Y-44810000D03*
X28280000Y-37190000D03*
X25740000Y-37190000D03*
X23200000Y-37190000D03*
X20660000Y-37190000D03*
X18120000Y-37190000D03*
X15580000Y-37190000D03*
X13040000Y-37190000D03*
X10500000Y-37190000D03*
X41500000Y-35920000D03*
X41500000Y-46080000D03*
X44450000Y-6950000D03*
X46950000Y-6950000D03*
X49450000Y-6950000D03*
X51950000Y-6950000D03*
X46800000Y-16500000D03*
X46800000Y-41500000D03*
X7310000Y-13450000D03*
X7310000Y-15990000D03*
X7310000Y-18530000D03*
X7310000Y-21070000D03*
X7310000Y-23610000D03*
X7310000Y-26150000D03*
X7310000Y-28690000D03*
X7310000Y-31230000D03*
X7310000Y-33770000D03*
X7310000Y-36310000D03*
X7310000Y-38850000D03*
X7310000Y-41390000D03*
X7310000Y-43930000D03*
X7310000Y-49010000D03*
X7310000Y-54090000D03*
X7310000Y-56630000D03*
X45500000Y-70200000D03*
X55660000Y-70200000D03*
X31700000Y-48420000D03*
X31700000Y-58580000D03*
X45500000Y-67000000D03*
X55660000Y-67000000D03*
X53000000Y-29500000D03*
X53000000Y-32000000D03*
X53000000Y-34500000D03*
X53000000Y-37000000D03*
X53000000Y-39500000D03*
X35000000Y-23420000D03*
X35000000Y-33580000D03*
X38250000Y-35920000D03*
X38250000Y-46080000D03*
X9350000Y-6950000D03*
X11850000Y-6950000D03*
X14350000Y-6950000D03*
X16850000Y-6950000D03*
X53000000Y-46750000D03*
X53000000Y-49250000D03*
X53000000Y-51750000D03*
X53000000Y-54250000D03*
X21050000Y-6950000D03*
X23550000Y-6950000D03*
X26050000Y-6950000D03*
X28550000Y-6950000D03*
X38250000Y-23420000D03*
X38250000Y-33580000D03*
X41500000Y-48420000D03*
X41500000Y-58580000D03*
X31700000Y-35920000D03*
X31700000Y-46080000D03*
X32750000Y-6950000D03*
X35250000Y-6950000D03*
X37750000Y-6950000D03*
X40250000Y-6950000D03*
X49500000Y-82000000D03*
X52040000Y-82000000D03*
X54580000Y-82000000D03*
X35000000Y-48420000D03*
X35000000Y-58580000D03*
X45500000Y-76600000D03*
X55660000Y-76600000D03*
X31700000Y-23420000D03*
X31700000Y-33580000D03*
X41500000Y-23420000D03*
X41500000Y-33580000D03*
X10500000Y-57310000D03*
X13040000Y-57310000D03*
X15580000Y-57310000D03*
X18120000Y-57310000D03*
X20660000Y-57310000D03*
X23200000Y-57310000D03*
X25740000Y-57310000D03*
X28280000Y-57310000D03*
X28280000Y-49690000D03*
X25740000Y-49690000D03*
X23200000Y-49690000D03*
X20660000Y-49690000D03*
X18120000Y-49690000D03*
X15580000Y-49690000D03*
X13040000Y-49690000D03*
X10500000Y-49690000D03*
X35000000Y-35920000D03*
X35000000Y-46080000D03*
X38250000Y-48420000D03*
X38250000Y-58580000D03*
X4770000Y-8370000D03*
X2230000Y-8370000D03*
X4770000Y-10910000D03*
X2230000Y-10910000D03*
X4770000Y-13450000D03*
X2230000Y-13450000D03*
X4770000Y-15990000D03*
X2230000Y-15990000D03*
X4770000Y-18530000D03*
X2230000Y-18530000D03*
X4770000Y-21070000D03*
X2230000Y-21070000D03*
X4770000Y-23610000D03*
X2230000Y-23610000D03*
X4770000Y-26150000D03*
X2230000Y-26150000D03*
X4770000Y-28690000D03*
X2230000Y-28690000D03*
X4770000Y-31230000D03*
X2230000Y-31230000D03*
X4770000Y-33770000D03*
X2230000Y-33770000D03*
X4770000Y-36310000D03*
X2230000Y-36310000D03*
X4770000Y-38850000D03*
X2230000Y-38850000D03*
X4770000Y-41390000D03*
X2230000Y-41390000D03*
X4770000Y-43930000D03*
X2230000Y-43930000D03*
X4770000Y-46470000D03*
X2230000Y-46470000D03*
X4770000Y-49010000D03*
X2230000Y-49010000D03*
X4770000Y-51550000D03*
X2230000Y-51550000D03*
X4770000Y-54090000D03*
X2230000Y-54090000D03*
X4770000Y-56630000D03*
X2230000Y-56630000D03*
M02*
