%TF.GenerationSoftware,KiCad,Pcbnew,10.0.6*%
%TF.CreationDate,2026-09-12T11:27:55-04:00*%
%TF.ProjectId,int-board,696e742d-626f-4617-9264-2e6b69636164,rev?*%
%TF.SameCoordinates,Original*%
%TF.FileFunction,Legend,Top*%
%TF.FilePolarity,Positive*%
%FSLAX46Y46*%
G04 Gerber Fmt 4.6, Leading zero omitted, Abs format (unit mm)*
G04 Created by KiCad (PCBNEW 10.0.6) date 2026-09-12 11:27:55*
%MOMM*%
%LPD*%
G01*
G04 APERTURE LIST*
%ADD10C,0.120000*%
%ADD11C,0.160000*%
%ADD12C,0.105000*%
%ADD13C,0.150000*%
G04 APERTURE END LIST*
D10*
X771428Y-6140045D02*
X809524Y-6101950D01*
X809524Y-6101950D02*
X885714Y-6063855D01*
X885714Y-6063855D02*
X1076190Y-6063855D01*
X1076190Y-6063855D02*
X1152381Y-6101950D01*
X1152381Y-6101950D02*
X1190476Y-6140045D01*
X1190476Y-6140045D02*
X1228571Y-6216236D01*
X1228571Y-6216236D02*
X1228571Y-6292426D01*
X1228571Y-6292426D02*
X1190476Y-6406712D01*
X1190476Y-6406712D02*
X733333Y-6863855D01*
X733333Y-6863855D02*
X1228571Y-6863855D01*
X3728571Y-6863855D02*
X3271428Y-6863855D01*
X3500000Y-6863855D02*
X3500000Y-6063855D01*
X3500000Y-6063855D02*
X3423809Y-6178140D01*
X3423809Y-6178140D02*
X3347619Y-6254331D01*
X3347619Y-6254331D02*
X3271428Y-6292426D01*
X2852380Y-58063855D02*
X3347618Y-58063855D01*
X3347618Y-58063855D02*
X3080952Y-58368617D01*
X3080952Y-58368617D02*
X3195237Y-58368617D01*
X3195237Y-58368617D02*
X3271428Y-58406712D01*
X3271428Y-58406712D02*
X3309523Y-58444807D01*
X3309523Y-58444807D02*
X3347618Y-58520998D01*
X3347618Y-58520998D02*
X3347618Y-58711474D01*
X3347618Y-58711474D02*
X3309523Y-58787664D01*
X3309523Y-58787664D02*
X3271428Y-58825760D01*
X3271428Y-58825760D02*
X3195237Y-58863855D01*
X3195237Y-58863855D02*
X2966666Y-58863855D01*
X2966666Y-58863855D02*
X2890475Y-58825760D01*
X2890475Y-58825760D02*
X2852380Y-58787664D01*
X3728571Y-58863855D02*
X3880952Y-58863855D01*
X3880952Y-58863855D02*
X3957142Y-58825760D01*
X3957142Y-58825760D02*
X3995238Y-58787664D01*
X3995238Y-58787664D02*
X4071428Y-58673379D01*
X4071428Y-58673379D02*
X4109523Y-58520998D01*
X4109523Y-58520998D02*
X4109523Y-58216236D01*
X4109523Y-58216236D02*
X4071428Y-58140045D01*
X4071428Y-58140045D02*
X4033333Y-58101950D01*
X4033333Y-58101950D02*
X3957142Y-58063855D01*
X3957142Y-58063855D02*
X3804761Y-58063855D01*
X3804761Y-58063855D02*
X3728571Y-58101950D01*
X3728571Y-58101950D02*
X3690476Y-58140045D01*
X3690476Y-58140045D02*
X3652380Y-58216236D01*
X3652380Y-58216236D02*
X3652380Y-58406712D01*
X3652380Y-58406712D02*
X3690476Y-58482902D01*
X3690476Y-58482902D02*
X3728571Y-58520998D01*
X3728571Y-58520998D02*
X3804761Y-58559093D01*
X3804761Y-58559093D02*
X3957142Y-58559093D01*
X3957142Y-58559093D02*
X4033333Y-58520998D01*
X4033333Y-58520998D02*
X4071428Y-58482902D01*
X4071428Y-58482902D02*
X4109523Y-58406712D01*
X4142856Y-63230521D02*
X4142856Y-64030521D01*
X4142856Y-63268617D02*
X4219046Y-63230521D01*
X4219046Y-63230521D02*
X4371427Y-63230521D01*
X4371427Y-63230521D02*
X4447618Y-63268617D01*
X4447618Y-63268617D02*
X4485713Y-63306712D01*
X4485713Y-63306712D02*
X4523808Y-63382902D01*
X4523808Y-63382902D02*
X4523808Y-63611474D01*
X4523808Y-63611474D02*
X4485713Y-63687664D01*
X4485713Y-63687664D02*
X4447618Y-63725760D01*
X4447618Y-63725760D02*
X4371427Y-63763855D01*
X4371427Y-63763855D02*
X4219046Y-63763855D01*
X4219046Y-63763855D02*
X4142856Y-63725760D01*
X4866666Y-63763855D02*
X4866666Y-63230521D01*
X4866666Y-62963855D02*
X4828570Y-63001950D01*
X4828570Y-63001950D02*
X4866666Y-63040045D01*
X4866666Y-63040045D02*
X4904761Y-63001950D01*
X4904761Y-63001950D02*
X4866666Y-62963855D01*
X4866666Y-62963855D02*
X4866666Y-63040045D01*
X5171427Y-63230521D02*
X5361903Y-63763855D01*
X5361903Y-63763855D02*
X5552380Y-63230521D01*
X6199999Y-63763855D02*
X6199999Y-63344807D01*
X6199999Y-63344807D02*
X6161904Y-63268617D01*
X6161904Y-63268617D02*
X6085713Y-63230521D01*
X6085713Y-63230521D02*
X5933332Y-63230521D01*
X5933332Y-63230521D02*
X5857142Y-63268617D01*
X6199999Y-63725760D02*
X6123808Y-63763855D01*
X6123808Y-63763855D02*
X5933332Y-63763855D01*
X5933332Y-63763855D02*
X5857142Y-63725760D01*
X5857142Y-63725760D02*
X5819046Y-63649569D01*
X5819046Y-63649569D02*
X5819046Y-63573379D01*
X5819046Y-63573379D02*
X5857142Y-63497188D01*
X5857142Y-63497188D02*
X5933332Y-63459093D01*
X5933332Y-63459093D02*
X6123808Y-63459093D01*
X6123808Y-63459093D02*
X6199999Y-63420998D01*
X6923809Y-63725760D02*
X6847618Y-63763855D01*
X6847618Y-63763855D02*
X6695237Y-63763855D01*
X6695237Y-63763855D02*
X6619047Y-63725760D01*
X6619047Y-63725760D02*
X6580952Y-63687664D01*
X6580952Y-63687664D02*
X6542856Y-63611474D01*
X6542856Y-63611474D02*
X6542856Y-63382902D01*
X6542856Y-63382902D02*
X6580952Y-63306712D01*
X6580952Y-63306712D02*
X6619047Y-63268617D01*
X6619047Y-63268617D02*
X6695237Y-63230521D01*
X6695237Y-63230521D02*
X6847618Y-63230521D01*
X6847618Y-63230521D02*
X6923809Y-63268617D01*
X7876190Y-63763855D02*
X7876190Y-62963855D01*
X8257142Y-63763855D02*
X8257142Y-62963855D01*
X8257142Y-62963855D02*
X8714285Y-63763855D01*
X8714285Y-63763855D02*
X8714285Y-62963855D01*
X8980951Y-62963855D02*
X9438094Y-62963855D01*
X9209522Y-63763855D02*
X9209522Y-62963855D01*
X10314285Y-63763855D02*
X10314285Y-63230521D01*
X10314285Y-63382902D02*
X10352380Y-63306712D01*
X10352380Y-63306712D02*
X10390475Y-63268617D01*
X10390475Y-63268617D02*
X10466666Y-63230521D01*
X10466666Y-63230521D02*
X10542856Y-63230521D01*
X11114285Y-63725760D02*
X11038094Y-63763855D01*
X11038094Y-63763855D02*
X10885713Y-63763855D01*
X10885713Y-63763855D02*
X10809523Y-63725760D01*
X10809523Y-63725760D02*
X10771427Y-63649569D01*
X10771427Y-63649569D02*
X10771427Y-63344807D01*
X10771427Y-63344807D02*
X10809523Y-63268617D01*
X10809523Y-63268617D02*
X10885713Y-63230521D01*
X10885713Y-63230521D02*
X11038094Y-63230521D01*
X11038094Y-63230521D02*
X11114285Y-63268617D01*
X11114285Y-63268617D02*
X11152380Y-63344807D01*
X11152380Y-63344807D02*
X11152380Y-63420998D01*
X11152380Y-63420998D02*
X10771427Y-63497188D01*
X11419046Y-63230521D02*
X11609522Y-63763855D01*
X11609522Y-63763855D02*
X11799999Y-63230521D01*
X12676189Y-63535283D02*
X13057142Y-63535283D01*
X12599999Y-63763855D02*
X12866666Y-62963855D01*
X12866666Y-62963855D02*
X13133332Y-63763855D01*
X14009523Y-63459093D02*
X14619047Y-63459093D01*
X14999999Y-63459093D02*
X15609523Y-63459093D01*
X16561903Y-63040045D02*
X16599999Y-63001950D01*
X16599999Y-63001950D02*
X16676189Y-62963855D01*
X16676189Y-62963855D02*
X16866665Y-62963855D01*
X16866665Y-62963855D02*
X16942856Y-63001950D01*
X16942856Y-63001950D02*
X16980951Y-63040045D01*
X16980951Y-63040045D02*
X17019046Y-63116236D01*
X17019046Y-63116236D02*
X17019046Y-63192426D01*
X17019046Y-63192426D02*
X16980951Y-63306712D01*
X16980951Y-63306712D02*
X16523808Y-63763855D01*
X16523808Y-63763855D02*
X17019046Y-63763855D01*
X17704761Y-63230521D02*
X17704761Y-63763855D01*
X17514285Y-62925760D02*
X17323808Y-63497188D01*
X17323808Y-63497188D02*
X17819047Y-63497188D01*
X18619047Y-62963855D02*
X18885714Y-63763855D01*
X18885714Y-63763855D02*
X19152380Y-62963855D01*
X19380951Y-63535283D02*
X19761904Y-63535283D01*
X19304761Y-63763855D02*
X19571428Y-62963855D01*
X19571428Y-62963855D02*
X19838094Y-63763855D01*
X20561904Y-63687664D02*
X20523808Y-63725760D01*
X20523808Y-63725760D02*
X20409523Y-63763855D01*
X20409523Y-63763855D02*
X20333332Y-63763855D01*
X20333332Y-63763855D02*
X20219046Y-63725760D01*
X20219046Y-63725760D02*
X20142856Y-63649569D01*
X20142856Y-63649569D02*
X20104761Y-63573379D01*
X20104761Y-63573379D02*
X20066665Y-63420998D01*
X20066665Y-63420998D02*
X20066665Y-63306712D01*
X20066665Y-63306712D02*
X20104761Y-63154331D01*
X20104761Y-63154331D02*
X20142856Y-63078140D01*
X20142856Y-63078140D02*
X20219046Y-63001950D01*
X20219046Y-63001950D02*
X20333332Y-62963855D01*
X20333332Y-62963855D02*
X20409523Y-62963855D01*
X20409523Y-62963855D02*
X20523808Y-63001950D01*
X20523808Y-63001950D02*
X20561904Y-63040045D01*
X21514285Y-63763855D02*
X21514285Y-63230521D01*
X21514285Y-62963855D02*
X21476189Y-63001950D01*
X21476189Y-63001950D02*
X21514285Y-63040045D01*
X21514285Y-63040045D02*
X21552380Y-63001950D01*
X21552380Y-63001950D02*
X21514285Y-62963855D01*
X21514285Y-62963855D02*
X21514285Y-63040045D01*
X21895237Y-63230521D02*
X21895237Y-63763855D01*
X21895237Y-63306712D02*
X21933332Y-63268617D01*
X21933332Y-63268617D02*
X22009522Y-63230521D01*
X22009522Y-63230521D02*
X22123808Y-63230521D01*
X22123808Y-63230521D02*
X22199999Y-63268617D01*
X22199999Y-63268617D02*
X22238094Y-63344807D01*
X22238094Y-63344807D02*
X22238094Y-63763855D01*
X23342856Y-63763855D02*
X23266666Y-63725760D01*
X23266666Y-63725760D02*
X23228571Y-63687664D01*
X23228571Y-63687664D02*
X23190475Y-63611474D01*
X23190475Y-63611474D02*
X23190475Y-63382902D01*
X23190475Y-63382902D02*
X23228571Y-63306712D01*
X23228571Y-63306712D02*
X23266666Y-63268617D01*
X23266666Y-63268617D02*
X23342856Y-63230521D01*
X23342856Y-63230521D02*
X23457142Y-63230521D01*
X23457142Y-63230521D02*
X23533333Y-63268617D01*
X23533333Y-63268617D02*
X23571428Y-63306712D01*
X23571428Y-63306712D02*
X23609523Y-63382902D01*
X23609523Y-63382902D02*
X23609523Y-63611474D01*
X23609523Y-63611474D02*
X23571428Y-63687664D01*
X23571428Y-63687664D02*
X23533333Y-63725760D01*
X23533333Y-63725760D02*
X23457142Y-63763855D01*
X23457142Y-63763855D02*
X23342856Y-63763855D01*
X23952381Y-63230521D02*
X23952381Y-63763855D01*
X23952381Y-63306712D02*
X23990476Y-63268617D01*
X23990476Y-63268617D02*
X24066666Y-63230521D01*
X24066666Y-63230521D02*
X24180952Y-63230521D01*
X24180952Y-63230521D02*
X24257143Y-63268617D01*
X24257143Y-63268617D02*
X24295238Y-63344807D01*
X24295238Y-63344807D02*
X24295238Y-63763855D01*
X25514286Y-62963855D02*
X25514286Y-63535283D01*
X25514286Y-63535283D02*
X25476191Y-63649569D01*
X25476191Y-63649569D02*
X25400000Y-63725760D01*
X25400000Y-63725760D02*
X25285715Y-63763855D01*
X25285715Y-63763855D02*
X25209524Y-63763855D01*
X26238096Y-63230521D02*
X26238096Y-63763855D01*
X26047620Y-62925760D02*
X25857143Y-63497188D01*
X25857143Y-63497188D02*
X26352382Y-63497188D01*
X26657144Y-63687664D02*
X26695239Y-63725760D01*
X26695239Y-63725760D02*
X26657144Y-63763855D01*
X26657144Y-63763855D02*
X26619048Y-63725760D01*
X26619048Y-63725760D02*
X26657144Y-63687664D01*
X26657144Y-63687664D02*
X26657144Y-63763855D01*
X27457143Y-63763855D02*
X27000000Y-63763855D01*
X27228572Y-63763855D02*
X27228572Y-62963855D01*
X27228572Y-62963855D02*
X27152381Y-63078140D01*
X27152381Y-63078140D02*
X27076191Y-63154331D01*
X27076191Y-63154331D02*
X27000000Y-63192426D01*
X28371429Y-62925760D02*
X27685715Y-63954331D01*
X28866667Y-62963855D02*
X28866667Y-63535283D01*
X28866667Y-63535283D02*
X28828572Y-63649569D01*
X28828572Y-63649569D02*
X28752381Y-63725760D01*
X28752381Y-63725760D02*
X28638096Y-63763855D01*
X28638096Y-63763855D02*
X28561905Y-63763855D01*
X29590477Y-63230521D02*
X29590477Y-63763855D01*
X29400001Y-62925760D02*
X29209524Y-63497188D01*
X29209524Y-63497188D02*
X29704763Y-63497188D01*
X30009525Y-63687664D02*
X30047620Y-63725760D01*
X30047620Y-63725760D02*
X30009525Y-63763855D01*
X30009525Y-63763855D02*
X29971429Y-63725760D01*
X29971429Y-63725760D02*
X30009525Y-63687664D01*
X30009525Y-63687664D02*
X30009525Y-63763855D01*
X30352381Y-63040045D02*
X30390477Y-63001950D01*
X30390477Y-63001950D02*
X30466667Y-62963855D01*
X30466667Y-62963855D02*
X30657143Y-62963855D01*
X30657143Y-62963855D02*
X30733334Y-63001950D01*
X30733334Y-63001950D02*
X30771429Y-63040045D01*
X30771429Y-63040045D02*
X30809524Y-63116236D01*
X30809524Y-63116236D02*
X30809524Y-63192426D01*
X30809524Y-63192426D02*
X30771429Y-63306712D01*
X30771429Y-63306712D02*
X30314286Y-63763855D01*
X30314286Y-63763855D02*
X30809524Y-63763855D01*
X31761906Y-63459093D02*
X32371430Y-63459093D01*
X32752382Y-63459093D02*
X33361906Y-63459093D01*
X34809525Y-63687664D02*
X34771429Y-63725760D01*
X34771429Y-63725760D02*
X34657144Y-63763855D01*
X34657144Y-63763855D02*
X34580953Y-63763855D01*
X34580953Y-63763855D02*
X34466667Y-63725760D01*
X34466667Y-63725760D02*
X34390477Y-63649569D01*
X34390477Y-63649569D02*
X34352382Y-63573379D01*
X34352382Y-63573379D02*
X34314286Y-63420998D01*
X34314286Y-63420998D02*
X34314286Y-63306712D01*
X34314286Y-63306712D02*
X34352382Y-63154331D01*
X34352382Y-63154331D02*
X34390477Y-63078140D01*
X34390477Y-63078140D02*
X34466667Y-63001950D01*
X34466667Y-63001950D02*
X34580953Y-62963855D01*
X34580953Y-62963855D02*
X34657144Y-62963855D01*
X34657144Y-62963855D02*
X34771429Y-63001950D01*
X34771429Y-63001950D02*
X34809525Y-63040045D01*
X35304763Y-62963855D02*
X35457144Y-62963855D01*
X35457144Y-62963855D02*
X35533334Y-63001950D01*
X35533334Y-63001950D02*
X35609525Y-63078140D01*
X35609525Y-63078140D02*
X35647620Y-63230521D01*
X35647620Y-63230521D02*
X35647620Y-63497188D01*
X35647620Y-63497188D02*
X35609525Y-63649569D01*
X35609525Y-63649569D02*
X35533334Y-63725760D01*
X35533334Y-63725760D02*
X35457144Y-63763855D01*
X35457144Y-63763855D02*
X35304763Y-63763855D01*
X35304763Y-63763855D02*
X35228572Y-63725760D01*
X35228572Y-63725760D02*
X35152382Y-63649569D01*
X35152382Y-63649569D02*
X35114286Y-63497188D01*
X35114286Y-63497188D02*
X35114286Y-63230521D01*
X35114286Y-63230521D02*
X35152382Y-63078140D01*
X35152382Y-63078140D02*
X35228572Y-63001950D01*
X35228572Y-63001950D02*
X35304763Y-62963855D01*
X35990477Y-63763855D02*
X35990477Y-62963855D01*
X35990477Y-62963855D02*
X36257143Y-63535283D01*
X36257143Y-63535283D02*
X36523810Y-62963855D01*
X36523810Y-62963855D02*
X36523810Y-63763855D01*
X37514287Y-63763855D02*
X37514287Y-63230521D01*
X37514287Y-62963855D02*
X37476191Y-63001950D01*
X37476191Y-63001950D02*
X37514287Y-63040045D01*
X37514287Y-63040045D02*
X37552382Y-63001950D01*
X37552382Y-63001950D02*
X37514287Y-62963855D01*
X37514287Y-62963855D02*
X37514287Y-63040045D01*
X37857143Y-63725760D02*
X37933334Y-63763855D01*
X37933334Y-63763855D02*
X38085715Y-63763855D01*
X38085715Y-63763855D02*
X38161905Y-63725760D01*
X38161905Y-63725760D02*
X38200001Y-63649569D01*
X38200001Y-63649569D02*
X38200001Y-63611474D01*
X38200001Y-63611474D02*
X38161905Y-63535283D01*
X38161905Y-63535283D02*
X38085715Y-63497188D01*
X38085715Y-63497188D02*
X37971429Y-63497188D01*
X37971429Y-63497188D02*
X37895239Y-63459093D01*
X37895239Y-63459093D02*
X37857143Y-63382902D01*
X37857143Y-63382902D02*
X37857143Y-63344807D01*
X37857143Y-63344807D02*
X37895239Y-63268617D01*
X37895239Y-63268617D02*
X37971429Y-63230521D01*
X37971429Y-63230521D02*
X38085715Y-63230521D01*
X38085715Y-63230521D02*
X38161905Y-63268617D01*
X39038096Y-63230521D02*
X39342858Y-63230521D01*
X39152382Y-62963855D02*
X39152382Y-63649569D01*
X39152382Y-63649569D02*
X39190477Y-63725760D01*
X39190477Y-63725760D02*
X39266667Y-63763855D01*
X39266667Y-63763855D02*
X39342858Y-63763855D01*
X39609525Y-63763855D02*
X39609525Y-62963855D01*
X39952382Y-63763855D02*
X39952382Y-63344807D01*
X39952382Y-63344807D02*
X39914287Y-63268617D01*
X39914287Y-63268617D02*
X39838096Y-63230521D01*
X39838096Y-63230521D02*
X39723810Y-63230521D01*
X39723810Y-63230521D02*
X39647620Y-63268617D01*
X39647620Y-63268617D02*
X39609525Y-63306712D01*
X40638097Y-63725760D02*
X40561906Y-63763855D01*
X40561906Y-63763855D02*
X40409525Y-63763855D01*
X40409525Y-63763855D02*
X40333335Y-63725760D01*
X40333335Y-63725760D02*
X40295239Y-63649569D01*
X40295239Y-63649569D02*
X40295239Y-63344807D01*
X40295239Y-63344807D02*
X40333335Y-63268617D01*
X40333335Y-63268617D02*
X40409525Y-63230521D01*
X40409525Y-63230521D02*
X40561906Y-63230521D01*
X40561906Y-63230521D02*
X40638097Y-63268617D01*
X40638097Y-63268617D02*
X40676192Y-63344807D01*
X40676192Y-63344807D02*
X40676192Y-63420998D01*
X40676192Y-63420998D02*
X40295239Y-63497188D01*
X41590477Y-63725760D02*
X41666668Y-63763855D01*
X41666668Y-63763855D02*
X41819049Y-63763855D01*
X41819049Y-63763855D02*
X41895239Y-63725760D01*
X41895239Y-63725760D02*
X41933335Y-63649569D01*
X41933335Y-63649569D02*
X41933335Y-63611474D01*
X41933335Y-63611474D02*
X41895239Y-63535283D01*
X41895239Y-63535283D02*
X41819049Y-63497188D01*
X41819049Y-63497188D02*
X41704763Y-63497188D01*
X41704763Y-63497188D02*
X41628573Y-63459093D01*
X41628573Y-63459093D02*
X41590477Y-63382902D01*
X41590477Y-63382902D02*
X41590477Y-63344807D01*
X41590477Y-63344807D02*
X41628573Y-63268617D01*
X41628573Y-63268617D02*
X41704763Y-63230521D01*
X41704763Y-63230521D02*
X41819049Y-63230521D01*
X41819049Y-63230521D02*
X41895239Y-63268617D01*
X42580954Y-63725760D02*
X42504763Y-63763855D01*
X42504763Y-63763855D02*
X42352382Y-63763855D01*
X42352382Y-63763855D02*
X42276192Y-63725760D01*
X42276192Y-63725760D02*
X42238096Y-63649569D01*
X42238096Y-63649569D02*
X42238096Y-63344807D01*
X42238096Y-63344807D02*
X42276192Y-63268617D01*
X42276192Y-63268617D02*
X42352382Y-63230521D01*
X42352382Y-63230521D02*
X42504763Y-63230521D01*
X42504763Y-63230521D02*
X42580954Y-63268617D01*
X42580954Y-63268617D02*
X42619049Y-63344807D01*
X42619049Y-63344807D02*
X42619049Y-63420998D01*
X42619049Y-63420998D02*
X42238096Y-63497188D01*
X42961906Y-63230521D02*
X42961906Y-63763855D01*
X42961906Y-63306712D02*
X43000001Y-63268617D01*
X43000001Y-63268617D02*
X43076191Y-63230521D01*
X43076191Y-63230521D02*
X43190477Y-63230521D01*
X43190477Y-63230521D02*
X43266668Y-63268617D01*
X43266668Y-63268617D02*
X43304763Y-63344807D01*
X43304763Y-63344807D02*
X43304763Y-63763855D01*
X43647620Y-63725760D02*
X43723811Y-63763855D01*
X43723811Y-63763855D02*
X43876192Y-63763855D01*
X43876192Y-63763855D02*
X43952382Y-63725760D01*
X43952382Y-63725760D02*
X43990478Y-63649569D01*
X43990478Y-63649569D02*
X43990478Y-63611474D01*
X43990478Y-63611474D02*
X43952382Y-63535283D01*
X43952382Y-63535283D02*
X43876192Y-63497188D01*
X43876192Y-63497188D02*
X43761906Y-63497188D01*
X43761906Y-63497188D02*
X43685716Y-63459093D01*
X43685716Y-63459093D02*
X43647620Y-63382902D01*
X43647620Y-63382902D02*
X43647620Y-63344807D01*
X43647620Y-63344807D02*
X43685716Y-63268617D01*
X43685716Y-63268617D02*
X43761906Y-63230521D01*
X43761906Y-63230521D02*
X43876192Y-63230521D01*
X43876192Y-63230521D02*
X43952382Y-63268617D01*
X44638097Y-63725760D02*
X44561906Y-63763855D01*
X44561906Y-63763855D02*
X44409525Y-63763855D01*
X44409525Y-63763855D02*
X44333335Y-63725760D01*
X44333335Y-63725760D02*
X44295239Y-63649569D01*
X44295239Y-63649569D02*
X44295239Y-63344807D01*
X44295239Y-63344807D02*
X44333335Y-63268617D01*
X44333335Y-63268617D02*
X44409525Y-63230521D01*
X44409525Y-63230521D02*
X44561906Y-63230521D01*
X44561906Y-63230521D02*
X44638097Y-63268617D01*
X44638097Y-63268617D02*
X44676192Y-63344807D01*
X44676192Y-63344807D02*
X44676192Y-63420998D01*
X44676192Y-63420998D02*
X44295239Y-63497188D01*
X45628573Y-63763855D02*
X45628573Y-63230521D01*
X45628573Y-63382902D02*
X45666668Y-63306712D01*
X45666668Y-63306712D02*
X45704763Y-63268617D01*
X45704763Y-63268617D02*
X45780954Y-63230521D01*
X45780954Y-63230521D02*
X45857144Y-63230521D01*
X46428573Y-63725760D02*
X46352382Y-63763855D01*
X46352382Y-63763855D02*
X46200001Y-63763855D01*
X46200001Y-63763855D02*
X46123811Y-63725760D01*
X46123811Y-63725760D02*
X46085715Y-63649569D01*
X46085715Y-63649569D02*
X46085715Y-63344807D01*
X46085715Y-63344807D02*
X46123811Y-63268617D01*
X46123811Y-63268617D02*
X46200001Y-63230521D01*
X46200001Y-63230521D02*
X46352382Y-63230521D01*
X46352382Y-63230521D02*
X46428573Y-63268617D01*
X46428573Y-63268617D02*
X46466668Y-63344807D01*
X46466668Y-63344807D02*
X46466668Y-63420998D01*
X46466668Y-63420998D02*
X46085715Y-63497188D01*
X46695239Y-63230521D02*
X47000001Y-63230521D01*
X46809525Y-62963855D02*
X46809525Y-63649569D01*
X46809525Y-63649569D02*
X46847620Y-63725760D01*
X46847620Y-63725760D02*
X46923810Y-63763855D01*
X46923810Y-63763855D02*
X47000001Y-63763855D01*
X47609525Y-63230521D02*
X47609525Y-63763855D01*
X47266668Y-63230521D02*
X47266668Y-63649569D01*
X47266668Y-63649569D02*
X47304763Y-63725760D01*
X47304763Y-63725760D02*
X47380953Y-63763855D01*
X47380953Y-63763855D02*
X47495239Y-63763855D01*
X47495239Y-63763855D02*
X47571430Y-63725760D01*
X47571430Y-63725760D02*
X47609525Y-63687664D01*
X47990478Y-63763855D02*
X47990478Y-63230521D01*
X47990478Y-63382902D02*
X48028573Y-63306712D01*
X48028573Y-63306712D02*
X48066668Y-63268617D01*
X48066668Y-63268617D02*
X48142859Y-63230521D01*
X48142859Y-63230521D02*
X48219049Y-63230521D01*
X48485716Y-63230521D02*
X48485716Y-63763855D01*
X48485716Y-63306712D02*
X48523811Y-63268617D01*
X48523811Y-63268617D02*
X48600001Y-63230521D01*
X48600001Y-63230521D02*
X48714287Y-63230521D01*
X48714287Y-63230521D02*
X48790478Y-63268617D01*
X48790478Y-63268617D02*
X48828573Y-63344807D01*
X48828573Y-63344807D02*
X48828573Y-63763855D01*
X49247621Y-63725760D02*
X49247621Y-63763855D01*
X49247621Y-63763855D02*
X49209526Y-63840045D01*
X49209526Y-63840045D02*
X49171430Y-63878140D01*
X50200002Y-63230521D02*
X50200002Y-63763855D01*
X50200002Y-63306712D02*
X50238097Y-63268617D01*
X50238097Y-63268617D02*
X50314287Y-63230521D01*
X50314287Y-63230521D02*
X50428573Y-63230521D01*
X50428573Y-63230521D02*
X50504764Y-63268617D01*
X50504764Y-63268617D02*
X50542859Y-63344807D01*
X50542859Y-63344807D02*
X50542859Y-63763855D01*
X51228574Y-63725760D02*
X51152383Y-63763855D01*
X51152383Y-63763855D02*
X51000002Y-63763855D01*
X51000002Y-63763855D02*
X50923812Y-63725760D01*
X50923812Y-63725760D02*
X50885716Y-63649569D01*
X50885716Y-63649569D02*
X50885716Y-63344807D01*
X50885716Y-63344807D02*
X50923812Y-63268617D01*
X50923812Y-63268617D02*
X51000002Y-63230521D01*
X51000002Y-63230521D02*
X51152383Y-63230521D01*
X51152383Y-63230521D02*
X51228574Y-63268617D01*
X51228574Y-63268617D02*
X51266669Y-63344807D01*
X51266669Y-63344807D02*
X51266669Y-63420998D01*
X51266669Y-63420998D02*
X50885716Y-63497188D01*
X51533335Y-63230521D02*
X51723811Y-63763855D01*
X51723811Y-63763855D02*
X51914288Y-63230521D01*
X52523812Y-63725760D02*
X52447621Y-63763855D01*
X52447621Y-63763855D02*
X52295240Y-63763855D01*
X52295240Y-63763855D02*
X52219050Y-63725760D01*
X52219050Y-63725760D02*
X52180954Y-63649569D01*
X52180954Y-63649569D02*
X52180954Y-63344807D01*
X52180954Y-63344807D02*
X52219050Y-63268617D01*
X52219050Y-63268617D02*
X52295240Y-63230521D01*
X52295240Y-63230521D02*
X52447621Y-63230521D01*
X52447621Y-63230521D02*
X52523812Y-63268617D01*
X52523812Y-63268617D02*
X52561907Y-63344807D01*
X52561907Y-63344807D02*
X52561907Y-63420998D01*
X52561907Y-63420998D02*
X52180954Y-63497188D01*
X52904764Y-63763855D02*
X52904764Y-63230521D01*
X52904764Y-63382902D02*
X52942859Y-63306712D01*
X52942859Y-63306712D02*
X52980954Y-63268617D01*
X52980954Y-63268617D02*
X53057145Y-63230521D01*
X53057145Y-63230521D02*
X53133335Y-63230521D01*
X54009526Y-63763855D02*
X54009526Y-62963855D01*
X54009526Y-62963855D02*
X54314288Y-62963855D01*
X54314288Y-62963855D02*
X54390478Y-63001950D01*
X54390478Y-63001950D02*
X54428573Y-63040045D01*
X54428573Y-63040045D02*
X54466669Y-63116236D01*
X54466669Y-63116236D02*
X54466669Y-63230521D01*
X54466669Y-63230521D02*
X54428573Y-63306712D01*
X54428573Y-63306712D02*
X54390478Y-63344807D01*
X54390478Y-63344807D02*
X54314288Y-63382902D01*
X54314288Y-63382902D02*
X54009526Y-63382902D01*
X54809526Y-63763855D02*
X54809526Y-63230521D01*
X54809526Y-62963855D02*
X54771430Y-63001950D01*
X54771430Y-63001950D02*
X54809526Y-63040045D01*
X54809526Y-63040045D02*
X54847621Y-63001950D01*
X54847621Y-63001950D02*
X54809526Y-62963855D01*
X54809526Y-62963855D02*
X54809526Y-63040045D01*
X56219049Y-63001950D02*
X56142859Y-62963855D01*
X56142859Y-62963855D02*
X56028573Y-62963855D01*
X56028573Y-62963855D02*
X55914287Y-63001950D01*
X55914287Y-63001950D02*
X55838097Y-63078140D01*
X55838097Y-63078140D02*
X55800002Y-63154331D01*
X55800002Y-63154331D02*
X55761906Y-63306712D01*
X55761906Y-63306712D02*
X55761906Y-63420998D01*
X55761906Y-63420998D02*
X55800002Y-63573379D01*
X55800002Y-63573379D02*
X55838097Y-63649569D01*
X55838097Y-63649569D02*
X55914287Y-63725760D01*
X55914287Y-63725760D02*
X56028573Y-63763855D01*
X56028573Y-63763855D02*
X56104764Y-63763855D01*
X56104764Y-63763855D02*
X56219049Y-63725760D01*
X56219049Y-63725760D02*
X56257145Y-63687664D01*
X56257145Y-63687664D02*
X56257145Y-63420998D01*
X56257145Y-63420998D02*
X56104764Y-63420998D01*
X56600002Y-63763855D02*
X56600002Y-62963855D01*
X56600002Y-62963855D02*
X57057145Y-63763855D01*
X57057145Y-63763855D02*
X57057145Y-62963855D01*
X57438097Y-63763855D02*
X57438097Y-62963855D01*
X57438097Y-62963855D02*
X57628573Y-62963855D01*
X57628573Y-62963855D02*
X57742859Y-63001950D01*
X57742859Y-63001950D02*
X57819049Y-63078140D01*
X57819049Y-63078140D02*
X57857144Y-63154331D01*
X57857144Y-63154331D02*
X57895240Y-63306712D01*
X57895240Y-63306712D02*
X57895240Y-63420998D01*
X57895240Y-63420998D02*
X57857144Y-63573379D01*
X57857144Y-63573379D02*
X57819049Y-63649569D01*
X57819049Y-63649569D02*
X57742859Y-63725760D01*
X57742859Y-63725760D02*
X57628573Y-63763855D01*
X57628573Y-63763855D02*
X57438097Y-63763855D01*
X7963855Y-61423808D02*
X7163855Y-61423808D01*
X7163855Y-61423808D02*
X7163855Y-61119046D01*
X7163855Y-61119046D02*
X7201950Y-61042856D01*
X7201950Y-61042856D02*
X7240045Y-61004761D01*
X7240045Y-61004761D02*
X7316236Y-60966665D01*
X7316236Y-60966665D02*
X7430521Y-60966665D01*
X7430521Y-60966665D02*
X7506712Y-61004761D01*
X7506712Y-61004761D02*
X7544807Y-61042856D01*
X7544807Y-61042856D02*
X7582902Y-61119046D01*
X7582902Y-61119046D02*
X7582902Y-61423808D01*
X7963855Y-60623808D02*
X7430521Y-60623808D01*
X7163855Y-60623808D02*
X7201950Y-60661904D01*
X7201950Y-60661904D02*
X7240045Y-60623808D01*
X7240045Y-60623808D02*
X7201950Y-60585713D01*
X7201950Y-60585713D02*
X7163855Y-60623808D01*
X7163855Y-60623808D02*
X7240045Y-60623808D01*
X7201950Y-59214285D02*
X7163855Y-59290475D01*
X7163855Y-59290475D02*
X7163855Y-59404761D01*
X7163855Y-59404761D02*
X7201950Y-59519047D01*
X7201950Y-59519047D02*
X7278140Y-59595237D01*
X7278140Y-59595237D02*
X7354331Y-59633332D01*
X7354331Y-59633332D02*
X7506712Y-59671428D01*
X7506712Y-59671428D02*
X7620998Y-59671428D01*
X7620998Y-59671428D02*
X7773379Y-59633332D01*
X7773379Y-59633332D02*
X7849569Y-59595237D01*
X7849569Y-59595237D02*
X7925760Y-59519047D01*
X7925760Y-59519047D02*
X7963855Y-59404761D01*
X7963855Y-59404761D02*
X7963855Y-59328570D01*
X7963855Y-59328570D02*
X7925760Y-59214285D01*
X7925760Y-59214285D02*
X7887664Y-59176189D01*
X7887664Y-59176189D02*
X7620998Y-59176189D01*
X7620998Y-59176189D02*
X7620998Y-59328570D01*
X7963855Y-58833332D02*
X7163855Y-58833332D01*
X7163855Y-58833332D02*
X7963855Y-58376189D01*
X7963855Y-58376189D02*
X7163855Y-58376189D01*
X7963855Y-57995237D02*
X7163855Y-57995237D01*
X7163855Y-57995237D02*
X7163855Y-57804761D01*
X7163855Y-57804761D02*
X7201950Y-57690475D01*
X7201950Y-57690475D02*
X7278140Y-57614285D01*
X7278140Y-57614285D02*
X7354331Y-57576190D01*
X7354331Y-57576190D02*
X7506712Y-57538094D01*
X7506712Y-57538094D02*
X7620998Y-57538094D01*
X7620998Y-57538094D02*
X7773379Y-57576190D01*
X7773379Y-57576190D02*
X7849569Y-57614285D01*
X7849569Y-57614285D02*
X7925760Y-57690475D01*
X7925760Y-57690475D02*
X7963855Y-57804761D01*
X7963855Y-57804761D02*
X7963855Y-57995237D01*
X8985760Y-14402381D02*
X9023855Y-14288095D01*
X9023855Y-14288095D02*
X9023855Y-14097619D01*
X9023855Y-14097619D02*
X8985760Y-14021428D01*
X8985760Y-14021428D02*
X8947664Y-13983333D01*
X8947664Y-13983333D02*
X8871474Y-13945238D01*
X8871474Y-13945238D02*
X8795283Y-13945238D01*
X8795283Y-13945238D02*
X8719093Y-13983333D01*
X8719093Y-13983333D02*
X8680998Y-14021428D01*
X8680998Y-14021428D02*
X8642902Y-14097619D01*
X8642902Y-14097619D02*
X8604807Y-14250000D01*
X8604807Y-14250000D02*
X8566712Y-14326190D01*
X8566712Y-14326190D02*
X8528617Y-14364285D01*
X8528617Y-14364285D02*
X8452426Y-14402381D01*
X8452426Y-14402381D02*
X8376236Y-14402381D01*
X8376236Y-14402381D02*
X8300045Y-14364285D01*
X8300045Y-14364285D02*
X8261950Y-14326190D01*
X8261950Y-14326190D02*
X8223855Y-14250000D01*
X8223855Y-14250000D02*
X8223855Y-14059523D01*
X8223855Y-14059523D02*
X8261950Y-13945238D01*
X8947664Y-13145237D02*
X8985760Y-13183333D01*
X8985760Y-13183333D02*
X9023855Y-13297618D01*
X9023855Y-13297618D02*
X9023855Y-13373809D01*
X9023855Y-13373809D02*
X8985760Y-13488095D01*
X8985760Y-13488095D02*
X8909569Y-13564285D01*
X8909569Y-13564285D02*
X8833379Y-13602380D01*
X8833379Y-13602380D02*
X8680998Y-13640476D01*
X8680998Y-13640476D02*
X8566712Y-13640476D01*
X8566712Y-13640476D02*
X8414331Y-13602380D01*
X8414331Y-13602380D02*
X8338140Y-13564285D01*
X8338140Y-13564285D02*
X8261950Y-13488095D01*
X8261950Y-13488095D02*
X8223855Y-13373809D01*
X8223855Y-13373809D02*
X8223855Y-13297618D01*
X8223855Y-13297618D02*
X8261950Y-13183333D01*
X8261950Y-13183333D02*
X8300045Y-13145237D01*
X9023855Y-12421428D02*
X9023855Y-12802380D01*
X9023855Y-12802380D02*
X8223855Y-12802380D01*
X8261950Y-16161427D02*
X8223855Y-16237617D01*
X8223855Y-16237617D02*
X8223855Y-16351903D01*
X8223855Y-16351903D02*
X8261950Y-16466189D01*
X8261950Y-16466189D02*
X8338140Y-16542379D01*
X8338140Y-16542379D02*
X8414331Y-16580474D01*
X8414331Y-16580474D02*
X8566712Y-16618570D01*
X8566712Y-16618570D02*
X8680998Y-16618570D01*
X8680998Y-16618570D02*
X8833379Y-16580474D01*
X8833379Y-16580474D02*
X8909569Y-16542379D01*
X8909569Y-16542379D02*
X8985760Y-16466189D01*
X8985760Y-16466189D02*
X9023855Y-16351903D01*
X9023855Y-16351903D02*
X9023855Y-16275712D01*
X9023855Y-16275712D02*
X8985760Y-16161427D01*
X8985760Y-16161427D02*
X8947664Y-16123331D01*
X8947664Y-16123331D02*
X8680998Y-16123331D01*
X8680998Y-16123331D02*
X8680998Y-16275712D01*
X8490521Y-15437617D02*
X9023855Y-15437617D01*
X8185760Y-15628093D02*
X8757188Y-15818570D01*
X8757188Y-15818570D02*
X8757188Y-15323331D01*
X8261950Y-19139523D02*
X8223855Y-19215713D01*
X8223855Y-19215713D02*
X8223855Y-19329999D01*
X8223855Y-19329999D02*
X8261950Y-19444285D01*
X8261950Y-19444285D02*
X8338140Y-19520475D01*
X8338140Y-19520475D02*
X8414331Y-19558570D01*
X8414331Y-19558570D02*
X8566712Y-19596666D01*
X8566712Y-19596666D02*
X8680998Y-19596666D01*
X8680998Y-19596666D02*
X8833379Y-19558570D01*
X8833379Y-19558570D02*
X8909569Y-19520475D01*
X8909569Y-19520475D02*
X8985760Y-19444285D01*
X8985760Y-19444285D02*
X9023855Y-19329999D01*
X9023855Y-19329999D02*
X9023855Y-19253808D01*
X9023855Y-19253808D02*
X8985760Y-19139523D01*
X8985760Y-19139523D02*
X8947664Y-19101427D01*
X8947664Y-19101427D02*
X8680998Y-19101427D01*
X8680998Y-19101427D02*
X8680998Y-19253808D01*
X9023855Y-18758570D02*
X8223855Y-18758570D01*
X8223855Y-18758570D02*
X9023855Y-18301427D01*
X9023855Y-18301427D02*
X8223855Y-18301427D01*
X9023855Y-17920475D02*
X8223855Y-17920475D01*
X8223855Y-17920475D02*
X8223855Y-17729999D01*
X8223855Y-17729999D02*
X8261950Y-17615713D01*
X8261950Y-17615713D02*
X8338140Y-17539523D01*
X8338140Y-17539523D02*
X8414331Y-17501428D01*
X8414331Y-17501428D02*
X8566712Y-17463332D01*
X8566712Y-17463332D02*
X8680998Y-17463332D01*
X8680998Y-17463332D02*
X8833379Y-17501428D01*
X8833379Y-17501428D02*
X8909569Y-17539523D01*
X8909569Y-17539523D02*
X8985760Y-17615713D01*
X8985760Y-17615713D02*
X9023855Y-17729999D01*
X9023855Y-17729999D02*
X9023855Y-17920475D01*
X8261950Y-21622381D02*
X8223855Y-21698571D01*
X8223855Y-21698571D02*
X8223855Y-21812857D01*
X8223855Y-21812857D02*
X8261950Y-21927143D01*
X8261950Y-21927143D02*
X8338140Y-22003333D01*
X8338140Y-22003333D02*
X8414331Y-22041428D01*
X8414331Y-22041428D02*
X8566712Y-22079524D01*
X8566712Y-22079524D02*
X8680998Y-22079524D01*
X8680998Y-22079524D02*
X8833379Y-22041428D01*
X8833379Y-22041428D02*
X8909569Y-22003333D01*
X8909569Y-22003333D02*
X8985760Y-21927143D01*
X8985760Y-21927143D02*
X9023855Y-21812857D01*
X9023855Y-21812857D02*
X9023855Y-21736666D01*
X9023855Y-21736666D02*
X8985760Y-21622381D01*
X8985760Y-21622381D02*
X8947664Y-21584285D01*
X8947664Y-21584285D02*
X8680998Y-21584285D01*
X8680998Y-21584285D02*
X8680998Y-21736666D01*
X9023855Y-20822381D02*
X9023855Y-21279524D01*
X9023855Y-21050952D02*
X8223855Y-21050952D01*
X8223855Y-21050952D02*
X8338140Y-21127143D01*
X8338140Y-21127143D02*
X8414331Y-21203333D01*
X8414331Y-21203333D02*
X8452426Y-21279524D01*
X8566712Y-20365238D02*
X8528617Y-20441428D01*
X8528617Y-20441428D02*
X8490521Y-20479523D01*
X8490521Y-20479523D02*
X8414331Y-20517619D01*
X8414331Y-20517619D02*
X8376236Y-20517619D01*
X8376236Y-20517619D02*
X8300045Y-20479523D01*
X8300045Y-20479523D02*
X8261950Y-20441428D01*
X8261950Y-20441428D02*
X8223855Y-20365238D01*
X8223855Y-20365238D02*
X8223855Y-20212857D01*
X8223855Y-20212857D02*
X8261950Y-20136666D01*
X8261950Y-20136666D02*
X8300045Y-20098571D01*
X8300045Y-20098571D02*
X8376236Y-20060476D01*
X8376236Y-20060476D02*
X8414331Y-20060476D01*
X8414331Y-20060476D02*
X8490521Y-20098571D01*
X8490521Y-20098571D02*
X8528617Y-20136666D01*
X8528617Y-20136666D02*
X8566712Y-20212857D01*
X8566712Y-20212857D02*
X8566712Y-20365238D01*
X8566712Y-20365238D02*
X8604807Y-20441428D01*
X8604807Y-20441428D02*
X8642902Y-20479523D01*
X8642902Y-20479523D02*
X8719093Y-20517619D01*
X8719093Y-20517619D02*
X8871474Y-20517619D01*
X8871474Y-20517619D02*
X8947664Y-20479523D01*
X8947664Y-20479523D02*
X8985760Y-20441428D01*
X8985760Y-20441428D02*
X9023855Y-20365238D01*
X9023855Y-20365238D02*
X9023855Y-20212857D01*
X9023855Y-20212857D02*
X8985760Y-20136666D01*
X8985760Y-20136666D02*
X8947664Y-20098571D01*
X8947664Y-20098571D02*
X8871474Y-20060476D01*
X8871474Y-20060476D02*
X8719093Y-20060476D01*
X8719093Y-20060476D02*
X8642902Y-20098571D01*
X8642902Y-20098571D02*
X8604807Y-20136666D01*
X8604807Y-20136666D02*
X8566712Y-20212857D01*
X8985760Y-24581428D02*
X9023855Y-24467142D01*
X9023855Y-24467142D02*
X9023855Y-24276666D01*
X9023855Y-24276666D02*
X8985760Y-24200475D01*
X8985760Y-24200475D02*
X8947664Y-24162380D01*
X8947664Y-24162380D02*
X8871474Y-24124285D01*
X8871474Y-24124285D02*
X8795283Y-24124285D01*
X8795283Y-24124285D02*
X8719093Y-24162380D01*
X8719093Y-24162380D02*
X8680998Y-24200475D01*
X8680998Y-24200475D02*
X8642902Y-24276666D01*
X8642902Y-24276666D02*
X8604807Y-24429047D01*
X8604807Y-24429047D02*
X8566712Y-24505237D01*
X8566712Y-24505237D02*
X8528617Y-24543332D01*
X8528617Y-24543332D02*
X8452426Y-24581428D01*
X8452426Y-24581428D02*
X8376236Y-24581428D01*
X8376236Y-24581428D02*
X8300045Y-24543332D01*
X8300045Y-24543332D02*
X8261950Y-24505237D01*
X8261950Y-24505237D02*
X8223855Y-24429047D01*
X8223855Y-24429047D02*
X8223855Y-24238570D01*
X8223855Y-24238570D02*
X8261950Y-24124285D01*
X9023855Y-23781427D02*
X8223855Y-23781427D01*
X8223855Y-23781427D02*
X8223855Y-23590951D01*
X8223855Y-23590951D02*
X8261950Y-23476665D01*
X8261950Y-23476665D02*
X8338140Y-23400475D01*
X8338140Y-23400475D02*
X8414331Y-23362380D01*
X8414331Y-23362380D02*
X8566712Y-23324284D01*
X8566712Y-23324284D02*
X8680998Y-23324284D01*
X8680998Y-23324284D02*
X8833379Y-23362380D01*
X8833379Y-23362380D02*
X8909569Y-23400475D01*
X8909569Y-23400475D02*
X8985760Y-23476665D01*
X8985760Y-23476665D02*
X9023855Y-23590951D01*
X9023855Y-23590951D02*
X9023855Y-23781427D01*
X8795283Y-23019523D02*
X8795283Y-22638570D01*
X9023855Y-23095713D02*
X8223855Y-22829046D01*
X8223855Y-22829046D02*
X9023855Y-22562380D01*
X8223855Y-26302380D02*
X8223855Y-26683332D01*
X8223855Y-26683332D02*
X8604807Y-26721428D01*
X8604807Y-26721428D02*
X8566712Y-26683332D01*
X8566712Y-26683332D02*
X8528617Y-26607142D01*
X8528617Y-26607142D02*
X8528617Y-26416666D01*
X8528617Y-26416666D02*
X8566712Y-26340475D01*
X8566712Y-26340475D02*
X8604807Y-26302380D01*
X8604807Y-26302380D02*
X8680998Y-26264285D01*
X8680998Y-26264285D02*
X8871474Y-26264285D01*
X8871474Y-26264285D02*
X8947664Y-26302380D01*
X8947664Y-26302380D02*
X8985760Y-26340475D01*
X8985760Y-26340475D02*
X9023855Y-26416666D01*
X9023855Y-26416666D02*
X9023855Y-26607142D01*
X9023855Y-26607142D02*
X8985760Y-26683332D01*
X8985760Y-26683332D02*
X8947664Y-26721428D01*
X8223855Y-26035713D02*
X9023855Y-25769046D01*
X9023855Y-25769046D02*
X8223855Y-25502380D01*
X8223855Y-29680475D02*
X8223855Y-29185237D01*
X8223855Y-29185237D02*
X8528617Y-29451903D01*
X8528617Y-29451903D02*
X8528617Y-29337618D01*
X8528617Y-29337618D02*
X8566712Y-29261427D01*
X8566712Y-29261427D02*
X8604807Y-29223332D01*
X8604807Y-29223332D02*
X8680998Y-29185237D01*
X8680998Y-29185237D02*
X8871474Y-29185237D01*
X8871474Y-29185237D02*
X8947664Y-29223332D01*
X8947664Y-29223332D02*
X8985760Y-29261427D01*
X8985760Y-29261427D02*
X9023855Y-29337618D01*
X9023855Y-29337618D02*
X9023855Y-29566189D01*
X9023855Y-29566189D02*
X8985760Y-29642380D01*
X8985760Y-29642380D02*
X8947664Y-29680475D01*
X8223855Y-28956665D02*
X9023855Y-28689998D01*
X9023855Y-28689998D02*
X8223855Y-28423332D01*
X8223855Y-28232856D02*
X8223855Y-27737618D01*
X8223855Y-27737618D02*
X8528617Y-28004284D01*
X8528617Y-28004284D02*
X8528617Y-27889999D01*
X8528617Y-27889999D02*
X8566712Y-27813808D01*
X8566712Y-27813808D02*
X8604807Y-27775713D01*
X8604807Y-27775713D02*
X8680998Y-27737618D01*
X8680998Y-27737618D02*
X8871474Y-27737618D01*
X8871474Y-27737618D02*
X8947664Y-27775713D01*
X8947664Y-27775713D02*
X8985760Y-27813808D01*
X8985760Y-27813808D02*
X9023855Y-27889999D01*
X9023855Y-27889999D02*
X9023855Y-28118570D01*
X9023855Y-28118570D02*
X8985760Y-28194761D01*
X8985760Y-28194761D02*
X8947664Y-28232856D01*
X8261950Y-31782380D02*
X8223855Y-31858570D01*
X8223855Y-31858570D02*
X8223855Y-31972856D01*
X8223855Y-31972856D02*
X8261950Y-32087142D01*
X8261950Y-32087142D02*
X8338140Y-32163332D01*
X8338140Y-32163332D02*
X8414331Y-32201427D01*
X8414331Y-32201427D02*
X8566712Y-32239523D01*
X8566712Y-32239523D02*
X8680998Y-32239523D01*
X8680998Y-32239523D02*
X8833379Y-32201427D01*
X8833379Y-32201427D02*
X8909569Y-32163332D01*
X8909569Y-32163332D02*
X8985760Y-32087142D01*
X8985760Y-32087142D02*
X9023855Y-31972856D01*
X9023855Y-31972856D02*
X9023855Y-31896665D01*
X9023855Y-31896665D02*
X8985760Y-31782380D01*
X8985760Y-31782380D02*
X8947664Y-31744284D01*
X8947664Y-31744284D02*
X8680998Y-31744284D01*
X8680998Y-31744284D02*
X8680998Y-31896665D01*
X9023855Y-30982380D02*
X9023855Y-31439523D01*
X9023855Y-31210951D02*
X8223855Y-31210951D01*
X8223855Y-31210951D02*
X8338140Y-31287142D01*
X8338140Y-31287142D02*
X8414331Y-31363332D01*
X8414331Y-31363332D02*
X8452426Y-31439523D01*
X8223855Y-30487141D02*
X8223855Y-30410951D01*
X8223855Y-30410951D02*
X8261950Y-30334760D01*
X8261950Y-30334760D02*
X8300045Y-30296665D01*
X8300045Y-30296665D02*
X8376236Y-30258570D01*
X8376236Y-30258570D02*
X8528617Y-30220475D01*
X8528617Y-30220475D02*
X8719093Y-30220475D01*
X8719093Y-30220475D02*
X8871474Y-30258570D01*
X8871474Y-30258570D02*
X8947664Y-30296665D01*
X8947664Y-30296665D02*
X8985760Y-30334760D01*
X8985760Y-30334760D02*
X9023855Y-30410951D01*
X9023855Y-30410951D02*
X9023855Y-30487141D01*
X9023855Y-30487141D02*
X8985760Y-30563332D01*
X8985760Y-30563332D02*
X8947664Y-30601427D01*
X8947664Y-30601427D02*
X8871474Y-30639522D01*
X8871474Y-30639522D02*
X8719093Y-30677618D01*
X8719093Y-30677618D02*
X8528617Y-30677618D01*
X8528617Y-30677618D02*
X8376236Y-30639522D01*
X8376236Y-30639522D02*
X8300045Y-30601427D01*
X8300045Y-30601427D02*
X8261950Y-30563332D01*
X8261950Y-30563332D02*
X8223855Y-30487141D01*
X8261950Y-33941427D02*
X8223855Y-34017617D01*
X8223855Y-34017617D02*
X8223855Y-34131903D01*
X8223855Y-34131903D02*
X8261950Y-34246189D01*
X8261950Y-34246189D02*
X8338140Y-34322379D01*
X8338140Y-34322379D02*
X8414331Y-34360474D01*
X8414331Y-34360474D02*
X8566712Y-34398570D01*
X8566712Y-34398570D02*
X8680998Y-34398570D01*
X8680998Y-34398570D02*
X8833379Y-34360474D01*
X8833379Y-34360474D02*
X8909569Y-34322379D01*
X8909569Y-34322379D02*
X8985760Y-34246189D01*
X8985760Y-34246189D02*
X9023855Y-34131903D01*
X9023855Y-34131903D02*
X9023855Y-34055712D01*
X9023855Y-34055712D02*
X8985760Y-33941427D01*
X8985760Y-33941427D02*
X8947664Y-33903331D01*
X8947664Y-33903331D02*
X8680998Y-33903331D01*
X8680998Y-33903331D02*
X8680998Y-34055712D01*
X9023855Y-33522379D02*
X9023855Y-33369998D01*
X9023855Y-33369998D02*
X8985760Y-33293808D01*
X8985760Y-33293808D02*
X8947664Y-33255712D01*
X8947664Y-33255712D02*
X8833379Y-33179522D01*
X8833379Y-33179522D02*
X8680998Y-33141427D01*
X8680998Y-33141427D02*
X8376236Y-33141427D01*
X8376236Y-33141427D02*
X8300045Y-33179522D01*
X8300045Y-33179522D02*
X8261950Y-33217617D01*
X8261950Y-33217617D02*
X8223855Y-33293808D01*
X8223855Y-33293808D02*
X8223855Y-33446189D01*
X8223855Y-33446189D02*
X8261950Y-33522379D01*
X8261950Y-33522379D02*
X8300045Y-33560474D01*
X8300045Y-33560474D02*
X8376236Y-33598570D01*
X8376236Y-33598570D02*
X8566712Y-33598570D01*
X8566712Y-33598570D02*
X8642902Y-33560474D01*
X8642902Y-33560474D02*
X8680998Y-33522379D01*
X8680998Y-33522379D02*
X8719093Y-33446189D01*
X8719093Y-33446189D02*
X8719093Y-33293808D01*
X8719093Y-33293808D02*
X8680998Y-33217617D01*
X8680998Y-33217617D02*
X8642902Y-33179522D01*
X8642902Y-33179522D02*
X8566712Y-33141427D01*
X8261950Y-36862381D02*
X8223855Y-36938571D01*
X8223855Y-36938571D02*
X8223855Y-37052857D01*
X8223855Y-37052857D02*
X8261950Y-37167143D01*
X8261950Y-37167143D02*
X8338140Y-37243333D01*
X8338140Y-37243333D02*
X8414331Y-37281428D01*
X8414331Y-37281428D02*
X8566712Y-37319524D01*
X8566712Y-37319524D02*
X8680998Y-37319524D01*
X8680998Y-37319524D02*
X8833379Y-37281428D01*
X8833379Y-37281428D02*
X8909569Y-37243333D01*
X8909569Y-37243333D02*
X8985760Y-37167143D01*
X8985760Y-37167143D02*
X9023855Y-37052857D01*
X9023855Y-37052857D02*
X9023855Y-36976666D01*
X9023855Y-36976666D02*
X8985760Y-36862381D01*
X8985760Y-36862381D02*
X8947664Y-36824285D01*
X8947664Y-36824285D02*
X8680998Y-36824285D01*
X8680998Y-36824285D02*
X8680998Y-36976666D01*
X9023855Y-36062381D02*
X9023855Y-36519524D01*
X9023855Y-36290952D02*
X8223855Y-36290952D01*
X8223855Y-36290952D02*
X8338140Y-36367143D01*
X8338140Y-36367143D02*
X8414331Y-36443333D01*
X8414331Y-36443333D02*
X8452426Y-36519524D01*
X9023855Y-35300476D02*
X9023855Y-35757619D01*
X9023855Y-35529047D02*
X8223855Y-35529047D01*
X8223855Y-35529047D02*
X8338140Y-35605238D01*
X8338140Y-35605238D02*
X8414331Y-35681428D01*
X8414331Y-35681428D02*
X8452426Y-35757619D01*
X8261950Y-39021428D02*
X8223855Y-39097618D01*
X8223855Y-39097618D02*
X8223855Y-39211904D01*
X8223855Y-39211904D02*
X8261950Y-39326190D01*
X8261950Y-39326190D02*
X8338140Y-39402380D01*
X8338140Y-39402380D02*
X8414331Y-39440475D01*
X8414331Y-39440475D02*
X8566712Y-39478571D01*
X8566712Y-39478571D02*
X8680998Y-39478571D01*
X8680998Y-39478571D02*
X8833379Y-39440475D01*
X8833379Y-39440475D02*
X8909569Y-39402380D01*
X8909569Y-39402380D02*
X8985760Y-39326190D01*
X8985760Y-39326190D02*
X9023855Y-39211904D01*
X9023855Y-39211904D02*
X9023855Y-39135713D01*
X9023855Y-39135713D02*
X8985760Y-39021428D01*
X8985760Y-39021428D02*
X8947664Y-38983332D01*
X8947664Y-38983332D02*
X8680998Y-38983332D01*
X8680998Y-38983332D02*
X8680998Y-39135713D01*
X8223855Y-38716666D02*
X8223855Y-38183332D01*
X8223855Y-38183332D02*
X9023855Y-38526190D01*
X8261950Y-41561428D02*
X8223855Y-41637618D01*
X8223855Y-41637618D02*
X8223855Y-41751904D01*
X8223855Y-41751904D02*
X8261950Y-41866190D01*
X8261950Y-41866190D02*
X8338140Y-41942380D01*
X8338140Y-41942380D02*
X8414331Y-41980475D01*
X8414331Y-41980475D02*
X8566712Y-42018571D01*
X8566712Y-42018571D02*
X8680998Y-42018571D01*
X8680998Y-42018571D02*
X8833379Y-41980475D01*
X8833379Y-41980475D02*
X8909569Y-41942380D01*
X8909569Y-41942380D02*
X8985760Y-41866190D01*
X8985760Y-41866190D02*
X9023855Y-41751904D01*
X9023855Y-41751904D02*
X9023855Y-41675713D01*
X9023855Y-41675713D02*
X8985760Y-41561428D01*
X8985760Y-41561428D02*
X8947664Y-41523332D01*
X8947664Y-41523332D02*
X8680998Y-41523332D01*
X8680998Y-41523332D02*
X8680998Y-41675713D01*
X8566712Y-41066190D02*
X8528617Y-41142380D01*
X8528617Y-41142380D02*
X8490521Y-41180475D01*
X8490521Y-41180475D02*
X8414331Y-41218571D01*
X8414331Y-41218571D02*
X8376236Y-41218571D01*
X8376236Y-41218571D02*
X8300045Y-41180475D01*
X8300045Y-41180475D02*
X8261950Y-41142380D01*
X8261950Y-41142380D02*
X8223855Y-41066190D01*
X8223855Y-41066190D02*
X8223855Y-40913809D01*
X8223855Y-40913809D02*
X8261950Y-40837618D01*
X8261950Y-40837618D02*
X8300045Y-40799523D01*
X8300045Y-40799523D02*
X8376236Y-40761428D01*
X8376236Y-40761428D02*
X8414331Y-40761428D01*
X8414331Y-40761428D02*
X8490521Y-40799523D01*
X8490521Y-40799523D02*
X8528617Y-40837618D01*
X8528617Y-40837618D02*
X8566712Y-40913809D01*
X8566712Y-40913809D02*
X8566712Y-41066190D01*
X8566712Y-41066190D02*
X8604807Y-41142380D01*
X8604807Y-41142380D02*
X8642902Y-41180475D01*
X8642902Y-41180475D02*
X8719093Y-41218571D01*
X8719093Y-41218571D02*
X8871474Y-41218571D01*
X8871474Y-41218571D02*
X8947664Y-41180475D01*
X8947664Y-41180475D02*
X8985760Y-41142380D01*
X8985760Y-41142380D02*
X9023855Y-41066190D01*
X9023855Y-41066190D02*
X9023855Y-40913809D01*
X9023855Y-40913809D02*
X8985760Y-40837618D01*
X8985760Y-40837618D02*
X8947664Y-40799523D01*
X8947664Y-40799523D02*
X8871474Y-40761428D01*
X8871474Y-40761428D02*
X8719093Y-40761428D01*
X8719093Y-40761428D02*
X8642902Y-40799523D01*
X8642902Y-40799523D02*
X8604807Y-40837618D01*
X8604807Y-40837618D02*
X8566712Y-40913809D01*
X8261950Y-44539523D02*
X8223855Y-44615713D01*
X8223855Y-44615713D02*
X8223855Y-44729999D01*
X8223855Y-44729999D02*
X8261950Y-44844285D01*
X8261950Y-44844285D02*
X8338140Y-44920475D01*
X8338140Y-44920475D02*
X8414331Y-44958570D01*
X8414331Y-44958570D02*
X8566712Y-44996666D01*
X8566712Y-44996666D02*
X8680998Y-44996666D01*
X8680998Y-44996666D02*
X8833379Y-44958570D01*
X8833379Y-44958570D02*
X8909569Y-44920475D01*
X8909569Y-44920475D02*
X8985760Y-44844285D01*
X8985760Y-44844285D02*
X9023855Y-44729999D01*
X9023855Y-44729999D02*
X9023855Y-44653808D01*
X9023855Y-44653808D02*
X8985760Y-44539523D01*
X8985760Y-44539523D02*
X8947664Y-44501427D01*
X8947664Y-44501427D02*
X8680998Y-44501427D01*
X8680998Y-44501427D02*
X8680998Y-44653808D01*
X9023855Y-44158570D02*
X8223855Y-44158570D01*
X8223855Y-44158570D02*
X9023855Y-43701427D01*
X9023855Y-43701427D02*
X8223855Y-43701427D01*
X9023855Y-43320475D02*
X8223855Y-43320475D01*
X8223855Y-43320475D02*
X8223855Y-43129999D01*
X8223855Y-43129999D02*
X8261950Y-43015713D01*
X8261950Y-43015713D02*
X8338140Y-42939523D01*
X8338140Y-42939523D02*
X8414331Y-42901428D01*
X8414331Y-42901428D02*
X8566712Y-42863332D01*
X8566712Y-42863332D02*
X8680998Y-42863332D01*
X8680998Y-42863332D02*
X8833379Y-42901428D01*
X8833379Y-42901428D02*
X8909569Y-42939523D01*
X8909569Y-42939523D02*
X8985760Y-43015713D01*
X8985760Y-43015713D02*
X9023855Y-43129999D01*
X9023855Y-43129999D02*
X9023855Y-43320475D01*
X8261950Y-49619523D02*
X8223855Y-49695713D01*
X8223855Y-49695713D02*
X8223855Y-49809999D01*
X8223855Y-49809999D02*
X8261950Y-49924285D01*
X8261950Y-49924285D02*
X8338140Y-50000475D01*
X8338140Y-50000475D02*
X8414331Y-50038570D01*
X8414331Y-50038570D02*
X8566712Y-50076666D01*
X8566712Y-50076666D02*
X8680998Y-50076666D01*
X8680998Y-50076666D02*
X8833379Y-50038570D01*
X8833379Y-50038570D02*
X8909569Y-50000475D01*
X8909569Y-50000475D02*
X8985760Y-49924285D01*
X8985760Y-49924285D02*
X9023855Y-49809999D01*
X9023855Y-49809999D02*
X9023855Y-49733808D01*
X9023855Y-49733808D02*
X8985760Y-49619523D01*
X8985760Y-49619523D02*
X8947664Y-49581427D01*
X8947664Y-49581427D02*
X8680998Y-49581427D01*
X8680998Y-49581427D02*
X8680998Y-49733808D01*
X9023855Y-49238570D02*
X8223855Y-49238570D01*
X8223855Y-49238570D02*
X9023855Y-48781427D01*
X9023855Y-48781427D02*
X8223855Y-48781427D01*
X9023855Y-48400475D02*
X8223855Y-48400475D01*
X8223855Y-48400475D02*
X8223855Y-48209999D01*
X8223855Y-48209999D02*
X8261950Y-48095713D01*
X8261950Y-48095713D02*
X8338140Y-48019523D01*
X8338140Y-48019523D02*
X8414331Y-47981428D01*
X8414331Y-47981428D02*
X8566712Y-47943332D01*
X8566712Y-47943332D02*
X8680998Y-47943332D01*
X8680998Y-47943332D02*
X8833379Y-47981428D01*
X8833379Y-47981428D02*
X8909569Y-48019523D01*
X8909569Y-48019523D02*
X8985760Y-48095713D01*
X8985760Y-48095713D02*
X9023855Y-48209999D01*
X9023855Y-48209999D02*
X9023855Y-48400475D01*
X8261950Y-54642381D02*
X8223855Y-54718571D01*
X8223855Y-54718571D02*
X8223855Y-54832857D01*
X8223855Y-54832857D02*
X8261950Y-54947143D01*
X8261950Y-54947143D02*
X8338140Y-55023333D01*
X8338140Y-55023333D02*
X8414331Y-55061428D01*
X8414331Y-55061428D02*
X8566712Y-55099524D01*
X8566712Y-55099524D02*
X8680998Y-55099524D01*
X8680998Y-55099524D02*
X8833379Y-55061428D01*
X8833379Y-55061428D02*
X8909569Y-55023333D01*
X8909569Y-55023333D02*
X8985760Y-54947143D01*
X8985760Y-54947143D02*
X9023855Y-54832857D01*
X9023855Y-54832857D02*
X9023855Y-54756666D01*
X9023855Y-54756666D02*
X8985760Y-54642381D01*
X8985760Y-54642381D02*
X8947664Y-54604285D01*
X8947664Y-54604285D02*
X8680998Y-54604285D01*
X8680998Y-54604285D02*
X8680998Y-54756666D01*
X8300045Y-54299524D02*
X8261950Y-54261428D01*
X8261950Y-54261428D02*
X8223855Y-54185238D01*
X8223855Y-54185238D02*
X8223855Y-53994762D01*
X8223855Y-53994762D02*
X8261950Y-53918571D01*
X8261950Y-53918571D02*
X8300045Y-53880476D01*
X8300045Y-53880476D02*
X8376236Y-53842381D01*
X8376236Y-53842381D02*
X8452426Y-53842381D01*
X8452426Y-53842381D02*
X8566712Y-53880476D01*
X8566712Y-53880476D02*
X9023855Y-54337619D01*
X9023855Y-54337619D02*
X9023855Y-53842381D01*
X8223855Y-53347142D02*
X8223855Y-53270952D01*
X8223855Y-53270952D02*
X8261950Y-53194761D01*
X8261950Y-53194761D02*
X8300045Y-53156666D01*
X8300045Y-53156666D02*
X8376236Y-53118571D01*
X8376236Y-53118571D02*
X8528617Y-53080476D01*
X8528617Y-53080476D02*
X8719093Y-53080476D01*
X8719093Y-53080476D02*
X8871474Y-53118571D01*
X8871474Y-53118571D02*
X8947664Y-53156666D01*
X8947664Y-53156666D02*
X8985760Y-53194761D01*
X8985760Y-53194761D02*
X9023855Y-53270952D01*
X9023855Y-53270952D02*
X9023855Y-53347142D01*
X9023855Y-53347142D02*
X8985760Y-53423333D01*
X8985760Y-53423333D02*
X8947664Y-53461428D01*
X8947664Y-53461428D02*
X8871474Y-53499523D01*
X8871474Y-53499523D02*
X8719093Y-53537619D01*
X8719093Y-53537619D02*
X8528617Y-53537619D01*
X8528617Y-53537619D02*
X8376236Y-53499523D01*
X8376236Y-53499523D02*
X8300045Y-53461428D01*
X8300045Y-53461428D02*
X8261950Y-53423333D01*
X8261950Y-53423333D02*
X8223855Y-53347142D01*
X8261950Y-57182380D02*
X8223855Y-57258570D01*
X8223855Y-57258570D02*
X8223855Y-57372856D01*
X8223855Y-57372856D02*
X8261950Y-57487142D01*
X8261950Y-57487142D02*
X8338140Y-57563332D01*
X8338140Y-57563332D02*
X8414331Y-57601427D01*
X8414331Y-57601427D02*
X8566712Y-57639523D01*
X8566712Y-57639523D02*
X8680998Y-57639523D01*
X8680998Y-57639523D02*
X8833379Y-57601427D01*
X8833379Y-57601427D02*
X8909569Y-57563332D01*
X8909569Y-57563332D02*
X8985760Y-57487142D01*
X8985760Y-57487142D02*
X9023855Y-57372856D01*
X9023855Y-57372856D02*
X9023855Y-57296665D01*
X9023855Y-57296665D02*
X8985760Y-57182380D01*
X8985760Y-57182380D02*
X8947664Y-57144284D01*
X8947664Y-57144284D02*
X8680998Y-57144284D01*
X8680998Y-57144284D02*
X8680998Y-57296665D01*
X8300045Y-56839523D02*
X8261950Y-56801427D01*
X8261950Y-56801427D02*
X8223855Y-56725237D01*
X8223855Y-56725237D02*
X8223855Y-56534761D01*
X8223855Y-56534761D02*
X8261950Y-56458570D01*
X8261950Y-56458570D02*
X8300045Y-56420475D01*
X8300045Y-56420475D02*
X8376236Y-56382380D01*
X8376236Y-56382380D02*
X8452426Y-56382380D01*
X8452426Y-56382380D02*
X8566712Y-56420475D01*
X8566712Y-56420475D02*
X9023855Y-56877618D01*
X9023855Y-56877618D02*
X9023855Y-56382380D01*
X9023855Y-55620475D02*
X9023855Y-56077618D01*
X9023855Y-55849046D02*
X8223855Y-55849046D01*
X8223855Y-55849046D02*
X8338140Y-55925237D01*
X8338140Y-55925237D02*
X8414331Y-56001427D01*
X8414331Y-56001427D02*
X8452426Y-56077618D01*
X8913855Y-12809523D02*
X8913855Y-12276189D01*
X8913855Y-12276189D02*
X9713855Y-12809523D01*
X9713855Y-12809523D02*
X9713855Y-12276189D01*
X8913855Y-12085713D02*
X9713855Y-11819046D01*
X9713855Y-11819046D02*
X8913855Y-11552380D01*
X12213855Y-13285713D02*
X11413855Y-13285713D01*
X11413855Y-13285713D02*
X11413855Y-13095237D01*
X11413855Y-13095237D02*
X11451950Y-12980951D01*
X11451950Y-12980951D02*
X11528140Y-12904761D01*
X11528140Y-12904761D02*
X11604331Y-12866666D01*
X11604331Y-12866666D02*
X11756712Y-12828570D01*
X11756712Y-12828570D02*
X11870998Y-12828570D01*
X11870998Y-12828570D02*
X12023379Y-12866666D01*
X12023379Y-12866666D02*
X12099569Y-12904761D01*
X12099569Y-12904761D02*
X12175760Y-12980951D01*
X12175760Y-12980951D02*
X12213855Y-13095237D01*
X12213855Y-13095237D02*
X12213855Y-13285713D01*
X12213855Y-12485713D02*
X11413855Y-12485713D01*
X11794807Y-12485713D02*
X11794807Y-12028570D01*
X12213855Y-12028570D02*
X11413855Y-12028570D01*
X11413855Y-11723809D02*
X12213855Y-11533333D01*
X12213855Y-11533333D02*
X11642426Y-11380952D01*
X11642426Y-11380952D02*
X12213855Y-11228571D01*
X12213855Y-11228571D02*
X11413855Y-11038095D01*
X14294807Y-12866666D02*
X14332902Y-12752380D01*
X14332902Y-12752380D02*
X14370998Y-12714285D01*
X14370998Y-12714285D02*
X14447188Y-12676189D01*
X14447188Y-12676189D02*
X14561474Y-12676189D01*
X14561474Y-12676189D02*
X14637664Y-12714285D01*
X14637664Y-12714285D02*
X14675760Y-12752380D01*
X14675760Y-12752380D02*
X14713855Y-12828570D01*
X14713855Y-12828570D02*
X14713855Y-13133332D01*
X14713855Y-13133332D02*
X13913855Y-13133332D01*
X13913855Y-13133332D02*
X13913855Y-12866666D01*
X13913855Y-12866666D02*
X13951950Y-12790475D01*
X13951950Y-12790475D02*
X13990045Y-12752380D01*
X13990045Y-12752380D02*
X14066236Y-12714285D01*
X14066236Y-12714285D02*
X14142426Y-12714285D01*
X14142426Y-12714285D02*
X14218617Y-12752380D01*
X14218617Y-12752380D02*
X14256712Y-12790475D01*
X14256712Y-12790475D02*
X14294807Y-12866666D01*
X14294807Y-12866666D02*
X14294807Y-13133332D01*
X14713855Y-11952380D02*
X14713855Y-12333332D01*
X14713855Y-12333332D02*
X13913855Y-12333332D01*
X14713855Y-11228570D02*
X14332902Y-11495237D01*
X14713855Y-11685713D02*
X13913855Y-11685713D01*
X13913855Y-11685713D02*
X13913855Y-11380951D01*
X13913855Y-11380951D02*
X13951950Y-11304761D01*
X13951950Y-11304761D02*
X13990045Y-11266666D01*
X13990045Y-11266666D02*
X14066236Y-11228570D01*
X14066236Y-11228570D02*
X14180521Y-11228570D01*
X14180521Y-11228570D02*
X14256712Y-11266666D01*
X14256712Y-11266666D02*
X14294807Y-11304761D01*
X14294807Y-11304761D02*
X14332902Y-11380951D01*
X14332902Y-11380951D02*
X14332902Y-11685713D01*
X17137664Y-12828570D02*
X17175760Y-12866666D01*
X17175760Y-12866666D02*
X17213855Y-12980951D01*
X17213855Y-12980951D02*
X17213855Y-13057142D01*
X17213855Y-13057142D02*
X17175760Y-13171428D01*
X17175760Y-13171428D02*
X17099569Y-13247618D01*
X17099569Y-13247618D02*
X17023379Y-13285713D01*
X17023379Y-13285713D02*
X16870998Y-13323809D01*
X16870998Y-13323809D02*
X16756712Y-13323809D01*
X16756712Y-13323809D02*
X16604331Y-13285713D01*
X16604331Y-13285713D02*
X16528140Y-13247618D01*
X16528140Y-13247618D02*
X16451950Y-13171428D01*
X16451950Y-13171428D02*
X16413855Y-13057142D01*
X16413855Y-13057142D02*
X16413855Y-12980951D01*
X16413855Y-12980951D02*
X16451950Y-12866666D01*
X16451950Y-12866666D02*
X16490045Y-12828570D01*
X16413855Y-12333332D02*
X16413855Y-12180951D01*
X16413855Y-12180951D02*
X16451950Y-12104761D01*
X16451950Y-12104761D02*
X16528140Y-12028570D01*
X16528140Y-12028570D02*
X16680521Y-11990475D01*
X16680521Y-11990475D02*
X16947188Y-11990475D01*
X16947188Y-11990475D02*
X17099569Y-12028570D01*
X17099569Y-12028570D02*
X17175760Y-12104761D01*
X17175760Y-12104761D02*
X17213855Y-12180951D01*
X17213855Y-12180951D02*
X17213855Y-12333332D01*
X17213855Y-12333332D02*
X17175760Y-12409523D01*
X17175760Y-12409523D02*
X17099569Y-12485713D01*
X17099569Y-12485713D02*
X16947188Y-12523809D01*
X16947188Y-12523809D02*
X16680521Y-12523809D01*
X16680521Y-12523809D02*
X16528140Y-12485713D01*
X16528140Y-12485713D02*
X16451950Y-12409523D01*
X16451950Y-12409523D02*
X16413855Y-12333332D01*
X17213855Y-11647618D02*
X16413855Y-11647618D01*
X16413855Y-11647618D02*
X16985283Y-11380952D01*
X16985283Y-11380952D02*
X16413855Y-11114285D01*
X16413855Y-11114285D02*
X17213855Y-11114285D01*
X21337664Y-12885713D02*
X21375760Y-12923809D01*
X21375760Y-12923809D02*
X21413855Y-13038094D01*
X21413855Y-13038094D02*
X21413855Y-13114285D01*
X21413855Y-13114285D02*
X21375760Y-13228571D01*
X21375760Y-13228571D02*
X21299569Y-13304761D01*
X21299569Y-13304761D02*
X21223379Y-13342856D01*
X21223379Y-13342856D02*
X21070998Y-13380952D01*
X21070998Y-13380952D02*
X20956712Y-13380952D01*
X20956712Y-13380952D02*
X20804331Y-13342856D01*
X20804331Y-13342856D02*
X20728140Y-13304761D01*
X20728140Y-13304761D02*
X20651950Y-13228571D01*
X20651950Y-13228571D02*
X20613855Y-13114285D01*
X20613855Y-13114285D02*
X20613855Y-13038094D01*
X20613855Y-13038094D02*
X20651950Y-12923809D01*
X20651950Y-12923809D02*
X20690045Y-12885713D01*
X21413855Y-12542856D02*
X20613855Y-12542856D01*
X20994807Y-12542856D02*
X20994807Y-12085713D01*
X21413855Y-12085713D02*
X20613855Y-12085713D01*
X21413855Y-11704761D02*
X20613855Y-11704761D01*
X21413855Y-10942857D02*
X21413855Y-11323809D01*
X21413855Y-11323809D02*
X20613855Y-11323809D01*
X23494807Y-13323809D02*
X23532902Y-13209523D01*
X23532902Y-13209523D02*
X23570998Y-13171428D01*
X23570998Y-13171428D02*
X23647188Y-13133332D01*
X23647188Y-13133332D02*
X23761474Y-13133332D01*
X23761474Y-13133332D02*
X23837664Y-13171428D01*
X23837664Y-13171428D02*
X23875760Y-13209523D01*
X23875760Y-13209523D02*
X23913855Y-13285713D01*
X23913855Y-13285713D02*
X23913855Y-13590475D01*
X23913855Y-13590475D02*
X23113855Y-13590475D01*
X23113855Y-13590475D02*
X23113855Y-13323809D01*
X23113855Y-13323809D02*
X23151950Y-13247618D01*
X23151950Y-13247618D02*
X23190045Y-13209523D01*
X23190045Y-13209523D02*
X23266236Y-13171428D01*
X23266236Y-13171428D02*
X23342426Y-13171428D01*
X23342426Y-13171428D02*
X23418617Y-13209523D01*
X23418617Y-13209523D02*
X23456712Y-13247618D01*
X23456712Y-13247618D02*
X23494807Y-13323809D01*
X23494807Y-13323809D02*
X23494807Y-13590475D01*
X23113855Y-12638094D02*
X23113855Y-12485713D01*
X23113855Y-12485713D02*
X23151950Y-12409523D01*
X23151950Y-12409523D02*
X23228140Y-12333332D01*
X23228140Y-12333332D02*
X23380521Y-12295237D01*
X23380521Y-12295237D02*
X23647188Y-12295237D01*
X23647188Y-12295237D02*
X23799569Y-12333332D01*
X23799569Y-12333332D02*
X23875760Y-12409523D01*
X23875760Y-12409523D02*
X23913855Y-12485713D01*
X23913855Y-12485713D02*
X23913855Y-12638094D01*
X23913855Y-12638094D02*
X23875760Y-12714285D01*
X23875760Y-12714285D02*
X23799569Y-12790475D01*
X23799569Y-12790475D02*
X23647188Y-12828571D01*
X23647188Y-12828571D02*
X23380521Y-12828571D01*
X23380521Y-12828571D02*
X23228140Y-12790475D01*
X23228140Y-12790475D02*
X23151950Y-12714285D01*
X23151950Y-12714285D02*
X23113855Y-12638094D01*
X23875760Y-11990476D02*
X23913855Y-11876190D01*
X23913855Y-11876190D02*
X23913855Y-11685714D01*
X23913855Y-11685714D02*
X23875760Y-11609523D01*
X23875760Y-11609523D02*
X23837664Y-11571428D01*
X23837664Y-11571428D02*
X23761474Y-11533333D01*
X23761474Y-11533333D02*
X23685283Y-11533333D01*
X23685283Y-11533333D02*
X23609093Y-11571428D01*
X23609093Y-11571428D02*
X23570998Y-11609523D01*
X23570998Y-11609523D02*
X23532902Y-11685714D01*
X23532902Y-11685714D02*
X23494807Y-11838095D01*
X23494807Y-11838095D02*
X23456712Y-11914285D01*
X23456712Y-11914285D02*
X23418617Y-11952380D01*
X23418617Y-11952380D02*
X23342426Y-11990476D01*
X23342426Y-11990476D02*
X23266236Y-11990476D01*
X23266236Y-11990476D02*
X23190045Y-11952380D01*
X23190045Y-11952380D02*
X23151950Y-11914285D01*
X23151950Y-11914285D02*
X23113855Y-11838095D01*
X23113855Y-11838095D02*
X23113855Y-11647618D01*
X23113855Y-11647618D02*
X23151950Y-11533333D01*
X23913855Y-10771428D02*
X23913855Y-11228571D01*
X23913855Y-10999999D02*
X23113855Y-10999999D01*
X23113855Y-10999999D02*
X23228140Y-11076190D01*
X23228140Y-11076190D02*
X23304331Y-11152380D01*
X23304331Y-11152380D02*
X23342426Y-11228571D01*
X25994807Y-13323809D02*
X26032902Y-13209523D01*
X26032902Y-13209523D02*
X26070998Y-13171428D01*
X26070998Y-13171428D02*
X26147188Y-13133332D01*
X26147188Y-13133332D02*
X26261474Y-13133332D01*
X26261474Y-13133332D02*
X26337664Y-13171428D01*
X26337664Y-13171428D02*
X26375760Y-13209523D01*
X26375760Y-13209523D02*
X26413855Y-13285713D01*
X26413855Y-13285713D02*
X26413855Y-13590475D01*
X26413855Y-13590475D02*
X25613855Y-13590475D01*
X25613855Y-13590475D02*
X25613855Y-13323809D01*
X25613855Y-13323809D02*
X25651950Y-13247618D01*
X25651950Y-13247618D02*
X25690045Y-13209523D01*
X25690045Y-13209523D02*
X25766236Y-13171428D01*
X25766236Y-13171428D02*
X25842426Y-13171428D01*
X25842426Y-13171428D02*
X25918617Y-13209523D01*
X25918617Y-13209523D02*
X25956712Y-13247618D01*
X25956712Y-13247618D02*
X25994807Y-13323809D01*
X25994807Y-13323809D02*
X25994807Y-13590475D01*
X25613855Y-12638094D02*
X25613855Y-12485713D01*
X25613855Y-12485713D02*
X25651950Y-12409523D01*
X25651950Y-12409523D02*
X25728140Y-12333332D01*
X25728140Y-12333332D02*
X25880521Y-12295237D01*
X25880521Y-12295237D02*
X26147188Y-12295237D01*
X26147188Y-12295237D02*
X26299569Y-12333332D01*
X26299569Y-12333332D02*
X26375760Y-12409523D01*
X26375760Y-12409523D02*
X26413855Y-12485713D01*
X26413855Y-12485713D02*
X26413855Y-12638094D01*
X26413855Y-12638094D02*
X26375760Y-12714285D01*
X26375760Y-12714285D02*
X26299569Y-12790475D01*
X26299569Y-12790475D02*
X26147188Y-12828571D01*
X26147188Y-12828571D02*
X25880521Y-12828571D01*
X25880521Y-12828571D02*
X25728140Y-12790475D01*
X25728140Y-12790475D02*
X25651950Y-12714285D01*
X25651950Y-12714285D02*
X25613855Y-12638094D01*
X26375760Y-11990476D02*
X26413855Y-11876190D01*
X26413855Y-11876190D02*
X26413855Y-11685714D01*
X26413855Y-11685714D02*
X26375760Y-11609523D01*
X26375760Y-11609523D02*
X26337664Y-11571428D01*
X26337664Y-11571428D02*
X26261474Y-11533333D01*
X26261474Y-11533333D02*
X26185283Y-11533333D01*
X26185283Y-11533333D02*
X26109093Y-11571428D01*
X26109093Y-11571428D02*
X26070998Y-11609523D01*
X26070998Y-11609523D02*
X26032902Y-11685714D01*
X26032902Y-11685714D02*
X25994807Y-11838095D01*
X25994807Y-11838095D02*
X25956712Y-11914285D01*
X25956712Y-11914285D02*
X25918617Y-11952380D01*
X25918617Y-11952380D02*
X25842426Y-11990476D01*
X25842426Y-11990476D02*
X25766236Y-11990476D01*
X25766236Y-11990476D02*
X25690045Y-11952380D01*
X25690045Y-11952380D02*
X25651950Y-11914285D01*
X25651950Y-11914285D02*
X25613855Y-11838095D01*
X25613855Y-11838095D02*
X25613855Y-11647618D01*
X25613855Y-11647618D02*
X25651950Y-11533333D01*
X25690045Y-11228571D02*
X25651950Y-11190475D01*
X25651950Y-11190475D02*
X25613855Y-11114285D01*
X25613855Y-11114285D02*
X25613855Y-10923809D01*
X25613855Y-10923809D02*
X25651950Y-10847618D01*
X25651950Y-10847618D02*
X25690045Y-10809523D01*
X25690045Y-10809523D02*
X25766236Y-10771428D01*
X25766236Y-10771428D02*
X25842426Y-10771428D01*
X25842426Y-10771428D02*
X25956712Y-10809523D01*
X25956712Y-10809523D02*
X26413855Y-11266666D01*
X26413855Y-11266666D02*
X26413855Y-10771428D01*
X28837664Y-12828570D02*
X28875760Y-12866666D01*
X28875760Y-12866666D02*
X28913855Y-12980951D01*
X28913855Y-12980951D02*
X28913855Y-13057142D01*
X28913855Y-13057142D02*
X28875760Y-13171428D01*
X28875760Y-13171428D02*
X28799569Y-13247618D01*
X28799569Y-13247618D02*
X28723379Y-13285713D01*
X28723379Y-13285713D02*
X28570998Y-13323809D01*
X28570998Y-13323809D02*
X28456712Y-13323809D01*
X28456712Y-13323809D02*
X28304331Y-13285713D01*
X28304331Y-13285713D02*
X28228140Y-13247618D01*
X28228140Y-13247618D02*
X28151950Y-13171428D01*
X28151950Y-13171428D02*
X28113855Y-13057142D01*
X28113855Y-13057142D02*
X28113855Y-12980951D01*
X28113855Y-12980951D02*
X28151950Y-12866666D01*
X28151950Y-12866666D02*
X28190045Y-12828570D01*
X28113855Y-12333332D02*
X28113855Y-12180951D01*
X28113855Y-12180951D02*
X28151950Y-12104761D01*
X28151950Y-12104761D02*
X28228140Y-12028570D01*
X28228140Y-12028570D02*
X28380521Y-11990475D01*
X28380521Y-11990475D02*
X28647188Y-11990475D01*
X28647188Y-11990475D02*
X28799569Y-12028570D01*
X28799569Y-12028570D02*
X28875760Y-12104761D01*
X28875760Y-12104761D02*
X28913855Y-12180951D01*
X28913855Y-12180951D02*
X28913855Y-12333332D01*
X28913855Y-12333332D02*
X28875760Y-12409523D01*
X28875760Y-12409523D02*
X28799569Y-12485713D01*
X28799569Y-12485713D02*
X28647188Y-12523809D01*
X28647188Y-12523809D02*
X28380521Y-12523809D01*
X28380521Y-12523809D02*
X28228140Y-12485713D01*
X28228140Y-12485713D02*
X28151950Y-12409523D01*
X28151950Y-12409523D02*
X28113855Y-12333332D01*
X28913855Y-11647618D02*
X28113855Y-11647618D01*
X28113855Y-11647618D02*
X28685283Y-11380952D01*
X28685283Y-11380952D02*
X28113855Y-11114285D01*
X28113855Y-11114285D02*
X28913855Y-11114285D01*
X33113855Y-14066666D02*
X32313855Y-14066666D01*
X32313855Y-14066666D02*
X32313855Y-13876190D01*
X32313855Y-13876190D02*
X32351950Y-13761904D01*
X32351950Y-13761904D02*
X32428140Y-13685714D01*
X32428140Y-13685714D02*
X32504331Y-13647619D01*
X32504331Y-13647619D02*
X32656712Y-13609523D01*
X32656712Y-13609523D02*
X32770998Y-13609523D01*
X32770998Y-13609523D02*
X32923379Y-13647619D01*
X32923379Y-13647619D02*
X32999569Y-13685714D01*
X32999569Y-13685714D02*
X33075760Y-13761904D01*
X33075760Y-13761904D02*
X33113855Y-13876190D01*
X33113855Y-13876190D02*
X33113855Y-14066666D01*
X32694807Y-13266666D02*
X32694807Y-13000000D01*
X33113855Y-12885714D02*
X33113855Y-13266666D01*
X33113855Y-13266666D02*
X32313855Y-13266666D01*
X32313855Y-13266666D02*
X32313855Y-12885714D01*
X33113855Y-12542856D02*
X32313855Y-12542856D01*
X32694807Y-12542856D02*
X32694807Y-12085713D01*
X33113855Y-12085713D02*
X32313855Y-12085713D01*
X32313855Y-11704761D02*
X32961474Y-11704761D01*
X32961474Y-11704761D02*
X33037664Y-11666666D01*
X33037664Y-11666666D02*
X33075760Y-11628571D01*
X33075760Y-11628571D02*
X33113855Y-11552380D01*
X33113855Y-11552380D02*
X33113855Y-11399999D01*
X33113855Y-11399999D02*
X33075760Y-11323809D01*
X33075760Y-11323809D02*
X33037664Y-11285714D01*
X33037664Y-11285714D02*
X32961474Y-11247618D01*
X32961474Y-11247618D02*
X32313855Y-11247618D01*
X33113855Y-10866666D02*
X32313855Y-10866666D01*
X32313855Y-10866666D02*
X32885283Y-10600000D01*
X32885283Y-10600000D02*
X32313855Y-10333333D01*
X32313855Y-10333333D02*
X33113855Y-10333333D01*
X35575760Y-13838095D02*
X35613855Y-13723809D01*
X35613855Y-13723809D02*
X35613855Y-13533333D01*
X35613855Y-13533333D02*
X35575760Y-13457142D01*
X35575760Y-13457142D02*
X35537664Y-13419047D01*
X35537664Y-13419047D02*
X35461474Y-13380952D01*
X35461474Y-13380952D02*
X35385283Y-13380952D01*
X35385283Y-13380952D02*
X35309093Y-13419047D01*
X35309093Y-13419047D02*
X35270998Y-13457142D01*
X35270998Y-13457142D02*
X35232902Y-13533333D01*
X35232902Y-13533333D02*
X35194807Y-13685714D01*
X35194807Y-13685714D02*
X35156712Y-13761904D01*
X35156712Y-13761904D02*
X35118617Y-13799999D01*
X35118617Y-13799999D02*
X35042426Y-13838095D01*
X35042426Y-13838095D02*
X34966236Y-13838095D01*
X34966236Y-13838095D02*
X34890045Y-13799999D01*
X34890045Y-13799999D02*
X34851950Y-13761904D01*
X34851950Y-13761904D02*
X34813855Y-13685714D01*
X34813855Y-13685714D02*
X34813855Y-13495237D01*
X34813855Y-13495237D02*
X34851950Y-13380952D01*
X35537664Y-12580951D02*
X35575760Y-12619047D01*
X35575760Y-12619047D02*
X35613855Y-12733332D01*
X35613855Y-12733332D02*
X35613855Y-12809523D01*
X35613855Y-12809523D02*
X35575760Y-12923809D01*
X35575760Y-12923809D02*
X35499569Y-12999999D01*
X35499569Y-12999999D02*
X35423379Y-13038094D01*
X35423379Y-13038094D02*
X35270998Y-13076190D01*
X35270998Y-13076190D02*
X35156712Y-13076190D01*
X35156712Y-13076190D02*
X35004331Y-13038094D01*
X35004331Y-13038094D02*
X34928140Y-12999999D01*
X34928140Y-12999999D02*
X34851950Y-12923809D01*
X34851950Y-12923809D02*
X34813855Y-12809523D01*
X34813855Y-12809523D02*
X34813855Y-12733332D01*
X34813855Y-12733332D02*
X34851950Y-12619047D01*
X34851950Y-12619047D02*
X34890045Y-12580951D01*
X35385283Y-12276190D02*
X35385283Y-11895237D01*
X35613855Y-12352380D02*
X34813855Y-12085713D01*
X34813855Y-12085713D02*
X35613855Y-11819047D01*
X35613855Y-11171428D02*
X35613855Y-11552380D01*
X35613855Y-11552380D02*
X34813855Y-11552380D01*
X35385283Y-10942857D02*
X35385283Y-10561904D01*
X35613855Y-11019047D02*
X34813855Y-10752380D01*
X34813855Y-10752380D02*
X35613855Y-10485714D01*
X38113855Y-14257142D02*
X37313855Y-14257142D01*
X37694807Y-14257142D02*
X37694807Y-13799999D01*
X38113855Y-13799999D02*
X37313855Y-13799999D01*
X38113855Y-13419047D02*
X37313855Y-13419047D01*
X37313855Y-13419047D02*
X37313855Y-13114285D01*
X37313855Y-13114285D02*
X37351950Y-13038095D01*
X37351950Y-13038095D02*
X37390045Y-13000000D01*
X37390045Y-13000000D02*
X37466236Y-12961904D01*
X37466236Y-12961904D02*
X37580521Y-12961904D01*
X37580521Y-12961904D02*
X37656712Y-13000000D01*
X37656712Y-13000000D02*
X37694807Y-13038095D01*
X37694807Y-13038095D02*
X37732902Y-13114285D01*
X37732902Y-13114285D02*
X37732902Y-13419047D01*
X38113855Y-12619047D02*
X37313855Y-12619047D01*
X37694807Y-12619047D02*
X37694807Y-12161904D01*
X38113855Y-12161904D02*
X37313855Y-12161904D01*
X37694807Y-11780952D02*
X37694807Y-11514286D01*
X38113855Y-11400000D02*
X38113855Y-11780952D01*
X38113855Y-11780952D02*
X37313855Y-11780952D01*
X37313855Y-11780952D02*
X37313855Y-11400000D01*
X37885283Y-11095238D02*
X37885283Y-10714285D01*
X38113855Y-11171428D02*
X37313855Y-10904761D01*
X37313855Y-10904761D02*
X38113855Y-10638095D01*
X37313855Y-10485714D02*
X37313855Y-10028571D01*
X38113855Y-10257143D02*
X37313855Y-10257143D01*
X40537664Y-12828570D02*
X40575760Y-12866666D01*
X40575760Y-12866666D02*
X40613855Y-12980951D01*
X40613855Y-12980951D02*
X40613855Y-13057142D01*
X40613855Y-13057142D02*
X40575760Y-13171428D01*
X40575760Y-13171428D02*
X40499569Y-13247618D01*
X40499569Y-13247618D02*
X40423379Y-13285713D01*
X40423379Y-13285713D02*
X40270998Y-13323809D01*
X40270998Y-13323809D02*
X40156712Y-13323809D01*
X40156712Y-13323809D02*
X40004331Y-13285713D01*
X40004331Y-13285713D02*
X39928140Y-13247618D01*
X39928140Y-13247618D02*
X39851950Y-13171428D01*
X39851950Y-13171428D02*
X39813855Y-13057142D01*
X39813855Y-13057142D02*
X39813855Y-12980951D01*
X39813855Y-12980951D02*
X39851950Y-12866666D01*
X39851950Y-12866666D02*
X39890045Y-12828570D01*
X39813855Y-12333332D02*
X39813855Y-12180951D01*
X39813855Y-12180951D02*
X39851950Y-12104761D01*
X39851950Y-12104761D02*
X39928140Y-12028570D01*
X39928140Y-12028570D02*
X40080521Y-11990475D01*
X40080521Y-11990475D02*
X40347188Y-11990475D01*
X40347188Y-11990475D02*
X40499569Y-12028570D01*
X40499569Y-12028570D02*
X40575760Y-12104761D01*
X40575760Y-12104761D02*
X40613855Y-12180951D01*
X40613855Y-12180951D02*
X40613855Y-12333332D01*
X40613855Y-12333332D02*
X40575760Y-12409523D01*
X40575760Y-12409523D02*
X40499569Y-12485713D01*
X40499569Y-12485713D02*
X40347188Y-12523809D01*
X40347188Y-12523809D02*
X40080521Y-12523809D01*
X40080521Y-12523809D02*
X39928140Y-12485713D01*
X39928140Y-12485713D02*
X39851950Y-12409523D01*
X39851950Y-12409523D02*
X39813855Y-12333332D01*
X40613855Y-11647618D02*
X39813855Y-11647618D01*
X39813855Y-11647618D02*
X40385283Y-11380952D01*
X40385283Y-11380952D02*
X39813855Y-11114285D01*
X39813855Y-11114285D02*
X40613855Y-11114285D01*
X44090045Y-14295238D02*
X44051950Y-14257142D01*
X44051950Y-14257142D02*
X44013855Y-14180952D01*
X44013855Y-14180952D02*
X44013855Y-13990476D01*
X44013855Y-13990476D02*
X44051950Y-13914285D01*
X44051950Y-13914285D02*
X44090045Y-13876190D01*
X44090045Y-13876190D02*
X44166236Y-13838095D01*
X44166236Y-13838095D02*
X44242426Y-13838095D01*
X44242426Y-13838095D02*
X44356712Y-13876190D01*
X44356712Y-13876190D02*
X44813855Y-14333333D01*
X44813855Y-14333333D02*
X44813855Y-13838095D01*
X44280521Y-13152380D02*
X44813855Y-13152380D01*
X43975760Y-13342856D02*
X44547188Y-13533333D01*
X44547188Y-13533333D02*
X44547188Y-13038094D01*
X44013855Y-12847618D02*
X44813855Y-12580951D01*
X44813855Y-12580951D02*
X44013855Y-12314285D01*
X44585283Y-12085714D02*
X44585283Y-11704761D01*
X44813855Y-12161904D02*
X44013855Y-11895237D01*
X44013855Y-11895237D02*
X44813855Y-11628571D01*
X44737664Y-10904761D02*
X44775760Y-10942857D01*
X44775760Y-10942857D02*
X44813855Y-11057142D01*
X44813855Y-11057142D02*
X44813855Y-11133333D01*
X44813855Y-11133333D02*
X44775760Y-11247619D01*
X44775760Y-11247619D02*
X44699569Y-11323809D01*
X44699569Y-11323809D02*
X44623379Y-11361904D01*
X44623379Y-11361904D02*
X44470998Y-11400000D01*
X44470998Y-11400000D02*
X44356712Y-11400000D01*
X44356712Y-11400000D02*
X44204331Y-11361904D01*
X44204331Y-11361904D02*
X44128140Y-11323809D01*
X44128140Y-11323809D02*
X44051950Y-11247619D01*
X44051950Y-11247619D02*
X44013855Y-11133333D01*
X44013855Y-11133333D02*
X44013855Y-11057142D01*
X44013855Y-11057142D02*
X44051950Y-10942857D01*
X44051950Y-10942857D02*
X44090045Y-10904761D01*
X49775760Y-13723809D02*
X49813855Y-13609523D01*
X49813855Y-13609523D02*
X49813855Y-13419047D01*
X49813855Y-13419047D02*
X49775760Y-13342856D01*
X49775760Y-13342856D02*
X49737664Y-13304761D01*
X49737664Y-13304761D02*
X49661474Y-13266666D01*
X49661474Y-13266666D02*
X49585283Y-13266666D01*
X49585283Y-13266666D02*
X49509093Y-13304761D01*
X49509093Y-13304761D02*
X49470998Y-13342856D01*
X49470998Y-13342856D02*
X49432902Y-13419047D01*
X49432902Y-13419047D02*
X49394807Y-13571428D01*
X49394807Y-13571428D02*
X49356712Y-13647618D01*
X49356712Y-13647618D02*
X49318617Y-13685713D01*
X49318617Y-13685713D02*
X49242426Y-13723809D01*
X49242426Y-13723809D02*
X49166236Y-13723809D01*
X49166236Y-13723809D02*
X49090045Y-13685713D01*
X49090045Y-13685713D02*
X49051950Y-13647618D01*
X49051950Y-13647618D02*
X49013855Y-13571428D01*
X49013855Y-13571428D02*
X49013855Y-13380951D01*
X49013855Y-13380951D02*
X49051950Y-13266666D01*
X49813855Y-12923808D02*
X49013855Y-12923808D01*
X49013855Y-12923808D02*
X49013855Y-12619046D01*
X49013855Y-12619046D02*
X49051950Y-12542856D01*
X49051950Y-12542856D02*
X49090045Y-12504761D01*
X49090045Y-12504761D02*
X49166236Y-12466665D01*
X49166236Y-12466665D02*
X49280521Y-12466665D01*
X49280521Y-12466665D02*
X49356712Y-12504761D01*
X49356712Y-12504761D02*
X49394807Y-12542856D01*
X49394807Y-12542856D02*
X49432902Y-12619046D01*
X49432902Y-12619046D02*
X49432902Y-12923808D01*
X49509093Y-12123808D02*
X49509093Y-11514285D01*
X49813855Y-11133332D02*
X49013855Y-11133332D01*
X49013855Y-11133332D02*
X49013855Y-10942856D01*
X49013855Y-10942856D02*
X49051950Y-10828570D01*
X49051950Y-10828570D02*
X49128140Y-10752380D01*
X49128140Y-10752380D02*
X49204331Y-10714285D01*
X49204331Y-10714285D02*
X49356712Y-10676189D01*
X49356712Y-10676189D02*
X49470998Y-10676189D01*
X49470998Y-10676189D02*
X49623379Y-10714285D01*
X49623379Y-10714285D02*
X49699569Y-10752380D01*
X49699569Y-10752380D02*
X49775760Y-10828570D01*
X49775760Y-10828570D02*
X49813855Y-10942856D01*
X49813855Y-10942856D02*
X49813855Y-11133332D01*
X52237664Y-12828570D02*
X52275760Y-12866666D01*
X52275760Y-12866666D02*
X52313855Y-12980951D01*
X52313855Y-12980951D02*
X52313855Y-13057142D01*
X52313855Y-13057142D02*
X52275760Y-13171428D01*
X52275760Y-13171428D02*
X52199569Y-13247618D01*
X52199569Y-13247618D02*
X52123379Y-13285713D01*
X52123379Y-13285713D02*
X51970998Y-13323809D01*
X51970998Y-13323809D02*
X51856712Y-13323809D01*
X51856712Y-13323809D02*
X51704331Y-13285713D01*
X51704331Y-13285713D02*
X51628140Y-13247618D01*
X51628140Y-13247618D02*
X51551950Y-13171428D01*
X51551950Y-13171428D02*
X51513855Y-13057142D01*
X51513855Y-13057142D02*
X51513855Y-12980951D01*
X51513855Y-12980951D02*
X51551950Y-12866666D01*
X51551950Y-12866666D02*
X51590045Y-12828570D01*
X51513855Y-12333332D02*
X51513855Y-12180951D01*
X51513855Y-12180951D02*
X51551950Y-12104761D01*
X51551950Y-12104761D02*
X51628140Y-12028570D01*
X51628140Y-12028570D02*
X51780521Y-11990475D01*
X51780521Y-11990475D02*
X52047188Y-11990475D01*
X52047188Y-11990475D02*
X52199569Y-12028570D01*
X52199569Y-12028570D02*
X52275760Y-12104761D01*
X52275760Y-12104761D02*
X52313855Y-12180951D01*
X52313855Y-12180951D02*
X52313855Y-12333332D01*
X52313855Y-12333332D02*
X52275760Y-12409523D01*
X52275760Y-12409523D02*
X52199569Y-12485713D01*
X52199569Y-12485713D02*
X52047188Y-12523809D01*
X52047188Y-12523809D02*
X51780521Y-12523809D01*
X51780521Y-12523809D02*
X51628140Y-12485713D01*
X51628140Y-12485713D02*
X51551950Y-12409523D01*
X51551950Y-12409523D02*
X51513855Y-12333332D01*
X52313855Y-11647618D02*
X51513855Y-11647618D01*
X51513855Y-11647618D02*
X52085283Y-11380952D01*
X52085283Y-11380952D02*
X51513855Y-11114285D01*
X51513855Y-11114285D02*
X52313855Y-11114285D01*
D11*
X12833333Y-12761775D02*
X12833333Y-13333203D01*
X12833333Y-13333203D02*
X12795238Y-13447489D01*
X12795238Y-13447489D02*
X12719047Y-13523680D01*
X12719047Y-13523680D02*
X12604762Y-13561775D01*
X12604762Y-13561775D02*
X12528571Y-13561775D01*
X13633333Y-13561775D02*
X13176190Y-13561775D01*
X13404762Y-13561775D02*
X13404762Y-12761775D01*
X13404762Y-12761775D02*
X13328571Y-12876060D01*
X13328571Y-12876060D02*
X13252381Y-12952251D01*
X13252381Y-12952251D02*
X13176190Y-12990346D01*
X24533333Y-12761775D02*
X24533333Y-13333203D01*
X24533333Y-13333203D02*
X24495238Y-13447489D01*
X24495238Y-13447489D02*
X24419047Y-13523680D01*
X24419047Y-13523680D02*
X24304762Y-13561775D01*
X24304762Y-13561775D02*
X24228571Y-13561775D01*
X24876190Y-12837965D02*
X24914286Y-12799870D01*
X24914286Y-12799870D02*
X24990476Y-12761775D01*
X24990476Y-12761775D02*
X25180952Y-12761775D01*
X25180952Y-12761775D02*
X25257143Y-12799870D01*
X25257143Y-12799870D02*
X25295238Y-12837965D01*
X25295238Y-12837965D02*
X25333333Y-12914156D01*
X25333333Y-12914156D02*
X25333333Y-12990346D01*
X25333333Y-12990346D02*
X25295238Y-13104632D01*
X25295238Y-13104632D02*
X24838095Y-13561775D01*
X24838095Y-13561775D02*
X25333333Y-13561775D01*
X36233333Y-12761775D02*
X36233333Y-13333203D01*
X36233333Y-13333203D02*
X36195238Y-13447489D01*
X36195238Y-13447489D02*
X36119047Y-13523680D01*
X36119047Y-13523680D02*
X36004762Y-13561775D01*
X36004762Y-13561775D02*
X35928571Y-13561775D01*
X36538095Y-12761775D02*
X37033333Y-12761775D01*
X37033333Y-12761775D02*
X36766667Y-13066537D01*
X36766667Y-13066537D02*
X36880952Y-13066537D01*
X36880952Y-13066537D02*
X36957143Y-13104632D01*
X36957143Y-13104632D02*
X36995238Y-13142727D01*
X36995238Y-13142727D02*
X37033333Y-13218918D01*
X37033333Y-13218918D02*
X37033333Y-13409394D01*
X37033333Y-13409394D02*
X36995238Y-13485584D01*
X36995238Y-13485584D02*
X36957143Y-13523680D01*
X36957143Y-13523680D02*
X36880952Y-13561775D01*
X36880952Y-13561775D02*
X36652381Y-13561775D01*
X36652381Y-13561775D02*
X36576190Y-13523680D01*
X36576190Y-13523680D02*
X36538095Y-13485584D01*
X47933333Y-12761775D02*
X47933333Y-13333203D01*
X47933333Y-13333203D02*
X47895238Y-13447489D01*
X47895238Y-13447489D02*
X47819047Y-13523680D01*
X47819047Y-13523680D02*
X47704762Y-13561775D01*
X47704762Y-13561775D02*
X47628571Y-13561775D01*
X48657143Y-13028441D02*
X48657143Y-13561775D01*
X48466667Y-12723680D02*
X48276190Y-13295108D01*
X48276190Y-13295108D02*
X48771429Y-13295108D01*
D10*
X34733855Y-53633332D02*
X34352902Y-53899999D01*
X34733855Y-54090475D02*
X33933855Y-54090475D01*
X33933855Y-54090475D02*
X33933855Y-53785713D01*
X33933855Y-53785713D02*
X33971950Y-53709523D01*
X33971950Y-53709523D02*
X34010045Y-53671428D01*
X34010045Y-53671428D02*
X34086236Y-53633332D01*
X34086236Y-53633332D02*
X34200521Y-53633332D01*
X34200521Y-53633332D02*
X34276712Y-53671428D01*
X34276712Y-53671428D02*
X34314807Y-53709523D01*
X34314807Y-53709523D02*
X34352902Y-53785713D01*
X34352902Y-53785713D02*
X34352902Y-54090475D01*
X34733855Y-53252380D02*
X34733855Y-53099999D01*
X34733855Y-53099999D02*
X34695760Y-53023809D01*
X34695760Y-53023809D02*
X34657664Y-52985713D01*
X34657664Y-52985713D02*
X34543379Y-52909523D01*
X34543379Y-52909523D02*
X34390998Y-52871428D01*
X34390998Y-52871428D02*
X34086236Y-52871428D01*
X34086236Y-52871428D02*
X34010045Y-52909523D01*
X34010045Y-52909523D02*
X33971950Y-52947618D01*
X33971950Y-52947618D02*
X33933855Y-53023809D01*
X33933855Y-53023809D02*
X33933855Y-53176190D01*
X33933855Y-53176190D02*
X33971950Y-53252380D01*
X33971950Y-53252380D02*
X34010045Y-53290475D01*
X34010045Y-53290475D02*
X34086236Y-53328571D01*
X34086236Y-53328571D02*
X34276712Y-53328571D01*
X34276712Y-53328571D02*
X34352902Y-53290475D01*
X34352902Y-53290475D02*
X34390998Y-53252380D01*
X34390998Y-53252380D02*
X34429093Y-53176190D01*
X34429093Y-53176190D02*
X34429093Y-53023809D01*
X34429093Y-53023809D02*
X34390998Y-52947618D01*
X34390998Y-52947618D02*
X34352902Y-52909523D01*
X34352902Y-52909523D02*
X34276712Y-52871428D01*
X38733855Y-41133332D02*
X38352902Y-41399999D01*
X38733855Y-41590475D02*
X37933855Y-41590475D01*
X37933855Y-41590475D02*
X37933855Y-41285713D01*
X37933855Y-41285713D02*
X37971950Y-41209523D01*
X37971950Y-41209523D02*
X38010045Y-41171428D01*
X38010045Y-41171428D02*
X38086236Y-41133332D01*
X38086236Y-41133332D02*
X38200521Y-41133332D01*
X38200521Y-41133332D02*
X38276712Y-41171428D01*
X38276712Y-41171428D02*
X38314807Y-41209523D01*
X38314807Y-41209523D02*
X38352902Y-41285713D01*
X38352902Y-41285713D02*
X38352902Y-41590475D01*
X37933855Y-40447618D02*
X37933855Y-40599999D01*
X37933855Y-40599999D02*
X37971950Y-40676190D01*
X37971950Y-40676190D02*
X38010045Y-40714285D01*
X38010045Y-40714285D02*
X38124331Y-40790475D01*
X38124331Y-40790475D02*
X38276712Y-40828571D01*
X38276712Y-40828571D02*
X38581474Y-40828571D01*
X38581474Y-40828571D02*
X38657664Y-40790475D01*
X38657664Y-40790475D02*
X38695760Y-40752380D01*
X38695760Y-40752380D02*
X38733855Y-40676190D01*
X38733855Y-40676190D02*
X38733855Y-40523809D01*
X38733855Y-40523809D02*
X38695760Y-40447618D01*
X38695760Y-40447618D02*
X38657664Y-40409523D01*
X38657664Y-40409523D02*
X38581474Y-40371428D01*
X38581474Y-40371428D02*
X38390998Y-40371428D01*
X38390998Y-40371428D02*
X38314807Y-40409523D01*
X38314807Y-40409523D02*
X38276712Y-40447618D01*
X38276712Y-40447618D02*
X38238617Y-40523809D01*
X38238617Y-40523809D02*
X38238617Y-40676190D01*
X38238617Y-40676190D02*
X38276712Y-40752380D01*
X38276712Y-40752380D02*
X38314807Y-40790475D01*
X38314807Y-40790475D02*
X38390998Y-40828571D01*
X24533333Y-4913855D02*
X24533333Y-5485283D01*
X24533333Y-5485283D02*
X24495238Y-5599569D01*
X24495238Y-5599569D02*
X24419047Y-5675760D01*
X24419047Y-5675760D02*
X24304762Y-5713855D01*
X24304762Y-5713855D02*
X24228571Y-5713855D01*
X24876190Y-4990045D02*
X24914286Y-4951950D01*
X24914286Y-4951950D02*
X24990476Y-4913855D01*
X24990476Y-4913855D02*
X25180952Y-4913855D01*
X25180952Y-4913855D02*
X25257143Y-4951950D01*
X25257143Y-4951950D02*
X25295238Y-4990045D01*
X25295238Y-4990045D02*
X25333333Y-5066236D01*
X25333333Y-5066236D02*
X25333333Y-5142426D01*
X25333333Y-5142426D02*
X25295238Y-5256712D01*
X25295238Y-5256712D02*
X24838095Y-5713855D01*
X24838095Y-5713855D02*
X25333333Y-5713855D01*
D12*
X21250000Y-10468373D02*
X20850000Y-10468373D01*
X21050000Y-10468373D02*
X21050000Y-9768373D01*
X21050000Y-9768373D02*
X20983333Y-9868373D01*
X20983333Y-9868373D02*
X20916667Y-9935040D01*
X20916667Y-9935040D02*
X20850000Y-9968373D01*
D10*
X12733333Y-79163855D02*
X12733333Y-79735283D01*
X12733333Y-79735283D02*
X12695238Y-79849569D01*
X12695238Y-79849569D02*
X12619047Y-79925760D01*
X12619047Y-79925760D02*
X12504762Y-79963855D01*
X12504762Y-79963855D02*
X12428571Y-79963855D01*
X13457143Y-79163855D02*
X13304762Y-79163855D01*
X13304762Y-79163855D02*
X13228571Y-79201950D01*
X13228571Y-79201950D02*
X13190476Y-79240045D01*
X13190476Y-79240045D02*
X13114286Y-79354331D01*
X13114286Y-79354331D02*
X13076190Y-79506712D01*
X13076190Y-79506712D02*
X13076190Y-79811474D01*
X13076190Y-79811474D02*
X13114286Y-79887664D01*
X13114286Y-79887664D02*
X13152381Y-79925760D01*
X13152381Y-79925760D02*
X13228571Y-79963855D01*
X13228571Y-79963855D02*
X13380952Y-79963855D01*
X13380952Y-79963855D02*
X13457143Y-79925760D01*
X13457143Y-79925760D02*
X13495238Y-79887664D01*
X13495238Y-79887664D02*
X13533333Y-79811474D01*
X13533333Y-79811474D02*
X13533333Y-79620998D01*
X13533333Y-79620998D02*
X13495238Y-79544807D01*
X13495238Y-79544807D02*
X13457143Y-79506712D01*
X13457143Y-79506712D02*
X13380952Y-79468617D01*
X13380952Y-79468617D02*
X13228571Y-79468617D01*
X13228571Y-79468617D02*
X13152381Y-79506712D01*
X13152381Y-79506712D02*
X13114286Y-79544807D01*
X13114286Y-79544807D02*
X13076190Y-79620998D01*
D12*
X18200000Y-75118373D02*
X17800000Y-75118373D01*
X18000000Y-75118373D02*
X18000000Y-74418373D01*
X18000000Y-74418373D02*
X17933333Y-74518373D01*
X17933333Y-74518373D02*
X17866667Y-74585040D01*
X17866667Y-74585040D02*
X17800000Y-74618373D01*
D10*
X53990476Y-44023855D02*
X54447619Y-44023855D01*
X54219047Y-44823855D02*
X54219047Y-44023855D01*
X54714286Y-44823855D02*
X54714286Y-44023855D01*
X54714286Y-44023855D02*
X55019048Y-44023855D01*
X55019048Y-44023855D02*
X55095238Y-44061950D01*
X55095238Y-44061950D02*
X55133333Y-44100045D01*
X55133333Y-44100045D02*
X55171429Y-44176236D01*
X55171429Y-44176236D02*
X55171429Y-44290521D01*
X55171429Y-44290521D02*
X55133333Y-44366712D01*
X55133333Y-44366712D02*
X55095238Y-44404807D01*
X55095238Y-44404807D02*
X55019048Y-44442902D01*
X55019048Y-44442902D02*
X54714286Y-44442902D01*
X55438095Y-44023855D02*
X55933333Y-44023855D01*
X55933333Y-44023855D02*
X55666667Y-44328617D01*
X55666667Y-44328617D02*
X55780952Y-44328617D01*
X55780952Y-44328617D02*
X55857143Y-44366712D01*
X55857143Y-44366712D02*
X55895238Y-44404807D01*
X55895238Y-44404807D02*
X55933333Y-44480998D01*
X55933333Y-44480998D02*
X55933333Y-44671474D01*
X55933333Y-44671474D02*
X55895238Y-44747664D01*
X55895238Y-44747664D02*
X55857143Y-44785760D01*
X55857143Y-44785760D02*
X55780952Y-44823855D01*
X55780952Y-44823855D02*
X55552381Y-44823855D01*
X55552381Y-44823855D02*
X55476190Y-44785760D01*
X55476190Y-44785760D02*
X55438095Y-44747664D01*
X36989524Y-64893855D02*
X36989524Y-64093855D01*
X36989524Y-64093855D02*
X37180000Y-64093855D01*
X37180000Y-64093855D02*
X37294286Y-64131950D01*
X37294286Y-64131950D02*
X37370476Y-64208140D01*
X37370476Y-64208140D02*
X37408571Y-64284331D01*
X37408571Y-64284331D02*
X37446667Y-64436712D01*
X37446667Y-64436712D02*
X37446667Y-64550998D01*
X37446667Y-64550998D02*
X37408571Y-64703379D01*
X37408571Y-64703379D02*
X37370476Y-64779569D01*
X37370476Y-64779569D02*
X37294286Y-64855760D01*
X37294286Y-64855760D02*
X37180000Y-64893855D01*
X37180000Y-64893855D02*
X36989524Y-64893855D01*
X38208571Y-64893855D02*
X37751428Y-64893855D01*
X37980000Y-64893855D02*
X37980000Y-64093855D01*
X37980000Y-64093855D02*
X37903809Y-64208140D01*
X37903809Y-64208140D02*
X37827619Y-64284331D01*
X37827619Y-64284331D02*
X37751428Y-64322426D01*
D13*
X32238095Y-65354819D02*
X32238095Y-64354819D01*
X32809523Y-65354819D02*
X32380952Y-64783390D01*
X32809523Y-64354819D02*
X32238095Y-64926247D01*
D10*
X7733855Y-54109523D02*
X8381474Y-54109523D01*
X8381474Y-54109523D02*
X8457664Y-54071428D01*
X8457664Y-54071428D02*
X8495760Y-54033333D01*
X8495760Y-54033333D02*
X8533855Y-53957142D01*
X8533855Y-53957142D02*
X8533855Y-53804761D01*
X8533855Y-53804761D02*
X8495760Y-53728571D01*
X8495760Y-53728571D02*
X8457664Y-53690476D01*
X8457664Y-53690476D02*
X8381474Y-53652380D01*
X8381474Y-53652380D02*
X7733855Y-53652380D01*
X7733855Y-53347619D02*
X7733855Y-52852381D01*
X7733855Y-52852381D02*
X8038617Y-53119047D01*
X8038617Y-53119047D02*
X8038617Y-53004762D01*
X8038617Y-53004762D02*
X8076712Y-52928571D01*
X8076712Y-52928571D02*
X8114807Y-52890476D01*
X8114807Y-52890476D02*
X8190998Y-52852381D01*
X8190998Y-52852381D02*
X8381474Y-52852381D01*
X8381474Y-52852381D02*
X8457664Y-52890476D01*
X8457664Y-52890476D02*
X8495760Y-52928571D01*
X8495760Y-52928571D02*
X8533855Y-53004762D01*
X8533855Y-53004762D02*
X8533855Y-53233333D01*
X8533855Y-53233333D02*
X8495760Y-53309524D01*
X8495760Y-53309524D02*
X8457664Y-53347619D01*
X49989524Y-64893855D02*
X49989524Y-64093855D01*
X49989524Y-64093855D02*
X50180000Y-64093855D01*
X50180000Y-64093855D02*
X50294286Y-64131950D01*
X50294286Y-64131950D02*
X50370476Y-64208140D01*
X50370476Y-64208140D02*
X50408571Y-64284331D01*
X50408571Y-64284331D02*
X50446667Y-64436712D01*
X50446667Y-64436712D02*
X50446667Y-64550998D01*
X50446667Y-64550998D02*
X50408571Y-64703379D01*
X50408571Y-64703379D02*
X50370476Y-64779569D01*
X50370476Y-64779569D02*
X50294286Y-64855760D01*
X50294286Y-64855760D02*
X50180000Y-64893855D01*
X50180000Y-64893855D02*
X49989524Y-64893855D01*
X50713333Y-64093855D02*
X51208571Y-64093855D01*
X51208571Y-64093855D02*
X50941905Y-64398617D01*
X50941905Y-64398617D02*
X51056190Y-64398617D01*
X51056190Y-64398617D02*
X51132381Y-64436712D01*
X51132381Y-64436712D02*
X51170476Y-64474807D01*
X51170476Y-64474807D02*
X51208571Y-64550998D01*
X51208571Y-64550998D02*
X51208571Y-64741474D01*
X51208571Y-64741474D02*
X51170476Y-64817664D01*
X51170476Y-64817664D02*
X51132381Y-64855760D01*
X51132381Y-64855760D02*
X51056190Y-64893855D01*
X51056190Y-64893855D02*
X50827619Y-64893855D01*
X50827619Y-64893855D02*
X50751428Y-64855760D01*
X50751428Y-64855760D02*
X50713333Y-64817664D01*
D13*
X45238095Y-65354819D02*
X45238095Y-64354819D01*
X45809523Y-65354819D02*
X45380952Y-64783390D01*
X45809523Y-64354819D02*
X45238095Y-64926247D01*
D10*
X46733855Y-54014285D02*
X46352902Y-54280952D01*
X46733855Y-54471428D02*
X45933855Y-54471428D01*
X45933855Y-54471428D02*
X45933855Y-54166666D01*
X45933855Y-54166666D02*
X45971950Y-54090476D01*
X45971950Y-54090476D02*
X46010045Y-54052381D01*
X46010045Y-54052381D02*
X46086236Y-54014285D01*
X46086236Y-54014285D02*
X46200521Y-54014285D01*
X46200521Y-54014285D02*
X46276712Y-54052381D01*
X46276712Y-54052381D02*
X46314807Y-54090476D01*
X46314807Y-54090476D02*
X46352902Y-54166666D01*
X46352902Y-54166666D02*
X46352902Y-54471428D01*
X46733855Y-53252381D02*
X46733855Y-53709524D01*
X46733855Y-53480952D02*
X45933855Y-53480952D01*
X45933855Y-53480952D02*
X46048140Y-53557143D01*
X46048140Y-53557143D02*
X46124331Y-53633333D01*
X46124331Y-53633333D02*
X46162426Y-53709524D01*
X46010045Y-52947619D02*
X45971950Y-52909523D01*
X45971950Y-52909523D02*
X45933855Y-52833333D01*
X45933855Y-52833333D02*
X45933855Y-52642857D01*
X45933855Y-52642857D02*
X45971950Y-52566666D01*
X45971950Y-52566666D02*
X46010045Y-52528571D01*
X46010045Y-52528571D02*
X46086236Y-52490476D01*
X46086236Y-52490476D02*
X46162426Y-52490476D01*
X46162426Y-52490476D02*
X46276712Y-52528571D01*
X46276712Y-52528571D02*
X46733855Y-52985714D01*
X46733855Y-52985714D02*
X46733855Y-52490476D01*
X34733855Y-28633332D02*
X34352902Y-28899999D01*
X34733855Y-29090475D02*
X33933855Y-29090475D01*
X33933855Y-29090475D02*
X33933855Y-28785713D01*
X33933855Y-28785713D02*
X33971950Y-28709523D01*
X33971950Y-28709523D02*
X34010045Y-28671428D01*
X34010045Y-28671428D02*
X34086236Y-28633332D01*
X34086236Y-28633332D02*
X34200521Y-28633332D01*
X34200521Y-28633332D02*
X34276712Y-28671428D01*
X34276712Y-28671428D02*
X34314807Y-28709523D01*
X34314807Y-28709523D02*
X34352902Y-28785713D01*
X34352902Y-28785713D02*
X34352902Y-29090475D01*
X34733855Y-27871428D02*
X34733855Y-28328571D01*
X34733855Y-28099999D02*
X33933855Y-28099999D01*
X33933855Y-28099999D02*
X34048140Y-28176190D01*
X34048140Y-28176190D02*
X34124331Y-28252380D01*
X34124331Y-28252380D02*
X34162426Y-28328571D01*
X43226667Y-72323855D02*
X43226667Y-71523855D01*
X43226667Y-71523855D02*
X43531429Y-71523855D01*
X43531429Y-71523855D02*
X43607619Y-71561950D01*
X43607619Y-71561950D02*
X43645714Y-71600045D01*
X43645714Y-71600045D02*
X43683810Y-71676236D01*
X43683810Y-71676236D02*
X43683810Y-71790521D01*
X43683810Y-71790521D02*
X43645714Y-71866712D01*
X43645714Y-71866712D02*
X43607619Y-71904807D01*
X43607619Y-71904807D02*
X43531429Y-71942902D01*
X43531429Y-71942902D02*
X43226667Y-71942902D01*
X44293333Y-71904807D02*
X44026667Y-71904807D01*
X44026667Y-72323855D02*
X44026667Y-71523855D01*
X44026667Y-71523855D02*
X44407619Y-71523855D01*
X45131428Y-72323855D02*
X44674285Y-72323855D01*
X44902857Y-72323855D02*
X44902857Y-71523855D01*
X44902857Y-71523855D02*
X44826666Y-71638140D01*
X44826666Y-71638140D02*
X44750476Y-71714331D01*
X44750476Y-71714331D02*
X44674285Y-71752426D01*
X38733855Y-54014285D02*
X38352902Y-54280952D01*
X38733855Y-54471428D02*
X37933855Y-54471428D01*
X37933855Y-54471428D02*
X37933855Y-54166666D01*
X37933855Y-54166666D02*
X37971950Y-54090476D01*
X37971950Y-54090476D02*
X38010045Y-54052381D01*
X38010045Y-54052381D02*
X38086236Y-54014285D01*
X38086236Y-54014285D02*
X38200521Y-54014285D01*
X38200521Y-54014285D02*
X38276712Y-54052381D01*
X38276712Y-54052381D02*
X38314807Y-54090476D01*
X38314807Y-54090476D02*
X38352902Y-54166666D01*
X38352902Y-54166666D02*
X38352902Y-54471428D01*
X38733855Y-53252381D02*
X38733855Y-53709524D01*
X38733855Y-53480952D02*
X37933855Y-53480952D01*
X37933855Y-53480952D02*
X38048140Y-53557143D01*
X38048140Y-53557143D02*
X38124331Y-53633333D01*
X38124331Y-53633333D02*
X38162426Y-53709524D01*
X37933855Y-52757142D02*
X37933855Y-52680952D01*
X37933855Y-52680952D02*
X37971950Y-52604761D01*
X37971950Y-52604761D02*
X38010045Y-52566666D01*
X38010045Y-52566666D02*
X38086236Y-52528571D01*
X38086236Y-52528571D02*
X38238617Y-52490476D01*
X38238617Y-52490476D02*
X38429093Y-52490476D01*
X38429093Y-52490476D02*
X38581474Y-52528571D01*
X38581474Y-52528571D02*
X38657664Y-52566666D01*
X38657664Y-52566666D02*
X38695760Y-52604761D01*
X38695760Y-52604761D02*
X38733855Y-52680952D01*
X38733855Y-52680952D02*
X38733855Y-52757142D01*
X38733855Y-52757142D02*
X38695760Y-52833333D01*
X38695760Y-52833333D02*
X38657664Y-52871428D01*
X38657664Y-52871428D02*
X38581474Y-52909523D01*
X38581474Y-52909523D02*
X38429093Y-52947619D01*
X38429093Y-52947619D02*
X38238617Y-52947619D01*
X38238617Y-52947619D02*
X38086236Y-52909523D01*
X38086236Y-52909523D02*
X38010045Y-52871428D01*
X38010045Y-52871428D02*
X37971950Y-52833333D01*
X37971950Y-52833333D02*
X37933855Y-52757142D01*
X53990476Y-38023855D02*
X54447619Y-38023855D01*
X54219047Y-38823855D02*
X54219047Y-38023855D01*
X54714286Y-38823855D02*
X54714286Y-38023855D01*
X54714286Y-38023855D02*
X55019048Y-38023855D01*
X55019048Y-38023855D02*
X55095238Y-38061950D01*
X55095238Y-38061950D02*
X55133333Y-38100045D01*
X55133333Y-38100045D02*
X55171429Y-38176236D01*
X55171429Y-38176236D02*
X55171429Y-38290521D01*
X55171429Y-38290521D02*
X55133333Y-38366712D01*
X55133333Y-38366712D02*
X55095238Y-38404807D01*
X55095238Y-38404807D02*
X55019048Y-38442902D01*
X55019048Y-38442902D02*
X54714286Y-38442902D01*
X55933333Y-38823855D02*
X55476190Y-38823855D01*
X55704762Y-38823855D02*
X55704762Y-38023855D01*
X55704762Y-38023855D02*
X55628571Y-38138140D01*
X55628571Y-38138140D02*
X55552381Y-38214331D01*
X55552381Y-38214331D02*
X55476190Y-38252426D01*
X36989524Y-68093855D02*
X36989524Y-67293855D01*
X36989524Y-67293855D02*
X37180000Y-67293855D01*
X37180000Y-67293855D02*
X37294286Y-67331950D01*
X37294286Y-67331950D02*
X37370476Y-67408140D01*
X37370476Y-67408140D02*
X37408571Y-67484331D01*
X37408571Y-67484331D02*
X37446667Y-67636712D01*
X37446667Y-67636712D02*
X37446667Y-67750998D01*
X37446667Y-67750998D02*
X37408571Y-67903379D01*
X37408571Y-67903379D02*
X37370476Y-67979569D01*
X37370476Y-67979569D02*
X37294286Y-68055760D01*
X37294286Y-68055760D02*
X37180000Y-68093855D01*
X37180000Y-68093855D02*
X36989524Y-68093855D01*
X37751428Y-67370045D02*
X37789524Y-67331950D01*
X37789524Y-67331950D02*
X37865714Y-67293855D01*
X37865714Y-67293855D02*
X38056190Y-67293855D01*
X38056190Y-67293855D02*
X38132381Y-67331950D01*
X38132381Y-67331950D02*
X38170476Y-67370045D01*
X38170476Y-67370045D02*
X38208571Y-67446236D01*
X38208571Y-67446236D02*
X38208571Y-67522426D01*
X38208571Y-67522426D02*
X38170476Y-67636712D01*
X38170476Y-67636712D02*
X37713333Y-68093855D01*
X37713333Y-68093855D02*
X38208571Y-68093855D01*
D13*
X32238095Y-68554819D02*
X32238095Y-67554819D01*
X32809523Y-68554819D02*
X32380952Y-67983390D01*
X32809523Y-67554819D02*
X32238095Y-68126247D01*
D10*
X25933333Y-79163855D02*
X25933333Y-79735283D01*
X25933333Y-79735283D02*
X25895238Y-79849569D01*
X25895238Y-79849569D02*
X25819047Y-79925760D01*
X25819047Y-79925760D02*
X25704762Y-79963855D01*
X25704762Y-79963855D02*
X25628571Y-79963855D01*
X26238095Y-79163855D02*
X26771429Y-79163855D01*
X26771429Y-79163855D02*
X26428571Y-79963855D01*
D12*
X30150000Y-75118373D02*
X29750000Y-75118373D01*
X29950000Y-75118373D02*
X29950000Y-74418373D01*
X29950000Y-74418373D02*
X29883333Y-74518373D01*
X29883333Y-74518373D02*
X29816667Y-74585040D01*
X29816667Y-74585040D02*
X29750000Y-74618373D01*
D10*
X42733855Y-41133332D02*
X42352902Y-41399999D01*
X42733855Y-41590475D02*
X41933855Y-41590475D01*
X41933855Y-41590475D02*
X41933855Y-41285713D01*
X41933855Y-41285713D02*
X41971950Y-41209523D01*
X41971950Y-41209523D02*
X42010045Y-41171428D01*
X42010045Y-41171428D02*
X42086236Y-41133332D01*
X42086236Y-41133332D02*
X42200521Y-41133332D01*
X42200521Y-41133332D02*
X42276712Y-41171428D01*
X42276712Y-41171428D02*
X42314807Y-41209523D01*
X42314807Y-41209523D02*
X42352902Y-41285713D01*
X42352902Y-41285713D02*
X42352902Y-41590475D01*
X41933855Y-40866666D02*
X41933855Y-40333332D01*
X41933855Y-40333332D02*
X42733855Y-40676190D01*
X12833333Y-4913855D02*
X12833333Y-5485283D01*
X12833333Y-5485283D02*
X12795238Y-5599569D01*
X12795238Y-5599569D02*
X12719047Y-5675760D01*
X12719047Y-5675760D02*
X12604762Y-5713855D01*
X12604762Y-5713855D02*
X12528571Y-5713855D01*
X13633333Y-5713855D02*
X13176190Y-5713855D01*
X13404762Y-5713855D02*
X13404762Y-4913855D01*
X13404762Y-4913855D02*
X13328571Y-5028140D01*
X13328571Y-5028140D02*
X13252381Y-5104331D01*
X13252381Y-5104331D02*
X13176190Y-5142426D01*
D12*
X9550000Y-10468373D02*
X9150000Y-10468373D01*
X9350000Y-10468373D02*
X9350000Y-9768373D01*
X9350000Y-9768373D02*
X9283333Y-9868373D01*
X9283333Y-9868373D02*
X9216667Y-9935040D01*
X9216667Y-9935040D02*
X9150000Y-9968373D01*
D10*
X36233333Y-4913855D02*
X36233333Y-5485283D01*
X36233333Y-5485283D02*
X36195238Y-5599569D01*
X36195238Y-5599569D02*
X36119047Y-5675760D01*
X36119047Y-5675760D02*
X36004762Y-5713855D01*
X36004762Y-5713855D02*
X35928571Y-5713855D01*
X36538095Y-4913855D02*
X37033333Y-4913855D01*
X37033333Y-4913855D02*
X36766667Y-5218617D01*
X36766667Y-5218617D02*
X36880952Y-5218617D01*
X36880952Y-5218617D02*
X36957143Y-5256712D01*
X36957143Y-5256712D02*
X36995238Y-5294807D01*
X36995238Y-5294807D02*
X37033333Y-5370998D01*
X37033333Y-5370998D02*
X37033333Y-5561474D01*
X37033333Y-5561474D02*
X36995238Y-5637664D01*
X36995238Y-5637664D02*
X36957143Y-5675760D01*
X36957143Y-5675760D02*
X36880952Y-5713855D01*
X36880952Y-5713855D02*
X36652381Y-5713855D01*
X36652381Y-5713855D02*
X36576190Y-5675760D01*
X36576190Y-5675760D02*
X36538095Y-5637664D01*
D12*
X32950000Y-10468373D02*
X32550000Y-10468373D01*
X32750000Y-10468373D02*
X32750000Y-9768373D01*
X32750000Y-9768373D02*
X32683333Y-9868373D01*
X32683333Y-9868373D02*
X32616667Y-9935040D01*
X32616667Y-9935040D02*
X32550000Y-9968373D01*
D10*
X42733855Y-28633332D02*
X42352902Y-28899999D01*
X42733855Y-29090475D02*
X41933855Y-29090475D01*
X41933855Y-29090475D02*
X41933855Y-28785713D01*
X41933855Y-28785713D02*
X41971950Y-28709523D01*
X41971950Y-28709523D02*
X42010045Y-28671428D01*
X42010045Y-28671428D02*
X42086236Y-28633332D01*
X42086236Y-28633332D02*
X42200521Y-28633332D01*
X42200521Y-28633332D02*
X42276712Y-28671428D01*
X42276712Y-28671428D02*
X42314807Y-28709523D01*
X42314807Y-28709523D02*
X42352902Y-28785713D01*
X42352902Y-28785713D02*
X42352902Y-29090475D01*
X41933855Y-28366666D02*
X41933855Y-27871428D01*
X41933855Y-27871428D02*
X42238617Y-28138094D01*
X42238617Y-28138094D02*
X42238617Y-28023809D01*
X42238617Y-28023809D02*
X42276712Y-27947618D01*
X42276712Y-27947618D02*
X42314807Y-27909523D01*
X42314807Y-27909523D02*
X42390998Y-27871428D01*
X42390998Y-27871428D02*
X42581474Y-27871428D01*
X42581474Y-27871428D02*
X42657664Y-27909523D01*
X42657664Y-27909523D02*
X42695760Y-27947618D01*
X42695760Y-27947618D02*
X42733855Y-28023809D01*
X42733855Y-28023809D02*
X42733855Y-28252380D01*
X42733855Y-28252380D02*
X42695760Y-28328571D01*
X42695760Y-28328571D02*
X42657664Y-28366666D01*
X42733855Y-54014285D02*
X42352902Y-54280952D01*
X42733855Y-54471428D02*
X41933855Y-54471428D01*
X41933855Y-54471428D02*
X41933855Y-54166666D01*
X41933855Y-54166666D02*
X41971950Y-54090476D01*
X41971950Y-54090476D02*
X42010045Y-54052381D01*
X42010045Y-54052381D02*
X42086236Y-54014285D01*
X42086236Y-54014285D02*
X42200521Y-54014285D01*
X42200521Y-54014285D02*
X42276712Y-54052381D01*
X42276712Y-54052381D02*
X42314807Y-54090476D01*
X42314807Y-54090476D02*
X42352902Y-54166666D01*
X42352902Y-54166666D02*
X42352902Y-54471428D01*
X42733855Y-53252381D02*
X42733855Y-53709524D01*
X42733855Y-53480952D02*
X41933855Y-53480952D01*
X41933855Y-53480952D02*
X42048140Y-53557143D01*
X42048140Y-53557143D02*
X42124331Y-53633333D01*
X42124331Y-53633333D02*
X42162426Y-53709524D01*
X42733855Y-52490476D02*
X42733855Y-52947619D01*
X42733855Y-52719047D02*
X41933855Y-52719047D01*
X41933855Y-52719047D02*
X42048140Y-52795238D01*
X42048140Y-52795238D02*
X42124331Y-52871428D01*
X42124331Y-52871428D02*
X42162426Y-52947619D01*
X21366667Y-64037664D02*
X21328571Y-64075760D01*
X21328571Y-64075760D02*
X21214286Y-64113855D01*
X21214286Y-64113855D02*
X21138095Y-64113855D01*
X21138095Y-64113855D02*
X21023809Y-64075760D01*
X21023809Y-64075760D02*
X20947619Y-63999569D01*
X20947619Y-63999569D02*
X20909524Y-63923379D01*
X20909524Y-63923379D02*
X20871428Y-63770998D01*
X20871428Y-63770998D02*
X20871428Y-63656712D01*
X20871428Y-63656712D02*
X20909524Y-63504331D01*
X20909524Y-63504331D02*
X20947619Y-63428140D01*
X20947619Y-63428140D02*
X21023809Y-63351950D01*
X21023809Y-63351950D02*
X21138095Y-63313855D01*
X21138095Y-63313855D02*
X21214286Y-63313855D01*
X21214286Y-63313855D02*
X21328571Y-63351950D01*
X21328571Y-63351950D02*
X21366667Y-63390045D01*
X22128571Y-64113855D02*
X21671428Y-64113855D01*
X21900000Y-64113855D02*
X21900000Y-63313855D01*
X21900000Y-63313855D02*
X21823809Y-63428140D01*
X21823809Y-63428140D02*
X21747619Y-63504331D01*
X21747619Y-63504331D02*
X21671428Y-63542426D01*
X7733855Y-29109523D02*
X8381474Y-29109523D01*
X8381474Y-29109523D02*
X8457664Y-29071428D01*
X8457664Y-29071428D02*
X8495760Y-29033333D01*
X8495760Y-29033333D02*
X8533855Y-28957142D01*
X8533855Y-28957142D02*
X8533855Y-28804761D01*
X8533855Y-28804761D02*
X8495760Y-28728571D01*
X8495760Y-28728571D02*
X8457664Y-28690476D01*
X8457664Y-28690476D02*
X8381474Y-28652380D01*
X8381474Y-28652380D02*
X7733855Y-28652380D01*
X8533855Y-27852381D02*
X8533855Y-28309524D01*
X8533855Y-28080952D02*
X7733855Y-28080952D01*
X7733855Y-28080952D02*
X7848140Y-28157143D01*
X7848140Y-28157143D02*
X7924331Y-28233333D01*
X7924331Y-28233333D02*
X7962426Y-28309524D01*
X49989524Y-68093855D02*
X49989524Y-67293855D01*
X49989524Y-67293855D02*
X50180000Y-67293855D01*
X50180000Y-67293855D02*
X50294286Y-67331950D01*
X50294286Y-67331950D02*
X50370476Y-67408140D01*
X50370476Y-67408140D02*
X50408571Y-67484331D01*
X50408571Y-67484331D02*
X50446667Y-67636712D01*
X50446667Y-67636712D02*
X50446667Y-67750998D01*
X50446667Y-67750998D02*
X50408571Y-67903379D01*
X50408571Y-67903379D02*
X50370476Y-67979569D01*
X50370476Y-67979569D02*
X50294286Y-68055760D01*
X50294286Y-68055760D02*
X50180000Y-68093855D01*
X50180000Y-68093855D02*
X49989524Y-68093855D01*
X51132381Y-67560521D02*
X51132381Y-68093855D01*
X50941905Y-67255760D02*
X50751428Y-67827188D01*
X50751428Y-67827188D02*
X51246667Y-67827188D01*
D13*
X45238095Y-68554819D02*
X45238095Y-67554819D01*
X45809523Y-68554819D02*
X45380952Y-67983390D01*
X45809523Y-67554819D02*
X45238095Y-68126247D01*
D10*
X47933333Y-4913855D02*
X47933333Y-5485283D01*
X47933333Y-5485283D02*
X47895238Y-5599569D01*
X47895238Y-5599569D02*
X47819047Y-5675760D01*
X47819047Y-5675760D02*
X47704762Y-5713855D01*
X47704762Y-5713855D02*
X47628571Y-5713855D01*
X48657143Y-5180521D02*
X48657143Y-5713855D01*
X48466667Y-4875760D02*
X48276190Y-5447188D01*
X48276190Y-5447188D02*
X48771429Y-5447188D01*
D12*
X44650000Y-10468373D02*
X44250000Y-10468373D01*
X44450000Y-10468373D02*
X44450000Y-9768373D01*
X44450000Y-9768373D02*
X44383333Y-9868373D01*
X44383333Y-9868373D02*
X44316667Y-9935040D01*
X44316667Y-9935040D02*
X44250000Y-9968373D01*
D10*
X46733855Y-41133332D02*
X46352902Y-41399999D01*
X46733855Y-41590475D02*
X45933855Y-41590475D01*
X45933855Y-41590475D02*
X45933855Y-41285713D01*
X45933855Y-41285713D02*
X45971950Y-41209523D01*
X45971950Y-41209523D02*
X46010045Y-41171428D01*
X46010045Y-41171428D02*
X46086236Y-41133332D01*
X46086236Y-41133332D02*
X46200521Y-41133332D01*
X46200521Y-41133332D02*
X46276712Y-41171428D01*
X46276712Y-41171428D02*
X46314807Y-41209523D01*
X46314807Y-41209523D02*
X46352902Y-41285713D01*
X46352902Y-41285713D02*
X46352902Y-41590475D01*
X46276712Y-40676190D02*
X46238617Y-40752380D01*
X46238617Y-40752380D02*
X46200521Y-40790475D01*
X46200521Y-40790475D02*
X46124331Y-40828571D01*
X46124331Y-40828571D02*
X46086236Y-40828571D01*
X46086236Y-40828571D02*
X46010045Y-40790475D01*
X46010045Y-40790475D02*
X45971950Y-40752380D01*
X45971950Y-40752380D02*
X45933855Y-40676190D01*
X45933855Y-40676190D02*
X45933855Y-40523809D01*
X45933855Y-40523809D02*
X45971950Y-40447618D01*
X45971950Y-40447618D02*
X46010045Y-40409523D01*
X46010045Y-40409523D02*
X46086236Y-40371428D01*
X46086236Y-40371428D02*
X46124331Y-40371428D01*
X46124331Y-40371428D02*
X46200521Y-40409523D01*
X46200521Y-40409523D02*
X46238617Y-40447618D01*
X46238617Y-40447618D02*
X46276712Y-40523809D01*
X46276712Y-40523809D02*
X46276712Y-40676190D01*
X46276712Y-40676190D02*
X46314807Y-40752380D01*
X46314807Y-40752380D02*
X46352902Y-40790475D01*
X46352902Y-40790475D02*
X46429093Y-40828571D01*
X46429093Y-40828571D02*
X46581474Y-40828571D01*
X46581474Y-40828571D02*
X46657664Y-40790475D01*
X46657664Y-40790475D02*
X46695760Y-40752380D01*
X46695760Y-40752380D02*
X46733855Y-40676190D01*
X46733855Y-40676190D02*
X46733855Y-40523809D01*
X46733855Y-40523809D02*
X46695760Y-40447618D01*
X46695760Y-40447618D02*
X46657664Y-40409523D01*
X46657664Y-40409523D02*
X46581474Y-40371428D01*
X46581474Y-40371428D02*
X46429093Y-40371428D01*
X46429093Y-40371428D02*
X46352902Y-40409523D01*
X46352902Y-40409523D02*
X46314807Y-40447618D01*
X46314807Y-40447618D02*
X46276712Y-40523809D01*
X50194807Y-26266666D02*
X50194807Y-26533332D01*
X50613855Y-26533332D02*
X49813855Y-26533332D01*
X49813855Y-26533332D02*
X49813855Y-26152380D01*
X50613855Y-25428571D02*
X50613855Y-25885714D01*
X50613855Y-25657142D02*
X49813855Y-25657142D01*
X49813855Y-25657142D02*
X49928140Y-25733333D01*
X49928140Y-25733333D02*
X50004331Y-25809523D01*
X50004331Y-25809523D02*
X50042426Y-25885714D01*
X46733855Y-28633332D02*
X46352902Y-28899999D01*
X46733855Y-29090475D02*
X45933855Y-29090475D01*
X45933855Y-29090475D02*
X45933855Y-28785713D01*
X45933855Y-28785713D02*
X45971950Y-28709523D01*
X45971950Y-28709523D02*
X46010045Y-28671428D01*
X46010045Y-28671428D02*
X46086236Y-28633332D01*
X46086236Y-28633332D02*
X46200521Y-28633332D01*
X46200521Y-28633332D02*
X46276712Y-28671428D01*
X46276712Y-28671428D02*
X46314807Y-28709523D01*
X46314807Y-28709523D02*
X46352902Y-28785713D01*
X46352902Y-28785713D02*
X46352902Y-29090475D01*
X46200521Y-27947618D02*
X46733855Y-27947618D01*
X45895760Y-28138094D02*
X46467188Y-28328571D01*
X46467188Y-28328571D02*
X46467188Y-27833332D01*
X7733855Y-41609523D02*
X8381474Y-41609523D01*
X8381474Y-41609523D02*
X8457664Y-41571428D01*
X8457664Y-41571428D02*
X8495760Y-41533333D01*
X8495760Y-41533333D02*
X8533855Y-41457142D01*
X8533855Y-41457142D02*
X8533855Y-41304761D01*
X8533855Y-41304761D02*
X8495760Y-41228571D01*
X8495760Y-41228571D02*
X8457664Y-41190476D01*
X8457664Y-41190476D02*
X8381474Y-41152380D01*
X8381474Y-41152380D02*
X7733855Y-41152380D01*
X7810045Y-40809524D02*
X7771950Y-40771428D01*
X7771950Y-40771428D02*
X7733855Y-40695238D01*
X7733855Y-40695238D02*
X7733855Y-40504762D01*
X7733855Y-40504762D02*
X7771950Y-40428571D01*
X7771950Y-40428571D02*
X7810045Y-40390476D01*
X7810045Y-40390476D02*
X7886236Y-40352381D01*
X7886236Y-40352381D02*
X7962426Y-40352381D01*
X7962426Y-40352381D02*
X8076712Y-40390476D01*
X8076712Y-40390476D02*
X8533855Y-40847619D01*
X8533855Y-40847619D02*
X8533855Y-40352381D01*
X54733333Y-49523855D02*
X54733333Y-50095283D01*
X54733333Y-50095283D02*
X54695238Y-50209569D01*
X54695238Y-50209569D02*
X54619047Y-50285760D01*
X54619047Y-50285760D02*
X54504762Y-50323855D01*
X54504762Y-50323855D02*
X54428571Y-50323855D01*
X55228571Y-49866712D02*
X55152381Y-49828617D01*
X55152381Y-49828617D02*
X55114286Y-49790521D01*
X55114286Y-49790521D02*
X55076190Y-49714331D01*
X55076190Y-49714331D02*
X55076190Y-49676236D01*
X55076190Y-49676236D02*
X55114286Y-49600045D01*
X55114286Y-49600045D02*
X55152381Y-49561950D01*
X55152381Y-49561950D02*
X55228571Y-49523855D01*
X55228571Y-49523855D02*
X55380952Y-49523855D01*
X55380952Y-49523855D02*
X55457143Y-49561950D01*
X55457143Y-49561950D02*
X55495238Y-49600045D01*
X55495238Y-49600045D02*
X55533333Y-49676236D01*
X55533333Y-49676236D02*
X55533333Y-49714331D01*
X55533333Y-49714331D02*
X55495238Y-49790521D01*
X55495238Y-49790521D02*
X55457143Y-49828617D01*
X55457143Y-49828617D02*
X55380952Y-49866712D01*
X55380952Y-49866712D02*
X55228571Y-49866712D01*
X55228571Y-49866712D02*
X55152381Y-49904807D01*
X55152381Y-49904807D02*
X55114286Y-49942902D01*
X55114286Y-49942902D02*
X55076190Y-50019093D01*
X55076190Y-50019093D02*
X55076190Y-50171474D01*
X55076190Y-50171474D02*
X55114286Y-50247664D01*
X55114286Y-50247664D02*
X55152381Y-50285760D01*
X55152381Y-50285760D02*
X55228571Y-50323855D01*
X55228571Y-50323855D02*
X55380952Y-50323855D01*
X55380952Y-50323855D02*
X55457143Y-50285760D01*
X55457143Y-50285760D02*
X55495238Y-50247664D01*
X55495238Y-50247664D02*
X55533333Y-50171474D01*
X55533333Y-50171474D02*
X55533333Y-50019093D01*
X55533333Y-50019093D02*
X55495238Y-49942902D01*
X55495238Y-49942902D02*
X55457143Y-49904807D01*
X55457143Y-49904807D02*
X55380952Y-49866712D01*
X53990476Y-41023855D02*
X54447619Y-41023855D01*
X54219047Y-41823855D02*
X54219047Y-41023855D01*
X54714286Y-41823855D02*
X54714286Y-41023855D01*
X54714286Y-41023855D02*
X55019048Y-41023855D01*
X55019048Y-41023855D02*
X55095238Y-41061950D01*
X55095238Y-41061950D02*
X55133333Y-41100045D01*
X55133333Y-41100045D02*
X55171429Y-41176236D01*
X55171429Y-41176236D02*
X55171429Y-41290521D01*
X55171429Y-41290521D02*
X55133333Y-41366712D01*
X55133333Y-41366712D02*
X55095238Y-41404807D01*
X55095238Y-41404807D02*
X55019048Y-41442902D01*
X55019048Y-41442902D02*
X54714286Y-41442902D01*
X55476190Y-41100045D02*
X55514286Y-41061950D01*
X55514286Y-41061950D02*
X55590476Y-41023855D01*
X55590476Y-41023855D02*
X55780952Y-41023855D01*
X55780952Y-41023855D02*
X55857143Y-41061950D01*
X55857143Y-41061950D02*
X55895238Y-41100045D01*
X55895238Y-41100045D02*
X55933333Y-41176236D01*
X55933333Y-41176236D02*
X55933333Y-41252426D01*
X55933333Y-41252426D02*
X55895238Y-41366712D01*
X55895238Y-41366712D02*
X55438095Y-41823855D01*
X55438095Y-41823855D02*
X55933333Y-41823855D01*
X7043333Y-5333855D02*
X7043333Y-5905283D01*
X7043333Y-5905283D02*
X7005238Y-6019569D01*
X7005238Y-6019569D02*
X6929047Y-6095760D01*
X6929047Y-6095760D02*
X6814762Y-6133855D01*
X6814762Y-6133855D02*
X6738571Y-6133855D01*
X7462381Y-6133855D02*
X7614762Y-6133855D01*
X7614762Y-6133855D02*
X7690952Y-6095760D01*
X7690952Y-6095760D02*
X7729048Y-6057664D01*
X7729048Y-6057664D02*
X7805238Y-5943379D01*
X7805238Y-5943379D02*
X7843333Y-5790998D01*
X7843333Y-5790998D02*
X7843333Y-5486236D01*
X7843333Y-5486236D02*
X7805238Y-5410045D01*
X7805238Y-5410045D02*
X7767143Y-5371950D01*
X7767143Y-5371950D02*
X7690952Y-5333855D01*
X7690952Y-5333855D02*
X7538571Y-5333855D01*
X7538571Y-5333855D02*
X7462381Y-5371950D01*
X7462381Y-5371950D02*
X7424286Y-5410045D01*
X7424286Y-5410045D02*
X7386190Y-5486236D01*
X7386190Y-5486236D02*
X7386190Y-5676712D01*
X7386190Y-5676712D02*
X7424286Y-5752902D01*
X7424286Y-5752902D02*
X7462381Y-5790998D01*
X7462381Y-5790998D02*
X7538571Y-5829093D01*
X7538571Y-5829093D02*
X7690952Y-5829093D01*
X7690952Y-5829093D02*
X7767143Y-5790998D01*
X7767143Y-5790998D02*
X7805238Y-5752902D01*
X7805238Y-5752902D02*
X7843333Y-5676712D01*
X38733855Y-28633332D02*
X38352902Y-28899999D01*
X38733855Y-29090475D02*
X37933855Y-29090475D01*
X37933855Y-29090475D02*
X37933855Y-28785713D01*
X37933855Y-28785713D02*
X37971950Y-28709523D01*
X37971950Y-28709523D02*
X38010045Y-28671428D01*
X38010045Y-28671428D02*
X38086236Y-28633332D01*
X38086236Y-28633332D02*
X38200521Y-28633332D01*
X38200521Y-28633332D02*
X38276712Y-28671428D01*
X38276712Y-28671428D02*
X38314807Y-28709523D01*
X38314807Y-28709523D02*
X38352902Y-28785713D01*
X38352902Y-28785713D02*
X38352902Y-29090475D01*
X38010045Y-28328571D02*
X37971950Y-28290475D01*
X37971950Y-28290475D02*
X37933855Y-28214285D01*
X37933855Y-28214285D02*
X37933855Y-28023809D01*
X37933855Y-28023809D02*
X37971950Y-27947618D01*
X37971950Y-27947618D02*
X38010045Y-27909523D01*
X38010045Y-27909523D02*
X38086236Y-27871428D01*
X38086236Y-27871428D02*
X38162426Y-27871428D01*
X38162426Y-27871428D02*
X38276712Y-27909523D01*
X38276712Y-27909523D02*
X38733855Y-28366666D01*
X38733855Y-28366666D02*
X38733855Y-27871428D01*
X50863855Y-34976189D02*
X50482902Y-35242856D01*
X50863855Y-35433332D02*
X50063855Y-35433332D01*
X50063855Y-35433332D02*
X50063855Y-35128570D01*
X50063855Y-35128570D02*
X50101950Y-35052380D01*
X50101950Y-35052380D02*
X50140045Y-35014285D01*
X50140045Y-35014285D02*
X50216236Y-34976189D01*
X50216236Y-34976189D02*
X50330521Y-34976189D01*
X50330521Y-34976189D02*
X50406712Y-35014285D01*
X50406712Y-35014285D02*
X50444807Y-35052380D01*
X50444807Y-35052380D02*
X50482902Y-35128570D01*
X50482902Y-35128570D02*
X50482902Y-35433332D01*
X50063855Y-34747618D02*
X50863855Y-34480951D01*
X50863855Y-34480951D02*
X50063855Y-34214285D01*
X50863855Y-33528571D02*
X50863855Y-33985714D01*
X50863855Y-33757142D02*
X50063855Y-33757142D01*
X50063855Y-33757142D02*
X50178140Y-33833333D01*
X50178140Y-33833333D02*
X50254331Y-33909523D01*
X50254331Y-33909523D02*
X50292426Y-33985714D01*
X34733855Y-41133332D02*
X34352902Y-41399999D01*
X34733855Y-41590475D02*
X33933855Y-41590475D01*
X33933855Y-41590475D02*
X33933855Y-41285713D01*
X33933855Y-41285713D02*
X33971950Y-41209523D01*
X33971950Y-41209523D02*
X34010045Y-41171428D01*
X34010045Y-41171428D02*
X34086236Y-41133332D01*
X34086236Y-41133332D02*
X34200521Y-41133332D01*
X34200521Y-41133332D02*
X34276712Y-41171428D01*
X34276712Y-41171428D02*
X34314807Y-41209523D01*
X34314807Y-41209523D02*
X34352902Y-41285713D01*
X34352902Y-41285713D02*
X34352902Y-41590475D01*
X33933855Y-40409523D02*
X33933855Y-40790475D01*
X33933855Y-40790475D02*
X34314807Y-40828571D01*
X34314807Y-40828571D02*
X34276712Y-40790475D01*
X34276712Y-40790475D02*
X34238617Y-40714285D01*
X34238617Y-40714285D02*
X34238617Y-40523809D01*
X34238617Y-40523809D02*
X34276712Y-40447618D01*
X34276712Y-40447618D02*
X34314807Y-40409523D01*
X34314807Y-40409523D02*
X34390998Y-40371428D01*
X34390998Y-40371428D02*
X34581474Y-40371428D01*
X34581474Y-40371428D02*
X34657664Y-40409523D01*
X34657664Y-40409523D02*
X34695760Y-40447618D01*
X34695760Y-40447618D02*
X34733855Y-40523809D01*
X34733855Y-40523809D02*
X34733855Y-40714285D01*
X34733855Y-40714285D02*
X34695760Y-40790475D01*
X34695760Y-40790475D02*
X34657664Y-40828571D01*
%TO.C,R9*%
X32000000Y-49460000D02*
X32000000Y-50230000D01*
X32000000Y-57540000D02*
X32000000Y-56770000D01*
X30630000Y-50230000D02*
X33370000Y-50230000D01*
X33370000Y-56770000D01*
X30630000Y-56770000D01*
X30630000Y-50230000D01*
%TO.C,R6*%
X36000000Y-36960000D02*
X36000000Y-37730000D01*
X36000000Y-45040000D02*
X36000000Y-44270000D01*
X34630000Y-37730000D02*
X37370000Y-37730000D01*
X37370000Y-44270000D01*
X34630000Y-44270000D01*
X34630000Y-37730000D01*
%TO.C,J2*%
X18850001Y-1450000D02*
X30749999Y-1450000D01*
X30749999Y-9150000D01*
X18850001Y-9150000D01*
X18850001Y-1450000D01*
%TO.C,J6*%
X5800001Y-75800000D02*
X20199999Y-75800000D01*
X20199999Y-83500000D01*
X5800001Y-83500000D01*
X5800001Y-75800000D01*
%TO.C,D1*%
X33840000Y-67000000D02*
X34860000Y-67000000D01*
X35640000Y-65530000D02*
X35640000Y-68470000D01*
X35760000Y-65530000D02*
X35760000Y-68470000D01*
X35880000Y-65530000D02*
X35880000Y-68470000D01*
X41320000Y-67000000D02*
X40300000Y-67000000D01*
X34860000Y-65530000D02*
X40300000Y-65530000D01*
X40300000Y-68470000D01*
X34860000Y-68470000D01*
X34860000Y-65530000D01*
%TO.C,U3*%
X9170000Y-50850000D02*
X9170000Y-52500000D01*
X9170000Y-54500000D02*
X9170000Y-56150000D01*
X9170000Y-56150000D02*
X29610000Y-56150000D01*
X29610000Y-50850000D02*
X9170000Y-50850000D01*
X29610000Y-56150000D02*
X29610000Y-50850000D01*
X9110000Y-48360000D02*
X29670000Y-48360000D01*
X29670000Y-58640000D01*
X9110000Y-58640000D01*
X9110000Y-48360000D01*
X9170000Y-52500000D02*
G75*
G02*
X9170000Y-54500000I0J-1000000D01*
G01*
%TO.C,D3*%
X46840000Y-67000000D02*
X47860000Y-67000000D01*
X48640000Y-65530000D02*
X48640000Y-68470000D01*
X48760000Y-65530000D02*
X48760000Y-68470000D01*
X48880000Y-65530000D02*
X48880000Y-68470000D01*
X54320000Y-67000000D02*
X53300000Y-67000000D01*
X47860000Y-65530000D02*
X53300000Y-65530000D01*
X53300000Y-68470000D01*
X47860000Y-68470000D01*
X47860000Y-65530000D01*
%TO.C,R12*%
X44000000Y-49460000D02*
X44000000Y-50230000D01*
X44000000Y-57540000D02*
X44000000Y-56770000D01*
X42630000Y-50230000D02*
X45370000Y-50230000D01*
X45370000Y-56770000D01*
X42630000Y-56770000D01*
X42630000Y-50230000D01*
%TO.C,R1*%
X32000000Y-24460000D02*
X32000000Y-25230000D01*
X32000000Y-32540000D02*
X32000000Y-31770000D01*
X30630000Y-25230000D02*
X33370000Y-25230000D01*
X33370000Y-31770000D01*
X30630000Y-31770000D01*
X30630000Y-25230000D01*
%TO.C,R10*%
X36000000Y-49460000D02*
X36000000Y-50230000D01*
X36000000Y-57540000D02*
X36000000Y-56770000D01*
X34630000Y-50230000D02*
X37370000Y-50230000D01*
X37370000Y-56770000D01*
X34630000Y-56770000D01*
X34630000Y-50230000D01*
%TO.C,D2*%
X33840000Y-70200000D02*
X34860000Y-70200000D01*
X35640000Y-68730000D02*
X35640000Y-71670000D01*
X35760000Y-68730000D02*
X35760000Y-71670000D01*
X35880000Y-68730000D02*
X35880000Y-71670000D01*
X41320000Y-70200000D02*
X40300000Y-70200000D01*
X34860000Y-68730000D02*
X40300000Y-68730000D01*
X40300000Y-71670000D01*
X34860000Y-71670000D01*
X34860000Y-68730000D01*
%TO.C,J7*%
X20250001Y-75800000D02*
X32149999Y-75800000D01*
X32149999Y-83500000D01*
X20250001Y-83500000D01*
X20250001Y-75800000D01*
%TO.C,R7*%
X40000000Y-36960000D02*
X40000000Y-37730000D01*
X40000000Y-45040000D02*
X40000000Y-44270000D01*
X38630000Y-37730000D02*
X41370000Y-37730000D01*
X41370000Y-44270000D01*
X38630000Y-44270000D01*
X38630000Y-37730000D01*
%TO.C,J1*%
X7150001Y-1450000D02*
X19049999Y-1450000D01*
X19049999Y-9150000D01*
X7150001Y-9150000D01*
X7150001Y-1450000D01*
%TO.C,J3*%
X30550001Y-1450000D02*
X42449999Y-1450000D01*
X42449999Y-9150000D01*
X30550001Y-9150000D01*
X30550001Y-1450000D01*
%TO.C,R3*%
X40000000Y-24460000D02*
X40000000Y-25230000D01*
X40000000Y-32540000D02*
X40000000Y-31770000D01*
X38630000Y-25230000D02*
X41370000Y-25230000D01*
X41370000Y-31770000D01*
X38630000Y-31770000D01*
X38630000Y-25230000D01*
%TO.C,R11*%
X40000000Y-49460000D02*
X40000000Y-50230000D01*
X40000000Y-57540000D02*
X40000000Y-56770000D01*
X38630000Y-50230000D02*
X41370000Y-50230000D01*
X41370000Y-56770000D01*
X38630000Y-56770000D01*
X38630000Y-50230000D01*
%TO.C,C1*%
X16020354Y-67125000D02*
X17020354Y-67125000D01*
X16520354Y-66625000D02*
X16520354Y-67625000D01*
X21500000Y-64920000D02*
X21500000Y-75080000D01*
X21540000Y-64920000D02*
X21540000Y-75080000D01*
X21580000Y-64921000D02*
X21580000Y-75079000D01*
X21620000Y-64921000D02*
X21620000Y-75079000D01*
X21660000Y-64923000D02*
X21660000Y-75077000D01*
X21700000Y-64924000D02*
X21700000Y-75076000D01*
X21740000Y-64926000D02*
X21740000Y-75074000D01*
X21780000Y-64928000D02*
X21780000Y-75072000D01*
X21820000Y-64930000D02*
X21820000Y-75070000D01*
X21860000Y-64933000D02*
X21860000Y-75067000D01*
X21900000Y-64936000D02*
X21900000Y-75064000D01*
X21940000Y-64939000D02*
X21940000Y-75061000D01*
X21980000Y-64943000D02*
X21980000Y-75057000D01*
X22020000Y-64946000D02*
X22020000Y-75054000D01*
X22060000Y-64951000D02*
X22060000Y-75049000D01*
X22100000Y-64955000D02*
X22100000Y-75045000D01*
X22140000Y-64960000D02*
X22140000Y-75040000D01*
X22180000Y-64965000D02*
X22180000Y-75035000D01*
X22220000Y-64971000D02*
X22220000Y-75029000D01*
X22260000Y-64977000D02*
X22260000Y-75023000D01*
X22300000Y-64983000D02*
X22300000Y-75017000D01*
X22340000Y-64989000D02*
X22340000Y-75011000D01*
X22380000Y-64996000D02*
X22380000Y-75004000D01*
X22420000Y-65003000D02*
X22420000Y-74997000D01*
X22460000Y-65011000D02*
X22460000Y-74989000D01*
X22500000Y-65019000D02*
X22500000Y-74981000D01*
X22540000Y-65027000D02*
X22540000Y-74973000D01*
X22580000Y-65035000D02*
X22580000Y-74965000D01*
X22620000Y-65044000D02*
X22620000Y-74956000D01*
X22660000Y-65053000D02*
X22660000Y-74947000D01*
X22700000Y-65063000D02*
X22700000Y-74937000D01*
X22740000Y-65072000D02*
X22740000Y-74928000D01*
X22780000Y-65083000D02*
X22780000Y-68760000D01*
X22780000Y-71240000D02*
X22780000Y-74917000D01*
X22820000Y-65093000D02*
X22820000Y-68760000D01*
X22820000Y-71240000D02*
X22820000Y-74907000D01*
X22860000Y-65104000D02*
X22860000Y-68760000D01*
X22860000Y-71240000D02*
X22860000Y-74896000D01*
X22900000Y-65115000D02*
X22900000Y-68760000D01*
X22900000Y-71240000D02*
X22900000Y-74885000D01*
X22940000Y-65127000D02*
X22940000Y-68760000D01*
X22940000Y-71240000D02*
X22940000Y-74873000D01*
X22980000Y-65139000D02*
X22980000Y-68760000D01*
X22980000Y-71240000D02*
X22980000Y-74861000D01*
X23020000Y-65151000D02*
X23020000Y-68760000D01*
X23020000Y-71240000D02*
X23020000Y-74849000D01*
X23060000Y-65163000D02*
X23060000Y-68760000D01*
X23060000Y-71240000D02*
X23060000Y-74837000D01*
X23100000Y-65176000D02*
X23100000Y-68760000D01*
X23100000Y-71240000D02*
X23100000Y-74824000D01*
X23140000Y-65190000D02*
X23140000Y-68760000D01*
X23140000Y-71240000D02*
X23140000Y-74810000D01*
X23180000Y-65203000D02*
X23180000Y-68760000D01*
X23180000Y-71240000D02*
X23180000Y-74797000D01*
X23220000Y-65218000D02*
X23220000Y-68760000D01*
X23220000Y-71240000D02*
X23220000Y-74782000D01*
X23260000Y-65232000D02*
X23260000Y-68760000D01*
X23260000Y-71240000D02*
X23260000Y-74768000D01*
X23300000Y-65247000D02*
X23300000Y-68760000D01*
X23300000Y-71240000D02*
X23300000Y-74753000D01*
X23340000Y-65262000D02*
X23340000Y-68760000D01*
X23340000Y-71240000D02*
X23340000Y-74738000D01*
X23380000Y-65278000D02*
X23380000Y-68760000D01*
X23380000Y-71240000D02*
X23380000Y-74722000D01*
X23420000Y-65294000D02*
X23420000Y-68760000D01*
X23420000Y-71240000D02*
X23420000Y-74706000D01*
X23460000Y-65310000D02*
X23460000Y-68760000D01*
X23460000Y-71240000D02*
X23460000Y-74690000D01*
X23500000Y-65327000D02*
X23500000Y-68760000D01*
X23500000Y-71240000D02*
X23500000Y-74673000D01*
X23540000Y-65344000D02*
X23540000Y-68760000D01*
X23540000Y-71240000D02*
X23540000Y-74656000D01*
X23580000Y-65362000D02*
X23580000Y-68760000D01*
X23580000Y-71240000D02*
X23580000Y-74638000D01*
X23620000Y-65380000D02*
X23620000Y-68760000D01*
X23620000Y-71240000D02*
X23620000Y-74620000D01*
X23660000Y-65398000D02*
X23660000Y-68760000D01*
X23660000Y-71240000D02*
X23660000Y-74602000D01*
X23700000Y-65417000D02*
X23700000Y-68760000D01*
X23700000Y-71240000D02*
X23700000Y-74583000D01*
X23740000Y-65436000D02*
X23740000Y-68760000D01*
X23740000Y-71240000D02*
X23740000Y-74564000D01*
X23780000Y-65456000D02*
X23780000Y-68760000D01*
X23780000Y-71240000D02*
X23780000Y-74544000D01*
X23820000Y-65476000D02*
X23820000Y-68760000D01*
X23820000Y-71240000D02*
X23820000Y-74524000D01*
X23860000Y-65496000D02*
X23860000Y-68760000D01*
X23860000Y-71240000D02*
X23860000Y-74504000D01*
X23900000Y-65517000D02*
X23900000Y-68760000D01*
X23900000Y-71240000D02*
X23900000Y-74483000D01*
X23940000Y-65539000D02*
X23940000Y-68760000D01*
X23940000Y-71240000D02*
X23940000Y-74461000D01*
X23980000Y-65561000D02*
X23980000Y-68760000D01*
X23980000Y-71240000D02*
X23980000Y-74439000D01*
X24020000Y-65583000D02*
X24020000Y-68760000D01*
X24020000Y-71240000D02*
X24020000Y-74417000D01*
X24060000Y-65606000D02*
X24060000Y-68760000D01*
X24060000Y-71240000D02*
X24060000Y-74394000D01*
X24100000Y-65629000D02*
X24100000Y-68760000D01*
X24100000Y-71240000D02*
X24100000Y-74371000D01*
X24140000Y-65653000D02*
X24140000Y-68760000D01*
X24140000Y-71240000D02*
X24140000Y-74347000D01*
X24180000Y-65677000D02*
X24180000Y-68760000D01*
X24180000Y-71240000D02*
X24180000Y-74323000D01*
X24220000Y-65702000D02*
X24220000Y-68760000D01*
X24220000Y-71240000D02*
X24220000Y-74298000D01*
X24260000Y-65728000D02*
X24260000Y-68760000D01*
X24260000Y-71240000D02*
X24260000Y-74272000D01*
X24300000Y-65753000D02*
X24300000Y-68760000D01*
X24300000Y-71240000D02*
X24300000Y-74247000D01*
X24340000Y-65780000D02*
X24340000Y-68760000D01*
X24340000Y-71240000D02*
X24340000Y-74220000D01*
X24380000Y-65807000D02*
X24380000Y-68760000D01*
X24380000Y-71240000D02*
X24380000Y-74193000D01*
X24420000Y-65834000D02*
X24420000Y-68760000D01*
X24420000Y-71240000D02*
X24420000Y-74166000D01*
X24460000Y-65862000D02*
X24460000Y-68760000D01*
X24460000Y-71240000D02*
X24460000Y-74138000D01*
X24500000Y-65891000D02*
X24500000Y-68760000D01*
X24500000Y-71240000D02*
X24500000Y-74109000D01*
X24540000Y-65920000D02*
X24540000Y-68760000D01*
X24540000Y-71240000D02*
X24540000Y-74080000D01*
X24580000Y-65950000D02*
X24580000Y-68760000D01*
X24580000Y-71240000D02*
X24580000Y-74050000D01*
X24620000Y-65980000D02*
X24620000Y-68760000D01*
X24620000Y-71240000D02*
X24620000Y-74020000D01*
X24660000Y-66012000D02*
X24660000Y-68760000D01*
X24660000Y-71240000D02*
X24660000Y-73988000D01*
X24700000Y-66043000D02*
X24700000Y-68760000D01*
X24700000Y-71240000D02*
X24700000Y-73957000D01*
X24740000Y-66076000D02*
X24740000Y-68760000D01*
X24740000Y-71240000D02*
X24740000Y-73924000D01*
X24780000Y-66109000D02*
X24780000Y-68760000D01*
X24780000Y-71240000D02*
X24780000Y-73891000D01*
X24820000Y-66142000D02*
X24820000Y-68760000D01*
X24820000Y-71240000D02*
X24820000Y-73858000D01*
X24860000Y-66177000D02*
X24860000Y-68760000D01*
X24860000Y-71240000D02*
X24860000Y-73823000D01*
X24900000Y-66212000D02*
X24900000Y-68760000D01*
X24900000Y-71240000D02*
X24900000Y-73788000D01*
X24940000Y-66248000D02*
X24940000Y-68760000D01*
X24940000Y-71240000D02*
X24940000Y-73752000D01*
X24980000Y-66284000D02*
X24980000Y-68760000D01*
X24980000Y-71240000D02*
X24980000Y-73716000D01*
X25020000Y-66322000D02*
X25020000Y-68760000D01*
X25020000Y-71240000D02*
X25020000Y-73678000D01*
X25060000Y-66360000D02*
X25060000Y-68760000D01*
X25060000Y-71240000D02*
X25060000Y-73640000D01*
X25100000Y-66399000D02*
X25100000Y-68760000D01*
X25100000Y-71240000D02*
X25100000Y-73601000D01*
X25140000Y-66439000D02*
X25140000Y-68760000D01*
X25140000Y-71240000D02*
X25140000Y-73561000D01*
X25180000Y-66480000D02*
X25180000Y-68760000D01*
X25180000Y-71240000D02*
X25180000Y-73520000D01*
X25220000Y-66522000D02*
X25220000Y-68760000D01*
X25220000Y-71240000D02*
X25220000Y-73478000D01*
X25260000Y-66565000D02*
X25260000Y-73435000D01*
X25300000Y-66609000D02*
X25300000Y-73391000D01*
X25340000Y-66653000D02*
X25340000Y-73347000D01*
X25380000Y-66699000D02*
X25380000Y-73301000D01*
X25420000Y-66746000D02*
X25420000Y-73254000D01*
X25460000Y-66795000D02*
X25460000Y-73205000D01*
X25500000Y-66844000D02*
X25500000Y-73156000D01*
X25540000Y-66895000D02*
X25540000Y-73105000D01*
X25580000Y-66947000D02*
X25580000Y-73053000D01*
X25620000Y-67000000D02*
X25620000Y-73000000D01*
X25660000Y-67055000D02*
X25660000Y-72945000D01*
X25700000Y-67112000D02*
X25700000Y-72888000D01*
X25740000Y-67170000D02*
X25740000Y-72830000D01*
X25780000Y-67230000D02*
X25780000Y-72770000D01*
X25820000Y-67292000D02*
X25820000Y-72708000D01*
X25860000Y-67356000D02*
X25860000Y-72644000D01*
X25900000Y-67422000D02*
X25900000Y-72578000D01*
X25940000Y-67490000D02*
X25940000Y-72510000D01*
X25980000Y-67561000D02*
X25980000Y-72439000D01*
X26020000Y-67635000D02*
X26020000Y-72365000D01*
X26060000Y-67712000D02*
X26060000Y-72288000D01*
X26100000Y-67792000D02*
X26100000Y-72208000D01*
X26140000Y-67876000D02*
X26140000Y-72124000D01*
X26180000Y-67963000D02*
X26180000Y-72037000D01*
X26220000Y-68056000D02*
X26220000Y-71944000D01*
X26260000Y-68154000D02*
X26260000Y-71846000D01*
X26300000Y-68258000D02*
X26300000Y-71742000D01*
X26340000Y-68370000D02*
X26340000Y-71630000D01*
X26380000Y-68491000D02*
X26380000Y-71509000D01*
X26420000Y-68623000D02*
X26420000Y-71377000D01*
X26460000Y-68770000D02*
X26460000Y-71230000D01*
X26500000Y-68938000D02*
X26500000Y-71062000D01*
X26540000Y-69138000D02*
X26540000Y-70862000D01*
X26580000Y-69401000D02*
X26580000Y-70599000D01*
X26620000Y-70000000D02*
G75*
G02*
X16380000Y-70000000I-5120000J0D01*
G01*
X16380000Y-70000000D02*
G75*
G02*
X26620000Y-70000000I5120000J0D01*
G01*
%TO.C,U1*%
X9170000Y-25850000D02*
X9170000Y-27500000D01*
X9170000Y-29500000D02*
X9170000Y-31150000D01*
X9170000Y-31150000D02*
X29610000Y-31150000D01*
X29610000Y-25850000D02*
X9170000Y-25850000D01*
X29610000Y-31150000D02*
X29610000Y-25850000D01*
X9110000Y-23360000D02*
X29670000Y-23360000D01*
X29670000Y-33640000D01*
X9110000Y-33640000D01*
X9110000Y-23360000D01*
X9170000Y-27500000D02*
G75*
G02*
X9170000Y-29500000I0J-1000000D01*
G01*
%TO.C,D4*%
X46840000Y-70200000D02*
X47860000Y-70200000D01*
X48640000Y-68730000D02*
X48640000Y-71670000D01*
X48760000Y-68730000D02*
X48760000Y-71670000D01*
X48880000Y-68730000D02*
X48880000Y-71670000D01*
X54320000Y-70200000D02*
X53300000Y-70200000D01*
X47860000Y-68730000D02*
X53300000Y-68730000D01*
X53300000Y-71670000D01*
X47860000Y-71670000D01*
X47860000Y-68730000D01*
%TO.C,J4*%
X42250001Y-1450000D02*
X54149999Y-1450000D01*
X54149999Y-9150000D01*
X42250001Y-9150000D01*
X42250001Y-1450000D01*
%TO.C,R8*%
X44000000Y-36960000D02*
X44000000Y-37730000D01*
X44000000Y-45040000D02*
X44000000Y-44270000D01*
X42630000Y-37730000D02*
X45370000Y-37730000D01*
X45370000Y-44270000D01*
X42630000Y-44270000D01*
X42630000Y-37730000D01*
%TO.C,F1*%
X51250000Y-22250000D02*
X58750000Y-22250000D01*
X58750000Y-29750000D01*
X51250000Y-29750000D01*
X51250000Y-22250000D01*
%TO.C,R4*%
X44000000Y-24460000D02*
X44000000Y-25230000D01*
X44000000Y-32540000D02*
X44000000Y-31770000D01*
X42630000Y-25230000D02*
X45370000Y-25230000D01*
X45370000Y-31770000D01*
X42630000Y-31770000D01*
X42630000Y-25230000D01*
%TO.C,U2*%
X9170000Y-38350000D02*
X9170000Y-40000000D01*
X9170000Y-42000000D02*
X9170000Y-43650000D01*
X9170000Y-43650000D02*
X29610000Y-43650000D01*
X29610000Y-38350000D02*
X9170000Y-38350000D01*
X29610000Y-43650000D02*
X29610000Y-38350000D01*
X9110000Y-35860000D02*
X29670000Y-35860000D01*
X29670000Y-46140000D01*
X9110000Y-46140000D01*
X9110000Y-35860000D01*
X9170000Y-40000000D02*
G75*
G02*
X9170000Y-42000000I0J-1000000D01*
G01*
%TO.C,R2*%
X36000000Y-24460000D02*
X36000000Y-25230000D01*
X36000000Y-32540000D02*
X36000000Y-31770000D01*
X34630000Y-25230000D02*
X37370000Y-25230000D01*
X37370000Y-31770000D01*
X34630000Y-31770000D01*
X34630000Y-25230000D01*
%TO.C,RV1*%
X51500000Y-31000000D02*
X58500000Y-31000000D01*
X58500000Y-38000000D01*
X51500000Y-38000000D01*
X51500000Y-31000000D01*
%TO.C,R5*%
X32000000Y-36960000D02*
X32000000Y-37730000D01*
X32000000Y-45040000D02*
X32000000Y-44270000D01*
X30630000Y-37730000D02*
X33370000Y-37730000D01*
X33370000Y-44270000D01*
X30630000Y-44270000D01*
X30630000Y-37730000D01*
%TD*%
M02*
