%TF.GenerationSoftware,KiCad,Pcbnew,10.0.6*%
%TF.CreationDate,2026-09-12T12:31:32-04:00*%
%TF.ProjectId,int-board,696e742d-626f-4617-9264-2e6b69636164,rev?*%
%TF.SameCoordinates,Original*%
%TF.FileFunction,Drillmap*%
%TF.FilePolarity,Positive*%
%FSLAX45Y45*%
G04 Gerber Fmt 4.5, Leading zero omitted, Abs format (unit mm)*
G04 Created by KiCad (PCBNEW 10.0.6) date 2026-09-12 12:31:32*
%MOMM*%
%LPD*%
G01*
G04 APERTURE LIST*
%ADD10C,0.100000*%
%ADD11C,0.200000*%
%ADD12C,0.110000*%
%ADD13C,0.120000*%
G04 APERTURE END LIST*
D10*
X0Y0D02*
X5900000Y0D01*
X5900000Y-8500000D01*
X0Y-8500000D01*
X0Y0D01*
D11*
D10*
X970340Y-3414830D02*
X1010340Y-3454830D01*
X1010340Y-3414830D02*
X970340Y-3454830D01*
X1062900Y-4151850D02*
X1102900Y-4191850D01*
X1102900Y-4151850D02*
X1062900Y-4191850D01*
X2694780Y-2995380D02*
X2734780Y-3035380D01*
X2734780Y-2995380D02*
X2694780Y-3035380D01*
X3014300Y-3690550D02*
X3054300Y-3730550D01*
X3054300Y-3690550D02*
X3014300Y-3730550D01*
X3680220Y-4375450D02*
X3720220Y-4415450D01*
X3720220Y-4375450D02*
X3680220Y-4415450D01*
X4261070Y-713620D02*
X4301070Y-753620D01*
X4301070Y-713620D02*
X4261070Y-753620D01*
X4309200Y-1728570D02*
X4349200Y-1768570D01*
X4349200Y-1728570D02*
X4309200Y-1768570D01*
X4462150Y-1730390D02*
X4502150Y-1770390D01*
X4502150Y-1730390D02*
X4462150Y-1770390D01*
X4622560Y-1729460D02*
X4662560Y-1769460D01*
X4662560Y-1729460D02*
X4622560Y-1769460D01*
X4802270Y-2940000D02*
X4842270Y-2980000D01*
X4842270Y-2940000D02*
X4802270Y-2980000D01*
X2985020Y-5346940D02*
G75*
G02*
X2935020Y-5346940I-25000J0D01*
G01*
X2935020Y-5346940D02*
G75*
G02*
X2985020Y-5346940I25000J0D01*
G01*
X3984360Y-1477830D02*
G75*
G02*
X3934360Y-1477830I-25000J0D01*
G01*
X3934360Y-1477830D02*
G75*
G02*
X3984360Y-1477830I25000J0D01*
G01*
X4176430Y-5164310D02*
G75*
G02*
X4126430Y-5164310I-25000J0D01*
G01*
X4126430Y-5164310D02*
G75*
G02*
X4176430Y-5164310I25000J0D01*
G01*
X4831680Y-5090500D02*
G75*
G02*
X4781680Y-5090500I-25000J0D01*
G01*
X4781680Y-5090500D02*
G75*
G02*
X4831680Y-5090500I25000J0D01*
G01*
X5421140Y-1688060D02*
G75*
G02*
X5371140Y-1688060I-25000J0D01*
G01*
X5371140Y-1688060D02*
G75*
G02*
X5421140Y-1688060I25000J0D01*
G01*
X5452160Y-5600000D02*
G75*
G02*
X5402160Y-5600000I-25000J0D01*
G01*
X5402160Y-5600000D02*
G75*
G02*
X5452160Y-5600000I25000J0D01*
G01*
X1050000Y-2429000D02*
X1050000Y-2509000D01*
X1010000Y-2469000D02*
X1090000Y-2469000D01*
X1050000Y-3191000D02*
X1050000Y-3271000D01*
X1010000Y-3231000D02*
X1090000Y-3231000D01*
X1050000Y-3679000D02*
X1050000Y-3759000D01*
X1010000Y-3719000D02*
X1090000Y-3719000D01*
X1050000Y-4441000D02*
X1050000Y-4521000D01*
X1010000Y-4481000D02*
X1090000Y-4481000D01*
X1050000Y-4929000D02*
X1050000Y-5009000D01*
X1010000Y-4969000D02*
X1090000Y-4969000D01*
X1050000Y-5691000D02*
X1050000Y-5771000D01*
X1010000Y-5731000D02*
X1090000Y-5731000D01*
X1304000Y-2429000D02*
X1304000Y-2509000D01*
X1264000Y-2469000D02*
X1344000Y-2469000D01*
X1304000Y-3191000D02*
X1304000Y-3271000D01*
X1264000Y-3231000D02*
X1344000Y-3231000D01*
X1304000Y-3679000D02*
X1304000Y-3759000D01*
X1264000Y-3719000D02*
X1344000Y-3719000D01*
X1304000Y-4441000D02*
X1304000Y-4521000D01*
X1264000Y-4481000D02*
X1344000Y-4481000D01*
X1304000Y-4929000D02*
X1304000Y-5009000D01*
X1264000Y-4969000D02*
X1344000Y-4969000D01*
X1304000Y-5691000D02*
X1304000Y-5771000D01*
X1264000Y-5731000D02*
X1344000Y-5731000D01*
X1558000Y-2429000D02*
X1558000Y-2509000D01*
X1518000Y-2469000D02*
X1598000Y-2469000D01*
X1558000Y-3191000D02*
X1558000Y-3271000D01*
X1518000Y-3231000D02*
X1598000Y-3231000D01*
X1558000Y-3679000D02*
X1558000Y-3759000D01*
X1518000Y-3719000D02*
X1598000Y-3719000D01*
X1558000Y-4441000D02*
X1558000Y-4521000D01*
X1518000Y-4481000D02*
X1598000Y-4481000D01*
X1558000Y-4929000D02*
X1558000Y-5009000D01*
X1518000Y-4969000D02*
X1598000Y-4969000D01*
X1558000Y-5691000D02*
X1558000Y-5771000D01*
X1518000Y-5731000D02*
X1598000Y-5731000D01*
X1812000Y-2429000D02*
X1812000Y-2509000D01*
X1772000Y-2469000D02*
X1852000Y-2469000D01*
X1812000Y-3191000D02*
X1812000Y-3271000D01*
X1772000Y-3231000D02*
X1852000Y-3231000D01*
X1812000Y-3679000D02*
X1812000Y-3759000D01*
X1772000Y-3719000D02*
X1852000Y-3719000D01*
X1812000Y-4441000D02*
X1812000Y-4521000D01*
X1772000Y-4481000D02*
X1852000Y-4481000D01*
X1812000Y-4929000D02*
X1812000Y-5009000D01*
X1772000Y-4969000D02*
X1852000Y-4969000D01*
X1812000Y-5691000D02*
X1812000Y-5771000D01*
X1772000Y-5731000D02*
X1852000Y-5731000D01*
X2066000Y-2429000D02*
X2066000Y-2509000D01*
X2026000Y-2469000D02*
X2106000Y-2469000D01*
X2066000Y-3191000D02*
X2066000Y-3271000D01*
X2026000Y-3231000D02*
X2106000Y-3231000D01*
X2066000Y-3679000D02*
X2066000Y-3759000D01*
X2026000Y-3719000D02*
X2106000Y-3719000D01*
X2066000Y-4441000D02*
X2066000Y-4521000D01*
X2026000Y-4481000D02*
X2106000Y-4481000D01*
X2066000Y-4929000D02*
X2066000Y-5009000D01*
X2026000Y-4969000D02*
X2106000Y-4969000D01*
X2066000Y-5691000D02*
X2066000Y-5771000D01*
X2026000Y-5731000D02*
X2106000Y-5731000D01*
X2320000Y-2429000D02*
X2320000Y-2509000D01*
X2280000Y-2469000D02*
X2360000Y-2469000D01*
X2320000Y-3191000D02*
X2320000Y-3271000D01*
X2280000Y-3231000D02*
X2360000Y-3231000D01*
X2320000Y-3679000D02*
X2320000Y-3759000D01*
X2280000Y-3719000D02*
X2360000Y-3719000D01*
X2320000Y-4441000D02*
X2320000Y-4521000D01*
X2280000Y-4481000D02*
X2360000Y-4481000D01*
X2320000Y-4929000D02*
X2320000Y-5009000D01*
X2280000Y-4969000D02*
X2360000Y-4969000D01*
X2320000Y-5691000D02*
X2320000Y-5771000D01*
X2280000Y-5731000D02*
X2360000Y-5731000D01*
X2574000Y-2429000D02*
X2574000Y-2509000D01*
X2534000Y-2469000D02*
X2614000Y-2469000D01*
X2574000Y-3191000D02*
X2574000Y-3271000D01*
X2534000Y-3231000D02*
X2614000Y-3231000D01*
X2574000Y-3679000D02*
X2574000Y-3759000D01*
X2534000Y-3719000D02*
X2614000Y-3719000D01*
X2574000Y-4441000D02*
X2574000Y-4521000D01*
X2534000Y-4481000D02*
X2614000Y-4481000D01*
X2574000Y-4929000D02*
X2574000Y-5009000D01*
X2534000Y-4969000D02*
X2614000Y-4969000D01*
X2574000Y-5691000D02*
X2574000Y-5771000D01*
X2534000Y-5731000D02*
X2614000Y-5731000D01*
X2828000Y-2429000D02*
X2828000Y-2509000D01*
X2788000Y-2469000D02*
X2868000Y-2469000D01*
X2828000Y-3191000D02*
X2828000Y-3271000D01*
X2788000Y-3231000D02*
X2868000Y-3231000D01*
X2828000Y-3679000D02*
X2828000Y-3759000D01*
X2788000Y-3719000D02*
X2868000Y-3719000D01*
X2828000Y-4441000D02*
X2828000Y-4521000D01*
X2788000Y-4481000D02*
X2868000Y-4481000D01*
X2828000Y-4929000D02*
X2828000Y-5009000D01*
X2788000Y-4969000D02*
X2868000Y-4969000D01*
X2828000Y-5691000D02*
X2828000Y-5771000D01*
X2788000Y-5731000D02*
X2868000Y-5731000D01*
X3200000Y-2302000D02*
X3200000Y-2382000D01*
X3160000Y-2342000D02*
X3240000Y-2342000D01*
X3200000Y-3318000D02*
X3200000Y-3398000D01*
X3160000Y-3358000D02*
X3240000Y-3358000D01*
X3200000Y-3552000D02*
X3200000Y-3632000D01*
X3160000Y-3592000D02*
X3240000Y-3592000D01*
X3200000Y-4568000D02*
X3200000Y-4648000D01*
X3160000Y-4608000D02*
X3240000Y-4608000D01*
X3200000Y-4802000D02*
X3200000Y-4882000D01*
X3160000Y-4842000D02*
X3240000Y-4842000D01*
X3200000Y-5818000D02*
X3200000Y-5898000D01*
X3160000Y-5858000D02*
X3240000Y-5858000D01*
X3600000Y-2302000D02*
X3600000Y-2382000D01*
X3560000Y-2342000D02*
X3640000Y-2342000D01*
X3600000Y-3318000D02*
X3600000Y-3398000D01*
X3560000Y-3358000D02*
X3640000Y-3358000D01*
X3600000Y-3552000D02*
X3600000Y-3632000D01*
X3560000Y-3592000D02*
X3640000Y-3592000D01*
X3600000Y-4568000D02*
X3600000Y-4648000D01*
X3560000Y-4608000D02*
X3640000Y-4608000D01*
X3600000Y-4802000D02*
X3600000Y-4882000D01*
X3560000Y-4842000D02*
X3640000Y-4842000D01*
X3600000Y-5818000D02*
X3600000Y-5898000D01*
X3560000Y-5858000D02*
X3640000Y-5858000D01*
X4000000Y-2302000D02*
X4000000Y-2382000D01*
X3960000Y-2342000D02*
X4040000Y-2342000D01*
X4000000Y-3318000D02*
X4000000Y-3398000D01*
X3960000Y-3358000D02*
X4040000Y-3358000D01*
X4000000Y-3552000D02*
X4000000Y-3632000D01*
X3960000Y-3592000D02*
X4040000Y-3592000D01*
X4000000Y-4568000D02*
X4000000Y-4648000D01*
X3960000Y-4608000D02*
X4040000Y-4608000D01*
X4000000Y-4802000D02*
X4000000Y-4882000D01*
X3960000Y-4842000D02*
X4040000Y-4842000D01*
X4000000Y-5818000D02*
X4000000Y-5898000D01*
X3960000Y-5858000D02*
X4040000Y-5858000D01*
X4400000Y-2302000D02*
X4400000Y-2382000D01*
X4360000Y-2342000D02*
X4440000Y-2342000D01*
X4400000Y-3318000D02*
X4400000Y-3398000D01*
X4360000Y-3358000D02*
X4440000Y-3358000D01*
X4400000Y-3552000D02*
X4400000Y-3632000D01*
X4360000Y-3592000D02*
X4440000Y-3592000D01*
X4400000Y-4568000D02*
X4400000Y-4648000D01*
X4360000Y-4608000D02*
X4440000Y-4608000D01*
X4400000Y-4802000D02*
X4400000Y-4882000D01*
X4360000Y-4842000D02*
X4440000Y-4842000D01*
X4400000Y-5818000D02*
X4400000Y-5898000D01*
X4360000Y-5858000D02*
X4440000Y-5858000D01*
X258356Y-872356D02*
X258356Y-801644D01*
X187644Y-801644D01*
X187644Y-872356D01*
X258356Y-872356D01*
X258356Y-1126356D02*
X258356Y-1055644D01*
X187644Y-1055644D01*
X187644Y-1126356D01*
X258356Y-1126356D01*
X258356Y-1380356D02*
X258356Y-1309644D01*
X187644Y-1309644D01*
X187644Y-1380356D01*
X258356Y-1380356D01*
X258356Y-1634356D02*
X258356Y-1563644D01*
X187644Y-1563644D01*
X187644Y-1634356D01*
X258356Y-1634356D01*
X258356Y-1888356D02*
X258356Y-1817644D01*
X187644Y-1817644D01*
X187644Y-1888356D01*
X258356Y-1888356D01*
X258356Y-2142356D02*
X258356Y-2071644D01*
X187644Y-2071644D01*
X187644Y-2142356D01*
X258356Y-2142356D01*
X258356Y-2396356D02*
X258356Y-2325644D01*
X187644Y-2325644D01*
X187644Y-2396356D01*
X258356Y-2396356D01*
X258356Y-2650356D02*
X258356Y-2579644D01*
X187644Y-2579644D01*
X187644Y-2650356D01*
X258356Y-2650356D01*
X258356Y-2904356D02*
X258356Y-2833644D01*
X187644Y-2833644D01*
X187644Y-2904356D01*
X258356Y-2904356D01*
X258356Y-3158356D02*
X258356Y-3087644D01*
X187644Y-3087644D01*
X187644Y-3158356D01*
X258356Y-3158356D01*
X258356Y-3412356D02*
X258356Y-3341644D01*
X187644Y-3341644D01*
X187644Y-3412356D01*
X258356Y-3412356D01*
X258356Y-3666356D02*
X258356Y-3595644D01*
X187644Y-3595644D01*
X187644Y-3666356D01*
X258356Y-3666356D01*
X258356Y-3920356D02*
X258356Y-3849644D01*
X187644Y-3849644D01*
X187644Y-3920356D01*
X258356Y-3920356D01*
X258356Y-4174356D02*
X258356Y-4103644D01*
X187644Y-4103644D01*
X187644Y-4174356D01*
X258356Y-4174356D01*
X258356Y-4428356D02*
X258356Y-4357644D01*
X187644Y-4357644D01*
X187644Y-4428356D01*
X258356Y-4428356D01*
X258356Y-4682356D02*
X258356Y-4611644D01*
X187644Y-4611644D01*
X187644Y-4682356D01*
X258356Y-4682356D01*
X258356Y-4936356D02*
X258356Y-4865644D01*
X187644Y-4865644D01*
X187644Y-4936356D01*
X258356Y-4936356D01*
X258356Y-5190356D02*
X258356Y-5119644D01*
X187644Y-5119644D01*
X187644Y-5190356D01*
X258356Y-5190356D01*
X258356Y-5444356D02*
X258356Y-5373644D01*
X187644Y-5373644D01*
X187644Y-5444356D01*
X258356Y-5444356D01*
X258356Y-5698356D02*
X258356Y-5627644D01*
X187644Y-5627644D01*
X187644Y-5698356D01*
X258356Y-5698356D01*
X512356Y-872356D02*
X512356Y-801644D01*
X441644Y-801644D01*
X441644Y-872356D01*
X512356Y-872356D01*
X512356Y-1126356D02*
X512356Y-1055644D01*
X441644Y-1055644D01*
X441644Y-1126356D01*
X512356Y-1126356D01*
X512356Y-1380356D02*
X512356Y-1309644D01*
X441644Y-1309644D01*
X441644Y-1380356D01*
X512356Y-1380356D01*
X512356Y-1634356D02*
X512356Y-1563644D01*
X441644Y-1563644D01*
X441644Y-1634356D01*
X512356Y-1634356D01*
X512356Y-1888356D02*
X512356Y-1817644D01*
X441644Y-1817644D01*
X441644Y-1888356D01*
X512356Y-1888356D01*
X512356Y-2142356D02*
X512356Y-2071644D01*
X441644Y-2071644D01*
X441644Y-2142356D01*
X512356Y-2142356D01*
X512356Y-2396356D02*
X512356Y-2325644D01*
X441644Y-2325644D01*
X441644Y-2396356D01*
X512356Y-2396356D01*
X512356Y-2650356D02*
X512356Y-2579644D01*
X441644Y-2579644D01*
X441644Y-2650356D01*
X512356Y-2650356D01*
X512356Y-2904356D02*
X512356Y-2833644D01*
X441644Y-2833644D01*
X441644Y-2904356D01*
X512356Y-2904356D01*
X512356Y-3158356D02*
X512356Y-3087644D01*
X441644Y-3087644D01*
X441644Y-3158356D01*
X512356Y-3158356D01*
X512356Y-3412356D02*
X512356Y-3341644D01*
X441644Y-3341644D01*
X441644Y-3412356D01*
X512356Y-3412356D01*
X512356Y-3666356D02*
X512356Y-3595644D01*
X441644Y-3595644D01*
X441644Y-3666356D01*
X512356Y-3666356D01*
X512356Y-3920356D02*
X512356Y-3849644D01*
X441644Y-3849644D01*
X441644Y-3920356D01*
X512356Y-3920356D01*
X512356Y-4174356D02*
X512356Y-4103644D01*
X441644Y-4103644D01*
X441644Y-4174356D01*
X512356Y-4174356D01*
X512356Y-4428356D02*
X512356Y-4357644D01*
X441644Y-4357644D01*
X441644Y-4428356D01*
X512356Y-4428356D01*
X512356Y-4682356D02*
X512356Y-4611644D01*
X441644Y-4611644D01*
X441644Y-4682356D01*
X512356Y-4682356D01*
X512356Y-4936356D02*
X512356Y-4865644D01*
X441644Y-4865644D01*
X441644Y-4936356D01*
X512356Y-4936356D01*
X512356Y-5190356D02*
X512356Y-5119644D01*
X441644Y-5119644D01*
X441644Y-5190356D01*
X512356Y-5190356D01*
X512356Y-5444356D02*
X512356Y-5373644D01*
X441644Y-5373644D01*
X441644Y-5444356D01*
X512356Y-5444356D01*
X512356Y-5698356D02*
X512356Y-5627644D01*
X441644Y-5627644D01*
X441644Y-5698356D01*
X512356Y-5698356D01*
X766356Y-1380356D02*
X766356Y-1309644D01*
X695644Y-1309644D01*
X695644Y-1380356D01*
X766356Y-1380356D01*
X766356Y-1634356D02*
X766356Y-1563644D01*
X695644Y-1563644D01*
X695644Y-1634356D01*
X766356Y-1634356D01*
X766356Y-1888356D02*
X766356Y-1817644D01*
X695644Y-1817644D01*
X695644Y-1888356D01*
X766356Y-1888356D01*
X766356Y-2142356D02*
X766356Y-2071644D01*
X695644Y-2071644D01*
X695644Y-2142356D01*
X766356Y-2142356D01*
X766356Y-2396356D02*
X766356Y-2325644D01*
X695644Y-2325644D01*
X695644Y-2396356D01*
X766356Y-2396356D01*
X766356Y-2650356D02*
X766356Y-2579644D01*
X695644Y-2579644D01*
X695644Y-2650356D01*
X766356Y-2650356D01*
X766356Y-2904356D02*
X766356Y-2833644D01*
X695644Y-2833644D01*
X695644Y-2904356D01*
X766356Y-2904356D01*
X766356Y-3158356D02*
X766356Y-3087644D01*
X695644Y-3087644D01*
X695644Y-3158356D01*
X766356Y-3158356D01*
X766356Y-3412356D02*
X766356Y-3341644D01*
X695644Y-3341644D01*
X695644Y-3412356D01*
X766356Y-3412356D01*
X766356Y-3666356D02*
X766356Y-3595644D01*
X695644Y-3595644D01*
X695644Y-3666356D01*
X766356Y-3666356D01*
X766356Y-3920356D02*
X766356Y-3849644D01*
X695644Y-3849644D01*
X695644Y-3920356D01*
X766356Y-3920356D01*
X766356Y-4174356D02*
X766356Y-4103644D01*
X695644Y-4103644D01*
X695644Y-4174356D01*
X766356Y-4174356D01*
X766356Y-4428356D02*
X766356Y-4357644D01*
X695644Y-4357644D01*
X695644Y-4428356D01*
X766356Y-4428356D01*
X766356Y-4936356D02*
X766356Y-4865644D01*
X695644Y-4865644D01*
X695644Y-4936356D01*
X766356Y-4936356D01*
X766356Y-5444356D02*
X766356Y-5373644D01*
X695644Y-5373644D01*
X695644Y-5444356D01*
X766356Y-5444356D01*
X766356Y-5698356D02*
X766356Y-5627644D01*
X695644Y-5627644D01*
X695644Y-5698356D01*
X766356Y-5698356D01*
X1785356Y-8285356D02*
X1785356Y-8214644D01*
X1714644Y-8214644D01*
X1714644Y-8285356D01*
X1785356Y-8285356D01*
X2085356Y-8285356D02*
X2085356Y-8214644D01*
X2014644Y-8214644D01*
X2014644Y-8285356D01*
X2085356Y-8285356D01*
X2385356Y-8285356D02*
X2385356Y-8214644D01*
X2314644Y-8214644D01*
X2314644Y-8285356D01*
X2385356Y-8285356D01*
X3735356Y-7485356D02*
X3735356Y-7414644D01*
X3664644Y-7414644D01*
X3664644Y-7485356D01*
X3735356Y-7485356D01*
X3735356Y-7739356D02*
X3735356Y-7668644D01*
X3664644Y-7668644D01*
X3664644Y-7739356D01*
X3735356Y-7739356D01*
X3735356Y-7993356D02*
X3735356Y-7922644D01*
X3664644Y-7922644D01*
X3664644Y-7993356D01*
X3735356Y-7993356D01*
X3735356Y-8247356D02*
X3735356Y-8176644D01*
X3664644Y-8176644D01*
X3664644Y-8247356D01*
X3735356Y-8247356D01*
X3989356Y-7485356D02*
X3989356Y-7414644D01*
X3918644Y-7414644D01*
X3918644Y-7485356D01*
X3989356Y-7485356D01*
X3989356Y-7739356D02*
X3989356Y-7668644D01*
X3918644Y-7668644D01*
X3918644Y-7739356D01*
X3989356Y-7739356D01*
X3989356Y-7993356D02*
X3989356Y-7922644D01*
X3918644Y-7922644D01*
X3918644Y-7993356D01*
X3989356Y-7993356D01*
X3989356Y-8247356D02*
X3989356Y-8176644D01*
X3918644Y-8176644D01*
X3918644Y-8247356D01*
X3989356Y-8247356D01*
X4243356Y-7485356D02*
X4243356Y-7414644D01*
X4172644Y-7414644D01*
X4172644Y-7485356D01*
X4243356Y-7485356D01*
X4243356Y-7739356D02*
X4243356Y-7668644D01*
X4172644Y-7668644D01*
X4172644Y-7739356D01*
X4243356Y-7739356D01*
X4243356Y-7993356D02*
X4243356Y-7922644D01*
X4172644Y-7922644D01*
X4172644Y-7993356D01*
X4243356Y-7993356D01*
X4243356Y-8247356D02*
X4243356Y-8176644D01*
X4172644Y-8176644D01*
X4172644Y-8247356D01*
X4243356Y-8247356D01*
X4497356Y-7485356D02*
X4497356Y-7414644D01*
X4426644Y-7414644D01*
X4426644Y-7485356D01*
X4497356Y-7485356D01*
X4497356Y-7739356D02*
X4497356Y-7668644D01*
X4426644Y-7668644D01*
X4426644Y-7739356D01*
X4497356Y-7739356D01*
X4497356Y-7993356D02*
X4497356Y-7922644D01*
X4426644Y-7922644D01*
X4426644Y-7993356D01*
X4497356Y-7993356D01*
X4497356Y-8247356D02*
X4497356Y-8176644D01*
X4426644Y-8176644D01*
X4426644Y-8247356D01*
X4497356Y-8247356D01*
X4751356Y-7485356D02*
X4751356Y-7414644D01*
X4680644Y-7414644D01*
X4680644Y-7485356D01*
X4751356Y-7485356D01*
X4751356Y-7739356D02*
X4751356Y-7668644D01*
X4680644Y-7668644D01*
X4680644Y-7739356D01*
X4751356Y-7739356D01*
X4751356Y-7993356D02*
X4751356Y-7922644D01*
X4680644Y-7922644D01*
X4680644Y-7993356D01*
X4751356Y-7993356D01*
X4751356Y-8247356D02*
X4751356Y-8176644D01*
X4680644Y-8176644D01*
X4680644Y-8247356D01*
X4751356Y-8247356D01*
X4785356Y-1085356D02*
X4785356Y-1014644D01*
X4714644Y-1014644D01*
X4714644Y-1085356D01*
X4785356Y-1085356D01*
X5005356Y-7485356D02*
X5005356Y-7414644D01*
X4934644Y-7414644D01*
X4934644Y-7485356D01*
X5005356Y-7485356D01*
X5005356Y-7739356D02*
X5005356Y-7668644D01*
X4934644Y-7668644D01*
X4934644Y-7739356D01*
X5005356Y-7739356D01*
X5005356Y-7993356D02*
X5005356Y-7922644D01*
X4934644Y-7922644D01*
X4934644Y-7993356D01*
X5005356Y-7993356D01*
X5005356Y-8247356D02*
X5005356Y-8176644D01*
X4934644Y-8176644D01*
X4934644Y-8247356D01*
X5005356Y-8247356D01*
X5259356Y-7485356D02*
X5259356Y-7414644D01*
X5188644Y-7414644D01*
X5188644Y-7485356D01*
X5259356Y-7485356D01*
X5259356Y-7739356D02*
X5259356Y-7668644D01*
X5188644Y-7668644D01*
X5188644Y-7739356D01*
X5259356Y-7739356D01*
X5259356Y-7993356D02*
X5259356Y-7922644D01*
X5188644Y-7922644D01*
X5188644Y-7993356D01*
X5259356Y-7993356D01*
X5259356Y-8247356D02*
X5259356Y-8176644D01*
X5188644Y-8176644D01*
X5188644Y-8247356D01*
X5259356Y-8247356D01*
X5281356Y-2785356D02*
X5281356Y-2714644D01*
X5210644Y-2714644D01*
X5210644Y-2785356D01*
X5281356Y-2785356D01*
X5285356Y-1085356D02*
X5285356Y-1014644D01*
X5214644Y-1014644D01*
X5214644Y-1085356D01*
X5285356Y-1085356D01*
X5513356Y-7485356D02*
X5513356Y-7414644D01*
X5442644Y-7414644D01*
X5442644Y-7485356D01*
X5513356Y-7485356D01*
X5513356Y-7739356D02*
X5513356Y-7668644D01*
X5442644Y-7668644D01*
X5442644Y-7739356D01*
X5513356Y-7739356D01*
X5513356Y-7993356D02*
X5513356Y-7922644D01*
X5442644Y-7922644D01*
X5442644Y-7993356D01*
X5513356Y-7993356D01*
X5513356Y-8247356D02*
X5513356Y-8176644D01*
X5442644Y-8176644D01*
X5442644Y-8247356D01*
X5513356Y-8247356D01*
X5789356Y-2785356D02*
X5789356Y-2714644D01*
X5718644Y-2714644D01*
X5718644Y-2785356D01*
X5789356Y-2785356D01*
X5795356Y-7535356D02*
X5795356Y-7464644D01*
X5724644Y-7464644D01*
X5724644Y-7535356D01*
X5795356Y-7535356D01*
X5795356Y-7789356D02*
X5795356Y-7718644D01*
X5724644Y-7718644D01*
X5724644Y-7789356D01*
X5795356Y-7789356D01*
X5795356Y-8043356D02*
X5795356Y-7972644D01*
X5724644Y-7972644D01*
X5724644Y-8043356D01*
X5795356Y-8043356D01*
D12*
X935000Y-750000D02*
X990000Y-695000D01*
X935000Y-640000D01*
X880000Y-695000D01*
X935000Y-750000D01*
X1185000Y-750000D02*
X1240000Y-695000D01*
X1185000Y-640000D01*
X1130000Y-695000D01*
X1185000Y-750000D01*
X1435000Y-750000D02*
X1490000Y-695000D01*
X1435000Y-640000D01*
X1380000Y-695000D01*
X1435000Y-750000D01*
X1685000Y-750000D02*
X1740000Y-695000D01*
X1685000Y-640000D01*
X1630000Y-695000D01*
X1685000Y-750000D01*
X2105000Y-750000D02*
X2160000Y-695000D01*
X2105000Y-640000D01*
X2050000Y-695000D01*
X2105000Y-750000D01*
X2355000Y-750000D02*
X2410000Y-695000D01*
X2355000Y-640000D01*
X2300000Y-695000D01*
X2355000Y-750000D01*
X2605000Y-750000D02*
X2660000Y-695000D01*
X2605000Y-640000D01*
X2550000Y-695000D01*
X2605000Y-750000D01*
X2855000Y-750000D02*
X2910000Y-695000D01*
X2855000Y-640000D01*
X2800000Y-695000D01*
X2855000Y-750000D01*
X3250000Y-6755000D02*
X3305000Y-6700000D01*
X3250000Y-6645000D01*
X3195000Y-6700000D01*
X3250000Y-6755000D01*
X3250000Y-7075000D02*
X3305000Y-7020000D01*
X3250000Y-6965000D01*
X3195000Y-7020000D01*
X3250000Y-7075000D01*
X3275000Y-750000D02*
X3330000Y-695000D01*
X3275000Y-640000D01*
X3220000Y-695000D01*
X3275000Y-750000D01*
X3525000Y-750000D02*
X3580000Y-695000D01*
X3525000Y-640000D01*
X3470000Y-695000D01*
X3525000Y-750000D01*
X3775000Y-750000D02*
X3830000Y-695000D01*
X3775000Y-640000D01*
X3720000Y-695000D01*
X3775000Y-750000D01*
X4025000Y-750000D02*
X4080000Y-695000D01*
X4025000Y-640000D01*
X3970000Y-695000D01*
X4025000Y-750000D01*
X4266000Y-6755000D02*
X4321000Y-6700000D01*
X4266000Y-6645000D01*
X4211000Y-6700000D01*
X4266000Y-6755000D01*
X4266000Y-7075000D02*
X4321000Y-7020000D01*
X4266000Y-6965000D01*
X4211000Y-7020000D01*
X4266000Y-7075000D01*
X4445000Y-750000D02*
X4500000Y-695000D01*
X4445000Y-640000D01*
X4390000Y-695000D01*
X4445000Y-750000D01*
X4550000Y-6755000D02*
X4605000Y-6700000D01*
X4550000Y-6645000D01*
X4495000Y-6700000D01*
X4550000Y-6755000D01*
X4550000Y-7075000D02*
X4605000Y-7020000D01*
X4550000Y-6965000D01*
X4495000Y-7020000D01*
X4550000Y-7075000D01*
X4695000Y-750000D02*
X4750000Y-695000D01*
X4695000Y-640000D01*
X4640000Y-695000D01*
X4695000Y-750000D01*
X4945000Y-750000D02*
X5000000Y-695000D01*
X4945000Y-640000D01*
X4890000Y-695000D01*
X4945000Y-750000D01*
X5195000Y-750000D02*
X5250000Y-695000D01*
X5195000Y-640000D01*
X5140000Y-695000D01*
X5195000Y-750000D01*
X5270000Y-3355000D02*
X5325000Y-3300000D01*
X5270000Y-3245000D01*
X5215000Y-3300000D01*
X5270000Y-3355000D01*
X5270000Y-3605000D02*
X5325000Y-3550000D01*
X5270000Y-3495000D01*
X5215000Y-3550000D01*
X5270000Y-3605000D01*
X5270000Y-3855000D02*
X5325000Y-3800000D01*
X5270000Y-3745000D01*
X5215000Y-3800000D01*
X5270000Y-3855000D01*
X5270000Y-4105000D02*
X5325000Y-4050000D01*
X5270000Y-3995000D01*
X5215000Y-4050000D01*
X5270000Y-4105000D01*
X5270000Y-4355000D02*
X5325000Y-4300000D01*
X5270000Y-4245000D01*
X5215000Y-4300000D01*
X5270000Y-4355000D01*
X5270000Y-5030000D02*
X5325000Y-4975000D01*
X5270000Y-4920000D01*
X5215000Y-4975000D01*
X5270000Y-5030000D01*
X5270000Y-5280000D02*
X5325000Y-5225000D01*
X5270000Y-5170000D01*
X5215000Y-5225000D01*
X5270000Y-5280000D01*
X5270000Y-5530000D02*
X5325000Y-5475000D01*
X5270000Y-5420000D01*
X5215000Y-5475000D01*
X5270000Y-5530000D01*
X5270000Y-5780000D02*
X5325000Y-5725000D01*
X5270000Y-5670000D01*
X5215000Y-5725000D01*
X5270000Y-5780000D01*
X5566000Y-6755000D02*
X5621000Y-6700000D01*
X5566000Y-6645000D01*
X5511000Y-6700000D01*
X5566000Y-6755000D01*
X5566000Y-7075000D02*
X5621000Y-7020000D01*
X5566000Y-6965000D01*
X5511000Y-7020000D01*
X5566000Y-7075000D01*
D13*
X790000Y-7490000D02*
X910000Y-7610000D01*
X910000Y-7490000D02*
X790000Y-7610000D01*
X910000Y-7550000D02*
G75*
G02*
X790000Y-7550000I-60000J0D01*
G01*
X790000Y-7550000D02*
G75*
G02*
X910000Y-7550000I60000J0D01*
G01*
X3290000Y-7490000D02*
X3410000Y-7610000D01*
X3410000Y-7490000D02*
X3290000Y-7610000D01*
X3410000Y-7550000D02*
G75*
G02*
X3290000Y-7550000I-60000J0D01*
G01*
X3290000Y-7550000D02*
G75*
G02*
X3410000Y-7550000I60000J0D01*
G01*
D11*
X255777Y-8816484D02*
X255777Y-8616484D01*
X255777Y-8616484D02*
X303396Y-8616484D01*
X303396Y-8616484D02*
X331967Y-8626008D01*
X331967Y-8626008D02*
X351015Y-8645055D01*
X351015Y-8645055D02*
X360539Y-8664103D01*
X360539Y-8664103D02*
X370062Y-8702198D01*
X370062Y-8702198D02*
X370062Y-8730770D01*
X370062Y-8730770D02*
X360539Y-8768865D01*
X360539Y-8768865D02*
X351015Y-8787912D01*
X351015Y-8787912D02*
X331967Y-8806960D01*
X331967Y-8806960D02*
X303396Y-8816484D01*
X303396Y-8816484D02*
X255777Y-8816484D01*
X455777Y-8816484D02*
X455777Y-8683150D01*
X455777Y-8721246D02*
X465301Y-8702198D01*
X465301Y-8702198D02*
X474824Y-8692674D01*
X474824Y-8692674D02*
X493872Y-8683150D01*
X493872Y-8683150D02*
X512920Y-8683150D01*
X579586Y-8816484D02*
X579586Y-8683150D01*
X579586Y-8616484D02*
X570063Y-8626008D01*
X570063Y-8626008D02*
X579586Y-8635531D01*
X579586Y-8635531D02*
X589110Y-8626008D01*
X589110Y-8626008D02*
X579586Y-8616484D01*
X579586Y-8616484D02*
X579586Y-8635531D01*
X703396Y-8816484D02*
X684348Y-8806960D01*
X684348Y-8806960D02*
X674824Y-8787912D01*
X674824Y-8787912D02*
X674824Y-8616484D01*
X808158Y-8816484D02*
X789110Y-8806960D01*
X789110Y-8806960D02*
X779586Y-8787912D01*
X779586Y-8787912D02*
X779586Y-8616484D01*
X1036729Y-8816484D02*
X1036729Y-8616484D01*
X1036729Y-8616484D02*
X1103396Y-8759341D01*
X1103396Y-8759341D02*
X1170063Y-8616484D01*
X1170063Y-8616484D02*
X1170063Y-8816484D01*
X1351015Y-8816484D02*
X1351015Y-8711722D01*
X1351015Y-8711722D02*
X1341491Y-8692674D01*
X1341491Y-8692674D02*
X1322444Y-8683150D01*
X1322444Y-8683150D02*
X1284348Y-8683150D01*
X1284348Y-8683150D02*
X1265301Y-8692674D01*
X1351015Y-8806960D02*
X1331967Y-8816484D01*
X1331967Y-8816484D02*
X1284348Y-8816484D01*
X1284348Y-8816484D02*
X1265301Y-8806960D01*
X1265301Y-8806960D02*
X1255777Y-8787912D01*
X1255777Y-8787912D02*
X1255777Y-8768865D01*
X1255777Y-8768865D02*
X1265301Y-8749817D01*
X1265301Y-8749817D02*
X1284348Y-8740293D01*
X1284348Y-8740293D02*
X1331967Y-8740293D01*
X1331967Y-8740293D02*
X1351015Y-8730770D01*
X1446253Y-8683150D02*
X1446253Y-8883150D01*
X1446253Y-8692674D02*
X1465301Y-8683150D01*
X1465301Y-8683150D02*
X1503396Y-8683150D01*
X1503396Y-8683150D02*
X1522443Y-8692674D01*
X1522443Y-8692674D02*
X1531967Y-8702198D01*
X1531967Y-8702198D02*
X1541491Y-8721246D01*
X1541491Y-8721246D02*
X1541491Y-8778389D01*
X1541491Y-8778389D02*
X1531967Y-8797436D01*
X1531967Y-8797436D02*
X1522443Y-8806960D01*
X1522443Y-8806960D02*
X1503396Y-8816484D01*
X1503396Y-8816484D02*
X1465301Y-8816484D01*
X1465301Y-8816484D02*
X1446253Y-8806960D01*
X1627205Y-8797436D02*
X1636729Y-8806960D01*
X1636729Y-8806960D02*
X1627205Y-8816484D01*
X1627205Y-8816484D02*
X1617682Y-8806960D01*
X1617682Y-8806960D02*
X1627205Y-8797436D01*
X1627205Y-8797436D02*
X1627205Y-8816484D01*
X1627205Y-8692674D02*
X1636729Y-8702198D01*
X1636729Y-8702198D02*
X1627205Y-8711722D01*
X1627205Y-8711722D02*
X1617682Y-8702198D01*
X1617682Y-8702198D02*
X1627205Y-8692674D01*
X1627205Y-8692674D02*
X1627205Y-8711722D01*
D10*
X-45000Y-9125000D02*
X-5000Y-9165000D01*
X-5000Y-9125000D02*
X-45000Y-9165000D01*
D11*
X293872Y-9036484D02*
X312920Y-9036484D01*
X312920Y-9036484D02*
X331967Y-9046008D01*
X331967Y-9046008D02*
X341491Y-9055531D01*
X341491Y-9055531D02*
X351015Y-9074579D01*
X351015Y-9074579D02*
X360539Y-9112674D01*
X360539Y-9112674D02*
X360539Y-9160293D01*
X360539Y-9160293D02*
X351015Y-9198389D01*
X351015Y-9198389D02*
X341491Y-9217436D01*
X341491Y-9217436D02*
X331967Y-9226960D01*
X331967Y-9226960D02*
X312920Y-9236484D01*
X312920Y-9236484D02*
X293872Y-9236484D01*
X293872Y-9236484D02*
X274824Y-9226960D01*
X274824Y-9226960D02*
X265301Y-9217436D01*
X265301Y-9217436D02*
X255777Y-9198389D01*
X255777Y-9198389D02*
X246253Y-9160293D01*
X246253Y-9160293D02*
X246253Y-9112674D01*
X246253Y-9112674D02*
X255777Y-9074579D01*
X255777Y-9074579D02*
X265301Y-9055531D01*
X265301Y-9055531D02*
X274824Y-9046008D01*
X274824Y-9046008D02*
X293872Y-9036484D01*
X446253Y-9217436D02*
X455777Y-9226960D01*
X455777Y-9226960D02*
X446253Y-9236484D01*
X446253Y-9236484D02*
X436729Y-9226960D01*
X436729Y-9226960D02*
X446253Y-9217436D01*
X446253Y-9217436D02*
X446253Y-9236484D01*
X627205Y-9103150D02*
X627205Y-9236484D01*
X579586Y-9026960D02*
X531967Y-9169817D01*
X531967Y-9169817D02*
X655777Y-9169817D01*
X770062Y-9036484D02*
X789110Y-9036484D01*
X789110Y-9036484D02*
X808158Y-9046008D01*
X808158Y-9046008D02*
X817682Y-9055531D01*
X817682Y-9055531D02*
X827205Y-9074579D01*
X827205Y-9074579D02*
X836729Y-9112674D01*
X836729Y-9112674D02*
X836729Y-9160293D01*
X836729Y-9160293D02*
X827205Y-9198389D01*
X827205Y-9198389D02*
X817682Y-9217436D01*
X817682Y-9217436D02*
X808158Y-9226960D01*
X808158Y-9226960D02*
X789110Y-9236484D01*
X789110Y-9236484D02*
X770062Y-9236484D01*
X770062Y-9236484D02*
X751015Y-9226960D01*
X751015Y-9226960D02*
X741491Y-9217436D01*
X741491Y-9217436D02*
X731967Y-9198389D01*
X731967Y-9198389D02*
X722443Y-9160293D01*
X722443Y-9160293D02*
X722443Y-9112674D01*
X722443Y-9112674D02*
X731967Y-9074579D01*
X731967Y-9074579D02*
X741491Y-9055531D01*
X741491Y-9055531D02*
X751015Y-9046008D01*
X751015Y-9046008D02*
X770062Y-9036484D01*
X960539Y-9036484D02*
X979586Y-9036484D01*
X979586Y-9036484D02*
X998634Y-9046008D01*
X998634Y-9046008D02*
X1008158Y-9055531D01*
X1008158Y-9055531D02*
X1017682Y-9074579D01*
X1017682Y-9074579D02*
X1027205Y-9112674D01*
X1027205Y-9112674D02*
X1027205Y-9160293D01*
X1027205Y-9160293D02*
X1017682Y-9198389D01*
X1017682Y-9198389D02*
X1008158Y-9217436D01*
X1008158Y-9217436D02*
X998634Y-9226960D01*
X998634Y-9226960D02*
X979586Y-9236484D01*
X979586Y-9236484D02*
X960539Y-9236484D01*
X960539Y-9236484D02*
X941491Y-9226960D01*
X941491Y-9226960D02*
X931967Y-9217436D01*
X931967Y-9217436D02*
X922443Y-9198389D01*
X922443Y-9198389D02*
X912920Y-9160293D01*
X912920Y-9160293D02*
X912920Y-9112674D01*
X912920Y-9112674D02*
X922443Y-9074579D01*
X922443Y-9074579D02*
X931967Y-9055531D01*
X931967Y-9055531D02*
X941491Y-9046008D01*
X941491Y-9046008D02*
X960539Y-9036484D01*
X1112920Y-9236484D02*
X1112920Y-9103150D01*
X1112920Y-9122198D02*
X1122444Y-9112674D01*
X1122444Y-9112674D02*
X1141491Y-9103150D01*
X1141491Y-9103150D02*
X1170063Y-9103150D01*
X1170063Y-9103150D02*
X1189110Y-9112674D01*
X1189110Y-9112674D02*
X1198634Y-9131722D01*
X1198634Y-9131722D02*
X1198634Y-9236484D01*
X1198634Y-9131722D02*
X1208158Y-9112674D01*
X1208158Y-9112674D02*
X1227205Y-9103150D01*
X1227205Y-9103150D02*
X1255777Y-9103150D01*
X1255777Y-9103150D02*
X1274825Y-9112674D01*
X1274825Y-9112674D02*
X1284348Y-9131722D01*
X1284348Y-9131722D02*
X1284348Y-9236484D01*
X1379586Y-9236484D02*
X1379586Y-9103150D01*
X1379586Y-9122198D02*
X1389110Y-9112674D01*
X1389110Y-9112674D02*
X1408158Y-9103150D01*
X1408158Y-9103150D02*
X1436729Y-9103150D01*
X1436729Y-9103150D02*
X1455777Y-9112674D01*
X1455777Y-9112674D02*
X1465301Y-9131722D01*
X1465301Y-9131722D02*
X1465301Y-9236484D01*
X1465301Y-9131722D02*
X1474824Y-9112674D01*
X1474824Y-9112674D02*
X1493872Y-9103150D01*
X1493872Y-9103150D02*
X1522443Y-9103150D01*
X1522443Y-9103150D02*
X1541491Y-9112674D01*
X1541491Y-9112674D02*
X1551015Y-9131722D01*
X1551015Y-9131722D02*
X1551015Y-9236484D01*
X1941491Y-9026960D02*
X1770063Y-9284103D01*
X2198634Y-9036484D02*
X2217682Y-9036484D01*
X2217682Y-9036484D02*
X2236729Y-9046008D01*
X2236729Y-9046008D02*
X2246253Y-9055531D01*
X2246253Y-9055531D02*
X2255777Y-9074579D01*
X2255777Y-9074579D02*
X2265301Y-9112674D01*
X2265301Y-9112674D02*
X2265301Y-9160293D01*
X2265301Y-9160293D02*
X2255777Y-9198389D01*
X2255777Y-9198389D02*
X2246253Y-9217436D01*
X2246253Y-9217436D02*
X2236729Y-9226960D01*
X2236729Y-9226960D02*
X2217682Y-9236484D01*
X2217682Y-9236484D02*
X2198634Y-9236484D01*
X2198634Y-9236484D02*
X2179587Y-9226960D01*
X2179587Y-9226960D02*
X2170063Y-9217436D01*
X2170063Y-9217436D02*
X2160539Y-9198389D01*
X2160539Y-9198389D02*
X2151015Y-9160293D01*
X2151015Y-9160293D02*
X2151015Y-9112674D01*
X2151015Y-9112674D02*
X2160539Y-9074579D01*
X2160539Y-9074579D02*
X2170063Y-9055531D01*
X2170063Y-9055531D02*
X2179587Y-9046008D01*
X2179587Y-9046008D02*
X2198634Y-9036484D01*
X2351015Y-9217436D02*
X2360539Y-9226960D01*
X2360539Y-9226960D02*
X2351015Y-9236484D01*
X2351015Y-9236484D02*
X2341491Y-9226960D01*
X2341491Y-9226960D02*
X2351015Y-9217436D01*
X2351015Y-9217436D02*
X2351015Y-9236484D01*
X2484348Y-9036484D02*
X2503396Y-9036484D01*
X2503396Y-9036484D02*
X2522444Y-9046008D01*
X2522444Y-9046008D02*
X2531968Y-9055531D01*
X2531968Y-9055531D02*
X2541491Y-9074579D01*
X2541491Y-9074579D02*
X2551015Y-9112674D01*
X2551015Y-9112674D02*
X2551015Y-9160293D01*
X2551015Y-9160293D02*
X2541491Y-9198389D01*
X2541491Y-9198389D02*
X2531968Y-9217436D01*
X2531968Y-9217436D02*
X2522444Y-9226960D01*
X2522444Y-9226960D02*
X2503396Y-9236484D01*
X2503396Y-9236484D02*
X2484348Y-9236484D01*
X2484348Y-9236484D02*
X2465301Y-9226960D01*
X2465301Y-9226960D02*
X2455777Y-9217436D01*
X2455777Y-9217436D02*
X2446253Y-9198389D01*
X2446253Y-9198389D02*
X2436729Y-9160293D01*
X2436729Y-9160293D02*
X2436729Y-9112674D01*
X2436729Y-9112674D02*
X2446253Y-9074579D01*
X2446253Y-9074579D02*
X2455777Y-9055531D01*
X2455777Y-9055531D02*
X2465301Y-9046008D01*
X2465301Y-9046008D02*
X2484348Y-9036484D01*
X2741491Y-9236484D02*
X2627206Y-9236484D01*
X2684348Y-9236484D02*
X2684348Y-9036484D01*
X2684348Y-9036484D02*
X2665301Y-9065055D01*
X2665301Y-9065055D02*
X2646253Y-9084103D01*
X2646253Y-9084103D02*
X2627206Y-9093627D01*
X2922444Y-9036484D02*
X2827206Y-9036484D01*
X2827206Y-9036484D02*
X2817682Y-9131722D01*
X2817682Y-9131722D02*
X2827206Y-9122198D01*
X2827206Y-9122198D02*
X2846253Y-9112674D01*
X2846253Y-9112674D02*
X2893872Y-9112674D01*
X2893872Y-9112674D02*
X2912920Y-9122198D01*
X2912920Y-9122198D02*
X2922444Y-9131722D01*
X2922444Y-9131722D02*
X2931967Y-9150770D01*
X2931967Y-9150770D02*
X2931967Y-9198389D01*
X2931967Y-9198389D02*
X2922444Y-9217436D01*
X2922444Y-9217436D02*
X2912920Y-9226960D01*
X2912920Y-9226960D02*
X2893872Y-9236484D01*
X2893872Y-9236484D02*
X2846253Y-9236484D01*
X2846253Y-9236484D02*
X2827206Y-9226960D01*
X2827206Y-9226960D02*
X2817682Y-9217436D01*
X2998634Y-9036484D02*
X3131967Y-9036484D01*
X3131967Y-9036484D02*
X3046253Y-9236484D01*
X3198634Y-9036484D02*
X3198634Y-9074579D01*
X3274825Y-9036484D02*
X3274825Y-9074579D01*
X3570063Y-9312674D02*
X3560539Y-9303150D01*
X3560539Y-9303150D02*
X3541491Y-9274579D01*
X3541491Y-9274579D02*
X3531968Y-9255531D01*
X3531968Y-9255531D02*
X3522444Y-9226960D01*
X3522444Y-9226960D02*
X3512920Y-9179341D01*
X3512920Y-9179341D02*
X3512920Y-9141246D01*
X3512920Y-9141246D02*
X3522444Y-9093627D01*
X3522444Y-9093627D02*
X3531968Y-9065055D01*
X3531968Y-9065055D02*
X3541491Y-9046008D01*
X3541491Y-9046008D02*
X3560539Y-9017436D01*
X3560539Y-9017436D02*
X3570063Y-9007912D01*
X3751015Y-9236484D02*
X3636729Y-9236484D01*
X3693872Y-9236484D02*
X3693872Y-9036484D01*
X3693872Y-9036484D02*
X3674825Y-9065055D01*
X3674825Y-9065055D02*
X3655777Y-9084103D01*
X3655777Y-9084103D02*
X3636729Y-9093627D01*
X3874825Y-9036484D02*
X3893872Y-9036484D01*
X3893872Y-9036484D02*
X3912920Y-9046008D01*
X3912920Y-9046008D02*
X3922444Y-9055531D01*
X3922444Y-9055531D02*
X3931968Y-9074579D01*
X3931968Y-9074579D02*
X3941491Y-9112674D01*
X3941491Y-9112674D02*
X3941491Y-9160293D01*
X3941491Y-9160293D02*
X3931968Y-9198389D01*
X3931968Y-9198389D02*
X3922444Y-9217436D01*
X3922444Y-9217436D02*
X3912920Y-9226960D01*
X3912920Y-9226960D02*
X3893872Y-9236484D01*
X3893872Y-9236484D02*
X3874825Y-9236484D01*
X3874825Y-9236484D02*
X3855777Y-9226960D01*
X3855777Y-9226960D02*
X3846253Y-9217436D01*
X3846253Y-9217436D02*
X3836729Y-9198389D01*
X3836729Y-9198389D02*
X3827206Y-9160293D01*
X3827206Y-9160293D02*
X3827206Y-9112674D01*
X3827206Y-9112674D02*
X3836729Y-9074579D01*
X3836729Y-9074579D02*
X3846253Y-9055531D01*
X3846253Y-9055531D02*
X3855777Y-9046008D01*
X3855777Y-9046008D02*
X3874825Y-9036484D01*
X4179587Y-9236484D02*
X4179587Y-9036484D01*
X4265301Y-9236484D02*
X4265301Y-9131722D01*
X4265301Y-9131722D02*
X4255777Y-9112674D01*
X4255777Y-9112674D02*
X4236730Y-9103150D01*
X4236730Y-9103150D02*
X4208158Y-9103150D01*
X4208158Y-9103150D02*
X4189110Y-9112674D01*
X4189110Y-9112674D02*
X4179587Y-9122198D01*
X4389111Y-9236484D02*
X4370063Y-9226960D01*
X4370063Y-9226960D02*
X4360539Y-9217436D01*
X4360539Y-9217436D02*
X4351015Y-9198389D01*
X4351015Y-9198389D02*
X4351015Y-9141246D01*
X4351015Y-9141246D02*
X4360539Y-9122198D01*
X4360539Y-9122198D02*
X4370063Y-9112674D01*
X4370063Y-9112674D02*
X4389111Y-9103150D01*
X4389111Y-9103150D02*
X4417682Y-9103150D01*
X4417682Y-9103150D02*
X4436730Y-9112674D01*
X4436730Y-9112674D02*
X4446253Y-9122198D01*
X4446253Y-9122198D02*
X4455777Y-9141246D01*
X4455777Y-9141246D02*
X4455777Y-9198389D01*
X4455777Y-9198389D02*
X4446253Y-9217436D01*
X4446253Y-9217436D02*
X4436730Y-9226960D01*
X4436730Y-9226960D02*
X4417682Y-9236484D01*
X4417682Y-9236484D02*
X4389111Y-9236484D01*
X4570063Y-9236484D02*
X4551015Y-9226960D01*
X4551015Y-9226960D02*
X4541492Y-9207912D01*
X4541492Y-9207912D02*
X4541492Y-9036484D01*
X4722444Y-9226960D02*
X4703396Y-9236484D01*
X4703396Y-9236484D02*
X4665301Y-9236484D01*
X4665301Y-9236484D02*
X4646253Y-9226960D01*
X4646253Y-9226960D02*
X4636730Y-9207912D01*
X4636730Y-9207912D02*
X4636730Y-9131722D01*
X4636730Y-9131722D02*
X4646253Y-9112674D01*
X4646253Y-9112674D02*
X4665301Y-9103150D01*
X4665301Y-9103150D02*
X4703396Y-9103150D01*
X4703396Y-9103150D02*
X4722444Y-9112674D01*
X4722444Y-9112674D02*
X4731968Y-9131722D01*
X4731968Y-9131722D02*
X4731968Y-9150770D01*
X4731968Y-9150770D02*
X4636730Y-9169817D01*
X4808158Y-9226960D02*
X4827206Y-9236484D01*
X4827206Y-9236484D02*
X4865301Y-9236484D01*
X4865301Y-9236484D02*
X4884349Y-9226960D01*
X4884349Y-9226960D02*
X4893873Y-9207912D01*
X4893873Y-9207912D02*
X4893873Y-9198389D01*
X4893873Y-9198389D02*
X4884349Y-9179341D01*
X4884349Y-9179341D02*
X4865301Y-9169817D01*
X4865301Y-9169817D02*
X4836730Y-9169817D01*
X4836730Y-9169817D02*
X4817682Y-9160293D01*
X4817682Y-9160293D02*
X4808158Y-9141246D01*
X4808158Y-9141246D02*
X4808158Y-9131722D01*
X4808158Y-9131722D02*
X4817682Y-9112674D01*
X4817682Y-9112674D02*
X4836730Y-9103150D01*
X4836730Y-9103150D02*
X4865301Y-9103150D01*
X4865301Y-9103150D02*
X4884349Y-9112674D01*
X4960539Y-9312674D02*
X4970063Y-9303150D01*
X4970063Y-9303150D02*
X4989111Y-9274579D01*
X4989111Y-9274579D02*
X4998634Y-9255531D01*
X4998634Y-9255531D02*
X5008158Y-9226960D01*
X5008158Y-9226960D02*
X5017682Y-9179341D01*
X5017682Y-9179341D02*
X5017682Y-9141246D01*
X5017682Y-9141246D02*
X5008158Y-9093627D01*
X5008158Y-9093627D02*
X4998634Y-9065055D01*
X4998634Y-9065055D02*
X4989111Y-9046008D01*
X4989111Y-9046008D02*
X4970063Y-9017436D01*
X4970063Y-9017436D02*
X4960539Y-9007912D01*
D10*
X-5000Y-9409000D02*
G75*
G02*
X-55000Y-9409000I-25000J0D01*
G01*
X-55000Y-9409000D02*
G75*
G02*
X-5000Y-9409000I25000J0D01*
G01*
D11*
X293872Y-9300484D02*
X312920Y-9300484D01*
X312920Y-9300484D02*
X331967Y-9310008D01*
X331967Y-9310008D02*
X341491Y-9319531D01*
X341491Y-9319531D02*
X351015Y-9338579D01*
X351015Y-9338579D02*
X360539Y-9376674D01*
X360539Y-9376674D02*
X360539Y-9424293D01*
X360539Y-9424293D02*
X351015Y-9462389D01*
X351015Y-9462389D02*
X341491Y-9481436D01*
X341491Y-9481436D02*
X331967Y-9490960D01*
X331967Y-9490960D02*
X312920Y-9500484D01*
X312920Y-9500484D02*
X293872Y-9500484D01*
X293872Y-9500484D02*
X274824Y-9490960D01*
X274824Y-9490960D02*
X265301Y-9481436D01*
X265301Y-9481436D02*
X255777Y-9462389D01*
X255777Y-9462389D02*
X246253Y-9424293D01*
X246253Y-9424293D02*
X246253Y-9376674D01*
X246253Y-9376674D02*
X255777Y-9338579D01*
X255777Y-9338579D02*
X265301Y-9319531D01*
X265301Y-9319531D02*
X274824Y-9310008D01*
X274824Y-9310008D02*
X293872Y-9300484D01*
X446253Y-9481436D02*
X455777Y-9490960D01*
X455777Y-9490960D02*
X446253Y-9500484D01*
X446253Y-9500484D02*
X436729Y-9490960D01*
X436729Y-9490960D02*
X446253Y-9481436D01*
X446253Y-9481436D02*
X446253Y-9500484D01*
X636729Y-9300484D02*
X541491Y-9300484D01*
X541491Y-9300484D02*
X531967Y-9395722D01*
X531967Y-9395722D02*
X541491Y-9386198D01*
X541491Y-9386198D02*
X560539Y-9376674D01*
X560539Y-9376674D02*
X608158Y-9376674D01*
X608158Y-9376674D02*
X627205Y-9386198D01*
X627205Y-9386198D02*
X636729Y-9395722D01*
X636729Y-9395722D02*
X646253Y-9414770D01*
X646253Y-9414770D02*
X646253Y-9462389D01*
X646253Y-9462389D02*
X636729Y-9481436D01*
X636729Y-9481436D02*
X627205Y-9490960D01*
X627205Y-9490960D02*
X608158Y-9500484D01*
X608158Y-9500484D02*
X560539Y-9500484D01*
X560539Y-9500484D02*
X541491Y-9490960D01*
X541491Y-9490960D02*
X531967Y-9481436D01*
X770062Y-9300484D02*
X789110Y-9300484D01*
X789110Y-9300484D02*
X808158Y-9310008D01*
X808158Y-9310008D02*
X817682Y-9319531D01*
X817682Y-9319531D02*
X827205Y-9338579D01*
X827205Y-9338579D02*
X836729Y-9376674D01*
X836729Y-9376674D02*
X836729Y-9424293D01*
X836729Y-9424293D02*
X827205Y-9462389D01*
X827205Y-9462389D02*
X817682Y-9481436D01*
X817682Y-9481436D02*
X808158Y-9490960D01*
X808158Y-9490960D02*
X789110Y-9500484D01*
X789110Y-9500484D02*
X770062Y-9500484D01*
X770062Y-9500484D02*
X751015Y-9490960D01*
X751015Y-9490960D02*
X741491Y-9481436D01*
X741491Y-9481436D02*
X731967Y-9462389D01*
X731967Y-9462389D02*
X722443Y-9424293D01*
X722443Y-9424293D02*
X722443Y-9376674D01*
X722443Y-9376674D02*
X731967Y-9338579D01*
X731967Y-9338579D02*
X741491Y-9319531D01*
X741491Y-9319531D02*
X751015Y-9310008D01*
X751015Y-9310008D02*
X770062Y-9300484D01*
X960539Y-9300484D02*
X979586Y-9300484D01*
X979586Y-9300484D02*
X998634Y-9310008D01*
X998634Y-9310008D02*
X1008158Y-9319531D01*
X1008158Y-9319531D02*
X1017682Y-9338579D01*
X1017682Y-9338579D02*
X1027205Y-9376674D01*
X1027205Y-9376674D02*
X1027205Y-9424293D01*
X1027205Y-9424293D02*
X1017682Y-9462389D01*
X1017682Y-9462389D02*
X1008158Y-9481436D01*
X1008158Y-9481436D02*
X998634Y-9490960D01*
X998634Y-9490960D02*
X979586Y-9500484D01*
X979586Y-9500484D02*
X960539Y-9500484D01*
X960539Y-9500484D02*
X941491Y-9490960D01*
X941491Y-9490960D02*
X931967Y-9481436D01*
X931967Y-9481436D02*
X922443Y-9462389D01*
X922443Y-9462389D02*
X912920Y-9424293D01*
X912920Y-9424293D02*
X912920Y-9376674D01*
X912920Y-9376674D02*
X922443Y-9338579D01*
X922443Y-9338579D02*
X931967Y-9319531D01*
X931967Y-9319531D02*
X941491Y-9310008D01*
X941491Y-9310008D02*
X960539Y-9300484D01*
X1112920Y-9500484D02*
X1112920Y-9367150D01*
X1112920Y-9386198D02*
X1122444Y-9376674D01*
X1122444Y-9376674D02*
X1141491Y-9367150D01*
X1141491Y-9367150D02*
X1170063Y-9367150D01*
X1170063Y-9367150D02*
X1189110Y-9376674D01*
X1189110Y-9376674D02*
X1198634Y-9395722D01*
X1198634Y-9395722D02*
X1198634Y-9500484D01*
X1198634Y-9395722D02*
X1208158Y-9376674D01*
X1208158Y-9376674D02*
X1227205Y-9367150D01*
X1227205Y-9367150D02*
X1255777Y-9367150D01*
X1255777Y-9367150D02*
X1274825Y-9376674D01*
X1274825Y-9376674D02*
X1284348Y-9395722D01*
X1284348Y-9395722D02*
X1284348Y-9500484D01*
X1379586Y-9500484D02*
X1379586Y-9367150D01*
X1379586Y-9386198D02*
X1389110Y-9376674D01*
X1389110Y-9376674D02*
X1408158Y-9367150D01*
X1408158Y-9367150D02*
X1436729Y-9367150D01*
X1436729Y-9367150D02*
X1455777Y-9376674D01*
X1455777Y-9376674D02*
X1465301Y-9395722D01*
X1465301Y-9395722D02*
X1465301Y-9500484D01*
X1465301Y-9395722D02*
X1474824Y-9376674D01*
X1474824Y-9376674D02*
X1493872Y-9367150D01*
X1493872Y-9367150D02*
X1522443Y-9367150D01*
X1522443Y-9367150D02*
X1541491Y-9376674D01*
X1541491Y-9376674D02*
X1551015Y-9395722D01*
X1551015Y-9395722D02*
X1551015Y-9500484D01*
X1941491Y-9290960D02*
X1770063Y-9548103D01*
X2198634Y-9300484D02*
X2217682Y-9300484D01*
X2217682Y-9300484D02*
X2236729Y-9310008D01*
X2236729Y-9310008D02*
X2246253Y-9319531D01*
X2246253Y-9319531D02*
X2255777Y-9338579D01*
X2255777Y-9338579D02*
X2265301Y-9376674D01*
X2265301Y-9376674D02*
X2265301Y-9424293D01*
X2265301Y-9424293D02*
X2255777Y-9462389D01*
X2255777Y-9462389D02*
X2246253Y-9481436D01*
X2246253Y-9481436D02*
X2236729Y-9490960D01*
X2236729Y-9490960D02*
X2217682Y-9500484D01*
X2217682Y-9500484D02*
X2198634Y-9500484D01*
X2198634Y-9500484D02*
X2179587Y-9490960D01*
X2179587Y-9490960D02*
X2170063Y-9481436D01*
X2170063Y-9481436D02*
X2160539Y-9462389D01*
X2160539Y-9462389D02*
X2151015Y-9424293D01*
X2151015Y-9424293D02*
X2151015Y-9376674D01*
X2151015Y-9376674D02*
X2160539Y-9338579D01*
X2160539Y-9338579D02*
X2170063Y-9319531D01*
X2170063Y-9319531D02*
X2179587Y-9310008D01*
X2179587Y-9310008D02*
X2198634Y-9300484D01*
X2351015Y-9481436D02*
X2360539Y-9490960D01*
X2360539Y-9490960D02*
X2351015Y-9500484D01*
X2351015Y-9500484D02*
X2341491Y-9490960D01*
X2341491Y-9490960D02*
X2351015Y-9481436D01*
X2351015Y-9481436D02*
X2351015Y-9500484D01*
X2484348Y-9300484D02*
X2503396Y-9300484D01*
X2503396Y-9300484D02*
X2522444Y-9310008D01*
X2522444Y-9310008D02*
X2531968Y-9319531D01*
X2531968Y-9319531D02*
X2541491Y-9338579D01*
X2541491Y-9338579D02*
X2551015Y-9376674D01*
X2551015Y-9376674D02*
X2551015Y-9424293D01*
X2551015Y-9424293D02*
X2541491Y-9462389D01*
X2541491Y-9462389D02*
X2531968Y-9481436D01*
X2531968Y-9481436D02*
X2522444Y-9490960D01*
X2522444Y-9490960D02*
X2503396Y-9500484D01*
X2503396Y-9500484D02*
X2484348Y-9500484D01*
X2484348Y-9500484D02*
X2465301Y-9490960D01*
X2465301Y-9490960D02*
X2455777Y-9481436D01*
X2455777Y-9481436D02*
X2446253Y-9462389D01*
X2446253Y-9462389D02*
X2436729Y-9424293D01*
X2436729Y-9424293D02*
X2436729Y-9376674D01*
X2436729Y-9376674D02*
X2446253Y-9338579D01*
X2446253Y-9338579D02*
X2455777Y-9319531D01*
X2455777Y-9319531D02*
X2465301Y-9310008D01*
X2465301Y-9310008D02*
X2484348Y-9300484D01*
X2741491Y-9500484D02*
X2627206Y-9500484D01*
X2684348Y-9500484D02*
X2684348Y-9300484D01*
X2684348Y-9300484D02*
X2665301Y-9329055D01*
X2665301Y-9329055D02*
X2646253Y-9348103D01*
X2646253Y-9348103D02*
X2627206Y-9357627D01*
X2836729Y-9500484D02*
X2874825Y-9500484D01*
X2874825Y-9500484D02*
X2893872Y-9490960D01*
X2893872Y-9490960D02*
X2903396Y-9481436D01*
X2903396Y-9481436D02*
X2922444Y-9452865D01*
X2922444Y-9452865D02*
X2931967Y-9414770D01*
X2931967Y-9414770D02*
X2931967Y-9338579D01*
X2931967Y-9338579D02*
X2922444Y-9319531D01*
X2922444Y-9319531D02*
X2912920Y-9310008D01*
X2912920Y-9310008D02*
X2893872Y-9300484D01*
X2893872Y-9300484D02*
X2855777Y-9300484D01*
X2855777Y-9300484D02*
X2836729Y-9310008D01*
X2836729Y-9310008D02*
X2827206Y-9319531D01*
X2827206Y-9319531D02*
X2817682Y-9338579D01*
X2817682Y-9338579D02*
X2817682Y-9386198D01*
X2817682Y-9386198D02*
X2827206Y-9405246D01*
X2827206Y-9405246D02*
X2836729Y-9414770D01*
X2836729Y-9414770D02*
X2855777Y-9424293D01*
X2855777Y-9424293D02*
X2893872Y-9424293D01*
X2893872Y-9424293D02*
X2912920Y-9414770D01*
X2912920Y-9414770D02*
X2922444Y-9405246D01*
X2922444Y-9405246D02*
X2931967Y-9386198D01*
X2998634Y-9300484D02*
X3131967Y-9300484D01*
X3131967Y-9300484D02*
X3046253Y-9500484D01*
X3198634Y-9300484D02*
X3198634Y-9338579D01*
X3274825Y-9300484D02*
X3274825Y-9338579D01*
X3570063Y-9576674D02*
X3560539Y-9567150D01*
X3560539Y-9567150D02*
X3541491Y-9538579D01*
X3541491Y-9538579D02*
X3531968Y-9519531D01*
X3531968Y-9519531D02*
X3522444Y-9490960D01*
X3522444Y-9490960D02*
X3512920Y-9443341D01*
X3512920Y-9443341D02*
X3512920Y-9405246D01*
X3512920Y-9405246D02*
X3522444Y-9357627D01*
X3522444Y-9357627D02*
X3531968Y-9329055D01*
X3531968Y-9329055D02*
X3541491Y-9310008D01*
X3541491Y-9310008D02*
X3560539Y-9281436D01*
X3560539Y-9281436D02*
X3570063Y-9271912D01*
X3731968Y-9300484D02*
X3693872Y-9300484D01*
X3693872Y-9300484D02*
X3674825Y-9310008D01*
X3674825Y-9310008D02*
X3665301Y-9319531D01*
X3665301Y-9319531D02*
X3646253Y-9348103D01*
X3646253Y-9348103D02*
X3636729Y-9386198D01*
X3636729Y-9386198D02*
X3636729Y-9462389D01*
X3636729Y-9462389D02*
X3646253Y-9481436D01*
X3646253Y-9481436D02*
X3655777Y-9490960D01*
X3655777Y-9490960D02*
X3674825Y-9500484D01*
X3674825Y-9500484D02*
X3712920Y-9500484D01*
X3712920Y-9500484D02*
X3731968Y-9490960D01*
X3731968Y-9490960D02*
X3741491Y-9481436D01*
X3741491Y-9481436D02*
X3751015Y-9462389D01*
X3751015Y-9462389D02*
X3751015Y-9414770D01*
X3751015Y-9414770D02*
X3741491Y-9395722D01*
X3741491Y-9395722D02*
X3731968Y-9386198D01*
X3731968Y-9386198D02*
X3712920Y-9376674D01*
X3712920Y-9376674D02*
X3674825Y-9376674D01*
X3674825Y-9376674D02*
X3655777Y-9386198D01*
X3655777Y-9386198D02*
X3646253Y-9395722D01*
X3646253Y-9395722D02*
X3636729Y-9414770D01*
X3989110Y-9500484D02*
X3989110Y-9300484D01*
X4074825Y-9500484D02*
X4074825Y-9395722D01*
X4074825Y-9395722D02*
X4065301Y-9376674D01*
X4065301Y-9376674D02*
X4046253Y-9367150D01*
X4046253Y-9367150D02*
X4017682Y-9367150D01*
X4017682Y-9367150D02*
X3998634Y-9376674D01*
X3998634Y-9376674D02*
X3989110Y-9386198D01*
X4198634Y-9500484D02*
X4179587Y-9490960D01*
X4179587Y-9490960D02*
X4170063Y-9481436D01*
X4170063Y-9481436D02*
X4160539Y-9462389D01*
X4160539Y-9462389D02*
X4160539Y-9405246D01*
X4160539Y-9405246D02*
X4170063Y-9386198D01*
X4170063Y-9386198D02*
X4179587Y-9376674D01*
X4179587Y-9376674D02*
X4198634Y-9367150D01*
X4198634Y-9367150D02*
X4227206Y-9367150D01*
X4227206Y-9367150D02*
X4246253Y-9376674D01*
X4246253Y-9376674D02*
X4255777Y-9386198D01*
X4255777Y-9386198D02*
X4265301Y-9405246D01*
X4265301Y-9405246D02*
X4265301Y-9462389D01*
X4265301Y-9462389D02*
X4255777Y-9481436D01*
X4255777Y-9481436D02*
X4246253Y-9490960D01*
X4246253Y-9490960D02*
X4227206Y-9500484D01*
X4227206Y-9500484D02*
X4198634Y-9500484D01*
X4379587Y-9500484D02*
X4360539Y-9490960D01*
X4360539Y-9490960D02*
X4351015Y-9471912D01*
X4351015Y-9471912D02*
X4351015Y-9300484D01*
X4531968Y-9490960D02*
X4512920Y-9500484D01*
X4512920Y-9500484D02*
X4474825Y-9500484D01*
X4474825Y-9500484D02*
X4455777Y-9490960D01*
X4455777Y-9490960D02*
X4446253Y-9471912D01*
X4446253Y-9471912D02*
X4446253Y-9395722D01*
X4446253Y-9395722D02*
X4455777Y-9376674D01*
X4455777Y-9376674D02*
X4474825Y-9367150D01*
X4474825Y-9367150D02*
X4512920Y-9367150D01*
X4512920Y-9367150D02*
X4531968Y-9376674D01*
X4531968Y-9376674D02*
X4541492Y-9395722D01*
X4541492Y-9395722D02*
X4541492Y-9414770D01*
X4541492Y-9414770D02*
X4446253Y-9433817D01*
X4617682Y-9490960D02*
X4636730Y-9500484D01*
X4636730Y-9500484D02*
X4674825Y-9500484D01*
X4674825Y-9500484D02*
X4693873Y-9490960D01*
X4693873Y-9490960D02*
X4703396Y-9471912D01*
X4703396Y-9471912D02*
X4703396Y-9462389D01*
X4703396Y-9462389D02*
X4693873Y-9443341D01*
X4693873Y-9443341D02*
X4674825Y-9433817D01*
X4674825Y-9433817D02*
X4646253Y-9433817D01*
X4646253Y-9433817D02*
X4627206Y-9424293D01*
X4627206Y-9424293D02*
X4617682Y-9405246D01*
X4617682Y-9405246D02*
X4617682Y-9395722D01*
X4617682Y-9395722D02*
X4627206Y-9376674D01*
X4627206Y-9376674D02*
X4646253Y-9367150D01*
X4646253Y-9367150D02*
X4674825Y-9367150D01*
X4674825Y-9367150D02*
X4693873Y-9376674D01*
X4770063Y-9576674D02*
X4779587Y-9567150D01*
X4779587Y-9567150D02*
X4798634Y-9538579D01*
X4798634Y-9538579D02*
X4808158Y-9519531D01*
X4808158Y-9519531D02*
X4817682Y-9490960D01*
X4817682Y-9490960D02*
X4827206Y-9443341D01*
X4827206Y-9443341D02*
X4827206Y-9405246D01*
X4827206Y-9405246D02*
X4817682Y-9357627D01*
X4817682Y-9357627D02*
X4808158Y-9329055D01*
X4808158Y-9329055D02*
X4798634Y-9310008D01*
X4798634Y-9310008D02*
X4779587Y-9281436D01*
X4779587Y-9281436D02*
X4770063Y-9271912D01*
D10*
X-45000Y-9633000D02*
X-45000Y-9713000D01*
X-85000Y-9673000D02*
X-5000Y-9673000D01*
D11*
X293872Y-9564484D02*
X312920Y-9564484D01*
X312920Y-9564484D02*
X331967Y-9574008D01*
X331967Y-9574008D02*
X341491Y-9583531D01*
X341491Y-9583531D02*
X351015Y-9602579D01*
X351015Y-9602579D02*
X360539Y-9640674D01*
X360539Y-9640674D02*
X360539Y-9688293D01*
X360539Y-9688293D02*
X351015Y-9726389D01*
X351015Y-9726389D02*
X341491Y-9745436D01*
X341491Y-9745436D02*
X331967Y-9754960D01*
X331967Y-9754960D02*
X312920Y-9764484D01*
X312920Y-9764484D02*
X293872Y-9764484D01*
X293872Y-9764484D02*
X274824Y-9754960D01*
X274824Y-9754960D02*
X265301Y-9745436D01*
X265301Y-9745436D02*
X255777Y-9726389D01*
X255777Y-9726389D02*
X246253Y-9688293D01*
X246253Y-9688293D02*
X246253Y-9640674D01*
X246253Y-9640674D02*
X255777Y-9602579D01*
X255777Y-9602579D02*
X265301Y-9583531D01*
X265301Y-9583531D02*
X274824Y-9574008D01*
X274824Y-9574008D02*
X293872Y-9564484D01*
X446253Y-9745436D02*
X455777Y-9754960D01*
X455777Y-9754960D02*
X446253Y-9764484D01*
X446253Y-9764484D02*
X436729Y-9754960D01*
X436729Y-9754960D02*
X446253Y-9745436D01*
X446253Y-9745436D02*
X446253Y-9764484D01*
X570063Y-9650198D02*
X551015Y-9640674D01*
X551015Y-9640674D02*
X541491Y-9631150D01*
X541491Y-9631150D02*
X531967Y-9612103D01*
X531967Y-9612103D02*
X531967Y-9602579D01*
X531967Y-9602579D02*
X541491Y-9583531D01*
X541491Y-9583531D02*
X551015Y-9574008D01*
X551015Y-9574008D02*
X570063Y-9564484D01*
X570063Y-9564484D02*
X608158Y-9564484D01*
X608158Y-9564484D02*
X627205Y-9574008D01*
X627205Y-9574008D02*
X636729Y-9583531D01*
X636729Y-9583531D02*
X646253Y-9602579D01*
X646253Y-9602579D02*
X646253Y-9612103D01*
X646253Y-9612103D02*
X636729Y-9631150D01*
X636729Y-9631150D02*
X627205Y-9640674D01*
X627205Y-9640674D02*
X608158Y-9650198D01*
X608158Y-9650198D02*
X570063Y-9650198D01*
X570063Y-9650198D02*
X551015Y-9659722D01*
X551015Y-9659722D02*
X541491Y-9669246D01*
X541491Y-9669246D02*
X531967Y-9688293D01*
X531967Y-9688293D02*
X531967Y-9726389D01*
X531967Y-9726389D02*
X541491Y-9745436D01*
X541491Y-9745436D02*
X551015Y-9754960D01*
X551015Y-9754960D02*
X570063Y-9764484D01*
X570063Y-9764484D02*
X608158Y-9764484D01*
X608158Y-9764484D02*
X627205Y-9754960D01*
X627205Y-9754960D02*
X636729Y-9745436D01*
X636729Y-9745436D02*
X646253Y-9726389D01*
X646253Y-9726389D02*
X646253Y-9688293D01*
X646253Y-9688293D02*
X636729Y-9669246D01*
X636729Y-9669246D02*
X627205Y-9659722D01*
X627205Y-9659722D02*
X608158Y-9650198D01*
X770062Y-9564484D02*
X789110Y-9564484D01*
X789110Y-9564484D02*
X808158Y-9574008D01*
X808158Y-9574008D02*
X817682Y-9583531D01*
X817682Y-9583531D02*
X827205Y-9602579D01*
X827205Y-9602579D02*
X836729Y-9640674D01*
X836729Y-9640674D02*
X836729Y-9688293D01*
X836729Y-9688293D02*
X827205Y-9726389D01*
X827205Y-9726389D02*
X817682Y-9745436D01*
X817682Y-9745436D02*
X808158Y-9754960D01*
X808158Y-9754960D02*
X789110Y-9764484D01*
X789110Y-9764484D02*
X770062Y-9764484D01*
X770062Y-9764484D02*
X751015Y-9754960D01*
X751015Y-9754960D02*
X741491Y-9745436D01*
X741491Y-9745436D02*
X731967Y-9726389D01*
X731967Y-9726389D02*
X722443Y-9688293D01*
X722443Y-9688293D02*
X722443Y-9640674D01*
X722443Y-9640674D02*
X731967Y-9602579D01*
X731967Y-9602579D02*
X741491Y-9583531D01*
X741491Y-9583531D02*
X751015Y-9574008D01*
X751015Y-9574008D02*
X770062Y-9564484D01*
X960539Y-9564484D02*
X979586Y-9564484D01*
X979586Y-9564484D02*
X998634Y-9574008D01*
X998634Y-9574008D02*
X1008158Y-9583531D01*
X1008158Y-9583531D02*
X1017682Y-9602579D01*
X1017682Y-9602579D02*
X1027205Y-9640674D01*
X1027205Y-9640674D02*
X1027205Y-9688293D01*
X1027205Y-9688293D02*
X1017682Y-9726389D01*
X1017682Y-9726389D02*
X1008158Y-9745436D01*
X1008158Y-9745436D02*
X998634Y-9754960D01*
X998634Y-9754960D02*
X979586Y-9764484D01*
X979586Y-9764484D02*
X960539Y-9764484D01*
X960539Y-9764484D02*
X941491Y-9754960D01*
X941491Y-9754960D02*
X931967Y-9745436D01*
X931967Y-9745436D02*
X922443Y-9726389D01*
X922443Y-9726389D02*
X912920Y-9688293D01*
X912920Y-9688293D02*
X912920Y-9640674D01*
X912920Y-9640674D02*
X922443Y-9602579D01*
X922443Y-9602579D02*
X931967Y-9583531D01*
X931967Y-9583531D02*
X941491Y-9574008D01*
X941491Y-9574008D02*
X960539Y-9564484D01*
X1112920Y-9764484D02*
X1112920Y-9631150D01*
X1112920Y-9650198D02*
X1122444Y-9640674D01*
X1122444Y-9640674D02*
X1141491Y-9631150D01*
X1141491Y-9631150D02*
X1170063Y-9631150D01*
X1170063Y-9631150D02*
X1189110Y-9640674D01*
X1189110Y-9640674D02*
X1198634Y-9659722D01*
X1198634Y-9659722D02*
X1198634Y-9764484D01*
X1198634Y-9659722D02*
X1208158Y-9640674D01*
X1208158Y-9640674D02*
X1227205Y-9631150D01*
X1227205Y-9631150D02*
X1255777Y-9631150D01*
X1255777Y-9631150D02*
X1274825Y-9640674D01*
X1274825Y-9640674D02*
X1284348Y-9659722D01*
X1284348Y-9659722D02*
X1284348Y-9764484D01*
X1379586Y-9764484D02*
X1379586Y-9631150D01*
X1379586Y-9650198D02*
X1389110Y-9640674D01*
X1389110Y-9640674D02*
X1408158Y-9631150D01*
X1408158Y-9631150D02*
X1436729Y-9631150D01*
X1436729Y-9631150D02*
X1455777Y-9640674D01*
X1455777Y-9640674D02*
X1465301Y-9659722D01*
X1465301Y-9659722D02*
X1465301Y-9764484D01*
X1465301Y-9659722D02*
X1474824Y-9640674D01*
X1474824Y-9640674D02*
X1493872Y-9631150D01*
X1493872Y-9631150D02*
X1522443Y-9631150D01*
X1522443Y-9631150D02*
X1541491Y-9640674D01*
X1541491Y-9640674D02*
X1551015Y-9659722D01*
X1551015Y-9659722D02*
X1551015Y-9764484D01*
X1941491Y-9554960D02*
X1770063Y-9812103D01*
X2198634Y-9564484D02*
X2217682Y-9564484D01*
X2217682Y-9564484D02*
X2236729Y-9574008D01*
X2236729Y-9574008D02*
X2246253Y-9583531D01*
X2246253Y-9583531D02*
X2255777Y-9602579D01*
X2255777Y-9602579D02*
X2265301Y-9640674D01*
X2265301Y-9640674D02*
X2265301Y-9688293D01*
X2265301Y-9688293D02*
X2255777Y-9726389D01*
X2255777Y-9726389D02*
X2246253Y-9745436D01*
X2246253Y-9745436D02*
X2236729Y-9754960D01*
X2236729Y-9754960D02*
X2217682Y-9764484D01*
X2217682Y-9764484D02*
X2198634Y-9764484D01*
X2198634Y-9764484D02*
X2179587Y-9754960D01*
X2179587Y-9754960D02*
X2170063Y-9745436D01*
X2170063Y-9745436D02*
X2160539Y-9726389D01*
X2160539Y-9726389D02*
X2151015Y-9688293D01*
X2151015Y-9688293D02*
X2151015Y-9640674D01*
X2151015Y-9640674D02*
X2160539Y-9602579D01*
X2160539Y-9602579D02*
X2170063Y-9583531D01*
X2170063Y-9583531D02*
X2179587Y-9574008D01*
X2179587Y-9574008D02*
X2198634Y-9564484D01*
X2351015Y-9745436D02*
X2360539Y-9754960D01*
X2360539Y-9754960D02*
X2351015Y-9764484D01*
X2351015Y-9764484D02*
X2341491Y-9754960D01*
X2341491Y-9754960D02*
X2351015Y-9745436D01*
X2351015Y-9745436D02*
X2351015Y-9764484D01*
X2484348Y-9564484D02*
X2503396Y-9564484D01*
X2503396Y-9564484D02*
X2522444Y-9574008D01*
X2522444Y-9574008D02*
X2531968Y-9583531D01*
X2531968Y-9583531D02*
X2541491Y-9602579D01*
X2541491Y-9602579D02*
X2551015Y-9640674D01*
X2551015Y-9640674D02*
X2551015Y-9688293D01*
X2551015Y-9688293D02*
X2541491Y-9726389D01*
X2541491Y-9726389D02*
X2531968Y-9745436D01*
X2531968Y-9745436D02*
X2522444Y-9754960D01*
X2522444Y-9754960D02*
X2503396Y-9764484D01*
X2503396Y-9764484D02*
X2484348Y-9764484D01*
X2484348Y-9764484D02*
X2465301Y-9754960D01*
X2465301Y-9754960D02*
X2455777Y-9745436D01*
X2455777Y-9745436D02*
X2446253Y-9726389D01*
X2446253Y-9726389D02*
X2436729Y-9688293D01*
X2436729Y-9688293D02*
X2436729Y-9640674D01*
X2436729Y-9640674D02*
X2446253Y-9602579D01*
X2446253Y-9602579D02*
X2455777Y-9583531D01*
X2455777Y-9583531D02*
X2465301Y-9574008D01*
X2465301Y-9574008D02*
X2484348Y-9564484D01*
X2617682Y-9564484D02*
X2741491Y-9564484D01*
X2741491Y-9564484D02*
X2674825Y-9640674D01*
X2674825Y-9640674D02*
X2703396Y-9640674D01*
X2703396Y-9640674D02*
X2722444Y-9650198D01*
X2722444Y-9650198D02*
X2731968Y-9659722D01*
X2731968Y-9659722D02*
X2741491Y-9678770D01*
X2741491Y-9678770D02*
X2741491Y-9726389D01*
X2741491Y-9726389D02*
X2731968Y-9745436D01*
X2731968Y-9745436D02*
X2722444Y-9754960D01*
X2722444Y-9754960D02*
X2703396Y-9764484D01*
X2703396Y-9764484D02*
X2646253Y-9764484D01*
X2646253Y-9764484D02*
X2627206Y-9754960D01*
X2627206Y-9754960D02*
X2617682Y-9745436D01*
X2931967Y-9764484D02*
X2817682Y-9764484D01*
X2874825Y-9764484D02*
X2874825Y-9564484D01*
X2874825Y-9564484D02*
X2855777Y-9593055D01*
X2855777Y-9593055D02*
X2836729Y-9612103D01*
X2836729Y-9612103D02*
X2817682Y-9621627D01*
X3112920Y-9564484D02*
X3017682Y-9564484D01*
X3017682Y-9564484D02*
X3008158Y-9659722D01*
X3008158Y-9659722D02*
X3017682Y-9650198D01*
X3017682Y-9650198D02*
X3036729Y-9640674D01*
X3036729Y-9640674D02*
X3084348Y-9640674D01*
X3084348Y-9640674D02*
X3103396Y-9650198D01*
X3103396Y-9650198D02*
X3112920Y-9659722D01*
X3112920Y-9659722D02*
X3122444Y-9678770D01*
X3122444Y-9678770D02*
X3122444Y-9726389D01*
X3122444Y-9726389D02*
X3112920Y-9745436D01*
X3112920Y-9745436D02*
X3103396Y-9754960D01*
X3103396Y-9754960D02*
X3084348Y-9764484D01*
X3084348Y-9764484D02*
X3036729Y-9764484D01*
X3036729Y-9764484D02*
X3017682Y-9754960D01*
X3017682Y-9754960D02*
X3008158Y-9745436D01*
X3198634Y-9564484D02*
X3198634Y-9602579D01*
X3274825Y-9564484D02*
X3274825Y-9602579D01*
X3570063Y-9840674D02*
X3560539Y-9831150D01*
X3560539Y-9831150D02*
X3541491Y-9802579D01*
X3541491Y-9802579D02*
X3531968Y-9783531D01*
X3531968Y-9783531D02*
X3522444Y-9754960D01*
X3522444Y-9754960D02*
X3512920Y-9707341D01*
X3512920Y-9707341D02*
X3512920Y-9669246D01*
X3512920Y-9669246D02*
X3522444Y-9621627D01*
X3522444Y-9621627D02*
X3531968Y-9593055D01*
X3531968Y-9593055D02*
X3541491Y-9574008D01*
X3541491Y-9574008D02*
X3560539Y-9545436D01*
X3560539Y-9545436D02*
X3570063Y-9535912D01*
X3627206Y-9564484D02*
X3760539Y-9564484D01*
X3760539Y-9564484D02*
X3674825Y-9764484D01*
X3827206Y-9583531D02*
X3836729Y-9574008D01*
X3836729Y-9574008D02*
X3855777Y-9564484D01*
X3855777Y-9564484D02*
X3903396Y-9564484D01*
X3903396Y-9564484D02*
X3922444Y-9574008D01*
X3922444Y-9574008D02*
X3931968Y-9583531D01*
X3931968Y-9583531D02*
X3941491Y-9602579D01*
X3941491Y-9602579D02*
X3941491Y-9621627D01*
X3941491Y-9621627D02*
X3931968Y-9650198D01*
X3931968Y-9650198D02*
X3817682Y-9764484D01*
X3817682Y-9764484D02*
X3941491Y-9764484D01*
X4179587Y-9764484D02*
X4179587Y-9564484D01*
X4265301Y-9764484D02*
X4265301Y-9659722D01*
X4265301Y-9659722D02*
X4255777Y-9640674D01*
X4255777Y-9640674D02*
X4236730Y-9631150D01*
X4236730Y-9631150D02*
X4208158Y-9631150D01*
X4208158Y-9631150D02*
X4189110Y-9640674D01*
X4189110Y-9640674D02*
X4179587Y-9650198D01*
X4389111Y-9764484D02*
X4370063Y-9754960D01*
X4370063Y-9754960D02*
X4360539Y-9745436D01*
X4360539Y-9745436D02*
X4351015Y-9726389D01*
X4351015Y-9726389D02*
X4351015Y-9669246D01*
X4351015Y-9669246D02*
X4360539Y-9650198D01*
X4360539Y-9650198D02*
X4370063Y-9640674D01*
X4370063Y-9640674D02*
X4389111Y-9631150D01*
X4389111Y-9631150D02*
X4417682Y-9631150D01*
X4417682Y-9631150D02*
X4436730Y-9640674D01*
X4436730Y-9640674D02*
X4446253Y-9650198D01*
X4446253Y-9650198D02*
X4455777Y-9669246D01*
X4455777Y-9669246D02*
X4455777Y-9726389D01*
X4455777Y-9726389D02*
X4446253Y-9745436D01*
X4446253Y-9745436D02*
X4436730Y-9754960D01*
X4436730Y-9754960D02*
X4417682Y-9764484D01*
X4417682Y-9764484D02*
X4389111Y-9764484D01*
X4570063Y-9764484D02*
X4551015Y-9754960D01*
X4551015Y-9754960D02*
X4541492Y-9735912D01*
X4541492Y-9735912D02*
X4541492Y-9564484D01*
X4722444Y-9754960D02*
X4703396Y-9764484D01*
X4703396Y-9764484D02*
X4665301Y-9764484D01*
X4665301Y-9764484D02*
X4646253Y-9754960D01*
X4646253Y-9754960D02*
X4636730Y-9735912D01*
X4636730Y-9735912D02*
X4636730Y-9659722D01*
X4636730Y-9659722D02*
X4646253Y-9640674D01*
X4646253Y-9640674D02*
X4665301Y-9631150D01*
X4665301Y-9631150D02*
X4703396Y-9631150D01*
X4703396Y-9631150D02*
X4722444Y-9640674D01*
X4722444Y-9640674D02*
X4731968Y-9659722D01*
X4731968Y-9659722D02*
X4731968Y-9678770D01*
X4731968Y-9678770D02*
X4636730Y-9697817D01*
X4808158Y-9754960D02*
X4827206Y-9764484D01*
X4827206Y-9764484D02*
X4865301Y-9764484D01*
X4865301Y-9764484D02*
X4884349Y-9754960D01*
X4884349Y-9754960D02*
X4893873Y-9735912D01*
X4893873Y-9735912D02*
X4893873Y-9726389D01*
X4893873Y-9726389D02*
X4884349Y-9707341D01*
X4884349Y-9707341D02*
X4865301Y-9697817D01*
X4865301Y-9697817D02*
X4836730Y-9697817D01*
X4836730Y-9697817D02*
X4817682Y-9688293D01*
X4817682Y-9688293D02*
X4808158Y-9669246D01*
X4808158Y-9669246D02*
X4808158Y-9659722D01*
X4808158Y-9659722D02*
X4817682Y-9640674D01*
X4817682Y-9640674D02*
X4836730Y-9631150D01*
X4836730Y-9631150D02*
X4865301Y-9631150D01*
X4865301Y-9631150D02*
X4884349Y-9640674D01*
X4960539Y-9840674D02*
X4970063Y-9831150D01*
X4970063Y-9831150D02*
X4989111Y-9802579D01*
X4989111Y-9802579D02*
X4998634Y-9783531D01*
X4998634Y-9783531D02*
X5008158Y-9754960D01*
X5008158Y-9754960D02*
X5017682Y-9707341D01*
X5017682Y-9707341D02*
X5017682Y-9669246D01*
X5017682Y-9669246D02*
X5008158Y-9621627D01*
X5008158Y-9621627D02*
X4998634Y-9593055D01*
X4998634Y-9593055D02*
X4989111Y-9574008D01*
X4989111Y-9574008D02*
X4970063Y-9545436D01*
X4970063Y-9545436D02*
X4960539Y-9535912D01*
D10*
X-19644Y-9972356D02*
X-19644Y-9901644D01*
X-90356Y-9901644D01*
X-90356Y-9972356D01*
X-19644Y-9972356D01*
D11*
X360539Y-10028484D02*
X246253Y-10028484D01*
X303396Y-10028484D02*
X303396Y-9828484D01*
X303396Y-9828484D02*
X284348Y-9857055D01*
X284348Y-9857055D02*
X265301Y-9876103D01*
X265301Y-9876103D02*
X246253Y-9885627D01*
X446253Y-10009436D02*
X455777Y-10018960D01*
X455777Y-10018960D02*
X446253Y-10028484D01*
X446253Y-10028484D02*
X436729Y-10018960D01*
X436729Y-10018960D02*
X446253Y-10009436D01*
X446253Y-10009436D02*
X446253Y-10028484D01*
X579586Y-9828484D02*
X598634Y-9828484D01*
X598634Y-9828484D02*
X617682Y-9838008D01*
X617682Y-9838008D02*
X627205Y-9847531D01*
X627205Y-9847531D02*
X636729Y-9866579D01*
X636729Y-9866579D02*
X646253Y-9904674D01*
X646253Y-9904674D02*
X646253Y-9952293D01*
X646253Y-9952293D02*
X636729Y-9990389D01*
X636729Y-9990389D02*
X627205Y-10009436D01*
X627205Y-10009436D02*
X617682Y-10018960D01*
X617682Y-10018960D02*
X598634Y-10028484D01*
X598634Y-10028484D02*
X579586Y-10028484D01*
X579586Y-10028484D02*
X560539Y-10018960D01*
X560539Y-10018960D02*
X551015Y-10009436D01*
X551015Y-10009436D02*
X541491Y-9990389D01*
X541491Y-9990389D02*
X531967Y-9952293D01*
X531967Y-9952293D02*
X531967Y-9904674D01*
X531967Y-9904674D02*
X541491Y-9866579D01*
X541491Y-9866579D02*
X551015Y-9847531D01*
X551015Y-9847531D02*
X560539Y-9838008D01*
X560539Y-9838008D02*
X579586Y-9828484D01*
X770062Y-9828484D02*
X789110Y-9828484D01*
X789110Y-9828484D02*
X808158Y-9838008D01*
X808158Y-9838008D02*
X817682Y-9847531D01*
X817682Y-9847531D02*
X827205Y-9866579D01*
X827205Y-9866579D02*
X836729Y-9904674D01*
X836729Y-9904674D02*
X836729Y-9952293D01*
X836729Y-9952293D02*
X827205Y-9990389D01*
X827205Y-9990389D02*
X817682Y-10009436D01*
X817682Y-10009436D02*
X808158Y-10018960D01*
X808158Y-10018960D02*
X789110Y-10028484D01*
X789110Y-10028484D02*
X770062Y-10028484D01*
X770062Y-10028484D02*
X751015Y-10018960D01*
X751015Y-10018960D02*
X741491Y-10009436D01*
X741491Y-10009436D02*
X731967Y-9990389D01*
X731967Y-9990389D02*
X722443Y-9952293D01*
X722443Y-9952293D02*
X722443Y-9904674D01*
X722443Y-9904674D02*
X731967Y-9866579D01*
X731967Y-9866579D02*
X741491Y-9847531D01*
X741491Y-9847531D02*
X751015Y-9838008D01*
X751015Y-9838008D02*
X770062Y-9828484D01*
X960539Y-9828484D02*
X979586Y-9828484D01*
X979586Y-9828484D02*
X998634Y-9838008D01*
X998634Y-9838008D02*
X1008158Y-9847531D01*
X1008158Y-9847531D02*
X1017682Y-9866579D01*
X1017682Y-9866579D02*
X1027205Y-9904674D01*
X1027205Y-9904674D02*
X1027205Y-9952293D01*
X1027205Y-9952293D02*
X1017682Y-9990389D01*
X1017682Y-9990389D02*
X1008158Y-10009436D01*
X1008158Y-10009436D02*
X998634Y-10018960D01*
X998634Y-10018960D02*
X979586Y-10028484D01*
X979586Y-10028484D02*
X960539Y-10028484D01*
X960539Y-10028484D02*
X941491Y-10018960D01*
X941491Y-10018960D02*
X931967Y-10009436D01*
X931967Y-10009436D02*
X922443Y-9990389D01*
X922443Y-9990389D02*
X912920Y-9952293D01*
X912920Y-9952293D02*
X912920Y-9904674D01*
X912920Y-9904674D02*
X922443Y-9866579D01*
X922443Y-9866579D02*
X931967Y-9847531D01*
X931967Y-9847531D02*
X941491Y-9838008D01*
X941491Y-9838008D02*
X960539Y-9828484D01*
X1112920Y-10028484D02*
X1112920Y-9895150D01*
X1112920Y-9914198D02*
X1122444Y-9904674D01*
X1122444Y-9904674D02*
X1141491Y-9895150D01*
X1141491Y-9895150D02*
X1170063Y-9895150D01*
X1170063Y-9895150D02*
X1189110Y-9904674D01*
X1189110Y-9904674D02*
X1198634Y-9923722D01*
X1198634Y-9923722D02*
X1198634Y-10028484D01*
X1198634Y-9923722D02*
X1208158Y-9904674D01*
X1208158Y-9904674D02*
X1227205Y-9895150D01*
X1227205Y-9895150D02*
X1255777Y-9895150D01*
X1255777Y-9895150D02*
X1274825Y-9904674D01*
X1274825Y-9904674D02*
X1284348Y-9923722D01*
X1284348Y-9923722D02*
X1284348Y-10028484D01*
X1379586Y-10028484D02*
X1379586Y-9895150D01*
X1379586Y-9914198D02*
X1389110Y-9904674D01*
X1389110Y-9904674D02*
X1408158Y-9895150D01*
X1408158Y-9895150D02*
X1436729Y-9895150D01*
X1436729Y-9895150D02*
X1455777Y-9904674D01*
X1455777Y-9904674D02*
X1465301Y-9923722D01*
X1465301Y-9923722D02*
X1465301Y-10028484D01*
X1465301Y-9923722D02*
X1474824Y-9904674D01*
X1474824Y-9904674D02*
X1493872Y-9895150D01*
X1493872Y-9895150D02*
X1522443Y-9895150D01*
X1522443Y-9895150D02*
X1541491Y-9904674D01*
X1541491Y-9904674D02*
X1551015Y-9923722D01*
X1551015Y-9923722D02*
X1551015Y-10028484D01*
X1941491Y-9818960D02*
X1770063Y-10076103D01*
X2198634Y-9828484D02*
X2217682Y-9828484D01*
X2217682Y-9828484D02*
X2236729Y-9838008D01*
X2236729Y-9838008D02*
X2246253Y-9847531D01*
X2246253Y-9847531D02*
X2255777Y-9866579D01*
X2255777Y-9866579D02*
X2265301Y-9904674D01*
X2265301Y-9904674D02*
X2265301Y-9952293D01*
X2265301Y-9952293D02*
X2255777Y-9990389D01*
X2255777Y-9990389D02*
X2246253Y-10009436D01*
X2246253Y-10009436D02*
X2236729Y-10018960D01*
X2236729Y-10018960D02*
X2217682Y-10028484D01*
X2217682Y-10028484D02*
X2198634Y-10028484D01*
X2198634Y-10028484D02*
X2179587Y-10018960D01*
X2179587Y-10018960D02*
X2170063Y-10009436D01*
X2170063Y-10009436D02*
X2160539Y-9990389D01*
X2160539Y-9990389D02*
X2151015Y-9952293D01*
X2151015Y-9952293D02*
X2151015Y-9904674D01*
X2151015Y-9904674D02*
X2160539Y-9866579D01*
X2160539Y-9866579D02*
X2170063Y-9847531D01*
X2170063Y-9847531D02*
X2179587Y-9838008D01*
X2179587Y-9838008D02*
X2198634Y-9828484D01*
X2351015Y-10009436D02*
X2360539Y-10018960D01*
X2360539Y-10018960D02*
X2351015Y-10028484D01*
X2351015Y-10028484D02*
X2341491Y-10018960D01*
X2341491Y-10018960D02*
X2351015Y-10009436D01*
X2351015Y-10009436D02*
X2351015Y-10028484D01*
X2484348Y-9828484D02*
X2503396Y-9828484D01*
X2503396Y-9828484D02*
X2522444Y-9838008D01*
X2522444Y-9838008D02*
X2531968Y-9847531D01*
X2531968Y-9847531D02*
X2541491Y-9866579D01*
X2541491Y-9866579D02*
X2551015Y-9904674D01*
X2551015Y-9904674D02*
X2551015Y-9952293D01*
X2551015Y-9952293D02*
X2541491Y-9990389D01*
X2541491Y-9990389D02*
X2531968Y-10009436D01*
X2531968Y-10009436D02*
X2522444Y-10018960D01*
X2522444Y-10018960D02*
X2503396Y-10028484D01*
X2503396Y-10028484D02*
X2484348Y-10028484D01*
X2484348Y-10028484D02*
X2465301Y-10018960D01*
X2465301Y-10018960D02*
X2455777Y-10009436D01*
X2455777Y-10009436D02*
X2446253Y-9990389D01*
X2446253Y-9990389D02*
X2436729Y-9952293D01*
X2436729Y-9952293D02*
X2436729Y-9904674D01*
X2436729Y-9904674D02*
X2446253Y-9866579D01*
X2446253Y-9866579D02*
X2455777Y-9847531D01*
X2455777Y-9847531D02*
X2465301Y-9838008D01*
X2465301Y-9838008D02*
X2484348Y-9828484D01*
X2617682Y-9828484D02*
X2741491Y-9828484D01*
X2741491Y-9828484D02*
X2674825Y-9904674D01*
X2674825Y-9904674D02*
X2703396Y-9904674D01*
X2703396Y-9904674D02*
X2722444Y-9914198D01*
X2722444Y-9914198D02*
X2731968Y-9923722D01*
X2731968Y-9923722D02*
X2741491Y-9942770D01*
X2741491Y-9942770D02*
X2741491Y-9990389D01*
X2741491Y-9990389D02*
X2731968Y-10009436D01*
X2731968Y-10009436D02*
X2722444Y-10018960D01*
X2722444Y-10018960D02*
X2703396Y-10028484D01*
X2703396Y-10028484D02*
X2646253Y-10028484D01*
X2646253Y-10028484D02*
X2627206Y-10018960D01*
X2627206Y-10018960D02*
X2617682Y-10009436D01*
X2836729Y-10028484D02*
X2874825Y-10028484D01*
X2874825Y-10028484D02*
X2893872Y-10018960D01*
X2893872Y-10018960D02*
X2903396Y-10009436D01*
X2903396Y-10009436D02*
X2922444Y-9980865D01*
X2922444Y-9980865D02*
X2931967Y-9942770D01*
X2931967Y-9942770D02*
X2931967Y-9866579D01*
X2931967Y-9866579D02*
X2922444Y-9847531D01*
X2922444Y-9847531D02*
X2912920Y-9838008D01*
X2912920Y-9838008D02*
X2893872Y-9828484D01*
X2893872Y-9828484D02*
X2855777Y-9828484D01*
X2855777Y-9828484D02*
X2836729Y-9838008D01*
X2836729Y-9838008D02*
X2827206Y-9847531D01*
X2827206Y-9847531D02*
X2817682Y-9866579D01*
X2817682Y-9866579D02*
X2817682Y-9914198D01*
X2817682Y-9914198D02*
X2827206Y-9933246D01*
X2827206Y-9933246D02*
X2836729Y-9942770D01*
X2836729Y-9942770D02*
X2855777Y-9952293D01*
X2855777Y-9952293D02*
X2893872Y-9952293D01*
X2893872Y-9952293D02*
X2912920Y-9942770D01*
X2912920Y-9942770D02*
X2922444Y-9933246D01*
X2922444Y-9933246D02*
X2931967Y-9914198D01*
X3103396Y-9895150D02*
X3103396Y-10028484D01*
X3055777Y-9818960D02*
X3008158Y-9961817D01*
X3008158Y-9961817D02*
X3131967Y-9961817D01*
X3198634Y-9828484D02*
X3198634Y-9866579D01*
X3274825Y-9828484D02*
X3274825Y-9866579D01*
X3570063Y-10104674D02*
X3560539Y-10095150D01*
X3560539Y-10095150D02*
X3541491Y-10066579D01*
X3541491Y-10066579D02*
X3531968Y-10047531D01*
X3531968Y-10047531D02*
X3522444Y-10018960D01*
X3522444Y-10018960D02*
X3512920Y-9971341D01*
X3512920Y-9971341D02*
X3512920Y-9933246D01*
X3512920Y-9933246D02*
X3522444Y-9885627D01*
X3522444Y-9885627D02*
X3531968Y-9857055D01*
X3531968Y-9857055D02*
X3541491Y-9838008D01*
X3541491Y-9838008D02*
X3560539Y-9809436D01*
X3560539Y-9809436D02*
X3570063Y-9799912D01*
X3655777Y-10028484D02*
X3693872Y-10028484D01*
X3693872Y-10028484D02*
X3712920Y-10018960D01*
X3712920Y-10018960D02*
X3722444Y-10009436D01*
X3722444Y-10009436D02*
X3741491Y-9980865D01*
X3741491Y-9980865D02*
X3751015Y-9942770D01*
X3751015Y-9942770D02*
X3751015Y-9866579D01*
X3751015Y-9866579D02*
X3741491Y-9847531D01*
X3741491Y-9847531D02*
X3731968Y-9838008D01*
X3731968Y-9838008D02*
X3712920Y-9828484D01*
X3712920Y-9828484D02*
X3674825Y-9828484D01*
X3674825Y-9828484D02*
X3655777Y-9838008D01*
X3655777Y-9838008D02*
X3646253Y-9847531D01*
X3646253Y-9847531D02*
X3636729Y-9866579D01*
X3636729Y-9866579D02*
X3636729Y-9914198D01*
X3636729Y-9914198D02*
X3646253Y-9933246D01*
X3646253Y-9933246D02*
X3655777Y-9942770D01*
X3655777Y-9942770D02*
X3674825Y-9952293D01*
X3674825Y-9952293D02*
X3712920Y-9952293D01*
X3712920Y-9952293D02*
X3731968Y-9942770D01*
X3731968Y-9942770D02*
X3741491Y-9933246D01*
X3741491Y-9933246D02*
X3751015Y-9914198D01*
X3865301Y-9914198D02*
X3846253Y-9904674D01*
X3846253Y-9904674D02*
X3836729Y-9895150D01*
X3836729Y-9895150D02*
X3827206Y-9876103D01*
X3827206Y-9876103D02*
X3827206Y-9866579D01*
X3827206Y-9866579D02*
X3836729Y-9847531D01*
X3836729Y-9847531D02*
X3846253Y-9838008D01*
X3846253Y-9838008D02*
X3865301Y-9828484D01*
X3865301Y-9828484D02*
X3903396Y-9828484D01*
X3903396Y-9828484D02*
X3922444Y-9838008D01*
X3922444Y-9838008D02*
X3931968Y-9847531D01*
X3931968Y-9847531D02*
X3941491Y-9866579D01*
X3941491Y-9866579D02*
X3941491Y-9876103D01*
X3941491Y-9876103D02*
X3931968Y-9895150D01*
X3931968Y-9895150D02*
X3922444Y-9904674D01*
X3922444Y-9904674D02*
X3903396Y-9914198D01*
X3903396Y-9914198D02*
X3865301Y-9914198D01*
X3865301Y-9914198D02*
X3846253Y-9923722D01*
X3846253Y-9923722D02*
X3836729Y-9933246D01*
X3836729Y-9933246D02*
X3827206Y-9952293D01*
X3827206Y-9952293D02*
X3827206Y-9990389D01*
X3827206Y-9990389D02*
X3836729Y-10009436D01*
X3836729Y-10009436D02*
X3846253Y-10018960D01*
X3846253Y-10018960D02*
X3865301Y-10028484D01*
X3865301Y-10028484D02*
X3903396Y-10028484D01*
X3903396Y-10028484D02*
X3922444Y-10018960D01*
X3922444Y-10018960D02*
X3931968Y-10009436D01*
X3931968Y-10009436D02*
X3941491Y-9990389D01*
X3941491Y-9990389D02*
X3941491Y-9952293D01*
X3941491Y-9952293D02*
X3931968Y-9933246D01*
X3931968Y-9933246D02*
X3922444Y-9923722D01*
X3922444Y-9923722D02*
X3903396Y-9914198D01*
X4179587Y-10028484D02*
X4179587Y-9828484D01*
X4265301Y-10028484D02*
X4265301Y-9923722D01*
X4265301Y-9923722D02*
X4255777Y-9904674D01*
X4255777Y-9904674D02*
X4236730Y-9895150D01*
X4236730Y-9895150D02*
X4208158Y-9895150D01*
X4208158Y-9895150D02*
X4189110Y-9904674D01*
X4189110Y-9904674D02*
X4179587Y-9914198D01*
X4389111Y-10028484D02*
X4370063Y-10018960D01*
X4370063Y-10018960D02*
X4360539Y-10009436D01*
X4360539Y-10009436D02*
X4351015Y-9990389D01*
X4351015Y-9990389D02*
X4351015Y-9933246D01*
X4351015Y-9933246D02*
X4360539Y-9914198D01*
X4360539Y-9914198D02*
X4370063Y-9904674D01*
X4370063Y-9904674D02*
X4389111Y-9895150D01*
X4389111Y-9895150D02*
X4417682Y-9895150D01*
X4417682Y-9895150D02*
X4436730Y-9904674D01*
X4436730Y-9904674D02*
X4446253Y-9914198D01*
X4446253Y-9914198D02*
X4455777Y-9933246D01*
X4455777Y-9933246D02*
X4455777Y-9990389D01*
X4455777Y-9990389D02*
X4446253Y-10009436D01*
X4446253Y-10009436D02*
X4436730Y-10018960D01*
X4436730Y-10018960D02*
X4417682Y-10028484D01*
X4417682Y-10028484D02*
X4389111Y-10028484D01*
X4570063Y-10028484D02*
X4551015Y-10018960D01*
X4551015Y-10018960D02*
X4541492Y-9999912D01*
X4541492Y-9999912D02*
X4541492Y-9828484D01*
X4722444Y-10018960D02*
X4703396Y-10028484D01*
X4703396Y-10028484D02*
X4665301Y-10028484D01*
X4665301Y-10028484D02*
X4646253Y-10018960D01*
X4646253Y-10018960D02*
X4636730Y-9999912D01*
X4636730Y-9999912D02*
X4636730Y-9923722D01*
X4636730Y-9923722D02*
X4646253Y-9904674D01*
X4646253Y-9904674D02*
X4665301Y-9895150D01*
X4665301Y-9895150D02*
X4703396Y-9895150D01*
X4703396Y-9895150D02*
X4722444Y-9904674D01*
X4722444Y-9904674D02*
X4731968Y-9923722D01*
X4731968Y-9923722D02*
X4731968Y-9942770D01*
X4731968Y-9942770D02*
X4636730Y-9961817D01*
X4808158Y-10018960D02*
X4827206Y-10028484D01*
X4827206Y-10028484D02*
X4865301Y-10028484D01*
X4865301Y-10028484D02*
X4884349Y-10018960D01*
X4884349Y-10018960D02*
X4893873Y-9999912D01*
X4893873Y-9999912D02*
X4893873Y-9990389D01*
X4893873Y-9990389D02*
X4884349Y-9971341D01*
X4884349Y-9971341D02*
X4865301Y-9961817D01*
X4865301Y-9961817D02*
X4836730Y-9961817D01*
X4836730Y-9961817D02*
X4817682Y-9952293D01*
X4817682Y-9952293D02*
X4808158Y-9933246D01*
X4808158Y-9933246D02*
X4808158Y-9923722D01*
X4808158Y-9923722D02*
X4817682Y-9904674D01*
X4817682Y-9904674D02*
X4836730Y-9895150D01*
X4836730Y-9895150D02*
X4865301Y-9895150D01*
X4865301Y-9895150D02*
X4884349Y-9904674D01*
X4960539Y-10104674D02*
X4970063Y-10095150D01*
X4970063Y-10095150D02*
X4989111Y-10066579D01*
X4989111Y-10066579D02*
X4998634Y-10047531D01*
X4998634Y-10047531D02*
X5008158Y-10018960D01*
X5008158Y-10018960D02*
X5017682Y-9971341D01*
X5017682Y-9971341D02*
X5017682Y-9933246D01*
X5017682Y-9933246D02*
X5008158Y-9885627D01*
X5008158Y-9885627D02*
X4998634Y-9857055D01*
X4998634Y-9857055D02*
X4989111Y-9838008D01*
X4989111Y-9838008D02*
X4970063Y-9809436D01*
X4970063Y-9809436D02*
X4960539Y-9799912D01*
D12*
X-60000Y-10256000D02*
X-5000Y-10201000D01*
X-60000Y-10146000D01*
X-115000Y-10201000D01*
X-60000Y-10256000D01*
D11*
X360539Y-10292484D02*
X246253Y-10292484D01*
X303396Y-10292484D02*
X303396Y-10092484D01*
X303396Y-10092484D02*
X284348Y-10121055D01*
X284348Y-10121055D02*
X265301Y-10140103D01*
X265301Y-10140103D02*
X246253Y-10149627D01*
X446253Y-10273436D02*
X455777Y-10282960D01*
X455777Y-10282960D02*
X446253Y-10292484D01*
X446253Y-10292484D02*
X436729Y-10282960D01*
X436729Y-10282960D02*
X446253Y-10273436D01*
X446253Y-10273436D02*
X446253Y-10292484D01*
X646253Y-10292484D02*
X531967Y-10292484D01*
X589110Y-10292484D02*
X589110Y-10092484D01*
X589110Y-10092484D02*
X570063Y-10121055D01*
X570063Y-10121055D02*
X551015Y-10140103D01*
X551015Y-10140103D02*
X531967Y-10149627D01*
X770062Y-10092484D02*
X789110Y-10092484D01*
X789110Y-10092484D02*
X808158Y-10102008D01*
X808158Y-10102008D02*
X817682Y-10111531D01*
X817682Y-10111531D02*
X827205Y-10130579D01*
X827205Y-10130579D02*
X836729Y-10168674D01*
X836729Y-10168674D02*
X836729Y-10216293D01*
X836729Y-10216293D02*
X827205Y-10254389D01*
X827205Y-10254389D02*
X817682Y-10273436D01*
X817682Y-10273436D02*
X808158Y-10282960D01*
X808158Y-10282960D02*
X789110Y-10292484D01*
X789110Y-10292484D02*
X770062Y-10292484D01*
X770062Y-10292484D02*
X751015Y-10282960D01*
X751015Y-10282960D02*
X741491Y-10273436D01*
X741491Y-10273436D02*
X731967Y-10254389D01*
X731967Y-10254389D02*
X722443Y-10216293D01*
X722443Y-10216293D02*
X722443Y-10168674D01*
X722443Y-10168674D02*
X731967Y-10130579D01*
X731967Y-10130579D02*
X741491Y-10111531D01*
X741491Y-10111531D02*
X751015Y-10102008D01*
X751015Y-10102008D02*
X770062Y-10092484D01*
X960539Y-10092484D02*
X979586Y-10092484D01*
X979586Y-10092484D02*
X998634Y-10102008D01*
X998634Y-10102008D02*
X1008158Y-10111531D01*
X1008158Y-10111531D02*
X1017682Y-10130579D01*
X1017682Y-10130579D02*
X1027205Y-10168674D01*
X1027205Y-10168674D02*
X1027205Y-10216293D01*
X1027205Y-10216293D02*
X1017682Y-10254389D01*
X1017682Y-10254389D02*
X1008158Y-10273436D01*
X1008158Y-10273436D02*
X998634Y-10282960D01*
X998634Y-10282960D02*
X979586Y-10292484D01*
X979586Y-10292484D02*
X960539Y-10292484D01*
X960539Y-10292484D02*
X941491Y-10282960D01*
X941491Y-10282960D02*
X931967Y-10273436D01*
X931967Y-10273436D02*
X922443Y-10254389D01*
X922443Y-10254389D02*
X912920Y-10216293D01*
X912920Y-10216293D02*
X912920Y-10168674D01*
X912920Y-10168674D02*
X922443Y-10130579D01*
X922443Y-10130579D02*
X931967Y-10111531D01*
X931967Y-10111531D02*
X941491Y-10102008D01*
X941491Y-10102008D02*
X960539Y-10092484D01*
X1112920Y-10292484D02*
X1112920Y-10159150D01*
X1112920Y-10178198D02*
X1122444Y-10168674D01*
X1122444Y-10168674D02*
X1141491Y-10159150D01*
X1141491Y-10159150D02*
X1170063Y-10159150D01*
X1170063Y-10159150D02*
X1189110Y-10168674D01*
X1189110Y-10168674D02*
X1198634Y-10187722D01*
X1198634Y-10187722D02*
X1198634Y-10292484D01*
X1198634Y-10187722D02*
X1208158Y-10168674D01*
X1208158Y-10168674D02*
X1227205Y-10159150D01*
X1227205Y-10159150D02*
X1255777Y-10159150D01*
X1255777Y-10159150D02*
X1274825Y-10168674D01*
X1274825Y-10168674D02*
X1284348Y-10187722D01*
X1284348Y-10187722D02*
X1284348Y-10292484D01*
X1379586Y-10292484D02*
X1379586Y-10159150D01*
X1379586Y-10178198D02*
X1389110Y-10168674D01*
X1389110Y-10168674D02*
X1408158Y-10159150D01*
X1408158Y-10159150D02*
X1436729Y-10159150D01*
X1436729Y-10159150D02*
X1455777Y-10168674D01*
X1455777Y-10168674D02*
X1465301Y-10187722D01*
X1465301Y-10187722D02*
X1465301Y-10292484D01*
X1465301Y-10187722D02*
X1474824Y-10168674D01*
X1474824Y-10168674D02*
X1493872Y-10159150D01*
X1493872Y-10159150D02*
X1522443Y-10159150D01*
X1522443Y-10159150D02*
X1541491Y-10168674D01*
X1541491Y-10168674D02*
X1551015Y-10187722D01*
X1551015Y-10187722D02*
X1551015Y-10292484D01*
X1941491Y-10082960D02*
X1770063Y-10340103D01*
X2198634Y-10092484D02*
X2217682Y-10092484D01*
X2217682Y-10092484D02*
X2236729Y-10102008D01*
X2236729Y-10102008D02*
X2246253Y-10111531D01*
X2246253Y-10111531D02*
X2255777Y-10130579D01*
X2255777Y-10130579D02*
X2265301Y-10168674D01*
X2265301Y-10168674D02*
X2265301Y-10216293D01*
X2265301Y-10216293D02*
X2255777Y-10254389D01*
X2255777Y-10254389D02*
X2246253Y-10273436D01*
X2246253Y-10273436D02*
X2236729Y-10282960D01*
X2236729Y-10282960D02*
X2217682Y-10292484D01*
X2217682Y-10292484D02*
X2198634Y-10292484D01*
X2198634Y-10292484D02*
X2179587Y-10282960D01*
X2179587Y-10282960D02*
X2170063Y-10273436D01*
X2170063Y-10273436D02*
X2160539Y-10254389D01*
X2160539Y-10254389D02*
X2151015Y-10216293D01*
X2151015Y-10216293D02*
X2151015Y-10168674D01*
X2151015Y-10168674D02*
X2160539Y-10130579D01*
X2160539Y-10130579D02*
X2170063Y-10111531D01*
X2170063Y-10111531D02*
X2179587Y-10102008D01*
X2179587Y-10102008D02*
X2198634Y-10092484D01*
X2351015Y-10273436D02*
X2360539Y-10282960D01*
X2360539Y-10282960D02*
X2351015Y-10292484D01*
X2351015Y-10292484D02*
X2341491Y-10282960D01*
X2341491Y-10282960D02*
X2351015Y-10273436D01*
X2351015Y-10273436D02*
X2351015Y-10292484D01*
X2484348Y-10092484D02*
X2503396Y-10092484D01*
X2503396Y-10092484D02*
X2522444Y-10102008D01*
X2522444Y-10102008D02*
X2531968Y-10111531D01*
X2531968Y-10111531D02*
X2541491Y-10130579D01*
X2541491Y-10130579D02*
X2551015Y-10168674D01*
X2551015Y-10168674D02*
X2551015Y-10216293D01*
X2551015Y-10216293D02*
X2541491Y-10254389D01*
X2541491Y-10254389D02*
X2531968Y-10273436D01*
X2531968Y-10273436D02*
X2522444Y-10282960D01*
X2522444Y-10282960D02*
X2503396Y-10292484D01*
X2503396Y-10292484D02*
X2484348Y-10292484D01*
X2484348Y-10292484D02*
X2465301Y-10282960D01*
X2465301Y-10282960D02*
X2455777Y-10273436D01*
X2455777Y-10273436D02*
X2446253Y-10254389D01*
X2446253Y-10254389D02*
X2436729Y-10216293D01*
X2436729Y-10216293D02*
X2436729Y-10168674D01*
X2436729Y-10168674D02*
X2446253Y-10130579D01*
X2446253Y-10130579D02*
X2455777Y-10111531D01*
X2455777Y-10111531D02*
X2465301Y-10102008D01*
X2465301Y-10102008D02*
X2484348Y-10092484D01*
X2722444Y-10159150D02*
X2722444Y-10292484D01*
X2674825Y-10082960D02*
X2627206Y-10225817D01*
X2627206Y-10225817D02*
X2751015Y-10225817D01*
X2808158Y-10092484D02*
X2931967Y-10092484D01*
X2931967Y-10092484D02*
X2865301Y-10168674D01*
X2865301Y-10168674D02*
X2893872Y-10168674D01*
X2893872Y-10168674D02*
X2912920Y-10178198D01*
X2912920Y-10178198D02*
X2922444Y-10187722D01*
X2922444Y-10187722D02*
X2931967Y-10206770D01*
X2931967Y-10206770D02*
X2931967Y-10254389D01*
X2931967Y-10254389D02*
X2922444Y-10273436D01*
X2922444Y-10273436D02*
X2912920Y-10282960D01*
X2912920Y-10282960D02*
X2893872Y-10292484D01*
X2893872Y-10292484D02*
X2836729Y-10292484D01*
X2836729Y-10292484D02*
X2817682Y-10282960D01*
X2817682Y-10282960D02*
X2808158Y-10273436D01*
X2998634Y-10092484D02*
X3122444Y-10092484D01*
X3122444Y-10092484D02*
X3055777Y-10168674D01*
X3055777Y-10168674D02*
X3084348Y-10168674D01*
X3084348Y-10168674D02*
X3103396Y-10178198D01*
X3103396Y-10178198D02*
X3112920Y-10187722D01*
X3112920Y-10187722D02*
X3122444Y-10206770D01*
X3122444Y-10206770D02*
X3122444Y-10254389D01*
X3122444Y-10254389D02*
X3112920Y-10273436D01*
X3112920Y-10273436D02*
X3103396Y-10282960D01*
X3103396Y-10282960D02*
X3084348Y-10292484D01*
X3084348Y-10292484D02*
X3027206Y-10292484D01*
X3027206Y-10292484D02*
X3008158Y-10282960D01*
X3008158Y-10282960D02*
X2998634Y-10273436D01*
X3198634Y-10092484D02*
X3198634Y-10130579D01*
X3274825Y-10092484D02*
X3274825Y-10130579D01*
X3570063Y-10368674D02*
X3560539Y-10359150D01*
X3560539Y-10359150D02*
X3541491Y-10330579D01*
X3541491Y-10330579D02*
X3531968Y-10311531D01*
X3531968Y-10311531D02*
X3522444Y-10282960D01*
X3522444Y-10282960D02*
X3512920Y-10235341D01*
X3512920Y-10235341D02*
X3512920Y-10197246D01*
X3512920Y-10197246D02*
X3522444Y-10149627D01*
X3522444Y-10149627D02*
X3531968Y-10121055D01*
X3531968Y-10121055D02*
X3541491Y-10102008D01*
X3541491Y-10102008D02*
X3560539Y-10073436D01*
X3560539Y-10073436D02*
X3570063Y-10063912D01*
X3627206Y-10092484D02*
X3751015Y-10092484D01*
X3751015Y-10092484D02*
X3684348Y-10168674D01*
X3684348Y-10168674D02*
X3712920Y-10168674D01*
X3712920Y-10168674D02*
X3731968Y-10178198D01*
X3731968Y-10178198D02*
X3741491Y-10187722D01*
X3741491Y-10187722D02*
X3751015Y-10206770D01*
X3751015Y-10206770D02*
X3751015Y-10254389D01*
X3751015Y-10254389D02*
X3741491Y-10273436D01*
X3741491Y-10273436D02*
X3731968Y-10282960D01*
X3731968Y-10282960D02*
X3712920Y-10292484D01*
X3712920Y-10292484D02*
X3655777Y-10292484D01*
X3655777Y-10292484D02*
X3636729Y-10282960D01*
X3636729Y-10282960D02*
X3627206Y-10273436D01*
X3817682Y-10092484D02*
X3941491Y-10092484D01*
X3941491Y-10092484D02*
X3874825Y-10168674D01*
X3874825Y-10168674D02*
X3903396Y-10168674D01*
X3903396Y-10168674D02*
X3922444Y-10178198D01*
X3922444Y-10178198D02*
X3931968Y-10187722D01*
X3931968Y-10187722D02*
X3941491Y-10206770D01*
X3941491Y-10206770D02*
X3941491Y-10254389D01*
X3941491Y-10254389D02*
X3931968Y-10273436D01*
X3931968Y-10273436D02*
X3922444Y-10282960D01*
X3922444Y-10282960D02*
X3903396Y-10292484D01*
X3903396Y-10292484D02*
X3846253Y-10292484D01*
X3846253Y-10292484D02*
X3827206Y-10282960D01*
X3827206Y-10282960D02*
X3817682Y-10273436D01*
X4179587Y-10292484D02*
X4179587Y-10092484D01*
X4265301Y-10292484D02*
X4265301Y-10187722D01*
X4265301Y-10187722D02*
X4255777Y-10168674D01*
X4255777Y-10168674D02*
X4236730Y-10159150D01*
X4236730Y-10159150D02*
X4208158Y-10159150D01*
X4208158Y-10159150D02*
X4189110Y-10168674D01*
X4189110Y-10168674D02*
X4179587Y-10178198D01*
X4389111Y-10292484D02*
X4370063Y-10282960D01*
X4370063Y-10282960D02*
X4360539Y-10273436D01*
X4360539Y-10273436D02*
X4351015Y-10254389D01*
X4351015Y-10254389D02*
X4351015Y-10197246D01*
X4351015Y-10197246D02*
X4360539Y-10178198D01*
X4360539Y-10178198D02*
X4370063Y-10168674D01*
X4370063Y-10168674D02*
X4389111Y-10159150D01*
X4389111Y-10159150D02*
X4417682Y-10159150D01*
X4417682Y-10159150D02*
X4436730Y-10168674D01*
X4436730Y-10168674D02*
X4446253Y-10178198D01*
X4446253Y-10178198D02*
X4455777Y-10197246D01*
X4455777Y-10197246D02*
X4455777Y-10254389D01*
X4455777Y-10254389D02*
X4446253Y-10273436D01*
X4446253Y-10273436D02*
X4436730Y-10282960D01*
X4436730Y-10282960D02*
X4417682Y-10292484D01*
X4417682Y-10292484D02*
X4389111Y-10292484D01*
X4570063Y-10292484D02*
X4551015Y-10282960D01*
X4551015Y-10282960D02*
X4541492Y-10263912D01*
X4541492Y-10263912D02*
X4541492Y-10092484D01*
X4722444Y-10282960D02*
X4703396Y-10292484D01*
X4703396Y-10292484D02*
X4665301Y-10292484D01*
X4665301Y-10292484D02*
X4646253Y-10282960D01*
X4646253Y-10282960D02*
X4636730Y-10263912D01*
X4636730Y-10263912D02*
X4636730Y-10187722D01*
X4636730Y-10187722D02*
X4646253Y-10168674D01*
X4646253Y-10168674D02*
X4665301Y-10159150D01*
X4665301Y-10159150D02*
X4703396Y-10159150D01*
X4703396Y-10159150D02*
X4722444Y-10168674D01*
X4722444Y-10168674D02*
X4731968Y-10187722D01*
X4731968Y-10187722D02*
X4731968Y-10206770D01*
X4731968Y-10206770D02*
X4636730Y-10225817D01*
X4808158Y-10282960D02*
X4827206Y-10292484D01*
X4827206Y-10292484D02*
X4865301Y-10292484D01*
X4865301Y-10292484D02*
X4884349Y-10282960D01*
X4884349Y-10282960D02*
X4893873Y-10263912D01*
X4893873Y-10263912D02*
X4893873Y-10254389D01*
X4893873Y-10254389D02*
X4884349Y-10235341D01*
X4884349Y-10235341D02*
X4865301Y-10225817D01*
X4865301Y-10225817D02*
X4836730Y-10225817D01*
X4836730Y-10225817D02*
X4817682Y-10216293D01*
X4817682Y-10216293D02*
X4808158Y-10197246D01*
X4808158Y-10197246D02*
X4808158Y-10187722D01*
X4808158Y-10187722D02*
X4817682Y-10168674D01*
X4817682Y-10168674D02*
X4836730Y-10159150D01*
X4836730Y-10159150D02*
X4865301Y-10159150D01*
X4865301Y-10159150D02*
X4884349Y-10168674D01*
X4960539Y-10368674D02*
X4970063Y-10359150D01*
X4970063Y-10359150D02*
X4989111Y-10330579D01*
X4989111Y-10330579D02*
X4998634Y-10311531D01*
X4998634Y-10311531D02*
X5008158Y-10282960D01*
X5008158Y-10282960D02*
X5017682Y-10235341D01*
X5017682Y-10235341D02*
X5017682Y-10197246D01*
X5017682Y-10197246D02*
X5008158Y-10149627D01*
X5008158Y-10149627D02*
X4998634Y-10121055D01*
X4998634Y-10121055D02*
X4989111Y-10102008D01*
X4989111Y-10102008D02*
X4970063Y-10073436D01*
X4970063Y-10073436D02*
X4960539Y-10063912D01*
D13*
X-125000Y-10405000D02*
X-5000Y-10525000D01*
X-5000Y-10405000D02*
X-125000Y-10525000D01*
X-5000Y-10465000D02*
G75*
G02*
X-125000Y-10465000I-60000J0D01*
G01*
X-125000Y-10465000D02*
G75*
G02*
X-5000Y-10465000I60000J0D01*
G01*
D11*
X360539Y-10556484D02*
X246253Y-10556484D01*
X303396Y-10556484D02*
X303396Y-10356484D01*
X303396Y-10356484D02*
X284348Y-10385055D01*
X284348Y-10385055D02*
X265301Y-10404103D01*
X265301Y-10404103D02*
X246253Y-10413627D01*
X446253Y-10537436D02*
X455777Y-10546960D01*
X455777Y-10546960D02*
X446253Y-10556484D01*
X446253Y-10556484D02*
X436729Y-10546960D01*
X436729Y-10546960D02*
X446253Y-10537436D01*
X446253Y-10537436D02*
X446253Y-10556484D01*
X531967Y-10375531D02*
X541491Y-10366008D01*
X541491Y-10366008D02*
X560539Y-10356484D01*
X560539Y-10356484D02*
X608158Y-10356484D01*
X608158Y-10356484D02*
X627205Y-10366008D01*
X627205Y-10366008D02*
X636729Y-10375531D01*
X636729Y-10375531D02*
X646253Y-10394579D01*
X646253Y-10394579D02*
X646253Y-10413627D01*
X646253Y-10413627D02*
X636729Y-10442198D01*
X636729Y-10442198D02*
X522443Y-10556484D01*
X522443Y-10556484D02*
X646253Y-10556484D01*
X770062Y-10356484D02*
X789110Y-10356484D01*
X789110Y-10356484D02*
X808158Y-10366008D01*
X808158Y-10366008D02*
X817682Y-10375531D01*
X817682Y-10375531D02*
X827205Y-10394579D01*
X827205Y-10394579D02*
X836729Y-10432674D01*
X836729Y-10432674D02*
X836729Y-10480293D01*
X836729Y-10480293D02*
X827205Y-10518389D01*
X827205Y-10518389D02*
X817682Y-10537436D01*
X817682Y-10537436D02*
X808158Y-10546960D01*
X808158Y-10546960D02*
X789110Y-10556484D01*
X789110Y-10556484D02*
X770062Y-10556484D01*
X770062Y-10556484D02*
X751015Y-10546960D01*
X751015Y-10546960D02*
X741491Y-10537436D01*
X741491Y-10537436D02*
X731967Y-10518389D01*
X731967Y-10518389D02*
X722443Y-10480293D01*
X722443Y-10480293D02*
X722443Y-10432674D01*
X722443Y-10432674D02*
X731967Y-10394579D01*
X731967Y-10394579D02*
X741491Y-10375531D01*
X741491Y-10375531D02*
X751015Y-10366008D01*
X751015Y-10366008D02*
X770062Y-10356484D01*
X960539Y-10356484D02*
X979586Y-10356484D01*
X979586Y-10356484D02*
X998634Y-10366008D01*
X998634Y-10366008D02*
X1008158Y-10375531D01*
X1008158Y-10375531D02*
X1017682Y-10394579D01*
X1017682Y-10394579D02*
X1027205Y-10432674D01*
X1027205Y-10432674D02*
X1027205Y-10480293D01*
X1027205Y-10480293D02*
X1017682Y-10518389D01*
X1017682Y-10518389D02*
X1008158Y-10537436D01*
X1008158Y-10537436D02*
X998634Y-10546960D01*
X998634Y-10546960D02*
X979586Y-10556484D01*
X979586Y-10556484D02*
X960539Y-10556484D01*
X960539Y-10556484D02*
X941491Y-10546960D01*
X941491Y-10546960D02*
X931967Y-10537436D01*
X931967Y-10537436D02*
X922443Y-10518389D01*
X922443Y-10518389D02*
X912920Y-10480293D01*
X912920Y-10480293D02*
X912920Y-10432674D01*
X912920Y-10432674D02*
X922443Y-10394579D01*
X922443Y-10394579D02*
X931967Y-10375531D01*
X931967Y-10375531D02*
X941491Y-10366008D01*
X941491Y-10366008D02*
X960539Y-10356484D01*
X1112920Y-10556484D02*
X1112920Y-10423150D01*
X1112920Y-10442198D02*
X1122444Y-10432674D01*
X1122444Y-10432674D02*
X1141491Y-10423150D01*
X1141491Y-10423150D02*
X1170063Y-10423150D01*
X1170063Y-10423150D02*
X1189110Y-10432674D01*
X1189110Y-10432674D02*
X1198634Y-10451722D01*
X1198634Y-10451722D02*
X1198634Y-10556484D01*
X1198634Y-10451722D02*
X1208158Y-10432674D01*
X1208158Y-10432674D02*
X1227205Y-10423150D01*
X1227205Y-10423150D02*
X1255777Y-10423150D01*
X1255777Y-10423150D02*
X1274825Y-10432674D01*
X1274825Y-10432674D02*
X1284348Y-10451722D01*
X1284348Y-10451722D02*
X1284348Y-10556484D01*
X1379586Y-10556484D02*
X1379586Y-10423150D01*
X1379586Y-10442198D02*
X1389110Y-10432674D01*
X1389110Y-10432674D02*
X1408158Y-10423150D01*
X1408158Y-10423150D02*
X1436729Y-10423150D01*
X1436729Y-10423150D02*
X1455777Y-10432674D01*
X1455777Y-10432674D02*
X1465301Y-10451722D01*
X1465301Y-10451722D02*
X1465301Y-10556484D01*
X1465301Y-10451722D02*
X1474824Y-10432674D01*
X1474824Y-10432674D02*
X1493872Y-10423150D01*
X1493872Y-10423150D02*
X1522443Y-10423150D01*
X1522443Y-10423150D02*
X1541491Y-10432674D01*
X1541491Y-10432674D02*
X1551015Y-10451722D01*
X1551015Y-10451722D02*
X1551015Y-10556484D01*
X1941491Y-10346960D02*
X1770063Y-10604103D01*
X2198634Y-10356484D02*
X2217682Y-10356484D01*
X2217682Y-10356484D02*
X2236729Y-10366008D01*
X2236729Y-10366008D02*
X2246253Y-10375531D01*
X2246253Y-10375531D02*
X2255777Y-10394579D01*
X2255777Y-10394579D02*
X2265301Y-10432674D01*
X2265301Y-10432674D02*
X2265301Y-10480293D01*
X2265301Y-10480293D02*
X2255777Y-10518389D01*
X2255777Y-10518389D02*
X2246253Y-10537436D01*
X2246253Y-10537436D02*
X2236729Y-10546960D01*
X2236729Y-10546960D02*
X2217682Y-10556484D01*
X2217682Y-10556484D02*
X2198634Y-10556484D01*
X2198634Y-10556484D02*
X2179587Y-10546960D01*
X2179587Y-10546960D02*
X2170063Y-10537436D01*
X2170063Y-10537436D02*
X2160539Y-10518389D01*
X2160539Y-10518389D02*
X2151015Y-10480293D01*
X2151015Y-10480293D02*
X2151015Y-10432674D01*
X2151015Y-10432674D02*
X2160539Y-10394579D01*
X2160539Y-10394579D02*
X2170063Y-10375531D01*
X2170063Y-10375531D02*
X2179587Y-10366008D01*
X2179587Y-10366008D02*
X2198634Y-10356484D01*
X2351015Y-10537436D02*
X2360539Y-10546960D01*
X2360539Y-10546960D02*
X2351015Y-10556484D01*
X2351015Y-10556484D02*
X2341491Y-10546960D01*
X2341491Y-10546960D02*
X2351015Y-10537436D01*
X2351015Y-10537436D02*
X2351015Y-10556484D01*
X2484348Y-10356484D02*
X2503396Y-10356484D01*
X2503396Y-10356484D02*
X2522444Y-10366008D01*
X2522444Y-10366008D02*
X2531968Y-10375531D01*
X2531968Y-10375531D02*
X2541491Y-10394579D01*
X2541491Y-10394579D02*
X2551015Y-10432674D01*
X2551015Y-10432674D02*
X2551015Y-10480293D01*
X2551015Y-10480293D02*
X2541491Y-10518389D01*
X2541491Y-10518389D02*
X2531968Y-10537436D01*
X2531968Y-10537436D02*
X2522444Y-10546960D01*
X2522444Y-10546960D02*
X2503396Y-10556484D01*
X2503396Y-10556484D02*
X2484348Y-10556484D01*
X2484348Y-10556484D02*
X2465301Y-10546960D01*
X2465301Y-10546960D02*
X2455777Y-10537436D01*
X2455777Y-10537436D02*
X2446253Y-10518389D01*
X2446253Y-10518389D02*
X2436729Y-10480293D01*
X2436729Y-10480293D02*
X2436729Y-10432674D01*
X2436729Y-10432674D02*
X2446253Y-10394579D01*
X2446253Y-10394579D02*
X2455777Y-10375531D01*
X2455777Y-10375531D02*
X2465301Y-10366008D01*
X2465301Y-10366008D02*
X2484348Y-10356484D01*
X2722444Y-10423150D02*
X2722444Y-10556484D01*
X2674825Y-10346960D02*
X2627206Y-10489817D01*
X2627206Y-10489817D02*
X2751015Y-10489817D01*
X2808158Y-10356484D02*
X2941491Y-10356484D01*
X2941491Y-10356484D02*
X2855777Y-10556484D01*
X3008158Y-10375531D02*
X3017682Y-10366008D01*
X3017682Y-10366008D02*
X3036729Y-10356484D01*
X3036729Y-10356484D02*
X3084348Y-10356484D01*
X3084348Y-10356484D02*
X3103396Y-10366008D01*
X3103396Y-10366008D02*
X3112920Y-10375531D01*
X3112920Y-10375531D02*
X3122444Y-10394579D01*
X3122444Y-10394579D02*
X3122444Y-10413627D01*
X3122444Y-10413627D02*
X3112920Y-10442198D01*
X3112920Y-10442198D02*
X2998634Y-10556484D01*
X2998634Y-10556484D02*
X3122444Y-10556484D01*
X3198634Y-10356484D02*
X3198634Y-10394579D01*
X3274825Y-10356484D02*
X3274825Y-10394579D01*
X3570063Y-10632674D02*
X3560539Y-10623150D01*
X3560539Y-10623150D02*
X3541491Y-10594579D01*
X3541491Y-10594579D02*
X3531968Y-10575531D01*
X3531968Y-10575531D02*
X3522444Y-10546960D01*
X3522444Y-10546960D02*
X3512920Y-10499341D01*
X3512920Y-10499341D02*
X3512920Y-10461246D01*
X3512920Y-10461246D02*
X3522444Y-10413627D01*
X3522444Y-10413627D02*
X3531968Y-10385055D01*
X3531968Y-10385055D02*
X3541491Y-10366008D01*
X3541491Y-10366008D02*
X3560539Y-10337436D01*
X3560539Y-10337436D02*
X3570063Y-10327912D01*
X3636729Y-10375531D02*
X3646253Y-10366008D01*
X3646253Y-10366008D02*
X3665301Y-10356484D01*
X3665301Y-10356484D02*
X3712920Y-10356484D01*
X3712920Y-10356484D02*
X3731968Y-10366008D01*
X3731968Y-10366008D02*
X3741491Y-10375531D01*
X3741491Y-10375531D02*
X3751015Y-10394579D01*
X3751015Y-10394579D02*
X3751015Y-10413627D01*
X3751015Y-10413627D02*
X3741491Y-10442198D01*
X3741491Y-10442198D02*
X3627206Y-10556484D01*
X3627206Y-10556484D02*
X3751015Y-10556484D01*
X3989110Y-10556484D02*
X3989110Y-10356484D01*
X4074825Y-10556484D02*
X4074825Y-10451722D01*
X4074825Y-10451722D02*
X4065301Y-10432674D01*
X4065301Y-10432674D02*
X4046253Y-10423150D01*
X4046253Y-10423150D02*
X4017682Y-10423150D01*
X4017682Y-10423150D02*
X3998634Y-10432674D01*
X3998634Y-10432674D02*
X3989110Y-10442198D01*
X4198634Y-10556484D02*
X4179587Y-10546960D01*
X4179587Y-10546960D02*
X4170063Y-10537436D01*
X4170063Y-10537436D02*
X4160539Y-10518389D01*
X4160539Y-10518389D02*
X4160539Y-10461246D01*
X4160539Y-10461246D02*
X4170063Y-10442198D01*
X4170063Y-10442198D02*
X4179587Y-10432674D01*
X4179587Y-10432674D02*
X4198634Y-10423150D01*
X4198634Y-10423150D02*
X4227206Y-10423150D01*
X4227206Y-10423150D02*
X4246253Y-10432674D01*
X4246253Y-10432674D02*
X4255777Y-10442198D01*
X4255777Y-10442198D02*
X4265301Y-10461246D01*
X4265301Y-10461246D02*
X4265301Y-10518389D01*
X4265301Y-10518389D02*
X4255777Y-10537436D01*
X4255777Y-10537436D02*
X4246253Y-10546960D01*
X4246253Y-10546960D02*
X4227206Y-10556484D01*
X4227206Y-10556484D02*
X4198634Y-10556484D01*
X4379587Y-10556484D02*
X4360539Y-10546960D01*
X4360539Y-10546960D02*
X4351015Y-10527912D01*
X4351015Y-10527912D02*
X4351015Y-10356484D01*
X4531968Y-10546960D02*
X4512920Y-10556484D01*
X4512920Y-10556484D02*
X4474825Y-10556484D01*
X4474825Y-10556484D02*
X4455777Y-10546960D01*
X4455777Y-10546960D02*
X4446253Y-10527912D01*
X4446253Y-10527912D02*
X4446253Y-10451722D01*
X4446253Y-10451722D02*
X4455777Y-10432674D01*
X4455777Y-10432674D02*
X4474825Y-10423150D01*
X4474825Y-10423150D02*
X4512920Y-10423150D01*
X4512920Y-10423150D02*
X4531968Y-10432674D01*
X4531968Y-10432674D02*
X4541492Y-10451722D01*
X4541492Y-10451722D02*
X4541492Y-10470770D01*
X4541492Y-10470770D02*
X4446253Y-10489817D01*
X4617682Y-10546960D02*
X4636730Y-10556484D01*
X4636730Y-10556484D02*
X4674825Y-10556484D01*
X4674825Y-10556484D02*
X4693873Y-10546960D01*
X4693873Y-10546960D02*
X4703396Y-10527912D01*
X4703396Y-10527912D02*
X4703396Y-10518389D01*
X4703396Y-10518389D02*
X4693873Y-10499341D01*
X4693873Y-10499341D02*
X4674825Y-10489817D01*
X4674825Y-10489817D02*
X4646253Y-10489817D01*
X4646253Y-10489817D02*
X4627206Y-10480293D01*
X4627206Y-10480293D02*
X4617682Y-10461246D01*
X4617682Y-10461246D02*
X4617682Y-10451722D01*
X4617682Y-10451722D02*
X4627206Y-10432674D01*
X4627206Y-10432674D02*
X4646253Y-10423150D01*
X4646253Y-10423150D02*
X4674825Y-10423150D01*
X4674825Y-10423150D02*
X4693873Y-10432674D01*
X4770063Y-10632674D02*
X4779587Y-10623150D01*
X4779587Y-10623150D02*
X4798634Y-10594579D01*
X4798634Y-10594579D02*
X4808158Y-10575531D01*
X4808158Y-10575531D02*
X4817682Y-10546960D01*
X4817682Y-10546960D02*
X4827206Y-10499341D01*
X4827206Y-10499341D02*
X4827206Y-10461246D01*
X4827206Y-10461246D02*
X4817682Y-10413627D01*
X4817682Y-10413627D02*
X4808158Y-10385055D01*
X4808158Y-10385055D02*
X4798634Y-10366008D01*
X4798634Y-10366008D02*
X4779587Y-10337436D01*
X4779587Y-10337436D02*
X4770063Y-10327912D01*
M02*
