%TF.GenerationSoftware,KiCad,Pcbnew,10.0.6*%
%TF.CreationDate,2026-09-12T20:39:10-04:00*%
%TF.ProjectId,int-board,696e742d-626f-4617-9264-2e6b69636164,rev?*%
%TF.SameCoordinates,Original*%
%TF.FileFunction,Copper,L1,Top*%
%TF.FilePolarity,Positive*%
%FSLAX46Y46*%
G04 Gerber Fmt 4.6, Leading zero omitted, Abs format (unit mm)*
G04 Created by KiCad (PCBNEW 10.0.6) date 2026-09-12 20:39:10*
%MOMM*%
%LPD*%
G01*
G04 APERTURE LIST*
G04 Aperture macros list*
%AMRoundRect*
0 Rectangle with rounded corners*
0 $1 Rounding radius*
0 $2 $3 $4 $5 $6 $7 $8 $9 X,Y pos of 4 corners*
0 Add a 4 corners polygon primitive as box body*
4,1,4,$2,$3,$4,$5,$6,$7,$8,$9,$2,$3,0*
0 Add four circle primitives for the rounded corners*
1,1,$1+$1,$2,$3*
1,1,$1+$1,$4,$5*
1,1,$1+$1,$6,$7*
1,1,$1+$1,$8,$9*
0 Add four rect primitives between the rounded corners*
20,1,$1+$1,$2,$3,$4,$5,0*
20,1,$1+$1,$4,$5,$6,$7,0*
20,1,$1+$1,$6,$7,$8,$9,0*
20,1,$1+$1,$8,$9,$2,$3,0*%
G04 Aperture macros list end*
%TA.AperFunction,ComponentPad*%
%ADD10C,1.800000*%
%TD*%
%TA.AperFunction,ComponentPad*%
%ADD11RoundRect,0.249999X-0.850001X-0.850001X0.850001X-0.850001X0.850001X0.850001X-0.850001X0.850001X0*%
%TD*%
%TA.AperFunction,ComponentPad*%
%ADD12C,2.200000*%
%TD*%
%TA.AperFunction,ComponentPad*%
%ADD13RoundRect,0.450000X-0.450000X-0.450000X0.450000X-0.450000X0.450000X0.450000X-0.450000X0.450000X0*%
%TD*%
%TA.AperFunction,ComponentPad*%
%ADD14RoundRect,0.250000X0.550000X-0.550000X0.550000X0.550000X-0.550000X0.550000X-0.550000X-0.550000X0*%
%TD*%
%TA.AperFunction,ComponentPad*%
%ADD15C,1.600000*%
%TD*%
%TA.AperFunction,ComponentPad*%
%ADD16RoundRect,0.487500X-0.487500X-0.487500X0.487500X-0.487500X0.487500X0.487500X-0.487500X0.487500X0*%
%TD*%
%TA.AperFunction,ComponentPad*%
%ADD17C,1.950000*%
%TD*%
%TA.AperFunction,ComponentPad*%
%ADD18RoundRect,0.250001X-0.949999X0.949999X-0.949999X-0.949999X0.949999X-0.949999X0.949999X0.949999X0*%
%TD*%
%TA.AperFunction,ComponentPad*%
%ADD19C,2.400000*%
%TD*%
%TA.AperFunction,ComponentPad*%
%ADD20RoundRect,0.487500X-0.487500X0.487500X-0.487500X-0.487500X0.487500X-0.487500X0.487500X0.487500X0*%
%TD*%
%TA.AperFunction,ComponentPad*%
%ADD21RoundRect,0.400000X-0.400000X-0.400000X0.400000X-0.400000X0.400000X0.400000X-0.400000X0.400000X0*%
%TD*%
%TA.AperFunction,ComponentPad*%
%ADD22RoundRect,0.425000X-0.425000X-0.425000X0.425000X-0.425000X0.425000X0.425000X-0.425000X0.425000X0*%
%TD*%
%TA.AperFunction,ComponentPad*%
%ADD23C,1.700000*%
%TD*%
%TA.AperFunction,ViaPad*%
%ADD24C,1.000000*%
%TD*%
%TA.AperFunction,ViaPad*%
%ADD25C,0.800000*%
%TD*%
%TA.AperFunction,Conductor*%
%ADD26C,0.500000*%
%TD*%
%TA.AperFunction,Conductor*%
%ADD27C,0.400000*%
%TD*%
%TA.AperFunction,Conductor*%
%ADD28C,0.250000*%
%TD*%
%ADD29C,0.350000*%
G04 APERTURE END LIST*
D10*
%TO.P,TP3,1*%
%TO.N,GND*%
X46000000Y-81000000D03*
%TD*%
D11*
%TO.P,D1,1*%
%TO.N,VS*%
X45500000Y-73400000D03*
D12*
%TO.P,D1,2*%
%TO.N,ACF*%
X55660000Y-73400000D03*
%TD*%
D13*
%TO.P,F1,1*%
%TO.N,ACR*%
X52460000Y-25500000D03*
D10*
%TO.P,F1,2*%
%TO.N,ACF*%
X57540000Y-25500000D03*
%TD*%
%TO.P,TP1,1*%
%TO.N,VS*%
X40000000Y-81000000D03*
%TD*%
%TO.P,TP2,1*%
%TO.N,COM*%
X43000000Y-81000000D03*
%TD*%
D14*
%TO.P,U1,1*%
%TO.N,VS*%
X10500000Y-32310000D03*
D15*
%TO.P,U1,2*%
%TO.N,K1*%
X13040000Y-32310000D03*
%TO.P,U1,3*%
%TO.N,VS*%
X15580000Y-32310000D03*
%TO.P,U1,4*%
%TO.N,K2*%
X18120000Y-32310000D03*
%TO.P,U1,5*%
%TO.N,VS*%
X20660000Y-32310000D03*
%TO.P,U1,6*%
%TO.N,K3*%
X23200000Y-32310000D03*
%TO.P,U1,7*%
%TO.N,VS*%
X25740000Y-32310000D03*
%TO.P,U1,8*%
%TO.N,K4*%
X28280000Y-32310000D03*
%TO.P,U1,9*%
%TO.N,GND*%
X28280000Y-24690000D03*
%TO.P,U1,10*%
%TO.N,GPIO25*%
X25740000Y-24690000D03*
%TO.P,U1,11*%
%TO.N,GND*%
X23200000Y-24690000D03*
%TO.P,U1,12*%
%TO.N,GPIO22*%
X20660000Y-24690000D03*
%TO.P,U1,13*%
%TO.N,GND*%
X18120000Y-24690000D03*
%TO.P,U1,14*%
%TO.N,GPIO27*%
X15580000Y-24690000D03*
%TO.P,U1,15*%
%TO.N,GND*%
X13040000Y-24690000D03*
%TO.P,U1,16*%
%TO.N,GPIO17*%
X10500000Y-24690000D03*
%TD*%
D14*
%TO.P,U2,1*%
%TO.N,VS*%
X10500000Y-44810000D03*
D15*
%TO.P,U2,2*%
%TO.N,K5*%
X13040000Y-44810000D03*
%TO.P,U2,3*%
%TO.N,VS*%
X15580000Y-44810000D03*
%TO.P,U2,4*%
%TO.N,K6*%
X18120000Y-44810000D03*
%TO.P,U2,5*%
%TO.N,VS*%
X20660000Y-44810000D03*
%TO.P,U2,6*%
%TO.N,K7*%
X23200000Y-44810000D03*
%TO.P,U2,7*%
%TO.N,VS*%
X25740000Y-44810000D03*
%TO.P,U2,8*%
%TO.N,K8*%
X28280000Y-44810000D03*
%TO.P,U2,9*%
%TO.N,GND*%
X28280000Y-37190000D03*
%TO.P,U2,10*%
%TO.N,GPIO23*%
X25740000Y-37190000D03*
%TO.P,U2,11*%
%TO.N,GND*%
X23200000Y-37190000D03*
%TO.P,U2,12*%
%TO.N,GPIO12*%
X20660000Y-37190000D03*
%TO.P,U2,13*%
%TO.N,GND*%
X18120000Y-37190000D03*
%TO.P,U2,14*%
%TO.N,GPIO5*%
X15580000Y-37190000D03*
%TO.P,U2,15*%
%TO.N,GND*%
X13040000Y-37190000D03*
%TO.P,U2,16*%
%TO.N,GPIO6*%
X10500000Y-37190000D03*
%TD*%
%TO.P,R8,1*%
%TO.N,K8*%
X41500000Y-35920000D03*
%TO.P,R8,2*%
%TO.N,S_SCALA*%
X41500000Y-46080000D03*
%TD*%
D16*
%TO.P,J4,1*%
%TO.N,ACR*%
X44450000Y-6950000D03*
D17*
%TO.P,J4,2*%
%TO.N,ACC*%
X46950000Y-6950000D03*
%TO.P,J4,3*%
%TO.N,S_SP-D*%
X49450000Y-6950000D03*
%TO.P,J4,4*%
%TO.N,COM*%
X51950000Y-6950000D03*
%TD*%
D18*
%TO.P,C1,1*%
%TO.N,VS*%
X46800000Y-16500000D03*
D19*
%TO.P,C1,2*%
%TO.N,COM*%
X46800000Y-41500000D03*
%TD*%
D15*
%TO.P,J9,3*%
%TO.N,SCL*%
X7310000Y-13450000D03*
%TO.P,J9,4*%
%TO.N,GPIO4*%
X7310000Y-15990000D03*
%TO.P,J9,5*%
%TO.N,GND*%
X7310000Y-18530000D03*
%TO.P,J9,6*%
%TO.N,GPIO18*%
X7310000Y-21070000D03*
%TO.P,J9,7*%
%TO.N,SDA*%
X7310000Y-23610000D03*
%TO.P,J9,8*%
%TO.N,+5V*%
X7310000Y-26150000D03*
%TO.P,J9,9*%
%TO.N,3V3*%
X7310000Y-28690000D03*
%TO.P,J9,10*%
%TO.N,GPIO10*%
X7310000Y-31230000D03*
%TO.P,J9,11*%
%TO.N,GPIO9*%
X7310000Y-33770000D03*
%TO.P,J9,12*%
%TO.N,GPIO11*%
X7310000Y-36310000D03*
%TO.P,J9,13*%
%TO.N,GPIO7*%
X7310000Y-38850000D03*
%TO.P,J9,14*%
%TO.N,GPIO8*%
X7310000Y-41390000D03*
%TO.P,J9,15*%
%TO.N,GND*%
X7310000Y-43930000D03*
%TO.P,J9,17*%
X7310000Y-49010000D03*
%TO.P,J9,19*%
%TO.N,GPIO20*%
X7310000Y-54090000D03*
%TO.P,J9,20*%
%TO.N,GPIO21*%
X7310000Y-56630000D03*
%TD*%
D11*
%TO.P,D4,1*%
%TO.N,ACC*%
X45500000Y-70200000D03*
D12*
%TO.P,D4,2*%
%TO.N,COM*%
X55660000Y-70200000D03*
%TD*%
D15*
%TO.P,R9,1*%
%TO.N,K9*%
X31700000Y-48420000D03*
%TO.P,R9,2*%
%TO.N,S_HPHEAT*%
X31700000Y-58580000D03*
%TD*%
D11*
%TO.P,D3,1*%
%TO.N,ACF*%
X45500000Y-67000000D03*
D12*
%TO.P,D3,2*%
%TO.N,COM*%
X55660000Y-67000000D03*
%TD*%
D20*
%TO.P,J6,1*%
%TO.N,3V3*%
X53000000Y-29500000D03*
D17*
%TO.P,J6,2*%
%TO.N,SDA*%
X53000000Y-32000000D03*
%TO.P,J6,3*%
%TO.N,SCL*%
X53000000Y-34500000D03*
%TO.P,J6,4*%
%TO.N,GPIO4*%
X53000000Y-37000000D03*
%TO.P,J6,5*%
%TO.N,GND*%
X53000000Y-39500000D03*
%TD*%
D15*
%TO.P,R2,1*%
%TO.N,K2*%
X35000000Y-23420000D03*
%TO.P,R2,2*%
%TO.N,S_DHW*%
X35000000Y-33580000D03*
%TD*%
%TO.P,R7,1*%
%TO.N,K7*%
X38250000Y-35920000D03*
%TO.P,R7,2*%
%TO.N,S_DEHUM*%
X38250000Y-46080000D03*
%TD*%
D16*
%TO.P,J1,1*%
%TO.N,S_ZV*%
X9350000Y-6950000D03*
D17*
%TO.P,J1,2*%
%TO.N,S_DHW*%
X11850000Y-6950000D03*
%TO.P,J1,3*%
%TO.N,S_BLR*%
X14350000Y-6950000D03*
%TO.P,J1,4*%
%TO.N,COM*%
X16850000Y-6950000D03*
%TD*%
D20*
%TO.P,J7,1*%
%TO.N,VS*%
X53000000Y-46750000D03*
D17*
%TO.P,J7,2*%
%TO.N,COM*%
X53000000Y-49250000D03*
%TO.P,J7,3*%
%TO.N,+5V*%
X53000000Y-51750000D03*
%TO.P,J7,4*%
%TO.N,GND*%
X53000000Y-54250000D03*
%TD*%
D16*
%TO.P,J2,1*%
%TO.N,S_CHIL*%
X21050000Y-6950000D03*
D17*
%TO.P,J2,2*%
%TO.N,S_BOS1*%
X23550000Y-6950000D03*
%TO.P,J2,3*%
%TO.N,S_BOS2*%
X26050000Y-6950000D03*
%TO.P,J2,4*%
%TO.N,COM*%
X28550000Y-6950000D03*
%TD*%
D15*
%TO.P,R3,1*%
%TO.N,K3*%
X38250000Y-23420000D03*
%TO.P,R3,2*%
%TO.N,S_BLR*%
X38250000Y-33580000D03*
%TD*%
%TO.P,R12,1*%
%TO.N,K12*%
X41500000Y-48420000D03*
%TO.P,R12,2*%
%TO.N,S_SP-E*%
X41500000Y-58580000D03*
%TD*%
%TO.P,R5,1*%
%TO.N,K5*%
X31700000Y-35920000D03*
%TO.P,R5,2*%
%TO.N,S_BOS1*%
X31700000Y-46080000D03*
%TD*%
D16*
%TO.P,J3,1*%
%TO.N,S_DEHUM*%
X32750000Y-6950000D03*
D17*
%TO.P,J3,2*%
%TO.N,S_SCALA*%
X35250000Y-6950000D03*
%TO.P,J3,3*%
%TO.N,S_HPHEAT*%
X37750000Y-6950000D03*
%TO.P,J3,4*%
%TO.N,COM*%
X40250000Y-6950000D03*
%TD*%
D21*
%TO.P,J8,1*%
%TO.N,S_SP-C*%
X49500000Y-82000000D03*
D15*
%TO.P,J8,2*%
%TO.N,S_SP-E*%
X52040000Y-82000000D03*
%TO.P,J8,3*%
%TO.N,COM*%
X54580000Y-82000000D03*
%TD*%
%TO.P,R10,1*%
%TO.N,K10*%
X35000000Y-48420000D03*
%TO.P,R10,2*%
%TO.N,S_SP-D*%
X35000000Y-58580000D03*
%TD*%
D11*
%TO.P,D2,1*%
%TO.N,VS*%
X45500000Y-76600000D03*
D12*
%TO.P,D2,2*%
%TO.N,ACC*%
X55660000Y-76600000D03*
%TD*%
D15*
%TO.P,R1,1*%
%TO.N,K1*%
X31700000Y-23420000D03*
%TO.P,R1,2*%
%TO.N,S_ZV*%
X31700000Y-33580000D03*
%TD*%
%TO.P,R4,1*%
%TO.N,K4*%
X41500000Y-23420000D03*
%TO.P,R4,2*%
%TO.N,S_CHIL*%
X41500000Y-33580000D03*
%TD*%
D14*
%TO.P,U3,1*%
%TO.N,VS*%
X10500000Y-57310000D03*
D15*
%TO.P,U3,2*%
%TO.N,K9*%
X13040000Y-57310000D03*
%TO.P,U3,3*%
%TO.N,VS*%
X15580000Y-57310000D03*
%TO.P,U3,4*%
%TO.N,K10*%
X18120000Y-57310000D03*
%TO.P,U3,5*%
%TO.N,VS*%
X20660000Y-57310000D03*
%TO.P,U3,6*%
%TO.N,K11*%
X23200000Y-57310000D03*
%TO.P,U3,7*%
%TO.N,VS*%
X25740000Y-57310000D03*
%TO.P,U3,8*%
%TO.N,K12*%
X28280000Y-57310000D03*
%TO.P,U3,9*%
%TO.N,GND*%
X28280000Y-49690000D03*
%TO.P,U3,10*%
%TO.N,GPIO16*%
X25740000Y-49690000D03*
%TO.P,U3,11*%
%TO.N,GND*%
X23200000Y-49690000D03*
%TO.P,U3,12*%
%TO.N,GPIO13*%
X20660000Y-49690000D03*
%TO.P,U3,13*%
%TO.N,GND*%
X18120000Y-49690000D03*
%TO.P,U3,14*%
%TO.N,GPIO19*%
X15580000Y-49690000D03*
%TO.P,U3,15*%
%TO.N,GND*%
X13040000Y-49690000D03*
%TO.P,U3,16*%
%TO.N,GPIO24*%
X10500000Y-49690000D03*
%TD*%
%TO.P,R6,1*%
%TO.N,K6*%
X35000000Y-35920000D03*
%TO.P,R6,2*%
%TO.N,S_BOS2*%
X35000000Y-46080000D03*
%TD*%
%TO.P,R11,1*%
%TO.N,K11*%
X38250000Y-48420000D03*
%TO.P,R11,2*%
%TO.N,S_SP-C*%
X38250000Y-58580000D03*
%TD*%
D22*
%TO.P,J5,1*%
%TO.N,N/C*%
X4770000Y-8370000D03*
D23*
%TO.P,J5,2*%
%TO.N,+5V*%
X2230000Y-8370000D03*
%TO.P,J5,3*%
%TO.N,SDA*%
X4770000Y-10910000D03*
%TO.P,J5,4*%
%TO.N,+5V*%
X2230000Y-10910000D03*
%TO.P,J5,5*%
%TO.N,SCL*%
X4770000Y-13450000D03*
%TO.P,J5,6*%
%TO.N,GND*%
X2230000Y-13450000D03*
%TO.P,J5,7*%
%TO.N,GPIO4*%
X4770000Y-15990000D03*
%TO.P,J5,8*%
%TO.N,N/C*%
X2230000Y-15990000D03*
%TO.P,J5,9*%
%TO.N,GND*%
X4770000Y-18530000D03*
%TO.P,J5,10*%
%TO.N,N/C*%
X2230000Y-18530000D03*
%TO.P,J5,11*%
%TO.N,GPIO17*%
X4770000Y-21070000D03*
%TO.P,J5,12*%
%TO.N,GPIO18*%
X2230000Y-21070000D03*
%TO.P,J5,13*%
%TO.N,GPIO27*%
X4770000Y-23610000D03*
%TO.P,J5,14*%
%TO.N,GND*%
X2230000Y-23610000D03*
%TO.P,J5,15*%
%TO.N,GPIO22*%
X4770000Y-26150000D03*
%TO.P,J5,16*%
%TO.N,GPIO23*%
X2230000Y-26150000D03*
%TO.P,J5,17*%
%TO.N,3V3*%
X4770000Y-28690000D03*
%TO.P,J5,18*%
%TO.N,GPIO24*%
X2230000Y-28690000D03*
%TO.P,J5,19*%
%TO.N,GPIO10*%
X4770000Y-31230000D03*
%TO.P,J5,20*%
%TO.N,GND*%
X2230000Y-31230000D03*
%TO.P,J5,21*%
%TO.N,GPIO9*%
X4770000Y-33770000D03*
%TO.P,J5,22*%
%TO.N,GPIO25*%
X2230000Y-33770000D03*
%TO.P,J5,23*%
%TO.N,GPIO11*%
X4770000Y-36310000D03*
%TO.P,J5,24*%
%TO.N,GPIO8*%
X2230000Y-36310000D03*
%TO.P,J5,25*%
%TO.N,N/C*%
X4770000Y-38850000D03*
%TO.P,J5,26*%
%TO.N,GPIO7*%
X2230000Y-38850000D03*
%TO.P,J5,27*%
%TO.N,N/C*%
X4770000Y-41390000D03*
%TO.P,J5,28*%
X2230000Y-41390000D03*
%TO.P,J5,29*%
%TO.N,GPIO5*%
X4770000Y-43930000D03*
%TO.P,J5,30*%
%TO.N,GND*%
X2230000Y-43930000D03*
%TO.P,J5,31*%
%TO.N,GPIO6*%
X4770000Y-46470000D03*
%TO.P,J5,32*%
%TO.N,GPIO12*%
X2230000Y-46470000D03*
%TO.P,J5,33*%
%TO.N,GPIO13*%
X4770000Y-49010000D03*
%TO.P,J5,34*%
%TO.N,GND*%
X2230000Y-49010000D03*
%TO.P,J5,35*%
%TO.N,GPIO19*%
X4770000Y-51550000D03*
%TO.P,J5,36*%
%TO.N,GPIO16*%
X2230000Y-51550000D03*
%TO.P,J5,37*%
%TO.N,N/C*%
X4770000Y-54090000D03*
%TO.P,J5,38*%
%TO.N,GPIO20*%
X2230000Y-54090000D03*
%TO.P,J5,39*%
%TO.N,N/C*%
X4770000Y-56630000D03*
%TO.P,J5,40*%
%TO.N,GPIO21*%
X2230000Y-56630000D03*
%TD*%
D24*
%TO.N,GND*%
X47424700Y-35871500D03*
%TO.N,VS*%
X51534300Y-53224600D03*
%TO.N,ACR*%
X52460000Y-13966200D03*
D25*
%TO.N,SCL*%
X46809600Y-13657600D03*
%TO.N,GPIO4*%
X53870100Y-16749800D03*
%TO.N,SDA*%
X48902900Y-13609700D03*
D24*
%TO.N,+5V*%
X44498400Y-12518100D03*
D25*
%TO.N,3V3*%
X50117500Y-16749800D03*
%TO.N,S_ZV*%
X27217600Y-11826100D03*
%TO.N,S_BLR*%
X37404600Y-11822100D03*
%TO.N,S_CHIL*%
X29448300Y-34750000D03*
%TD*%
%TO.N,GND*%
D26*
X49371500Y-35871500D02*
X53000000Y-39500000D01*
D27*
X750000Y-13450000D02*
X750000Y-49010000D01*
D26*
X5946000Y-6259700D02*
X2390300Y-6259700D01*
X7310000Y-49010000D02*
X7310000Y-43930000D01*
X13040000Y-23356000D02*
X13040000Y-24690000D01*
X16786000Y-23356000D02*
X18120000Y-24690000D01*
D27*
X750000Y-23610000D02*
X2230000Y-23610000D01*
D26*
X18120000Y-24690000D02*
X19423200Y-25993200D01*
X13040000Y-23356000D02*
X13040000Y-13353700D01*
X13040000Y-23356000D02*
X16786000Y-23356000D01*
X21896800Y-25993200D02*
X23200000Y-24690000D01*
X47424700Y-35871500D02*
X49371500Y-35871500D01*
D27*
X750000Y-49010000D02*
X2230000Y-49010000D01*
D26*
X878300Y-13448500D02*
X879800Y-13450000D01*
X19423200Y-25993200D02*
X21896800Y-25993200D01*
D27*
X750000Y-43930000D02*
X2230000Y-43930000D01*
D26*
X53000000Y-54250000D02*
X53000000Y-74000000D01*
X53000000Y-74000000D02*
X46000000Y-81000000D01*
X13040000Y-13353700D02*
X5946000Y-6259700D01*
D27*
X750000Y-13450000D02*
X2230000Y-13450000D01*
X750000Y-31229999D02*
X2230000Y-31229999D01*
D26*
X878300Y-7771700D02*
X878300Y-13448500D01*
X2390300Y-6259700D02*
X878300Y-7771700D01*
%TO.N,VS*%
X9187200Y-43497200D02*
X10500000Y-44810000D01*
X25740000Y-57310000D02*
X29598900Y-53451100D01*
X29598900Y-48668900D02*
X25740000Y-44810000D01*
X48294400Y-56464500D02*
X48294400Y-70605600D01*
X53000000Y-43107000D02*
X53000000Y-46750000D01*
X14239600Y-55969600D02*
X11840400Y-55969600D01*
X9187200Y-33622800D02*
X9187200Y-43497200D01*
X29598900Y-53451100D02*
X29598900Y-48668900D01*
X25740000Y-58674100D02*
X25740000Y-57310000D01*
X15580000Y-57310000D02*
X14239600Y-55969600D01*
X48294400Y-70605600D02*
X45500000Y-73400000D01*
X11840400Y-55969600D02*
X10500000Y-57310000D01*
X46412100Y-16887900D02*
X46412100Y-36519100D01*
X46800000Y-16500000D02*
X46412100Y-16887900D01*
X51534300Y-53224600D02*
X48294400Y-56464500D01*
X40000000Y-81000000D02*
X25740000Y-66740000D01*
X22024100Y-58674100D02*
X20660000Y-57310000D01*
X45500000Y-76600000D02*
X45500000Y-73400000D01*
X46412100Y-36519100D02*
X53000000Y-43107000D01*
X10500000Y-32310000D02*
X9187200Y-33622800D01*
X25740000Y-58674100D02*
X22024100Y-58674100D01*
X25740000Y-66740000D02*
X25740000Y-58674100D01*
%TO.N,ACF*%
X57540000Y-71520000D02*
X55660000Y-73400000D01*
X57540000Y-25500000D02*
X57540000Y-71520000D01*
%TO.N,ACR*%
X52460000Y-13966200D02*
X52460000Y-25500000D01*
%TO.N,COM*%
X53000000Y-49250000D02*
X46800000Y-43050000D01*
X54580000Y-82000000D02*
X54047500Y-81467500D01*
X55660000Y-70200000D02*
X55660000Y-67000000D01*
X45077600Y-39777600D02*
X46800000Y-41500000D01*
X46800000Y-43050000D02*
X46800000Y-41500000D01*
X55660000Y-51910000D02*
X53000000Y-49250000D01*
X51950000Y-6950000D02*
X45077600Y-13822400D01*
X55660000Y-67000000D02*
X55660000Y-51910000D01*
X54047500Y-71812500D02*
X55660000Y-70200000D01*
X45077600Y-13822400D02*
X45077600Y-39777600D01*
X54047500Y-81467500D02*
X54047500Y-71812500D01*
%TO.N,GPIO23*%
D28*
X19354700Y-32715100D02*
X21389600Y-34750000D01*
X21389600Y-34750000D02*
X23300000Y-34750000D01*
X2230000Y-26150000D02*
X3500000Y-27420000D01*
X14829700Y-27420000D02*
X19354700Y-31945000D01*
X3500000Y-27420000D02*
X14829700Y-27420000D01*
X23300000Y-34750000D02*
X25740000Y-37190000D01*
X19354700Y-31945000D02*
X19354700Y-32715100D01*
%TO.N,S_SCALA*%
X41500000Y-46080000D02*
X39424800Y-44004800D01*
X39424800Y-11124800D02*
X35250000Y-6950000D01*
X39424800Y-44004800D02*
X39424800Y-11124800D01*
%TO.N,ACC*%
D26*
X43489300Y-68189300D02*
X45500000Y-70200000D01*
X46950000Y-6950000D02*
X43489300Y-10410700D01*
X43489300Y-10410700D02*
X43489300Y-68189300D01*
%TO.N,S_SP-D*%
D28*
X48090500Y-5590500D02*
X43587600Y-5590500D01*
X42805800Y-6372300D02*
X42805800Y-50774200D01*
X43587600Y-5590500D02*
X42805800Y-6372300D01*
X49450000Y-6950000D02*
X48090500Y-5590500D01*
X42805800Y-50774200D02*
X35000000Y-58580000D01*
%TO.N,SCL*%
X48423100Y-15271100D02*
X46809600Y-13657600D01*
X53000000Y-34500000D02*
X48423100Y-29923100D01*
X48423100Y-29923100D02*
X48423100Y-15271100D01*
%TO.N,GPIO4*%
X53870100Y-16749800D02*
X54336500Y-17216200D01*
X54336500Y-35663500D02*
X53000000Y-37000000D01*
X54336500Y-17216200D02*
X54336500Y-35663500D01*
%TO.N,SDA*%
X4770000Y-10910000D02*
X6075400Y-12215400D01*
X48902900Y-27902900D02*
X48902900Y-13609700D01*
X53000000Y-32000000D02*
X48902900Y-27902900D01*
X6075400Y-22375400D02*
X7310000Y-23610000D01*
X6075400Y-12215400D02*
X6075400Y-22375400D01*
%TO.N,+5V*%
D26*
X44498400Y-12518100D02*
X44273600Y-12742900D01*
X7310000Y-26150000D02*
X8611700Y-24848300D01*
X44273600Y-43023600D02*
X53000000Y-51750000D01*
X8611700Y-10023500D02*
X5602200Y-7014000D01*
X5602200Y-7014000D02*
X3586000Y-7014000D01*
X8611700Y-24848300D02*
X8611700Y-10023500D01*
X2230000Y-10910000D02*
X2230000Y-8370000D01*
X44273600Y-12742900D02*
X44273600Y-43023600D01*
X3586000Y-7014000D02*
X2230000Y-8370000D01*
%TO.N,3V3*%
D28*
X50117500Y-26617500D02*
X53000000Y-29500000D01*
X50117500Y-16749800D02*
X50117500Y-26617500D01*
%TO.N,GPIO8*%
X7310000Y-40119999D02*
X7310000Y-41389999D01*
X2230000Y-36309999D02*
X3500000Y-37579999D01*
X3500000Y-37579999D02*
X3500000Y-40119999D01*
X3500000Y-40119999D02*
X7310000Y-40119999D01*
%TO.N,S_HPHEAT*%
X31423600Y-6091200D02*
X31423600Y-9293400D01*
X36126700Y-13996500D02*
X36126700Y-54153300D01*
X31879200Y-5635600D02*
X31423600Y-6091200D01*
X36435600Y-5635600D02*
X31879200Y-5635600D01*
X31423600Y-9293400D02*
X36126700Y-13996500D01*
X36126700Y-54153300D02*
X31700000Y-58580000D01*
X37750000Y-6950000D02*
X36435600Y-5635600D01*
%TO.N,S_DHW*%
X33421000Y-13565200D02*
X30369900Y-10514100D01*
X30369900Y-10514100D02*
X30369900Y-6857800D01*
X33421000Y-31998900D02*
X33421000Y-13565200D01*
X35000000Y-33580000D02*
X35000000Y-33577900D01*
X29085500Y-5573400D02*
X13226600Y-5573400D01*
X35000000Y-33577900D02*
X33421000Y-31998900D01*
X13226600Y-5573400D02*
X11850000Y-6950000D01*
X30369900Y-6857800D02*
X29085500Y-5573400D01*
%TO.N,S_DEHUM*%
X32750000Y-6950000D02*
X36615800Y-10815800D01*
X36615800Y-10815800D02*
X36615800Y-44445800D01*
X36615800Y-44445800D02*
X38250000Y-46080000D01*
%TO.N,S_ZV*%
X31700000Y-26671500D02*
X31700000Y-33580000D01*
X30453500Y-25425000D02*
X31700000Y-26671500D01*
X30453500Y-24408600D02*
X30453500Y-25425000D01*
X27217600Y-11826100D02*
X30003300Y-14611800D01*
X30003300Y-23958400D02*
X30453500Y-24408600D01*
X30003300Y-14611800D02*
X30003300Y-23958400D01*
%TO.N,S_BLR*%
X38250000Y-33580000D02*
X37104900Y-32434900D01*
X37104900Y-12121800D02*
X37404600Y-11822100D01*
X37104900Y-32434900D02*
X37104900Y-12121800D01*
%TO.N,S_CHIL*%
X26974700Y-13249600D02*
X26974700Y-26981100D01*
X21050000Y-7324900D02*
X26974700Y-13249600D01*
X29448300Y-29454700D02*
X29448300Y-34750000D01*
X26974700Y-26981100D02*
X29448300Y-29454700D01*
X21050000Y-6950000D02*
X21050000Y-7324900D01*
%TO.N,S_BOS1*%
X30230000Y-25840400D02*
X30230000Y-44610000D01*
X30230000Y-44610000D02*
X31700000Y-46080000D01*
X26922500Y-12552800D02*
X28136300Y-13766600D01*
X23550000Y-6950000D02*
X26490900Y-9890900D01*
X29778400Y-24372300D02*
X29778400Y-25388800D01*
X26490900Y-9890900D02*
X26490900Y-12127000D01*
X28136300Y-22730200D02*
X29778400Y-24372300D01*
X29778400Y-25388800D02*
X30230000Y-25840400D01*
X26916700Y-12552800D02*
X26922500Y-12552800D01*
X28136300Y-13766600D02*
X28136300Y-22730200D01*
X26490900Y-12127000D02*
X26916700Y-12552800D01*
%TO.N,S_BOS2*%
X32825200Y-32041900D02*
X33350000Y-32566700D01*
X30455000Y-23771300D02*
X32825200Y-26141500D01*
X30455000Y-11355000D02*
X30455000Y-23771300D01*
X26050000Y-6950000D02*
X30455000Y-11355000D01*
X32825200Y-26141500D02*
X32825200Y-32041900D01*
X33350000Y-32566700D02*
X33350000Y-44430000D01*
X33350000Y-44430000D02*
X35000000Y-46080000D01*
%TO.N,S_SP-E*%
X44500000Y-81316900D02*
X44500000Y-79378500D01*
X41500000Y-76378500D02*
X41500000Y-58580000D01*
X48556600Y-80825900D02*
X47091900Y-82290600D01*
X44500000Y-79378500D02*
X41500000Y-76378500D01*
X45473700Y-82290600D02*
X44500000Y-81316900D01*
X50865900Y-80825900D02*
X48556600Y-80825900D01*
X47091900Y-82290600D02*
X45473700Y-82290600D01*
X52040000Y-82000000D02*
X50865900Y-80825900D01*
%TO.N,S_SP-C*%
X48743300Y-82756700D02*
X42922500Y-82756700D01*
X41723300Y-81557500D02*
X41723300Y-79304400D01*
X49500000Y-82000000D02*
X48743300Y-82756700D01*
X42922500Y-82756700D02*
X41723300Y-81557500D01*
X41723300Y-79304400D02*
X38250000Y-75831100D01*
X38250000Y-75831100D02*
X38250000Y-58580000D01*
%TO.N,GPIO16*%
X22689400Y-52740600D02*
X3420600Y-52740600D01*
X25740000Y-49690000D02*
X22689400Y-52740600D01*
X3420600Y-52740600D02*
X2230000Y-51550000D01*
%TO.N,GPIO19*%
X13720000Y-51550000D02*
X4770000Y-51550000D01*
X15580000Y-49690000D02*
X13720000Y-51550000D01*
%TO.N,GPIO24*%
X11714500Y-48475500D02*
X10500000Y-49690000D01*
X11714500Y-31497400D02*
X11714500Y-48475500D01*
X2230000Y-28690000D02*
X3528900Y-29988900D01*
X10206000Y-29988900D02*
X11714500Y-31497400D01*
X3528900Y-29988900D02*
X10206000Y-29988900D01*
%TD*%
D29*
X47424700Y-35871500D03*
X51534300Y-53224600D03*
X52460000Y-13966200D03*
X46809600Y-13657600D03*
X53870100Y-16749800D03*
X48902900Y-13609700D03*
X44498400Y-12518100D03*
X50117500Y-16749800D03*
X27217600Y-11826100D03*
X37404600Y-11822100D03*
X29448300Y-34750000D03*
X46000000Y-81000000D03*
X45500000Y-73400000D03*
X55660000Y-73400000D03*
X52460000Y-25500000D03*
X57540000Y-25500000D03*
X40000000Y-81000000D03*
X43000000Y-81000000D03*
X10500000Y-32310000D03*
X13040000Y-32310000D03*
X15580000Y-32310000D03*
X18120000Y-32310000D03*
X20660000Y-32310000D03*
X23200000Y-32310000D03*
X25740000Y-32310000D03*
X28280000Y-32310000D03*
X28280000Y-24690000D03*
X25740000Y-24690000D03*
X23200000Y-24690000D03*
X20660000Y-24690000D03*
X18120000Y-24690000D03*
X15580000Y-24690000D03*
X13040000Y-24690000D03*
X10500000Y-24690000D03*
X10500000Y-44810000D03*
X13040000Y-44810000D03*
X15580000Y-44810000D03*
X18120000Y-44810000D03*
X20660000Y-44810000D03*
X23200000Y-44810000D03*
X25740000Y-44810000D03*
X28280000Y-44810000D03*
X28280000Y-37190000D03*
X25740000Y-37190000D03*
X23200000Y-37190000D03*
X20660000Y-37190000D03*
X18120000Y-37190000D03*
X15580000Y-37190000D03*
X13040000Y-37190000D03*
X10500000Y-37190000D03*
X41500000Y-35920000D03*
X41500000Y-46080000D03*
X44450000Y-6950000D03*
X46950000Y-6950000D03*
X49450000Y-6950000D03*
X51950000Y-6950000D03*
X46800000Y-16500000D03*
X46800000Y-41500000D03*
X7310000Y-13450000D03*
X7310000Y-15990000D03*
X7310000Y-18530000D03*
X7310000Y-21070000D03*
X7310000Y-23610000D03*
X7310000Y-26150000D03*
X7310000Y-28690000D03*
X7310000Y-31230000D03*
X7310000Y-33770000D03*
X7310000Y-36310000D03*
X7310000Y-38850000D03*
X7310000Y-41390000D03*
X7310000Y-43930000D03*
X7310000Y-49010000D03*
X7310000Y-54090000D03*
X7310000Y-56630000D03*
X45500000Y-70200000D03*
X55660000Y-70200000D03*
X31700000Y-48420000D03*
X31700000Y-58580000D03*
X45500000Y-67000000D03*
X55660000Y-67000000D03*
X53000000Y-29500000D03*
X53000000Y-32000000D03*
X53000000Y-34500000D03*
X53000000Y-37000000D03*
X53000000Y-39500000D03*
X35000000Y-23420000D03*
X35000000Y-33580000D03*
X38250000Y-35920000D03*
X38250000Y-46080000D03*
X9350000Y-6950000D03*
X11850000Y-6950000D03*
X14350000Y-6950000D03*
X16850000Y-6950000D03*
X53000000Y-46750000D03*
X53000000Y-49250000D03*
X53000000Y-51750000D03*
X53000000Y-54250000D03*
X21050000Y-6950000D03*
X23550000Y-6950000D03*
X26050000Y-6950000D03*
X28550000Y-6950000D03*
X38250000Y-23420000D03*
X38250000Y-33580000D03*
X41500000Y-48420000D03*
X41500000Y-58580000D03*
X31700000Y-35920000D03*
X31700000Y-46080000D03*
X32750000Y-6950000D03*
X35250000Y-6950000D03*
X37750000Y-6950000D03*
X40250000Y-6950000D03*
X49500000Y-82000000D03*
X52040000Y-82000000D03*
X54580000Y-82000000D03*
X35000000Y-48420000D03*
X35000000Y-58580000D03*
X45500000Y-76600000D03*
X55660000Y-76600000D03*
X31700000Y-23420000D03*
X31700000Y-33580000D03*
X41500000Y-23420000D03*
X41500000Y-33580000D03*
X10500000Y-57310000D03*
X13040000Y-57310000D03*
X15580000Y-57310000D03*
X18120000Y-57310000D03*
X20660000Y-57310000D03*
X23200000Y-57310000D03*
X25740000Y-57310000D03*
X28280000Y-57310000D03*
X28280000Y-49690000D03*
X25740000Y-49690000D03*
X23200000Y-49690000D03*
X20660000Y-49690000D03*
X18120000Y-49690000D03*
X15580000Y-49690000D03*
X13040000Y-49690000D03*
X10500000Y-49690000D03*
X35000000Y-35920000D03*
X35000000Y-46080000D03*
X38250000Y-48420000D03*
X38250000Y-58580000D03*
X4770000Y-8370000D03*
X2230000Y-8370000D03*
X4770000Y-10910000D03*
X2230000Y-10910000D03*
X4770000Y-13450000D03*
X2230000Y-13450000D03*
X4770000Y-15990000D03*
X2230000Y-15990000D03*
X4770000Y-18530000D03*
X2230000Y-18530000D03*
X4770000Y-21070000D03*
X2230000Y-21070000D03*
X4770000Y-23610000D03*
X2230000Y-23610000D03*
X4770000Y-26150000D03*
X2230000Y-26150000D03*
X4770000Y-28690000D03*
X2230000Y-28690000D03*
X4770000Y-31230000D03*
X2230000Y-31230000D03*
X4770000Y-33770000D03*
X2230000Y-33770000D03*
X4770000Y-36310000D03*
X2230000Y-36310000D03*
X4770000Y-38850000D03*
X2230000Y-38850000D03*
X4770000Y-41390000D03*
X2230000Y-41390000D03*
X4770000Y-43930000D03*
X2230000Y-43930000D03*
X4770000Y-46470000D03*
X2230000Y-46470000D03*
X4770000Y-49010000D03*
X2230000Y-49010000D03*
X4770000Y-51550000D03*
X2230000Y-51550000D03*
X4770000Y-54090000D03*
X2230000Y-54090000D03*
X4770000Y-56630000D03*
X2230000Y-56630000D03*
M02*
