%TF.GenerationSoftware,KiCad,Pcbnew,10.0.6*%
%TF.CreationDate,2026-09-12T11:27:55-04:00*%
%TF.ProjectId,int-board,696e742d-626f-4617-9264-2e6b69636164,rev?*%
%TF.SameCoordinates,Original*%
%TF.FileFunction,Copper,L2,Bot*%
%TF.FilePolarity,Positive*%
%FSLAX46Y46*%
G04 Gerber Fmt 4.6, Leading zero omitted, Abs format (unit mm)*
G04 Created by KiCad (PCBNEW 10.0.6) date 2026-09-12 11:27:55*
%MOMM*%
%LPD*%
G01*
G04 APERTURE LIST*
G04 Aperture macros list*
%AMRoundRect*
0 Rectangle with rounded corners*
0 $1 Rounding radius*
0 $2 $3 $4 $5 $6 $7 $8 $9 X,Y pos of 4 corners*
0 Add a 4 corners polygon primitive as box body*
4,1,4,$2,$3,$4,$5,$6,$7,$8,$9,$2,$3,0*
0 Add four circle primitives for the rounded corners*
1,1,$1+$1,$2,$3*
1,1,$1+$1,$4,$5*
1,1,$1+$1,$6,$7*
1,1,$1+$1,$8,$9*
0 Add four rect primitives between the rounded corners*
20,1,$1+$1,$2,$3,$4,$5,0*
20,1,$1+$1,$4,$5,$6,$7,0*
20,1,$1+$1,$6,$7,$8,$9,0*
20,1,$1+$1,$8,$9,$2,$3,0*%
G04 Aperture macros list end*
%TA.AperFunction,ComponentPad*%
%ADD10C,1.600000*%
%TD*%
%TA.AperFunction,ComponentPad*%
%ADD11RoundRect,0.487500X-0.487500X-0.487500X0.487500X-0.487500X0.487500X0.487500X-0.487500X0.487500X0*%
%TD*%
%TA.AperFunction,ComponentPad*%
%ADD12C,1.950000*%
%TD*%
%TA.AperFunction,ComponentPad*%
%ADD13RoundRect,0.487500X0.487500X0.487500X-0.487500X0.487500X-0.487500X-0.487500X0.487500X-0.487500X0*%
%TD*%
%TA.AperFunction,ComponentPad*%
%ADD14C,1.800000*%
%TD*%
%TA.AperFunction,ComponentPad*%
%ADD15RoundRect,0.249999X-0.850001X-0.850001X0.850001X-0.850001X0.850001X0.850001X-0.850001X0.850001X0*%
%TD*%
%TA.AperFunction,ComponentPad*%
%ADD16C,2.200000*%
%TD*%
%TA.AperFunction,ComponentPad*%
%ADD17RoundRect,0.250000X0.550000X-0.550000X0.550000X0.550000X-0.550000X0.550000X-0.550000X-0.550000X0*%
%TD*%
%TA.AperFunction,ComponentPad*%
%ADD18RoundRect,0.250000X-0.750000X-0.750000X0.750000X-0.750000X0.750000X0.750000X-0.750000X0.750000X0*%
%TD*%
%TA.AperFunction,ComponentPad*%
%ADD19C,2.000000*%
%TD*%
%TA.AperFunction,ComponentPad*%
%ADD20RoundRect,0.450000X0.450000X-0.450000X0.450000X0.450000X-0.450000X0.450000X-0.450000X-0.450000X0*%
%TD*%
%TA.AperFunction,ComponentPad*%
%ADD21RoundRect,0.400000X-0.400000X-0.400000X0.400000X-0.400000X0.400000X0.400000X-0.400000X0.400000X0*%
%TD*%
%TA.AperFunction,ComponentPad*%
%ADD22RoundRect,0.425000X-0.425000X-0.425000X0.425000X-0.425000X0.425000X0.425000X-0.425000X0.425000X0*%
%TD*%
%TA.AperFunction,ComponentPad*%
%ADD23C,1.700000*%
%TD*%
%TA.AperFunction,ViaPad*%
%ADD24C,0.800000*%
%TD*%
%TA.AperFunction,ViaPad*%
%ADD25C,1.000000*%
%TD*%
%TA.AperFunction,Conductor*%
%ADD26C,0.250000*%
%TD*%
%TA.AperFunction,Conductor*%
%ADD27C,0.500000*%
%TD*%
%ADD28C,0.350000*%
G04 APERTURE END LIST*
D10*
%TO.P,R9,1*%
%TO.N,K9*%
X32000000Y-48420000D03*
%TO.P,R9,2*%
%TO.N,S_HPHEAT*%
X32000000Y-58580000D03*
%TD*%
%TO.P,R6,1*%
%TO.N,K6*%
X36000000Y-35920000D03*
%TO.P,R6,2*%
%TO.N,S_BOS2*%
X36000000Y-46080000D03*
%TD*%
D11*
%TO.P,J2,1*%
%TO.N,S_CHIL*%
X21050000Y-6950000D03*
D12*
%TO.P,J2,2*%
%TO.N,S_BOS1*%
X23550000Y-6950000D03*
%TO.P,J2,3*%
%TO.N,S_BOS2*%
X26050000Y-6950000D03*
%TO.P,J2,4*%
%TO.N,COM*%
X28550000Y-6950000D03*
%TD*%
D13*
%TO.P,J6,1*%
%TO.N,3V3*%
X18000000Y-78000000D03*
D12*
%TO.P,J6,2*%
%TO.N,SDA*%
X15500000Y-78000000D03*
%TO.P,J6,3*%
%TO.N,SCL*%
X13000000Y-78000000D03*
%TO.P,J6,4*%
%TO.N,GPIO4*%
X10500000Y-78000000D03*
%TO.P,J6,5*%
%TO.N,GND*%
X8000000Y-78000000D03*
%TD*%
D14*
%TO.P,TP3,1*%
%TO.N,GND*%
X55000000Y-47000000D03*
%TD*%
D15*
%TO.P,D1,1*%
%TO.N,VS*%
X32500000Y-67000000D03*
D16*
%TO.P,D1,2*%
%TO.N,ACF*%
X42660000Y-67000000D03*
%TD*%
D17*
%TO.P,U3,1*%
%TO.N,VS*%
X10500000Y-57310000D03*
D10*
%TO.P,U3,2*%
%TO.N,K9*%
X13040000Y-57310000D03*
%TO.P,U3,3*%
%TO.N,VS*%
X15580000Y-57310000D03*
%TO.P,U3,4*%
%TO.N,K10*%
X18120000Y-57310000D03*
%TO.P,U3,5*%
%TO.N,VS*%
X20660000Y-57310000D03*
%TO.P,U3,6*%
%TO.N,K11*%
X23200000Y-57310000D03*
%TO.P,U3,7*%
%TO.N,VS*%
X25740000Y-57310000D03*
%TO.P,U3,8*%
%TO.N,K12*%
X28280000Y-57310000D03*
%TO.P,U3,9*%
%TO.N,GND*%
X28280000Y-49690000D03*
%TO.P,U3,10*%
%TO.N,GPIO16*%
X25740000Y-49690000D03*
%TO.P,U3,11*%
%TO.N,GND*%
X23200000Y-49690000D03*
%TO.P,U3,12*%
%TO.N,GPIO13*%
X20660000Y-49690000D03*
%TO.P,U3,13*%
%TO.N,GND*%
X18120000Y-49690000D03*
%TO.P,U3,14*%
%TO.N,GPIO19*%
X15580000Y-49690000D03*
%TO.P,U3,15*%
%TO.N,GND*%
X13040000Y-49690000D03*
%TO.P,U3,16*%
%TO.N,GPIO24*%
X10500000Y-49690000D03*
%TD*%
D15*
%TO.P,D3,1*%
%TO.N,ACF*%
X45500000Y-67000000D03*
D16*
%TO.P,D3,2*%
%TO.N,COM*%
X55660000Y-67000000D03*
%TD*%
D10*
%TO.P,R12,1*%
%TO.N,K12*%
X44000000Y-48420000D03*
%TO.P,R12,2*%
%TO.N,S_SP-E*%
X44000000Y-58580000D03*
%TD*%
%TO.P,R1,1*%
%TO.N,K1*%
X32000000Y-23420000D03*
%TO.P,R1,2*%
%TO.N,S_ZV*%
X32000000Y-33580000D03*
%TD*%
%TO.P,PF1,1*%
%TO.N,N/C*%
X34000000Y-74500000D03*
%TO.P,PF1,2*%
X36540000Y-74500000D03*
%TO.P,PF1,3*%
X39080000Y-74500000D03*
%TO.P,PF1,4*%
X41620000Y-74500000D03*
%TO.P,PF1,5*%
X44160000Y-74500000D03*
%TO.P,PF1,6*%
X46700000Y-74500000D03*
%TO.P,PF1,7*%
X49240000Y-74500000D03*
%TO.P,PF1,8*%
X51780000Y-74500000D03*
%TO.P,PF1,9*%
X54320000Y-74500000D03*
%TO.P,PF1,10*%
X34000000Y-77040000D03*
%TO.P,PF1,11*%
X36540000Y-77040000D03*
%TO.P,PF1,12*%
X39080000Y-77040000D03*
%TO.P,PF1,13*%
X41620000Y-77040000D03*
%TO.P,PF1,14*%
X44160000Y-77040000D03*
%TO.P,PF1,15*%
X46700000Y-77040000D03*
%TO.P,PF1,16*%
X49240000Y-77040000D03*
%TO.P,PF1,17*%
X51780000Y-77040000D03*
%TO.P,PF1,18*%
X54320000Y-77040000D03*
%TO.P,PF1,19*%
X34000000Y-79580000D03*
%TO.P,PF1,20*%
X36540000Y-79580000D03*
%TO.P,PF1,21*%
X39080000Y-79580000D03*
%TO.P,PF1,22*%
X41620000Y-79580000D03*
%TO.P,PF1,23*%
X44160000Y-79580000D03*
%TO.P,PF1,24*%
X46700000Y-79580000D03*
%TO.P,PF1,25*%
X49240000Y-79580000D03*
%TO.P,PF1,26*%
X51780000Y-79580000D03*
%TO.P,PF1,27*%
X54320000Y-79580000D03*
%TO.P,PF1,28*%
X34000000Y-82120000D03*
%TO.P,PF1,29*%
X36540000Y-82120000D03*
%TO.P,PF1,30*%
X39080000Y-82120000D03*
%TO.P,PF1,31*%
X41620000Y-82120000D03*
%TO.P,PF1,32*%
X44160000Y-82120000D03*
%TO.P,PF1,33*%
X46700000Y-82120000D03*
%TO.P,PF1,34*%
X49240000Y-82120000D03*
%TO.P,PF1,35*%
X51780000Y-82120000D03*
%TO.P,PF1,36*%
X54320000Y-82120000D03*
%TD*%
%TO.P,R10,1*%
%TO.N,K10*%
X36000000Y-48420000D03*
%TO.P,R10,2*%
%TO.N,S_SP-D*%
X36000000Y-58580000D03*
%TD*%
D14*
%TO.P,TP1,1*%
%TO.N,VS*%
X55000000Y-41000000D03*
%TD*%
D15*
%TO.P,D2,1*%
%TO.N,VS*%
X32500000Y-70200000D03*
D16*
%TO.P,D2,2*%
%TO.N,ACC*%
X42660000Y-70200000D03*
%TD*%
D13*
%TO.P,J7,1*%
%TO.N,VS*%
X29950000Y-78000000D03*
D12*
%TO.P,J7,2*%
%TO.N,COM*%
X27450000Y-78000000D03*
%TO.P,J7,3*%
%TO.N,+5V*%
X24950000Y-78000000D03*
%TO.P,J7,4*%
%TO.N,GND*%
X22450000Y-78000000D03*
%TD*%
D10*
%TO.P,R7,1*%
%TO.N,K7*%
X40000000Y-35920000D03*
%TO.P,R7,2*%
%TO.N,S_DEHUM*%
X40000000Y-46080000D03*
%TD*%
D11*
%TO.P,J1,1*%
%TO.N,S_ZV*%
X9350000Y-6950000D03*
D12*
%TO.P,J1,2*%
%TO.N,S_DHW*%
X11850000Y-6950000D03*
%TO.P,J1,3*%
%TO.N,S_BLR*%
X14350000Y-6950000D03*
%TO.P,J1,4*%
%TO.N,COM*%
X16850000Y-6950000D03*
%TD*%
D11*
%TO.P,J3,1*%
%TO.N,S_DEHUM*%
X32750000Y-6950000D03*
D12*
%TO.P,J3,2*%
%TO.N,S_SCALA*%
X35250000Y-6950000D03*
%TO.P,J3,3*%
%TO.N,S_HPHEAT*%
X37750000Y-6950000D03*
%TO.P,J3,4*%
%TO.N,COM*%
X40250000Y-6950000D03*
%TD*%
D10*
%TO.P,R3,1*%
%TO.N,K3*%
X40000000Y-23420000D03*
%TO.P,R3,2*%
%TO.N,S_BLR*%
X40000000Y-33580000D03*
%TD*%
%TO.P,R11,1*%
%TO.N,K11*%
X40000000Y-48420000D03*
%TO.P,R11,2*%
%TO.N,S_SP-C*%
X40000000Y-58580000D03*
%TD*%
D18*
%TO.P,C1,1*%
%TO.N,VS*%
X19000000Y-70000000D03*
D19*
%TO.P,C1,2*%
%TO.N,COM*%
X24000000Y-70000000D03*
%TD*%
D17*
%TO.P,U1,1*%
%TO.N,VS*%
X10500000Y-32310000D03*
D10*
%TO.P,U1,2*%
%TO.N,K1*%
X13040000Y-32310000D03*
%TO.P,U1,3*%
%TO.N,VS*%
X15580000Y-32310000D03*
%TO.P,U1,4*%
%TO.N,K2*%
X18120000Y-32310000D03*
%TO.P,U1,5*%
%TO.N,VS*%
X20660000Y-32310000D03*
%TO.P,U1,6*%
%TO.N,K3*%
X23200000Y-32310000D03*
%TO.P,U1,7*%
%TO.N,VS*%
X25740000Y-32310000D03*
%TO.P,U1,8*%
%TO.N,K4*%
X28280000Y-32310000D03*
%TO.P,U1,9*%
%TO.N,GND*%
X28280000Y-24690000D03*
%TO.P,U1,10*%
%TO.N,GPIO25*%
X25740000Y-24690000D03*
%TO.P,U1,11*%
%TO.N,GND*%
X23200000Y-24690000D03*
%TO.P,U1,12*%
%TO.N,GPIO22*%
X20660000Y-24690000D03*
%TO.P,U1,13*%
%TO.N,GND*%
X18120000Y-24690000D03*
%TO.P,U1,14*%
%TO.N,GPIO27*%
X15580000Y-24690000D03*
%TO.P,U1,15*%
%TO.N,GND*%
X13040000Y-24690000D03*
%TO.P,U1,16*%
%TO.N,GPIO17*%
X10500000Y-24690000D03*
%TD*%
D15*
%TO.P,D4,1*%
%TO.N,ACC*%
X45500000Y-70200000D03*
D16*
%TO.P,D4,2*%
%TO.N,COM*%
X55660000Y-70200000D03*
%TD*%
D11*
%TO.P,J4,1*%
%TO.N,ACR*%
X44450000Y-6950000D03*
D12*
%TO.P,J4,2*%
%TO.N,ACC*%
X46950000Y-6950000D03*
%TO.P,J4,3*%
%TO.N,S_SP-D*%
X49450000Y-6950000D03*
%TO.P,J4,4*%
%TO.N,COM*%
X51950000Y-6950000D03*
%TD*%
D10*
%TO.P,R8,1*%
%TO.N,K8*%
X44000000Y-35920000D03*
%TO.P,R8,2*%
%TO.N,S_SCALA*%
X44000000Y-46080000D03*
%TD*%
D20*
%TO.P,F1,1*%
%TO.N,ACR*%
X55000000Y-28540000D03*
D14*
%TO.P,F1,2*%
%TO.N,ACF*%
X55000000Y-23460000D03*
%TD*%
D10*
%TO.P,R4,1*%
%TO.N,K4*%
X44000000Y-23420000D03*
%TO.P,R4,2*%
%TO.N,S_CHIL*%
X44000000Y-33580000D03*
%TD*%
D17*
%TO.P,U2,1*%
%TO.N,VS*%
X10500000Y-44810000D03*
D10*
%TO.P,U2,2*%
%TO.N,K5*%
X13040000Y-44810000D03*
%TO.P,U2,3*%
%TO.N,VS*%
X15580000Y-44810000D03*
%TO.P,U2,4*%
%TO.N,K6*%
X18120000Y-44810000D03*
%TO.P,U2,5*%
%TO.N,VS*%
X20660000Y-44810000D03*
%TO.P,U2,6*%
%TO.N,K7*%
X23200000Y-44810000D03*
%TO.P,U2,7*%
%TO.N,VS*%
X25740000Y-44810000D03*
%TO.P,U2,8*%
%TO.N,K8*%
X28280000Y-44810000D03*
%TO.P,U2,9*%
%TO.N,GND*%
X28280000Y-37190000D03*
%TO.P,U2,10*%
%TO.N,GPIO23*%
X25740000Y-37190000D03*
%TO.P,U2,11*%
%TO.N,GND*%
X23200000Y-37190000D03*
%TO.P,U2,12*%
%TO.N,GPIO12*%
X20660000Y-37190000D03*
%TO.P,U2,13*%
%TO.N,GND*%
X18120000Y-37190000D03*
%TO.P,U2,14*%
%TO.N,GPIO5*%
X15580000Y-37190000D03*
%TO.P,U2,15*%
%TO.N,GND*%
X13040000Y-37190000D03*
%TO.P,U2,16*%
%TO.N,GPIO6*%
X10500000Y-37190000D03*
%TD*%
D21*
%TO.P,J8,1*%
%TO.N,S_SP-C*%
X55000000Y-52500000D03*
D10*
%TO.P,J8,2*%
%TO.N,S_SP-E*%
X55000000Y-55040000D03*
%TO.P,J8,3*%
%TO.N,COM*%
X55000000Y-57580000D03*
%TD*%
D14*
%TO.P,TP2,1*%
%TO.N,COM*%
X55000000Y-44000000D03*
%TD*%
D10*
%TO.P,J9,3*%
%TO.N,SCL*%
X7310000Y-13450000D03*
%TO.P,J9,4*%
%TO.N,GPIO4*%
X7310000Y-15990000D03*
%TO.P,J9,5*%
%TO.N,GND*%
X7310000Y-18530000D03*
%TO.P,J9,6*%
%TO.N,GPIO18*%
X7310000Y-21070000D03*
%TO.P,J9,7*%
%TO.N,SDA*%
X7310000Y-23610000D03*
%TO.P,J9,8*%
%TO.N,+5V*%
X7310000Y-26150000D03*
%TO.P,J9,9*%
%TO.N,3V3*%
X7310000Y-28690000D03*
%TO.P,J9,10*%
%TO.N,GPIO10*%
X7310000Y-31230000D03*
%TO.P,J9,11*%
%TO.N,GPIO9*%
X7310000Y-33770000D03*
%TO.P,J9,12*%
%TO.N,GPIO11*%
X7310000Y-36310000D03*
%TO.P,J9,13*%
%TO.N,GPIO7*%
X7310000Y-38850000D03*
%TO.P,J9,14*%
%TO.N,GPIO8*%
X7310000Y-41390000D03*
%TO.P,J9,15*%
%TO.N,GND*%
X7310000Y-43930000D03*
%TO.P,J9,17*%
X7310000Y-49010000D03*
%TO.P,J9,19*%
%TO.N,GPIO20*%
X7310000Y-54090000D03*
%TO.P,J9,20*%
%TO.N,GPIO21*%
X7310000Y-56630000D03*
%TD*%
%TO.P,R2,1*%
%TO.N,K2*%
X36000000Y-23420000D03*
%TO.P,R2,2*%
%TO.N,S_DHW*%
X36000000Y-33580000D03*
%TD*%
D20*
%TO.P,RV1,1*%
%TO.N,ACF*%
X55000000Y-37000000D03*
D14*
%TO.P,RV1,2*%
%TO.N,ACC*%
X55000000Y-32000000D03*
%TD*%
D10*
%TO.P,R5,1*%
%TO.N,K5*%
X32000000Y-35920000D03*
%TO.P,R5,2*%
%TO.N,S_BOS1*%
X32000000Y-46080000D03*
%TD*%
D22*
%TO.P,J5,1*%
%TO.N,3V3*%
X4770000Y-8370000D03*
D23*
%TO.P,J5,2*%
%TO.N,+5V*%
X2230000Y-8370000D03*
%TO.P,J5,3*%
%TO.N,SDA*%
X4770000Y-10910000D03*
%TO.P,J5,4*%
%TO.N,+5V*%
X2230000Y-10910000D03*
%TO.P,J5,5*%
%TO.N,SCL*%
X4770000Y-13450000D03*
%TO.P,J5,6*%
%TO.N,GND*%
X2230000Y-13450000D03*
%TO.P,J5,7*%
%TO.N,GPIO4*%
X4770000Y-15990000D03*
%TO.P,J5,8*%
%TO.N,N/C*%
X2230000Y-15990000D03*
%TO.P,J5,9*%
%TO.N,GND*%
X4770000Y-18530000D03*
%TO.P,J5,10*%
%TO.N,N/C*%
X2230000Y-18530000D03*
%TO.P,J5,11*%
%TO.N,GPIO17*%
X4770000Y-21070000D03*
%TO.P,J5,12*%
%TO.N,GPIO18*%
X2230000Y-21070000D03*
%TO.P,J5,13*%
%TO.N,GPIO27*%
X4770000Y-23610000D03*
%TO.P,J5,14*%
%TO.N,GND*%
X2230000Y-23610000D03*
%TO.P,J5,15*%
%TO.N,GPIO22*%
X4770000Y-26150000D03*
%TO.P,J5,16*%
%TO.N,GPIO23*%
X2230000Y-26150000D03*
%TO.P,J5,17*%
%TO.N,3V3*%
X4770000Y-28690000D03*
%TO.P,J5,18*%
%TO.N,GPIO24*%
X2230000Y-28690000D03*
%TO.P,J5,19*%
%TO.N,GPIO10*%
X4770000Y-31230000D03*
%TO.P,J5,20*%
%TO.N,GND*%
X2230000Y-31230000D03*
%TO.P,J5,21*%
%TO.N,GPIO9*%
X4770000Y-33770000D03*
%TO.P,J5,22*%
%TO.N,GPIO25*%
X2230000Y-33770000D03*
%TO.P,J5,23*%
%TO.N,GPIO11*%
X4770000Y-36310000D03*
%TO.P,J5,24*%
%TO.N,GPIO8*%
X2230000Y-36310000D03*
%TO.P,J5,25*%
%TO.N,N/C*%
X4770000Y-38850000D03*
%TO.P,J5,26*%
%TO.N,GPIO7*%
X2230000Y-38850000D03*
%TO.P,J5,27*%
%TO.N,N/C*%
X4770000Y-41390000D03*
%TO.P,J5,28*%
X2230000Y-41390000D03*
%TO.P,J5,29*%
%TO.N,GPIO5*%
X4770000Y-43930000D03*
%TO.P,J5,30*%
%TO.N,GND*%
X2230000Y-43930000D03*
%TO.P,J5,31*%
%TO.N,GPIO6*%
X4770000Y-46470000D03*
%TO.P,J5,32*%
%TO.N,GPIO12*%
X2230000Y-46470000D03*
%TO.P,J5,33*%
%TO.N,GPIO13*%
X4770000Y-49010000D03*
%TO.P,J5,34*%
%TO.N,GND*%
X2230000Y-49010000D03*
%TO.P,J5,35*%
%TO.N,GPIO19*%
X4770000Y-51550000D03*
%TO.P,J5,36*%
%TO.N,GPIO16*%
X2230000Y-51550000D03*
%TO.P,J5,37*%
%TO.N,N/C*%
X4770000Y-54090000D03*
%TO.P,J5,38*%
%TO.N,GPIO20*%
X2230000Y-54090000D03*
%TO.P,J5,39*%
%TO.N,N/C*%
X4770000Y-56630000D03*
%TO.P,J5,40*%
%TO.N,GPIO21*%
X2230000Y-56630000D03*
%TD*%
D24*
%TO.N,SCL*%
X31042600Y-32538100D03*
%TO.N,GPIO4*%
X9129000Y-39570700D03*
D25*
%TO.N,GND*%
X48092400Y-48329200D03*
D24*
%TO.N,GPIO24*%
X9676700Y-30208700D03*
X19475800Y-51923600D03*
D25*
%TO.N,ACC*%
X52374200Y-55922900D03*
D24*
%TO.N,S_BLR*%
X34952400Y-28532400D03*
%TO.N,GPIO5*%
X13655100Y-35723500D03*
%TD*%
%TO.N,K9*%
D26*
X16801700Y-53548300D02*
X13040000Y-57310000D01*
X26871700Y-53548300D02*
X16801700Y-53548300D01*
X32000000Y-48420000D02*
X26871700Y-53548300D01*
%TO.N,K6*%
X18120000Y-44810000D02*
X22836700Y-40093300D01*
X31826700Y-40093300D02*
X36000000Y-35920000D01*
X22836700Y-40093300D02*
X31826700Y-40093300D01*
%TO.N,COM*%
D27*
X30028600Y-5471400D02*
X28550000Y-6950000D01*
X24000000Y-70000000D02*
X25853400Y-71853400D01*
X53593700Y-45406300D02*
X55000000Y-44000000D01*
X16850000Y-6950000D02*
X18328600Y-5471400D01*
X27450000Y-71853400D02*
X54006600Y-71853400D01*
X38771400Y-5471400D02*
X30028600Y-5471400D01*
X53593700Y-56173700D02*
X53593700Y-45406300D01*
X41738000Y-5462000D02*
X40250000Y-6950000D01*
X51950000Y-6950000D02*
X50462000Y-5462000D01*
X40250000Y-6950000D02*
X38771400Y-5471400D01*
X55000000Y-57580000D02*
X53593700Y-56173700D01*
X18328600Y-5471400D02*
X27071400Y-5471400D01*
X27450000Y-71853400D02*
X27450000Y-78000000D01*
X25853400Y-71853400D02*
X27450000Y-71853400D01*
X50462000Y-5462000D02*
X41738000Y-5462000D01*
X27071400Y-5471400D02*
X28550000Y-6950000D01*
X54006600Y-71853400D02*
X55660000Y-70200000D01*
%TO.N,3V3*%
D26*
X3535400Y-18892700D02*
X3535400Y-9604600D01*
X4770000Y-28690000D02*
X3430200Y-27350200D01*
X1919400Y-19706700D02*
X2721400Y-19706700D01*
X2674200Y-24915300D02*
X1726300Y-24915300D01*
X3430200Y-27350200D02*
X3430200Y-25671300D01*
X1726300Y-24915300D02*
X973000Y-24162000D01*
X973000Y-24162000D02*
X973000Y-20653100D01*
X3430200Y-25671300D02*
X2674200Y-24915300D01*
X2721400Y-19706700D02*
X3535400Y-18892700D01*
X973000Y-20653100D02*
X1919400Y-19706700D01*
X3535400Y-9604600D02*
X4770000Y-8370000D01*
X7310000Y-28690000D02*
X4770000Y-28690000D01*
%TO.N,SCL*%
X9054800Y-44252700D02*
X9054800Y-44551700D01*
X7362100Y-45705300D02*
X5420700Y-47646700D01*
X30215700Y-36992000D02*
X28034200Y-39173500D01*
X9054800Y-44551700D02*
X7901200Y-45705300D01*
X7310000Y-13450000D02*
X4770000Y-13450000D01*
X995600Y-51081700D02*
X995600Y-65995600D01*
X2671300Y-50315300D02*
X1762000Y-50315300D01*
X995600Y-65995600D02*
X13000000Y-78000000D01*
X28034200Y-39173500D02*
X15733300Y-39173500D01*
X31042600Y-32538100D02*
X30215700Y-33365000D01*
X3465600Y-49521000D02*
X2671300Y-50315300D01*
X7901200Y-45705300D02*
X7362100Y-45705300D01*
X15733300Y-39173500D02*
X12463000Y-42443800D01*
X1762000Y-50315300D02*
X995600Y-51081700D01*
X10863700Y-42443800D02*
X9054800Y-44252700D01*
X3465600Y-48643200D02*
X3465600Y-49521000D01*
X12463000Y-42443800D02*
X10863700Y-42443800D01*
X30215700Y-33365000D02*
X30215700Y-36992000D01*
X4462100Y-47646700D02*
X3465600Y-48643200D01*
X5420700Y-47646700D02*
X4462100Y-47646700D01*
%TO.N,GPIO4*%
X4282600Y-40213300D02*
X3593300Y-40902600D01*
X515100Y-68015100D02*
X10500000Y-78000000D01*
X7310000Y-15990000D02*
X4770000Y-15990000D01*
X3593300Y-41755800D02*
X2782400Y-42566700D01*
X515100Y-43818300D02*
X515100Y-68015100D01*
X1766700Y-42566700D02*
X515100Y-43818300D01*
X3593300Y-40902600D02*
X3593300Y-41755800D01*
X8486400Y-40213300D02*
X4282600Y-40213300D01*
X2782400Y-42566700D02*
X1766700Y-42566700D01*
X9129000Y-39570700D02*
X8486400Y-40213300D01*
%TO.N,GND*%
D27*
X28280000Y-37190000D02*
X26967800Y-38502200D01*
X16816400Y-50993600D02*
X14343600Y-50993600D01*
X14808500Y-35884000D02*
X16814000Y-35884000D01*
X21898300Y-50991700D02*
X23200000Y-49690000D01*
X8633000Y-18364200D02*
X8467200Y-18530000D01*
X23200000Y-24690000D02*
X21896900Y-23386900D01*
X13040000Y-37190000D02*
X13502500Y-37190000D01*
X26967800Y-38502200D02*
X24512200Y-38502200D01*
X18120000Y-49690000D02*
X19421700Y-50991700D01*
X878300Y-7771700D02*
X1640400Y-7009600D01*
X13040000Y-38200000D02*
X13040000Y-37190000D01*
X27390700Y-48800600D02*
X31426900Y-44764400D01*
X18120000Y-49690000D02*
X16816400Y-50993600D01*
X16815700Y-23385700D02*
X18120000Y-24690000D01*
X23200000Y-24690000D02*
X24512900Y-23377100D01*
X4770000Y-18530000D02*
X7310000Y-18530000D01*
X1640400Y-7009600D02*
X5631000Y-7009600D01*
X31426900Y-44764400D02*
X44527600Y-44764400D01*
X13502500Y-37190000D02*
X14808500Y-35884000D01*
X19423100Y-23386900D02*
X18120000Y-24690000D01*
X24512200Y-38502200D02*
X23200000Y-37190000D01*
X8633000Y-10011600D02*
X8633000Y-18364200D01*
X24555200Y-48334800D02*
X26924800Y-48334800D01*
X14343600Y-50993600D02*
X13040000Y-49690000D01*
X8000000Y-78000000D02*
X9518600Y-79518600D01*
X8467200Y-18812900D02*
X13040000Y-23385700D01*
X21896900Y-23386900D02*
X19423100Y-23386900D01*
X16814000Y-35884000D02*
X18120000Y-37190000D01*
X18120000Y-37190000D02*
X19422600Y-35887400D01*
X20931400Y-79518600D02*
X22450000Y-78000000D01*
X9518600Y-79518600D02*
X20931400Y-79518600D01*
X2230000Y-13450000D02*
X878300Y-12098300D01*
X26967100Y-23377100D02*
X28280000Y-24690000D01*
X19421700Y-50991700D02*
X21898300Y-50991700D01*
X8467200Y-18530000D02*
X7310000Y-18530000D01*
X13040000Y-23385700D02*
X13040000Y-24690000D01*
X13040000Y-23385700D02*
X16815700Y-23385700D01*
X27390700Y-48800600D02*
X28280000Y-49690000D01*
X19422600Y-35887400D02*
X21897400Y-35887400D01*
X21897400Y-35887400D02*
X23200000Y-37190000D01*
X26924800Y-48334800D02*
X27390700Y-48800600D01*
X24512900Y-23377100D02*
X26967100Y-23377100D01*
X878300Y-12098300D02*
X878300Y-7771700D01*
X8467200Y-18530000D02*
X8467200Y-18812900D01*
X5631000Y-7009600D02*
X8633000Y-10011600D01*
X23200000Y-49690000D02*
X24555200Y-48334800D01*
X7310000Y-43930000D02*
X13040000Y-38200000D01*
X44527600Y-44764400D02*
X48092400Y-48329200D01*
%TO.N,VS*%
X14276300Y-46113700D02*
X11803700Y-46113700D01*
X20660000Y-57310000D02*
X19349700Y-55999700D01*
X21965800Y-33615800D02*
X20660000Y-32310000D01*
X10500000Y-57310000D02*
X11818500Y-58628500D01*
X16890400Y-46120400D02*
X15580000Y-44810000D01*
X15580000Y-44810000D02*
X14276300Y-46113700D01*
X20660000Y-44810000D02*
X19349600Y-46120400D01*
X19349700Y-55999700D02*
X16890300Y-55999700D01*
X25740000Y-32310000D02*
X24434200Y-33615800D01*
X21986800Y-46136800D02*
X20660000Y-44810000D01*
X16885800Y-33615800D02*
X15580000Y-32310000D01*
X24413200Y-46136800D02*
X21986800Y-46136800D01*
X19349600Y-46120400D02*
X16890400Y-46120400D01*
X14274200Y-33615800D02*
X11805800Y-33615800D01*
X24434200Y-33615800D02*
X21965800Y-33615800D01*
X11818500Y-58628500D02*
X14261500Y-58628500D01*
X19354200Y-33615800D02*
X16885800Y-33615800D01*
X14261500Y-58628500D02*
X15580000Y-57310000D01*
X11805800Y-33615800D02*
X10500000Y-32310000D01*
X25740000Y-44810000D02*
X24413200Y-46136800D01*
X15580000Y-32310000D02*
X14274200Y-33615800D01*
X22000000Y-67000000D02*
X32500000Y-67000000D01*
X16890300Y-55999700D02*
X15580000Y-57310000D01*
X19000000Y-70000000D02*
X22000000Y-67000000D01*
X11803700Y-46113700D02*
X10500000Y-44810000D01*
X20660000Y-32310000D02*
X19354200Y-33615800D01*
%TO.N,ACF*%
X45500000Y-67000000D02*
X42660000Y-67000000D01*
%TO.N,K10*%
D26*
X19321600Y-58511600D02*
X21189300Y-58511600D01*
X24642000Y-54225000D02*
X30195000Y-54225000D01*
X21965400Y-57735500D02*
X21965400Y-56901600D01*
X30195000Y-54225000D02*
X36000000Y-48420000D01*
X18120000Y-57310000D02*
X19321600Y-58511600D01*
X21189300Y-58511600D02*
X21965400Y-57735500D01*
X21965400Y-56901600D02*
X24642000Y-54225000D01*
%TO.N,K11*%
X23200000Y-57310000D02*
X25079600Y-55430400D01*
X32989600Y-55430400D02*
X40000000Y-48420000D01*
X25079600Y-55430400D02*
X32989600Y-55430400D01*
%TO.N,K12*%
X28280000Y-57310000D02*
X35110000Y-57310000D01*
X35110000Y-57310000D02*
X44000000Y-48420000D01*
%TO.N,GPIO16*%
X22699400Y-52730600D02*
X3410600Y-52730600D01*
X25740000Y-49690000D02*
X22699400Y-52730600D01*
X3410600Y-52730600D02*
X2230000Y-51550000D01*
%TO.N,GPIO13*%
X5955900Y-47824100D02*
X18794100Y-47824100D01*
X18794100Y-47824100D02*
X20660000Y-49690000D01*
X4770000Y-49010000D02*
X5955900Y-47824100D01*
%TO.N,GPIO19*%
X9567700Y-48513100D02*
X14403100Y-48513100D01*
X4770000Y-51550000D02*
X6530800Y-51550000D01*
X6530800Y-51550000D02*
X9567700Y-48513100D01*
X14403100Y-48513100D02*
X15580000Y-49690000D01*
%TO.N,GPIO24*%
X10500000Y-49690000D02*
X12733600Y-51923600D01*
X3500000Y-29960000D02*
X9428000Y-29960000D01*
X9428000Y-29960000D02*
X9676700Y-30208700D01*
X12733600Y-51923600D02*
X19475800Y-51923600D01*
X2230000Y-28690000D02*
X3500000Y-29960000D01*
%TO.N,K1*%
X16937500Y-28412500D02*
X13040000Y-32310000D01*
X25409000Y-27509100D02*
X24505600Y-28412500D01*
X24505600Y-28412500D02*
X16937500Y-28412500D01*
X27910900Y-27509100D02*
X25409000Y-27509100D01*
X32000000Y-23420000D02*
X27910900Y-27509100D01*
%TO.N,ACC*%
D27*
X52374200Y-34625800D02*
X52374200Y-55922900D01*
X55000000Y-32000000D02*
X52374200Y-34625800D01*
%TO.N,K7*%
D26*
X40000000Y-35920000D02*
X35324800Y-40595200D01*
X35324800Y-40595200D02*
X27414800Y-40595200D01*
X27414800Y-40595200D02*
X23200000Y-44810000D01*
%TO.N,S_BLR*%
X40000000Y-33580000D02*
X34952400Y-28532400D01*
%TO.N,K3*%
X23200000Y-32310000D02*
X25157700Y-30352300D01*
X35836300Y-25175000D02*
X38245000Y-25175000D01*
X30659000Y-30352300D02*
X35836300Y-25175000D01*
X25157700Y-30352300D02*
X30659000Y-30352300D01*
X38245000Y-25175000D02*
X40000000Y-23420000D01*
%TO.N,K2*%
X23130000Y-30651600D02*
X19778400Y-30651600D01*
X36000000Y-23420000D02*
X31421300Y-27998700D01*
X25782900Y-27998700D02*
X23130000Y-30651600D01*
X19778400Y-30651600D02*
X18120000Y-32310000D01*
X31421300Y-27998700D02*
X25782900Y-27998700D01*
%TO.N,K4*%
X41793300Y-25626700D02*
X44000000Y-23420000D01*
X36810300Y-25626700D02*
X41793300Y-25626700D01*
X28280000Y-32310000D02*
X30127000Y-32310000D01*
X30127000Y-32310000D02*
X36810300Y-25626700D01*
%TO.N,GPIO25*%
X9977700Y-30935400D02*
X13090000Y-27823100D01*
X9860600Y-30935400D02*
X9977700Y-30935400D01*
X13090000Y-27823100D02*
X22606900Y-27823100D01*
X2230000Y-33770000D02*
X3500000Y-32500000D01*
X8296000Y-32500000D02*
X9860600Y-30935400D01*
X22606900Y-27823100D02*
X25740000Y-24690000D01*
X3500000Y-32500000D02*
X8296000Y-32500000D01*
%TO.N,GPIO22*%
X17978600Y-27371400D02*
X5991400Y-27371400D01*
X5991400Y-27371400D02*
X4770000Y-26150000D01*
X20660000Y-24690000D02*
X17978600Y-27371400D01*
%TO.N,GPIO27*%
X6015000Y-24855000D02*
X4770000Y-23610000D01*
X14402200Y-25867800D02*
X9388200Y-25867800D01*
X9388200Y-25867800D02*
X8375400Y-24855000D01*
X15580000Y-24690000D02*
X14402200Y-25867800D01*
X8375400Y-24855000D02*
X6015000Y-24855000D01*
%TO.N,GPIO17*%
X6040000Y-22340000D02*
X8150000Y-22340000D01*
X8150000Y-22340000D02*
X10500000Y-24690000D01*
X4770000Y-21070000D02*
X6040000Y-22340000D01*
%TO.N,K8*%
X31735100Y-41354900D02*
X28280000Y-44810000D01*
X38565100Y-41354900D02*
X31735100Y-41354900D01*
X44000000Y-35920000D02*
X38565100Y-41354900D01*
%TO.N,K5*%
X28286600Y-39633400D02*
X32000000Y-35920000D01*
X18216600Y-39633400D02*
X28286600Y-39633400D01*
X13040000Y-44810000D02*
X18216600Y-39633400D01*
%TO.N,GPIO23*%
X962700Y-34167500D02*
X962700Y-27417300D01*
X25740000Y-37190000D02*
X23517200Y-34967200D01*
X962700Y-27417300D02*
X2230000Y-26150000D01*
X1762400Y-34967200D02*
X962700Y-34167500D01*
X23517200Y-34967200D02*
X1762400Y-34967200D01*
%TO.N,GPIO12*%
X2230000Y-46470000D02*
X3593300Y-45106700D01*
X14292600Y-38376100D02*
X19473900Y-38376100D01*
X7797400Y-45106700D02*
X8494300Y-44409800D01*
X3593300Y-45106700D02*
X7797400Y-45106700D01*
X8494300Y-44409800D02*
X8494300Y-44174400D01*
X19473900Y-38376100D02*
X20660000Y-37190000D01*
X8494300Y-44174400D02*
X14292600Y-38376100D01*
%TO.N,GPIO5*%
X11626700Y-36926200D02*
X12829400Y-35723500D01*
X6164600Y-42535400D02*
X7788200Y-42535400D01*
X4770000Y-43930000D02*
X6164600Y-42535400D01*
X11626700Y-38696900D02*
X11626700Y-36926200D01*
X7788200Y-42535400D02*
X11626700Y-38696900D01*
X12829400Y-35723500D02*
X13655100Y-35723500D01*
%TO.N,GPIO18*%
X2230000Y-21070000D02*
X3464700Y-19835300D01*
X3464700Y-19835300D02*
X6075300Y-19835300D01*
X6075300Y-19835300D02*
X7310000Y-21070000D01*
%TO.N,GPIO10*%
X4770000Y-31230000D02*
X7310000Y-31230000D01*
%TO.N,GPIO9*%
X4770000Y-33770000D02*
X7310000Y-33770000D01*
%TO.N,GPIO11*%
X4770000Y-36310000D02*
X7310000Y-36310000D01*
%TO.N,GPIO7*%
X3420600Y-37659400D02*
X6119400Y-37659400D01*
X2230000Y-38850000D02*
X3420600Y-37659400D01*
X6119400Y-37659400D02*
X7310000Y-38850000D01*
%TO.N,GPIO21*%
X3420600Y-55439400D02*
X6119400Y-55439400D01*
X6119400Y-55439400D02*
X7310000Y-56630000D01*
X2230000Y-56630000D02*
X3420600Y-55439400D01*
%TD*%
D28*
X31042600Y-32538100D03*
X9129000Y-39570700D03*
X48092400Y-48329200D03*
X9676700Y-30208700D03*
X19475800Y-51923600D03*
X52374200Y-55922900D03*
X34952400Y-28532400D03*
X13655100Y-35723500D03*
X32000000Y-48420000D03*
X32000000Y-58580000D03*
X36000000Y-35920000D03*
X36000000Y-46080000D03*
X21050000Y-6950000D03*
X23550000Y-6950000D03*
X26050000Y-6950000D03*
X28550000Y-6950000D03*
X18000000Y-78000000D03*
X15500000Y-78000000D03*
X13000000Y-78000000D03*
X10500000Y-78000000D03*
X8000000Y-78000000D03*
X55000000Y-47000000D03*
X32500000Y-67000000D03*
X42660000Y-67000000D03*
X10500000Y-57310000D03*
X13040000Y-57310000D03*
X15580000Y-57310000D03*
X18120000Y-57310000D03*
X20660000Y-57310000D03*
X23200000Y-57310000D03*
X25740000Y-57310000D03*
X28280000Y-57310000D03*
X28280000Y-49690000D03*
X25740000Y-49690000D03*
X23200000Y-49690000D03*
X20660000Y-49690000D03*
X18120000Y-49690000D03*
X15580000Y-49690000D03*
X13040000Y-49690000D03*
X10500000Y-49690000D03*
X45500000Y-67000000D03*
X55660000Y-67000000D03*
X44000000Y-48420000D03*
X44000000Y-58580000D03*
X32000000Y-23420000D03*
X32000000Y-33580000D03*
X34000000Y-74500000D03*
X36540000Y-74500000D03*
X39080000Y-74500000D03*
X41620000Y-74500000D03*
X44160000Y-74500000D03*
X46700000Y-74500000D03*
X49240000Y-74500000D03*
X51780000Y-74500000D03*
X54320000Y-74500000D03*
X34000000Y-77040000D03*
X36540000Y-77040000D03*
X39080000Y-77040000D03*
X41620000Y-77040000D03*
X44160000Y-77040000D03*
X46700000Y-77040000D03*
X49240000Y-77040000D03*
X51780000Y-77040000D03*
X54320000Y-77040000D03*
X34000000Y-79580000D03*
X36540000Y-79580000D03*
X39080000Y-79580000D03*
X41620000Y-79580000D03*
X44160000Y-79580000D03*
X46700000Y-79580000D03*
X49240000Y-79580000D03*
X51780000Y-79580000D03*
X54320000Y-79580000D03*
X34000000Y-82120000D03*
X36540000Y-82120000D03*
X39080000Y-82120000D03*
X41620000Y-82120000D03*
X44160000Y-82120000D03*
X46700000Y-82120000D03*
X49240000Y-82120000D03*
X51780000Y-82120000D03*
X54320000Y-82120000D03*
X36000000Y-48420000D03*
X36000000Y-58580000D03*
X55000000Y-41000000D03*
X32500000Y-70200000D03*
X42660000Y-70200000D03*
X29950000Y-78000000D03*
X27450000Y-78000000D03*
X24950000Y-78000000D03*
X22450000Y-78000000D03*
X40000000Y-35920000D03*
X40000000Y-46080000D03*
X9350000Y-6950000D03*
X11850000Y-6950000D03*
X14350000Y-6950000D03*
X16850000Y-6950000D03*
X32750000Y-6950000D03*
X35250000Y-6950000D03*
X37750000Y-6950000D03*
X40250000Y-6950000D03*
X40000000Y-23420000D03*
X40000000Y-33580000D03*
X40000000Y-48420000D03*
X40000000Y-58580000D03*
X19000000Y-70000000D03*
X24000000Y-70000000D03*
X10500000Y-32310000D03*
X13040000Y-32310000D03*
X15580000Y-32310000D03*
X18120000Y-32310000D03*
X20660000Y-32310000D03*
X23200000Y-32310000D03*
X25740000Y-32310000D03*
X28280000Y-32310000D03*
X28280000Y-24690000D03*
X25740000Y-24690000D03*
X23200000Y-24690000D03*
X20660000Y-24690000D03*
X18120000Y-24690000D03*
X15580000Y-24690000D03*
X13040000Y-24690000D03*
X10500000Y-24690000D03*
X45500000Y-70200000D03*
X55660000Y-70200000D03*
X44450000Y-6950000D03*
X46950000Y-6950000D03*
X49450000Y-6950000D03*
X51950000Y-6950000D03*
X44000000Y-35920000D03*
X44000000Y-46080000D03*
X55000000Y-28540000D03*
X55000000Y-23460000D03*
X44000000Y-23420000D03*
X44000000Y-33580000D03*
X10500000Y-44810000D03*
X13040000Y-44810000D03*
X15580000Y-44810000D03*
X18120000Y-44810000D03*
X20660000Y-44810000D03*
X23200000Y-44810000D03*
X25740000Y-44810000D03*
X28280000Y-44810000D03*
X28280000Y-37190000D03*
X25740000Y-37190000D03*
X23200000Y-37190000D03*
X20660000Y-37190000D03*
X18120000Y-37190000D03*
X15580000Y-37190000D03*
X13040000Y-37190000D03*
X10500000Y-37190000D03*
X55000000Y-52500000D03*
X55000000Y-55040000D03*
X55000000Y-57580000D03*
X55000000Y-44000000D03*
X7310000Y-13450000D03*
X7310000Y-15990000D03*
X7310000Y-18530000D03*
X7310000Y-21070000D03*
X7310000Y-23610000D03*
X7310000Y-26150000D03*
X7310000Y-28690000D03*
X7310000Y-31230000D03*
X7310000Y-33770000D03*
X7310000Y-36310000D03*
X7310000Y-38850000D03*
X7310000Y-41390000D03*
X7310000Y-43930000D03*
X7310000Y-49010000D03*
X7310000Y-54090000D03*
X7310000Y-56630000D03*
X36000000Y-23420000D03*
X36000000Y-33580000D03*
X55000000Y-37000000D03*
X55000000Y-32000000D03*
X32000000Y-35920000D03*
X32000000Y-46080000D03*
X4770000Y-8370000D03*
X2230000Y-8370000D03*
X4770000Y-10910000D03*
X2230000Y-10910000D03*
X4770000Y-13450000D03*
X2230000Y-13450000D03*
X4770000Y-15990000D03*
X2230000Y-15990000D03*
X4770000Y-18530000D03*
X2230000Y-18530000D03*
X4770000Y-21070000D03*
X2230000Y-21070000D03*
X4770000Y-23610000D03*
X2230000Y-23610000D03*
X4770000Y-26150000D03*
X2230000Y-26150000D03*
X4770000Y-28690000D03*
X2230000Y-28690000D03*
X4770000Y-31230000D03*
X2230000Y-31230000D03*
X4770000Y-33770000D03*
X2230000Y-33770000D03*
X4770000Y-36310000D03*
X2230000Y-36310000D03*
X4770000Y-38850000D03*
X2230000Y-38850000D03*
X4770000Y-41390000D03*
X2230000Y-41390000D03*
X4770000Y-43930000D03*
X2230000Y-43930000D03*
X4770000Y-46470000D03*
X2230000Y-46470000D03*
X4770000Y-49010000D03*
X2230000Y-49010000D03*
X4770000Y-51550000D03*
X2230000Y-51550000D03*
X4770000Y-54090000D03*
X2230000Y-54090000D03*
X4770000Y-56630000D03*
X2230000Y-56630000D03*
M02*
