M48
; DRILL file KiCad 10.0.6 date 2026-09-26T22:36:43
; FORMAT={-:-/ absolute / metric / decimal}
; #@! TF.CreationDate,2026-09-26T22:36:43-04:00
; #@! TF.GenerationSoftware,Kicad,Pcbnew,10.0.6
; #@! TF.FileFunction,MixedPlating,1,2
FMAT,2
METRIC
; #@! TA.AperFunction,Plated,PTH,ViaDrill
T1C0.400
; #@! TA.AperFunction,Plated,PTH,ComponentDrill
T2C0.800
; #@! TA.AperFunction,Plated,PTH,ComponentDrill
T3C1.000
; #@! TA.AperFunction,Plated,PTH,ComponentDrill
T4C1.100
%
G90
G05
T1
X3.48Y-17.225
X11.943Y-28.562
X35.133Y-29.723
X36.059Y-28.794
X37.584Y-56.134
X43.666Y-39.436
X49.665Y-16.366
X50.611Y-17.487
X51.367Y-30.851
X51.406Y-16.376
X51.406Y-23.321
X52.045Y-27.758
X52.052Y-38.921
X54.483Y-24.943
X54.646Y-33.922
X54.655Y-36.375
X54.723Y-35.203
T2
X14.0Y-24.69
X14.0Y-32.31
X14.0Y-37.19
X14.0Y-44.81
X14.0Y-49.69
X14.0Y-57.31
X16.54Y-24.69
X16.54Y-32.31
X16.54Y-37.19
X16.54Y-44.81
X16.54Y-49.69
X16.54Y-57.31
X19.08Y-24.69
X19.08Y-32.31
X19.08Y-37.19
X19.08Y-44.81
X19.08Y-49.69
X19.08Y-57.31
X21.62Y-24.69
X21.62Y-32.31
X21.62Y-37.19
X21.62Y-44.81
X21.62Y-49.69
X21.62Y-57.31
X24.16Y-24.69
X24.16Y-32.31
X24.16Y-37.19
X24.16Y-44.81
X24.16Y-49.69
X24.16Y-57.31
X26.7Y-24.69
X26.7Y-32.31
X26.7Y-37.19
X26.7Y-44.81
X26.7Y-49.69
X26.7Y-57.31
X29.24Y-24.69
X29.24Y-32.31
X29.24Y-37.19
X29.24Y-44.81
X29.24Y-49.69
X29.24Y-57.31
X31.78Y-24.69
X31.78Y-32.31
X31.78Y-37.19
X31.78Y-44.81
X31.78Y-49.69
X31.78Y-57.31
X35.2Y-23.42
X35.2Y-33.58
X35.2Y-35.92
X35.2Y-46.08
X35.2Y-48.42
X35.2Y-58.58
X39.2Y-23.42
X39.2Y-33.58
X39.2Y-35.92
X39.2Y-46.08
X39.2Y-48.42
X39.2Y-58.58
X43.2Y-23.42
X43.2Y-33.58
X43.2Y-35.92
X43.2Y-46.08
X43.2Y-48.42
X43.2Y-58.58
X47.2Y-23.42
X47.2Y-33.58
X47.2Y-35.92
X47.2Y-46.08
X47.2Y-48.42
X47.2Y-58.58
T3
X2.23Y-8.37
X2.23Y-10.91
X2.23Y-13.45
X2.23Y-15.99
X2.23Y-18.53
X2.23Y-21.07
X2.23Y-23.61
X2.23Y-26.15
X2.23Y-28.69
X2.23Y-31.23
X2.23Y-33.77
X2.23Y-36.31
X2.23Y-38.85
X2.23Y-41.39
X2.23Y-43.93
X2.23Y-46.47
X2.23Y-49.01
X2.23Y-51.55
X2.23Y-54.09
X2.23Y-56.63
X4.77Y-8.37
X4.77Y-10.91
X4.77Y-13.45
X4.77Y-15.99
X4.77Y-18.53
X4.77Y-21.07
X4.77Y-23.61
X4.77Y-26.15
X4.77Y-28.69
X4.77Y-31.23
X4.77Y-33.77
X4.77Y-36.31
X4.77Y-38.85
X4.77Y-41.39
X4.77Y-43.93
X4.77Y-46.47
X4.77Y-49.01
X4.77Y-51.55
X4.77Y-54.09
X4.77Y-56.63
X7.31Y-13.45
X7.31Y-15.99
X7.31Y-18.53
X7.31Y-21.07
X7.31Y-23.61
X7.31Y-26.15
X7.31Y-28.69
X7.31Y-31.23
X7.31Y-33.77
X7.31Y-36.31
X7.31Y-38.85
X7.31Y-41.39
X7.31Y-43.93
X7.31Y-49.01
X7.31Y-54.09
X7.31Y-56.63
X40.0Y-81.0
X43.0Y-81.0
X46.0Y-81.0
T4
X9.35Y-6.95
X11.85Y-6.95
X14.35Y-6.95
X16.85Y-6.95
X21.05Y-6.95
X23.55Y-6.95
X26.05Y-6.95
X28.55Y-6.95
X32.75Y-6.95
X35.25Y-6.95
X37.75Y-6.95
X40.25Y-6.95
X44.45Y-6.95
X46.95Y-6.95
X49.45Y-6.95
X51.95Y-6.95
M30
