%TF.GenerationSoftware,KiCad,Pcbnew,10.0.6*%
%TF.CreationDate,2026-09-12T20:39:10-04:00*%
%TF.ProjectId,int-board,696e742d-626f-4617-9264-2e6b69636164,rev?*%
%TF.SameCoordinates,Original*%
%TF.FileFunction,Soldermask,Top*%
%TF.FilePolarity,Negative*%
%FSLAX46Y46*%
G04 Gerber Fmt 4.6, Leading zero omitted, Abs format (unit mm)*
G04 Created by KiCad (PCBNEW 10.0.6) date 2026-09-12 20:39:10*
%MOMM*%
%LPD*%
G01*
G04 APERTURE LIST*
G04 Aperture macros list*
%AMRoundRect*
0 Rectangle with rounded corners*
0 $1 Rounding radius*
0 $2 $3 $4 $5 $6 $7 $8 $9 X,Y pos of 4 corners*
0 Add a 4 corners polygon primitive as box body*
4,1,4,$2,$3,$4,$5,$6,$7,$8,$9,$2,$3,0*
0 Add four circle primitives for the rounded corners*
1,1,$1+$1,$2,$3*
1,1,$1+$1,$4,$5*
1,1,$1+$1,$6,$7*
1,1,$1+$1,$8,$9*
0 Add four rect primitives between the rounded corners*
20,1,$1+$1,$2,$3,$4,$5,0*
20,1,$1+$1,$4,$5,$6,$7,0*
20,1,$1+$1,$6,$7,$8,$9,0*
20,1,$1+$1,$8,$9,$2,$3,0*%
G04 Aperture macros list end*
%ADD10C,1.800000*%
%ADD11RoundRect,0.249999X-0.850001X-0.850001X0.850001X-0.850001X0.850001X0.850001X-0.850001X0.850001X0*%
%ADD12C,2.200000*%
%ADD13RoundRect,0.450000X-0.450000X-0.450000X0.450000X-0.450000X0.450000X0.450000X-0.450000X0.450000X0*%
%ADD14RoundRect,0.250000X0.550000X-0.550000X0.550000X0.550000X-0.550000X0.550000X-0.550000X-0.550000X0*%
%ADD15C,1.600000*%
%ADD16RoundRect,0.487500X-0.487500X-0.487500X0.487500X-0.487500X0.487500X0.487500X-0.487500X0.487500X0*%
%ADD17C,1.950000*%
%ADD18RoundRect,0.250001X-0.949999X0.949999X-0.949999X-0.949999X0.949999X-0.949999X0.949999X0.949999X0*%
%ADD19C,2.400000*%
%ADD20RoundRect,0.487500X-0.487500X0.487500X-0.487500X-0.487500X0.487500X-0.487500X0.487500X0.487500X0*%
%ADD21RoundRect,0.400000X-0.400000X-0.400000X0.400000X-0.400000X0.400000X0.400000X-0.400000X0.400000X0*%
%ADD22RoundRect,0.425000X-0.425000X-0.425000X0.425000X-0.425000X0.425000X0.425000X-0.425000X0.425000X0*%
%ADD23C,1.700000*%
%ADD24C,0.350000*%
G04 APERTURE END LIST*
D10*
%TO.C,TP3*%
X46000000Y-81000000D03*
%TD*%
D11*
%TO.C,D1*%
X45500000Y-73400000D03*
D12*
X55660000Y-73400000D03*
%TD*%
D13*
%TO.C,F1*%
X52460000Y-25500000D03*
D10*
X57540000Y-25500000D03*
%TD*%
%TO.C,TP1*%
X40000000Y-81000000D03*
%TD*%
%TO.C,TP2*%
X43000000Y-81000000D03*
%TD*%
D14*
%TO.C,U1*%
X10500000Y-32310000D03*
D15*
X13040000Y-32310000D03*
X15580000Y-32310000D03*
X18120000Y-32310000D03*
X20660000Y-32310000D03*
X23200000Y-32310000D03*
X25740000Y-32310000D03*
X28280000Y-32310000D03*
X28280000Y-24690000D03*
X25740000Y-24690000D03*
X23200000Y-24690000D03*
X20660000Y-24690000D03*
X18120000Y-24690000D03*
X15580000Y-24690000D03*
X13040000Y-24690000D03*
X10500000Y-24690000D03*
%TD*%
D14*
%TO.C,U2*%
X10500000Y-44810000D03*
D15*
X13040000Y-44810000D03*
X15580000Y-44810000D03*
X18120000Y-44810000D03*
X20660000Y-44810000D03*
X23200000Y-44810000D03*
X25740000Y-44810000D03*
X28280000Y-44810000D03*
X28280000Y-37190000D03*
X25740000Y-37190000D03*
X23200000Y-37190000D03*
X20660000Y-37190000D03*
X18120000Y-37190000D03*
X15580000Y-37190000D03*
X13040000Y-37190000D03*
X10500000Y-37190000D03*
%TD*%
%TO.C,R8*%
X41500000Y-35920000D03*
X41500000Y-46080000D03*
%TD*%
D16*
%TO.C,J4*%
X44450000Y-6950000D03*
D17*
X46950000Y-6950000D03*
X49450000Y-6950000D03*
X51950000Y-6950000D03*
%TD*%
D18*
%TO.C,C1*%
X46800000Y-16500000D03*
D19*
X46800000Y-41500000D03*
%TD*%
D15*
%TO.C,J9*%
X7310000Y-13450000D03*
X7310000Y-15990000D03*
X7310000Y-18530000D03*
X7310000Y-21070000D03*
X7310000Y-23610000D03*
X7310000Y-26150000D03*
X7310000Y-28690000D03*
X7310000Y-31230000D03*
X7310000Y-33770000D03*
X7310000Y-36310000D03*
X7310000Y-38850000D03*
X7310000Y-41390000D03*
X7310000Y-43930000D03*
X7310000Y-49010000D03*
X7310000Y-54090000D03*
X7310000Y-56630000D03*
%TD*%
D11*
%TO.C,D4*%
X45500000Y-70200000D03*
D12*
X55660000Y-70200000D03*
%TD*%
D15*
%TO.C,R9*%
X31700000Y-48420000D03*
X31700000Y-58580000D03*
%TD*%
D11*
%TO.C,D3*%
X45500000Y-67000000D03*
D12*
X55660000Y-67000000D03*
%TD*%
D20*
%TO.C,J6*%
X53000000Y-29500000D03*
D17*
X53000000Y-32000000D03*
X53000000Y-34500000D03*
X53000000Y-37000000D03*
X53000000Y-39500000D03*
%TD*%
D15*
%TO.C,R2*%
X35000000Y-23420000D03*
X35000000Y-33580000D03*
%TD*%
%TO.C,R7*%
X38250000Y-35920000D03*
X38250000Y-46080000D03*
%TD*%
D16*
%TO.C,J1*%
X9350000Y-6950000D03*
D17*
X11850000Y-6950000D03*
X14350000Y-6950000D03*
X16850000Y-6950000D03*
%TD*%
D20*
%TO.C,J7*%
X53000000Y-46750000D03*
D17*
X53000000Y-49250000D03*
X53000000Y-51750000D03*
X53000000Y-54250000D03*
%TD*%
D16*
%TO.C,J2*%
X21050000Y-6950000D03*
D17*
X23550000Y-6950000D03*
X26050000Y-6950000D03*
X28550000Y-6950000D03*
%TD*%
D15*
%TO.C,R3*%
X38250000Y-23420000D03*
X38250000Y-33580000D03*
%TD*%
%TO.C,R12*%
X41500000Y-48420000D03*
X41500000Y-58580000D03*
%TD*%
%TO.C,R5*%
X31700000Y-35920000D03*
X31700000Y-46080000D03*
%TD*%
D16*
%TO.C,J3*%
X32750000Y-6950000D03*
D17*
X35250000Y-6950000D03*
X37750000Y-6950000D03*
X40250000Y-6950000D03*
%TD*%
D21*
%TO.C,J8*%
X49500000Y-82000000D03*
D15*
X52040000Y-82000000D03*
X54580000Y-82000000D03*
%TD*%
%TO.C,R10*%
X35000000Y-48420000D03*
X35000000Y-58580000D03*
%TD*%
D11*
%TO.C,D2*%
X45500000Y-76600000D03*
D12*
X55660000Y-76600000D03*
%TD*%
D15*
%TO.C,R1*%
X31700000Y-23420000D03*
X31700000Y-33580000D03*
%TD*%
%TO.C,R4*%
X41500000Y-23420000D03*
X41500000Y-33580000D03*
%TD*%
D14*
%TO.C,U3*%
X10500000Y-57310000D03*
D15*
X13040000Y-57310000D03*
X15580000Y-57310000D03*
X18120000Y-57310000D03*
X20660000Y-57310000D03*
X23200000Y-57310000D03*
X25740000Y-57310000D03*
X28280000Y-57310000D03*
X28280000Y-49690000D03*
X25740000Y-49690000D03*
X23200000Y-49690000D03*
X20660000Y-49690000D03*
X18120000Y-49690000D03*
X15580000Y-49690000D03*
X13040000Y-49690000D03*
X10500000Y-49690000D03*
%TD*%
%TO.C,R6*%
X35000000Y-35920000D03*
X35000000Y-46080000D03*
%TD*%
%TO.C,R11*%
X38250000Y-48420000D03*
X38250000Y-58580000D03*
%TD*%
D22*
%TO.C,J5*%
X4770000Y-8370000D03*
D23*
X2230000Y-8370000D03*
X4770000Y-10910000D03*
X2230000Y-10910000D03*
X4770000Y-13450000D03*
X2230000Y-13450000D03*
X4770000Y-15990000D03*
X2230000Y-15990000D03*
X4770000Y-18530000D03*
X2230000Y-18530000D03*
X4770000Y-21070000D03*
X2230000Y-21070000D03*
X4770000Y-23610000D03*
X2230000Y-23610000D03*
X4770000Y-26150000D03*
X2230000Y-26150000D03*
X4770000Y-28690000D03*
X2230000Y-28690000D03*
X4770000Y-31230000D03*
X2230000Y-31230000D03*
X4770000Y-33770000D03*
X2230000Y-33770000D03*
X4770000Y-36310000D03*
X2230000Y-36310000D03*
X4770000Y-38850000D03*
X2230000Y-38850000D03*
X4770000Y-41390000D03*
X2230000Y-41390000D03*
X4770000Y-43930000D03*
X2230000Y-43930000D03*
X4770000Y-46470000D03*
X2230000Y-46470000D03*
X4770000Y-49010000D03*
X2230000Y-49010000D03*
X4770000Y-51550000D03*
X2230000Y-51550000D03*
X4770000Y-54090000D03*
X2230000Y-54090000D03*
X4770000Y-56630000D03*
X2230000Y-56630000D03*
%TD*%
D24*
X46000000Y-81000000D03*
X45500000Y-73400000D03*
X55660000Y-73400000D03*
X52460000Y-25500000D03*
X57540000Y-25500000D03*
X40000000Y-81000000D03*
X43000000Y-81000000D03*
X10500000Y-32310000D03*
X13040000Y-32310000D03*
X15580000Y-32310000D03*
X18120000Y-32310000D03*
X20660000Y-32310000D03*
X23200000Y-32310000D03*
X25740000Y-32310000D03*
X28280000Y-32310000D03*
X28280000Y-24690000D03*
X25740000Y-24690000D03*
X23200000Y-24690000D03*
X20660000Y-24690000D03*
X18120000Y-24690000D03*
X15580000Y-24690000D03*
X13040000Y-24690000D03*
X10500000Y-24690000D03*
X10500000Y-44810000D03*
X13040000Y-44810000D03*
X15580000Y-44810000D03*
X18120000Y-44810000D03*
X20660000Y-44810000D03*
X23200000Y-44810000D03*
X25740000Y-44810000D03*
X28280000Y-44810000D03*
X28280000Y-37190000D03*
X25740000Y-37190000D03*
X23200000Y-37190000D03*
X20660000Y-37190000D03*
X18120000Y-37190000D03*
X15580000Y-37190000D03*
X13040000Y-37190000D03*
X10500000Y-37190000D03*
X41500000Y-35920000D03*
X41500000Y-46080000D03*
X44450000Y-6950000D03*
X46950000Y-6950000D03*
X49450000Y-6950000D03*
X51950000Y-6950000D03*
X46800000Y-16500000D03*
X46800000Y-41500000D03*
X7310000Y-13450000D03*
X7310000Y-15990000D03*
X7310000Y-18530000D03*
X7310000Y-21070000D03*
X7310000Y-23610000D03*
X7310000Y-26150000D03*
X7310000Y-28690000D03*
X7310000Y-31230000D03*
X7310000Y-33770000D03*
X7310000Y-36310000D03*
X7310000Y-38850000D03*
X7310000Y-41390000D03*
X7310000Y-43930000D03*
X7310000Y-49010000D03*
X7310000Y-54090000D03*
X7310000Y-56630000D03*
X45500000Y-70200000D03*
X55660000Y-70200000D03*
X31700000Y-48420000D03*
X31700000Y-58580000D03*
X45500000Y-67000000D03*
X55660000Y-67000000D03*
X53000000Y-29500000D03*
X53000000Y-32000000D03*
X53000000Y-34500000D03*
X53000000Y-37000000D03*
X53000000Y-39500000D03*
X35000000Y-23420000D03*
X35000000Y-33580000D03*
X38250000Y-35920000D03*
X38250000Y-46080000D03*
X9350000Y-6950000D03*
X11850000Y-6950000D03*
X14350000Y-6950000D03*
X16850000Y-6950000D03*
X53000000Y-46750000D03*
X53000000Y-49250000D03*
X53000000Y-51750000D03*
X53000000Y-54250000D03*
X21050000Y-6950000D03*
X23550000Y-6950000D03*
X26050000Y-6950000D03*
X28550000Y-6950000D03*
X38250000Y-23420000D03*
X38250000Y-33580000D03*
X41500000Y-48420000D03*
X41500000Y-58580000D03*
X31700000Y-35920000D03*
X31700000Y-46080000D03*
X32750000Y-6950000D03*
X35250000Y-6950000D03*
X37750000Y-6950000D03*
X40250000Y-6950000D03*
X49500000Y-82000000D03*
X52040000Y-82000000D03*
X54580000Y-82000000D03*
X35000000Y-48420000D03*
X35000000Y-58580000D03*
X45500000Y-76600000D03*
X55660000Y-76600000D03*
X31700000Y-23420000D03*
X31700000Y-33580000D03*
X41500000Y-23420000D03*
X41500000Y-33580000D03*
X10500000Y-57310000D03*
X13040000Y-57310000D03*
X15580000Y-57310000D03*
X18120000Y-57310000D03*
X20660000Y-57310000D03*
X23200000Y-57310000D03*
X25740000Y-57310000D03*
X28280000Y-57310000D03*
X28280000Y-49690000D03*
X25740000Y-49690000D03*
X23200000Y-49690000D03*
X20660000Y-49690000D03*
X18120000Y-49690000D03*
X15580000Y-49690000D03*
X13040000Y-49690000D03*
X10500000Y-49690000D03*
X35000000Y-35920000D03*
X35000000Y-46080000D03*
X38250000Y-48420000D03*
X38250000Y-58580000D03*
X4770000Y-8370000D03*
X2230000Y-8370000D03*
X4770000Y-10910000D03*
X2230000Y-10910000D03*
X4770000Y-13450000D03*
X2230000Y-13450000D03*
X4770000Y-15990000D03*
X2230000Y-15990000D03*
X4770000Y-18530000D03*
X2230000Y-18530000D03*
X4770000Y-21070000D03*
X2230000Y-21070000D03*
X4770000Y-23610000D03*
X2230000Y-23610000D03*
X4770000Y-26150000D03*
X2230000Y-26150000D03*
X4770000Y-28690000D03*
X2230000Y-28690000D03*
X4770000Y-31230000D03*
X2230000Y-31230000D03*
X4770000Y-33770000D03*
X2230000Y-33770000D03*
X4770000Y-36310000D03*
X2230000Y-36310000D03*
X4770000Y-38850000D03*
X2230000Y-38850000D03*
X4770000Y-41390000D03*
X2230000Y-41390000D03*
X4770000Y-43930000D03*
X2230000Y-43930000D03*
X4770000Y-46470000D03*
X2230000Y-46470000D03*
X4770000Y-49010000D03*
X2230000Y-49010000D03*
X4770000Y-51550000D03*
X2230000Y-51550000D03*
X4770000Y-54090000D03*
X2230000Y-54090000D03*
X4770000Y-56630000D03*
X2230000Y-56630000D03*
M02*
