%TF.GenerationSoftware,KiCad,Pcbnew,10.0.6*%
%TF.CreationDate,2026-09-12T12:31:32-04:00*%
%TF.ProjectId,int-board,696e742d-626f-4617-9264-2e6b69636164,rev?*%
%TF.SameCoordinates,Original*%
%TF.FileFunction,Copper,L2,Bot*%
%TF.FilePolarity,Positive*%
%FSLAX46Y46*%
G04 Gerber Fmt 4.6, Leading zero omitted, Abs format (unit mm)*
G04 Created by KiCad (PCBNEW 10.0.6) date 2026-09-12 12:31:32*
%MOMM*%
%LPD*%
G01*
G04 APERTURE LIST*
G04 Aperture macros list*
%AMRoundRect*
0 Rectangle with rounded corners*
0 $1 Rounding radius*
0 $2 $3 $4 $5 $6 $7 $8 $9 X,Y pos of 4 corners*
0 Add a 4 corners polygon primitive as box body*
4,1,4,$2,$3,$4,$5,$6,$7,$8,$9,$2,$3,0*
0 Add four circle primitives for the rounded corners*
1,1,$1+$1,$2,$3*
1,1,$1+$1,$4,$5*
1,1,$1+$1,$6,$7*
1,1,$1+$1,$8,$9*
0 Add four rect primitives between the rounded corners*
20,1,$1+$1,$2,$3,$4,$5,0*
20,1,$1+$1,$4,$5,$6,$7,0*
20,1,$1+$1,$6,$7,$8,$9,0*
20,1,$1+$1,$8,$9,$2,$3,0*%
G04 Aperture macros list end*
%TA.AperFunction,ComponentPad*%
%ADD10C,1.600000*%
%TD*%
%TA.AperFunction,ComponentPad*%
%ADD11RoundRect,0.400000X-0.400000X-0.400000X0.400000X-0.400000X0.400000X0.400000X-0.400000X0.400000X0*%
%TD*%
%TA.AperFunction,ComponentPad*%
%ADD12RoundRect,0.250000X0.550000X-0.550000X0.550000X0.550000X-0.550000X0.550000X-0.550000X-0.550000X0*%
%TD*%
%TA.AperFunction,ComponentPad*%
%ADD13RoundRect,0.487500X-0.487500X-0.487500X0.487500X-0.487500X0.487500X0.487500X-0.487500X0.487500X0*%
%TD*%
%TA.AperFunction,ComponentPad*%
%ADD14C,1.950000*%
%TD*%
%TA.AperFunction,ComponentPad*%
%ADD15RoundRect,0.249999X-0.850001X-0.850001X0.850001X-0.850001X0.850001X0.850001X-0.850001X0.850001X0*%
%TD*%
%TA.AperFunction,ComponentPad*%
%ADD16C,2.200000*%
%TD*%
%TA.AperFunction,ComponentPad*%
%ADD17C,1.800000*%
%TD*%
%TA.AperFunction,ComponentPad*%
%ADD18RoundRect,0.450000X0.450000X0.450000X-0.450000X0.450000X-0.450000X-0.450000X0.450000X-0.450000X0*%
%TD*%
%TA.AperFunction,ComponentPad*%
%ADD19RoundRect,0.250001X-0.949999X-0.949999X0.949999X-0.949999X0.949999X0.949999X-0.949999X0.949999X0*%
%TD*%
%TA.AperFunction,ComponentPad*%
%ADD20C,2.400000*%
%TD*%
%TA.AperFunction,ComponentPad*%
%ADD21RoundRect,0.450000X-0.450000X-0.450000X0.450000X-0.450000X0.450000X0.450000X-0.450000X0.450000X0*%
%TD*%
%TA.AperFunction,ComponentPad*%
%ADD22RoundRect,0.487500X-0.487500X0.487500X-0.487500X-0.487500X0.487500X-0.487500X0.487500X0.487500X0*%
%TD*%
%TA.AperFunction,ComponentPad*%
%ADD23RoundRect,0.425000X-0.425000X-0.425000X0.425000X-0.425000X0.425000X0.425000X-0.425000X0.425000X0*%
%TD*%
%TA.AperFunction,ComponentPad*%
%ADD24C,1.700000*%
%TD*%
%TA.AperFunction,ViaPad*%
%ADD25C,0.800000*%
%TD*%
%TA.AperFunction,ViaPad*%
%ADD26C,1.000000*%
%TD*%
%TA.AperFunction,Conductor*%
%ADD27C,0.250000*%
%TD*%
%TA.AperFunction,Conductor*%
%ADD28C,0.500000*%
%TD*%
%ADD29C,0.350000*%
G04 APERTURE END LIST*
D10*
%TO.P,R7,1*%
%TO.N,K7*%
X40000000Y-35920000D03*
%TO.P,R7,2*%
%TO.N,S_DEHUM*%
X40000000Y-46080000D03*
%TD*%
%TO.P,R1,1*%
%TO.N,K1*%
X32000000Y-23420000D03*
%TO.P,R1,2*%
%TO.N,S_ZV*%
X32000000Y-33580000D03*
%TD*%
D11*
%TO.P,J8,1*%
%TO.N,S_SP-C*%
X57600000Y-75000000D03*
D10*
%TO.P,J8,2*%
%TO.N,S_SP-E*%
X57600000Y-77540000D03*
%TO.P,J8,3*%
%TO.N,COM*%
X57600000Y-80080000D03*
%TD*%
%TO.P,PF1,1*%
%TO.N,N/C*%
X37000000Y-74500000D03*
%TO.P,PF1,2*%
X39540000Y-74500000D03*
%TO.P,PF1,3*%
X42080000Y-74500000D03*
%TO.P,PF1,4*%
X44620000Y-74500000D03*
%TO.P,PF1,5*%
X47160000Y-74500000D03*
%TO.P,PF1,6*%
X49700000Y-74500000D03*
%TO.P,PF1,7*%
X52240000Y-74500000D03*
%TO.P,PF1,8*%
X54780000Y-74500000D03*
%TO.P,PF1,9*%
X37000000Y-77040000D03*
%TO.P,PF1,10*%
X39540000Y-77040000D03*
%TO.P,PF1,11*%
X42080000Y-77040000D03*
%TO.P,PF1,12*%
X44620000Y-77040000D03*
%TO.P,PF1,13*%
X47160000Y-77040000D03*
%TO.P,PF1,14*%
X49700000Y-77040000D03*
%TO.P,PF1,15*%
X52240000Y-77040000D03*
%TO.P,PF1,16*%
X54780000Y-77040000D03*
%TO.P,PF1,17*%
X37000000Y-79580000D03*
%TO.P,PF1,18*%
X39540000Y-79580000D03*
%TO.P,PF1,19*%
X42080000Y-79580000D03*
%TO.P,PF1,20*%
X44620000Y-79580000D03*
%TO.P,PF1,21*%
X47160000Y-79580000D03*
%TO.P,PF1,22*%
X49700000Y-79580000D03*
%TO.P,PF1,23*%
X52240000Y-79580000D03*
%TO.P,PF1,24*%
X54780000Y-79580000D03*
%TO.P,PF1,25*%
X37000000Y-82120000D03*
%TO.P,PF1,26*%
X39540000Y-82120000D03*
%TO.P,PF1,27*%
X42080000Y-82120000D03*
%TO.P,PF1,28*%
X44620000Y-82120000D03*
%TO.P,PF1,29*%
X47160000Y-82120000D03*
%TO.P,PF1,30*%
X49700000Y-82120000D03*
%TO.P,PF1,31*%
X52240000Y-82120000D03*
%TO.P,PF1,32*%
X54780000Y-82120000D03*
%TD*%
D12*
%TO.P,U1,1*%
%TO.N,VS*%
X10500000Y-32310000D03*
D10*
%TO.P,U1,2*%
%TO.N,K1*%
X13040000Y-32310000D03*
%TO.P,U1,3*%
%TO.N,VS*%
X15580000Y-32310000D03*
%TO.P,U1,4*%
%TO.N,K2*%
X18120000Y-32310000D03*
%TO.P,U1,5*%
%TO.N,VS*%
X20660000Y-32310000D03*
%TO.P,U1,6*%
%TO.N,K3*%
X23200000Y-32310000D03*
%TO.P,U1,7*%
%TO.N,VS*%
X25740000Y-32310000D03*
%TO.P,U1,8*%
%TO.N,K4*%
X28280000Y-32310000D03*
%TO.P,U1,9*%
%TO.N,GND*%
X28280000Y-24690000D03*
%TO.P,U1,10*%
%TO.N,GPIO25*%
X25740000Y-24690000D03*
%TO.P,U1,11*%
%TO.N,GND*%
X23200000Y-24690000D03*
%TO.P,U1,12*%
%TO.N,GPIO22*%
X20660000Y-24690000D03*
%TO.P,U1,13*%
%TO.N,GND*%
X18120000Y-24690000D03*
%TO.P,U1,14*%
%TO.N,GPIO27*%
X15580000Y-24690000D03*
%TO.P,U1,15*%
%TO.N,GND*%
X13040000Y-24690000D03*
%TO.P,U1,16*%
%TO.N,GPIO17*%
X10500000Y-24690000D03*
%TD*%
D13*
%TO.P,J1,1*%
%TO.N,S_ZV*%
X9350000Y-6950000D03*
D14*
%TO.P,J1,2*%
%TO.N,S_DHW*%
X11850000Y-6950000D03*
%TO.P,J1,3*%
%TO.N,S_BLR*%
X14350000Y-6950000D03*
%TO.P,J1,4*%
%TO.N,COM*%
X16850000Y-6950000D03*
%TD*%
D13*
%TO.P,J3,1*%
%TO.N,S_DEHUM*%
X32750000Y-6950000D03*
D14*
%TO.P,J3,2*%
%TO.N,S_SCALA*%
X35250000Y-6950000D03*
%TO.P,J3,3*%
%TO.N,S_HPHEAT*%
X37750000Y-6950000D03*
%TO.P,J3,4*%
%TO.N,COM*%
X40250000Y-6950000D03*
%TD*%
D15*
%TO.P,D2,1*%
%TO.N,VS*%
X32500000Y-70200000D03*
D16*
%TO.P,D2,2*%
%TO.N,ACC*%
X42660000Y-70200000D03*
%TD*%
D10*
%TO.P,R5,1*%
%TO.N,K5*%
X32000000Y-35920000D03*
%TO.P,R5,2*%
%TO.N,S_BOS1*%
X32000000Y-46080000D03*
%TD*%
D15*
%TO.P,D3,1*%
%TO.N,ACF*%
X45500000Y-67000000D03*
D16*
%TO.P,D3,2*%
%TO.N,COM*%
X55660000Y-67000000D03*
%TD*%
D17*
%TO.P,TP2,1*%
%TO.N,COM*%
X20500000Y-82500000D03*
%TD*%
D18*
%TO.P,RV1,1*%
%TO.N,ACF*%
X52500000Y-10500000D03*
D17*
%TO.P,RV1,2*%
%TO.N,ACC*%
X47500000Y-10500000D03*
%TD*%
D15*
%TO.P,D4,1*%
%TO.N,ACC*%
X45500000Y-70200000D03*
D16*
%TO.P,D4,2*%
%TO.N,COM*%
X55660000Y-70200000D03*
%TD*%
D17*
%TO.P,TP1,1*%
%TO.N,VS*%
X17500000Y-82500000D03*
%TD*%
%TO.P,TP3,1*%
%TO.N,GND*%
X23500000Y-82500000D03*
%TD*%
D13*
%TO.P,J4,1*%
%TO.N,ACR*%
X44450000Y-6950000D03*
D14*
%TO.P,J4,2*%
%TO.N,ACC*%
X46950000Y-6950000D03*
%TO.P,J4,3*%
%TO.N,S_SP-D*%
X49450000Y-6950000D03*
%TO.P,J4,4*%
%TO.N,COM*%
X51950000Y-6950000D03*
%TD*%
D10*
%TO.P,R6,1*%
%TO.N,K6*%
X36000000Y-35920000D03*
%TO.P,R6,2*%
%TO.N,S_BOS2*%
X36000000Y-46080000D03*
%TD*%
%TO.P,R10,1*%
%TO.N,K10*%
X36000000Y-48420000D03*
%TO.P,R10,2*%
%TO.N,S_SP-D*%
X36000000Y-58580000D03*
%TD*%
D19*
%TO.P,C1,1*%
%TO.N,VS*%
X8500000Y-75500000D03*
D20*
%TO.P,C1,2*%
%TO.N,COM*%
X33500000Y-75500000D03*
%TD*%
D21*
%TO.P,F1,1*%
%TO.N,ACR*%
X52460000Y-27500000D03*
D17*
%TO.P,F1,2*%
%TO.N,ACF*%
X57540000Y-27500000D03*
%TD*%
D15*
%TO.P,D1,1*%
%TO.N,VS*%
X32500000Y-67000000D03*
D16*
%TO.P,D1,2*%
%TO.N,ACF*%
X42660000Y-67000000D03*
%TD*%
D10*
%TO.P,R3,1*%
%TO.N,K3*%
X40000000Y-23420000D03*
%TO.P,R3,2*%
%TO.N,S_BLR*%
X40000000Y-33580000D03*
%TD*%
D22*
%TO.P,J6,1*%
%TO.N,3V3*%
X52700000Y-33000000D03*
D14*
%TO.P,J6,2*%
%TO.N,SDA*%
X52700000Y-35500000D03*
%TO.P,J6,3*%
%TO.N,SCL*%
X52700000Y-38000000D03*
%TO.P,J6,4*%
%TO.N,GPIO4*%
X52700000Y-40500000D03*
%TO.P,J6,5*%
%TO.N,GND*%
X52700000Y-43000000D03*
%TD*%
D10*
%TO.P,R11,1*%
%TO.N,K11*%
X40000000Y-48420000D03*
%TO.P,R11,2*%
%TO.N,S_SP-C*%
X40000000Y-58580000D03*
%TD*%
D22*
%TO.P,J7,1*%
%TO.N,VS*%
X52700000Y-49750000D03*
D14*
%TO.P,J7,2*%
%TO.N,COM*%
X52700000Y-52250000D03*
%TO.P,J7,3*%
%TO.N,+5V*%
X52700000Y-54750000D03*
%TO.P,J7,4*%
%TO.N,GND*%
X52700000Y-57250000D03*
%TD*%
D10*
%TO.P,R4,1*%
%TO.N,K4*%
X44000000Y-23420000D03*
%TO.P,R4,2*%
%TO.N,S_CHIL*%
X44000000Y-33580000D03*
%TD*%
%TO.P,R9,1*%
%TO.N,K9*%
X32000000Y-48420000D03*
%TO.P,R9,2*%
%TO.N,S_HPHEAT*%
X32000000Y-58580000D03*
%TD*%
%TO.P,R12,1*%
%TO.N,K12*%
X44000000Y-48420000D03*
%TO.P,R12,2*%
%TO.N,S_SP-E*%
X44000000Y-58580000D03*
%TD*%
%TO.P,R2,1*%
%TO.N,K2*%
X36000000Y-23420000D03*
%TO.P,R2,2*%
%TO.N,S_DHW*%
X36000000Y-33580000D03*
%TD*%
%TO.P,J9,3*%
%TO.N,SCL*%
X7310000Y-13450000D03*
%TO.P,J9,4*%
%TO.N,GPIO4*%
X7310000Y-15990000D03*
%TO.P,J9,5*%
%TO.N,GND*%
X7310000Y-18530000D03*
%TO.P,J9,6*%
%TO.N,GPIO18*%
X7310000Y-21070000D03*
%TO.P,J9,7*%
%TO.N,SDA*%
X7310000Y-23610000D03*
%TO.P,J9,8*%
%TO.N,+5V*%
X7310000Y-26150000D03*
%TO.P,J9,9*%
%TO.N,3V3*%
X7310000Y-28690000D03*
%TO.P,J9,10*%
%TO.N,GPIO10*%
X7310000Y-31230000D03*
%TO.P,J9,11*%
%TO.N,GPIO9*%
X7310000Y-33770000D03*
%TO.P,J9,12*%
%TO.N,GPIO11*%
X7310000Y-36310000D03*
%TO.P,J9,13*%
%TO.N,GPIO7*%
X7310000Y-38850000D03*
%TO.P,J9,14*%
%TO.N,GPIO8*%
X7310000Y-41390000D03*
%TO.P,J9,15*%
%TO.N,GND*%
X7310000Y-43930000D03*
%TO.P,J9,17*%
X7310000Y-49010000D03*
%TO.P,J9,19*%
%TO.N,GPIO20*%
X7310000Y-54090000D03*
%TO.P,J9,20*%
%TO.N,GPIO21*%
X7310000Y-56630000D03*
%TD*%
D13*
%TO.P,J2,1*%
%TO.N,S_CHIL*%
X21050000Y-6950000D03*
D14*
%TO.P,J2,2*%
%TO.N,S_BOS1*%
X23550000Y-6950000D03*
%TO.P,J2,3*%
%TO.N,S_BOS2*%
X26050000Y-6950000D03*
%TO.P,J2,4*%
%TO.N,COM*%
X28550000Y-6950000D03*
%TD*%
D12*
%TO.P,U2,1*%
%TO.N,VS*%
X10500000Y-44810000D03*
D10*
%TO.P,U2,2*%
%TO.N,K5*%
X13040000Y-44810000D03*
%TO.P,U2,3*%
%TO.N,VS*%
X15580000Y-44810000D03*
%TO.P,U2,4*%
%TO.N,K6*%
X18120000Y-44810000D03*
%TO.P,U2,5*%
%TO.N,VS*%
X20660000Y-44810000D03*
%TO.P,U2,6*%
%TO.N,K7*%
X23200000Y-44810000D03*
%TO.P,U2,7*%
%TO.N,VS*%
X25740000Y-44810000D03*
%TO.P,U2,8*%
%TO.N,K8*%
X28280000Y-44810000D03*
%TO.P,U2,9*%
%TO.N,GND*%
X28280000Y-37190000D03*
%TO.P,U2,10*%
%TO.N,GPIO23*%
X25740000Y-37190000D03*
%TO.P,U2,11*%
%TO.N,GND*%
X23200000Y-37190000D03*
%TO.P,U2,12*%
%TO.N,GPIO12*%
X20660000Y-37190000D03*
%TO.P,U2,13*%
%TO.N,GND*%
X18120000Y-37190000D03*
%TO.P,U2,14*%
%TO.N,GPIO5*%
X15580000Y-37190000D03*
%TO.P,U2,15*%
%TO.N,GND*%
X13040000Y-37190000D03*
%TO.P,U2,16*%
%TO.N,GPIO6*%
X10500000Y-37190000D03*
%TD*%
%TO.P,R8,1*%
%TO.N,K8*%
X44000000Y-35920000D03*
%TO.P,R8,2*%
%TO.N,S_SCALA*%
X44000000Y-46080000D03*
%TD*%
D12*
%TO.P,U3,1*%
%TO.N,VS*%
X10500000Y-57310000D03*
D10*
%TO.P,U3,2*%
%TO.N,K9*%
X13040000Y-57310000D03*
%TO.P,U3,3*%
%TO.N,VS*%
X15580000Y-57310000D03*
%TO.P,U3,4*%
%TO.N,K10*%
X18120000Y-57310000D03*
%TO.P,U3,5*%
%TO.N,VS*%
X20660000Y-57310000D03*
%TO.P,U3,6*%
%TO.N,K11*%
X23200000Y-57310000D03*
%TO.P,U3,7*%
%TO.N,VS*%
X25740000Y-57310000D03*
%TO.P,U3,8*%
%TO.N,K12*%
X28280000Y-57310000D03*
%TO.P,U3,9*%
%TO.N,GND*%
X28280000Y-49690000D03*
%TO.P,U3,10*%
%TO.N,GPIO16*%
X25740000Y-49690000D03*
%TO.P,U3,11*%
%TO.N,GND*%
X23200000Y-49690000D03*
%TO.P,U3,12*%
%TO.N,GPIO13*%
X20660000Y-49690000D03*
%TO.P,U3,13*%
%TO.N,GND*%
X18120000Y-49690000D03*
%TO.P,U3,14*%
%TO.N,GPIO19*%
X15580000Y-49690000D03*
%TO.P,U3,15*%
%TO.N,GND*%
X13040000Y-49690000D03*
%TO.P,U3,16*%
%TO.N,GPIO24*%
X10500000Y-49690000D03*
%TD*%
D23*
%TO.P,J5,1*%
%TO.N,N/C*%
X4770000Y-8370000D03*
D24*
%TO.P,J5,2*%
%TO.N,+5V*%
X2230000Y-8370000D03*
%TO.P,J5,3*%
%TO.N,SDA*%
X4770000Y-10910000D03*
%TO.P,J5,4*%
%TO.N,+5V*%
X2230000Y-10910000D03*
%TO.P,J5,5*%
%TO.N,SCL*%
X4770000Y-13450000D03*
%TO.P,J5,6*%
%TO.N,GND*%
X2230000Y-13450000D03*
%TO.P,J5,7*%
%TO.N,GPIO4*%
X4770000Y-15990000D03*
%TO.P,J5,8*%
%TO.N,N/C*%
X2230000Y-15990000D03*
%TO.P,J5,9*%
%TO.N,GND*%
X4770000Y-18530000D03*
%TO.P,J5,10*%
%TO.N,N/C*%
X2230000Y-18530000D03*
%TO.P,J5,11*%
%TO.N,GPIO17*%
X4770000Y-21070000D03*
%TO.P,J5,12*%
%TO.N,GPIO18*%
X2230000Y-21070000D03*
%TO.P,J5,13*%
%TO.N,GPIO27*%
X4770000Y-23610000D03*
%TO.P,J5,14*%
%TO.N,GND*%
X2230000Y-23610000D03*
%TO.P,J5,15*%
%TO.N,GPIO22*%
X4770000Y-26150000D03*
%TO.P,J5,16*%
%TO.N,GPIO23*%
X2230000Y-26150000D03*
%TO.P,J5,17*%
%TO.N,3V3*%
X4770000Y-28690000D03*
%TO.P,J5,18*%
%TO.N,GPIO24*%
X2230000Y-28690000D03*
%TO.P,J5,19*%
%TO.N,GPIO10*%
X4770000Y-31230000D03*
%TO.P,J5,20*%
%TO.N,GND*%
X2230000Y-31230000D03*
%TO.P,J5,21*%
%TO.N,GPIO9*%
X4770000Y-33770000D03*
%TO.P,J5,22*%
%TO.N,GPIO25*%
X2230000Y-33770000D03*
%TO.P,J5,23*%
%TO.N,GPIO11*%
X4770000Y-36310000D03*
%TO.P,J5,24*%
%TO.N,GPIO8*%
X2230000Y-36310000D03*
%TO.P,J5,25*%
%TO.N,N/C*%
X4770000Y-38850000D03*
%TO.P,J5,26*%
%TO.N,GPIO7*%
X2230000Y-38850000D03*
%TO.P,J5,27*%
%TO.N,N/C*%
X4770000Y-41390000D03*
%TO.P,J5,28*%
X2230000Y-41390000D03*
%TO.P,J5,29*%
%TO.N,GPIO5*%
X4770000Y-43930000D03*
%TO.P,J5,30*%
%TO.N,GND*%
X2230000Y-43930000D03*
%TO.P,J5,31*%
%TO.N,GPIO6*%
X4770000Y-46470000D03*
%TO.P,J5,32*%
%TO.N,GPIO12*%
X2230000Y-46470000D03*
%TO.P,J5,33*%
%TO.N,GPIO13*%
X4770000Y-49010000D03*
%TO.P,J5,34*%
%TO.N,GND*%
X2230000Y-49010000D03*
%TO.P,J5,35*%
%TO.N,GPIO19*%
X4770000Y-51550000D03*
%TO.P,J5,36*%
%TO.N,GPIO16*%
X2230000Y-51550000D03*
%TO.P,J5,37*%
%TO.N,N/C*%
X4770000Y-54090000D03*
%TO.P,J5,38*%
%TO.N,GPIO20*%
X2230000Y-54090000D03*
%TO.P,J5,39*%
%TO.N,N/C*%
X4770000Y-56630000D03*
%TO.P,J5,40*%
%TO.N,GPIO21*%
X2230000Y-56630000D03*
%TD*%
D25*
%TO.N,S_ZV*%
X27147800Y-30153800D03*
D26*
%TO.N,VS*%
X48066800Y-50905000D03*
%TO.N,GND*%
X41514300Y-51643100D03*
X29600200Y-53469400D03*
D25*
%TO.N,S_BLR*%
X30343000Y-37105500D03*
%TO.N,S_SCALA*%
X37002200Y-43954500D03*
D26*
%TO.N,ACC*%
X39593600Y-14778300D03*
%TO.N,ACF*%
X54271600Y-56000000D03*
D25*
%TO.N,3V3*%
X48222700Y-29600000D03*
%TO.N,SDA*%
X46425600Y-17494600D03*
%TO.N,SCL*%
X44821500Y-17503900D03*
%TO.N,GPIO4*%
X43292000Y-17485700D03*
D26*
%TO.N,+5V*%
X53961400Y-16880600D03*
D25*
%TO.N,S_CHIL*%
X42810700Y-7336200D03*
%TO.N,GPIO6*%
X10829000Y-41718500D03*
%TO.N,GPIO24*%
X9903400Y-34348300D03*
%TD*%
%TO.N,K7*%
D27*
X23200000Y-44810000D02*
X25796000Y-42214000D01*
X33706000Y-42214000D02*
X40000000Y-35920000D01*
X25796000Y-42214000D02*
X33706000Y-42214000D01*
%TO.N,K1*%
X23581800Y-26256800D02*
X22677400Y-27161200D01*
X29163200Y-26256800D02*
X23581800Y-26256800D01*
X18188800Y-27161200D02*
X13040000Y-32310000D01*
X32000000Y-23420000D02*
X29163200Y-26256800D01*
X22677400Y-27161200D02*
X18188800Y-27161200D01*
%TO.N,S_ZV*%
X28573800Y-30153800D02*
X32000000Y-33580000D01*
X27147800Y-30153800D02*
X28573800Y-30153800D01*
%TO.N,COM*%
D28*
X37129400Y-71870600D02*
X33500000Y-75500000D01*
X31852100Y-8428600D02*
X30373600Y-6950100D01*
X54120100Y-71870600D02*
X56101400Y-73851900D01*
X50445600Y-8454400D02*
X41754400Y-8454400D01*
X54120100Y-71870600D02*
X37129400Y-71870600D01*
X27055000Y-8445000D02*
X18345000Y-8445000D01*
X27500000Y-75500000D02*
X20500000Y-82500000D01*
X56101400Y-73851900D02*
X56101400Y-78581400D01*
X51950000Y-6950000D02*
X50445600Y-8454400D01*
X56101400Y-78581400D02*
X57600000Y-80080000D01*
X33500000Y-75500000D02*
X27500000Y-75500000D01*
X41754400Y-8454400D02*
X40250000Y-6950000D01*
X54120100Y-71739900D02*
X55660000Y-70200000D01*
X30373600Y-6950000D02*
X28550000Y-6950000D01*
X28550000Y-6950000D02*
X27055000Y-8445000D01*
X54120100Y-71870600D02*
X54120100Y-71739900D01*
X40250000Y-6950000D02*
X38771400Y-8428600D01*
X30373600Y-6950100D02*
X30373600Y-6950000D01*
X38771400Y-8428600D02*
X31852100Y-8428600D01*
X18345000Y-8445000D02*
X16850000Y-6950000D01*
%TO.N,VS*%
X15580000Y-44810000D02*
X14276700Y-46113300D01*
X29800000Y-70200000D02*
X32500000Y-70200000D01*
X19358100Y-58611900D02*
X16881900Y-58611900D01*
X11803300Y-46113300D02*
X10500000Y-44810000D01*
X16881700Y-33611700D02*
X19358300Y-33611700D01*
X25740000Y-57310000D02*
X28375200Y-59945200D01*
X14276700Y-46113300D02*
X11803300Y-46113300D01*
X24434200Y-33615800D02*
X21965800Y-33615800D01*
X21965800Y-33615800D02*
X20660000Y-32310000D01*
X24430600Y-46119400D02*
X21969400Y-46119400D01*
X16883000Y-46113000D02*
X15580000Y-44810000D01*
X8500000Y-75500000D02*
X10500000Y-75500000D01*
X20660000Y-44810000D02*
X19357000Y-46113000D01*
X19358300Y-33611700D02*
X20660000Y-32310000D01*
X28375200Y-59945200D02*
X36793400Y-59945200D01*
X20660000Y-57310000D02*
X19358100Y-58611900D01*
X21969400Y-46119400D02*
X20660000Y-44810000D01*
X19357000Y-46113000D02*
X16883000Y-46113000D01*
X45833600Y-50905000D02*
X48066800Y-50905000D01*
X10500000Y-75500000D02*
X17500000Y-82500000D01*
X17500000Y-82500000D02*
X29800000Y-70200000D01*
X25740000Y-32310000D02*
X24434200Y-33615800D01*
X25740000Y-44810000D02*
X24430600Y-46119400D01*
X16881900Y-58611900D02*
X15580000Y-57310000D01*
X15580000Y-32310000D02*
X16881700Y-33611700D01*
X36793400Y-59945200D02*
X45833600Y-50905000D01*
%TO.N,K2*%
D27*
X27015300Y-27771100D02*
X28059500Y-26726900D01*
X22658900Y-27771100D02*
X27015300Y-27771100D01*
X28059500Y-26726900D02*
X32693100Y-26726900D01*
X32693100Y-26726900D02*
X36000000Y-23420000D01*
X18120000Y-32310000D02*
X22658900Y-27771100D01*
%TO.N,K3*%
X35423900Y-27996100D02*
X40000000Y-23420000D01*
X23200000Y-32310000D02*
X27513900Y-27996100D01*
X27513900Y-27996100D02*
X35423900Y-27996100D01*
%TO.N,K4*%
X26421100Y-30454700D02*
X28276400Y-32310000D01*
X28276400Y-32310000D02*
X28280000Y-32310000D01*
X44000000Y-23420000D02*
X38972200Y-28447800D01*
X26421100Y-29852900D02*
X26421100Y-30454700D01*
X38972200Y-28447800D02*
X27826200Y-28447800D01*
X27826200Y-28447800D02*
X26421100Y-29852900D01*
%TO.N,GND*%
D28*
X24512000Y-38502000D02*
X23200000Y-37190000D01*
X23200000Y-24690000D02*
X21894700Y-23384700D01*
X13255000Y-24475000D02*
X14341700Y-23388300D01*
X13040000Y-24690000D02*
X13255000Y-24475000D01*
X21896800Y-50993200D02*
X19423200Y-50993200D01*
X13040000Y-38514000D02*
X16796000Y-38514000D01*
X21890400Y-35880400D02*
X23200000Y-37190000D01*
X16796000Y-38514000D02*
X18120000Y-37190000D01*
X19425300Y-23384700D02*
X18120000Y-24690000D01*
X26968000Y-51002000D02*
X28280000Y-49690000D01*
X19429600Y-35880400D02*
X21890400Y-35880400D01*
X26968000Y-38502000D02*
X24512000Y-38502000D01*
X12726000Y-38514000D02*
X13040000Y-38514000D01*
X7310000Y-18530000D02*
X13255000Y-24475000D01*
X4770000Y-18530000D02*
X7310000Y-18530000D01*
X41514300Y-51643100D02*
X39688000Y-53469400D01*
X23200000Y-49690000D02*
X24512000Y-51002000D01*
X24512000Y-51002000D02*
X26968000Y-51002000D01*
X13040000Y-38514000D02*
X13040000Y-37190000D01*
X23200000Y-49690000D02*
X21896800Y-50993200D01*
X14341700Y-23388300D02*
X16818300Y-23388300D01*
X19423200Y-50993200D02*
X18120000Y-49690000D01*
X7310000Y-43930000D02*
X12726000Y-38514000D01*
X28280000Y-37190000D02*
X26968000Y-38502000D01*
X18120000Y-37190000D02*
X19429600Y-35880400D01*
X16818300Y-23388300D02*
X18120000Y-24690000D01*
X21894700Y-23384700D02*
X19425300Y-23384700D01*
X39688000Y-53469400D02*
X29600200Y-53469400D01*
%TO.N,GPIO22*%
D27*
X18640600Y-26709400D02*
X17760500Y-26709400D01*
X17102400Y-27367500D02*
X5987500Y-27367500D01*
X17760500Y-26709400D02*
X17102400Y-27367500D01*
X20660000Y-24690000D02*
X18640600Y-26709400D01*
X5987500Y-27367500D02*
X4770000Y-26150000D01*
%TO.N,GPIO27*%
X9388400Y-25868000D02*
X14402000Y-25868000D01*
X8375400Y-24855000D02*
X9388400Y-25868000D01*
X6015000Y-24855000D02*
X8375400Y-24855000D01*
X4770000Y-23610000D02*
X6015000Y-24855000D01*
X14402000Y-25868000D02*
X15580000Y-24690000D01*
%TO.N,GPIO17*%
X6040000Y-22340000D02*
X8150000Y-22340000D01*
X4770000Y-21070000D02*
X6040000Y-22340000D01*
X8150000Y-22340000D02*
X10500000Y-24690000D01*
%TO.N,S_BLR*%
X34833600Y-34750000D02*
X38830000Y-34750000D01*
X32478100Y-37105500D02*
X34833600Y-34750000D01*
X38830000Y-34750000D02*
X40000000Y-33580000D01*
X30343000Y-37105500D02*
X32478100Y-37105500D01*
%TO.N,S_SCALA*%
X44000000Y-46080000D02*
X41874500Y-43954500D01*
X41874500Y-43954500D02*
X37002200Y-43954500D01*
%TO.N,ACC*%
D28*
X47500000Y-10500000D02*
X43871900Y-10500000D01*
X42660000Y-70200000D02*
X45500000Y-70200000D01*
X43871900Y-10500000D02*
X39593600Y-14778300D01*
%TO.N,K5*%
D27*
X29477400Y-36943200D02*
X29477400Y-37657600D01*
X17897800Y-39952200D02*
X13040000Y-44810000D01*
X29477400Y-37657600D02*
X27182900Y-39952100D01*
X32000000Y-35920000D02*
X30500600Y-35920000D01*
X27182900Y-39952100D02*
X17897800Y-39952100D01*
X30500600Y-35920000D02*
X29477400Y-36943200D01*
X17897800Y-39952100D02*
X17897800Y-39952200D01*
%TO.N,ACF*%
D28*
X57540000Y-27500000D02*
X54271600Y-30768400D01*
X54271600Y-30768400D02*
X54271600Y-56000000D01*
X42660000Y-67000000D02*
X45500000Y-67000000D01*
%TO.N,K6*%
D27*
X30955200Y-40964800D02*
X36000000Y-35920000D01*
X18120000Y-44810000D02*
X21965200Y-40964800D01*
X21965200Y-40964800D02*
X30955200Y-40964800D01*
%TO.N,K10*%
X18120000Y-57310000D02*
X23339300Y-52090700D01*
X23339300Y-52090700D02*
X32329300Y-52090700D01*
X32329300Y-52090700D02*
X36000000Y-48420000D01*
%TO.N,3V3*%
X11889900Y-31646900D02*
X11889900Y-32790300D01*
X23936700Y-34750000D02*
X33236600Y-34750000D01*
X8933000Y-28690000D02*
X11889900Y-31646900D01*
X23764500Y-34577800D02*
X23936700Y-34750000D01*
X38386600Y-29600000D02*
X48222700Y-29600000D01*
X33236600Y-34750000D02*
X38386600Y-29600000D01*
X13677400Y-34577800D02*
X23764500Y-34577800D01*
X7310000Y-28690000D02*
X8933000Y-28690000D01*
X4770000Y-28690000D02*
X7310000Y-28690000D01*
X11889900Y-32790300D02*
X13677400Y-34577800D01*
%TO.N,SDA*%
X44613100Y-15682100D02*
X46425600Y-17494600D01*
X4770000Y-10910000D02*
X24388200Y-10910000D01*
X24388200Y-10910000D02*
X29160300Y-15682100D01*
X29160300Y-15682100D02*
X44613100Y-15682100D01*
%TO.N,SCL*%
X4770000Y-13450000D02*
X7310000Y-13450000D01*
X9993800Y-16133800D02*
X43451400Y-16133800D01*
X7310000Y-13450000D02*
X9993800Y-16133800D01*
X43451400Y-16133800D02*
X44821500Y-17503900D01*
%TO.N,GPIO4*%
X4770000Y-15990000D02*
X7310000Y-15990000D01*
X7310000Y-15990000D02*
X8805700Y-17485700D01*
X8805700Y-17485700D02*
X43292000Y-17485700D01*
%TO.N,K11*%
X35877600Y-52542400D02*
X27967600Y-52542400D01*
X27967600Y-52542400D02*
X23200000Y-57310000D01*
X40000000Y-48420000D02*
X35877600Y-52542400D01*
%TO.N,+5V*%
D28*
X2230000Y-8370000D02*
X5661500Y-4938500D01*
X5661500Y-4938500D02*
X52058000Y-4938500D01*
X53961400Y-6841900D02*
X53961400Y-16880600D01*
X52058000Y-4938500D02*
X53961400Y-6841900D01*
%TO.N,S_CHIL*%
D27*
X22417500Y-5582500D02*
X41057000Y-5582500D01*
X21050000Y-6950000D02*
X22417500Y-5582500D01*
X41057000Y-5582500D02*
X42810700Y-7336200D01*
%TO.N,K9*%
X18711000Y-51639000D02*
X28781000Y-51639000D01*
X28781000Y-51639000D02*
X32000000Y-48420000D01*
X13040000Y-57310000D02*
X18711000Y-51639000D01*
%TO.N,K12*%
X37087400Y-57310000D02*
X44000000Y-50397400D01*
X28280000Y-57310000D02*
X37087400Y-57310000D01*
X44000000Y-50397400D02*
X44000000Y-48420000D01*
%TO.N,GPIO18*%
X2230000Y-21070000D02*
X3464700Y-19835300D01*
X6075300Y-19835300D02*
X7310000Y-21070000D01*
X3464700Y-19835300D02*
X6075300Y-19835300D01*
%TO.N,GPIO10*%
X4770000Y-31230000D02*
X7310000Y-31230000D01*
%TO.N,GPIO9*%
X4770000Y-33770000D02*
X7310000Y-33770000D01*
%TO.N,GPIO11*%
X4770000Y-36310000D02*
X7310000Y-36310000D01*
%TO.N,GPIO7*%
X2230000Y-38850000D02*
X3420600Y-37659400D01*
X3420600Y-37659400D02*
X6119400Y-37659400D01*
X6119400Y-37659400D02*
X7310000Y-38850000D01*
%TO.N,GPIO20*%
X2230000Y-54090000D02*
X3420600Y-55280600D01*
X3420600Y-55280600D02*
X6119400Y-55280600D01*
X6119400Y-55280600D02*
X7310000Y-54090000D01*
%TO.N,GPIO21*%
X2230000Y-56630000D02*
X3409400Y-57809400D01*
X3409400Y-57809400D02*
X6130600Y-57809400D01*
X6130600Y-57809400D02*
X7310000Y-56630000D01*
%TO.N,K8*%
X28280000Y-44810000D02*
X35110000Y-44810000D01*
X35110000Y-44810000D02*
X44000000Y-35920000D01*
%TO.N,GPIO23*%
X1797800Y-32535300D02*
X2678500Y-32535300D01*
X951800Y-31689300D02*
X1797800Y-32535300D01*
X3500000Y-34200800D02*
X4395700Y-35096500D01*
X2678500Y-32535300D02*
X3500000Y-33356800D01*
X4395700Y-35096500D02*
X23619600Y-35096500D01*
X951800Y-27428200D02*
X951800Y-31689300D01*
X3500000Y-33356800D02*
X3500000Y-34200800D01*
X2230000Y-26150000D02*
X951800Y-27428200D01*
X23619600Y-35096500D02*
X25713100Y-37190000D01*
X25713100Y-37190000D02*
X25740000Y-37190000D01*
%TO.N,GPIO12*%
X17782100Y-39189900D02*
X18660100Y-39189900D01*
X2230000Y-46470000D02*
X3438500Y-47678500D01*
X13491100Y-43480900D02*
X17782100Y-39189900D01*
X6552700Y-46470000D02*
X7172600Y-46470000D01*
X18660100Y-39189900D02*
X20660000Y-37190000D01*
X9763600Y-43480900D02*
X13491100Y-43480900D01*
X7172600Y-46470000D02*
X9292600Y-44350000D01*
X5344200Y-47678500D02*
X6552700Y-46470000D01*
X9292600Y-44350000D02*
X9292600Y-43951900D01*
X3438500Y-47678500D02*
X5344200Y-47678500D01*
X9292600Y-43951900D02*
X9763600Y-43480900D01*
%TO.N,GPIO5*%
X11734700Y-37625200D02*
X11734700Y-36768900D01*
X6065000Y-41041600D02*
X6843300Y-40263300D01*
X14370100Y-35980100D02*
X15580000Y-37190000D01*
X12523500Y-35980100D02*
X14370100Y-35980100D01*
X11734700Y-36768900D02*
X12523500Y-35980100D01*
X4770000Y-43930000D02*
X6065000Y-42635000D01*
X6065000Y-42635000D02*
X6065000Y-41041600D01*
X9096600Y-40263300D02*
X11734700Y-37625200D01*
X6843300Y-40263300D02*
X9096600Y-40263300D01*
%TO.N,GPIO6*%
X5221700Y-46018300D02*
X6886000Y-46018300D01*
X8840900Y-44063400D02*
X8840900Y-43706600D01*
X4770000Y-46470000D02*
X5221700Y-46018300D01*
X6886000Y-46018300D02*
X8840900Y-44063400D01*
X8840900Y-43706600D02*
X10829000Y-41718500D01*
%TO.N,GPIO13*%
X18790900Y-47820900D02*
X20660000Y-49690000D01*
X4770000Y-49010000D02*
X5959100Y-47820900D01*
X5959100Y-47820900D02*
X18790900Y-47820900D01*
%TO.N,GPIO19*%
X15580000Y-49690000D02*
X13720000Y-51550000D01*
X13720000Y-51550000D02*
X4770000Y-51550000D01*
%TO.N,GPIO24*%
X2230000Y-28690000D02*
X3535400Y-29995400D01*
X3535400Y-29995400D02*
X3535400Y-31674300D01*
X3535400Y-31674300D02*
X4291300Y-32430200D01*
X9566100Y-34348300D02*
X9903400Y-34348300D01*
X7648000Y-32430200D02*
X9566100Y-34348300D01*
X4291300Y-32430200D02*
X7648000Y-32430200D01*
%TD*%
D29*
X27147800Y-30153800D03*
X48066800Y-50905000D03*
X41514300Y-51643100D03*
X29600200Y-53469400D03*
X30343000Y-37105500D03*
X37002200Y-43954500D03*
X39593600Y-14778300D03*
X54271600Y-56000000D03*
X48222700Y-29600000D03*
X46425600Y-17494600D03*
X44821500Y-17503900D03*
X43292000Y-17485700D03*
X53961400Y-16880600D03*
X42810700Y-7336200D03*
X10829000Y-41718500D03*
X9903400Y-34348300D03*
X40000000Y-35920000D03*
X40000000Y-46080000D03*
X32000000Y-23420000D03*
X32000000Y-33580000D03*
X57600000Y-75000000D03*
X57600000Y-77540000D03*
X57600000Y-80080000D03*
X37000000Y-74500000D03*
X39540000Y-74500000D03*
X42080000Y-74500000D03*
X44620000Y-74500000D03*
X47160000Y-74500000D03*
X49700000Y-74500000D03*
X52240000Y-74500000D03*
X54780000Y-74500000D03*
X37000000Y-77040000D03*
X39540000Y-77040000D03*
X42080000Y-77040000D03*
X44620000Y-77040000D03*
X47160000Y-77040000D03*
X49700000Y-77040000D03*
X52240000Y-77040000D03*
X54780000Y-77040000D03*
X37000000Y-79580000D03*
X39540000Y-79580000D03*
X42080000Y-79580000D03*
X44620000Y-79580000D03*
X47160000Y-79580000D03*
X49700000Y-79580000D03*
X52240000Y-79580000D03*
X54780000Y-79580000D03*
X37000000Y-82120000D03*
X39540000Y-82120000D03*
X42080000Y-82120000D03*
X44620000Y-82120000D03*
X47160000Y-82120000D03*
X49700000Y-82120000D03*
X52240000Y-82120000D03*
X54780000Y-82120000D03*
X10500000Y-32310000D03*
X13040000Y-32310000D03*
X15580000Y-32310000D03*
X18120000Y-32310000D03*
X20660000Y-32310000D03*
X23200000Y-32310000D03*
X25740000Y-32310000D03*
X28280000Y-32310000D03*
X28280000Y-24690000D03*
X25740000Y-24690000D03*
X23200000Y-24690000D03*
X20660000Y-24690000D03*
X18120000Y-24690000D03*
X15580000Y-24690000D03*
X13040000Y-24690000D03*
X10500000Y-24690000D03*
X9350000Y-6950000D03*
X11850000Y-6950000D03*
X14350000Y-6950000D03*
X16850000Y-6950000D03*
X32750000Y-6950000D03*
X35250000Y-6950000D03*
X37750000Y-6950000D03*
X40250000Y-6950000D03*
X32500000Y-70200000D03*
X42660000Y-70200000D03*
X32000000Y-35920000D03*
X32000000Y-46080000D03*
X45500000Y-67000000D03*
X55660000Y-67000000D03*
X20500000Y-82500000D03*
X52500000Y-10500000D03*
X47500000Y-10500000D03*
X45500000Y-70200000D03*
X55660000Y-70200000D03*
X17500000Y-82500000D03*
X23500000Y-82500000D03*
X44450000Y-6950000D03*
X46950000Y-6950000D03*
X49450000Y-6950000D03*
X51950000Y-6950000D03*
X36000000Y-35920000D03*
X36000000Y-46080000D03*
X36000000Y-48420000D03*
X36000000Y-58580000D03*
X8500000Y-75500000D03*
X33500000Y-75500000D03*
X52460000Y-27500000D03*
X57540000Y-27500000D03*
X32500000Y-67000000D03*
X42660000Y-67000000D03*
X40000000Y-23420000D03*
X40000000Y-33580000D03*
X52700000Y-33000000D03*
X52700000Y-35500000D03*
X52700000Y-38000000D03*
X52700000Y-40500000D03*
X52700000Y-43000000D03*
X40000000Y-48420000D03*
X40000000Y-58580000D03*
X52700000Y-49750000D03*
X52700000Y-52250000D03*
X52700000Y-54750000D03*
X52700000Y-57250000D03*
X44000000Y-23420000D03*
X44000000Y-33580000D03*
X32000000Y-48420000D03*
X32000000Y-58580000D03*
X44000000Y-48420000D03*
X44000000Y-58580000D03*
X36000000Y-23420000D03*
X36000000Y-33580000D03*
X7310000Y-13450000D03*
X7310000Y-15990000D03*
X7310000Y-18530000D03*
X7310000Y-21070000D03*
X7310000Y-23610000D03*
X7310000Y-26150000D03*
X7310000Y-28690000D03*
X7310000Y-31230000D03*
X7310000Y-33770000D03*
X7310000Y-36310000D03*
X7310000Y-38850000D03*
X7310000Y-41390000D03*
X7310000Y-43930000D03*
X7310000Y-49010000D03*
X7310000Y-54090000D03*
X7310000Y-56630000D03*
X21050000Y-6950000D03*
X23550000Y-6950000D03*
X26050000Y-6950000D03*
X28550000Y-6950000D03*
X10500000Y-44810000D03*
X13040000Y-44810000D03*
X15580000Y-44810000D03*
X18120000Y-44810000D03*
X20660000Y-44810000D03*
X23200000Y-44810000D03*
X25740000Y-44810000D03*
X28280000Y-44810000D03*
X28280000Y-37190000D03*
X25740000Y-37190000D03*
X23200000Y-37190000D03*
X20660000Y-37190000D03*
X18120000Y-37190000D03*
X15580000Y-37190000D03*
X13040000Y-37190000D03*
X10500000Y-37190000D03*
X44000000Y-35920000D03*
X44000000Y-46080000D03*
X10500000Y-57310000D03*
X13040000Y-57310000D03*
X15580000Y-57310000D03*
X18120000Y-57310000D03*
X20660000Y-57310000D03*
X23200000Y-57310000D03*
X25740000Y-57310000D03*
X28280000Y-57310000D03*
X28280000Y-49690000D03*
X25740000Y-49690000D03*
X23200000Y-49690000D03*
X20660000Y-49690000D03*
X18120000Y-49690000D03*
X15580000Y-49690000D03*
X13040000Y-49690000D03*
X10500000Y-49690000D03*
X4770000Y-8370000D03*
X2230000Y-8370000D03*
X4770000Y-10910000D03*
X2230000Y-10910000D03*
X4770000Y-13450000D03*
X2230000Y-13450000D03*
X4770000Y-15990000D03*
X2230000Y-15990000D03*
X4770000Y-18530000D03*
X2230000Y-18530000D03*
X4770000Y-21070000D03*
X2230000Y-21070000D03*
X4770000Y-23610000D03*
X2230000Y-23610000D03*
X4770000Y-26150000D03*
X2230000Y-26150000D03*
X4770000Y-28690000D03*
X2230000Y-28690000D03*
X4770000Y-31230000D03*
X2230000Y-31230000D03*
X4770000Y-33770000D03*
X2230000Y-33770000D03*
X4770000Y-36310000D03*
X2230000Y-36310000D03*
X4770000Y-38850000D03*
X2230000Y-38850000D03*
X4770000Y-41390000D03*
X2230000Y-41390000D03*
X4770000Y-43930000D03*
X2230000Y-43930000D03*
X4770000Y-46470000D03*
X2230000Y-46470000D03*
X4770000Y-49010000D03*
X2230000Y-49010000D03*
X4770000Y-51550000D03*
X2230000Y-51550000D03*
X4770000Y-54090000D03*
X2230000Y-54090000D03*
X4770000Y-56630000D03*
X2230000Y-56630000D03*
M02*
