%TF.GenerationSoftware,KiCad,Pcbnew,10.0.6*%
%TF.CreationDate,2026-09-12T11:48:47-04:00*%
%TF.ProjectId,int-board,696e742d-626f-4617-9264-2e6b69636164,rev?*%
%TF.SameCoordinates,Original*%
%TF.FileFunction,Copper,L2,Bot*%
%TF.FilePolarity,Positive*%
%FSLAX46Y46*%
G04 Gerber Fmt 4.6, Leading zero omitted, Abs format (unit mm)*
G04 Created by KiCad (PCBNEW 10.0.6) date 2026-09-12 11:48:47*
%MOMM*%
%LPD*%
G01*
G04 APERTURE LIST*
G04 Aperture macros list*
%AMRoundRect*
0 Rectangle with rounded corners*
0 $1 Rounding radius*
0 $2 $3 $4 $5 $6 $7 $8 $9 X,Y pos of 4 corners*
0 Add a 4 corners polygon primitive as box body*
4,1,4,$2,$3,$4,$5,$6,$7,$8,$9,$2,$3,0*
0 Add four circle primitives for the rounded corners*
1,1,$1+$1,$2,$3*
1,1,$1+$1,$4,$5*
1,1,$1+$1,$6,$7*
1,1,$1+$1,$8,$9*
0 Add four rect primitives between the rounded corners*
20,1,$1+$1,$2,$3,$4,$5,0*
20,1,$1+$1,$4,$5,$6,$7,0*
20,1,$1+$1,$6,$7,$8,$9,0*
20,1,$1+$1,$8,$9,$2,$3,0*%
G04 Aperture macros list end*
%TA.AperFunction,ComponentPad*%
%ADD10C,1.800000*%
%TD*%
%TA.AperFunction,ComponentPad*%
%ADD11RoundRect,0.487500X-0.487500X-0.487500X0.487500X-0.487500X0.487500X0.487500X-0.487500X0.487500X0*%
%TD*%
%TA.AperFunction,ComponentPad*%
%ADD12C,1.950000*%
%TD*%
%TA.AperFunction,ComponentPad*%
%ADD13C,1.600000*%
%TD*%
%TA.AperFunction,ComponentPad*%
%ADD14RoundRect,0.450000X-0.450000X-0.450000X0.450000X-0.450000X0.450000X0.450000X-0.450000X0.450000X0*%
%TD*%
%TA.AperFunction,ComponentPad*%
%ADD15RoundRect,0.400000X-0.400000X-0.400000X0.400000X-0.400000X0.400000X0.400000X-0.400000X0.400000X0*%
%TD*%
%TA.AperFunction,ComponentPad*%
%ADD16RoundRect,0.249999X-0.850001X-0.850001X0.850001X-0.850001X0.850001X0.850001X-0.850001X0.850001X0*%
%TD*%
%TA.AperFunction,ComponentPad*%
%ADD17C,2.200000*%
%TD*%
%TA.AperFunction,ComponentPad*%
%ADD18RoundRect,0.250000X0.550000X-0.550000X0.550000X0.550000X-0.550000X0.550000X-0.550000X-0.550000X0*%
%TD*%
%TA.AperFunction,ComponentPad*%
%ADD19RoundRect,0.450000X0.450000X-0.450000X0.450000X0.450000X-0.450000X0.450000X-0.450000X-0.450000X0*%
%TD*%
%TA.AperFunction,ComponentPad*%
%ADD20RoundRect,0.487500X-0.487500X0.487500X-0.487500X-0.487500X0.487500X-0.487500X0.487500X0.487500X0*%
%TD*%
%TA.AperFunction,ComponentPad*%
%ADD21RoundRect,0.250000X-0.750000X-0.750000X0.750000X-0.750000X0.750000X0.750000X-0.750000X0.750000X0*%
%TD*%
%TA.AperFunction,ComponentPad*%
%ADD22C,2.000000*%
%TD*%
%TA.AperFunction,ComponentPad*%
%ADD23RoundRect,0.425000X-0.425000X-0.425000X0.425000X-0.425000X0.425000X0.425000X-0.425000X0.425000X0*%
%TD*%
%TA.AperFunction,ComponentPad*%
%ADD24C,1.700000*%
%TD*%
%TA.AperFunction,ViaPad*%
%ADD25C,0.800000*%
%TD*%
%TA.AperFunction,ViaPad*%
%ADD26C,1.000000*%
%TD*%
%TA.AperFunction,Conductor*%
%ADD27C,0.500000*%
%TD*%
%TA.AperFunction,Conductor*%
%ADD28C,0.250000*%
%TD*%
%ADD29C,0.350000*%
G04 APERTURE END LIST*
D10*
%TO.P,TP3,1*%
%TO.N,GND*%
X22500000Y-79000000D03*
%TD*%
D11*
%TO.P,J1,1*%
%TO.N,S_ZV*%
X9350000Y-6950000D03*
D12*
%TO.P,J1,2*%
%TO.N,S_DHW*%
X11850000Y-6950000D03*
%TO.P,J1,3*%
%TO.N,S_BLR*%
X14350000Y-6950000D03*
%TO.P,J1,4*%
%TO.N,COM*%
X16850000Y-6950000D03*
%TD*%
D13*
%TO.P,PF1,1*%
%TO.N,N/C*%
X34000000Y-74500000D03*
%TO.P,PF1,2*%
X36540000Y-74500000D03*
%TO.P,PF1,3*%
X39080000Y-74500000D03*
%TO.P,PF1,4*%
X41620000Y-74500000D03*
%TO.P,PF1,5*%
X44160000Y-74500000D03*
%TO.P,PF1,6*%
X46700000Y-74500000D03*
%TO.P,PF1,7*%
X49240000Y-74500000D03*
%TO.P,PF1,8*%
X51780000Y-74500000D03*
%TO.P,PF1,9*%
X54320000Y-74500000D03*
%TO.P,PF1,10*%
X34000000Y-77040000D03*
%TO.P,PF1,11*%
X36540000Y-77040000D03*
%TO.P,PF1,12*%
X39080000Y-77040000D03*
%TO.P,PF1,13*%
X41620000Y-77040000D03*
%TO.P,PF1,14*%
X44160000Y-77040000D03*
%TO.P,PF1,15*%
X46700000Y-77040000D03*
%TO.P,PF1,16*%
X49240000Y-77040000D03*
%TO.P,PF1,17*%
X51780000Y-77040000D03*
%TO.P,PF1,18*%
X54320000Y-77040000D03*
%TO.P,PF1,19*%
X34000000Y-79580000D03*
%TO.P,PF1,20*%
X36540000Y-79580000D03*
%TO.P,PF1,21*%
X39080000Y-79580000D03*
%TO.P,PF1,22*%
X41620000Y-79580000D03*
%TO.P,PF1,23*%
X44160000Y-79580000D03*
%TO.P,PF1,24*%
X46700000Y-79580000D03*
%TO.P,PF1,25*%
X49240000Y-79580000D03*
%TO.P,PF1,26*%
X51780000Y-79580000D03*
%TO.P,PF1,27*%
X54320000Y-79580000D03*
%TO.P,PF1,28*%
X34000000Y-82120000D03*
%TO.P,PF1,29*%
X36540000Y-82120000D03*
%TO.P,PF1,30*%
X39080000Y-82120000D03*
%TO.P,PF1,31*%
X41620000Y-82120000D03*
%TO.P,PF1,32*%
X44160000Y-82120000D03*
%TO.P,PF1,33*%
X46700000Y-82120000D03*
%TO.P,PF1,34*%
X49240000Y-82120000D03*
%TO.P,PF1,35*%
X51780000Y-82120000D03*
%TO.P,PF1,36*%
X54320000Y-82120000D03*
%TD*%
D14*
%TO.P,RV1,1*%
%TO.N,ACF*%
X7500000Y-79000000D03*
D10*
%TO.P,RV1,2*%
%TO.N,ACC*%
X12500000Y-79000000D03*
%TD*%
D11*
%TO.P,J3,1*%
%TO.N,S_DEHUM*%
X32750000Y-6950000D03*
D12*
%TO.P,J3,2*%
%TO.N,S_SCALA*%
X35250000Y-6950000D03*
%TO.P,J3,3*%
%TO.N,S_HPHEAT*%
X37750000Y-6950000D03*
%TO.P,J3,4*%
%TO.N,COM*%
X40250000Y-6950000D03*
%TD*%
D11*
%TO.P,J4,1*%
%TO.N,ACR*%
X44450000Y-6950000D03*
D12*
%TO.P,J4,2*%
%TO.N,ACC*%
X46950000Y-6950000D03*
%TO.P,J4,3*%
%TO.N,S_SP-D*%
X49450000Y-6950000D03*
%TO.P,J4,4*%
%TO.N,COM*%
X51950000Y-6950000D03*
%TD*%
D15*
%TO.P,J8,1*%
%TO.N,S_SP-C*%
X27500000Y-76500000D03*
D13*
%TO.P,J8,2*%
%TO.N,S_SP-E*%
X27500000Y-79040000D03*
%TO.P,J8,3*%
%TO.N,COM*%
X27500000Y-81580000D03*
%TD*%
D16*
%TO.P,D3,1*%
%TO.N,ACF*%
X45500000Y-67000000D03*
D17*
%TO.P,D3,2*%
%TO.N,COM*%
X55660000Y-67000000D03*
%TD*%
D10*
%TO.P,TP1,1*%
%TO.N,VS*%
X16500000Y-79000000D03*
%TD*%
D18*
%TO.P,U2,1*%
%TO.N,VS*%
X10500000Y-44810000D03*
D13*
%TO.P,U2,2*%
%TO.N,K5*%
X13040000Y-44810000D03*
%TO.P,U2,3*%
%TO.N,VS*%
X15580000Y-44810000D03*
%TO.P,U2,4*%
%TO.N,K6*%
X18120000Y-44810000D03*
%TO.P,U2,5*%
%TO.N,VS*%
X20660000Y-44810000D03*
%TO.P,U2,6*%
%TO.N,K7*%
X23200000Y-44810000D03*
%TO.P,U2,7*%
%TO.N,VS*%
X25740000Y-44810000D03*
%TO.P,U2,8*%
%TO.N,K8*%
X28280000Y-44810000D03*
%TO.P,U2,9*%
%TO.N,GND*%
X28280000Y-37190000D03*
%TO.P,U2,10*%
%TO.N,GPIO23*%
X25740000Y-37190000D03*
%TO.P,U2,11*%
%TO.N,GND*%
X23200000Y-37190000D03*
%TO.P,U2,12*%
%TO.N,GPIO12*%
X20660000Y-37190000D03*
%TO.P,U2,13*%
%TO.N,GND*%
X18120000Y-37190000D03*
%TO.P,U2,14*%
%TO.N,GPIO5*%
X15580000Y-37190000D03*
%TO.P,U2,15*%
%TO.N,GND*%
X13040000Y-37190000D03*
%TO.P,U2,16*%
%TO.N,GPIO6*%
X10500000Y-37190000D03*
%TD*%
%TO.P,J9,3*%
%TO.N,SCL*%
X7310000Y-13450000D03*
%TO.P,J9,4*%
%TO.N,GPIO4*%
X7310000Y-15990000D03*
%TO.P,J9,5*%
%TO.N,GND*%
X7310000Y-18530000D03*
%TO.P,J9,6*%
%TO.N,GPIO18*%
X7310000Y-21070000D03*
%TO.P,J9,7*%
%TO.N,SDA*%
X7310000Y-23610000D03*
%TO.P,J9,8*%
%TO.N,+5V*%
X7310000Y-26150000D03*
%TO.P,J9,9*%
%TO.N,3V3*%
X7310000Y-28690000D03*
%TO.P,J9,10*%
%TO.N,GPIO10*%
X7310000Y-31230000D03*
%TO.P,J9,11*%
%TO.N,GPIO9*%
X7310000Y-33770000D03*
%TO.P,J9,12*%
%TO.N,GPIO11*%
X7310000Y-36310000D03*
%TO.P,J9,13*%
%TO.N,GPIO7*%
X7310000Y-38850000D03*
%TO.P,J9,14*%
%TO.N,GPIO8*%
X7310000Y-41390000D03*
%TO.P,J9,15*%
%TO.N,GND*%
X7310000Y-43930000D03*
%TO.P,J9,17*%
X7310000Y-49010000D03*
%TO.P,J9,19*%
%TO.N,GPIO20*%
X7310000Y-54090000D03*
%TO.P,J9,20*%
%TO.N,GPIO21*%
X7310000Y-56630000D03*
%TD*%
D19*
%TO.P,F1,1*%
%TO.N,ACR*%
X55000000Y-28540000D03*
D10*
%TO.P,F1,2*%
%TO.N,ACF*%
X55000000Y-23460000D03*
%TD*%
D13*
%TO.P,R2,1*%
%TO.N,K2*%
X36000000Y-23420000D03*
%TO.P,R2,2*%
%TO.N,S_DHW*%
X36000000Y-33580000D03*
%TD*%
%TO.P,R3,1*%
%TO.N,K3*%
X40000000Y-23420000D03*
%TO.P,R3,2*%
%TO.N,S_BLR*%
X40000000Y-33580000D03*
%TD*%
D20*
%TO.P,J7,1*%
%TO.N,VS*%
X52700000Y-49750000D03*
D12*
%TO.P,J7,2*%
%TO.N,COM*%
X52700000Y-52250000D03*
%TO.P,J7,3*%
%TO.N,+5V*%
X52700000Y-54750000D03*
%TO.P,J7,4*%
%TO.N,GND*%
X52700000Y-57250000D03*
%TD*%
D13*
%TO.P,R12,1*%
%TO.N,K12*%
X44000000Y-48420000D03*
%TO.P,R12,2*%
%TO.N,S_SP-E*%
X44000000Y-58580000D03*
%TD*%
D18*
%TO.P,U3,1*%
%TO.N,VS*%
X10500000Y-57310000D03*
D13*
%TO.P,U3,2*%
%TO.N,K9*%
X13040000Y-57310000D03*
%TO.P,U3,3*%
%TO.N,VS*%
X15580000Y-57310000D03*
%TO.P,U3,4*%
%TO.N,K10*%
X18120000Y-57310000D03*
%TO.P,U3,5*%
%TO.N,VS*%
X20660000Y-57310000D03*
%TO.P,U3,6*%
%TO.N,K11*%
X23200000Y-57310000D03*
%TO.P,U3,7*%
%TO.N,VS*%
X25740000Y-57310000D03*
%TO.P,U3,8*%
%TO.N,K12*%
X28280000Y-57310000D03*
%TO.P,U3,9*%
%TO.N,GND*%
X28280000Y-49690000D03*
%TO.P,U3,10*%
%TO.N,GPIO16*%
X25740000Y-49690000D03*
%TO.P,U3,11*%
%TO.N,GND*%
X23200000Y-49690000D03*
%TO.P,U3,12*%
%TO.N,GPIO13*%
X20660000Y-49690000D03*
%TO.P,U3,13*%
%TO.N,GND*%
X18120000Y-49690000D03*
%TO.P,U3,14*%
%TO.N,GPIO19*%
X15580000Y-49690000D03*
%TO.P,U3,15*%
%TO.N,GND*%
X13040000Y-49690000D03*
%TO.P,U3,16*%
%TO.N,GPIO24*%
X10500000Y-49690000D03*
%TD*%
%TO.P,R4,1*%
%TO.N,K4*%
X44000000Y-23420000D03*
%TO.P,R4,2*%
%TO.N,S_CHIL*%
X44000000Y-33580000D03*
%TD*%
D16*
%TO.P,D1,1*%
%TO.N,VS*%
X32500000Y-67000000D03*
D17*
%TO.P,D1,2*%
%TO.N,ACF*%
X42660000Y-67000000D03*
%TD*%
D16*
%TO.P,D2,1*%
%TO.N,VS*%
X32500000Y-70200000D03*
D17*
%TO.P,D2,2*%
%TO.N,ACC*%
X42660000Y-70200000D03*
%TD*%
D13*
%TO.P,R5,1*%
%TO.N,K5*%
X32000000Y-35920000D03*
%TO.P,R5,2*%
%TO.N,S_BOS1*%
X32000000Y-46080000D03*
%TD*%
D21*
%TO.P,C1,1*%
%TO.N,VS*%
X19000000Y-70000000D03*
D22*
%TO.P,C1,2*%
%TO.N,COM*%
X24000000Y-70000000D03*
%TD*%
D13*
%TO.P,R8,1*%
%TO.N,K8*%
X44000000Y-35920000D03*
%TO.P,R8,2*%
%TO.N,S_SCALA*%
X44000000Y-46080000D03*
%TD*%
%TO.P,R6,1*%
%TO.N,K6*%
X36000000Y-35920000D03*
%TO.P,R6,2*%
%TO.N,S_BOS2*%
X36000000Y-46080000D03*
%TD*%
D11*
%TO.P,J2,1*%
%TO.N,S_CHIL*%
X21050000Y-6950000D03*
D12*
%TO.P,J2,2*%
%TO.N,S_BOS1*%
X23550000Y-6950000D03*
%TO.P,J2,3*%
%TO.N,S_BOS2*%
X26050000Y-6950000D03*
%TO.P,J2,4*%
%TO.N,COM*%
X28550000Y-6950000D03*
%TD*%
D13*
%TO.P,R7,1*%
%TO.N,K7*%
X40000000Y-35920000D03*
%TO.P,R7,2*%
%TO.N,S_DEHUM*%
X40000000Y-46080000D03*
%TD*%
D16*
%TO.P,D4,1*%
%TO.N,ACC*%
X45500000Y-70200000D03*
D17*
%TO.P,D4,2*%
%TO.N,COM*%
X55660000Y-70200000D03*
%TD*%
D18*
%TO.P,U1,1*%
%TO.N,VS*%
X10500000Y-32310000D03*
D13*
%TO.P,U1,2*%
%TO.N,K1*%
X13040000Y-32310000D03*
%TO.P,U1,3*%
%TO.N,VS*%
X15580000Y-32310000D03*
%TO.P,U1,4*%
%TO.N,K2*%
X18120000Y-32310000D03*
%TO.P,U1,5*%
%TO.N,VS*%
X20660000Y-32310000D03*
%TO.P,U1,6*%
%TO.N,K3*%
X23200000Y-32310000D03*
%TO.P,U1,7*%
%TO.N,VS*%
X25740000Y-32310000D03*
%TO.P,U1,8*%
%TO.N,K4*%
X28280000Y-32310000D03*
%TO.P,U1,9*%
%TO.N,GND*%
X28280000Y-24690000D03*
%TO.P,U1,10*%
%TO.N,GPIO25*%
X25740000Y-24690000D03*
%TO.P,U1,11*%
%TO.N,GND*%
X23200000Y-24690000D03*
%TO.P,U1,12*%
%TO.N,GPIO22*%
X20660000Y-24690000D03*
%TO.P,U1,13*%
%TO.N,GND*%
X18120000Y-24690000D03*
%TO.P,U1,14*%
%TO.N,GPIO27*%
X15580000Y-24690000D03*
%TO.P,U1,15*%
%TO.N,GND*%
X13040000Y-24690000D03*
%TO.P,U1,16*%
%TO.N,GPIO17*%
X10500000Y-24690000D03*
%TD*%
D10*
%TO.P,TP2,1*%
%TO.N,COM*%
X19500000Y-79000000D03*
%TD*%
D20*
%TO.P,J6,1*%
%TO.N,3V3*%
X52700000Y-33000000D03*
D12*
%TO.P,J6,2*%
%TO.N,SDA*%
X52700000Y-35500000D03*
%TO.P,J6,3*%
%TO.N,SCL*%
X52700000Y-38000000D03*
%TO.P,J6,4*%
%TO.N,GPIO4*%
X52700000Y-40500000D03*
%TO.P,J6,5*%
%TO.N,GND*%
X52700000Y-43000000D03*
%TD*%
D13*
%TO.P,R9,1*%
%TO.N,K9*%
X32000000Y-48420000D03*
%TO.P,R9,2*%
%TO.N,S_HPHEAT*%
X32000000Y-58580000D03*
%TD*%
%TO.P,R1,1*%
%TO.N,K1*%
X32000000Y-23420000D03*
%TO.P,R1,2*%
%TO.N,S_ZV*%
X32000000Y-33580000D03*
%TD*%
%TO.P,R10,1*%
%TO.N,K10*%
X36000000Y-48420000D03*
%TO.P,R10,2*%
%TO.N,S_SP-D*%
X36000000Y-58580000D03*
%TD*%
%TO.P,R11,1*%
%TO.N,K11*%
X40000000Y-48420000D03*
%TO.P,R11,2*%
%TO.N,S_SP-C*%
X40000000Y-58580000D03*
%TD*%
D23*
%TO.P,J5,1*%
%TO.N,N/C*%
X4770000Y-8370000D03*
D24*
%TO.P,J5,2*%
%TO.N,+5V*%
X2230000Y-8370000D03*
%TO.P,J5,3*%
%TO.N,SDA*%
X4770000Y-10910000D03*
%TO.P,J5,4*%
%TO.N,+5V*%
X2230000Y-10910000D03*
%TO.P,J5,5*%
%TO.N,SCL*%
X4770000Y-13450000D03*
%TO.P,J5,6*%
%TO.N,GND*%
X2230000Y-13450000D03*
%TO.P,J5,7*%
%TO.N,GPIO4*%
X4770000Y-15990000D03*
%TO.P,J5,8*%
%TO.N,N/C*%
X2230000Y-15990000D03*
%TO.P,J5,9*%
%TO.N,GND*%
X4770000Y-18530000D03*
%TO.P,J5,10*%
%TO.N,N/C*%
X2230000Y-18530000D03*
%TO.P,J5,11*%
%TO.N,GPIO17*%
X4770000Y-21070000D03*
%TO.P,J5,12*%
%TO.N,GPIO18*%
X2230000Y-21070000D03*
%TO.P,J5,13*%
%TO.N,GPIO27*%
X4770000Y-23610000D03*
%TO.P,J5,14*%
%TO.N,GND*%
X2230000Y-23610000D03*
%TO.P,J5,15*%
%TO.N,GPIO22*%
X4770000Y-26150000D03*
%TO.P,J5,16*%
%TO.N,GPIO23*%
X2230000Y-26150000D03*
%TO.P,J5,17*%
%TO.N,3V3*%
X4770000Y-28690000D03*
%TO.P,J5,18*%
%TO.N,GPIO24*%
X2230000Y-28690000D03*
%TO.P,J5,19*%
%TO.N,GPIO10*%
X4770000Y-31230000D03*
%TO.P,J5,20*%
%TO.N,GND*%
X2230000Y-31230000D03*
%TO.P,J5,21*%
%TO.N,GPIO9*%
X4770000Y-33770000D03*
%TO.P,J5,22*%
%TO.N,GPIO25*%
X2230000Y-33770000D03*
%TO.P,J5,23*%
%TO.N,GPIO11*%
X4770000Y-36310000D03*
%TO.P,J5,24*%
%TO.N,GPIO8*%
X2230000Y-36310000D03*
%TO.P,J5,25*%
%TO.N,N/C*%
X4770000Y-38850000D03*
%TO.P,J5,26*%
%TO.N,GPIO7*%
X2230000Y-38850000D03*
%TO.P,J5,27*%
%TO.N,N/C*%
X4770000Y-41390000D03*
%TO.P,J5,28*%
X2230000Y-41390000D03*
%TO.P,J5,29*%
%TO.N,GPIO5*%
X4770000Y-43930000D03*
%TO.P,J5,30*%
%TO.N,GND*%
X2230000Y-43930000D03*
%TO.P,J5,31*%
%TO.N,GPIO6*%
X4770000Y-46470000D03*
%TO.P,J5,32*%
%TO.N,GPIO12*%
X2230000Y-46470000D03*
%TO.P,J5,33*%
%TO.N,GPIO13*%
X4770000Y-49010000D03*
%TO.P,J5,34*%
%TO.N,GND*%
X2230000Y-49010000D03*
%TO.P,J5,35*%
%TO.N,GPIO19*%
X4770000Y-51550000D03*
%TO.P,J5,36*%
%TO.N,GPIO16*%
X2230000Y-51550000D03*
%TO.P,J5,37*%
%TO.N,N/C*%
X4770000Y-54090000D03*
%TO.P,J5,38*%
%TO.N,GPIO20*%
X2230000Y-54090000D03*
%TO.P,J5,39*%
%TO.N,N/C*%
X4770000Y-56630000D03*
%TO.P,J5,40*%
%TO.N,GPIO21*%
X2230000Y-56630000D03*
%TD*%
D25*
%TO.N,S_BLR*%
X32561900Y-31301500D03*
D26*
%TO.N,ACF*%
X54615800Y-57108100D03*
D25*
%TO.N,S_HPHEAT*%
X39367100Y-40091800D03*
%TO.N,SCL*%
X40174500Y-16468400D03*
%TO.N,GPIO4*%
X38778200Y-16567200D03*
%TO.N,SDA*%
X41566200Y-16330000D03*
D26*
%TO.N,+5V*%
X29016400Y-30391700D03*
X47377200Y-54828200D03*
D25*
%TO.N,3V3*%
X42552100Y-17332100D03*
%TD*%
%TO.N,GND*%
D27*
X24505200Y-38495200D02*
X23200000Y-37190000D01*
X16814700Y-35884700D02*
X14345300Y-35884700D01*
X18120000Y-37190000D02*
X16814700Y-35884700D01*
X54181400Y-44481400D02*
X54181400Y-55768600D01*
X21887100Y-23377100D02*
X23200000Y-24690000D01*
X23200000Y-37190000D02*
X21898300Y-35888300D01*
X7310000Y-18530000D02*
X13040000Y-24260000D01*
X13040000Y-24260000D02*
X13040000Y-24690000D01*
X21898300Y-35888300D02*
X19421700Y-35888300D01*
X18120000Y-24690000D02*
X19432900Y-23377100D01*
X26978300Y-50991700D02*
X24501700Y-50991700D01*
X26974800Y-38495200D02*
X24505200Y-38495200D01*
X21898300Y-50991700D02*
X19421700Y-50991700D01*
X19421700Y-50991700D02*
X18120000Y-49690000D01*
X9291700Y-50991700D02*
X11738300Y-50991700D01*
X23200000Y-49690000D02*
X21898300Y-50991700D01*
X7310000Y-49010000D02*
X9291700Y-50991700D01*
X24501700Y-50991700D02*
X23200000Y-49690000D01*
X28280000Y-37190000D02*
X26974800Y-38495200D01*
X4770000Y-18530000D02*
X7310000Y-18530000D01*
X52700000Y-43000000D02*
X54181400Y-44481400D01*
X24512900Y-23377100D02*
X26967100Y-23377100D01*
X26967100Y-23377100D02*
X28280000Y-24690000D01*
X19421700Y-35888300D02*
X18120000Y-37190000D01*
X23200000Y-24690000D02*
X24512900Y-23377100D01*
X13040000Y-49690000D02*
X14341700Y-50991700D01*
X16818300Y-50991700D02*
X18120000Y-49690000D01*
X14341700Y-50991700D02*
X16818300Y-50991700D01*
X14345300Y-35884700D02*
X13040000Y-37190000D01*
X54181400Y-55768600D02*
X52700000Y-57250000D01*
X11738300Y-50991700D02*
X13040000Y-49690000D01*
X19432900Y-23377100D02*
X21887100Y-23377100D01*
X28280000Y-49690000D02*
X26978300Y-50991700D01*
%TO.N,S_BLR*%
D28*
X37721500Y-31301500D02*
X32561900Y-31301500D01*
X40000000Y-33580000D02*
X37721500Y-31301500D01*
%TO.N,COM*%
D27*
X38771400Y-8428600D02*
X40250000Y-6950000D01*
X30028600Y-8428600D02*
X38771400Y-8428600D01*
X41728600Y-8428600D02*
X40250000Y-6950000D01*
X29369200Y-83449200D02*
X54859200Y-83449200D01*
X28550000Y-6950000D02*
X27065500Y-8434500D01*
X50471400Y-8428600D02*
X41728600Y-8428600D01*
X27500000Y-81580000D02*
X29369200Y-83449200D01*
X27065500Y-8434500D02*
X18334500Y-8434500D01*
X55660000Y-82648400D02*
X55660000Y-70200000D01*
X22080000Y-81580000D02*
X27500000Y-81580000D01*
X18334500Y-8434500D02*
X16850000Y-6950000D01*
X54859200Y-83449200D02*
X55660000Y-82648400D01*
X28550000Y-6950000D02*
X30028600Y-8428600D01*
X51950000Y-6950000D02*
X50471400Y-8428600D01*
X19500000Y-79000000D02*
X22080000Y-81580000D01*
%TO.N,ACF*%
X56404300Y-24864300D02*
X56404300Y-55319600D01*
X56404300Y-55319600D02*
X54615800Y-57108100D01*
X55000000Y-23460000D02*
X56404300Y-24864300D01*
X42660000Y-67000000D02*
X37772400Y-71887600D01*
X37772400Y-71887600D02*
X14612400Y-71887600D01*
X14612400Y-71887600D02*
X7500000Y-79000000D01*
%TO.N,ACC*%
X40012400Y-72847600D02*
X42660000Y-70200000D01*
X18652400Y-72847600D02*
X40012400Y-72847600D01*
X12500000Y-79000000D02*
X18652400Y-72847600D01*
X45500000Y-70200000D02*
X42660000Y-70200000D01*
%TO.N,S_HPHEAT*%
D28*
X32000000Y-58580000D02*
X41126700Y-49453300D01*
X41126700Y-41851400D02*
X39367100Y-40091800D01*
X41126700Y-49453300D02*
X41126700Y-41851400D01*
%TO.N,VS*%
D27*
X21968200Y-46118200D02*
X24431800Y-46118200D01*
X19358300Y-33611700D02*
X20660000Y-32310000D01*
X19000000Y-70000000D02*
X20516000Y-68484000D01*
X20516000Y-68484000D02*
X32500000Y-68484000D01*
X14278300Y-46111700D02*
X15580000Y-44810000D01*
X11827000Y-58637000D02*
X10500000Y-57310000D01*
X15580000Y-32310000D02*
X16881700Y-33611700D01*
X15580000Y-57310000D02*
X14253000Y-58637000D01*
X11801700Y-33611700D02*
X14278300Y-33611700D01*
X19358300Y-46111700D02*
X20660000Y-44810000D01*
X24431800Y-46118200D02*
X25740000Y-44810000D01*
X16881700Y-46111700D02*
X19358300Y-46111700D01*
X32500000Y-68484000D02*
X32500000Y-67000000D01*
X20660000Y-44810000D02*
X21968200Y-46118200D01*
X16881700Y-33611700D02*
X19358300Y-33611700D01*
X15580000Y-44810000D02*
X16881700Y-46111700D01*
X10500000Y-32310000D02*
X11801700Y-33611700D01*
X14253000Y-58637000D02*
X11827000Y-58637000D01*
X10500000Y-44810000D02*
X11801700Y-46111700D01*
X11801700Y-46111700D02*
X14278300Y-46111700D01*
X14278300Y-33611700D02*
X15580000Y-32310000D01*
X32500000Y-70200000D02*
X32500000Y-68484000D01*
%TO.N,K5*%
D28*
X28316400Y-39603600D02*
X18246400Y-39603600D01*
X18246400Y-39603600D02*
X13040000Y-44810000D01*
X32000000Y-35920000D02*
X28316400Y-39603600D01*
%TO.N,K6*%
X31602100Y-40317900D02*
X22612100Y-40317900D01*
X22612100Y-40317900D02*
X18120000Y-44810000D01*
X36000000Y-35920000D02*
X31602100Y-40317900D01*
%TO.N,K7*%
X25680500Y-42329500D02*
X33590500Y-42329500D01*
X23200000Y-44810000D02*
X25680500Y-42329500D01*
X33590500Y-42329500D02*
X40000000Y-35920000D01*
%TO.N,K8*%
X42470100Y-35920000D02*
X33580100Y-44810000D01*
X44000000Y-35920000D02*
X42470100Y-35920000D01*
X33580100Y-44810000D02*
X28280000Y-44810000D01*
%TO.N,GPIO12*%
X3415900Y-45284100D02*
X2230000Y-46470000D01*
X14531700Y-38972600D02*
X9926100Y-43578200D01*
X20660000Y-37190000D02*
X18877400Y-38972600D01*
X9429400Y-43578200D02*
X7723500Y-45284100D01*
X7723500Y-45284100D02*
X3415900Y-45284100D01*
X18877400Y-38972600D02*
X14531700Y-38972600D01*
X9926100Y-43578200D02*
X9429400Y-43578200D01*
%TO.N,GPIO5*%
X15580000Y-37190000D02*
X10122300Y-42647700D01*
X6052300Y-42647700D02*
X4770000Y-43930000D01*
X10122300Y-42647700D02*
X6052300Y-42647700D01*
%TO.N,GPIO6*%
X1729500Y-47652700D02*
X3587300Y-47652700D01*
X6813700Y-40262400D02*
X6075400Y-41000700D01*
X6075400Y-41000700D02*
X6075400Y-41776600D01*
X7534900Y-40262400D02*
X6813700Y-40262400D01*
X5227400Y-42624600D02*
X1726400Y-42624600D01*
X6075400Y-41776600D02*
X5227400Y-42624600D01*
X10500000Y-37297300D02*
X7534900Y-40262400D01*
X949600Y-46872800D02*
X1729500Y-47652700D01*
X949600Y-43401400D02*
X949600Y-46872800D01*
X10500000Y-37190000D02*
X10500000Y-37297300D01*
X3587300Y-47652700D02*
X4770000Y-46470000D01*
X1726400Y-42624600D02*
X949600Y-43401400D01*
%TO.N,SCL*%
X7310000Y-13450000D02*
X37156100Y-13450000D01*
X4770000Y-13450000D02*
X7310000Y-13450000D01*
X37156100Y-13450000D02*
X40174500Y-16468400D01*
%TO.N,GPIO4*%
X7310000Y-15990000D02*
X7887200Y-16567200D01*
X7887200Y-16567200D02*
X38778200Y-16567200D01*
X4770000Y-15990000D02*
X7310000Y-15990000D01*
%TO.N,GPIO18*%
X2230000Y-21070000D02*
X3464700Y-19835300D01*
X6075300Y-19835300D02*
X7310000Y-21070000D01*
X3464700Y-19835300D02*
X6075300Y-19835300D01*
%TO.N,SDA*%
X4770000Y-10910000D02*
X36146200Y-10910000D01*
X36146200Y-10910000D02*
X41566200Y-16330000D01*
%TO.N,+5V*%
D27*
X42702600Y-30391700D02*
X29016400Y-30391700D01*
X47377100Y-54828200D02*
X47377100Y-35066200D01*
X47377100Y-35066200D02*
X42702600Y-30391700D01*
X47377200Y-54828200D02*
X47377100Y-54828200D01*
%TO.N,3V3*%
D28*
X3534500Y-18019000D02*
X4261100Y-17292400D01*
X38267800Y-17292400D02*
X38307500Y-17332100D01*
X2675000Y-24854800D02*
X1673400Y-24854800D01*
X1919400Y-19706700D02*
X2727200Y-19706700D01*
X956500Y-20669600D02*
X1919400Y-19706700D01*
X4770000Y-28690000D02*
X3454900Y-27374900D01*
X2727200Y-19706700D02*
X3534500Y-18899400D01*
X4261100Y-17292400D02*
X38267800Y-17292400D01*
X3534500Y-18899400D02*
X3534500Y-18019000D01*
X3454900Y-25634700D02*
X2675000Y-24854800D01*
X1673400Y-24854800D02*
X956500Y-24137900D01*
X956500Y-24137900D02*
X956500Y-20669600D01*
X7310000Y-28690000D02*
X4770000Y-28690000D01*
X38307500Y-17332100D02*
X42552100Y-17332100D01*
X3454900Y-27374900D02*
X3454900Y-25634700D01*
%TO.N,GPIO10*%
X4770000Y-31230000D02*
X7310000Y-31230000D01*
%TO.N,GPIO9*%
X4770000Y-33770000D02*
X7310000Y-33770000D01*
%TO.N,GPIO11*%
X4770000Y-36310000D02*
X7310000Y-36310000D01*
%TO.N,GPIO7*%
X6133300Y-37673300D02*
X3406700Y-37673300D01*
X3406700Y-37673300D02*
X2230000Y-38850000D01*
X7310000Y-38850000D02*
X6133300Y-37673300D01*
%TO.N,GPIO20*%
X3420600Y-52899400D02*
X6119400Y-52899400D01*
X6119400Y-52899400D02*
X7310000Y-54090000D01*
X2230000Y-54090000D02*
X3420600Y-52899400D01*
%TO.N,GPIO21*%
X6119400Y-55439400D02*
X7310000Y-56630000D01*
X2230000Y-56630000D02*
X3420600Y-55439400D01*
X3420600Y-55439400D02*
X6119400Y-55439400D01*
%TO.N,K2*%
X21796900Y-28633100D02*
X26929000Y-28633100D01*
X18120000Y-32310000D02*
X21796900Y-28633100D01*
X27329900Y-28232200D02*
X31187800Y-28232200D01*
X31187800Y-28232200D02*
X36000000Y-23420000D01*
X26929000Y-28633100D02*
X27329900Y-28232200D01*
%TO.N,K3*%
X40000000Y-23420000D02*
X34612300Y-28807700D01*
X25122700Y-30387300D02*
X23200000Y-32310000D01*
X34612300Y-28807700D02*
X27580000Y-28807700D01*
X26000400Y-30387300D02*
X25122700Y-30387300D01*
X27580000Y-28807700D02*
X26000400Y-30387300D01*
%TO.N,K12*%
X30678000Y-59708000D02*
X28280000Y-57310000D01*
X32712000Y-59708000D02*
X30678000Y-59708000D01*
X44000000Y-48420000D02*
X32712000Y-59708000D01*
%TO.N,K9*%
X32000000Y-48420000D02*
X28325800Y-52094200D01*
X28325800Y-52094200D02*
X18255800Y-52094200D01*
X18255800Y-52094200D02*
X13040000Y-57310000D01*
%TO.N,K10*%
X36000000Y-48420000D02*
X30559000Y-53861000D01*
X21569000Y-53861000D02*
X18120000Y-57310000D01*
X30559000Y-53861000D02*
X21569000Y-53861000D01*
%TO.N,K11*%
X33590500Y-54829500D02*
X25680500Y-54829500D01*
X40000000Y-48420000D02*
X33590500Y-54829500D01*
X25680500Y-54829500D02*
X23200000Y-57310000D01*
%TO.N,GPIO16*%
X5662600Y-47360100D02*
X5209700Y-47813000D01*
X3535400Y-50244600D02*
X2230000Y-51550000D01*
X25740000Y-49690000D02*
X23410100Y-47360100D01*
X3535400Y-48499800D02*
X3535400Y-50244600D01*
X5209700Y-47813000D02*
X4222200Y-47813000D01*
X4222200Y-47813000D02*
X3535400Y-48499800D01*
X23410100Y-47360100D02*
X5662600Y-47360100D01*
%TO.N,GPIO13*%
X18793300Y-47823300D02*
X20660000Y-49690000D01*
X5956700Y-47823300D02*
X18793300Y-47823300D01*
X4770000Y-49010000D02*
X5956700Y-47823300D01*
%TO.N,K4*%
X28124500Y-32154500D02*
X28280000Y-32310000D01*
X28650400Y-29514900D02*
X28124500Y-30040800D01*
X37905100Y-29514900D02*
X28650400Y-29514900D01*
X28124500Y-30040800D02*
X28124500Y-32154500D01*
X44000000Y-23420000D02*
X37905100Y-29514900D01*
%TO.N,K1*%
X22621000Y-28127200D02*
X17222800Y-28127200D01*
X22967800Y-27780400D02*
X22621000Y-28127200D01*
X17222800Y-28127200D02*
X13040000Y-32310000D01*
X27639600Y-27780400D02*
X22967800Y-27780400D01*
X32000000Y-23420000D02*
X27639600Y-27780400D01*
%TO.N,GPIO25*%
X9521400Y-30675300D02*
X7696700Y-32500000D01*
X25740000Y-24690000D02*
X25101300Y-24690000D01*
X22169900Y-27621400D02*
X16050500Y-27621400D01*
X3500000Y-32500000D02*
X2230000Y-33770000D01*
X25101300Y-24690000D02*
X22169900Y-27621400D01*
X7696700Y-32500000D02*
X3500000Y-32500000D01*
X16050500Y-27621400D02*
X12996600Y-30675300D01*
X12996600Y-30675300D02*
X9521400Y-30675300D01*
%TO.N,GPIO22*%
X4770000Y-26150000D02*
X5951000Y-27331000D01*
X14229300Y-26677400D02*
X18672600Y-26677400D01*
X5951000Y-27331000D02*
X13575700Y-27331000D01*
X13575700Y-27331000D02*
X14229300Y-26677400D01*
X18672600Y-26677400D02*
X20660000Y-24690000D01*
%TO.N,GPIO27*%
X6015000Y-24855000D02*
X8375400Y-24855000D01*
X9391500Y-25871100D02*
X14398900Y-25871100D01*
X4770000Y-23610000D02*
X6015000Y-24855000D01*
X14398900Y-25871100D02*
X15580000Y-24690000D01*
X8375400Y-24855000D02*
X9391500Y-25871100D01*
%TO.N,GPIO17*%
X4770000Y-21070000D02*
X6040000Y-22340000D01*
X8150000Y-22340000D02*
X10500000Y-24690000D01*
X6040000Y-22340000D02*
X8150000Y-22340000D01*
%TD*%
D29*
X32561900Y-31301500D03*
X54615800Y-57108100D03*
X39367100Y-40091800D03*
X40174500Y-16468400D03*
X38778200Y-16567200D03*
X41566200Y-16330000D03*
X29016400Y-30391700D03*
X47377200Y-54828200D03*
X42552100Y-17332100D03*
X22500000Y-79000000D03*
X9350000Y-6950000D03*
X11850000Y-6950000D03*
X14350000Y-6950000D03*
X16850000Y-6950000D03*
X34000000Y-74500000D03*
X36540000Y-74500000D03*
X39080000Y-74500000D03*
X41620000Y-74500000D03*
X44160000Y-74500000D03*
X46700000Y-74500000D03*
X49240000Y-74500000D03*
X51780000Y-74500000D03*
X54320000Y-74500000D03*
X34000000Y-77040000D03*
X36540000Y-77040000D03*
X39080000Y-77040000D03*
X41620000Y-77040000D03*
X44160000Y-77040000D03*
X46700000Y-77040000D03*
X49240000Y-77040000D03*
X51780000Y-77040000D03*
X54320000Y-77040000D03*
X34000000Y-79580000D03*
X36540000Y-79580000D03*
X39080000Y-79580000D03*
X41620000Y-79580000D03*
X44160000Y-79580000D03*
X46700000Y-79580000D03*
X49240000Y-79580000D03*
X51780000Y-79580000D03*
X54320000Y-79580000D03*
X34000000Y-82120000D03*
X36540000Y-82120000D03*
X39080000Y-82120000D03*
X41620000Y-82120000D03*
X44160000Y-82120000D03*
X46700000Y-82120000D03*
X49240000Y-82120000D03*
X51780000Y-82120000D03*
X54320000Y-82120000D03*
X7500000Y-79000000D03*
X12500000Y-79000000D03*
X32750000Y-6950000D03*
X35250000Y-6950000D03*
X37750000Y-6950000D03*
X40250000Y-6950000D03*
X44450000Y-6950000D03*
X46950000Y-6950000D03*
X49450000Y-6950000D03*
X51950000Y-6950000D03*
X27500000Y-76500000D03*
X27500000Y-79040000D03*
X27500000Y-81580000D03*
X45500000Y-67000000D03*
X55660000Y-67000000D03*
X16500000Y-79000000D03*
X10500000Y-44810000D03*
X13040000Y-44810000D03*
X15580000Y-44810000D03*
X18120000Y-44810000D03*
X20660000Y-44810000D03*
X23200000Y-44810000D03*
X25740000Y-44810000D03*
X28280000Y-44810000D03*
X28280000Y-37190000D03*
X25740000Y-37190000D03*
X23200000Y-37190000D03*
X20660000Y-37190000D03*
X18120000Y-37190000D03*
X15580000Y-37190000D03*
X13040000Y-37190000D03*
X10500000Y-37190000D03*
X7310000Y-13450000D03*
X7310000Y-15990000D03*
X7310000Y-18530000D03*
X7310000Y-21070000D03*
X7310000Y-23610000D03*
X7310000Y-26150000D03*
X7310000Y-28690000D03*
X7310000Y-31230000D03*
X7310000Y-33770000D03*
X7310000Y-36310000D03*
X7310000Y-38850000D03*
X7310000Y-41390000D03*
X7310000Y-43930000D03*
X7310000Y-49010000D03*
X7310000Y-54090000D03*
X7310000Y-56630000D03*
X55000000Y-28540000D03*
X55000000Y-23460000D03*
X36000000Y-23420000D03*
X36000000Y-33580000D03*
X40000000Y-23420000D03*
X40000000Y-33580000D03*
X52700000Y-49750000D03*
X52700000Y-52250000D03*
X52700000Y-54750000D03*
X52700000Y-57250000D03*
X44000000Y-48420000D03*
X44000000Y-58580000D03*
X10500000Y-57310000D03*
X13040000Y-57310000D03*
X15580000Y-57310000D03*
X18120000Y-57310000D03*
X20660000Y-57310000D03*
X23200000Y-57310000D03*
X25740000Y-57310000D03*
X28280000Y-57310000D03*
X28280000Y-49690000D03*
X25740000Y-49690000D03*
X23200000Y-49690000D03*
X20660000Y-49690000D03*
X18120000Y-49690000D03*
X15580000Y-49690000D03*
X13040000Y-49690000D03*
X10500000Y-49690000D03*
X44000000Y-23420000D03*
X44000000Y-33580000D03*
X32500000Y-67000000D03*
X42660000Y-67000000D03*
X32500000Y-70200000D03*
X42660000Y-70200000D03*
X32000000Y-35920000D03*
X32000000Y-46080000D03*
X19000000Y-70000000D03*
X24000000Y-70000000D03*
X44000000Y-35920000D03*
X44000000Y-46080000D03*
X36000000Y-35920000D03*
X36000000Y-46080000D03*
X21050000Y-6950000D03*
X23550000Y-6950000D03*
X26050000Y-6950000D03*
X28550000Y-6950000D03*
X40000000Y-35920000D03*
X40000000Y-46080000D03*
X45500000Y-70200000D03*
X55660000Y-70200000D03*
X10500000Y-32310000D03*
X13040000Y-32310000D03*
X15580000Y-32310000D03*
X18120000Y-32310000D03*
X20660000Y-32310000D03*
X23200000Y-32310000D03*
X25740000Y-32310000D03*
X28280000Y-32310000D03*
X28280000Y-24690000D03*
X25740000Y-24690000D03*
X23200000Y-24690000D03*
X20660000Y-24690000D03*
X18120000Y-24690000D03*
X15580000Y-24690000D03*
X13040000Y-24690000D03*
X10500000Y-24690000D03*
X19500000Y-79000000D03*
X52700000Y-33000000D03*
X52700000Y-35500000D03*
X52700000Y-38000000D03*
X52700000Y-40500000D03*
X52700000Y-43000000D03*
X32000000Y-48420000D03*
X32000000Y-58580000D03*
X32000000Y-23420000D03*
X32000000Y-33580000D03*
X36000000Y-48420000D03*
X36000000Y-58580000D03*
X40000000Y-48420000D03*
X40000000Y-58580000D03*
X4770000Y-8370000D03*
X2230000Y-8370000D03*
X4770000Y-10910000D03*
X2230000Y-10910000D03*
X4770000Y-13450000D03*
X2230000Y-13450000D03*
X4770000Y-15990000D03*
X2230000Y-15990000D03*
X4770000Y-18530000D03*
X2230000Y-18530000D03*
X4770000Y-21070000D03*
X2230000Y-21070000D03*
X4770000Y-23610000D03*
X2230000Y-23610000D03*
X4770000Y-26150000D03*
X2230000Y-26150000D03*
X4770000Y-28690000D03*
X2230000Y-28690000D03*
X4770000Y-31230000D03*
X2230000Y-31230000D03*
X4770000Y-33770000D03*
X2230000Y-33770000D03*
X4770000Y-36310000D03*
X2230000Y-36310000D03*
X4770000Y-38850000D03*
X2230000Y-38850000D03*
X4770000Y-41390000D03*
X2230000Y-41390000D03*
X4770000Y-43930000D03*
X2230000Y-43930000D03*
X4770000Y-46470000D03*
X2230000Y-46470000D03*
X4770000Y-49010000D03*
X2230000Y-49010000D03*
X4770000Y-51550000D03*
X2230000Y-51550000D03*
X4770000Y-54090000D03*
X2230000Y-54090000D03*
X4770000Y-56630000D03*
X2230000Y-56630000D03*
M02*
