G04 #@! TF.GenerationSoftware,KiCad,Pcbnew,10.0.6*
G04 #@! TF.CreationDate,2026-09-27T00:34:45-04:00*
G04 #@! TF.ProjectId,int-board,696e742d-626f-4617-9264-2e6b69636164,rev?*
G04 #@! TF.SameCoordinates,Original*
G04 #@! TF.FileFunction,Copper,L1,Top*
G04 #@! TF.FilePolarity,Positive*
%FSLAX46Y46*%
G04 Gerber Fmt 4.6, Leading zero omitted, Abs format (unit mm)*
G04 Created by KiCad (PCBNEW 10.0.6) date 2026-09-27 00:34:45*
%MOMM*%
%LPD*%
G01*
G04 APERTURE LIST*
G04 Aperture macros list*
%AMRoundRect*
0 Rectangle with rounded corners*
0 $1 Rounding radius*
0 $2 $3 $4 $5 $6 $7 $8 $9 X,Y pos of 4 corners*
0 Add a 4 corners polygon primitive as box body*
4,1,4,$2,$3,$4,$5,$6,$7,$8,$9,$2,$3,0*
0 Add four circle primitives for the rounded corners*
1,1,$1+$1,$2,$3*
1,1,$1+$1,$4,$5*
1,1,$1+$1,$6,$7*
1,1,$1+$1,$8,$9*
0 Add four rect primitives between the rounded corners*
20,1,$1+$1,$2,$3,$4,$5,0*
20,1,$1+$1,$4,$5,$6,$7,0*
20,1,$1+$1,$6,$7,$8,$9,0*
20,1,$1+$1,$8,$9,$2,$3,0*%
G04 Aperture macros list end*
G04 #@! TA.AperFunction,ComponentPad*
%ADD10C,1.600000*%
G04 #@! TD*
G04 #@! TA.AperFunction,ComponentPad*
%ADD11C,1.800000*%
G04 #@! TD*
G04 #@! TA.AperFunction,ComponentPad*
%ADD12RoundRect,0.487500X-0.487500X-0.487500X0.487500X-0.487500X0.487500X0.487500X-0.487500X0.487500X0*%
G04 #@! TD*
G04 #@! TA.AperFunction,ComponentPad*
%ADD13C,1.950000*%
G04 #@! TD*
G04 #@! TA.AperFunction,ComponentPad*
%ADD14RoundRect,0.250000X0.550000X-0.550000X0.550000X0.550000X-0.550000X0.550000X-0.550000X-0.550000X0*%
G04 #@! TD*
G04 #@! TA.AperFunction,SMDPad,CuDef*
%ADD15RoundRect,0.150000X0.700000X-0.150000X0.700000X0.150000X-0.700000X0.150000X-0.700000X-0.150000X0*%
G04 #@! TD*
G04 #@! TA.AperFunction,SMDPad,CuDef*
%ADD16RoundRect,0.250000X1.100000X-0.250000X1.100000X0.250000X-1.100000X0.250000X-1.100000X-0.250000X0*%
G04 #@! TD*
G04 #@! TA.AperFunction,ComponentPad*
%ADD17RoundRect,0.425000X-0.425000X-0.425000X0.425000X-0.425000X0.425000X0.425000X-0.425000X0.425000X0*%
G04 #@! TD*
G04 #@! TA.AperFunction,ComponentPad*
%ADD18C,1.700000*%
G04 #@! TD*
G04 #@! TA.AperFunction,ViaPad*
%ADD19C,0.800000*%
G04 #@! TD*
G04 #@! TA.AperFunction,ViaPad*
%ADD20C,1.000000*%
G04 #@! TD*
G04 #@! TA.AperFunction,Conductor*
%ADD21C,0.250000*%
G04 #@! TD*
G04 #@! TA.AperFunction,Conductor*
%ADD22C,0.500000*%
G04 #@! TD*
G04 #@! TA.AperFunction,Conductor*
%ADD23C,0.400000*%
G04 #@! TD*
G04 APERTURE END LIST*
D10*
G04 #@! TO.P,R11,1*
G04 #@! TO.N,K11*
X43200000Y-48420000D03*
G04 #@! TO.P,R11,2*
G04 #@! TO.N,S_DHWX*
X43200000Y-58580000D03*
G04 #@! TD*
G04 #@! TO.P,J9,3*
G04 #@! TO.N,SCL*
X7310000Y-13450000D03*
G04 #@! TO.P,J9,4*
G04 #@! TO.N,GPIO4*
X7310000Y-15990000D03*
G04 #@! TO.P,J9,5*
G04 #@! TO.N,GND*
X7310000Y-18530000D03*
G04 #@! TO.P,J9,6*
G04 #@! TO.N,GPIO18*
X7310000Y-21070000D03*
G04 #@! TO.P,J9,7*
G04 #@! TO.N,SDA*
X7310000Y-23610000D03*
G04 #@! TO.P,J9,8*
G04 #@! TO.N,+5V*
X7310000Y-26150000D03*
G04 #@! TO.P,J9,9*
G04 #@! TO.N,3V3*
X7310000Y-28690000D03*
G04 #@! TO.P,J9,10*
G04 #@! TO.N,GPIO10*
X7310000Y-31230000D03*
G04 #@! TO.P,J9,11*
G04 #@! TO.N,GPIO9*
X7310000Y-33770000D03*
G04 #@! TO.P,J9,12*
G04 #@! TO.N,GPIO11*
X7310000Y-36310000D03*
G04 #@! TO.P,J9,13*
G04 #@! TO.N,GPIO7*
X7310000Y-38850000D03*
G04 #@! TO.P,J9,14*
G04 #@! TO.N,GPIO8*
X7310000Y-41390000D03*
G04 #@! TO.P,J9,15*
G04 #@! TO.N,GND*
X7310000Y-43930000D03*
G04 #@! TO.P,J9,17*
X7310000Y-49010000D03*
G04 #@! TO.P,J9,19*
G04 #@! TO.N,GPIO20*
X7310000Y-54090000D03*
G04 #@! TO.P,J9,20*
G04 #@! TO.N,GPIO21*
X7310000Y-56630000D03*
G04 #@! TD*
G04 #@! TO.P,R5,1*
G04 #@! TO.N,K5*
X35200000Y-35920000D03*
G04 #@! TO.P,R5,2*
G04 #@! TO.N,S_BOS1*
X35200000Y-46080000D03*
G04 #@! TD*
D11*
G04 #@! TO.P,TP3,1*
G04 #@! TO.N,GND*
X46000000Y-81000000D03*
G04 #@! TD*
D10*
G04 #@! TO.P,R8,1*
G04 #@! TO.N,K8*
X47200000Y-35920000D03*
G04 #@! TO.P,R8,2*
G04 #@! TO.N,S_SCALA*
X47200000Y-46080000D03*
G04 #@! TD*
G04 #@! TO.P,R1,1*
G04 #@! TO.N,K1*
X35200000Y-23420000D03*
G04 #@! TO.P,R1,2*
G04 #@! TO.N,S_ZV*
X35200000Y-33580000D03*
G04 #@! TD*
D11*
G04 #@! TO.P,TP1,1*
G04 #@! TO.N,VS*
X40000000Y-81000000D03*
G04 #@! TD*
D10*
G04 #@! TO.P,R12,1*
G04 #@! TO.N,K12*
X47200000Y-48420000D03*
G04 #@! TO.P,R12,2*
G04 #@! TO.N,S_SP-E*
X47200000Y-58580000D03*
G04 #@! TD*
D12*
G04 #@! TO.P,J1,1*
G04 #@! TO.N,S_ZV*
X9350000Y-6950000D03*
D13*
G04 #@! TO.P,J1,2*
G04 #@! TO.N,S_DHW*
X11850000Y-6950000D03*
G04 #@! TO.P,J1,3*
G04 #@! TO.N,S_BLR*
X14350000Y-6950000D03*
G04 #@! TO.P,J1,4*
G04 #@! TO.N,COM*
X16850000Y-6950000D03*
G04 #@! TD*
D14*
G04 #@! TO.P,U3,1*
G04 #@! TO.N,VS*
X14000000Y-57310000D03*
D10*
G04 #@! TO.P,U3,2*
G04 #@! TO.N,K9*
X16540000Y-57310000D03*
G04 #@! TO.P,U3,3*
G04 #@! TO.N,VS*
X19080000Y-57310000D03*
G04 #@! TO.P,U3,4*
G04 #@! TO.N,K10*
X21620000Y-57310000D03*
G04 #@! TO.P,U3,5*
G04 #@! TO.N,VS*
X24160000Y-57310000D03*
G04 #@! TO.P,U3,6*
G04 #@! TO.N,K11*
X26700000Y-57310000D03*
G04 #@! TO.P,U3,7*
G04 #@! TO.N,VS*
X29240000Y-57310000D03*
G04 #@! TO.P,U3,8*
G04 #@! TO.N,K12*
X31780000Y-57310000D03*
G04 #@! TO.P,U3,9*
G04 #@! TO.N,GND*
X31780000Y-49690000D03*
G04 #@! TO.P,U3,10*
G04 #@! TO.N,GPIO16*
X29240000Y-49690000D03*
G04 #@! TO.P,U3,11*
G04 #@! TO.N,GND*
X26700000Y-49690000D03*
G04 #@! TO.P,U3,12*
G04 #@! TO.N,GPIO19*
X24160000Y-49690000D03*
G04 #@! TO.P,U3,13*
G04 #@! TO.N,GND*
X21620000Y-49690000D03*
G04 #@! TO.P,U3,14*
G04 #@! TO.N,GPIO13*
X19080000Y-49690000D03*
G04 #@! TO.P,U3,15*
G04 #@! TO.N,GND*
X16540000Y-49690000D03*
G04 #@! TO.P,U3,16*
G04 #@! TO.N,GPIO24*
X14000000Y-49690000D03*
G04 #@! TD*
G04 #@! TO.P,R9,1*
G04 #@! TO.N,K9*
X35200000Y-48420000D03*
G04 #@! TO.P,R9,2*
G04 #@! TO.N,S_HPHEAT*
X35200000Y-58580000D03*
G04 #@! TD*
G04 #@! TO.P,R6,1*
G04 #@! TO.N,K6*
X39200000Y-35920000D03*
G04 #@! TO.P,R6,2*
G04 #@! TO.N,S_BOS2*
X39200000Y-46080000D03*
G04 #@! TD*
D14*
G04 #@! TO.P,U1,1*
G04 #@! TO.N,VS*
X14000000Y-32310000D03*
D10*
G04 #@! TO.P,U1,2*
G04 #@! TO.N,K1*
X16540000Y-32310000D03*
G04 #@! TO.P,U1,3*
G04 #@! TO.N,VS*
X19080000Y-32310000D03*
G04 #@! TO.P,U1,4*
G04 #@! TO.N,K2*
X21620000Y-32310000D03*
G04 #@! TO.P,U1,5*
G04 #@! TO.N,VS*
X24160000Y-32310000D03*
G04 #@! TO.P,U1,6*
G04 #@! TO.N,K3*
X26700000Y-32310000D03*
G04 #@! TO.P,U1,7*
G04 #@! TO.N,VS*
X29240000Y-32310000D03*
G04 #@! TO.P,U1,8*
G04 #@! TO.N,K4*
X31780000Y-32310000D03*
G04 #@! TO.P,U1,9*
G04 #@! TO.N,GND*
X31780000Y-24690000D03*
G04 #@! TO.P,U1,10*
G04 #@! TO.N,GPIO25*
X29240000Y-24690000D03*
G04 #@! TO.P,U1,11*
G04 #@! TO.N,GND*
X26700000Y-24690000D03*
G04 #@! TO.P,U1,12*
G04 #@! TO.N,GPIO22*
X24160000Y-24690000D03*
G04 #@! TO.P,U1,13*
G04 #@! TO.N,GND*
X21620000Y-24690000D03*
G04 #@! TO.P,U1,14*
G04 #@! TO.N,GPIO27*
X19080000Y-24690000D03*
G04 #@! TO.P,U1,15*
G04 #@! TO.N,GND*
X16540000Y-24690000D03*
G04 #@! TO.P,U1,16*
G04 #@! TO.N,GPIO17*
X14000000Y-24690000D03*
G04 #@! TD*
G04 #@! TO.P,R7,1*
G04 #@! TO.N,K7*
X43200000Y-35920000D03*
G04 #@! TO.P,R7,2*
G04 #@! TO.N,S_DEHUM*
X43200000Y-46080000D03*
G04 #@! TD*
G04 #@! TO.P,R10,1*
G04 #@! TO.N,K10*
X39200000Y-48420000D03*
G04 #@! TO.P,R10,2*
G04 #@! TO.N,S_HPCOOL*
X39200000Y-58580000D03*
G04 #@! TD*
D15*
G04 #@! TO.P,J6,1*
G04 #@! TO.N,3V3*
X53305000Y-38250000D03*
G04 #@! TO.P,J6,2*
G04 #@! TO.N,SDA*
X53305000Y-37000000D03*
G04 #@! TO.P,J6,3*
G04 #@! TO.N,SCL*
X53305000Y-35750000D03*
G04 #@! TO.P,J6,4*
G04 #@! TO.N,GPIO4*
X53305000Y-34500000D03*
G04 #@! TO.P,J6,5*
G04 #@! TO.N,GND*
X53305000Y-33250000D03*
G04 #@! TO.P,J6,6*
G04 #@! TO.N,VS*
X53305000Y-32000000D03*
G04 #@! TO.P,J6,7*
G04 #@! TO.N,COM*
X53305000Y-30750000D03*
D16*
G04 #@! TO.P,J6,MP*
G04 #@! TO.N,N/C*
X56505000Y-40100000D03*
X56505000Y-28900000D03*
G04 #@! TD*
D10*
G04 #@! TO.P,R2,1*
G04 #@! TO.N,K2*
X39200000Y-23420000D03*
G04 #@! TO.P,R2,2*
G04 #@! TO.N,S_DHW*
X39200000Y-33580000D03*
G04 #@! TD*
D12*
G04 #@! TO.P,J4,1*
G04 #@! TO.N,S_HPCOOL*
X44450000Y-6950000D03*
D13*
G04 #@! TO.P,J4,2*
G04 #@! TO.N,S_DHWX*
X46950000Y-6950000D03*
G04 #@! TO.P,J4,3*
G04 #@! TO.N,S_SP-E*
X49450000Y-6950000D03*
G04 #@! TO.P,J4,4*
G04 #@! TO.N,COM*
X51950000Y-6950000D03*
G04 #@! TD*
D10*
G04 #@! TO.P,R3,1*
G04 #@! TO.N,K3*
X43200000Y-23420000D03*
G04 #@! TO.P,R3,2*
G04 #@! TO.N,S_BLR*
X43200000Y-33580000D03*
G04 #@! TD*
D14*
G04 #@! TO.P,U2,1*
G04 #@! TO.N,VS*
X14000000Y-44810000D03*
D10*
G04 #@! TO.P,U2,2*
G04 #@! TO.N,K5*
X16540000Y-44810000D03*
G04 #@! TO.P,U2,3*
G04 #@! TO.N,VS*
X19080000Y-44810000D03*
G04 #@! TO.P,U2,4*
G04 #@! TO.N,K6*
X21620000Y-44810000D03*
G04 #@! TO.P,U2,5*
G04 #@! TO.N,VS*
X24160000Y-44810000D03*
G04 #@! TO.P,U2,6*
G04 #@! TO.N,K7*
X26700000Y-44810000D03*
G04 #@! TO.P,U2,7*
G04 #@! TO.N,VS*
X29240000Y-44810000D03*
G04 #@! TO.P,U2,8*
G04 #@! TO.N,K8*
X31780000Y-44810000D03*
G04 #@! TO.P,U2,9*
G04 #@! TO.N,GND*
X31780000Y-37190000D03*
G04 #@! TO.P,U2,10*
G04 #@! TO.N,GPIO23*
X29240000Y-37190000D03*
G04 #@! TO.P,U2,11*
G04 #@! TO.N,GND*
X26700000Y-37190000D03*
G04 #@! TO.P,U2,12*
G04 #@! TO.N,GPIO12*
X24160000Y-37190000D03*
G04 #@! TO.P,U2,13*
G04 #@! TO.N,GND*
X21620000Y-37190000D03*
G04 #@! TO.P,U2,14*
G04 #@! TO.N,GPIO5*
X19080000Y-37190000D03*
G04 #@! TO.P,U2,15*
G04 #@! TO.N,GND*
X16540000Y-37190000D03*
G04 #@! TO.P,U2,16*
G04 #@! TO.N,GPIO6*
X14000000Y-37190000D03*
G04 #@! TD*
D12*
G04 #@! TO.P,J2,1*
G04 #@! TO.N,S_CHIL*
X21050000Y-6950000D03*
D13*
G04 #@! TO.P,J2,2*
G04 #@! TO.N,S_BOS1*
X23550000Y-6950000D03*
G04 #@! TO.P,J2,3*
G04 #@! TO.N,S_BOS2*
X26050000Y-6950000D03*
G04 #@! TO.P,J2,4*
G04 #@! TO.N,COM*
X28550000Y-6950000D03*
G04 #@! TD*
D11*
G04 #@! TO.P,TP2,1*
G04 #@! TO.N,COM*
X43000000Y-81000000D03*
G04 #@! TD*
D12*
G04 #@! TO.P,J3,1*
G04 #@! TO.N,S_DEHUM*
X32750000Y-6950000D03*
D13*
G04 #@! TO.P,J3,2*
G04 #@! TO.N,S_SCALA*
X35250000Y-6950000D03*
G04 #@! TO.P,J3,3*
G04 #@! TO.N,S_HPHEAT*
X37750000Y-6950000D03*
G04 #@! TO.P,J3,4*
G04 #@! TO.N,COM*
X40250000Y-6950000D03*
G04 #@! TD*
D10*
G04 #@! TO.P,R4,1*
G04 #@! TO.N,K4*
X47200000Y-23420000D03*
G04 #@! TO.P,R4,2*
G04 #@! TO.N,S_CHIL*
X47200000Y-33580000D03*
G04 #@! TD*
D17*
G04 #@! TO.P,J5,1*
G04 #@! TO.N,N/C*
X4770000Y-8370000D03*
D18*
G04 #@! TO.P,J5,2*
G04 #@! TO.N,+5V*
X2230000Y-8370000D03*
G04 #@! TO.P,J5,3*
G04 #@! TO.N,SDA*
X4770000Y-10910000D03*
G04 #@! TO.P,J5,4*
G04 #@! TO.N,+5V*
X2230000Y-10910000D03*
G04 #@! TO.P,J5,5*
G04 #@! TO.N,SCL*
X4770000Y-13450000D03*
G04 #@! TO.P,J5,6*
G04 #@! TO.N,GND*
X2230000Y-13450000D03*
G04 #@! TO.P,J5,7*
G04 #@! TO.N,GPIO4*
X4770000Y-15990000D03*
G04 #@! TO.P,J5,8*
G04 #@! TO.N,N/C*
X2230000Y-15990000D03*
G04 #@! TO.P,J5,9*
G04 #@! TO.N,GND*
X4770000Y-18530000D03*
G04 #@! TO.P,J5,10*
G04 #@! TO.N,N/C*
X2230000Y-18530000D03*
G04 #@! TO.P,J5,11*
G04 #@! TO.N,GPIO17*
X4770000Y-21070000D03*
G04 #@! TO.P,J5,12*
G04 #@! TO.N,GPIO18*
X2230000Y-21070000D03*
G04 #@! TO.P,J5,13*
G04 #@! TO.N,GPIO27*
X4770000Y-23610000D03*
G04 #@! TO.P,J5,14*
G04 #@! TO.N,GND*
X2230000Y-23610000D03*
G04 #@! TO.P,J5,15*
G04 #@! TO.N,GPIO22*
X4770000Y-26150000D03*
G04 #@! TO.P,J5,16*
G04 #@! TO.N,GPIO23*
X2230000Y-26150000D03*
G04 #@! TO.P,J5,17*
G04 #@! TO.N,3V3*
X4770000Y-28690000D03*
G04 #@! TO.P,J5,18*
G04 #@! TO.N,GPIO24*
X2230000Y-28690000D03*
G04 #@! TO.P,J5,19*
G04 #@! TO.N,GPIO10*
X4770000Y-31230000D03*
G04 #@! TO.P,J5,20*
G04 #@! TO.N,GND*
X2230000Y-31230000D03*
G04 #@! TO.P,J5,21*
G04 #@! TO.N,GPIO9*
X4770000Y-33770000D03*
G04 #@! TO.P,J5,22*
G04 #@! TO.N,GPIO25*
X2230000Y-33770000D03*
G04 #@! TO.P,J5,23*
G04 #@! TO.N,GPIO11*
X4770000Y-36310000D03*
G04 #@! TO.P,J5,24*
G04 #@! TO.N,GPIO8*
X2230000Y-36310000D03*
G04 #@! TO.P,J5,25*
G04 #@! TO.N,N/C*
X4770000Y-38850000D03*
G04 #@! TO.P,J5,26*
G04 #@! TO.N,GPIO7*
X2230000Y-38850000D03*
G04 #@! TO.P,J5,27*
G04 #@! TO.N,N/C*
X4770000Y-41390000D03*
G04 #@! TO.P,J5,28*
X2230000Y-41390000D03*
G04 #@! TO.P,J5,29*
G04 #@! TO.N,GPIO5*
X4770000Y-43930000D03*
G04 #@! TO.P,J5,30*
G04 #@! TO.N,GND*
X2230000Y-43930000D03*
G04 #@! TO.P,J5,31*
G04 #@! TO.N,GPIO6*
X4770000Y-46470000D03*
G04 #@! TO.P,J5,32*
G04 #@! TO.N,GPIO12*
X2230000Y-46470000D03*
G04 #@! TO.P,J5,33*
G04 #@! TO.N,GPIO13*
X4770000Y-49010000D03*
G04 #@! TO.P,J5,34*
G04 #@! TO.N,GND*
X2230000Y-49010000D03*
G04 #@! TO.P,J5,35*
G04 #@! TO.N,GPIO19*
X4770000Y-51550000D03*
G04 #@! TO.P,J5,36*
G04 #@! TO.N,GPIO16*
X2230000Y-51550000D03*
G04 #@! TO.P,J5,37*
G04 #@! TO.N,N/C*
X4770000Y-54090000D03*
G04 #@! TO.P,J5,38*
G04 #@! TO.N,GPIO20*
X2230000Y-54090000D03*
G04 #@! TO.P,J5,39*
G04 #@! TO.N,N/C*
X4770000Y-56630000D03*
G04 #@! TO.P,J5,40*
G04 #@! TO.N,GPIO21*
X2230000Y-56630000D03*
G04 #@! TD*
D19*
G04 #@! TO.N,SCL*
X54293500Y-17253500D03*
G04 #@! TO.N,GPIO4*
X51351800Y-29809100D03*
X52083100Y-38944400D03*
X50464100Y-16775000D03*
D20*
G04 #@! TO.N,GND*
X13177600Y-47123500D03*
D19*
G04 #@! TO.N,SDA*
X55869900Y-16422600D03*
G04 #@! TO.N,3V3*
X52039000Y-27981600D03*
X51812100Y-17502000D03*
X53305000Y-39176700D03*
X3508100Y-17304800D03*
G04 #@! TO.N,S_SCALA*
X42833100Y-41361600D03*
D20*
G04 #@! TO.N,VS*
X47582100Y-60147200D03*
D19*
G04 #@! TO.N,S_BLR*
X41613300Y-13382900D03*
G04 #@! TO.N,GPIO25*
X14301900Y-29582800D03*
G04 #@! TO.N,S_CHIL*
X46000900Y-13217100D03*
G04 #@! TD*
G04 #@! TO.N,S_DHWX*
D21*
X45273000Y-56507000D02*
X45273000Y-8627000D01*
X43200000Y-58580000D02*
X45273000Y-56507000D01*
X45273000Y-8627000D02*
X46950000Y-6950000D01*
G04 #@! TO.N,SCL*
X54575800Y-30140000D02*
X54575800Y-34773900D01*
X54293500Y-29857700D02*
X54575800Y-30140000D01*
X53599700Y-35750000D02*
X53305000Y-35750000D01*
X54293500Y-17253500D02*
X54293500Y-29857700D01*
X54575800Y-34773900D02*
X53599700Y-35750000D01*
G04 #@! TO.N,GPIO4*
X52083100Y-35444100D02*
X53027200Y-34500000D01*
X51351800Y-29809100D02*
X50464100Y-28921400D01*
X52083100Y-38944400D02*
X52083100Y-35444100D01*
X53027200Y-34500000D02*
X53305000Y-34500000D01*
X50464100Y-28921400D02*
X50464100Y-16775000D01*
G04 #@! TO.N,GND*
D22*
X13901800Y-34439000D02*
X12697300Y-33234500D01*
X878300Y-57203100D02*
X878300Y-49011500D01*
D23*
X750000Y-43930000D02*
X2230000Y-43930000D01*
D22*
X878300Y-7771700D02*
X878300Y-13448500D01*
X16540000Y-24690000D02*
X16540000Y-16840900D01*
X8611700Y-57228300D02*
X7856300Y-57983700D01*
X13102600Y-30987200D02*
X15322800Y-30987200D01*
X8611700Y-50311700D02*
X8611700Y-57228300D01*
X5883400Y-6184300D02*
X2465700Y-6184300D01*
X12697300Y-33234500D02*
X12697300Y-31392500D01*
X16540000Y-16840900D02*
X5883400Y-6184300D01*
X31780000Y-49690000D02*
X31780000Y-53044000D01*
X17873300Y-48356700D02*
X16540000Y-49690000D01*
X21620000Y-37190000D02*
X18869000Y-34439000D01*
D23*
X51000000Y-33250000D02*
X51000000Y-78000000D01*
D22*
X13177600Y-47123500D02*
X9989400Y-50311700D01*
X15322800Y-30987200D02*
X21620000Y-24690000D01*
D23*
X750000Y-31229999D02*
X2230000Y-31229999D01*
D22*
X12697300Y-31392500D02*
X13102600Y-30987200D01*
X26700000Y-24690000D02*
X25398300Y-25991700D01*
X1658900Y-57983700D02*
X878300Y-57203100D01*
X2465700Y-6184300D02*
X878300Y-7771700D01*
D23*
X750000Y-13450000D02*
X750000Y-49010000D01*
X750000Y-13450000D02*
X2230000Y-13450000D01*
D22*
X21620000Y-49690000D02*
X20286700Y-48356700D01*
D23*
X53305000Y-33250000D02*
X51000000Y-33250000D01*
X51000000Y-78000000D02*
X46000000Y-78000000D01*
X46000000Y-78000000D02*
X46000000Y-81000000D01*
D22*
X50249600Y-61149000D02*
X51000000Y-60398600D01*
X9989400Y-50311700D02*
X8611700Y-50311700D01*
D23*
X750000Y-23610000D02*
X2230000Y-23610000D01*
D22*
X25398300Y-25991700D02*
X22921700Y-25991700D01*
X39885000Y-61149000D02*
X50249600Y-61149000D01*
X18869000Y-34439000D02*
X13901800Y-34439000D01*
X878300Y-49011500D02*
X879800Y-49010000D01*
X22921700Y-25991700D02*
X21620000Y-24690000D01*
X878300Y-13448500D02*
X879800Y-13450000D01*
X31780000Y-53044000D02*
X39885000Y-61149000D01*
X20286700Y-48356700D02*
X17873300Y-48356700D01*
D23*
X750000Y-49010000D02*
X2230000Y-49010000D01*
D22*
X7310000Y-49010000D02*
X8611700Y-50311700D01*
X7856300Y-57983700D02*
X1658900Y-57983700D01*
G04 #@! TO.N,SDA*
D21*
X6075400Y-22375400D02*
X7310000Y-23610000D01*
X6075400Y-12215400D02*
X6075400Y-22375400D01*
X55065300Y-29765500D02*
X54800900Y-29501100D01*
X55869900Y-17556800D02*
X55869900Y-16422600D01*
X53305000Y-37000000D02*
X53651700Y-37000000D01*
X55065300Y-35586400D02*
X55065300Y-29765500D01*
X54800900Y-18625800D02*
X55869900Y-17556800D01*
X54800900Y-29501100D02*
X54800900Y-18625800D01*
X4770000Y-10910000D02*
X6075400Y-12215400D01*
X53651700Y-37000000D02*
X55065300Y-35586400D01*
G04 #@! TO.N,+5V*
D22*
X8613000Y-10029100D02*
X8613000Y-24847000D01*
X5569100Y-6985200D02*
X8613000Y-10029100D01*
X2230000Y-8370000D02*
X3614800Y-6985200D01*
X8613000Y-24847000D02*
X7310000Y-26150000D01*
X3614800Y-6985200D02*
X5569100Y-6985200D01*
X2230000Y-10910000D02*
X2230000Y-8370000D01*
G04 #@! TO.N,3V3*
D21*
X52039000Y-27981600D02*
X51812100Y-27754700D01*
X3508100Y-27428100D02*
X3508100Y-17304800D01*
X4770000Y-28690000D02*
X3508100Y-27428100D01*
X51812100Y-27754700D02*
X51812100Y-17502000D01*
X53305000Y-38250000D02*
X53305000Y-39176700D01*
G04 #@! TO.N,GPIO8*
X2230000Y-36309999D02*
X3500000Y-37579999D01*
X7310000Y-40119999D02*
X7310000Y-41389999D01*
X3500000Y-40119999D02*
X7310000Y-40119999D01*
X3500000Y-37579999D02*
X3500000Y-40119999D01*
G04 #@! TO.N,GPIO20*
X7310000Y-54090000D02*
X6119400Y-52899400D01*
X6119400Y-52899400D02*
X3420600Y-52899400D01*
X3420600Y-52899400D02*
X2230000Y-54090000D01*
G04 #@! TO.N,S_BOS1*
X23550000Y-6950000D02*
X30474700Y-13874700D01*
X30474700Y-26633700D02*
X36354000Y-32513000D01*
X30474700Y-13874700D02*
X30474700Y-26633700D01*
X36354000Y-44926000D02*
X35200000Y-46080000D01*
X36354000Y-32513000D02*
X36354000Y-44926000D01*
G04 #@! TO.N,S_SCALA*
X35250000Y-6950000D02*
X38073300Y-9773300D01*
X41166000Y-32305800D02*
X41166000Y-39694500D01*
X38073300Y-29213100D02*
X41166000Y-32305800D01*
X38073300Y-9773300D02*
X38073300Y-29213100D01*
X41166000Y-39694500D02*
X42833100Y-41361600D01*
G04 #@! TO.N,S_ZV*
X28005400Y-26385400D02*
X35200000Y-33580000D01*
X25581600Y-23181600D02*
X26865200Y-23181600D01*
X9350000Y-6950000D02*
X25581600Y-23181600D01*
X28005400Y-24321800D02*
X28005400Y-26385400D01*
X26865200Y-23181600D02*
X28005400Y-24321800D01*
G04 #@! TO.N,VS*
D22*
X24160000Y-44810000D02*
X25481200Y-46131200D01*
X29240000Y-57310000D02*
X27938300Y-58611700D01*
X17747300Y-33642700D02*
X15332700Y-33642700D01*
X29240000Y-33682500D02*
X29240000Y-32310000D01*
X14484500Y-46172200D02*
X14000000Y-45687700D01*
X25481200Y-46131200D02*
X27918800Y-46131200D01*
X12646200Y-49203000D02*
X12646200Y-53352200D01*
X25461700Y-58611700D02*
X24160000Y-57310000D01*
X14000000Y-45687700D02*
X14000000Y-44810000D01*
X19080000Y-32310000D02*
X17747300Y-33642700D01*
X27938300Y-58611700D02*
X25461700Y-58611700D01*
X25532500Y-33682500D02*
X24160000Y-32310000D01*
X14484500Y-46172200D02*
X14484500Y-47364700D01*
X27938300Y-68938300D02*
X40000000Y-81000000D01*
X53305000Y-32000000D02*
X51220400Y-32000000D01*
X50187500Y-33032900D02*
X50187500Y-57541800D01*
X17778000Y-56008000D02*
X15302000Y-56008000D01*
X51220400Y-32000000D02*
X50187500Y-33032900D01*
X14484500Y-47364700D02*
X12646200Y-49203000D01*
X15332700Y-33642700D02*
X14000000Y-32310000D01*
X19080000Y-44810000D02*
X17717800Y-46172200D01*
X27918800Y-46131200D02*
X29240000Y-44810000D01*
X30113400Y-33682500D02*
X29240000Y-33682500D01*
X15302000Y-56008000D02*
X14000000Y-57310000D01*
X12646200Y-53352200D02*
X15302000Y-56008000D01*
X29240000Y-33682500D02*
X25532500Y-33682500D01*
X33081700Y-36650800D02*
X30113400Y-33682500D01*
X27938300Y-58611700D02*
X27938300Y-68938300D01*
X50187500Y-57541800D02*
X47582100Y-60147200D01*
X33081700Y-40968300D02*
X33081700Y-36650800D01*
X17717800Y-46172200D02*
X14484500Y-46172200D01*
X19080000Y-57310000D02*
X17778000Y-56008000D01*
X29240000Y-44810000D02*
X33081700Y-40968300D01*
G04 #@! TO.N,S_SP-E*
D21*
X49450000Y-56330000D02*
X47200000Y-58580000D01*
X49450000Y-6950000D02*
X49450000Y-56330000D01*
G04 #@! TO.N,S_DHW*
X36830000Y-31210000D02*
X39200000Y-33580000D01*
X13206800Y-5593200D02*
X29121500Y-5593200D01*
X11850000Y-6950000D02*
X13206800Y-5593200D01*
X29121500Y-5593200D02*
X36830000Y-13301700D01*
X36830000Y-13301700D02*
X36830000Y-31210000D01*
G04 #@! TO.N,S_BLR*
X41613300Y-27273400D02*
X41613300Y-13382900D01*
X43200000Y-33580000D02*
X43200000Y-28860100D01*
X43200000Y-28860100D02*
X41613300Y-27273400D01*
G04 #@! TO.N,COM*
D22*
X53305000Y-15471700D02*
X53305000Y-8305000D01*
X44410500Y-82410500D02*
X43000000Y-81000000D01*
X53305000Y-15471700D02*
X56194400Y-15471700D01*
X56194400Y-15471700D02*
X58423000Y-17700300D01*
X58423000Y-17700300D02*
X58423000Y-71578700D01*
X47591200Y-82410500D02*
X44410500Y-82410500D01*
X53305000Y-30750000D02*
X53305000Y-15471700D01*
X58423000Y-71578700D02*
X47591200Y-82410500D01*
X53305000Y-8305000D02*
X51950000Y-6950000D01*
G04 #@! TO.N,S_HPHEAT*
D21*
X40777600Y-9977600D02*
X40777600Y-30300600D01*
X41686100Y-31209100D02*
X41686100Y-39183900D01*
X30601600Y-49185800D02*
X30601600Y-53981600D01*
X43653800Y-47249900D02*
X32537500Y-47249900D01*
X30601600Y-53981600D02*
X35200000Y-58580000D01*
X41686100Y-39183900D02*
X44338400Y-41836200D01*
X32537500Y-47249900D02*
X30601600Y-49185800D01*
X44338400Y-46565300D02*
X43653800Y-47249900D01*
X44338400Y-41836200D02*
X44338400Y-46565300D01*
X37750000Y-6950000D02*
X40777600Y-9977600D01*
X40777600Y-30300600D02*
X41686100Y-31209100D01*
G04 #@! TO.N,S_BOS2*
X36378300Y-31721300D02*
X36834500Y-32177500D01*
X26050000Y-6950000D02*
X36378300Y-17278300D01*
X36834500Y-32177500D02*
X36834500Y-43714500D01*
X36834500Y-43714500D02*
X39200000Y-46080000D01*
X36378300Y-17278300D02*
X36378300Y-31721300D01*
G04 #@! TO.N,GPIO25*
X2230000Y-33770000D02*
X3500000Y-32500000D01*
X11495500Y-29582800D02*
X14301900Y-29582800D01*
X8578300Y-32500000D02*
X11495500Y-29582800D01*
X3500000Y-32500000D02*
X8578300Y-32500000D01*
G04 #@! TO.N,GPIO27*
X16439300Y-27330700D02*
X6770300Y-27330700D01*
X19080000Y-24690000D02*
X16439300Y-27330700D01*
X6770300Y-27330700D02*
X6040000Y-26600400D01*
X6040000Y-24880000D02*
X4770000Y-23610000D01*
X6040000Y-26600400D02*
X6040000Y-24880000D01*
G04 #@! TO.N,S_DEHUM*
X32750000Y-6950000D02*
X37621600Y-11821600D01*
X40327400Y-33036500D02*
X40327400Y-43207400D01*
X37621600Y-30330700D02*
X40327400Y-33036500D01*
X40327400Y-43207400D02*
X43200000Y-46080000D01*
X37621600Y-11821600D02*
X37621600Y-30330700D01*
G04 #@! TO.N,S_HPCOOL*
X44450000Y-6950000D02*
X44806400Y-7306400D01*
X44806400Y-52973600D02*
X39200000Y-58580000D01*
X44806400Y-7306400D02*
X44806400Y-52973600D01*
G04 #@! TO.N,GPIO5*
X17895600Y-36005600D02*
X19080000Y-37190000D01*
X12813700Y-36005600D02*
X17895600Y-36005600D01*
X6075300Y-42624700D02*
X7697700Y-42624700D01*
X11594600Y-37224700D02*
X12813700Y-36005600D01*
X11594600Y-38727800D02*
X11594600Y-37224700D01*
X4770000Y-43930000D02*
X6075300Y-42624700D01*
X7697700Y-42624700D02*
X11594600Y-38727800D01*
G04 #@! TO.N,GPIO6*
X12300000Y-37190000D02*
X14000000Y-37190000D01*
X4770000Y-46469999D02*
X12300000Y-46469999D01*
X12300000Y-46469999D02*
X12300000Y-37190000D01*
G04 #@! TO.N,S_CHIL*
X46000900Y-32380900D02*
X46000900Y-13217100D01*
X47200000Y-33580000D02*
X46000900Y-32380900D01*
G04 #@! TD*
M02*
