G04 #@! TF.GenerationSoftware,KiCad,Pcbnew,10.0.6*
G04 #@! TF.CreationDate,2026-09-26T22:36:43-04:00*
G04 #@! TF.ProjectId,int-board,696e742d-626f-4617-9264-2e6b69636164,rev?*
G04 #@! TF.SameCoordinates,Original*
G04 #@! TF.FileFunction,Copper,L1,Top*
G04 #@! TF.FilePolarity,Positive*
%FSLAX46Y46*%
G04 Gerber Fmt 4.6, Leading zero omitted, Abs format (unit mm)*
G04 Created by KiCad (PCBNEW 10.0.6) date 2026-09-26 22:36:43*
%MOMM*%
%LPD*%
G01*
G04 APERTURE LIST*
G04 Aperture macros list*
%AMRoundRect*
0 Rectangle with rounded corners*
0 $1 Rounding radius*
0 $2 $3 $4 $5 $6 $7 $8 $9 X,Y pos of 4 corners*
0 Add a 4 corners polygon primitive as box body*
4,1,4,$2,$3,$4,$5,$6,$7,$8,$9,$2,$3,0*
0 Add four circle primitives for the rounded corners*
1,1,$1+$1,$2,$3*
1,1,$1+$1,$4,$5*
1,1,$1+$1,$6,$7*
1,1,$1+$1,$8,$9*
0 Add four rect primitives between the rounded corners*
20,1,$1+$1,$2,$3,$4,$5,0*
20,1,$1+$1,$4,$5,$6,$7,0*
20,1,$1+$1,$6,$7,$8,$9,0*
20,1,$1+$1,$8,$9,$2,$3,0*%
G04 Aperture macros list end*
G04 #@! TA.AperFunction,ComponentPad*
%ADD10C,1.600000*%
G04 #@! TD*
G04 #@! TA.AperFunction,ComponentPad*
%ADD11C,1.800000*%
G04 #@! TD*
G04 #@! TA.AperFunction,ComponentPad*
%ADD12RoundRect,0.487500X-0.487500X-0.487500X0.487500X-0.487500X0.487500X0.487500X-0.487500X0.487500X0*%
G04 #@! TD*
G04 #@! TA.AperFunction,ComponentPad*
%ADD13C,1.950000*%
G04 #@! TD*
G04 #@! TA.AperFunction,ComponentPad*
%ADD14RoundRect,0.250000X0.550000X-0.550000X0.550000X0.550000X-0.550000X0.550000X-0.550000X-0.550000X0*%
G04 #@! TD*
G04 #@! TA.AperFunction,SMDPad,CuDef*
%ADD15RoundRect,0.150000X0.700000X-0.150000X0.700000X0.150000X-0.700000X0.150000X-0.700000X-0.150000X0*%
G04 #@! TD*
G04 #@! TA.AperFunction,SMDPad,CuDef*
%ADD16RoundRect,0.250000X1.100000X-0.250000X1.100000X0.250000X-1.100000X0.250000X-1.100000X-0.250000X0*%
G04 #@! TD*
G04 #@! TA.AperFunction,ComponentPad*
%ADD17RoundRect,0.425000X-0.425000X-0.425000X0.425000X-0.425000X0.425000X0.425000X-0.425000X0.425000X0*%
G04 #@! TD*
G04 #@! TA.AperFunction,ComponentPad*
%ADD18C,1.700000*%
G04 #@! TD*
G04 #@! TA.AperFunction,ViaPad*
%ADD19C,0.800000*%
G04 #@! TD*
G04 #@! TA.AperFunction,Conductor*
%ADD20C,0.250000*%
G04 #@! TD*
G04 #@! TA.AperFunction,Conductor*
%ADD21C,0.500000*%
G04 #@! TD*
G04 #@! TA.AperFunction,Conductor*
%ADD22C,0.400000*%
G04 #@! TD*
G04 APERTURE END LIST*
D10*
G04 #@! TO.P,R7,1*
G04 #@! TO.N,K7*
X43200000Y-35920000D03*
G04 #@! TO.P,R7,2*
G04 #@! TO.N,S_DEHUM*
X43200000Y-46080000D03*
G04 #@! TD*
D11*
G04 #@! TO.P,TP2,1*
G04 #@! TO.N,COM*
X43000000Y-81000000D03*
G04 #@! TD*
D10*
G04 #@! TO.P,R9,1*
G04 #@! TO.N,K9*
X35200000Y-48420000D03*
G04 #@! TO.P,R9,2*
G04 #@! TO.N,S_HPHEAT*
X35200000Y-58580000D03*
G04 #@! TD*
D12*
G04 #@! TO.P,J1,1*
G04 #@! TO.N,S_ZV*
X9350000Y-6950000D03*
D13*
G04 #@! TO.P,J1,2*
G04 #@! TO.N,S_DHW*
X11850000Y-6950000D03*
G04 #@! TO.P,J1,3*
G04 #@! TO.N,S_BLR*
X14350000Y-6950000D03*
G04 #@! TO.P,J1,4*
G04 #@! TO.N,COM*
X16850000Y-6950000D03*
G04 #@! TD*
D10*
G04 #@! TO.P,J9,3*
G04 #@! TO.N,SCL*
X7310000Y-13450000D03*
G04 #@! TO.P,J9,4*
G04 #@! TO.N,GPIO4*
X7310000Y-15990000D03*
G04 #@! TO.P,J9,5*
G04 #@! TO.N,GND*
X7310000Y-18530000D03*
G04 #@! TO.P,J9,6*
G04 #@! TO.N,GPIO18*
X7310000Y-21070000D03*
G04 #@! TO.P,J9,7*
G04 #@! TO.N,SDA*
X7310000Y-23610000D03*
G04 #@! TO.P,J9,8*
G04 #@! TO.N,+5V*
X7310000Y-26150000D03*
G04 #@! TO.P,J9,9*
G04 #@! TO.N,3V3*
X7310000Y-28690000D03*
G04 #@! TO.P,J9,10*
G04 #@! TO.N,GPIO10*
X7310000Y-31230000D03*
G04 #@! TO.P,J9,11*
G04 #@! TO.N,GPIO9*
X7310000Y-33770000D03*
G04 #@! TO.P,J9,12*
G04 #@! TO.N,GPIO11*
X7310000Y-36310000D03*
G04 #@! TO.P,J9,13*
G04 #@! TO.N,GPIO7*
X7310000Y-38850000D03*
G04 #@! TO.P,J9,14*
G04 #@! TO.N,GPIO8*
X7310000Y-41390000D03*
G04 #@! TO.P,J9,15*
G04 #@! TO.N,GND*
X7310000Y-43930000D03*
G04 #@! TO.P,J9,17*
X7310000Y-49010000D03*
G04 #@! TO.P,J9,19*
G04 #@! TO.N,GPIO20*
X7310000Y-54090000D03*
G04 #@! TO.P,J9,20*
G04 #@! TO.N,GPIO21*
X7310000Y-56630000D03*
G04 #@! TD*
G04 #@! TO.P,R3,1*
G04 #@! TO.N,K3*
X43200000Y-23420000D03*
G04 #@! TO.P,R3,2*
G04 #@! TO.N,S_BLR*
X43200000Y-33580000D03*
G04 #@! TD*
D12*
G04 #@! TO.P,J4,1*
G04 #@! TO.N,S_HPCOOL*
X44450000Y-6950000D03*
D13*
G04 #@! TO.P,J4,2*
G04 #@! TO.N,S_DHWX*
X46950000Y-6950000D03*
G04 #@! TO.P,J4,3*
G04 #@! TO.N,S_SP-E*
X49450000Y-6950000D03*
G04 #@! TO.P,J4,4*
G04 #@! TO.N,COM*
X51950000Y-6950000D03*
G04 #@! TD*
D11*
G04 #@! TO.P,TP3,1*
G04 #@! TO.N,GND*
X46000000Y-81000000D03*
G04 #@! TD*
D10*
G04 #@! TO.P,R5,1*
G04 #@! TO.N,K5*
X35200000Y-35920000D03*
G04 #@! TO.P,R5,2*
G04 #@! TO.N,S_BOS1*
X35200000Y-46080000D03*
G04 #@! TD*
D12*
G04 #@! TO.P,J2,1*
G04 #@! TO.N,S_CHIL*
X21050000Y-6950000D03*
D13*
G04 #@! TO.P,J2,2*
G04 #@! TO.N,S_BOS1*
X23550000Y-6950000D03*
G04 #@! TO.P,J2,3*
G04 #@! TO.N,S_BOS2*
X26050000Y-6950000D03*
G04 #@! TO.P,J2,4*
G04 #@! TO.N,COM*
X28550000Y-6950000D03*
G04 #@! TD*
D10*
G04 #@! TO.P,R10,1*
G04 #@! TO.N,K10*
X39200000Y-48420000D03*
G04 #@! TO.P,R10,2*
G04 #@! TO.N,S_HPCOOL*
X39200000Y-58580000D03*
G04 #@! TD*
G04 #@! TO.P,R2,1*
G04 #@! TO.N,K2*
X39200000Y-23420000D03*
G04 #@! TO.P,R2,2*
G04 #@! TO.N,S_DHW*
X39200000Y-33580000D03*
G04 #@! TD*
D14*
G04 #@! TO.P,U2,1*
G04 #@! TO.N,VS*
X14000000Y-44810000D03*
D10*
G04 #@! TO.P,U2,2*
G04 #@! TO.N,K5*
X16540000Y-44810000D03*
G04 #@! TO.P,U2,3*
G04 #@! TO.N,VS*
X19080000Y-44810000D03*
G04 #@! TO.P,U2,4*
G04 #@! TO.N,K6*
X21620000Y-44810000D03*
G04 #@! TO.P,U2,5*
G04 #@! TO.N,VS*
X24160000Y-44810000D03*
G04 #@! TO.P,U2,6*
G04 #@! TO.N,K7*
X26700000Y-44810000D03*
G04 #@! TO.P,U2,7*
G04 #@! TO.N,VS*
X29240000Y-44810000D03*
G04 #@! TO.P,U2,8*
G04 #@! TO.N,K8*
X31780000Y-44810000D03*
G04 #@! TO.P,U2,9*
G04 #@! TO.N,GND*
X31780000Y-37190000D03*
G04 #@! TO.P,U2,10*
G04 #@! TO.N,GPIO23*
X29240000Y-37190000D03*
G04 #@! TO.P,U2,11*
G04 #@! TO.N,GND*
X26700000Y-37190000D03*
G04 #@! TO.P,U2,12*
G04 #@! TO.N,GPIO12*
X24160000Y-37190000D03*
G04 #@! TO.P,U2,13*
G04 #@! TO.N,GND*
X21620000Y-37190000D03*
G04 #@! TO.P,U2,14*
G04 #@! TO.N,GPIO5*
X19080000Y-37190000D03*
G04 #@! TO.P,U2,15*
G04 #@! TO.N,GND*
X16540000Y-37190000D03*
G04 #@! TO.P,U2,16*
G04 #@! TO.N,GPIO6*
X14000000Y-37190000D03*
G04 #@! TD*
G04 #@! TO.P,R8,1*
G04 #@! TO.N,K8*
X47200000Y-35920000D03*
G04 #@! TO.P,R8,2*
G04 #@! TO.N,S_SCALA*
X47200000Y-46080000D03*
G04 #@! TD*
D12*
G04 #@! TO.P,J3,1*
G04 #@! TO.N,S_DEHUM*
X32750000Y-6950000D03*
D13*
G04 #@! TO.P,J3,2*
G04 #@! TO.N,S_SCALA*
X35250000Y-6950000D03*
G04 #@! TO.P,J3,3*
G04 #@! TO.N,S_HPHEAT*
X37750000Y-6950000D03*
G04 #@! TO.P,J3,4*
G04 #@! TO.N,COM*
X40250000Y-6950000D03*
G04 #@! TD*
D10*
G04 #@! TO.P,R12,1*
G04 #@! TO.N,K12*
X47200000Y-48420000D03*
G04 #@! TO.P,R12,2*
G04 #@! TO.N,S_SP-E*
X47200000Y-58580000D03*
G04 #@! TD*
G04 #@! TO.P,R4,1*
G04 #@! TO.N,K4*
X47200000Y-23420000D03*
G04 #@! TO.P,R4,2*
G04 #@! TO.N,S_CHIL*
X47200000Y-33580000D03*
G04 #@! TD*
D11*
G04 #@! TO.P,TP1,1*
G04 #@! TO.N,VS*
X40000000Y-81000000D03*
G04 #@! TD*
D14*
G04 #@! TO.P,U1,1*
G04 #@! TO.N,VS*
X14000000Y-32310000D03*
D10*
G04 #@! TO.P,U1,2*
G04 #@! TO.N,K1*
X16540000Y-32310000D03*
G04 #@! TO.P,U1,3*
G04 #@! TO.N,VS*
X19080000Y-32310000D03*
G04 #@! TO.P,U1,4*
G04 #@! TO.N,K2*
X21620000Y-32310000D03*
G04 #@! TO.P,U1,5*
G04 #@! TO.N,VS*
X24160000Y-32310000D03*
G04 #@! TO.P,U1,6*
G04 #@! TO.N,K3*
X26700000Y-32310000D03*
G04 #@! TO.P,U1,7*
G04 #@! TO.N,VS*
X29240000Y-32310000D03*
G04 #@! TO.P,U1,8*
G04 #@! TO.N,K4*
X31780000Y-32310000D03*
G04 #@! TO.P,U1,9*
G04 #@! TO.N,GND*
X31780000Y-24690000D03*
G04 #@! TO.P,U1,10*
G04 #@! TO.N,GPIO25*
X29240000Y-24690000D03*
G04 #@! TO.P,U1,11*
G04 #@! TO.N,GND*
X26700000Y-24690000D03*
G04 #@! TO.P,U1,12*
G04 #@! TO.N,GPIO22*
X24160000Y-24690000D03*
G04 #@! TO.P,U1,13*
G04 #@! TO.N,GND*
X21620000Y-24690000D03*
G04 #@! TO.P,U1,14*
G04 #@! TO.N,GPIO27*
X19080000Y-24690000D03*
G04 #@! TO.P,U1,15*
G04 #@! TO.N,GND*
X16540000Y-24690000D03*
G04 #@! TO.P,U1,16*
G04 #@! TO.N,GPIO17*
X14000000Y-24690000D03*
G04 #@! TD*
D15*
G04 #@! TO.P,J6,1*
G04 #@! TO.N,3V3*
X53305000Y-38250000D03*
G04 #@! TO.P,J6,2*
G04 #@! TO.N,SDA*
X53305000Y-37000000D03*
G04 #@! TO.P,J6,3*
G04 #@! TO.N,SCL*
X53305000Y-35750000D03*
G04 #@! TO.P,J6,4*
G04 #@! TO.N,GPIO4*
X53305000Y-34500000D03*
G04 #@! TO.P,J6,5*
G04 #@! TO.N,GND*
X53305000Y-33250000D03*
G04 #@! TO.P,J6,6*
G04 #@! TO.N,VS*
X53305000Y-32000000D03*
G04 #@! TO.P,J6,7*
G04 #@! TO.N,COM*
X53305000Y-30750000D03*
D16*
G04 #@! TO.P,J6,MP*
G04 #@! TO.N,N/C*
X56505000Y-40100000D03*
X56505000Y-28900000D03*
G04 #@! TD*
D14*
G04 #@! TO.P,U3,1*
G04 #@! TO.N,VS*
X14000000Y-57310000D03*
D10*
G04 #@! TO.P,U3,2*
G04 #@! TO.N,K9*
X16540000Y-57310000D03*
G04 #@! TO.P,U3,3*
G04 #@! TO.N,VS*
X19080000Y-57310000D03*
G04 #@! TO.P,U3,4*
G04 #@! TO.N,K10*
X21620000Y-57310000D03*
G04 #@! TO.P,U3,5*
G04 #@! TO.N,VS*
X24160000Y-57310000D03*
G04 #@! TO.P,U3,6*
G04 #@! TO.N,K11*
X26700000Y-57310000D03*
G04 #@! TO.P,U3,7*
G04 #@! TO.N,VS*
X29240000Y-57310000D03*
G04 #@! TO.P,U3,8*
G04 #@! TO.N,K12*
X31780000Y-57310000D03*
G04 #@! TO.P,U3,9*
G04 #@! TO.N,GND*
X31780000Y-49690000D03*
G04 #@! TO.P,U3,10*
G04 #@! TO.N,GPIO16*
X29240000Y-49690000D03*
G04 #@! TO.P,U3,11*
G04 #@! TO.N,GND*
X26700000Y-49690000D03*
G04 #@! TO.P,U3,12*
G04 #@! TO.N,GPIO19*
X24160000Y-49690000D03*
G04 #@! TO.P,U3,13*
G04 #@! TO.N,GND*
X21620000Y-49690000D03*
G04 #@! TO.P,U3,14*
G04 #@! TO.N,GPIO13*
X19080000Y-49690000D03*
G04 #@! TO.P,U3,15*
G04 #@! TO.N,GND*
X16540000Y-49690000D03*
G04 #@! TO.P,U3,16*
G04 #@! TO.N,GPIO24*
X14000000Y-49690000D03*
G04 #@! TD*
G04 #@! TO.P,R6,1*
G04 #@! TO.N,K6*
X39200000Y-35920000D03*
G04 #@! TO.P,R6,2*
G04 #@! TO.N,S_BOS2*
X39200000Y-46080000D03*
G04 #@! TD*
G04 #@! TO.P,R11,1*
G04 #@! TO.N,K11*
X43200000Y-48420000D03*
G04 #@! TO.P,R11,2*
G04 #@! TO.N,S_DHWX*
X43200000Y-58580000D03*
G04 #@! TD*
G04 #@! TO.P,R1,1*
G04 #@! TO.N,K1*
X35200000Y-23420000D03*
G04 #@! TO.P,R1,2*
G04 #@! TO.N,S_ZV*
X35200000Y-33580000D03*
G04 #@! TD*
D17*
G04 #@! TO.P,J5,1*
G04 #@! TO.N,N/C*
X4770000Y-8370000D03*
D18*
G04 #@! TO.P,J5,2*
G04 #@! TO.N,+5V*
X2230000Y-8370000D03*
G04 #@! TO.P,J5,3*
G04 #@! TO.N,SDA*
X4770000Y-10910000D03*
G04 #@! TO.P,J5,4*
G04 #@! TO.N,+5V*
X2230000Y-10910000D03*
G04 #@! TO.P,J5,5*
G04 #@! TO.N,SCL*
X4770000Y-13450000D03*
G04 #@! TO.P,J5,6*
G04 #@! TO.N,GND*
X2230000Y-13450000D03*
G04 #@! TO.P,J5,7*
G04 #@! TO.N,GPIO4*
X4770000Y-15990000D03*
G04 #@! TO.P,J5,8*
G04 #@! TO.N,N/C*
X2230000Y-15990000D03*
G04 #@! TO.P,J5,9*
G04 #@! TO.N,GND*
X4770000Y-18530000D03*
G04 #@! TO.P,J5,10*
G04 #@! TO.N,N/C*
X2230000Y-18530000D03*
G04 #@! TO.P,J5,11*
G04 #@! TO.N,GPIO17*
X4770000Y-21070000D03*
G04 #@! TO.P,J5,12*
G04 #@! TO.N,GPIO18*
X2230000Y-21070000D03*
G04 #@! TO.P,J5,13*
G04 #@! TO.N,GPIO27*
X4770000Y-23610000D03*
G04 #@! TO.P,J5,14*
G04 #@! TO.N,GND*
X2230000Y-23610000D03*
G04 #@! TO.P,J5,15*
G04 #@! TO.N,GPIO22*
X4770000Y-26150000D03*
G04 #@! TO.P,J5,16*
G04 #@! TO.N,GPIO23*
X2230000Y-26150000D03*
G04 #@! TO.P,J5,17*
G04 #@! TO.N,3V3*
X4770000Y-28690000D03*
G04 #@! TO.P,J5,18*
G04 #@! TO.N,GPIO24*
X2230000Y-28690000D03*
G04 #@! TO.P,J5,19*
G04 #@! TO.N,GPIO10*
X4770000Y-31230000D03*
G04 #@! TO.P,J5,20*
G04 #@! TO.N,GND*
X2230000Y-31230000D03*
G04 #@! TO.P,J5,21*
G04 #@! TO.N,GPIO9*
X4770000Y-33770000D03*
G04 #@! TO.P,J5,22*
G04 #@! TO.N,GPIO25*
X2230000Y-33770000D03*
G04 #@! TO.P,J5,23*
G04 #@! TO.N,GPIO11*
X4770000Y-36310000D03*
G04 #@! TO.P,J5,24*
G04 #@! TO.N,GPIO8*
X2230000Y-36310000D03*
G04 #@! TO.P,J5,25*
G04 #@! TO.N,N/C*
X4770000Y-38850000D03*
G04 #@! TO.P,J5,26*
G04 #@! TO.N,GPIO7*
X2230000Y-38850000D03*
G04 #@! TO.P,J5,27*
G04 #@! TO.N,N/C*
X4770000Y-41390000D03*
G04 #@! TO.P,J5,28*
X2230000Y-41390000D03*
G04 #@! TO.P,J5,29*
G04 #@! TO.N,GPIO5*
X4770000Y-43930000D03*
G04 #@! TO.P,J5,30*
G04 #@! TO.N,GND*
X2230000Y-43930000D03*
G04 #@! TO.P,J5,31*
G04 #@! TO.N,GPIO6*
X4770000Y-46470000D03*
G04 #@! TO.P,J5,32*
G04 #@! TO.N,GPIO12*
X2230000Y-46470000D03*
G04 #@! TO.P,J5,33*
G04 #@! TO.N,GPIO13*
X4770000Y-49010000D03*
G04 #@! TO.P,J5,34*
G04 #@! TO.N,GND*
X2230000Y-49010000D03*
G04 #@! TO.P,J5,35*
G04 #@! TO.N,GPIO19*
X4770000Y-51550000D03*
G04 #@! TO.P,J5,36*
G04 #@! TO.N,GPIO16*
X2230000Y-51550000D03*
G04 #@! TO.P,J5,37*
G04 #@! TO.N,N/C*
X4770000Y-54090000D03*
G04 #@! TO.P,J5,38*
G04 #@! TO.N,GPIO20*
X2230000Y-54090000D03*
G04 #@! TO.P,J5,39*
G04 #@! TO.N,N/C*
X4770000Y-56630000D03*
G04 #@! TO.P,J5,40*
G04 #@! TO.N,GPIO21*
X2230000Y-56630000D03*
G04 #@! TD*
D19*
G04 #@! TO.N,S_HPHEAT*
X37584100Y-56134200D03*
G04 #@! TO.N,S_BLR*
X35133000Y-29722700D03*
G04 #@! TO.N,SCL*
X54722900Y-35203500D03*
X54483000Y-24943000D03*
G04 #@! TO.N,GPIO4*
X54646200Y-33921700D03*
X51405900Y-23320600D03*
X51405900Y-16376400D03*
G04 #@! TO.N,SDA*
X52051700Y-38921100D03*
X49665300Y-16366300D03*
X51366700Y-30851300D03*
G04 #@! TO.N,3V3*
X52045100Y-27758000D03*
X50610600Y-17486900D03*
X54654700Y-36375000D03*
X3479900Y-17224700D03*
G04 #@! TO.N,S_CHIL*
X36059000Y-28794200D03*
G04 #@! TO.N,S_SCALA*
X43665600Y-39435800D03*
G04 #@! TO.N,GPIO25*
X11942600Y-28562100D03*
G04 #@! TD*
G04 #@! TO.N,S_DEHUM*
D20*
X40378300Y-14578300D02*
X40378300Y-43258300D01*
X32750000Y-6950000D02*
X40378300Y-14578300D01*
X40378300Y-43258300D02*
X43200000Y-46080000D01*
G04 #@! TO.N,COM*
D21*
X43000000Y-81000000D02*
X44418900Y-82418900D01*
X47589200Y-82418900D02*
X58364100Y-71644000D01*
X53305000Y-30750000D02*
X53305000Y-8305000D01*
X44418900Y-82418900D02*
X47589200Y-82418900D01*
X58364100Y-71644000D02*
X58364100Y-35274000D01*
X53840100Y-30750000D02*
X53305000Y-30750000D01*
X58364100Y-35274000D02*
X53840100Y-30750000D01*
X53305000Y-8305000D02*
X51950000Y-6950000D01*
G04 #@! TO.N,S_HPHEAT*
D20*
X37750000Y-6950000D02*
X44392300Y-13592300D01*
X44392300Y-49326000D02*
X37584100Y-56134200D01*
X44392300Y-13592300D02*
X44392300Y-49326000D01*
G04 #@! TO.N,S_ZV*
X9350000Y-6950000D02*
X24952100Y-22552100D01*
X28113300Y-24422100D02*
X28113300Y-26493300D01*
X28113300Y-26493300D02*
X35200000Y-33580000D01*
X26243300Y-22552100D02*
X28113300Y-24422100D01*
X24952100Y-22552100D02*
X26243300Y-22552100D01*
G04 #@! TO.N,S_DHW*
X39200000Y-33580000D02*
X37689100Y-32069100D01*
X13206800Y-5593200D02*
X11850000Y-6950000D01*
X29133100Y-5593200D02*
X13206800Y-5593200D01*
X37689100Y-14149200D02*
X29133100Y-5593200D01*
X37689100Y-32069100D02*
X37689100Y-14149200D01*
G04 #@! TO.N,S_BLR*
X30474700Y-23074700D02*
X30474700Y-25064400D01*
X30474700Y-25064400D02*
X35133000Y-29722700D01*
X14350000Y-6950000D02*
X30474700Y-23074700D01*
G04 #@! TO.N,SCL*
X54483000Y-7505100D02*
X54483000Y-24943000D01*
X3672500Y-5109100D02*
X52087000Y-5109100D01*
X52087000Y-5109100D02*
X54483000Y-7505100D01*
X3500000Y-12180000D02*
X1706600Y-12180000D01*
X1706600Y-12180000D02*
X953600Y-11427000D01*
X54176400Y-35750000D02*
X53305000Y-35750000D01*
X953600Y-7828000D02*
X3672500Y-5109100D01*
X953600Y-11427000D02*
X953600Y-7828000D01*
X4770000Y-13450000D02*
X3500000Y-12180000D01*
X54722900Y-35203500D02*
X54176400Y-35750000D01*
G04 #@! TO.N,GPIO4*
X54067900Y-34500000D02*
X54646200Y-33921700D01*
X51405900Y-16376400D02*
X51405900Y-23320600D01*
X53305000Y-34500000D02*
X54067900Y-34500000D01*
G04 #@! TO.N,GND*
D21*
X10926000Y-40314000D02*
X10926000Y-37587900D01*
D22*
X51000000Y-33250000D02*
X51000000Y-78000000D01*
X750000Y-31229999D02*
X2230000Y-31229999D01*
D21*
X8642600Y-57177800D02*
X7821500Y-57998900D01*
X878300Y-49011500D02*
X879800Y-49010000D01*
D22*
X51000000Y-78000000D02*
X46000000Y-78000000D01*
D21*
X31780000Y-54699200D02*
X33898300Y-56817500D01*
D22*
X750000Y-49010000D02*
X2230000Y-49010000D01*
D21*
X7310000Y-49010000D02*
X8642600Y-50342600D01*
X8642600Y-50342600D02*
X8642600Y-57177800D01*
D22*
X46000000Y-78000000D02*
X46000000Y-81000000D01*
X750000Y-23610000D02*
X2230000Y-23610000D01*
D21*
X33091800Y-48378200D02*
X31780000Y-49690000D01*
X31780000Y-49690000D02*
X31780000Y-50993900D01*
X12672400Y-29107600D02*
X16540000Y-25240000D01*
X33898300Y-65898300D02*
X46000000Y-78000000D01*
X33898300Y-56817500D02*
X33898300Y-65898300D01*
X17876000Y-48354000D02*
X16540000Y-49690000D01*
X31780000Y-50993900D02*
X28003900Y-50993900D01*
X7310000Y-43930000D02*
X10926000Y-40314000D01*
X31780000Y-50993900D02*
X31780000Y-54699200D01*
X12672400Y-35841500D02*
X12672400Y-29107600D01*
X12672400Y-35841500D02*
X15191500Y-35841500D01*
X20284000Y-48354000D02*
X17876000Y-48354000D01*
X7821500Y-57998900D02*
X1596500Y-57998900D01*
X16540000Y-25240000D02*
X16540000Y-24690000D01*
X878300Y-57280700D02*
X878300Y-49011500D01*
D22*
X750000Y-43930000D02*
X2230000Y-43930000D01*
X750000Y-13450000D02*
X2230000Y-13450000D01*
D21*
X10926000Y-37587900D02*
X12672400Y-35841500D01*
X33091800Y-38501800D02*
X33091800Y-48378200D01*
D22*
X750000Y-13450000D02*
X750000Y-49010000D01*
X53305000Y-33250000D02*
X51000000Y-33250000D01*
D21*
X28003900Y-50993900D02*
X26700000Y-49690000D01*
X21620000Y-49690000D02*
X20284000Y-48354000D01*
X31780000Y-37190000D02*
X33091800Y-38501800D01*
X1596500Y-57998900D02*
X878300Y-57280700D01*
X15191500Y-35841500D02*
X16540000Y-37190000D01*
G04 #@! TO.N,SDA*
D20*
X6075400Y-12215400D02*
X6075400Y-22375400D01*
X49665300Y-29149900D02*
X51366700Y-30851300D01*
X49665300Y-16366300D02*
X49665300Y-29149900D01*
X52051700Y-37975500D02*
X52051700Y-38921100D01*
X4770000Y-10910000D02*
X6075400Y-12215400D01*
X53305000Y-37000000D02*
X53027200Y-37000000D01*
X53027200Y-37000000D02*
X52051700Y-37975500D01*
X6075400Y-22375400D02*
X7310000Y-23610000D01*
G04 #@! TO.N,+5V*
D21*
X8615400Y-10021400D02*
X8615400Y-24844600D01*
X5579600Y-6985600D02*
X8615400Y-10021400D01*
X2230000Y-8370000D02*
X3614400Y-6985600D01*
X8615400Y-24844600D02*
X7310000Y-26150000D01*
X3614400Y-6985600D02*
X5579600Y-6985600D01*
X2230000Y-10910000D02*
X2230000Y-8370000D01*
G04 #@! TO.N,3V3*
D20*
X3479900Y-27399900D02*
X4770000Y-28690000D01*
X50610600Y-26323500D02*
X50610600Y-17486900D01*
X3479900Y-17224700D02*
X3479900Y-27399900D01*
X53642300Y-38250000D02*
X53305000Y-38250000D01*
X4770000Y-28690000D02*
X7310000Y-28690000D01*
X54654700Y-37237600D02*
X53642300Y-38250000D01*
X54654700Y-36375000D02*
X54654700Y-37237600D01*
X52045100Y-27758000D02*
X50610600Y-26323500D01*
G04 #@! TO.N,GPIO8*
X3500000Y-37579999D02*
X3500000Y-40119999D01*
X2230000Y-36309999D02*
X3500000Y-37579999D01*
X3500000Y-40119999D02*
X7310000Y-40119999D01*
X7310000Y-40119999D02*
X7310000Y-41389999D01*
G04 #@! TO.N,GPIO20*
X3420600Y-52899400D02*
X6119400Y-52899400D01*
X2230000Y-54090000D02*
X3420600Y-52899400D01*
X6119400Y-52899400D02*
X7310000Y-54090000D01*
G04 #@! TO.N,GPIO21*
X3420600Y-55439400D02*
X6119400Y-55439400D01*
X2230000Y-56630000D02*
X3420600Y-55439400D01*
X6119400Y-55439400D02*
X7310000Y-56630000D01*
G04 #@! TO.N,S_HPCOOL*
X44450000Y-6950000D02*
X44851000Y-7351000D01*
X44851000Y-52929000D02*
X39200000Y-58580000D01*
X44851000Y-7351000D02*
X44851000Y-52929000D01*
G04 #@! TO.N,S_DHWX*
X46073300Y-7826700D02*
X46073300Y-55706700D01*
X46950000Y-6950000D02*
X46073300Y-7826700D01*
X46073300Y-55706700D02*
X43200000Y-58580000D01*
G04 #@! TO.N,S_SP-E*
X48771900Y-57008100D02*
X47200000Y-58580000D01*
X48771900Y-7628100D02*
X48771900Y-57008100D01*
X49450000Y-6950000D02*
X48771900Y-7628100D01*
G04 #@! TO.N,S_BOS1*
X35200000Y-46080000D02*
X36785700Y-44494300D01*
X36785700Y-20185700D02*
X23550000Y-6950000D01*
X36785700Y-44494300D02*
X36785700Y-20185700D01*
G04 #@! TO.N,S_CHIL*
X21050000Y-11175800D02*
X36059000Y-26184800D01*
X21050000Y-6950000D02*
X21050000Y-11175800D01*
X36059000Y-26184800D02*
X36059000Y-28794200D01*
G04 #@! TO.N,S_BOS2*
X39200000Y-46080000D02*
X37237400Y-44117400D01*
X37237400Y-18137400D02*
X26050000Y-6950000D01*
X37237400Y-44117400D02*
X37237400Y-18137400D01*
G04 #@! TO.N,VS*
D21*
X19080000Y-57310000D02*
X17778000Y-56008000D01*
X38651700Y-59881700D02*
X33898300Y-55128300D01*
X15302000Y-56008000D02*
X14000000Y-57310000D01*
X17778000Y-56008000D02*
X15302000Y-56008000D01*
X19080000Y-44810000D02*
X17724800Y-46165200D01*
X12695600Y-53401600D02*
X12695600Y-48824800D01*
X49665300Y-33579600D02*
X49665300Y-57956800D01*
X15302000Y-56008000D02*
X12695600Y-53401600D01*
X49665300Y-57956800D02*
X47740400Y-59881700D01*
X53305000Y-32000000D02*
X51244900Y-32000000D01*
X25493400Y-58643400D02*
X29240000Y-58643400D01*
X33898300Y-36968300D02*
X29240000Y-32310000D01*
X29240000Y-70240000D02*
X29240000Y-58643400D01*
X29240000Y-58643400D02*
X29240000Y-57310000D01*
X24160000Y-57310000D02*
X25493400Y-58643400D01*
X47740400Y-59881700D02*
X38651700Y-59881700D01*
X51244900Y-32000000D02*
X49665300Y-33579600D01*
X12695600Y-48824800D02*
X15355200Y-46165200D01*
X15355200Y-46165200D02*
X14000000Y-44810000D01*
X33898300Y-55128300D02*
X33898300Y-36968300D01*
X17724800Y-46165200D02*
X15355200Y-46165200D01*
X40000000Y-81000000D02*
X29240000Y-70240000D01*
G04 #@! TO.N,GPIO12*
D20*
X12820800Y-43965200D02*
X12820800Y-46667200D01*
X24160000Y-37190000D02*
X17717700Y-43632300D01*
X12820800Y-46667200D02*
X11841300Y-47646700D01*
X3406700Y-47646700D02*
X2230000Y-46470000D01*
X13153700Y-43632300D02*
X12820800Y-43965200D01*
X11841300Y-47646700D02*
X3406700Y-47646700D01*
X17717700Y-43632300D02*
X13153700Y-43632300D01*
G04 #@! TO.N,GPIO6*
X12300000Y-37190000D02*
X14000000Y-37190000D01*
X12300000Y-46469999D02*
X12300000Y-37190000D01*
X4770000Y-46469999D02*
X12300000Y-46469999D01*
G04 #@! TO.N,S_SCALA*
X41243800Y-37014000D02*
X43665600Y-39435800D01*
X41243800Y-12943800D02*
X41243800Y-37014000D01*
X35250000Y-6950000D02*
X41243800Y-12943800D01*
G04 #@! TO.N,GPIO25*
X8004700Y-32500000D02*
X11942600Y-28562100D01*
X3500000Y-32500000D02*
X8004700Y-32500000D01*
X2230000Y-33770000D02*
X3500000Y-32500000D01*
G04 #@! TO.N,GPIO27*
X6040000Y-24880000D02*
X4770000Y-23610000D01*
X6783400Y-27343800D02*
X6040000Y-26600400D01*
X17897900Y-23507900D02*
X12587900Y-23507900D01*
X12587900Y-23507900D02*
X8752000Y-27343800D01*
X19080000Y-24690000D02*
X17897900Y-23507900D01*
X8752000Y-27343800D02*
X6783400Y-27343800D01*
X6040000Y-26600400D02*
X6040000Y-24880000D01*
G04 #@! TD*
M02*
