M48
; DRILL file KiCad 10.0.6 date 2026-09-12T11:27:55
; FORMAT={-:-/ absolute / metric / decimal}
; #@! TF.CreationDate,2026-09-12T11:27:55-04:00
; #@! TF.GenerationSoftware,Kicad,Pcbnew,10.0.6
; #@! TF.FileFunction,MixedPlating,1,2
FMAT,2
METRIC
; #@! TA.AperFunction,Plated,PTH,ViaDrill
T1C0.400
; #@! TA.AperFunction,Plated,PTH,ViaDrill
T2C0.500
; #@! TA.AperFunction,Plated,PTH,ComponentDrill
T3C0.800
; #@! TA.AperFunction,Plated,PTH,ComponentDrill
T4C1.000
; #@! TA.AperFunction,Plated,PTH,ComponentDrill
T5C1.100
%
G90
G05
T1
X9.129Y-39.571
X9.677Y-30.209
X13.655Y-35.724
X19.476Y-51.924
X31.043Y-32.538
X34.952Y-28.532
T2
X48.092Y-48.329
X52.374Y-55.923
T3
X10.5Y-24.69
X10.5Y-32.31
X10.5Y-37.19
X10.5Y-44.81
X10.5Y-49.69
X10.5Y-57.31
X13.04Y-24.69
X13.04Y-32.31
X13.04Y-37.19
X13.04Y-44.81
X13.04Y-49.69
X13.04Y-57.31
X15.58Y-24.69
X15.58Y-32.31
X15.58Y-37.19
X15.58Y-44.81
X15.58Y-49.69
X15.58Y-57.31
X18.12Y-24.69
X18.12Y-32.31
X18.12Y-37.19
X18.12Y-44.81
X18.12Y-49.69
X18.12Y-57.31
X20.66Y-24.69
X20.66Y-32.31
X20.66Y-37.19
X20.66Y-44.81
X20.66Y-49.69
X20.66Y-57.31
X23.2Y-24.69
X23.2Y-32.31
X23.2Y-37.19
X23.2Y-44.81
X23.2Y-49.69
X23.2Y-57.31
X25.74Y-24.69
X25.74Y-32.31
X25.74Y-37.19
X25.74Y-44.81
X25.74Y-49.69
X25.74Y-57.31
X28.28Y-24.69
X28.28Y-32.31
X28.28Y-37.19
X28.28Y-44.81
X28.28Y-49.69
X28.28Y-57.31
X32.0Y-23.42
X32.0Y-33.58
X32.0Y-35.92
X32.0Y-46.08
X32.0Y-48.42
X32.0Y-58.58
X36.0Y-23.42
X36.0Y-33.58
X36.0Y-35.92
X36.0Y-46.08
X36.0Y-48.42
X36.0Y-58.58
X40.0Y-23.42
X40.0Y-33.58
X40.0Y-35.92
X40.0Y-46.08
X40.0Y-48.42
X40.0Y-58.58
X44.0Y-23.42
X44.0Y-33.58
X44.0Y-35.92
X44.0Y-46.08
X44.0Y-48.42
X44.0Y-58.58
T4
X2.23Y-8.37
X2.23Y-10.91
X2.23Y-13.45
X2.23Y-15.99
X2.23Y-18.53
X2.23Y-21.07
X2.23Y-23.61
X2.23Y-26.15
X2.23Y-28.69
X2.23Y-31.23
X2.23Y-33.77
X2.23Y-36.31
X2.23Y-38.85
X2.23Y-41.39
X2.23Y-43.93
X2.23Y-46.47
X2.23Y-49.01
X2.23Y-51.55
X2.23Y-54.09
X2.23Y-56.63
X4.77Y-8.37
X4.77Y-10.91
X4.77Y-13.45
X4.77Y-15.99
X4.77Y-18.53
X4.77Y-21.07
X4.77Y-23.61
X4.77Y-26.15
X4.77Y-28.69
X4.77Y-31.23
X4.77Y-33.77
X4.77Y-36.31
X4.77Y-38.85
X4.77Y-41.39
X4.77Y-43.93
X4.77Y-46.47
X4.77Y-49.01
X4.77Y-51.55
X4.77Y-54.09
X4.77Y-56.63
X7.31Y-13.45
X7.31Y-15.99
X7.31Y-18.53
X7.31Y-21.07
X7.31Y-23.61
X7.31Y-26.15
X7.31Y-28.69
X7.31Y-31.23
X7.31Y-33.77
X7.31Y-36.31
X7.31Y-38.85
X7.31Y-41.39
X7.31Y-43.93
X7.31Y-49.01
X7.31Y-54.09
X7.31Y-56.63
X19.0Y-70.0
X24.0Y-70.0
X34.0Y-74.5
X34.0Y-77.04
X34.0Y-79.58
X34.0Y-82.12
X36.54Y-74.5
X36.54Y-77.04
X36.54Y-79.58
X36.54Y-82.12
X39.08Y-74.5
X39.08Y-77.04
X39.08Y-79.58
X39.08Y-82.12
X41.62Y-74.5
X41.62Y-77.04
X41.62Y-79.58
X41.62Y-82.12
X44.16Y-74.5
X44.16Y-77.04
X44.16Y-79.58
X44.16Y-82.12
X46.7Y-74.5
X46.7Y-77.04
X46.7Y-79.58
X46.7Y-82.12
X49.24Y-74.5
X49.24Y-77.04
X49.24Y-79.58
X49.24Y-82.12
X51.78Y-74.5
X51.78Y-77.04
X51.78Y-79.58
X51.78Y-82.12
X54.32Y-74.5
X54.32Y-77.04
X54.32Y-79.58
X54.32Y-82.12
X55.0Y-23.46
X55.0Y-28.54
X55.0Y-32.0
X55.0Y-37.0
X55.0Y-41.0
X55.0Y-44.0
X55.0Y-47.0
X55.0Y-52.5
X55.0Y-55.04
X55.0Y-57.58
T5
X8.0Y-78.0
X9.35Y-6.95
X10.5Y-78.0
X11.85Y-6.95
X13.0Y-78.0
X14.35Y-6.95
X15.5Y-78.0
X16.85Y-6.95
X18.0Y-78.0
X21.05Y-6.95
X22.45Y-78.0
X23.55Y-6.95
X24.95Y-78.0
X26.05Y-6.95
X27.45Y-78.0
X28.55Y-6.95
X29.95Y-78.0
X32.5Y-67.0
X32.5Y-70.2
X32.75Y-6.95
X35.25Y-6.95
X37.75Y-6.95
X40.25Y-6.95
X42.66Y-67.0
X42.66Y-70.2
X44.45Y-6.95
X45.5Y-67.0
X45.5Y-70.2
X46.95Y-6.95
X49.45Y-6.95
X51.95Y-6.95
X55.66Y-67.0
X55.66Y-70.2
M30
