G04 #@! TF.GenerationSoftware,KiCad,Pcbnew,10.0.6*
G04 #@! TF.CreationDate,2026-09-27T00:34:45-04:00*
G04 #@! TF.ProjectId,int-board,696e742d-626f-4617-9264-2e6b69636164,rev?*
G04 #@! TF.SameCoordinates,Original*
G04 #@! TF.FileFunction,Copper,L2,Bot*
G04 #@! TF.FilePolarity,Positive*
%FSLAX46Y46*%
G04 Gerber Fmt 4.6, Leading zero omitted, Abs format (unit mm)*
G04 Created by KiCad (PCBNEW 10.0.6) date 2026-09-27 00:34:45*
%MOMM*%
%LPD*%
G01*
G04 APERTURE LIST*
G04 Aperture macros list*
%AMRoundRect*
0 Rectangle with rounded corners*
0 $1 Rounding radius*
0 $2 $3 $4 $5 $6 $7 $8 $9 X,Y pos of 4 corners*
0 Add a 4 corners polygon primitive as box body*
4,1,4,$2,$3,$4,$5,$6,$7,$8,$9,$2,$3,0*
0 Add four circle primitives for the rounded corners*
1,1,$1+$1,$2,$3*
1,1,$1+$1,$4,$5*
1,1,$1+$1,$6,$7*
1,1,$1+$1,$8,$9*
0 Add four rect primitives between the rounded corners*
20,1,$1+$1,$2,$3,$4,$5,0*
20,1,$1+$1,$4,$5,$6,$7,0*
20,1,$1+$1,$6,$7,$8,$9,0*
20,1,$1+$1,$8,$9,$2,$3,0*%
G04 Aperture macros list end*
G04 #@! TA.AperFunction,ComponentPad*
%ADD10C,1.600000*%
G04 #@! TD*
G04 #@! TA.AperFunction,ComponentPad*
%ADD11C,1.800000*%
G04 #@! TD*
G04 #@! TA.AperFunction,ComponentPad*
%ADD12RoundRect,0.487500X-0.487500X-0.487500X0.487500X-0.487500X0.487500X0.487500X-0.487500X0.487500X0*%
G04 #@! TD*
G04 #@! TA.AperFunction,ComponentPad*
%ADD13C,1.950000*%
G04 #@! TD*
G04 #@! TA.AperFunction,ComponentPad*
%ADD14RoundRect,0.250000X0.550000X-0.550000X0.550000X0.550000X-0.550000X0.550000X-0.550000X-0.550000X0*%
G04 #@! TD*
G04 #@! TA.AperFunction,ComponentPad*
%ADD15RoundRect,0.425000X-0.425000X-0.425000X0.425000X-0.425000X0.425000X0.425000X-0.425000X0.425000X0*%
G04 #@! TD*
G04 #@! TA.AperFunction,ComponentPad*
%ADD16C,1.700000*%
G04 #@! TD*
G04 #@! TA.AperFunction,ViaPad*
%ADD17C,0.800000*%
G04 #@! TD*
G04 #@! TA.AperFunction,ViaPad*
%ADD18C,1.000000*%
G04 #@! TD*
G04 #@! TA.AperFunction,Conductor*
%ADD19C,0.250000*%
G04 #@! TD*
G04 #@! TA.AperFunction,Conductor*
%ADD20C,0.500000*%
G04 #@! TD*
G04 APERTURE END LIST*
D10*
G04 #@! TO.P,R11,1*
G04 #@! TO.N,K11*
X43200000Y-48420000D03*
G04 #@! TO.P,R11,2*
G04 #@! TO.N,S_DHWX*
X43200000Y-58580000D03*
G04 #@! TD*
G04 #@! TO.P,J9,3*
G04 #@! TO.N,SCL*
X7310000Y-13450000D03*
G04 #@! TO.P,J9,4*
G04 #@! TO.N,GPIO4*
X7310000Y-15990000D03*
G04 #@! TO.P,J9,5*
G04 #@! TO.N,GND*
X7310000Y-18530000D03*
G04 #@! TO.P,J9,6*
G04 #@! TO.N,GPIO18*
X7310000Y-21070000D03*
G04 #@! TO.P,J9,7*
G04 #@! TO.N,SDA*
X7310000Y-23610000D03*
G04 #@! TO.P,J9,8*
G04 #@! TO.N,+5V*
X7310000Y-26150000D03*
G04 #@! TO.P,J9,9*
G04 #@! TO.N,3V3*
X7310000Y-28690000D03*
G04 #@! TO.P,J9,10*
G04 #@! TO.N,GPIO10*
X7310000Y-31230000D03*
G04 #@! TO.P,J9,11*
G04 #@! TO.N,GPIO9*
X7310000Y-33770000D03*
G04 #@! TO.P,J9,12*
G04 #@! TO.N,GPIO11*
X7310000Y-36310000D03*
G04 #@! TO.P,J9,13*
G04 #@! TO.N,GPIO7*
X7310000Y-38850000D03*
G04 #@! TO.P,J9,14*
G04 #@! TO.N,GPIO8*
X7310000Y-41390000D03*
G04 #@! TO.P,J9,15*
G04 #@! TO.N,GND*
X7310000Y-43930000D03*
G04 #@! TO.P,J9,17*
X7310000Y-49010000D03*
G04 #@! TO.P,J9,19*
G04 #@! TO.N,GPIO20*
X7310000Y-54090000D03*
G04 #@! TO.P,J9,20*
G04 #@! TO.N,GPIO21*
X7310000Y-56630000D03*
G04 #@! TD*
G04 #@! TO.P,R5,1*
G04 #@! TO.N,K5*
X35200000Y-35920000D03*
G04 #@! TO.P,R5,2*
G04 #@! TO.N,S_BOS1*
X35200000Y-46080000D03*
G04 #@! TD*
D11*
G04 #@! TO.P,TP3,1*
G04 #@! TO.N,GND*
X46000000Y-81000000D03*
G04 #@! TD*
D10*
G04 #@! TO.P,R8,1*
G04 #@! TO.N,K8*
X47200000Y-35920000D03*
G04 #@! TO.P,R8,2*
G04 #@! TO.N,S_SCALA*
X47200000Y-46080000D03*
G04 #@! TD*
G04 #@! TO.P,R1,1*
G04 #@! TO.N,K1*
X35200000Y-23420000D03*
G04 #@! TO.P,R1,2*
G04 #@! TO.N,S_ZV*
X35200000Y-33580000D03*
G04 #@! TD*
D11*
G04 #@! TO.P,TP1,1*
G04 #@! TO.N,VS*
X40000000Y-81000000D03*
G04 #@! TD*
D10*
G04 #@! TO.P,R12,1*
G04 #@! TO.N,K12*
X47200000Y-48420000D03*
G04 #@! TO.P,R12,2*
G04 #@! TO.N,S_SP-E*
X47200000Y-58580000D03*
G04 #@! TD*
D12*
G04 #@! TO.P,J1,1*
G04 #@! TO.N,S_ZV*
X9350000Y-6950000D03*
D13*
G04 #@! TO.P,J1,2*
G04 #@! TO.N,S_DHW*
X11850000Y-6950000D03*
G04 #@! TO.P,J1,3*
G04 #@! TO.N,S_BLR*
X14350000Y-6950000D03*
G04 #@! TO.P,J1,4*
G04 #@! TO.N,COM*
X16850000Y-6950000D03*
G04 #@! TD*
D14*
G04 #@! TO.P,U3,1*
G04 #@! TO.N,VS*
X14000000Y-57310000D03*
D10*
G04 #@! TO.P,U3,2*
G04 #@! TO.N,K9*
X16540000Y-57310000D03*
G04 #@! TO.P,U3,3*
G04 #@! TO.N,VS*
X19080000Y-57310000D03*
G04 #@! TO.P,U3,4*
G04 #@! TO.N,K10*
X21620000Y-57310000D03*
G04 #@! TO.P,U3,5*
G04 #@! TO.N,VS*
X24160000Y-57310000D03*
G04 #@! TO.P,U3,6*
G04 #@! TO.N,K11*
X26700000Y-57310000D03*
G04 #@! TO.P,U3,7*
G04 #@! TO.N,VS*
X29240000Y-57310000D03*
G04 #@! TO.P,U3,8*
G04 #@! TO.N,K12*
X31780000Y-57310000D03*
G04 #@! TO.P,U3,9*
G04 #@! TO.N,GND*
X31780000Y-49690000D03*
G04 #@! TO.P,U3,10*
G04 #@! TO.N,GPIO16*
X29240000Y-49690000D03*
G04 #@! TO.P,U3,11*
G04 #@! TO.N,GND*
X26700000Y-49690000D03*
G04 #@! TO.P,U3,12*
G04 #@! TO.N,GPIO19*
X24160000Y-49690000D03*
G04 #@! TO.P,U3,13*
G04 #@! TO.N,GND*
X21620000Y-49690000D03*
G04 #@! TO.P,U3,14*
G04 #@! TO.N,GPIO13*
X19080000Y-49690000D03*
G04 #@! TO.P,U3,15*
G04 #@! TO.N,GND*
X16540000Y-49690000D03*
G04 #@! TO.P,U3,16*
G04 #@! TO.N,GPIO24*
X14000000Y-49690000D03*
G04 #@! TD*
G04 #@! TO.P,R9,1*
G04 #@! TO.N,K9*
X35200000Y-48420000D03*
G04 #@! TO.P,R9,2*
G04 #@! TO.N,S_HPHEAT*
X35200000Y-58580000D03*
G04 #@! TD*
G04 #@! TO.P,R6,1*
G04 #@! TO.N,K6*
X39200000Y-35920000D03*
G04 #@! TO.P,R6,2*
G04 #@! TO.N,S_BOS2*
X39200000Y-46080000D03*
G04 #@! TD*
D14*
G04 #@! TO.P,U1,1*
G04 #@! TO.N,VS*
X14000000Y-32310000D03*
D10*
G04 #@! TO.P,U1,2*
G04 #@! TO.N,K1*
X16540000Y-32310000D03*
G04 #@! TO.P,U1,3*
G04 #@! TO.N,VS*
X19080000Y-32310000D03*
G04 #@! TO.P,U1,4*
G04 #@! TO.N,K2*
X21620000Y-32310000D03*
G04 #@! TO.P,U1,5*
G04 #@! TO.N,VS*
X24160000Y-32310000D03*
G04 #@! TO.P,U1,6*
G04 #@! TO.N,K3*
X26700000Y-32310000D03*
G04 #@! TO.P,U1,7*
G04 #@! TO.N,VS*
X29240000Y-32310000D03*
G04 #@! TO.P,U1,8*
G04 #@! TO.N,K4*
X31780000Y-32310000D03*
G04 #@! TO.P,U1,9*
G04 #@! TO.N,GND*
X31780000Y-24690000D03*
G04 #@! TO.P,U1,10*
G04 #@! TO.N,GPIO25*
X29240000Y-24690000D03*
G04 #@! TO.P,U1,11*
G04 #@! TO.N,GND*
X26700000Y-24690000D03*
G04 #@! TO.P,U1,12*
G04 #@! TO.N,GPIO22*
X24160000Y-24690000D03*
G04 #@! TO.P,U1,13*
G04 #@! TO.N,GND*
X21620000Y-24690000D03*
G04 #@! TO.P,U1,14*
G04 #@! TO.N,GPIO27*
X19080000Y-24690000D03*
G04 #@! TO.P,U1,15*
G04 #@! TO.N,GND*
X16540000Y-24690000D03*
G04 #@! TO.P,U1,16*
G04 #@! TO.N,GPIO17*
X14000000Y-24690000D03*
G04 #@! TD*
G04 #@! TO.P,R7,1*
G04 #@! TO.N,K7*
X43200000Y-35920000D03*
G04 #@! TO.P,R7,2*
G04 #@! TO.N,S_DEHUM*
X43200000Y-46080000D03*
G04 #@! TD*
G04 #@! TO.P,R10,1*
G04 #@! TO.N,K10*
X39200000Y-48420000D03*
G04 #@! TO.P,R10,2*
G04 #@! TO.N,S_HPCOOL*
X39200000Y-58580000D03*
G04 #@! TD*
G04 #@! TO.P,R2,1*
G04 #@! TO.N,K2*
X39200000Y-23420000D03*
G04 #@! TO.P,R2,2*
G04 #@! TO.N,S_DHW*
X39200000Y-33580000D03*
G04 #@! TD*
D12*
G04 #@! TO.P,J4,1*
G04 #@! TO.N,S_HPCOOL*
X44450000Y-6950000D03*
D13*
G04 #@! TO.P,J4,2*
G04 #@! TO.N,S_DHWX*
X46950000Y-6950000D03*
G04 #@! TO.P,J4,3*
G04 #@! TO.N,S_SP-E*
X49450000Y-6950000D03*
G04 #@! TO.P,J4,4*
G04 #@! TO.N,COM*
X51950000Y-6950000D03*
G04 #@! TD*
D10*
G04 #@! TO.P,R3,1*
G04 #@! TO.N,K3*
X43200000Y-23420000D03*
G04 #@! TO.P,R3,2*
G04 #@! TO.N,S_BLR*
X43200000Y-33580000D03*
G04 #@! TD*
D14*
G04 #@! TO.P,U2,1*
G04 #@! TO.N,VS*
X14000000Y-44810000D03*
D10*
G04 #@! TO.P,U2,2*
G04 #@! TO.N,K5*
X16540000Y-44810000D03*
G04 #@! TO.P,U2,3*
G04 #@! TO.N,VS*
X19080000Y-44810000D03*
G04 #@! TO.P,U2,4*
G04 #@! TO.N,K6*
X21620000Y-44810000D03*
G04 #@! TO.P,U2,5*
G04 #@! TO.N,VS*
X24160000Y-44810000D03*
G04 #@! TO.P,U2,6*
G04 #@! TO.N,K7*
X26700000Y-44810000D03*
G04 #@! TO.P,U2,7*
G04 #@! TO.N,VS*
X29240000Y-44810000D03*
G04 #@! TO.P,U2,8*
G04 #@! TO.N,K8*
X31780000Y-44810000D03*
G04 #@! TO.P,U2,9*
G04 #@! TO.N,GND*
X31780000Y-37190000D03*
G04 #@! TO.P,U2,10*
G04 #@! TO.N,GPIO23*
X29240000Y-37190000D03*
G04 #@! TO.P,U2,11*
G04 #@! TO.N,GND*
X26700000Y-37190000D03*
G04 #@! TO.P,U2,12*
G04 #@! TO.N,GPIO12*
X24160000Y-37190000D03*
G04 #@! TO.P,U2,13*
G04 #@! TO.N,GND*
X21620000Y-37190000D03*
G04 #@! TO.P,U2,14*
G04 #@! TO.N,GPIO5*
X19080000Y-37190000D03*
G04 #@! TO.P,U2,15*
G04 #@! TO.N,GND*
X16540000Y-37190000D03*
G04 #@! TO.P,U2,16*
G04 #@! TO.N,GPIO6*
X14000000Y-37190000D03*
G04 #@! TD*
D12*
G04 #@! TO.P,J2,1*
G04 #@! TO.N,S_CHIL*
X21050000Y-6950000D03*
D13*
G04 #@! TO.P,J2,2*
G04 #@! TO.N,S_BOS1*
X23550000Y-6950000D03*
G04 #@! TO.P,J2,3*
G04 #@! TO.N,S_BOS2*
X26050000Y-6950000D03*
G04 #@! TO.P,J2,4*
G04 #@! TO.N,COM*
X28550000Y-6950000D03*
G04 #@! TD*
D11*
G04 #@! TO.P,TP2,1*
G04 #@! TO.N,COM*
X43000000Y-81000000D03*
G04 #@! TD*
D12*
G04 #@! TO.P,J3,1*
G04 #@! TO.N,S_DEHUM*
X32750000Y-6950000D03*
D13*
G04 #@! TO.P,J3,2*
G04 #@! TO.N,S_SCALA*
X35250000Y-6950000D03*
G04 #@! TO.P,J3,3*
G04 #@! TO.N,S_HPHEAT*
X37750000Y-6950000D03*
G04 #@! TO.P,J3,4*
G04 #@! TO.N,COM*
X40250000Y-6950000D03*
G04 #@! TD*
D10*
G04 #@! TO.P,R4,1*
G04 #@! TO.N,K4*
X47200000Y-23420000D03*
G04 #@! TO.P,R4,2*
G04 #@! TO.N,S_CHIL*
X47200000Y-33580000D03*
G04 #@! TD*
D15*
G04 #@! TO.P,J5,1*
G04 #@! TO.N,N/C*
X4770000Y-8370000D03*
D16*
G04 #@! TO.P,J5,2*
G04 #@! TO.N,+5V*
X2230000Y-8370000D03*
G04 #@! TO.P,J5,3*
G04 #@! TO.N,SDA*
X4770000Y-10910000D03*
G04 #@! TO.P,J5,4*
G04 #@! TO.N,+5V*
X2230000Y-10910000D03*
G04 #@! TO.P,J5,5*
G04 #@! TO.N,SCL*
X4770000Y-13450000D03*
G04 #@! TO.P,J5,6*
G04 #@! TO.N,GND*
X2230000Y-13450000D03*
G04 #@! TO.P,J5,7*
G04 #@! TO.N,GPIO4*
X4770000Y-15990000D03*
G04 #@! TO.P,J5,8*
G04 #@! TO.N,N/C*
X2230000Y-15990000D03*
G04 #@! TO.P,J5,9*
G04 #@! TO.N,GND*
X4770000Y-18530000D03*
G04 #@! TO.P,J5,10*
G04 #@! TO.N,N/C*
X2230000Y-18530000D03*
G04 #@! TO.P,J5,11*
G04 #@! TO.N,GPIO17*
X4770000Y-21070000D03*
G04 #@! TO.P,J5,12*
G04 #@! TO.N,GPIO18*
X2230000Y-21070000D03*
G04 #@! TO.P,J5,13*
G04 #@! TO.N,GPIO27*
X4770000Y-23610000D03*
G04 #@! TO.P,J5,14*
G04 #@! TO.N,GND*
X2230000Y-23610000D03*
G04 #@! TO.P,J5,15*
G04 #@! TO.N,GPIO22*
X4770000Y-26150000D03*
G04 #@! TO.P,J5,16*
G04 #@! TO.N,GPIO23*
X2230000Y-26150000D03*
G04 #@! TO.P,J5,17*
G04 #@! TO.N,3V3*
X4770000Y-28690000D03*
G04 #@! TO.P,J5,18*
G04 #@! TO.N,GPIO24*
X2230000Y-28690000D03*
G04 #@! TO.P,J5,19*
G04 #@! TO.N,GPIO10*
X4770000Y-31230000D03*
G04 #@! TO.P,J5,20*
G04 #@! TO.N,GND*
X2230000Y-31230000D03*
G04 #@! TO.P,J5,21*
G04 #@! TO.N,GPIO9*
X4770000Y-33770000D03*
G04 #@! TO.P,J5,22*
G04 #@! TO.N,GPIO25*
X2230000Y-33770000D03*
G04 #@! TO.P,J5,23*
G04 #@! TO.N,GPIO11*
X4770000Y-36310000D03*
G04 #@! TO.P,J5,24*
G04 #@! TO.N,GPIO8*
X2230000Y-36310000D03*
G04 #@! TO.P,J5,25*
G04 #@! TO.N,N/C*
X4770000Y-38850000D03*
G04 #@! TO.P,J5,26*
G04 #@! TO.N,GPIO7*
X2230000Y-38850000D03*
G04 #@! TO.P,J5,27*
G04 #@! TO.N,N/C*
X4770000Y-41390000D03*
G04 #@! TO.P,J5,28*
X2230000Y-41390000D03*
G04 #@! TO.P,J5,29*
G04 #@! TO.N,GPIO5*
X4770000Y-43930000D03*
G04 #@! TO.P,J5,30*
G04 #@! TO.N,GND*
X2230000Y-43930000D03*
G04 #@! TO.P,J5,31*
G04 #@! TO.N,GPIO6*
X4770000Y-46470000D03*
G04 #@! TO.P,J5,32*
G04 #@! TO.N,GPIO12*
X2230000Y-46470000D03*
G04 #@! TO.P,J5,33*
G04 #@! TO.N,GPIO13*
X4770000Y-49010000D03*
G04 #@! TO.P,J5,34*
G04 #@! TO.N,GND*
X2230000Y-49010000D03*
G04 #@! TO.P,J5,35*
G04 #@! TO.N,GPIO19*
X4770000Y-51550000D03*
G04 #@! TO.P,J5,36*
G04 #@! TO.N,GPIO16*
X2230000Y-51550000D03*
G04 #@! TO.P,J5,37*
G04 #@! TO.N,N/C*
X4770000Y-54090000D03*
G04 #@! TO.P,J5,38*
G04 #@! TO.N,GPIO20*
X2230000Y-54090000D03*
G04 #@! TO.P,J5,39*
G04 #@! TO.N,N/C*
X4770000Y-56630000D03*
G04 #@! TO.P,J5,40*
G04 #@! TO.N,GPIO21*
X2230000Y-56630000D03*
G04 #@! TD*
D17*
G04 #@! TO.N,SCL*
X54293500Y-17253500D03*
G04 #@! TO.N,GPIO4*
X51351800Y-29809100D03*
X52083100Y-38944400D03*
X50464100Y-16775000D03*
D18*
G04 #@! TO.N,GND*
X13177600Y-47123500D03*
D17*
G04 #@! TO.N,SDA*
X55869900Y-16422600D03*
G04 #@! TO.N,3V3*
X52039000Y-27981600D03*
X51812100Y-17502000D03*
X53305000Y-39176700D03*
X3508100Y-17304800D03*
G04 #@! TO.N,S_SCALA*
X42833100Y-41361600D03*
D18*
G04 #@! TO.N,VS*
X47582100Y-60147200D03*
D17*
G04 #@! TO.N,S_BLR*
X41613300Y-13382900D03*
G04 #@! TO.N,GPIO25*
X14301900Y-29582800D03*
G04 #@! TO.N,S_CHIL*
X46000900Y-13217100D03*
G04 #@! TD*
G04 #@! TO.N,K11*
D19*
X36471800Y-55148200D02*
X43200000Y-48420000D01*
X28861800Y-55148200D02*
X36471800Y-55148200D01*
X26700000Y-57310000D02*
X28861800Y-55148200D01*
G04 #@! TO.N,SCL*
X52542100Y-15502000D02*
X9362000Y-15502000D01*
X54293500Y-17253500D02*
X52542100Y-15502100D01*
X9362000Y-15502000D02*
X7310000Y-13450000D01*
X4770000Y-13450000D02*
X7310000Y-13450000D01*
X52542100Y-15502100D02*
X52542100Y-15502000D01*
G04 #@! TO.N,GPIO4*
X52083100Y-30540400D02*
X52083100Y-38944400D01*
X49679100Y-15990000D02*
X50464100Y-16775000D01*
X51351800Y-29809100D02*
X52083100Y-30540400D01*
X4770000Y-15990000D02*
X7310000Y-15990000D01*
X7310000Y-15990000D02*
X49679100Y-15990000D01*
G04 #@! TO.N,GND*
D20*
X26700000Y-24690000D02*
X28012900Y-23377100D01*
X25389700Y-48379700D02*
X22930300Y-48379700D01*
X28055200Y-48334800D02*
X26700000Y-49690000D01*
X7310000Y-49010000D02*
X7310000Y-43930000D01*
X31780000Y-49690000D02*
X30424800Y-48334800D01*
X30471600Y-38498400D02*
X28008400Y-38498400D01*
X21620000Y-37190000D02*
X20316300Y-35886300D01*
X16540000Y-24690000D02*
X17841700Y-23388300D01*
X28012900Y-23377100D02*
X30467100Y-23377100D01*
X22930300Y-48379700D02*
X21620000Y-49690000D01*
X22927600Y-38497600D02*
X21620000Y-37190000D01*
X16540000Y-24690000D02*
X15213800Y-23363800D01*
X17843700Y-35886300D02*
X16540000Y-37190000D01*
X20318300Y-23388300D02*
X21620000Y-24690000D01*
X13973500Y-47123500D02*
X13177600Y-47123500D01*
X15213800Y-23363800D02*
X12143800Y-23363800D01*
X31780000Y-37190000D02*
X30471600Y-38498400D01*
X30467100Y-23377100D02*
X31780000Y-24690000D01*
X16540000Y-49690000D02*
X13973500Y-47123500D01*
X12143800Y-23363800D02*
X7310000Y-18530000D01*
X26700000Y-37190000D02*
X25392400Y-38497600D01*
X4770000Y-18530000D02*
X7310000Y-18530000D01*
X25392400Y-38497600D02*
X22927600Y-38497600D01*
X30424800Y-48334800D02*
X28055200Y-48334800D01*
X28008400Y-38498400D02*
X26700000Y-37190000D01*
X20316300Y-35886300D02*
X17843700Y-35886300D01*
X17841700Y-23388300D02*
X20318300Y-23388300D01*
X26700000Y-49690000D02*
X25389700Y-48379700D01*
G04 #@! TO.N,GPIO18*
D19*
X6075300Y-19835300D02*
X7310000Y-21070000D01*
X3464700Y-19835300D02*
X6075300Y-19835300D01*
X2230000Y-21070000D02*
X3464700Y-19835300D01*
G04 #@! TO.N,SDA*
X16109700Y-10910000D02*
X19365100Y-14165400D01*
X19365100Y-14165400D02*
X53612700Y-14165400D01*
X4770000Y-10910000D02*
X16109700Y-10910000D01*
X53612700Y-14165400D02*
X55869900Y-16422600D01*
G04 #@! TO.N,3V3*
X53305000Y-39176700D02*
X53305000Y-29247600D01*
X53305000Y-29247600D02*
X52039000Y-27981600D01*
X49688600Y-17224700D02*
X3588200Y-17224700D01*
X7310000Y-28690000D02*
X4770000Y-28690000D01*
X3588200Y-17224700D02*
X3508100Y-17304800D01*
X49965900Y-17502000D02*
X49688600Y-17224700D01*
X51812100Y-17502000D02*
X49965900Y-17502000D01*
G04 #@! TO.N,GPIO10*
X4770000Y-31230000D02*
X7310000Y-31230000D01*
G04 #@! TO.N,GPIO9*
X4770000Y-33770000D02*
X7310000Y-33770000D01*
G04 #@! TO.N,GPIO11*
X4770000Y-36310000D02*
X7310000Y-36310000D01*
G04 #@! TO.N,GPIO7*
X2230000Y-38850000D02*
X3420600Y-37659400D01*
X6119400Y-37659400D02*
X7310000Y-38850000D01*
X3420600Y-37659400D02*
X6119400Y-37659400D01*
G04 #@! TO.N,GPIO21*
X2230000Y-56630000D02*
X3420600Y-55439400D01*
X6119400Y-55439400D02*
X7310000Y-56630000D01*
X3420600Y-55439400D02*
X6119400Y-55439400D01*
G04 #@! TO.N,K5*
X31986700Y-39133300D02*
X35200000Y-35920000D01*
X22216700Y-39133300D02*
X31986700Y-39133300D01*
X16540000Y-44810000D02*
X22216700Y-39133300D01*
G04 #@! TO.N,K8*
X31780000Y-44810000D02*
X38310000Y-44810000D01*
X38310000Y-44810000D02*
X47200000Y-35920000D01*
G04 #@! TO.N,S_SCALA*
X47200000Y-46080000D02*
X47200000Y-45728500D01*
X47200000Y-45728500D02*
X42833100Y-41361600D01*
G04 #@! TO.N,K1*
X24105600Y-27379000D02*
X24557300Y-26927300D01*
X31692700Y-26927300D02*
X35200000Y-23420000D01*
X16540000Y-32310000D02*
X21471000Y-27379000D01*
X21471000Y-27379000D02*
X24105600Y-27379000D01*
X24557300Y-26927300D02*
X31692700Y-26927300D01*
G04 #@! TO.N,VS*
D20*
X19080000Y-44810000D02*
X20381700Y-46111700D01*
X24160000Y-32310000D02*
X22845000Y-33625000D01*
X29240000Y-57310000D02*
X32077200Y-60147200D01*
X22845000Y-33625000D02*
X20395000Y-33625000D01*
X20383400Y-56006600D02*
X22856600Y-56006600D01*
X32077200Y-60147200D02*
X47582100Y-60147200D01*
X20381700Y-46111700D02*
X22858300Y-46111700D01*
X22858300Y-46111700D02*
X24160000Y-44810000D01*
X19080000Y-57310000D02*
X20383400Y-56006600D01*
X22856600Y-56006600D02*
X24160000Y-57310000D01*
X20395000Y-33625000D02*
X19080000Y-32310000D01*
G04 #@! TO.N,K12*
D19*
X47200000Y-48420000D02*
X38937800Y-56682200D01*
X32407800Y-56682200D02*
X31780000Y-57310000D01*
X38937800Y-56682200D02*
X32407800Y-56682200D01*
G04 #@! TO.N,S_BLR*
X14350000Y-6950000D02*
X20782900Y-13382900D01*
X20782900Y-13382900D02*
X41613300Y-13382900D01*
G04 #@! TO.N,COM*
D20*
X38762000Y-5462000D02*
X30038000Y-5462000D01*
X40250000Y-6950000D02*
X38762000Y-5462000D01*
X27061400Y-5461400D02*
X18338600Y-5461400D01*
X18338600Y-5461400D02*
X16850000Y-6950000D01*
X50462000Y-5462000D02*
X41738000Y-5462000D01*
X41738000Y-5462000D02*
X40250000Y-6950000D01*
X51950000Y-6950000D02*
X50462000Y-5462000D01*
X30038000Y-5462000D02*
X28550000Y-6950000D01*
X28550000Y-6950000D02*
X27061400Y-5461400D01*
G04 #@! TO.N,K9*
D19*
X20549500Y-53300500D02*
X30319500Y-53300500D01*
X30319500Y-53300500D02*
X35200000Y-48420000D01*
X16540000Y-57310000D02*
X20549500Y-53300500D01*
G04 #@! TO.N,K10*
X25465400Y-56910600D02*
X25465400Y-57735500D01*
X25465400Y-57735500D02*
X24689200Y-58511700D01*
X27679500Y-54696500D02*
X25465400Y-56910600D01*
X32923500Y-54696500D02*
X27679500Y-54696500D01*
X24689200Y-58511700D02*
X22821700Y-58511700D01*
X22821700Y-58511700D02*
X21620000Y-57310000D01*
X39200000Y-48420000D02*
X32923500Y-54696500D01*
G04 #@! TO.N,GPIO16*
X3410600Y-52730600D02*
X2230000Y-51550000D01*
X26199400Y-52730600D02*
X3410600Y-52730600D01*
X29240000Y-49690000D02*
X26199400Y-52730600D01*
G04 #@! TO.N,GPIO19*
X22045900Y-51804100D02*
X24160000Y-49690000D01*
X4770000Y-51550000D02*
X5024100Y-51804100D01*
X5024100Y-51804100D02*
X22045900Y-51804100D01*
G04 #@! TO.N,GPIO13*
X19080000Y-49690000D02*
X17439600Y-51330400D01*
X17439600Y-51330400D02*
X7090400Y-51330400D01*
X7090400Y-51330400D02*
X4770000Y-49010000D01*
G04 #@! TO.N,GPIO24*
X3500000Y-29959999D02*
X12300000Y-29959999D01*
X12300000Y-29959999D02*
X12300000Y-49690000D01*
X12300000Y-49690000D02*
X14000000Y-49690000D01*
X2230000Y-28689999D02*
X3500000Y-29959999D01*
G04 #@! TO.N,K6*
X26843500Y-39586500D02*
X35533500Y-39586500D01*
X21620000Y-44810000D02*
X26843500Y-39586500D01*
X35533500Y-39586500D02*
X39200000Y-35920000D01*
G04 #@! TO.N,K2*
X35081900Y-27538100D02*
X39200000Y-23420000D01*
X21620000Y-32310000D02*
X26391900Y-27538100D01*
X26391900Y-27538100D02*
X35081900Y-27538100D01*
G04 #@! TO.N,K3*
X29648800Y-29361200D02*
X26700000Y-32310000D01*
X37258800Y-29361200D02*
X29648800Y-29361200D01*
X43200000Y-23420000D02*
X37258800Y-29361200D01*
G04 #@! TO.N,K4*
X31780000Y-32310000D02*
X38310000Y-32310000D01*
X38310000Y-32310000D02*
X47200000Y-23420000D01*
G04 #@! TO.N,GPIO25*
X17182500Y-26702200D02*
X14301900Y-29582800D01*
X29240000Y-24690000D02*
X27602200Y-26327800D01*
X23918800Y-26702200D02*
X17182500Y-26702200D01*
X27602200Y-26327800D02*
X24293200Y-26327800D01*
X24293200Y-26327800D02*
X23918800Y-26702200D01*
G04 #@! TO.N,GPIO22*
X22972400Y-25877600D02*
X24160000Y-24690000D01*
X5947700Y-24972300D02*
X9151000Y-24972300D01*
X4770000Y-26150000D02*
X5947700Y-24972300D01*
X9151000Y-24972300D02*
X10056300Y-25877600D01*
X10056300Y-25877600D02*
X22972400Y-25877600D01*
G04 #@! TO.N,GPIO17*
X6040000Y-22340000D02*
X7635200Y-22340000D01*
X4770000Y-21070000D02*
X6040000Y-22340000D01*
X9985200Y-24690000D02*
X14000000Y-24690000D01*
X7635200Y-22340000D02*
X9985200Y-24690000D01*
G04 #@! TO.N,K7*
X26700000Y-44810000D02*
X30474600Y-41035400D01*
X30474600Y-41035400D02*
X38084600Y-41035400D01*
X38084600Y-41035400D02*
X43200000Y-35920000D01*
G04 #@! TO.N,GPIO23*
X11111500Y-27420000D02*
X15389800Y-31698300D01*
X26588600Y-34538600D02*
X29240000Y-37190000D01*
X3500000Y-27420000D02*
X11111500Y-27420000D01*
X2230000Y-26150000D02*
X3500000Y-27420000D01*
X15389800Y-31698300D02*
X15389900Y-31698300D01*
X15389900Y-31698300D02*
X15389900Y-32762000D01*
X17166500Y-34538600D02*
X26588600Y-34538600D01*
X15389900Y-32762000D02*
X17166500Y-34538600D01*
G04 #@! TO.N,GPIO12*
X22183900Y-35213900D02*
X16842200Y-35213900D01*
X17741600Y-48991600D02*
X17741600Y-50152500D01*
X24160000Y-37190000D02*
X22183900Y-35213900D01*
X15355000Y-36701100D02*
X15355000Y-46605000D01*
X17016900Y-50877200D02*
X7512500Y-50877200D01*
X15355000Y-46605000D02*
X17741600Y-48991600D01*
X6133300Y-49498000D02*
X6133300Y-48672400D01*
X16842200Y-35213900D02*
X15355000Y-36701100D01*
X17741600Y-50152500D02*
X17016900Y-50877200D01*
X6133300Y-48672400D02*
X5200900Y-47740000D01*
X5200900Y-47740000D02*
X3500000Y-47740000D01*
X3500000Y-47740000D02*
X2230000Y-46470000D01*
X7512500Y-50877200D02*
X6133300Y-49498000D01*
G04 #@! TO.N,S_CHIL*
X26597500Y-12497500D02*
X45281300Y-12497500D01*
X45281300Y-12497500D02*
X46000900Y-13217100D01*
X21050000Y-6950000D02*
X26597500Y-12497500D01*
G04 #@! TD*
M02*
