G04 #@! TF.GenerationSoftware,KiCad,Pcbnew,10.0.6*
G04 #@! TF.CreationDate,2026-09-27T00:21:30-04:00*
G04 #@! TF.ProjectId,int-board,696e742d-626f-4617-9264-2e6b69636164,rev?*
G04 #@! TF.SameCoordinates,Original*
G04 #@! TF.FileFunction,Copper,L1,Top*
G04 #@! TF.FilePolarity,Positive*
%FSLAX46Y46*%
G04 Gerber Fmt 4.6, Leading zero omitted, Abs format (unit mm)*
G04 Created by KiCad (PCBNEW 10.0.6) date 2026-09-27 00:21:30*
%MOMM*%
%LPD*%
G01*
G04 APERTURE LIST*
G04 Aperture macros list*
%AMRoundRect*
0 Rectangle with rounded corners*
0 $1 Rounding radius*
0 $2 $3 $4 $5 $6 $7 $8 $9 X,Y pos of 4 corners*
0 Add a 4 corners polygon primitive as box body*
4,1,4,$2,$3,$4,$5,$6,$7,$8,$9,$2,$3,0*
0 Add four circle primitives for the rounded corners*
1,1,$1+$1,$2,$3*
1,1,$1+$1,$4,$5*
1,1,$1+$1,$6,$7*
1,1,$1+$1,$8,$9*
0 Add four rect primitives between the rounded corners*
20,1,$1+$1,$2,$3,$4,$5,0*
20,1,$1+$1,$4,$5,$6,$7,0*
20,1,$1+$1,$6,$7,$8,$9,0*
20,1,$1+$1,$8,$9,$2,$3,0*%
G04 Aperture macros list end*
G04 #@! TA.AperFunction,ComponentPad*
%ADD10C,1.800000*%
G04 #@! TD*
G04 #@! TA.AperFunction,ComponentPad*
%ADD11C,1.600000*%
G04 #@! TD*
G04 #@! TA.AperFunction,ComponentPad*
%ADD12RoundRect,0.250000X0.550000X-0.550000X0.550000X0.550000X-0.550000X0.550000X-0.550000X-0.550000X0*%
G04 #@! TD*
G04 #@! TA.AperFunction,ComponentPad*
%ADD13RoundRect,0.487500X-0.487500X-0.487500X0.487500X-0.487500X0.487500X0.487500X-0.487500X0.487500X0*%
G04 #@! TD*
G04 #@! TA.AperFunction,ComponentPad*
%ADD14C,1.950000*%
G04 #@! TD*
G04 #@! TA.AperFunction,SMDPad,CuDef*
%ADD15RoundRect,0.150000X0.700000X-0.150000X0.700000X0.150000X-0.700000X0.150000X-0.700000X-0.150000X0*%
G04 #@! TD*
G04 #@! TA.AperFunction,SMDPad,CuDef*
%ADD16RoundRect,0.250000X1.100000X-0.250000X1.100000X0.250000X-1.100000X0.250000X-1.100000X-0.250000X0*%
G04 #@! TD*
G04 #@! TA.AperFunction,ComponentPad*
%ADD17RoundRect,0.425000X-0.425000X-0.425000X0.425000X-0.425000X0.425000X0.425000X-0.425000X0.425000X0*%
G04 #@! TD*
G04 #@! TA.AperFunction,ComponentPad*
%ADD18C,1.700000*%
G04 #@! TD*
G04 #@! TA.AperFunction,ViaPad*
%ADD19C,0.800000*%
G04 #@! TD*
G04 #@! TA.AperFunction,ViaPad*
%ADD20C,1.000000*%
G04 #@! TD*
G04 #@! TA.AperFunction,Conductor*
%ADD21C,0.500000*%
G04 #@! TD*
G04 #@! TA.AperFunction,Conductor*
%ADD22C,0.400000*%
G04 #@! TD*
G04 #@! TA.AperFunction,Conductor*
%ADD23C,0.250000*%
G04 #@! TD*
G04 APERTURE END LIST*
D10*
G04 #@! TO.P,TP3,1*
G04 #@! TO.N,GND*
X46000000Y-81000000D03*
G04 #@! TD*
D11*
G04 #@! TO.P,J9,3*
G04 #@! TO.N,SCL*
X7310000Y-13450000D03*
G04 #@! TO.P,J9,4*
G04 #@! TO.N,GPIO4*
X7310000Y-15990000D03*
G04 #@! TO.P,J9,5*
G04 #@! TO.N,GND*
X7310000Y-18530000D03*
G04 #@! TO.P,J9,6*
G04 #@! TO.N,GPIO18*
X7310000Y-21070000D03*
G04 #@! TO.P,J9,7*
G04 #@! TO.N,SDA*
X7310000Y-23610000D03*
G04 #@! TO.P,J9,8*
G04 #@! TO.N,+5V*
X7310000Y-26150000D03*
G04 #@! TO.P,J9,9*
G04 #@! TO.N,3V3*
X7310000Y-28690000D03*
G04 #@! TO.P,J9,10*
G04 #@! TO.N,GPIO10*
X7310000Y-31230000D03*
G04 #@! TO.P,J9,11*
G04 #@! TO.N,GPIO9*
X7310000Y-33770000D03*
G04 #@! TO.P,J9,12*
G04 #@! TO.N,GPIO11*
X7310000Y-36310000D03*
G04 #@! TO.P,J9,13*
G04 #@! TO.N,GPIO7*
X7310000Y-38850000D03*
G04 #@! TO.P,J9,14*
G04 #@! TO.N,GPIO8*
X7310000Y-41390000D03*
G04 #@! TO.P,J9,15*
G04 #@! TO.N,GND*
X7310000Y-43930000D03*
G04 #@! TO.P,J9,17*
X7310000Y-49010000D03*
G04 #@! TO.P,J9,19*
G04 #@! TO.N,GPIO20*
X7310000Y-54090000D03*
G04 #@! TO.P,J9,20*
G04 #@! TO.N,GPIO21*
X7310000Y-56630000D03*
G04 #@! TD*
D12*
G04 #@! TO.P,U3,1*
G04 #@! TO.N,VS*
X14000000Y-57310000D03*
D11*
G04 #@! TO.P,U3,2*
G04 #@! TO.N,K9*
X16540000Y-57310000D03*
G04 #@! TO.P,U3,3*
G04 #@! TO.N,VS*
X19080000Y-57310000D03*
G04 #@! TO.P,U3,4*
G04 #@! TO.N,K10*
X21620000Y-57310000D03*
G04 #@! TO.P,U3,5*
G04 #@! TO.N,VS*
X24160000Y-57310000D03*
G04 #@! TO.P,U3,6*
G04 #@! TO.N,K11*
X26700000Y-57310000D03*
G04 #@! TO.P,U3,7*
G04 #@! TO.N,VS*
X29240000Y-57310000D03*
G04 #@! TO.P,U3,8*
G04 #@! TO.N,K12*
X31780000Y-57310000D03*
G04 #@! TO.P,U3,9*
G04 #@! TO.N,GND*
X31780000Y-49690000D03*
G04 #@! TO.P,U3,10*
G04 #@! TO.N,GPIO16*
X29240000Y-49690000D03*
G04 #@! TO.P,U3,11*
G04 #@! TO.N,GND*
X26700000Y-49690000D03*
G04 #@! TO.P,U3,12*
G04 #@! TO.N,GPIO19*
X24160000Y-49690000D03*
G04 #@! TO.P,U3,13*
G04 #@! TO.N,GND*
X21620000Y-49690000D03*
G04 #@! TO.P,U3,14*
G04 #@! TO.N,GPIO13*
X19080000Y-49690000D03*
G04 #@! TO.P,U3,15*
G04 #@! TO.N,GND*
X16540000Y-49690000D03*
G04 #@! TO.P,U3,16*
G04 #@! TO.N,GPIO24*
X14000000Y-49690000D03*
G04 #@! TD*
G04 #@! TO.P,R6,1*
G04 #@! TO.N,K6*
X39200000Y-35920000D03*
G04 #@! TO.P,R6,2*
G04 #@! TO.N,S_BOS2*
X39200000Y-46080000D03*
G04 #@! TD*
D10*
G04 #@! TO.P,TP1,1*
G04 #@! TO.N,VS*
X40000000Y-81000000D03*
G04 #@! TD*
D11*
G04 #@! TO.P,R5,1*
G04 #@! TO.N,K5*
X35200000Y-35920000D03*
G04 #@! TO.P,R5,2*
G04 #@! TO.N,S_BOS1*
X35200000Y-46080000D03*
G04 #@! TD*
D12*
G04 #@! TO.P,U2,1*
G04 #@! TO.N,VS*
X14000000Y-44810000D03*
D11*
G04 #@! TO.P,U2,2*
G04 #@! TO.N,K5*
X16540000Y-44810000D03*
G04 #@! TO.P,U2,3*
G04 #@! TO.N,VS*
X19080000Y-44810000D03*
G04 #@! TO.P,U2,4*
G04 #@! TO.N,K6*
X21620000Y-44810000D03*
G04 #@! TO.P,U2,5*
G04 #@! TO.N,VS*
X24160000Y-44810000D03*
G04 #@! TO.P,U2,6*
G04 #@! TO.N,K7*
X26700000Y-44810000D03*
G04 #@! TO.P,U2,7*
G04 #@! TO.N,VS*
X29240000Y-44810000D03*
G04 #@! TO.P,U2,8*
G04 #@! TO.N,K8*
X31780000Y-44810000D03*
G04 #@! TO.P,U2,9*
G04 #@! TO.N,GND*
X31780000Y-37190000D03*
G04 #@! TO.P,U2,10*
G04 #@! TO.N,GPIO23*
X29240000Y-37190000D03*
G04 #@! TO.P,U2,11*
G04 #@! TO.N,GND*
X26700000Y-37190000D03*
G04 #@! TO.P,U2,12*
G04 #@! TO.N,GPIO12*
X24160000Y-37190000D03*
G04 #@! TO.P,U2,13*
G04 #@! TO.N,GND*
X21620000Y-37190000D03*
G04 #@! TO.P,U2,14*
G04 #@! TO.N,GPIO5*
X19080000Y-37190000D03*
G04 #@! TO.P,U2,15*
G04 #@! TO.N,GND*
X16540000Y-37190000D03*
G04 #@! TO.P,U2,16*
G04 #@! TO.N,GPIO6*
X14000000Y-37190000D03*
G04 #@! TD*
G04 #@! TO.P,R12,1*
G04 #@! TO.N,K12*
X47200000Y-48420000D03*
G04 #@! TO.P,R12,2*
G04 #@! TO.N,S_SP-E*
X47200000Y-58580000D03*
G04 #@! TD*
D10*
G04 #@! TO.P,TP2,1*
G04 #@! TO.N,COM*
X43000000Y-81000000D03*
G04 #@! TD*
D11*
G04 #@! TO.P,R9,1*
G04 #@! TO.N,K9*
X35200000Y-48420000D03*
G04 #@! TO.P,R9,2*
G04 #@! TO.N,S_HPHEAT*
X35200000Y-58580000D03*
G04 #@! TD*
G04 #@! TO.P,R11,1*
G04 #@! TO.N,K11*
X43200000Y-48420000D03*
G04 #@! TO.P,R11,2*
G04 #@! TO.N,S_DHWX*
X43200000Y-58580000D03*
G04 #@! TD*
D13*
G04 #@! TO.P,J1,1*
G04 #@! TO.N,S_ZV*
X9350000Y-6950000D03*
D14*
G04 #@! TO.P,J1,2*
G04 #@! TO.N,S_DHW*
X11850000Y-6950000D03*
G04 #@! TO.P,J1,3*
G04 #@! TO.N,S_BLR*
X14350000Y-6950000D03*
G04 #@! TO.P,J1,4*
G04 #@! TO.N,COM*
X16850000Y-6950000D03*
G04 #@! TD*
D13*
G04 #@! TO.P,J4,1*
G04 #@! TO.N,S_HPCOOL*
X44450000Y-6950000D03*
D14*
G04 #@! TO.P,J4,2*
G04 #@! TO.N,S_DHWX*
X46950000Y-6950000D03*
G04 #@! TO.P,J4,3*
G04 #@! TO.N,S_SP-E*
X49450000Y-6950000D03*
G04 #@! TO.P,J4,4*
G04 #@! TO.N,COM*
X51950000Y-6950000D03*
G04 #@! TD*
D13*
G04 #@! TO.P,J3,1*
G04 #@! TO.N,S_DEHUM*
X32750000Y-6950000D03*
D14*
G04 #@! TO.P,J3,2*
G04 #@! TO.N,S_SCALA*
X35250000Y-6950000D03*
G04 #@! TO.P,J3,3*
G04 #@! TO.N,S_HPHEAT*
X37750000Y-6950000D03*
G04 #@! TO.P,J3,4*
G04 #@! TO.N,COM*
X40250000Y-6950000D03*
G04 #@! TD*
D11*
G04 #@! TO.P,R4,1*
G04 #@! TO.N,K4*
X47200000Y-23420000D03*
G04 #@! TO.P,R4,2*
G04 #@! TO.N,S_CHIL*
X47200000Y-33580000D03*
G04 #@! TD*
G04 #@! TO.P,R10,1*
G04 #@! TO.N,K10*
X39200000Y-48420000D03*
G04 #@! TO.P,R10,2*
G04 #@! TO.N,S_HPCOOL*
X39200000Y-58580000D03*
G04 #@! TD*
D13*
G04 #@! TO.P,J2,1*
G04 #@! TO.N,S_CHIL*
X21050000Y-6950000D03*
D14*
G04 #@! TO.P,J2,2*
G04 #@! TO.N,S_BOS1*
X23550000Y-6950000D03*
G04 #@! TO.P,J2,3*
G04 #@! TO.N,S_BOS2*
X26050000Y-6950000D03*
G04 #@! TO.P,J2,4*
G04 #@! TO.N,COM*
X28550000Y-6950000D03*
G04 #@! TD*
D12*
G04 #@! TO.P,U1,1*
G04 #@! TO.N,VS*
X14000000Y-32310000D03*
D11*
G04 #@! TO.P,U1,2*
G04 #@! TO.N,K1*
X16540000Y-32310000D03*
G04 #@! TO.P,U1,3*
G04 #@! TO.N,VS*
X19080000Y-32310000D03*
G04 #@! TO.P,U1,4*
G04 #@! TO.N,K2*
X21620000Y-32310000D03*
G04 #@! TO.P,U1,5*
G04 #@! TO.N,VS*
X24160000Y-32310000D03*
G04 #@! TO.P,U1,6*
G04 #@! TO.N,K3*
X26700000Y-32310000D03*
G04 #@! TO.P,U1,7*
G04 #@! TO.N,VS*
X29240000Y-32310000D03*
G04 #@! TO.P,U1,8*
G04 #@! TO.N,K4*
X31780000Y-32310000D03*
G04 #@! TO.P,U1,9*
G04 #@! TO.N,GND*
X31780000Y-24690000D03*
G04 #@! TO.P,U1,10*
G04 #@! TO.N,GPIO25*
X29240000Y-24690000D03*
G04 #@! TO.P,U1,11*
G04 #@! TO.N,GND*
X26700000Y-24690000D03*
G04 #@! TO.P,U1,12*
G04 #@! TO.N,GPIO22*
X24160000Y-24690000D03*
G04 #@! TO.P,U1,13*
G04 #@! TO.N,GND*
X21620000Y-24690000D03*
G04 #@! TO.P,U1,14*
G04 #@! TO.N,GPIO27*
X19080000Y-24690000D03*
G04 #@! TO.P,U1,15*
G04 #@! TO.N,GND*
X16540000Y-24690000D03*
G04 #@! TO.P,U1,16*
G04 #@! TO.N,GPIO17*
X14000000Y-24690000D03*
G04 #@! TD*
G04 #@! TO.P,R1,1*
G04 #@! TO.N,K1*
X35200000Y-23420000D03*
G04 #@! TO.P,R1,2*
G04 #@! TO.N,S_ZV*
X35200000Y-33580000D03*
G04 #@! TD*
G04 #@! TO.P,R2,1*
G04 #@! TO.N,K2*
X39200000Y-23420000D03*
G04 #@! TO.P,R2,2*
G04 #@! TO.N,S_DHW*
X39200000Y-33580000D03*
G04 #@! TD*
G04 #@! TO.P,R8,1*
G04 #@! TO.N,K8*
X47200000Y-35920000D03*
G04 #@! TO.P,R8,2*
G04 #@! TO.N,S_SCALA*
X47200000Y-46080000D03*
G04 #@! TD*
D15*
G04 #@! TO.P,J6,1*
G04 #@! TO.N,3V3*
X53305000Y-38250000D03*
G04 #@! TO.P,J6,2*
G04 #@! TO.N,SDA*
X53305000Y-37000000D03*
G04 #@! TO.P,J6,3*
G04 #@! TO.N,SCL*
X53305000Y-35750000D03*
G04 #@! TO.P,J6,4*
G04 #@! TO.N,GPIO4*
X53305000Y-34500000D03*
G04 #@! TO.P,J6,5*
G04 #@! TO.N,GND*
X53305000Y-33250000D03*
G04 #@! TO.P,J6,6*
G04 #@! TO.N,VS*
X53305000Y-32000000D03*
G04 #@! TO.P,J6,7*
G04 #@! TO.N,COM*
X53305000Y-30750000D03*
D16*
G04 #@! TO.P,J6,MP*
G04 #@! TO.N,N/C*
X56505000Y-40100000D03*
X56505000Y-28900000D03*
G04 #@! TD*
D11*
G04 #@! TO.P,R3,1*
G04 #@! TO.N,K3*
X43200000Y-23420000D03*
G04 #@! TO.P,R3,2*
G04 #@! TO.N,S_BLR*
X43200000Y-33580000D03*
G04 #@! TD*
G04 #@! TO.P,R7,1*
G04 #@! TO.N,K7*
X43200000Y-35920000D03*
G04 #@! TO.P,R7,2*
G04 #@! TO.N,S_DEHUM*
X43200000Y-46080000D03*
G04 #@! TD*
D17*
G04 #@! TO.P,J5,1*
G04 #@! TO.N,N/C*
X4770000Y-8370000D03*
D18*
G04 #@! TO.P,J5,2*
G04 #@! TO.N,+5V*
X2230000Y-8370000D03*
G04 #@! TO.P,J5,3*
G04 #@! TO.N,SDA*
X4770000Y-10910000D03*
G04 #@! TO.P,J5,4*
G04 #@! TO.N,+5V*
X2230000Y-10910000D03*
G04 #@! TO.P,J5,5*
G04 #@! TO.N,SCL*
X4770000Y-13450000D03*
G04 #@! TO.P,J5,6*
G04 #@! TO.N,GND*
X2230000Y-13450000D03*
G04 #@! TO.P,J5,7*
G04 #@! TO.N,GPIO4*
X4770000Y-15990000D03*
G04 #@! TO.P,J5,8*
G04 #@! TO.N,N/C*
X2230000Y-15990000D03*
G04 #@! TO.P,J5,9*
G04 #@! TO.N,GND*
X4770000Y-18530000D03*
G04 #@! TO.P,J5,10*
G04 #@! TO.N,N/C*
X2230000Y-18530000D03*
G04 #@! TO.P,J5,11*
G04 #@! TO.N,GPIO17*
X4770000Y-21070000D03*
G04 #@! TO.P,J5,12*
G04 #@! TO.N,GPIO18*
X2230000Y-21070000D03*
G04 #@! TO.P,J5,13*
G04 #@! TO.N,GPIO27*
X4770000Y-23610000D03*
G04 #@! TO.P,J5,14*
G04 #@! TO.N,GND*
X2230000Y-23610000D03*
G04 #@! TO.P,J5,15*
G04 #@! TO.N,GPIO22*
X4770000Y-26150000D03*
G04 #@! TO.P,J5,16*
G04 #@! TO.N,GPIO23*
X2230000Y-26150000D03*
G04 #@! TO.P,J5,17*
G04 #@! TO.N,3V3*
X4770000Y-28690000D03*
G04 #@! TO.P,J5,18*
G04 #@! TO.N,GPIO24*
X2230000Y-28690000D03*
G04 #@! TO.P,J5,19*
G04 #@! TO.N,GPIO10*
X4770000Y-31230000D03*
G04 #@! TO.P,J5,20*
G04 #@! TO.N,GND*
X2230000Y-31230000D03*
G04 #@! TO.P,J5,21*
G04 #@! TO.N,GPIO9*
X4770000Y-33770000D03*
G04 #@! TO.P,J5,22*
G04 #@! TO.N,GPIO25*
X2230000Y-33770000D03*
G04 #@! TO.P,J5,23*
G04 #@! TO.N,GPIO11*
X4770000Y-36310000D03*
G04 #@! TO.P,J5,24*
G04 #@! TO.N,GPIO8*
X2230000Y-36310000D03*
G04 #@! TO.P,J5,25*
G04 #@! TO.N,N/C*
X4770000Y-38850000D03*
G04 #@! TO.P,J5,26*
G04 #@! TO.N,GPIO7*
X2230000Y-38850000D03*
G04 #@! TO.P,J5,27*
G04 #@! TO.N,N/C*
X4770000Y-41390000D03*
G04 #@! TO.P,J5,28*
X2230000Y-41390000D03*
G04 #@! TO.P,J5,29*
G04 #@! TO.N,GPIO5*
X4770000Y-43930000D03*
G04 #@! TO.P,J5,30*
G04 #@! TO.N,GND*
X2230000Y-43930000D03*
G04 #@! TO.P,J5,31*
G04 #@! TO.N,GPIO6*
X4770000Y-46470000D03*
G04 #@! TO.P,J5,32*
G04 #@! TO.N,GPIO12*
X2230000Y-46470000D03*
G04 #@! TO.P,J5,33*
G04 #@! TO.N,GPIO13*
X4770000Y-49010000D03*
G04 #@! TO.P,J5,34*
G04 #@! TO.N,GND*
X2230000Y-49010000D03*
G04 #@! TO.P,J5,35*
G04 #@! TO.N,GPIO19*
X4770000Y-51550000D03*
G04 #@! TO.P,J5,36*
G04 #@! TO.N,GPIO16*
X2230000Y-51550000D03*
G04 #@! TO.P,J5,37*
G04 #@! TO.N,N/C*
X4770000Y-54090000D03*
G04 #@! TO.P,J5,38*
G04 #@! TO.N,GPIO20*
X2230000Y-54090000D03*
G04 #@! TO.P,J5,39*
G04 #@! TO.N,N/C*
X4770000Y-56630000D03*
G04 #@! TO.P,J5,40*
G04 #@! TO.N,GPIO21*
X2230000Y-56630000D03*
G04 #@! TD*
D19*
G04 #@! TO.N,SCL*
X53440500Y-17259500D03*
G04 #@! TO.N,GPIO4*
X51379600Y-30597600D03*
X54670300Y-33888300D03*
X50020800Y-17409700D03*
G04 #@! TO.N,SDA*
X54825500Y-17507700D03*
D20*
G04 #@! TO.N,+5V*
X10634700Y-13809200D03*
D19*
G04 #@! TO.N,3V3*
X53326000Y-15989600D03*
D20*
G04 #@! TO.N,VS*
X34132000Y-43508300D03*
X47493900Y-60137000D03*
G04 #@! TO.N,COM*
X54935600Y-32185300D03*
X55077900Y-38831700D03*
D19*
G04 #@! TO.N,S_HPHEAT*
X37601400Y-57135900D03*
G04 #@! TO.N,S_ZV*
X26482600Y-26249000D03*
G04 #@! TO.N,S_DHW*
X30366700Y-27090200D03*
G04 #@! TO.N,S_BLR*
X38167400Y-12716400D03*
G04 #@! TO.N,K4*
X39815500Y-28288400D03*
G04 #@! TO.N,S_CHIL*
X40389000Y-29547300D03*
G04 #@! TO.N,GPIO22*
X8663300Y-27385000D03*
G04 #@! TD*
G04 #@! TO.N,GND*
D21*
X28030800Y-51020800D02*
X26700000Y-49690000D01*
X7310000Y-49010000D02*
X8611700Y-50311700D01*
X1673100Y-7011600D02*
X5596500Y-7011600D01*
X12692600Y-33184100D02*
X13794400Y-34285900D01*
X1658900Y-57983700D02*
X878300Y-57203100D01*
X16540000Y-23343300D02*
X16540000Y-18297700D01*
X31780000Y-52820800D02*
X31780000Y-51020800D01*
X33106500Y-48363500D02*
X31780000Y-49690000D01*
X16540000Y-24690000D02*
X16540000Y-23343300D01*
X878300Y-13448500D02*
X878300Y-7806400D01*
D22*
X53305000Y-33250000D02*
X51000000Y-33250000D01*
D21*
X879800Y-13450000D02*
X878300Y-13448500D01*
D22*
X750000Y-23610000D02*
X2230000Y-23610000D01*
D21*
X8611700Y-50311700D02*
X8611700Y-57228300D01*
X8653100Y-17186900D02*
X7310000Y-18530000D01*
X31780000Y-51020800D02*
X28030800Y-51020800D01*
D22*
X51000000Y-78000000D02*
X46000000Y-78000000D01*
D21*
X7856300Y-57983700D02*
X1658900Y-57983700D01*
D22*
X750000Y-13450000D02*
X2230000Y-13450000D01*
D21*
X28055200Y-35834800D02*
X30424800Y-35834800D01*
X36701200Y-57742000D02*
X31780000Y-52820800D01*
D22*
X750000Y-43930000D02*
X2230000Y-43930000D01*
D21*
X8653100Y-12807500D02*
X8653100Y-17186900D01*
X878300Y-49011500D02*
X879800Y-49010000D01*
D22*
X46000000Y-78000000D02*
X46000000Y-81000000D01*
D21*
X5596500Y-7011600D02*
X8653100Y-10068200D01*
X31780000Y-51020800D02*
X31780000Y-49690000D01*
X18715900Y-34285900D02*
X21620000Y-37190000D01*
X36701200Y-59389300D02*
X36701200Y-57742000D01*
X20273300Y-23343300D02*
X21620000Y-24690000D01*
X16540000Y-24690000D02*
X12692600Y-28537400D01*
X8611700Y-57228300D02*
X7856300Y-57983700D01*
X8653100Y-10068200D02*
X8653100Y-12807500D01*
X30424800Y-35834800D02*
X31780000Y-37190000D01*
X878300Y-7806400D02*
X1673100Y-7011600D01*
D22*
X750000Y-49010000D02*
X2230000Y-49010000D01*
X51000000Y-33250000D02*
X51000000Y-78000000D01*
D21*
X31780000Y-37190000D02*
X33106500Y-38516500D01*
D22*
X750000Y-31229999D02*
X2230000Y-31229999D01*
D21*
X16540000Y-18297700D02*
X11049800Y-12807500D01*
X13794400Y-34285900D02*
X18715900Y-34285900D01*
X11049800Y-12807500D02*
X8653100Y-12807500D01*
X878300Y-57203100D02*
X878300Y-49011500D01*
X33106500Y-38516500D02*
X33106500Y-48363500D01*
X51000000Y-73688100D02*
X36701200Y-59389300D01*
D22*
X750000Y-13450000D02*
X750000Y-49010000D01*
D21*
X12692600Y-28537400D02*
X12692600Y-33184100D01*
X26700000Y-37190000D02*
X28055200Y-35834800D01*
X16540000Y-23343300D02*
X20273300Y-23343300D01*
G04 #@! TO.N,SCL*
D23*
X53857300Y-35750000D02*
X53305000Y-35750000D01*
X53440500Y-17259500D02*
X53440500Y-28806200D01*
X55814700Y-33792600D02*
X53857300Y-35750000D01*
X53440500Y-28806200D02*
X55814700Y-31180400D01*
X55814700Y-31180400D02*
X55814700Y-33792600D01*
G04 #@! TO.N,GPIO4*
X50020800Y-29238800D02*
X51379600Y-30597600D01*
X54058600Y-34500000D02*
X54670300Y-33888300D01*
X50020800Y-17409700D02*
X50020800Y-29238800D01*
X53305000Y-34500000D02*
X54058600Y-34500000D01*
G04 #@! TO.N,SDA*
X56268700Y-30916200D02*
X54825500Y-29473000D01*
X54825500Y-29473000D02*
X54825500Y-17507700D01*
X53305000Y-37000000D02*
X53653700Y-37000000D01*
X6075400Y-22375400D02*
X7310000Y-23610000D01*
X4770000Y-10910000D02*
X6075400Y-12215400D01*
X6075400Y-12215400D02*
X6075400Y-22375400D01*
X53653700Y-37000000D02*
X56268700Y-34385000D01*
X56268700Y-34385000D02*
X56268700Y-30916200D01*
G04 #@! TO.N,+5V*
D21*
X10634700Y-22825300D02*
X10634700Y-13809200D01*
X7310000Y-26150000D02*
X10634700Y-22825300D01*
X2230000Y-10910000D02*
X2230000Y-8370000D01*
G04 #@! TO.N,3V3*
D23*
X54420500Y-15989600D02*
X53326000Y-15989600D01*
X58235000Y-19804100D02*
X54420500Y-15989600D01*
X58235000Y-33597200D02*
X58235000Y-19804100D01*
X53582200Y-38250000D02*
X58235000Y-33597200D01*
X53305000Y-38250000D02*
X53582200Y-38250000D01*
G04 #@! TO.N,GPIO8*
X3500000Y-37579999D02*
X3500000Y-40119999D01*
X2230000Y-36309999D02*
X3500000Y-37579999D01*
X3500000Y-40119999D02*
X7310000Y-40119999D01*
X7310000Y-40119999D02*
X7310000Y-41389999D01*
G04 #@! TO.N,GPIO20*
X3420600Y-52899400D02*
X6119400Y-52899400D01*
X6119400Y-52899400D02*
X7310000Y-54090000D01*
X2230000Y-54090000D02*
X3420600Y-52899400D01*
G04 #@! TO.N,VS*
D21*
X47493900Y-60137000D02*
X50060900Y-57570000D01*
X14000000Y-46182100D02*
X12695900Y-47486200D01*
X29240000Y-57310000D02*
X28038200Y-58511800D01*
X14000000Y-46182100D02*
X17707900Y-46182100D01*
X29240000Y-32310000D02*
X34132000Y-37202000D01*
X17707900Y-46182100D02*
X19080000Y-44810000D01*
X50060900Y-33158300D02*
X51219200Y-32000000D01*
X34132000Y-37202000D02*
X34132000Y-43508300D01*
X14000000Y-44810000D02*
X14000000Y-46182100D01*
X28038200Y-69038200D02*
X40000000Y-81000000D01*
X28038200Y-58511800D02*
X28038200Y-58664900D01*
X12695900Y-56005900D02*
X14000000Y-57310000D01*
X50060900Y-57570000D02*
X50060900Y-33158300D01*
X51219200Y-32000000D02*
X53305000Y-32000000D01*
X12695900Y-47486200D02*
X12695900Y-56005900D01*
X25514900Y-58664900D02*
X24160000Y-57310000D01*
X28038200Y-58664900D02*
X28038200Y-69038200D01*
X28038200Y-58664900D02*
X25514900Y-58664900D01*
G04 #@! TO.N,S_BOS2*
D23*
X26050000Y-6950000D02*
X41580400Y-22480400D01*
X41580400Y-22480400D02*
X41580400Y-43699600D01*
X41580400Y-43699600D02*
X39200000Y-46080000D01*
G04 #@! TO.N,S_BOS1*
X41127200Y-23099600D02*
X32753800Y-14726200D01*
X35200000Y-46080000D02*
X41127200Y-40152800D01*
X41127200Y-40152800D02*
X41127200Y-23099600D01*
X31326200Y-14726200D02*
X23550000Y-6950000D01*
X32753800Y-14726200D02*
X31326200Y-14726200D01*
G04 #@! TO.N,GPIO12*
X12668600Y-36483500D02*
X12350400Y-36483500D01*
X7709400Y-45200000D02*
X3500000Y-45200000D01*
X13140400Y-36011700D02*
X12668600Y-36483500D01*
X24160000Y-37190000D02*
X22518600Y-38831400D01*
X11472700Y-41436700D02*
X7709400Y-45200000D01*
X3500000Y-45200000D02*
X2230000Y-46470000D01*
X12350400Y-36483500D02*
X11472700Y-37361200D01*
X17845400Y-37566500D02*
X17845400Y-36831300D01*
X22518600Y-38831400D02*
X19110300Y-38831400D01*
X11472700Y-37361200D02*
X11472700Y-41436700D01*
X17845400Y-36831300D02*
X17025800Y-36011700D01*
X19110300Y-38831400D02*
X17845400Y-37566500D01*
X17025800Y-36011700D02*
X13140400Y-36011700D01*
G04 #@! TO.N,GPIO5*
X9759100Y-38436000D02*
X9759100Y-40573800D01*
X12635100Y-35560000D02*
X9759100Y-38436000D01*
X6075300Y-42624700D02*
X4770000Y-43930000D01*
X19080000Y-37190000D02*
X17450000Y-35560000D01*
X7708200Y-42624700D02*
X6075300Y-42624700D01*
X9759100Y-40573800D02*
X7708200Y-42624700D01*
X17450000Y-35560000D02*
X12635100Y-35560000D01*
G04 #@! TO.N,GPIO6*
X4770000Y-46469999D02*
X12300000Y-46469999D01*
X12300000Y-46469999D02*
X12300000Y-37190000D01*
X12300000Y-37190000D02*
X14000000Y-37190000D01*
G04 #@! TO.N,S_SP-E*
X49230100Y-56549900D02*
X49230100Y-7169900D01*
X49230100Y-7169900D02*
X49450000Y-6950000D01*
X47200000Y-58580000D02*
X49230100Y-56549900D01*
G04 #@! TO.N,COM*
D21*
X54935600Y-31765000D02*
X53920600Y-30750000D01*
X51950000Y-29395000D02*
X51950000Y-6950000D01*
X43000000Y-81000000D02*
X44474200Y-82474200D01*
X54644900Y-39264700D02*
X55077900Y-38831700D01*
X47588600Y-82474200D02*
X54644900Y-75417900D01*
X54644900Y-75417900D02*
X54644900Y-39264700D01*
X53305000Y-30750000D02*
X51950000Y-29395000D01*
X44474200Y-82474200D02*
X47588600Y-82474200D01*
X53920600Y-30750000D02*
X53305000Y-30750000D01*
X54935600Y-32185300D02*
X54935600Y-31765000D01*
G04 #@! TO.N,S_HPHEAT*
D23*
X44806900Y-14006900D02*
X37750000Y-6950000D01*
X37601400Y-57135900D02*
X44806900Y-49930400D01*
X44806900Y-49930400D02*
X44806900Y-14006900D01*
G04 #@! TO.N,S_DHWX*
X43200000Y-58580000D02*
X48778400Y-53001600D01*
X48778400Y-8778400D02*
X46950000Y-6950000D01*
X48778400Y-53001600D02*
X48778400Y-8778400D01*
G04 #@! TO.N,S_ZV*
X9350000Y-6950000D02*
X25287900Y-22887900D01*
X25287900Y-25054300D02*
X26482600Y-26249000D01*
X25287900Y-22887900D02*
X25287900Y-25054300D01*
G04 #@! TO.N,S_DHW*
X11850000Y-6950000D02*
X13200200Y-8300200D01*
X30366700Y-24154200D02*
X30366700Y-27090200D01*
X13200200Y-8300200D02*
X14512700Y-8300200D01*
X14512700Y-8300200D02*
X30366700Y-24154200D01*
G04 #@! TO.N,S_BLR*
X43200000Y-33580000D02*
X44340200Y-32439800D01*
X44340200Y-32439800D02*
X44340200Y-18889200D01*
X44340200Y-18889200D02*
X38167400Y-12716400D01*
G04 #@! TO.N,S_HPCOOL*
X48326700Y-10826700D02*
X48326700Y-46549500D01*
X45587200Y-52192800D02*
X39200000Y-58580000D01*
X44450000Y-6950000D02*
X48326700Y-10826700D01*
X47626200Y-47250000D02*
X46753500Y-47250000D01*
X45587200Y-48416300D02*
X45587200Y-52192800D01*
X48326700Y-46549500D02*
X47626200Y-47250000D01*
X46753500Y-47250000D02*
X45587200Y-48416300D01*
G04 #@! TO.N,S_DEHUM*
X32750000Y-6950000D02*
X32750000Y-8326600D01*
X42052700Y-44932700D02*
X43200000Y-46080000D01*
X32750000Y-8326600D02*
X42052700Y-17629300D01*
X42052700Y-17629300D02*
X42052700Y-44932700D01*
G04 #@! TO.N,S_SCALA*
X47200000Y-46080000D02*
X45702500Y-44582500D01*
X40804500Y-5591600D02*
X36608400Y-5591600D01*
X45702500Y-10489600D02*
X40804500Y-5591600D01*
X36608400Y-5591600D02*
X35250000Y-6950000D01*
X45702500Y-44582500D02*
X45702500Y-10489600D01*
G04 #@! TO.N,K4*
X31780000Y-32310000D02*
X35801500Y-28288500D01*
X39815500Y-28288500D02*
X39815500Y-28288400D01*
X35801500Y-28288500D02*
X39815500Y-28288500D01*
G04 #@! TO.N,S_CHIL*
X40389000Y-29547300D02*
X40542200Y-29394100D01*
X40542200Y-23162100D02*
X38131500Y-20751400D01*
X38131500Y-20751400D02*
X34851400Y-20751400D01*
X34851400Y-20751400D02*
X21050000Y-6950000D01*
X40542200Y-29394100D02*
X40542200Y-23162100D01*
G04 #@! TO.N,K1*
X20134000Y-28716000D02*
X29904000Y-28716000D01*
X16540000Y-32310000D02*
X20134000Y-28716000D01*
X29904000Y-28716000D02*
X35200000Y-23420000D01*
G04 #@! TO.N,K2*
X32165000Y-30455000D02*
X23475000Y-30455000D01*
X39200000Y-23420000D02*
X32165000Y-30455000D01*
X23475000Y-30455000D02*
X21620000Y-32310000D01*
G04 #@! TO.N,GPIO25*
X20314900Y-37644700D02*
X21048100Y-38377900D01*
X3516200Y-35056200D02*
X18539700Y-35056200D01*
X15390000Y-32755200D02*
X15390000Y-31848500D01*
X15390000Y-31848500D02*
X19975200Y-27263300D01*
X21048100Y-38377900D02*
X22113600Y-38377900D01*
X18539700Y-35056200D02*
X20314900Y-36831400D01*
X19975200Y-27263300D02*
X26666700Y-27263300D01*
X20314900Y-36831400D02*
X20314900Y-37644700D01*
X16207000Y-33572200D02*
X15390000Y-32755200D01*
X22823900Y-37667600D02*
X22823900Y-36728500D01*
X2230000Y-33770000D02*
X3516200Y-35056200D01*
X19667600Y-33572200D02*
X16207000Y-33572200D01*
X26666700Y-27263300D02*
X29240000Y-24690000D01*
X22823900Y-36728500D02*
X19667600Y-33572200D01*
X22113600Y-38377900D02*
X22823900Y-37667600D01*
G04 #@! TO.N,GPIO22*
X4770000Y-26150000D02*
X6005000Y-27385000D01*
X6005000Y-27385000D02*
X8663300Y-27385000D01*
G04 #@! TD*
M02*
