G04 #@! TF.GenerationSoftware,KiCad,Pcbnew,10.0.6*
G04 #@! TF.CreationDate,2026-09-27T00:39:15-04:00*
G04 #@! TF.ProjectId,int-board,696e742d-626f-4617-9264-2e6b69636164,rev?*
G04 #@! TF.SameCoordinates,Original*
G04 #@! TF.FileFunction,Copper,L2,Bot*
G04 #@! TF.FilePolarity,Positive*
%FSLAX46Y46*%
G04 Gerber Fmt 4.6, Leading zero omitted, Abs format (unit mm)*
G04 Created by KiCad (PCBNEW 10.0.6) date 2026-09-27 00:39:15*
%MOMM*%
%LPD*%
G01*
G04 APERTURE LIST*
G04 Aperture macros list*
%AMRoundRect*
0 Rectangle with rounded corners*
0 $1 Rounding radius*
0 $2 $3 $4 $5 $6 $7 $8 $9 X,Y pos of 4 corners*
0 Add a 4 corners polygon primitive as box body*
4,1,4,$2,$3,$4,$5,$6,$7,$8,$9,$2,$3,0*
0 Add four circle primitives for the rounded corners*
1,1,$1+$1,$2,$3*
1,1,$1+$1,$4,$5*
1,1,$1+$1,$6,$7*
1,1,$1+$1,$8,$9*
0 Add four rect primitives between the rounded corners*
20,1,$1+$1,$2,$3,$4,$5,0*
20,1,$1+$1,$4,$5,$6,$7,0*
20,1,$1+$1,$6,$7,$8,$9,0*
20,1,$1+$1,$8,$9,$2,$3,0*%
G04 Aperture macros list end*
G04 #@! TA.AperFunction,ComponentPad*
%ADD10RoundRect,0.487500X-0.487500X-0.487500X0.487500X-0.487500X0.487500X0.487500X-0.487500X0.487500X0*%
G04 #@! TD*
G04 #@! TA.AperFunction,ComponentPad*
%ADD11C,1.950000*%
G04 #@! TD*
G04 #@! TA.AperFunction,ComponentPad*
%ADD12C,1.600000*%
G04 #@! TD*
G04 #@! TA.AperFunction,ComponentPad*
%ADD13RoundRect,0.250000X0.550000X-0.550000X0.550000X0.550000X-0.550000X0.550000X-0.550000X-0.550000X0*%
G04 #@! TD*
G04 #@! TA.AperFunction,ComponentPad*
%ADD14C,1.800000*%
G04 #@! TD*
G04 #@! TA.AperFunction,ComponentPad*
%ADD15RoundRect,0.425000X-0.425000X-0.425000X0.425000X-0.425000X0.425000X0.425000X-0.425000X0.425000X0*%
G04 #@! TD*
G04 #@! TA.AperFunction,ComponentPad*
%ADD16C,1.700000*%
G04 #@! TD*
G04 #@! TA.AperFunction,ViaPad*
%ADD17C,0.800000*%
G04 #@! TD*
G04 #@! TA.AperFunction,ViaPad*
%ADD18C,1.000000*%
G04 #@! TD*
G04 #@! TA.AperFunction,Conductor*
%ADD19C,0.250000*%
G04 #@! TD*
G04 #@! TA.AperFunction,Conductor*
%ADD20C,0.500000*%
G04 #@! TD*
G04 APERTURE END LIST*
D10*
G04 #@! TO.P,J3,1*
G04 #@! TO.N,S_DEHUM*
X32750000Y-6950000D03*
D11*
G04 #@! TO.P,J3,2*
G04 #@! TO.N,S_SCALA*
X35250000Y-6950000D03*
G04 #@! TO.P,J3,3*
G04 #@! TO.N,S_HPHEAT*
X37750000Y-6950000D03*
G04 #@! TO.P,J3,4*
G04 #@! TO.N,COM*
X40250000Y-6950000D03*
G04 #@! TD*
D12*
G04 #@! TO.P,R8,1*
G04 #@! TO.N,K8*
X47200000Y-35920000D03*
G04 #@! TO.P,R8,2*
G04 #@! TO.N,S_SCALA*
X47200000Y-46080000D03*
G04 #@! TD*
D10*
G04 #@! TO.P,J1,1*
G04 #@! TO.N,S_ZV*
X9350000Y-6950000D03*
D11*
G04 #@! TO.P,J1,2*
G04 #@! TO.N,S_DHW*
X11850000Y-6950000D03*
G04 #@! TO.P,J1,3*
G04 #@! TO.N,S_BLR*
X14350000Y-6950000D03*
G04 #@! TO.P,J1,4*
G04 #@! TO.N,COM*
X16850000Y-6950000D03*
G04 #@! TD*
D12*
G04 #@! TO.P,R4,1*
G04 #@! TO.N,K4*
X47200000Y-23420000D03*
G04 #@! TO.P,R4,2*
G04 #@! TO.N,S_CHIL*
X47200000Y-33580000D03*
G04 #@! TD*
D10*
G04 #@! TO.P,J2,1*
G04 #@! TO.N,S_CHIL*
X21050000Y-6950000D03*
D11*
G04 #@! TO.P,J2,2*
G04 #@! TO.N,S_BOS1*
X23550000Y-6950000D03*
G04 #@! TO.P,J2,3*
G04 #@! TO.N,S_BOS2*
X26050000Y-6950000D03*
G04 #@! TO.P,J2,4*
G04 #@! TO.N,COM*
X28550000Y-6950000D03*
G04 #@! TD*
D13*
G04 #@! TO.P,U1,1*
G04 #@! TO.N,VS*
X14000000Y-32310000D03*
D12*
G04 #@! TO.P,U1,2*
G04 #@! TO.N,K1*
X16540000Y-32310000D03*
G04 #@! TO.P,U1,3*
G04 #@! TO.N,VS*
X19080000Y-32310000D03*
G04 #@! TO.P,U1,4*
G04 #@! TO.N,K2*
X21620000Y-32310000D03*
G04 #@! TO.P,U1,5*
G04 #@! TO.N,VS*
X24160000Y-32310000D03*
G04 #@! TO.P,U1,6*
G04 #@! TO.N,K3*
X26700000Y-32310000D03*
G04 #@! TO.P,U1,7*
G04 #@! TO.N,VS*
X29240000Y-32310000D03*
G04 #@! TO.P,U1,8*
G04 #@! TO.N,K4*
X31780000Y-32310000D03*
G04 #@! TO.P,U1,9*
G04 #@! TO.N,GND*
X31780000Y-24690000D03*
G04 #@! TO.P,U1,10*
G04 #@! TO.N,GPIO25*
X29240000Y-24690000D03*
G04 #@! TO.P,U1,11*
G04 #@! TO.N,GND*
X26700000Y-24690000D03*
G04 #@! TO.P,U1,12*
G04 #@! TO.N,GPIO22*
X24160000Y-24690000D03*
G04 #@! TO.P,U1,13*
G04 #@! TO.N,GND*
X21620000Y-24690000D03*
G04 #@! TO.P,U1,14*
G04 #@! TO.N,GPIO27*
X19080000Y-24690000D03*
G04 #@! TO.P,U1,15*
G04 #@! TO.N,GND*
X16540000Y-24690000D03*
G04 #@! TO.P,U1,16*
G04 #@! TO.N,GPIO17*
X14000000Y-24690000D03*
G04 #@! TD*
G04 #@! TO.P,R3,1*
G04 #@! TO.N,K3*
X43200000Y-23420000D03*
G04 #@! TO.P,R3,2*
G04 #@! TO.N,S_BLR*
X43200000Y-33580000D03*
G04 #@! TD*
G04 #@! TO.P,R11,1*
G04 #@! TO.N,K11*
X43200000Y-48420000D03*
G04 #@! TO.P,R11,2*
G04 #@! TO.N,S_DHWX*
X43200000Y-58580000D03*
G04 #@! TD*
G04 #@! TO.P,R9,1*
G04 #@! TO.N,K9*
X35200000Y-48420000D03*
G04 #@! TO.P,R9,2*
G04 #@! TO.N,S_HPHEAT*
X35200000Y-58580000D03*
G04 #@! TD*
D14*
G04 #@! TO.P,TP3,1*
G04 #@! TO.N,GND*
X46000000Y-81000000D03*
G04 #@! TD*
D12*
G04 #@! TO.P,R5,1*
G04 #@! TO.N,K5*
X35200000Y-35920000D03*
G04 #@! TO.P,R5,2*
G04 #@! TO.N,S_BOS1*
X35200000Y-46080000D03*
G04 #@! TD*
D14*
G04 #@! TO.P,TP1,1*
G04 #@! TO.N,VS*
X40000000Y-81000000D03*
G04 #@! TD*
D13*
G04 #@! TO.P,U2,1*
G04 #@! TO.N,VS*
X14000000Y-44810000D03*
D12*
G04 #@! TO.P,U2,2*
G04 #@! TO.N,K5*
X16540000Y-44810000D03*
G04 #@! TO.P,U2,3*
G04 #@! TO.N,VS*
X19080000Y-44810000D03*
G04 #@! TO.P,U2,4*
G04 #@! TO.N,K6*
X21620000Y-44810000D03*
G04 #@! TO.P,U2,5*
G04 #@! TO.N,VS*
X24160000Y-44810000D03*
G04 #@! TO.P,U2,6*
G04 #@! TO.N,K7*
X26700000Y-44810000D03*
G04 #@! TO.P,U2,7*
G04 #@! TO.N,VS*
X29240000Y-44810000D03*
G04 #@! TO.P,U2,8*
G04 #@! TO.N,K8*
X31780000Y-44810000D03*
G04 #@! TO.P,U2,9*
G04 #@! TO.N,GND*
X31780000Y-37190000D03*
G04 #@! TO.P,U2,10*
G04 #@! TO.N,GPIO23*
X29240000Y-37190000D03*
G04 #@! TO.P,U2,11*
G04 #@! TO.N,GND*
X26700000Y-37190000D03*
G04 #@! TO.P,U2,12*
G04 #@! TO.N,GPIO12*
X24160000Y-37190000D03*
G04 #@! TO.P,U2,13*
G04 #@! TO.N,GND*
X21620000Y-37190000D03*
G04 #@! TO.P,U2,14*
G04 #@! TO.N,GPIO5*
X19080000Y-37190000D03*
G04 #@! TO.P,U2,15*
G04 #@! TO.N,GND*
X16540000Y-37190000D03*
G04 #@! TO.P,U2,16*
G04 #@! TO.N,GPIO6*
X14000000Y-37190000D03*
G04 #@! TD*
G04 #@! TO.P,R12,1*
G04 #@! TO.N,K12*
X47200000Y-48420000D03*
G04 #@! TO.P,R12,2*
G04 #@! TO.N,S_SP-E*
X47200000Y-58580000D03*
G04 #@! TD*
D13*
G04 #@! TO.P,U3,1*
G04 #@! TO.N,VS*
X14000000Y-57310000D03*
D12*
G04 #@! TO.P,U3,2*
G04 #@! TO.N,K9*
X16540000Y-57310000D03*
G04 #@! TO.P,U3,3*
G04 #@! TO.N,VS*
X19080000Y-57310000D03*
G04 #@! TO.P,U3,4*
G04 #@! TO.N,K10*
X21620000Y-57310000D03*
G04 #@! TO.P,U3,5*
G04 #@! TO.N,VS*
X24160000Y-57310000D03*
G04 #@! TO.P,U3,6*
G04 #@! TO.N,K11*
X26700000Y-57310000D03*
G04 #@! TO.P,U3,7*
G04 #@! TO.N,VS*
X29240000Y-57310000D03*
G04 #@! TO.P,U3,8*
G04 #@! TO.N,K12*
X31780000Y-57310000D03*
G04 #@! TO.P,U3,9*
G04 #@! TO.N,GND*
X31780000Y-49690000D03*
G04 #@! TO.P,U3,10*
G04 #@! TO.N,GPIO16*
X29240000Y-49690000D03*
G04 #@! TO.P,U3,11*
G04 #@! TO.N,GND*
X26700000Y-49690000D03*
G04 #@! TO.P,U3,12*
G04 #@! TO.N,GPIO19*
X24160000Y-49690000D03*
G04 #@! TO.P,U3,13*
G04 #@! TO.N,GND*
X21620000Y-49690000D03*
G04 #@! TO.P,U3,14*
G04 #@! TO.N,GPIO13*
X19080000Y-49690000D03*
G04 #@! TO.P,U3,15*
G04 #@! TO.N,GND*
X16540000Y-49690000D03*
G04 #@! TO.P,U3,16*
G04 #@! TO.N,GPIO24*
X14000000Y-49690000D03*
G04 #@! TD*
D14*
G04 #@! TO.P,TP2,1*
G04 #@! TO.N,COM*
X43000000Y-81000000D03*
G04 #@! TD*
D12*
G04 #@! TO.P,J9,3*
G04 #@! TO.N,SCL*
X7310000Y-13450000D03*
G04 #@! TO.P,J9,4*
G04 #@! TO.N,GPIO4*
X7310000Y-15990000D03*
G04 #@! TO.P,J9,5*
G04 #@! TO.N,GND*
X7310000Y-18530000D03*
G04 #@! TO.P,J9,6*
G04 #@! TO.N,GPIO18*
X7310000Y-21070000D03*
G04 #@! TO.P,J9,7*
G04 #@! TO.N,SDA*
X7310000Y-23610000D03*
G04 #@! TO.P,J9,8*
G04 #@! TO.N,+5V*
X7310000Y-26150000D03*
G04 #@! TO.P,J9,9*
G04 #@! TO.N,3V3*
X7310000Y-28690000D03*
G04 #@! TO.P,J9,10*
G04 #@! TO.N,GPIO10*
X7310000Y-31230000D03*
G04 #@! TO.P,J9,11*
G04 #@! TO.N,GPIO9*
X7310000Y-33770000D03*
G04 #@! TO.P,J9,12*
G04 #@! TO.N,GPIO11*
X7310000Y-36310000D03*
G04 #@! TO.P,J9,13*
G04 #@! TO.N,GPIO7*
X7310000Y-38850000D03*
G04 #@! TO.P,J9,14*
G04 #@! TO.N,GPIO8*
X7310000Y-41390000D03*
G04 #@! TO.P,J9,15*
G04 #@! TO.N,GND*
X7310000Y-43930000D03*
G04 #@! TO.P,J9,17*
X7310000Y-49010000D03*
G04 #@! TO.P,J9,19*
G04 #@! TO.N,GPIO20*
X7310000Y-54090000D03*
G04 #@! TO.P,J9,20*
G04 #@! TO.N,GPIO21*
X7310000Y-56630000D03*
G04 #@! TD*
G04 #@! TO.P,R7,1*
G04 #@! TO.N,K7*
X43200000Y-35920000D03*
G04 #@! TO.P,R7,2*
G04 #@! TO.N,S_DEHUM*
X43200000Y-46080000D03*
G04 #@! TD*
G04 #@! TO.P,R2,1*
G04 #@! TO.N,K2*
X39200000Y-23420000D03*
G04 #@! TO.P,R2,2*
G04 #@! TO.N,S_DHW*
X39200000Y-33580000D03*
G04 #@! TD*
G04 #@! TO.P,R6,1*
G04 #@! TO.N,K6*
X39200000Y-35920000D03*
G04 #@! TO.P,R6,2*
G04 #@! TO.N,S_BOS2*
X39200000Y-46080000D03*
G04 #@! TD*
G04 #@! TO.P,R1,1*
G04 #@! TO.N,K1*
X35200000Y-23420000D03*
G04 #@! TO.P,R1,2*
G04 #@! TO.N,S_ZV*
X35200000Y-33580000D03*
G04 #@! TD*
G04 #@! TO.P,R10,1*
G04 #@! TO.N,K10*
X39200000Y-48420000D03*
G04 #@! TO.P,R10,2*
G04 #@! TO.N,S_HPCOOL*
X39200000Y-58580000D03*
G04 #@! TD*
D10*
G04 #@! TO.P,J4,1*
G04 #@! TO.N,S_HPCOOL*
X44450000Y-6950000D03*
D11*
G04 #@! TO.P,J4,2*
G04 #@! TO.N,S_DHWX*
X46950000Y-6950000D03*
G04 #@! TO.P,J4,3*
G04 #@! TO.N,S_SP-E*
X49450000Y-6950000D03*
G04 #@! TO.P,J4,4*
G04 #@! TO.N,COM*
X51950000Y-6950000D03*
G04 #@! TD*
D15*
G04 #@! TO.P,J5,1*
G04 #@! TO.N,N/C*
X4770000Y-8370000D03*
D16*
G04 #@! TO.P,J5,2*
G04 #@! TO.N,+5V*
X2230000Y-8370000D03*
G04 #@! TO.P,J5,3*
G04 #@! TO.N,SDA*
X4770000Y-10910000D03*
G04 #@! TO.P,J5,4*
G04 #@! TO.N,+5V*
X2230000Y-10910000D03*
G04 #@! TO.P,J5,5*
G04 #@! TO.N,SCL*
X4770000Y-13450000D03*
G04 #@! TO.P,J5,6*
G04 #@! TO.N,GND*
X2230000Y-13450000D03*
G04 #@! TO.P,J5,7*
G04 #@! TO.N,GPIO4*
X4770000Y-15990000D03*
G04 #@! TO.P,J5,8*
G04 #@! TO.N,N/C*
X2230000Y-15990000D03*
G04 #@! TO.P,J5,9*
G04 #@! TO.N,GND*
X4770000Y-18530000D03*
G04 #@! TO.P,J5,10*
G04 #@! TO.N,N/C*
X2230000Y-18530000D03*
G04 #@! TO.P,J5,11*
G04 #@! TO.N,GPIO17*
X4770000Y-21070000D03*
G04 #@! TO.P,J5,12*
G04 #@! TO.N,GPIO18*
X2230000Y-21070000D03*
G04 #@! TO.P,J5,13*
G04 #@! TO.N,GPIO27*
X4770000Y-23610000D03*
G04 #@! TO.P,J5,14*
G04 #@! TO.N,GND*
X2230000Y-23610000D03*
G04 #@! TO.P,J5,15*
G04 #@! TO.N,GPIO22*
X4770000Y-26150000D03*
G04 #@! TO.P,J5,16*
G04 #@! TO.N,GPIO23*
X2230000Y-26150000D03*
G04 #@! TO.P,J5,17*
G04 #@! TO.N,3V3*
X4770000Y-28690000D03*
G04 #@! TO.P,J5,18*
G04 #@! TO.N,GPIO24*
X2230000Y-28690000D03*
G04 #@! TO.P,J5,19*
G04 #@! TO.N,GPIO10*
X4770000Y-31230000D03*
G04 #@! TO.P,J5,20*
G04 #@! TO.N,GND*
X2230000Y-31230000D03*
G04 #@! TO.P,J5,21*
G04 #@! TO.N,GPIO9*
X4770000Y-33770000D03*
G04 #@! TO.P,J5,22*
G04 #@! TO.N,GPIO25*
X2230000Y-33770000D03*
G04 #@! TO.P,J5,23*
G04 #@! TO.N,GPIO11*
X4770000Y-36310000D03*
G04 #@! TO.P,J5,24*
G04 #@! TO.N,GPIO8*
X2230000Y-36310000D03*
G04 #@! TO.P,J5,25*
G04 #@! TO.N,N/C*
X4770000Y-38850000D03*
G04 #@! TO.P,J5,26*
G04 #@! TO.N,GPIO7*
X2230000Y-38850000D03*
G04 #@! TO.P,J5,27*
G04 #@! TO.N,N/C*
X4770000Y-41390000D03*
G04 #@! TO.P,J5,28*
X2230000Y-41390000D03*
G04 #@! TO.P,J5,29*
G04 #@! TO.N,GPIO5*
X4770000Y-43930000D03*
G04 #@! TO.P,J5,30*
G04 #@! TO.N,GND*
X2230000Y-43930000D03*
G04 #@! TO.P,J5,31*
G04 #@! TO.N,GPIO6*
X4770000Y-46470000D03*
G04 #@! TO.P,J5,32*
G04 #@! TO.N,GPIO12*
X2230000Y-46470000D03*
G04 #@! TO.P,J5,33*
G04 #@! TO.N,GPIO13*
X4770000Y-49010000D03*
G04 #@! TO.P,J5,34*
G04 #@! TO.N,GND*
X2230000Y-49010000D03*
G04 #@! TO.P,J5,35*
G04 #@! TO.N,GPIO19*
X4770000Y-51550000D03*
G04 #@! TO.P,J5,36*
G04 #@! TO.N,GPIO16*
X2230000Y-51550000D03*
G04 #@! TO.P,J5,37*
G04 #@! TO.N,N/C*
X4770000Y-54090000D03*
G04 #@! TO.P,J5,38*
G04 #@! TO.N,GPIO20*
X2230000Y-54090000D03*
G04 #@! TO.P,J5,39*
G04 #@! TO.N,N/C*
X4770000Y-56630000D03*
G04 #@! TO.P,J5,40*
G04 #@! TO.N,GPIO21*
X2230000Y-56630000D03*
G04 #@! TD*
D17*
G04 #@! TO.N,S_SCALA*
X42399300Y-41343800D03*
G04 #@! TO.N,S_HPHEAT*
X37684400Y-56176200D03*
G04 #@! TO.N,S_BLR*
X30897200Y-29140500D03*
G04 #@! TO.N,S_CHIL*
X46073300Y-15936100D03*
D18*
G04 #@! TO.N,VS*
X33898300Y-47336700D03*
D17*
G04 #@! TO.N,GPIO25*
X13057300Y-34320600D03*
G04 #@! TO.N,SCL*
X54882000Y-16463600D03*
G04 #@! TO.N,GPIO4*
X54114900Y-17495200D03*
G04 #@! TO.N,SDA*
X48152100Y-16405300D03*
X56638000Y-32817200D03*
X52196600Y-26144000D03*
G04 #@! TO.N,3V3*
X52756200Y-39167200D03*
X48211200Y-30586900D03*
X33250000Y-32394600D03*
X51378600Y-31315400D03*
G04 #@! TD*
G04 #@! TO.N,S_SCALA*
D19*
X47200000Y-46080000D02*
X42463800Y-41343800D01*
X42463800Y-41343800D02*
X42399300Y-41343800D01*
G04 #@! TO.N,S_HPHEAT*
X35280600Y-58580000D02*
X37684400Y-56176200D01*
X35200000Y-58580000D02*
X35280600Y-58580000D01*
G04 #@! TO.N,COM*
D20*
X41738000Y-5462000D02*
X50462000Y-5462000D01*
X38761400Y-5461400D02*
X30038600Y-5461400D01*
X28550000Y-6950000D02*
X27071400Y-5471400D01*
X30038600Y-5461400D02*
X28550000Y-6950000D01*
X50462000Y-5462000D02*
X51950000Y-6950000D01*
X40250000Y-6950000D02*
X38761400Y-5461400D01*
X18328600Y-5471400D02*
X16850000Y-6950000D01*
X27071400Y-5471400D02*
X18328600Y-5471400D01*
X40250000Y-6950000D02*
X41738000Y-5462000D01*
G04 #@! TO.N,K8*
D19*
X46795500Y-35920000D02*
X37905500Y-44810000D01*
X37905500Y-44810000D02*
X31780000Y-44810000D01*
X47200000Y-35920000D02*
X46795500Y-35920000D01*
G04 #@! TO.N,S_BLR*
X42073300Y-34706700D02*
X32576900Y-34706700D01*
X32576900Y-34706700D02*
X30611500Y-32741300D01*
X30611500Y-29426200D02*
X30897200Y-29140500D01*
X30611500Y-32741300D02*
X30611500Y-29426200D01*
X43200000Y-33580000D02*
X42073300Y-34706700D01*
G04 #@! TO.N,K4*
X47200000Y-23420000D02*
X38952100Y-31667900D01*
X32422100Y-31667900D02*
X31780000Y-32310000D01*
X38952100Y-31667900D02*
X32422100Y-31667900D01*
G04 #@! TO.N,S_CHIL*
X30036100Y-15936100D02*
X46073300Y-15936100D01*
X21050000Y-6950000D02*
X30036100Y-15936100D01*
G04 #@! TO.N,VS*
D20*
X20383400Y-56006600D02*
X22856600Y-56006600D01*
X22858000Y-33612000D02*
X20382000Y-33612000D01*
X20382000Y-33612000D02*
X19080000Y-32310000D01*
X22856600Y-56006600D02*
X24160000Y-57310000D01*
X31766600Y-47336600D02*
X33898300Y-47336600D01*
X24160000Y-44810000D02*
X22858300Y-46111700D01*
X33898300Y-47336600D02*
X33898300Y-47336700D01*
X19080000Y-32310000D02*
X17776500Y-33613500D01*
X29240000Y-57310000D02*
X27938100Y-58611900D01*
X27938100Y-58611900D02*
X25461900Y-58611900D01*
X17776500Y-33613500D02*
X15303500Y-33613500D01*
X24160000Y-32310000D02*
X22858000Y-33612000D01*
X25461900Y-58611900D02*
X24160000Y-57310000D01*
X20381700Y-46111700D02*
X19080000Y-44810000D01*
X15303500Y-33613500D02*
X14000000Y-32310000D01*
X19080000Y-57310000D02*
X20383400Y-56006600D01*
X22858300Y-46111700D02*
X20381700Y-46111700D01*
X29240000Y-44810000D02*
X31766600Y-47336600D01*
G04 #@! TO.N,K1*
D19*
X24277000Y-30291800D02*
X18558200Y-30291800D01*
X28318100Y-26250700D02*
X24277000Y-30291800D01*
X32369300Y-26250700D02*
X28318100Y-26250700D01*
X35200000Y-23420000D02*
X32369300Y-26250700D01*
X18558200Y-30291800D02*
X16540000Y-32310000D01*
G04 #@! TO.N,K2*
X27388500Y-30902800D02*
X31499000Y-26792300D01*
X23027200Y-30902800D02*
X27388500Y-30902800D01*
X35827700Y-26792300D02*
X39200000Y-23420000D01*
X31499000Y-26792300D02*
X35827700Y-26792300D01*
X21620000Y-32310000D02*
X23027200Y-30902800D01*
G04 #@! TO.N,K3*
X26700000Y-32310000D02*
X30915800Y-28094200D01*
X38525800Y-28094200D02*
X43200000Y-23420000D01*
X30915800Y-28094200D02*
X38525800Y-28094200D01*
G04 #@! TO.N,GND*
D20*
X17845900Y-23384100D02*
X20314100Y-23384100D01*
X20314100Y-23384100D02*
X21620000Y-24690000D01*
X20316800Y-38493200D02*
X17843200Y-38493200D01*
X22923100Y-23386900D02*
X21620000Y-24690000D01*
X12135800Y-23355800D02*
X7310000Y-18530000D01*
X16540000Y-24690000D02*
X15205800Y-23355800D01*
X17843200Y-38493200D02*
X16540000Y-37190000D01*
X26700000Y-24690000D02*
X25396900Y-23386900D01*
X4770000Y-18530000D02*
X7310000Y-18530000D01*
X21620000Y-37190000D02*
X20316800Y-38493200D01*
X25396900Y-23386900D02*
X22923100Y-23386900D01*
X26700000Y-24690000D02*
X28012900Y-23377100D01*
X28012900Y-23377100D02*
X30467100Y-23377100D01*
X16540000Y-24690000D02*
X17845900Y-23384100D01*
X7310000Y-49010000D02*
X7310000Y-43930000D01*
X15205800Y-23355800D02*
X12135800Y-23355800D01*
X30467100Y-23377100D02*
X31780000Y-24690000D01*
G04 #@! TO.N,GPIO25*
D19*
X15299300Y-28984600D02*
X24691100Y-28984600D01*
X12787000Y-34050300D02*
X12787000Y-31496900D01*
X24691100Y-28984600D02*
X28985700Y-24690000D01*
X12787000Y-31496900D02*
X15299300Y-28984600D01*
X13057300Y-34320600D02*
X12787000Y-34050300D01*
X28985700Y-24690000D02*
X29240000Y-24690000D01*
G04 #@! TO.N,GPIO22*
X24160000Y-24690000D02*
X21491000Y-27359000D01*
X5979000Y-27359000D02*
X4770000Y-26150000D01*
X21491000Y-27359000D02*
X5979000Y-27359000D01*
G04 #@! TO.N,GPIO27*
X4770000Y-23610000D02*
X6015000Y-24855000D01*
X6015000Y-24855000D02*
X11178600Y-24855000D01*
X11178600Y-24855000D02*
X12194700Y-25871100D01*
X12194700Y-25871100D02*
X17898900Y-25871100D01*
X17898900Y-25871100D02*
X19080000Y-24690000D01*
G04 #@! TO.N,GPIO17*
X4770000Y-21070000D02*
X6040000Y-22340000D01*
X9300300Y-22340000D02*
X10956400Y-23996100D01*
X6040000Y-22340000D02*
X9300300Y-22340000D01*
X10956400Y-23996100D02*
X13306100Y-23996100D01*
X13306100Y-23996100D02*
X14000000Y-24690000D01*
G04 #@! TO.N,K11*
X30874200Y-53535400D02*
X38084600Y-53535400D01*
X27099600Y-57310000D02*
X30874200Y-53535400D01*
X38084600Y-53535400D02*
X43200000Y-48420000D01*
X26700000Y-57310000D02*
X27099600Y-57310000D01*
G04 #@! TO.N,K9*
X19969500Y-53880500D02*
X29092800Y-53880500D01*
X16540000Y-57310000D02*
X19969500Y-53880500D01*
X31549200Y-51424100D02*
X32195900Y-51424100D01*
X29092800Y-53880500D02*
X31549200Y-51424100D01*
X32195900Y-51424100D02*
X35200000Y-48420000D01*
G04 #@! TO.N,K5*
X16540000Y-44810000D02*
X17178800Y-44810000D01*
X17178800Y-44810000D02*
X23077400Y-38911400D01*
X23077400Y-38911400D02*
X32208600Y-38911400D01*
X32208600Y-38911400D02*
X35200000Y-35920000D01*
G04 #@! TO.N,K6*
X21620000Y-44810000D02*
X26391900Y-40038100D01*
X26391900Y-40038100D02*
X35081900Y-40038100D01*
X35081900Y-40038100D02*
X39200000Y-35920000D01*
G04 #@! TO.N,K7*
X43200000Y-35920000D02*
X38166900Y-40953100D01*
X30556900Y-40953100D02*
X26700000Y-44810000D01*
X38166900Y-40953100D02*
X30556900Y-40953100D01*
G04 #@! TO.N,GPIO12*
X6133300Y-48672400D02*
X6133300Y-49498000D01*
X17406600Y-43575400D02*
X23792000Y-37190000D01*
X15295500Y-44390600D02*
X16110700Y-43575400D01*
X16110700Y-43575400D02*
X17406600Y-43575400D01*
X14460800Y-50822800D02*
X15295500Y-49988100D01*
X23792000Y-37190000D02*
X24160000Y-37190000D01*
X7458100Y-50822800D02*
X14460800Y-50822800D01*
X2230000Y-46470000D02*
X3500000Y-47740000D01*
X15295500Y-49988100D02*
X15295500Y-44390600D01*
X5200900Y-47740000D02*
X6133300Y-48672400D01*
X3500000Y-47740000D02*
X5200900Y-47740000D01*
X6133300Y-49498000D02*
X7458100Y-50822800D01*
G04 #@! TO.N,K12*
X40885200Y-54734800D02*
X47200000Y-48420000D01*
X34355200Y-54734800D02*
X40885200Y-54734800D01*
X31780000Y-57310000D02*
X34355200Y-54734800D01*
G04 #@! TO.N,K10*
X28829700Y-54782400D02*
X29281400Y-54330700D01*
X17898600Y-57859500D02*
X17898600Y-56772600D01*
X21620000Y-57310000D02*
X20418400Y-58511600D01*
X20418400Y-58511600D02*
X18550700Y-58511600D01*
X29281400Y-54330700D02*
X29440100Y-54330700D01*
X34630200Y-52989800D02*
X39200000Y-48420000D01*
X19888800Y-54782400D02*
X28829700Y-54782400D01*
X30781000Y-52989800D02*
X34630200Y-52989800D01*
X17898600Y-56772600D02*
X19888800Y-54782400D01*
X18550700Y-58511600D02*
X17898600Y-57859500D01*
X29440100Y-54330700D02*
X30781000Y-52989800D01*
G04 #@! TO.N,GPIO16*
X29240000Y-49690000D02*
X26189400Y-52740600D01*
X3420600Y-52740600D02*
X2230000Y-51550000D01*
X26189400Y-52740600D02*
X3420600Y-52740600D01*
G04 #@! TO.N,GPIO19*
X4947200Y-51727200D02*
X4770000Y-51550000D01*
X22122800Y-51727200D02*
X4947200Y-51727200D01*
X24160000Y-49690000D02*
X22122800Y-51727200D01*
G04 #@! TO.N,GPIO13*
X17494600Y-51275400D02*
X7035400Y-51275400D01*
X7035400Y-51275400D02*
X4770000Y-49010000D01*
X19080000Y-49690000D02*
X17494600Y-51275400D01*
G04 #@! TO.N,GPIO24*
X12300000Y-49690000D02*
X14000000Y-49690000D01*
X12300000Y-29959999D02*
X12300000Y-49690000D01*
X2230000Y-28689999D02*
X3500000Y-29959999D01*
X3500000Y-29959999D02*
X12300000Y-29959999D01*
G04 #@! TO.N,SCL*
X7310000Y-13450000D02*
X10992100Y-17132100D01*
X50713200Y-16463600D02*
X54882000Y-16463600D01*
X10992100Y-17132100D02*
X50044700Y-17132100D01*
X4770000Y-13450000D02*
X7310000Y-13450000D01*
X50044700Y-17132100D02*
X50713200Y-16463600D01*
G04 #@! TO.N,GPIO4*
X7310000Y-15990000D02*
X8903800Y-17583800D01*
X4770000Y-15990000D02*
X7310000Y-15990000D01*
X8903800Y-17583800D02*
X54026300Y-17583800D01*
X54026300Y-17583800D02*
X54114900Y-17495200D01*
G04 #@! TO.N,GPIO18*
X6075300Y-19835300D02*
X7310000Y-21070000D01*
X2230000Y-21070000D02*
X3464700Y-19835300D01*
X3464700Y-19835300D02*
X6075300Y-19835300D01*
G04 #@! TO.N,SDA*
X52196600Y-26144000D02*
X56638000Y-30585400D01*
X4770000Y-10910000D02*
X16121300Y-10910000D01*
X47877000Y-16680400D02*
X48152100Y-16405300D01*
X56638000Y-30585400D02*
X56638000Y-32817200D01*
X16121300Y-10910000D02*
X21891700Y-16680400D01*
X21891700Y-16680400D02*
X47877000Y-16680400D01*
G04 #@! TO.N,3V3*
X4770000Y-28690000D02*
X7310000Y-28690000D01*
X52756200Y-39167200D02*
X52756200Y-32693000D01*
X46403500Y-32394600D02*
X48211200Y-30586900D01*
X33250000Y-32394600D02*
X46403500Y-32394600D01*
X52756200Y-32693000D02*
X51378600Y-31315400D01*
G04 #@! TO.N,GPIO10*
X4770000Y-31230000D02*
X7310000Y-31230000D01*
G04 #@! TO.N,GPIO9*
X4770000Y-33770000D02*
X7310000Y-33770000D01*
G04 #@! TO.N,GPIO11*
X4770000Y-36310000D02*
X7310000Y-36310000D01*
G04 #@! TO.N,GPIO7*
X2230000Y-38850000D02*
X3420600Y-37659400D01*
X6119400Y-37659400D02*
X7310000Y-38850000D01*
X3420600Y-37659400D02*
X6119400Y-37659400D01*
G04 #@! TO.N,GPIO21*
X6119400Y-55439400D02*
X7310000Y-56630000D01*
X2230000Y-56630000D02*
X3420600Y-55439400D01*
X3420600Y-55439400D02*
X6119400Y-55439400D01*
G04 #@! TD*
M02*
