G04 #@! TF.GenerationSoftware,KiCad,Pcbnew,10.0.6*
G04 #@! TF.CreationDate,2026-09-27T00:19:00-04:00*
G04 #@! TF.ProjectId,int-board,696e742d-626f-4617-9264-2e6b69636164,rev?*
G04 #@! TF.SameCoordinates,Original*
G04 #@! TF.FileFunction,Copper,L1,Top*
G04 #@! TF.FilePolarity,Positive*
%FSLAX46Y46*%
G04 Gerber Fmt 4.6, Leading zero omitted, Abs format (unit mm)*
G04 Created by KiCad (PCBNEW 10.0.6) date 2026-09-27 00:19:00*
%MOMM*%
%LPD*%
G01*
G04 APERTURE LIST*
G04 Aperture macros list*
%AMRoundRect*
0 Rectangle with rounded corners*
0 $1 Rounding radius*
0 $2 $3 $4 $5 $6 $7 $8 $9 X,Y pos of 4 corners*
0 Add a 4 corners polygon primitive as box body*
4,1,4,$2,$3,$4,$5,$6,$7,$8,$9,$2,$3,0*
0 Add four circle primitives for the rounded corners*
1,1,$1+$1,$2,$3*
1,1,$1+$1,$4,$5*
1,1,$1+$1,$6,$7*
1,1,$1+$1,$8,$9*
0 Add four rect primitives between the rounded corners*
20,1,$1+$1,$2,$3,$4,$5,0*
20,1,$1+$1,$4,$5,$6,$7,0*
20,1,$1+$1,$6,$7,$8,$9,0*
20,1,$1+$1,$8,$9,$2,$3,0*%
G04 Aperture macros list end*
G04 #@! TA.AperFunction,ComponentPad*
%ADD10C,1.600000*%
G04 #@! TD*
G04 #@! TA.AperFunction,ComponentPad*
%ADD11RoundRect,0.487500X-0.487500X-0.487500X0.487500X-0.487500X0.487500X0.487500X-0.487500X0.487500X0*%
G04 #@! TD*
G04 #@! TA.AperFunction,ComponentPad*
%ADD12C,1.950000*%
G04 #@! TD*
G04 #@! TA.AperFunction,ComponentPad*
%ADD13C,1.800000*%
G04 #@! TD*
G04 #@! TA.AperFunction,ComponentPad*
%ADD14RoundRect,0.250000X0.550000X-0.550000X0.550000X0.550000X-0.550000X0.550000X-0.550000X-0.550000X0*%
G04 #@! TD*
G04 #@! TA.AperFunction,SMDPad,CuDef*
%ADD15RoundRect,0.150000X0.700000X-0.150000X0.700000X0.150000X-0.700000X0.150000X-0.700000X-0.150000X0*%
G04 #@! TD*
G04 #@! TA.AperFunction,SMDPad,CuDef*
%ADD16RoundRect,0.250000X1.100000X-0.250000X1.100000X0.250000X-1.100000X0.250000X-1.100000X-0.250000X0*%
G04 #@! TD*
G04 #@! TA.AperFunction,ComponentPad*
%ADD17RoundRect,0.425000X-0.425000X-0.425000X0.425000X-0.425000X0.425000X0.425000X-0.425000X0.425000X0*%
G04 #@! TD*
G04 #@! TA.AperFunction,ComponentPad*
%ADD18C,1.700000*%
G04 #@! TD*
G04 #@! TA.AperFunction,ViaPad*
%ADD19C,0.800000*%
G04 #@! TD*
G04 #@! TA.AperFunction,ViaPad*
%ADD20C,1.000000*%
G04 #@! TD*
G04 #@! TA.AperFunction,Conductor*
%ADD21C,0.250000*%
G04 #@! TD*
G04 #@! TA.AperFunction,Conductor*
%ADD22C,0.500000*%
G04 #@! TD*
G04 #@! TA.AperFunction,Conductor*
%ADD23C,0.400000*%
G04 #@! TD*
G04 APERTURE END LIST*
D10*
G04 #@! TO.P,R10,1*
G04 #@! TO.N,K10*
X39200000Y-48420000D03*
G04 #@! TO.P,R10,2*
G04 #@! TO.N,S_HPCOOL*
X39200000Y-58580000D03*
G04 #@! TD*
D11*
G04 #@! TO.P,J2,1*
G04 #@! TO.N,S_CHIL*
X21050000Y-6950000D03*
D12*
G04 #@! TO.P,J2,2*
G04 #@! TO.N,S_BOS1*
X23550000Y-6950000D03*
G04 #@! TO.P,J2,3*
G04 #@! TO.N,S_BOS2*
X26050000Y-6950000D03*
G04 #@! TO.P,J2,4*
G04 #@! TO.N,COM*
X28550000Y-6950000D03*
G04 #@! TD*
D11*
G04 #@! TO.P,J1,1*
G04 #@! TO.N,S_ZV*
X9350000Y-6950000D03*
D12*
G04 #@! TO.P,J1,2*
G04 #@! TO.N,S_DHW*
X11850000Y-6950000D03*
G04 #@! TO.P,J1,3*
G04 #@! TO.N,S_BLR*
X14350000Y-6950000D03*
G04 #@! TO.P,J1,4*
G04 #@! TO.N,COM*
X16850000Y-6950000D03*
G04 #@! TD*
D10*
G04 #@! TO.P,R3,1*
G04 #@! TO.N,K3*
X43200000Y-23420000D03*
G04 #@! TO.P,R3,2*
G04 #@! TO.N,S_BLR*
X43200000Y-33580000D03*
G04 #@! TD*
G04 #@! TO.P,R1,1*
G04 #@! TO.N,K1*
X35200000Y-23420000D03*
G04 #@! TO.P,R1,2*
G04 #@! TO.N,S_ZV*
X35200000Y-33580000D03*
G04 #@! TD*
D13*
G04 #@! TO.P,TP1,1*
G04 #@! TO.N,VS*
X40000000Y-81000000D03*
G04 #@! TD*
D11*
G04 #@! TO.P,J3,1*
G04 #@! TO.N,S_DEHUM*
X32750000Y-6950000D03*
D12*
G04 #@! TO.P,J3,2*
G04 #@! TO.N,S_SCALA*
X35250000Y-6950000D03*
G04 #@! TO.P,J3,3*
G04 #@! TO.N,S_HPHEAT*
X37750000Y-6950000D03*
G04 #@! TO.P,J3,4*
G04 #@! TO.N,COM*
X40250000Y-6950000D03*
G04 #@! TD*
D10*
G04 #@! TO.P,R4,1*
G04 #@! TO.N,K4*
X47200000Y-23420000D03*
G04 #@! TO.P,R4,2*
G04 #@! TO.N,S_CHIL*
X47200000Y-33580000D03*
G04 #@! TD*
D13*
G04 #@! TO.P,TP3,1*
G04 #@! TO.N,GND*
X46000000Y-81000000D03*
G04 #@! TD*
D14*
G04 #@! TO.P,U1,1*
G04 #@! TO.N,VS*
X14000000Y-32310000D03*
D10*
G04 #@! TO.P,U1,2*
G04 #@! TO.N,K1*
X16540000Y-32310000D03*
G04 #@! TO.P,U1,3*
G04 #@! TO.N,VS*
X19080000Y-32310000D03*
G04 #@! TO.P,U1,4*
G04 #@! TO.N,K2*
X21620000Y-32310000D03*
G04 #@! TO.P,U1,5*
G04 #@! TO.N,VS*
X24160000Y-32310000D03*
G04 #@! TO.P,U1,6*
G04 #@! TO.N,K3*
X26700000Y-32310000D03*
G04 #@! TO.P,U1,7*
G04 #@! TO.N,VS*
X29240000Y-32310000D03*
G04 #@! TO.P,U1,8*
G04 #@! TO.N,K4*
X31780000Y-32310000D03*
G04 #@! TO.P,U1,9*
G04 #@! TO.N,GND*
X31780000Y-24690000D03*
G04 #@! TO.P,U1,10*
G04 #@! TO.N,GPIO25*
X29240000Y-24690000D03*
G04 #@! TO.P,U1,11*
G04 #@! TO.N,GND*
X26700000Y-24690000D03*
G04 #@! TO.P,U1,12*
G04 #@! TO.N,GPIO22*
X24160000Y-24690000D03*
G04 #@! TO.P,U1,13*
G04 #@! TO.N,GND*
X21620000Y-24690000D03*
G04 #@! TO.P,U1,14*
G04 #@! TO.N,GPIO27*
X19080000Y-24690000D03*
G04 #@! TO.P,U1,15*
G04 #@! TO.N,GND*
X16540000Y-24690000D03*
G04 #@! TO.P,U1,16*
G04 #@! TO.N,GPIO17*
X14000000Y-24690000D03*
G04 #@! TD*
G04 #@! TO.P,R7,1*
G04 #@! TO.N,K7*
X43200000Y-35920000D03*
G04 #@! TO.P,R7,2*
G04 #@! TO.N,S_DEHUM*
X43200000Y-46080000D03*
G04 #@! TD*
G04 #@! TO.P,R8,1*
G04 #@! TO.N,K8*
X47200000Y-35920000D03*
G04 #@! TO.P,R8,2*
G04 #@! TO.N,S_SCALA*
X47200000Y-46080000D03*
G04 #@! TD*
D11*
G04 #@! TO.P,J4,1*
G04 #@! TO.N,S_HPCOOL*
X44450000Y-6950000D03*
D12*
G04 #@! TO.P,J4,2*
G04 #@! TO.N,S_DHWX*
X46950000Y-6950000D03*
G04 #@! TO.P,J4,3*
G04 #@! TO.N,S_SP-E*
X49450000Y-6950000D03*
G04 #@! TO.P,J4,4*
G04 #@! TO.N,COM*
X51950000Y-6950000D03*
G04 #@! TD*
D10*
G04 #@! TO.P,R2,1*
G04 #@! TO.N,K2*
X39200000Y-23420000D03*
G04 #@! TO.P,R2,2*
G04 #@! TO.N,S_DHW*
X39200000Y-33580000D03*
G04 #@! TD*
G04 #@! TO.P,R5,1*
G04 #@! TO.N,K5*
X35200000Y-35920000D03*
G04 #@! TO.P,R5,2*
G04 #@! TO.N,S_BOS1*
X35200000Y-46080000D03*
G04 #@! TD*
G04 #@! TO.P,J9,3*
G04 #@! TO.N,SCL*
X7310000Y-13450000D03*
G04 #@! TO.P,J9,4*
G04 #@! TO.N,GPIO4*
X7310000Y-15990000D03*
G04 #@! TO.P,J9,5*
G04 #@! TO.N,GND*
X7310000Y-18530000D03*
G04 #@! TO.P,J9,6*
G04 #@! TO.N,GPIO18*
X7310000Y-21070000D03*
G04 #@! TO.P,J9,7*
G04 #@! TO.N,SDA*
X7310000Y-23610000D03*
G04 #@! TO.P,J9,8*
G04 #@! TO.N,+5V*
X7310000Y-26150000D03*
G04 #@! TO.P,J9,9*
G04 #@! TO.N,3V3*
X7310000Y-28690000D03*
G04 #@! TO.P,J9,10*
G04 #@! TO.N,GPIO10*
X7310000Y-31230000D03*
G04 #@! TO.P,J9,11*
G04 #@! TO.N,GPIO9*
X7310000Y-33770000D03*
G04 #@! TO.P,J9,12*
G04 #@! TO.N,GPIO11*
X7310000Y-36310000D03*
G04 #@! TO.P,J9,13*
G04 #@! TO.N,GPIO7*
X7310000Y-38850000D03*
G04 #@! TO.P,J9,14*
G04 #@! TO.N,GPIO8*
X7310000Y-41390000D03*
G04 #@! TO.P,J9,15*
G04 #@! TO.N,GND*
X7310000Y-43930000D03*
G04 #@! TO.P,J9,17*
X7310000Y-49010000D03*
G04 #@! TO.P,J9,19*
G04 #@! TO.N,GPIO20*
X7310000Y-54090000D03*
G04 #@! TO.P,J9,20*
G04 #@! TO.N,GPIO21*
X7310000Y-56630000D03*
G04 #@! TD*
D14*
G04 #@! TO.P,U2,1*
G04 #@! TO.N,VS*
X14000000Y-44810000D03*
D10*
G04 #@! TO.P,U2,2*
G04 #@! TO.N,K5*
X16540000Y-44810000D03*
G04 #@! TO.P,U2,3*
G04 #@! TO.N,VS*
X19080000Y-44810000D03*
G04 #@! TO.P,U2,4*
G04 #@! TO.N,K6*
X21620000Y-44810000D03*
G04 #@! TO.P,U2,5*
G04 #@! TO.N,VS*
X24160000Y-44810000D03*
G04 #@! TO.P,U2,6*
G04 #@! TO.N,K7*
X26700000Y-44810000D03*
G04 #@! TO.P,U2,7*
G04 #@! TO.N,VS*
X29240000Y-44810000D03*
G04 #@! TO.P,U2,8*
G04 #@! TO.N,K8*
X31780000Y-44810000D03*
G04 #@! TO.P,U2,9*
G04 #@! TO.N,GND*
X31780000Y-37190000D03*
G04 #@! TO.P,U2,10*
G04 #@! TO.N,GPIO23*
X29240000Y-37190000D03*
G04 #@! TO.P,U2,11*
G04 #@! TO.N,GND*
X26700000Y-37190000D03*
G04 #@! TO.P,U2,12*
G04 #@! TO.N,GPIO12*
X24160000Y-37190000D03*
G04 #@! TO.P,U2,13*
G04 #@! TO.N,GND*
X21620000Y-37190000D03*
G04 #@! TO.P,U2,14*
G04 #@! TO.N,GPIO5*
X19080000Y-37190000D03*
G04 #@! TO.P,U2,15*
G04 #@! TO.N,GND*
X16540000Y-37190000D03*
G04 #@! TO.P,U2,16*
G04 #@! TO.N,GPIO6*
X14000000Y-37190000D03*
G04 #@! TD*
G04 #@! TO.P,R12,1*
G04 #@! TO.N,K12*
X47200000Y-48420000D03*
G04 #@! TO.P,R12,2*
G04 #@! TO.N,S_SP-E*
X47200000Y-58580000D03*
G04 #@! TD*
D14*
G04 #@! TO.P,U3,1*
G04 #@! TO.N,VS*
X14000000Y-57310000D03*
D10*
G04 #@! TO.P,U3,2*
G04 #@! TO.N,K9*
X16540000Y-57310000D03*
G04 #@! TO.P,U3,3*
G04 #@! TO.N,VS*
X19080000Y-57310000D03*
G04 #@! TO.P,U3,4*
G04 #@! TO.N,K10*
X21620000Y-57310000D03*
G04 #@! TO.P,U3,5*
G04 #@! TO.N,VS*
X24160000Y-57310000D03*
G04 #@! TO.P,U3,6*
G04 #@! TO.N,K11*
X26700000Y-57310000D03*
G04 #@! TO.P,U3,7*
G04 #@! TO.N,VS*
X29240000Y-57310000D03*
G04 #@! TO.P,U3,8*
G04 #@! TO.N,K12*
X31780000Y-57310000D03*
G04 #@! TO.P,U3,9*
G04 #@! TO.N,GND*
X31780000Y-49690000D03*
G04 #@! TO.P,U3,10*
G04 #@! TO.N,GPIO16*
X29240000Y-49690000D03*
G04 #@! TO.P,U3,11*
G04 #@! TO.N,GND*
X26700000Y-49690000D03*
G04 #@! TO.P,U3,12*
G04 #@! TO.N,GPIO19*
X24160000Y-49690000D03*
G04 #@! TO.P,U3,13*
G04 #@! TO.N,GND*
X21620000Y-49690000D03*
G04 #@! TO.P,U3,14*
G04 #@! TO.N,GPIO13*
X19080000Y-49690000D03*
G04 #@! TO.P,U3,15*
G04 #@! TO.N,GND*
X16540000Y-49690000D03*
G04 #@! TO.P,U3,16*
G04 #@! TO.N,GPIO24*
X14000000Y-49690000D03*
G04 #@! TD*
D13*
G04 #@! TO.P,TP2,1*
G04 #@! TO.N,COM*
X43000000Y-81000000D03*
G04 #@! TD*
D10*
G04 #@! TO.P,R9,1*
G04 #@! TO.N,K9*
X35200000Y-48420000D03*
G04 #@! TO.P,R9,2*
G04 #@! TO.N,S_HPHEAT*
X35200000Y-58580000D03*
G04 #@! TD*
D15*
G04 #@! TO.P,J6,1*
G04 #@! TO.N,3V3*
X53305000Y-38250000D03*
G04 #@! TO.P,J6,2*
G04 #@! TO.N,SDA*
X53305000Y-37000000D03*
G04 #@! TO.P,J6,3*
G04 #@! TO.N,SCL*
X53305000Y-35750000D03*
G04 #@! TO.P,J6,4*
G04 #@! TO.N,GPIO4*
X53305000Y-34500000D03*
G04 #@! TO.P,J6,5*
G04 #@! TO.N,GND*
X53305000Y-33250000D03*
G04 #@! TO.P,J6,6*
G04 #@! TO.N,VS*
X53305000Y-32000000D03*
G04 #@! TO.P,J6,7*
G04 #@! TO.N,COM*
X53305000Y-30750000D03*
D16*
G04 #@! TO.P,J6,MP*
G04 #@! TO.N,N/C*
X56505000Y-40100000D03*
X56505000Y-28900000D03*
G04 #@! TD*
D10*
G04 #@! TO.P,R6,1*
G04 #@! TO.N,K6*
X39200000Y-35920000D03*
G04 #@! TO.P,R6,2*
G04 #@! TO.N,S_BOS2*
X39200000Y-46080000D03*
G04 #@! TD*
G04 #@! TO.P,R11,1*
G04 #@! TO.N,K11*
X43200000Y-48420000D03*
G04 #@! TO.P,R11,2*
G04 #@! TO.N,S_DHWX*
X43200000Y-58580000D03*
G04 #@! TD*
D17*
G04 #@! TO.P,J5,1*
G04 #@! TO.N,N/C*
X4770000Y-8370000D03*
D18*
G04 #@! TO.P,J5,2*
G04 #@! TO.N,+5V*
X2230000Y-8370000D03*
G04 #@! TO.P,J5,3*
G04 #@! TO.N,SDA*
X4770000Y-10910000D03*
G04 #@! TO.P,J5,4*
G04 #@! TO.N,+5V*
X2230000Y-10910000D03*
G04 #@! TO.P,J5,5*
G04 #@! TO.N,SCL*
X4770000Y-13450000D03*
G04 #@! TO.P,J5,6*
G04 #@! TO.N,GND*
X2230000Y-13450000D03*
G04 #@! TO.P,J5,7*
G04 #@! TO.N,GPIO4*
X4770000Y-15990000D03*
G04 #@! TO.P,J5,8*
G04 #@! TO.N,N/C*
X2230000Y-15990000D03*
G04 #@! TO.P,J5,9*
G04 #@! TO.N,GND*
X4770000Y-18530000D03*
G04 #@! TO.P,J5,10*
G04 #@! TO.N,N/C*
X2230000Y-18530000D03*
G04 #@! TO.P,J5,11*
G04 #@! TO.N,GPIO17*
X4770000Y-21070000D03*
G04 #@! TO.P,J5,12*
G04 #@! TO.N,GPIO18*
X2230000Y-21070000D03*
G04 #@! TO.P,J5,13*
G04 #@! TO.N,GPIO27*
X4770000Y-23610000D03*
G04 #@! TO.P,J5,14*
G04 #@! TO.N,GND*
X2230000Y-23610000D03*
G04 #@! TO.P,J5,15*
G04 #@! TO.N,GPIO22*
X4770000Y-26150000D03*
G04 #@! TO.P,J5,16*
G04 #@! TO.N,GPIO23*
X2230000Y-26150000D03*
G04 #@! TO.P,J5,17*
G04 #@! TO.N,3V3*
X4770000Y-28690000D03*
G04 #@! TO.P,J5,18*
G04 #@! TO.N,GPIO24*
X2230000Y-28690000D03*
G04 #@! TO.P,J5,19*
G04 #@! TO.N,GPIO10*
X4770000Y-31230000D03*
G04 #@! TO.P,J5,20*
G04 #@! TO.N,GND*
X2230000Y-31230000D03*
G04 #@! TO.P,J5,21*
G04 #@! TO.N,GPIO9*
X4770000Y-33770000D03*
G04 #@! TO.P,J5,22*
G04 #@! TO.N,GPIO25*
X2230000Y-33770000D03*
G04 #@! TO.P,J5,23*
G04 #@! TO.N,GPIO11*
X4770000Y-36310000D03*
G04 #@! TO.P,J5,24*
G04 #@! TO.N,GPIO8*
X2230000Y-36310000D03*
G04 #@! TO.P,J5,25*
G04 #@! TO.N,N/C*
X4770000Y-38850000D03*
G04 #@! TO.P,J5,26*
G04 #@! TO.N,GPIO7*
X2230000Y-38850000D03*
G04 #@! TO.P,J5,27*
G04 #@! TO.N,N/C*
X4770000Y-41390000D03*
G04 #@! TO.P,J5,28*
X2230000Y-41390000D03*
G04 #@! TO.P,J5,29*
G04 #@! TO.N,GPIO5*
X4770000Y-43930000D03*
G04 #@! TO.P,J5,30*
G04 #@! TO.N,GND*
X2230000Y-43930000D03*
G04 #@! TO.P,J5,31*
G04 #@! TO.N,GPIO6*
X4770000Y-46470000D03*
G04 #@! TO.P,J5,32*
G04 #@! TO.N,GPIO12*
X2230000Y-46470000D03*
G04 #@! TO.P,J5,33*
G04 #@! TO.N,GPIO13*
X4770000Y-49010000D03*
G04 #@! TO.P,J5,34*
G04 #@! TO.N,GND*
X2230000Y-49010000D03*
G04 #@! TO.P,J5,35*
G04 #@! TO.N,GPIO19*
X4770000Y-51550000D03*
G04 #@! TO.P,J5,36*
G04 #@! TO.N,GPIO16*
X2230000Y-51550000D03*
G04 #@! TO.P,J5,37*
G04 #@! TO.N,N/C*
X4770000Y-54090000D03*
G04 #@! TO.P,J5,38*
G04 #@! TO.N,GPIO20*
X2230000Y-54090000D03*
G04 #@! TO.P,J5,39*
G04 #@! TO.N,N/C*
X4770000Y-56630000D03*
G04 #@! TO.P,J5,40*
G04 #@! TO.N,GPIO21*
X2230000Y-56630000D03*
G04 #@! TD*
D19*
G04 #@! TO.N,S_CHIL*
X31745700Y-28505300D03*
D20*
G04 #@! TO.N,COM*
X46755200Y-67475600D03*
D19*
G04 #@! TO.N,S_BLR*
X41836800Y-14880900D03*
D20*
G04 #@! TO.N,VS*
X34376000Y-41747500D03*
X33514800Y-37052400D03*
X48065300Y-42552800D03*
D19*
G04 #@! TO.N,S_SCALA*
X46353900Y-15553800D03*
G04 #@! TO.N,S_HPHEAT*
X37927700Y-57225600D03*
G04 #@! TO.N,GPIO25*
X13031600Y-34834100D03*
G04 #@! TO.N,SCL*
X54355000Y-17414400D03*
G04 #@! TO.N,GPIO4*
X52911300Y-17484400D03*
G04 #@! TO.N,SDA*
X54447300Y-16409300D03*
G04 #@! TD*
G04 #@! TO.N,S_HPCOOL*
D21*
X44450000Y-6950000D02*
X44450000Y-43836800D01*
X44450000Y-43836800D02*
X44805900Y-44192700D01*
X44805900Y-52974100D02*
X39200000Y-58580000D01*
X44805900Y-44192700D02*
X44805900Y-52974100D01*
G04 #@! TO.N,S_CHIL*
X21050000Y-6950000D02*
X30419600Y-16319600D01*
X30419600Y-27179200D02*
X31745700Y-28505300D01*
X30419600Y-16319600D02*
X30419600Y-27179200D01*
G04 #@! TO.N,S_BOS1*
X36328000Y-19728000D02*
X36328000Y-44952000D01*
X23550000Y-6950000D02*
X36328000Y-19728000D01*
X36328000Y-44952000D02*
X35200000Y-46080000D01*
G04 #@! TO.N,S_BOS2*
X39200000Y-46080000D02*
X36782500Y-43662500D01*
X36782500Y-43662500D02*
X36782500Y-17682500D01*
X36782500Y-17682500D02*
X26050000Y-6950000D01*
G04 #@! TO.N,COM*
D22*
X52339700Y-29784700D02*
X53305000Y-30750000D01*
X48508500Y-44422200D02*
X47054100Y-42967800D01*
X48573300Y-39042400D02*
X48573300Y-33551100D01*
X47054100Y-42967800D02*
X47054100Y-40561600D01*
X51950000Y-6950000D02*
X51950000Y-29395000D01*
X47054100Y-40561600D02*
X48573300Y-39042400D01*
X46755200Y-67475600D02*
X48508500Y-65722300D01*
X48573300Y-33551100D02*
X52339700Y-29784700D01*
X51950000Y-29395000D02*
X52339700Y-29784700D01*
X48508500Y-65722300D02*
X48508500Y-44422200D01*
G04 #@! TO.N,S_ZV*
D21*
X25951500Y-22264600D02*
X28040700Y-24353800D01*
X9350000Y-6950000D02*
X24664600Y-22264600D01*
X28040700Y-24353800D02*
X28040700Y-25827900D01*
X24664600Y-22264600D02*
X25951500Y-22264600D01*
X35200000Y-32987200D02*
X35200000Y-33580000D01*
X28040700Y-25827900D02*
X35200000Y-32987200D01*
G04 #@! TO.N,S_DHW*
X37626300Y-32006300D02*
X39200000Y-33580000D01*
X37626300Y-14105500D02*
X37626300Y-32006300D01*
X29107900Y-5587100D02*
X37626300Y-14105500D01*
X13212900Y-5587100D02*
X29107900Y-5587100D01*
X11850000Y-6950000D02*
X13212900Y-5587100D01*
G04 #@! TO.N,S_BLR*
X41836800Y-14880900D02*
X41836800Y-32216800D01*
X41836800Y-32216800D02*
X43200000Y-33580000D01*
G04 #@! TO.N,VS*
D22*
X29240000Y-57310000D02*
X27936800Y-58613200D01*
X17778000Y-56008000D02*
X15302000Y-56008000D01*
X25463200Y-58613200D02*
X24160000Y-57310000D01*
X12655200Y-47485600D02*
X14000000Y-46140800D01*
X34376000Y-37913600D02*
X33514800Y-37052400D01*
X15302000Y-56008000D02*
X14000000Y-57310000D01*
X27936800Y-68936800D02*
X40000000Y-81000000D01*
X19080000Y-57310000D02*
X17778000Y-56008000D01*
X27936800Y-58613200D02*
X25463200Y-58613200D01*
X14000000Y-46140800D02*
X14000000Y-44810000D01*
X49825900Y-40792200D02*
X48065300Y-42552800D01*
X34376000Y-41747500D02*
X34376000Y-37913600D01*
X15302000Y-56008000D02*
X12655200Y-53361200D01*
X27936800Y-58613200D02*
X27936800Y-68936800D01*
X53305000Y-32000000D02*
X51219800Y-32000000D01*
X51219800Y-32000000D02*
X49825900Y-33393900D01*
X49825900Y-33393900D02*
X49825900Y-40792200D01*
X17749200Y-46140800D02*
X14000000Y-46140800D01*
X19080000Y-44810000D02*
X17749200Y-46140800D01*
X12655200Y-53361200D02*
X12655200Y-47485600D01*
G04 #@! TO.N,S_DEHUM*
D21*
X32750000Y-8227600D02*
X40855500Y-16333100D01*
X32750000Y-6950000D02*
X32750000Y-8227600D01*
X40855500Y-16333100D02*
X40855500Y-43735500D01*
X40855500Y-43735500D02*
X43200000Y-46080000D01*
G04 #@! TO.N,S_SCALA*
X47200000Y-44000100D02*
X46072000Y-42872100D01*
X47200000Y-46080000D02*
X47200000Y-44000100D01*
X46072000Y-15835700D02*
X46353900Y-15553800D01*
X46072000Y-42872100D02*
X46072000Y-15835700D01*
G04 #@! TO.N,S_HPHEAT*
X41307300Y-41382100D02*
X44354200Y-44429000D01*
X44354200Y-50799100D02*
X37927700Y-57225600D01*
X37750000Y-6950000D02*
X37750000Y-12588700D01*
X41307300Y-16146000D02*
X41307300Y-41382100D01*
X44354200Y-44429000D02*
X44354200Y-50799100D01*
X37750000Y-12588700D02*
X41307300Y-16146000D01*
G04 #@! TO.N,GND*
D22*
X22923400Y-35886600D02*
X21620000Y-37190000D01*
X16540000Y-24690000D02*
X16540000Y-16857700D01*
X2454000Y-6177600D02*
X878300Y-7753300D01*
X878300Y-49011500D02*
X879800Y-49010000D01*
X25378900Y-51011100D02*
X22941100Y-51011100D01*
X17881700Y-48348300D02*
X16540000Y-49690000D01*
X26700000Y-25380500D02*
X33128600Y-31809100D01*
X33128600Y-35841400D02*
X31780000Y-37190000D01*
X878300Y-7753300D02*
X878300Y-13448500D01*
X26700000Y-24690000D02*
X26700000Y-25380500D01*
X26700000Y-37190000D02*
X25396600Y-35886600D01*
X878300Y-57203100D02*
X878300Y-49011500D01*
X26700000Y-49690000D02*
X25378900Y-51011100D01*
X20278300Y-48348300D02*
X17881700Y-48348300D01*
X33128600Y-31809100D02*
X33128600Y-35841400D01*
D23*
X750000Y-49010000D02*
X2230000Y-49010000D01*
D22*
X31780000Y-49690000D02*
X33081700Y-48388300D01*
X31780000Y-53255600D02*
X45753500Y-67229100D01*
X8611700Y-50311700D02*
X8611700Y-57228300D01*
D23*
X750000Y-31229999D02*
X2230000Y-31229999D01*
X51000000Y-33250000D02*
X51000000Y-78000000D01*
D22*
X7310000Y-49010000D02*
X8611700Y-50311700D01*
X33081700Y-38491700D02*
X31780000Y-37190000D01*
X25396600Y-35886600D02*
X22923400Y-35886600D01*
D23*
X750000Y-23610000D02*
X2230000Y-23610000D01*
D22*
X45753500Y-67229100D02*
X45753500Y-77753500D01*
X16540000Y-16857700D02*
X5859900Y-6177600D01*
X45753500Y-77753500D02*
X46000000Y-78000000D01*
D23*
X51000000Y-78000000D02*
X46000000Y-78000000D01*
D22*
X8611700Y-57228300D02*
X7856300Y-57983700D01*
X21620000Y-49690000D02*
X20278300Y-48348300D01*
D23*
X750000Y-43930000D02*
X2230000Y-43930000D01*
D22*
X31780000Y-49690000D02*
X31780000Y-53255600D01*
D23*
X750000Y-13450000D02*
X750000Y-49010000D01*
D22*
X22941100Y-51011100D02*
X21620000Y-49690000D01*
X878300Y-13448500D02*
X879800Y-13450000D01*
D23*
X53305000Y-33250000D02*
X51000000Y-33250000D01*
D22*
X33081700Y-48388300D02*
X33081700Y-38491700D01*
X1658900Y-57983700D02*
X878300Y-57203100D01*
X7856300Y-57983700D02*
X1658900Y-57983700D01*
D23*
X46000000Y-78000000D02*
X46000000Y-81000000D01*
D22*
X5859900Y-6177600D02*
X2454000Y-6177600D01*
D23*
X750000Y-13450000D02*
X2230000Y-13450000D01*
G04 #@! TO.N,GPIO25*
D21*
X3448500Y-34988500D02*
X12877200Y-34988500D01*
X2230000Y-33770000D02*
X3448500Y-34988500D01*
X12877200Y-34988500D02*
X13031600Y-34834100D01*
G04 #@! TO.N,S_DHWX*
X45167300Y-43915300D02*
X45167300Y-8732700D01*
X43200000Y-58580000D02*
X45257600Y-56522400D01*
X45257600Y-44005600D02*
X45167300Y-43915300D01*
X45167300Y-8732700D02*
X46950000Y-6950000D01*
X45257600Y-56522400D02*
X45257600Y-44005600D01*
G04 #@! TO.N,S_SP-E*
X47200000Y-58580000D02*
X45712300Y-57092300D01*
X45619000Y-10781000D02*
X49450000Y-6950000D01*
X45712300Y-43821500D02*
X45619000Y-43728200D01*
X45712300Y-57092300D02*
X45712300Y-43821500D01*
X45619000Y-43728200D02*
X45619000Y-10781000D01*
G04 #@! TO.N,SCL*
X53620600Y-35750000D02*
X53305000Y-35750000D01*
X54355000Y-29057300D02*
X55066800Y-29769100D01*
X54355000Y-17414400D02*
X54355000Y-29057300D01*
X55066800Y-29769100D02*
X55066800Y-34303800D01*
X55066800Y-34303800D02*
X53620600Y-35750000D01*
G04 #@! TO.N,GPIO4*
X52911300Y-17484400D02*
X52911300Y-28281300D01*
X52911300Y-28281300D02*
X54573700Y-29943700D01*
X53652200Y-34500000D02*
X53305000Y-34500000D01*
X54573700Y-33578500D02*
X53652200Y-34500000D01*
X54573700Y-29943700D02*
X54573700Y-33578500D01*
G04 #@! TO.N,SDA*
X53305000Y-37000000D02*
X53608700Y-37000000D01*
X7310000Y-23610000D02*
X6075400Y-22375400D01*
X6075400Y-22375400D02*
X6075400Y-12215400D01*
X58231200Y-20193200D02*
X54447300Y-16409300D01*
X6075400Y-12215400D02*
X4770000Y-10910000D01*
X53608700Y-37000000D02*
X58231200Y-32377500D01*
X58231200Y-32377500D02*
X58231200Y-20193200D01*
G04 #@! TO.N,+5V*
D22*
X7310000Y-26150000D02*
X8646400Y-24813600D01*
X8646400Y-10060200D02*
X5559200Y-6973000D01*
X8646400Y-24813600D02*
X8646400Y-10060200D01*
X5559200Y-6973000D02*
X3627000Y-6973000D01*
X2230000Y-10910000D02*
X2230000Y-8370000D01*
X3627000Y-6973000D02*
X2230000Y-8370000D01*
G04 #@! TO.N,3V3*
D21*
X12108900Y-33488900D02*
X7310000Y-28690000D01*
X44500000Y-78559200D02*
X30474600Y-64533800D01*
X30474600Y-64533800D02*
X30474600Y-36819200D01*
X30474600Y-36819200D02*
X28918000Y-35262600D01*
X28918000Y-35262600D02*
X27949300Y-35262600D01*
X26175700Y-33488900D02*
X12108900Y-33488900D01*
X53305000Y-76632600D02*
X47602700Y-82334900D01*
X47602700Y-82334900D02*
X45496700Y-82334900D01*
X27949300Y-35262500D02*
X26175700Y-33488900D01*
X27949300Y-35262600D02*
X27949300Y-35262500D01*
X53305000Y-38250000D02*
X53305000Y-76632600D01*
X45496700Y-82334900D02*
X44500000Y-81338200D01*
X44500000Y-81338200D02*
X44500000Y-78559200D01*
G04 #@! TO.N,GPIO8*
X2230000Y-36309999D02*
X3500000Y-37579999D01*
X3500000Y-37579999D02*
X3500000Y-40119999D01*
X3500000Y-40119999D02*
X7310000Y-40119999D01*
X7310000Y-40119999D02*
X7310000Y-41389999D01*
G04 #@! TO.N,GPIO20*
X3420600Y-52899400D02*
X6119400Y-52899400D01*
X2230000Y-54090000D02*
X3420600Y-52899400D01*
X6119400Y-52899400D02*
X7310000Y-54090000D01*
G04 #@! TO.N,GPIO21*
X3420600Y-55439400D02*
X6119400Y-55439400D01*
X6119400Y-55439400D02*
X7310000Y-56630000D01*
X2230000Y-56630000D02*
X3420600Y-55439400D01*
G04 #@! TO.N,GPIO23*
X26041000Y-33993100D02*
X29237900Y-37190000D01*
X11666600Y-33993100D02*
X26041000Y-33993100D01*
X6183300Y-28360100D02*
X6183300Y-29207000D01*
X29237900Y-37190000D02*
X29240000Y-37190000D01*
X2230000Y-26150000D02*
X3593300Y-27513300D01*
X5336500Y-27513300D02*
X6183300Y-28360100D01*
X3593300Y-27513300D02*
X5336500Y-27513300D01*
X7079600Y-30103300D02*
X7776800Y-30103300D01*
X7776800Y-30103300D02*
X11666600Y-33993100D01*
X6183300Y-29207000D02*
X7079600Y-30103300D01*
G04 #@! TO.N,GPIO12*
X24160000Y-37190000D02*
X22943700Y-38406300D01*
X17845400Y-36831300D02*
X17026700Y-36012600D01*
X22943700Y-38406300D02*
X18685200Y-38406300D01*
X3500000Y-45200000D02*
X2230000Y-46470000D01*
X12810400Y-36012600D02*
X11472700Y-37350300D01*
X18685200Y-38406300D02*
X17845400Y-37566500D01*
X11472700Y-41436700D02*
X7709400Y-45200000D01*
X11472700Y-37350300D02*
X11472700Y-41436700D01*
X17845400Y-37566500D02*
X17845400Y-36831300D01*
X7709400Y-45200000D02*
X3500000Y-45200000D01*
X17026700Y-36012600D02*
X12810400Y-36012600D01*
G04 #@! TO.N,GPIO5*
X7708200Y-42624700D02*
X6075300Y-42624700D01*
X6075300Y-42624700D02*
X4770000Y-43930000D01*
X19080000Y-37190000D02*
X17450900Y-35560900D01*
X9759100Y-38425100D02*
X9759100Y-40573800D01*
X17450900Y-35560900D02*
X12623300Y-35560900D01*
X12623300Y-35560900D02*
X9759100Y-38425100D01*
X9759100Y-40573800D02*
X7708200Y-42624700D01*
G04 #@! TO.N,GPIO6*
X12300000Y-37190000D02*
X14000000Y-37190000D01*
X4770000Y-46469999D02*
X12300000Y-46469999D01*
X12300000Y-46469999D02*
X12300000Y-37190000D01*
G04 #@! TD*
M02*
