G04 #@! TF.GenerationSoftware,KiCad,Pcbnew,10.0.6*
G04 #@! TF.CreationDate,2026-09-27T00:03:24-04:00*
G04 #@! TF.ProjectId,int-board,696e742d-626f-4617-9264-2e6b69636164,rev?*
G04 #@! TF.SameCoordinates,Original*
G04 #@! TF.FileFunction,Copper,L2,Bot*
G04 #@! TF.FilePolarity,Positive*
%FSLAX46Y46*%
G04 Gerber Fmt 4.6, Leading zero omitted, Abs format (unit mm)*
G04 Created by KiCad (PCBNEW 10.0.6) date 2026-09-27 00:03:24*
%MOMM*%
%LPD*%
G01*
G04 APERTURE LIST*
G04 Aperture macros list*
%AMRoundRect*
0 Rectangle with rounded corners*
0 $1 Rounding radius*
0 $2 $3 $4 $5 $6 $7 $8 $9 X,Y pos of 4 corners*
0 Add a 4 corners polygon primitive as box body*
4,1,4,$2,$3,$4,$5,$6,$7,$8,$9,$2,$3,0*
0 Add four circle primitives for the rounded corners*
1,1,$1+$1,$2,$3*
1,1,$1+$1,$4,$5*
1,1,$1+$1,$6,$7*
1,1,$1+$1,$8,$9*
0 Add four rect primitives between the rounded corners*
20,1,$1+$1,$2,$3,$4,$5,0*
20,1,$1+$1,$4,$5,$6,$7,0*
20,1,$1+$1,$6,$7,$8,$9,0*
20,1,$1+$1,$8,$9,$2,$3,0*%
G04 Aperture macros list end*
G04 #@! TA.AperFunction,ComponentPad*
%ADD10C,1.600000*%
G04 #@! TD*
G04 #@! TA.AperFunction,ComponentPad*
%ADD11RoundRect,0.487500X-0.487500X-0.487500X0.487500X-0.487500X0.487500X0.487500X-0.487500X0.487500X0*%
G04 #@! TD*
G04 #@! TA.AperFunction,ComponentPad*
%ADD12C,1.950000*%
G04 #@! TD*
G04 #@! TA.AperFunction,ComponentPad*
%ADD13C,1.800000*%
G04 #@! TD*
G04 #@! TA.AperFunction,ComponentPad*
%ADD14RoundRect,0.250000X0.550000X-0.550000X0.550000X0.550000X-0.550000X0.550000X-0.550000X-0.550000X0*%
G04 #@! TD*
G04 #@! TA.AperFunction,ComponentPad*
%ADD15RoundRect,0.425000X-0.425000X-0.425000X0.425000X-0.425000X0.425000X0.425000X-0.425000X0.425000X0*%
G04 #@! TD*
G04 #@! TA.AperFunction,ComponentPad*
%ADD16C,1.700000*%
G04 #@! TD*
G04 #@! TA.AperFunction,ViaPad*
%ADD17C,0.800000*%
G04 #@! TD*
G04 #@! TA.AperFunction,ViaPad*
%ADD18C,1.000000*%
G04 #@! TD*
G04 #@! TA.AperFunction,Conductor*
%ADD19C,0.250000*%
G04 #@! TD*
G04 #@! TA.AperFunction,Conductor*
%ADD20C,0.500000*%
G04 #@! TD*
G04 APERTURE END LIST*
D10*
G04 #@! TO.P,R4,1*
G04 #@! TO.N,K4*
X47200000Y-23420000D03*
G04 #@! TO.P,R4,2*
G04 #@! TO.N,S_CHIL*
X47200000Y-33580000D03*
G04 #@! TD*
D11*
G04 #@! TO.P,J3,1*
G04 #@! TO.N,S_DEHUM*
X32750000Y-6950000D03*
D12*
G04 #@! TO.P,J3,2*
G04 #@! TO.N,S_SCALA*
X35250000Y-6950000D03*
G04 #@! TO.P,J3,3*
G04 #@! TO.N,S_HPHEAT*
X37750000Y-6950000D03*
G04 #@! TO.P,J3,4*
G04 #@! TO.N,COM*
X40250000Y-6950000D03*
G04 #@! TD*
D11*
G04 #@! TO.P,J4,1*
G04 #@! TO.N,S_HPCOOL*
X44450000Y-6950000D03*
D12*
G04 #@! TO.P,J4,2*
G04 #@! TO.N,S_DHWX*
X46950000Y-6950000D03*
G04 #@! TO.P,J4,3*
G04 #@! TO.N,S_SP-E*
X49450000Y-6950000D03*
G04 #@! TO.P,J4,4*
G04 #@! TO.N,COM*
X51950000Y-6950000D03*
G04 #@! TD*
D10*
G04 #@! TO.P,R12,1*
G04 #@! TO.N,K12*
X47200000Y-48420000D03*
G04 #@! TO.P,R12,2*
G04 #@! TO.N,S_SP-E*
X47200000Y-58580000D03*
G04 #@! TD*
D13*
G04 #@! TO.P,TP2,1*
G04 #@! TO.N,COM*
X43000000Y-81000000D03*
G04 #@! TD*
D10*
G04 #@! TO.P,J9,3*
G04 #@! TO.N,SCL*
X7310000Y-13450000D03*
G04 #@! TO.P,J9,4*
G04 #@! TO.N,GPIO4*
X7310000Y-15990000D03*
G04 #@! TO.P,J9,5*
G04 #@! TO.N,GND*
X7310000Y-18530000D03*
G04 #@! TO.P,J9,6*
G04 #@! TO.N,GPIO18*
X7310000Y-21070000D03*
G04 #@! TO.P,J9,7*
G04 #@! TO.N,SDA*
X7310000Y-23610000D03*
G04 #@! TO.P,J9,8*
G04 #@! TO.N,+5V*
X7310000Y-26150000D03*
G04 #@! TO.P,J9,9*
G04 #@! TO.N,3V3*
X7310000Y-28690000D03*
G04 #@! TO.P,J9,10*
G04 #@! TO.N,GPIO10*
X7310000Y-31230000D03*
G04 #@! TO.P,J9,11*
G04 #@! TO.N,GPIO9*
X7310000Y-33770000D03*
G04 #@! TO.P,J9,12*
G04 #@! TO.N,GPIO11*
X7310000Y-36310000D03*
G04 #@! TO.P,J9,13*
G04 #@! TO.N,GPIO7*
X7310000Y-38850000D03*
G04 #@! TO.P,J9,14*
G04 #@! TO.N,GPIO8*
X7310000Y-41390000D03*
G04 #@! TO.P,J9,15*
G04 #@! TO.N,GND*
X7310000Y-43930000D03*
G04 #@! TO.P,J9,17*
X7310000Y-49010000D03*
G04 #@! TO.P,J9,19*
G04 #@! TO.N,GPIO20*
X7310000Y-54090000D03*
G04 #@! TO.P,J9,20*
G04 #@! TO.N,GPIO21*
X7310000Y-56630000D03*
G04 #@! TD*
D14*
G04 #@! TO.P,U1,1*
G04 #@! TO.N,VS*
X14000000Y-32310000D03*
D10*
G04 #@! TO.P,U1,2*
G04 #@! TO.N,K1*
X16540000Y-32310000D03*
G04 #@! TO.P,U1,3*
G04 #@! TO.N,VS*
X19080000Y-32310000D03*
G04 #@! TO.P,U1,4*
G04 #@! TO.N,K2*
X21620000Y-32310000D03*
G04 #@! TO.P,U1,5*
G04 #@! TO.N,VS*
X24160000Y-32310000D03*
G04 #@! TO.P,U1,6*
G04 #@! TO.N,K3*
X26700000Y-32310000D03*
G04 #@! TO.P,U1,7*
G04 #@! TO.N,VS*
X29240000Y-32310000D03*
G04 #@! TO.P,U1,8*
G04 #@! TO.N,K4*
X31780000Y-32310000D03*
G04 #@! TO.P,U1,9*
G04 #@! TO.N,GND*
X31780000Y-24690000D03*
G04 #@! TO.P,U1,10*
G04 #@! TO.N,GPIO25*
X29240000Y-24690000D03*
G04 #@! TO.P,U1,11*
G04 #@! TO.N,GND*
X26700000Y-24690000D03*
G04 #@! TO.P,U1,12*
G04 #@! TO.N,GPIO22*
X24160000Y-24690000D03*
G04 #@! TO.P,U1,13*
G04 #@! TO.N,GND*
X21620000Y-24690000D03*
G04 #@! TO.P,U1,14*
G04 #@! TO.N,GPIO27*
X19080000Y-24690000D03*
G04 #@! TO.P,U1,15*
G04 #@! TO.N,GND*
X16540000Y-24690000D03*
G04 #@! TO.P,U1,16*
G04 #@! TO.N,GPIO17*
X14000000Y-24690000D03*
G04 #@! TD*
G04 #@! TO.P,R5,1*
G04 #@! TO.N,K5*
X35200000Y-35920000D03*
G04 #@! TO.P,R5,2*
G04 #@! TO.N,S_BOS1*
X35200000Y-46080000D03*
G04 #@! TD*
D14*
G04 #@! TO.P,U3,1*
G04 #@! TO.N,VS*
X14000000Y-57310000D03*
D10*
G04 #@! TO.P,U3,2*
G04 #@! TO.N,K9*
X16540000Y-57310000D03*
G04 #@! TO.P,U3,3*
G04 #@! TO.N,VS*
X19080000Y-57310000D03*
G04 #@! TO.P,U3,4*
G04 #@! TO.N,K10*
X21620000Y-57310000D03*
G04 #@! TO.P,U3,5*
G04 #@! TO.N,VS*
X24160000Y-57310000D03*
G04 #@! TO.P,U3,6*
G04 #@! TO.N,K11*
X26700000Y-57310000D03*
G04 #@! TO.P,U3,7*
G04 #@! TO.N,VS*
X29240000Y-57310000D03*
G04 #@! TO.P,U3,8*
G04 #@! TO.N,K12*
X31780000Y-57310000D03*
G04 #@! TO.P,U3,9*
G04 #@! TO.N,GND*
X31780000Y-49690000D03*
G04 #@! TO.P,U3,10*
G04 #@! TO.N,GPIO16*
X29240000Y-49690000D03*
G04 #@! TO.P,U3,11*
G04 #@! TO.N,GND*
X26700000Y-49690000D03*
G04 #@! TO.P,U3,12*
G04 #@! TO.N,GPIO19*
X24160000Y-49690000D03*
G04 #@! TO.P,U3,13*
G04 #@! TO.N,GND*
X21620000Y-49690000D03*
G04 #@! TO.P,U3,14*
G04 #@! TO.N,GPIO13*
X19080000Y-49690000D03*
G04 #@! TO.P,U3,15*
G04 #@! TO.N,GND*
X16540000Y-49690000D03*
G04 #@! TO.P,U3,16*
G04 #@! TO.N,GPIO24*
X14000000Y-49690000D03*
G04 #@! TD*
D13*
G04 #@! TO.P,TP1,1*
G04 #@! TO.N,VS*
X40000000Y-81000000D03*
G04 #@! TD*
D11*
G04 #@! TO.P,J2,1*
G04 #@! TO.N,S_CHIL*
X21050000Y-6950000D03*
D12*
G04 #@! TO.P,J2,2*
G04 #@! TO.N,S_BOS1*
X23550000Y-6950000D03*
G04 #@! TO.P,J2,3*
G04 #@! TO.N,S_BOS2*
X26050000Y-6950000D03*
G04 #@! TO.P,J2,4*
G04 #@! TO.N,COM*
X28550000Y-6950000D03*
G04 #@! TD*
D10*
G04 #@! TO.P,R10,1*
G04 #@! TO.N,K10*
X39200000Y-48420000D03*
G04 #@! TO.P,R10,2*
G04 #@! TO.N,S_HPCOOL*
X39200000Y-58580000D03*
G04 #@! TD*
G04 #@! TO.P,R2,1*
G04 #@! TO.N,K2*
X39200000Y-23420000D03*
G04 #@! TO.P,R2,2*
G04 #@! TO.N,S_DHW*
X39200000Y-33580000D03*
G04 #@! TD*
G04 #@! TO.P,R11,1*
G04 #@! TO.N,K11*
X43200000Y-48420000D03*
G04 #@! TO.P,R11,2*
G04 #@! TO.N,S_DHWX*
X43200000Y-58580000D03*
G04 #@! TD*
G04 #@! TO.P,R3,1*
G04 #@! TO.N,K3*
X43200000Y-23420000D03*
G04 #@! TO.P,R3,2*
G04 #@! TO.N,S_BLR*
X43200000Y-33580000D03*
G04 #@! TD*
D11*
G04 #@! TO.P,J1,1*
G04 #@! TO.N,S_ZV*
X9350000Y-6950000D03*
D12*
G04 #@! TO.P,J1,2*
G04 #@! TO.N,S_DHW*
X11850000Y-6950000D03*
G04 #@! TO.P,J1,3*
G04 #@! TO.N,S_BLR*
X14350000Y-6950000D03*
G04 #@! TO.P,J1,4*
G04 #@! TO.N,COM*
X16850000Y-6950000D03*
G04 #@! TD*
D13*
G04 #@! TO.P,TP3,1*
G04 #@! TO.N,GND*
X46000000Y-81000000D03*
G04 #@! TD*
D10*
G04 #@! TO.P,R8,1*
G04 #@! TO.N,K8*
X47200000Y-35920000D03*
G04 #@! TO.P,R8,2*
G04 #@! TO.N,S_SCALA*
X47200000Y-46080000D03*
G04 #@! TD*
G04 #@! TO.P,R6,1*
G04 #@! TO.N,K6*
X39200000Y-35920000D03*
G04 #@! TO.P,R6,2*
G04 #@! TO.N,S_BOS2*
X39200000Y-46080000D03*
G04 #@! TD*
G04 #@! TO.P,R9,1*
G04 #@! TO.N,K9*
X35200000Y-48420000D03*
G04 #@! TO.P,R9,2*
G04 #@! TO.N,S_HPHEAT*
X35200000Y-58580000D03*
G04 #@! TD*
D14*
G04 #@! TO.P,U2,1*
G04 #@! TO.N,VS*
X14000000Y-44810000D03*
D10*
G04 #@! TO.P,U2,2*
G04 #@! TO.N,K5*
X16540000Y-44810000D03*
G04 #@! TO.P,U2,3*
G04 #@! TO.N,VS*
X19080000Y-44810000D03*
G04 #@! TO.P,U2,4*
G04 #@! TO.N,K6*
X21620000Y-44810000D03*
G04 #@! TO.P,U2,5*
G04 #@! TO.N,VS*
X24160000Y-44810000D03*
G04 #@! TO.P,U2,6*
G04 #@! TO.N,K7*
X26700000Y-44810000D03*
G04 #@! TO.P,U2,7*
G04 #@! TO.N,VS*
X29240000Y-44810000D03*
G04 #@! TO.P,U2,8*
G04 #@! TO.N,K8*
X31780000Y-44810000D03*
G04 #@! TO.P,U2,9*
G04 #@! TO.N,GND*
X31780000Y-37190000D03*
G04 #@! TO.P,U2,10*
G04 #@! TO.N,GPIO23*
X29240000Y-37190000D03*
G04 #@! TO.P,U2,11*
G04 #@! TO.N,GND*
X26700000Y-37190000D03*
G04 #@! TO.P,U2,12*
G04 #@! TO.N,GPIO12*
X24160000Y-37190000D03*
G04 #@! TO.P,U2,13*
G04 #@! TO.N,GND*
X21620000Y-37190000D03*
G04 #@! TO.P,U2,14*
G04 #@! TO.N,GPIO5*
X19080000Y-37190000D03*
G04 #@! TO.P,U2,15*
G04 #@! TO.N,GND*
X16540000Y-37190000D03*
G04 #@! TO.P,U2,16*
G04 #@! TO.N,GPIO6*
X14000000Y-37190000D03*
G04 #@! TD*
G04 #@! TO.P,R7,1*
G04 #@! TO.N,K7*
X43200000Y-35920000D03*
G04 #@! TO.P,R7,2*
G04 #@! TO.N,S_DEHUM*
X43200000Y-46080000D03*
G04 #@! TD*
G04 #@! TO.P,R1,1*
G04 #@! TO.N,K1*
X35200000Y-23420000D03*
G04 #@! TO.P,R1,2*
G04 #@! TO.N,S_ZV*
X35200000Y-33580000D03*
G04 #@! TD*
D15*
G04 #@! TO.P,J5,1*
G04 #@! TO.N,N/C*
X4770000Y-8370000D03*
D16*
G04 #@! TO.P,J5,2*
G04 #@! TO.N,+5V*
X2230000Y-8370000D03*
G04 #@! TO.P,J5,3*
G04 #@! TO.N,SDA*
X4770000Y-10910000D03*
G04 #@! TO.P,J5,4*
G04 #@! TO.N,+5V*
X2230000Y-10910000D03*
G04 #@! TO.P,J5,5*
G04 #@! TO.N,SCL*
X4770000Y-13450000D03*
G04 #@! TO.P,J5,6*
G04 #@! TO.N,GND*
X2230000Y-13450000D03*
G04 #@! TO.P,J5,7*
G04 #@! TO.N,GPIO4*
X4770000Y-15990000D03*
G04 #@! TO.P,J5,8*
G04 #@! TO.N,N/C*
X2230000Y-15990000D03*
G04 #@! TO.P,J5,9*
G04 #@! TO.N,GND*
X4770000Y-18530000D03*
G04 #@! TO.P,J5,10*
G04 #@! TO.N,N/C*
X2230000Y-18530000D03*
G04 #@! TO.P,J5,11*
G04 #@! TO.N,GPIO17*
X4770000Y-21070000D03*
G04 #@! TO.P,J5,12*
G04 #@! TO.N,GPIO18*
X2230000Y-21070000D03*
G04 #@! TO.P,J5,13*
G04 #@! TO.N,GPIO27*
X4770000Y-23610000D03*
G04 #@! TO.P,J5,14*
G04 #@! TO.N,GND*
X2230000Y-23610000D03*
G04 #@! TO.P,J5,15*
G04 #@! TO.N,GPIO22*
X4770000Y-26150000D03*
G04 #@! TO.P,J5,16*
G04 #@! TO.N,GPIO23*
X2230000Y-26150000D03*
G04 #@! TO.P,J5,17*
G04 #@! TO.N,3V3*
X4770000Y-28690000D03*
G04 #@! TO.P,J5,18*
G04 #@! TO.N,GPIO24*
X2230000Y-28690000D03*
G04 #@! TO.P,J5,19*
G04 #@! TO.N,GPIO10*
X4770000Y-31230000D03*
G04 #@! TO.P,J5,20*
G04 #@! TO.N,GND*
X2230000Y-31230000D03*
G04 #@! TO.P,J5,21*
G04 #@! TO.N,GPIO9*
X4770000Y-33770000D03*
G04 #@! TO.P,J5,22*
G04 #@! TO.N,GPIO25*
X2230000Y-33770000D03*
G04 #@! TO.P,J5,23*
G04 #@! TO.N,GPIO11*
X4770000Y-36310000D03*
G04 #@! TO.P,J5,24*
G04 #@! TO.N,GPIO8*
X2230000Y-36310000D03*
G04 #@! TO.P,J5,25*
G04 #@! TO.N,N/C*
X4770000Y-38850000D03*
G04 #@! TO.P,J5,26*
G04 #@! TO.N,GPIO7*
X2230000Y-38850000D03*
G04 #@! TO.P,J5,27*
G04 #@! TO.N,N/C*
X4770000Y-41390000D03*
G04 #@! TO.P,J5,28*
X2230000Y-41390000D03*
G04 #@! TO.P,J5,29*
G04 #@! TO.N,GPIO5*
X4770000Y-43930000D03*
G04 #@! TO.P,J5,30*
G04 #@! TO.N,GND*
X2230000Y-43930000D03*
G04 #@! TO.P,J5,31*
G04 #@! TO.N,GPIO6*
X4770000Y-46470000D03*
G04 #@! TO.P,J5,32*
G04 #@! TO.N,GPIO12*
X2230000Y-46470000D03*
G04 #@! TO.P,J5,33*
G04 #@! TO.N,GPIO13*
X4770000Y-49010000D03*
G04 #@! TO.P,J5,34*
G04 #@! TO.N,GND*
X2230000Y-49010000D03*
G04 #@! TO.P,J5,35*
G04 #@! TO.N,GPIO19*
X4770000Y-51550000D03*
G04 #@! TO.P,J5,36*
G04 #@! TO.N,GPIO16*
X2230000Y-51550000D03*
G04 #@! TO.P,J5,37*
G04 #@! TO.N,N/C*
X4770000Y-54090000D03*
G04 #@! TO.P,J5,38*
G04 #@! TO.N,GPIO20*
X2230000Y-54090000D03*
G04 #@! TO.P,J5,39*
G04 #@! TO.N,N/C*
X4770000Y-56630000D03*
G04 #@! TO.P,J5,40*
G04 #@! TO.N,GPIO21*
X2230000Y-56630000D03*
G04 #@! TD*
D17*
G04 #@! TO.N,S_HPHEAT*
X42859200Y-51948000D03*
D18*
G04 #@! TO.N,COM*
X41851600Y-72354300D03*
D17*
G04 #@! TO.N,S_HPCOOL*
X45465200Y-52359400D03*
G04 #@! TO.N,SCL*
X54338900Y-17280800D03*
G04 #@! TO.N,GPIO4*
X53127200Y-17280800D03*
D18*
G04 #@! TO.N,GND*
X33645400Y-34156500D03*
D17*
G04 #@! TO.N,SDA*
X54859300Y-16223100D03*
G04 #@! TO.N,3V3*
X53180500Y-67672400D03*
D18*
G04 #@! TO.N,VS*
X47503900Y-60140100D03*
D17*
G04 #@! TO.N,S_DHW*
X32971900Y-30457300D03*
G04 #@! TO.N,S_BLR*
X34708100Y-29301200D03*
G04 #@! TO.N,GPIO5*
X11549300Y-35001000D03*
G04 #@! TD*
G04 #@! TO.N,K4*
D19*
X31780000Y-30621600D02*
X31780000Y-32310000D01*
X42087600Y-28532400D02*
X33869200Y-28532400D01*
X33869200Y-28532400D02*
X31780000Y-30621600D01*
X47200000Y-23420000D02*
X42087600Y-28532400D01*
G04 #@! TO.N,S_HPHEAT*
X36227200Y-58580000D02*
X35200000Y-58580000D01*
X42859200Y-51948000D02*
X36227200Y-58580000D01*
G04 #@! TO.N,COM*
D20*
X51950000Y-6950000D02*
X50471400Y-8428600D01*
X30034500Y-8434500D02*
X28550000Y-6950000D01*
X41728600Y-8428600D02*
X40250000Y-6950000D01*
X18328600Y-8428600D02*
X27071400Y-8428600D01*
X38765500Y-8434500D02*
X30034500Y-8434500D01*
X40250000Y-6950000D02*
X38765500Y-8434500D01*
X27071400Y-8428600D02*
X28550000Y-6950000D01*
X50471400Y-8428600D02*
X41728600Y-8428600D01*
X43000000Y-81000000D02*
X43000000Y-73502700D01*
X16850000Y-6950000D02*
X18328600Y-8428600D01*
X43000000Y-73502700D02*
X41851600Y-72354300D01*
G04 #@! TO.N,S_HPCOOL*
D19*
X45465200Y-52359400D02*
X39244600Y-58580000D01*
X39244600Y-58580000D02*
X39200000Y-58580000D01*
G04 #@! TO.N,K12*
X44960600Y-48420000D02*
X36070600Y-57310000D01*
X47200000Y-48420000D02*
X44960600Y-48420000D01*
X36070600Y-57310000D02*
X31780000Y-57310000D01*
G04 #@! TO.N,SCL*
X7310000Y-13450000D02*
X50508100Y-13450000D01*
X4770000Y-13450000D02*
X7310000Y-13450000D01*
X50508100Y-13450000D02*
X54338900Y-17280800D01*
G04 #@! TO.N,GPIO4*
X7310000Y-15990000D02*
X51836400Y-15990000D01*
X4770000Y-15990000D02*
X7310000Y-15990000D01*
X51836400Y-15990000D02*
X53127200Y-17280800D01*
G04 #@! TO.N,GND*
D20*
X21620000Y-24690000D02*
X22925200Y-23384800D01*
X31780000Y-36021900D02*
X33645400Y-34156500D01*
X22921700Y-48388300D02*
X21620000Y-49690000D01*
X31780000Y-24690000D02*
X30478300Y-23388300D01*
X28028000Y-35862000D02*
X26700000Y-37190000D01*
X16540000Y-49690000D02*
X17876000Y-48354000D01*
X16540000Y-24690000D02*
X15236800Y-23386800D01*
X15236800Y-23386800D02*
X12166800Y-23386800D01*
X26700000Y-49690000D02*
X25398300Y-48388300D01*
X25394800Y-23384800D02*
X26700000Y-24690000D01*
X30478300Y-23388300D02*
X28001700Y-23388300D01*
X31620100Y-35862000D02*
X28028000Y-35862000D01*
X20310900Y-38499100D02*
X17849100Y-38499100D01*
X17849100Y-38499100D02*
X16540000Y-37190000D01*
X21620000Y-37190000D02*
X20310900Y-38499100D01*
X20284000Y-48354000D02*
X21620000Y-49690000D01*
X17876000Y-48354000D02*
X20284000Y-48354000D01*
X7310000Y-49010000D02*
X7310000Y-43930000D01*
X28001700Y-23388300D02*
X26700000Y-24690000D01*
X22925200Y-23384800D02*
X25394800Y-23384800D01*
X31780000Y-36021900D02*
X31620100Y-35862000D01*
X20318300Y-23388300D02*
X21620000Y-24690000D01*
X16540000Y-24690000D02*
X17841700Y-23388300D01*
X4770000Y-18530000D02*
X7310000Y-18530000D01*
X17841700Y-23388300D02*
X20318300Y-23388300D01*
X31780000Y-37190000D02*
X31780000Y-36021900D01*
X25398300Y-48388300D02*
X22921700Y-48388300D01*
X12166800Y-23386800D02*
X7310000Y-18530000D01*
G04 #@! TO.N,GPIO18*
D19*
X3464700Y-19835300D02*
X6075300Y-19835300D01*
X2230000Y-21070000D02*
X3464700Y-19835300D01*
X6075300Y-19835300D02*
X7310000Y-21070000D01*
G04 #@! TO.N,SDA*
X49546200Y-10910000D02*
X54859300Y-16223100D01*
X4770000Y-10910000D02*
X49546200Y-10910000D01*
G04 #@! TO.N,3V3*
X7310000Y-28690000D02*
X4770000Y-28690000D01*
X996000Y-60313400D02*
X8355000Y-67672400D01*
X4770000Y-28690000D02*
X3569400Y-27489400D01*
X8355000Y-67672400D02*
X53180500Y-67672400D01*
X996000Y-28256300D02*
X996000Y-60313400D01*
X3569400Y-27489400D02*
X1762900Y-27489400D01*
X1762900Y-27489400D02*
X996000Y-28256300D01*
G04 #@! TO.N,GPIO10*
X4770000Y-31230000D02*
X7310000Y-31230000D01*
G04 #@! TO.N,GPIO9*
X4770000Y-33770000D02*
X7310000Y-33770000D01*
G04 #@! TO.N,GPIO11*
X4770000Y-36310000D02*
X7310000Y-36310000D01*
G04 #@! TO.N,GPIO7*
X6119400Y-37659400D02*
X7310000Y-38850000D01*
X2230000Y-38850000D02*
X3420600Y-37659400D01*
X3420600Y-37659400D02*
X6119400Y-37659400D01*
G04 #@! TO.N,GPIO21*
X3420600Y-55439400D02*
X6119400Y-55439400D01*
X2230000Y-56630000D02*
X3420600Y-55439400D01*
X6119400Y-55439400D02*
X7310000Y-56630000D01*
G04 #@! TO.N,VS*
D20*
X32070100Y-60140100D02*
X47503900Y-60140100D01*
X27902700Y-33647300D02*
X25497300Y-33647300D01*
X22858300Y-46111700D02*
X24160000Y-44810000D01*
X29240000Y-32310000D02*
X27902700Y-33647300D01*
X25497300Y-33647300D02*
X24160000Y-32310000D01*
X29240000Y-57310000D02*
X32070100Y-60140100D01*
X19080000Y-44810000D02*
X20381700Y-46111700D01*
X20381700Y-46111700D02*
X22858300Y-46111700D01*
G04 #@! TO.N,K1*
D19*
X27201900Y-26409900D02*
X32210100Y-26409900D01*
X32210100Y-26409900D02*
X35200000Y-23420000D01*
X16540000Y-32310000D02*
X20435900Y-28414100D01*
X25197700Y-28414100D02*
X27201900Y-26409900D01*
X20435900Y-28414100D02*
X25197700Y-28414100D01*
G04 #@! TO.N,K2*
X21620000Y-32310000D02*
X22258700Y-32310000D01*
X22258700Y-32310000D02*
X27482300Y-27086400D01*
X27482300Y-27086400D02*
X35533600Y-27086400D01*
X35533600Y-27086400D02*
X39200000Y-23420000D01*
G04 #@! TO.N,K3*
X26700000Y-32310000D02*
X31039900Y-27970100D01*
X31039900Y-27970100D02*
X38649900Y-27970100D01*
X38649900Y-27970100D02*
X43200000Y-23420000D01*
G04 #@! TO.N,GPIO22*
X5953500Y-27333500D02*
X21516500Y-27333500D01*
X21516500Y-27333500D02*
X24160000Y-24690000D01*
X4770000Y-26150000D02*
X5953500Y-27333500D01*
G04 #@! TO.N,GPIO27*
X11238600Y-24915000D02*
X12196100Y-25872500D01*
X6075000Y-24915000D02*
X11238600Y-24915000D01*
X4770000Y-23610000D02*
X6075000Y-24915000D01*
X17897500Y-25872500D02*
X19080000Y-24690000D01*
X12196100Y-25872500D02*
X17897500Y-25872500D01*
G04 #@! TO.N,GPIO17*
X9867800Y-22340000D02*
X6040000Y-22340000D01*
X14000000Y-24690000D02*
X12217800Y-24690000D01*
X12217800Y-24690000D02*
X9867800Y-22340000D01*
X6040000Y-22340000D02*
X4770000Y-21070000D01*
G04 #@! TO.N,K5*
X21539800Y-39810200D02*
X26301600Y-39810200D01*
X26301600Y-39810200D02*
X26638100Y-39473700D01*
X16540000Y-44810000D02*
X21539800Y-39810200D01*
X31646300Y-39473700D02*
X35200000Y-35920000D01*
X26638100Y-39473700D02*
X31646300Y-39473700D01*
G04 #@! TO.N,K9*
X16540000Y-57310000D02*
X20400200Y-53449800D01*
X31982200Y-51637800D02*
X35200000Y-48420000D01*
X20400200Y-53449800D02*
X29682200Y-53449800D01*
X31494200Y-51637800D02*
X31982200Y-51637800D01*
X29682200Y-53449800D02*
X31494200Y-51637800D01*
G04 #@! TO.N,K10*
X35080300Y-52539700D02*
X39200000Y-48420000D01*
X24976800Y-53953200D02*
X29817600Y-53953200D01*
X21620000Y-57310000D02*
X24976800Y-53953200D01*
X31231100Y-52539700D02*
X35080300Y-52539700D01*
X29817600Y-53953200D02*
X31231100Y-52539700D01*
G04 #@! TO.N,K11*
X26700000Y-57310000D02*
X27099600Y-57310000D01*
X38178500Y-53441500D02*
X43200000Y-48420000D01*
X27099600Y-57310000D02*
X30968100Y-53441500D01*
X30968100Y-53441500D02*
X38178500Y-53441500D01*
G04 #@! TO.N,GPIO16*
X3410600Y-52730600D02*
X2230000Y-51550000D01*
X29240000Y-49690000D02*
X26199400Y-52730600D01*
X26199400Y-52730600D02*
X3410600Y-52730600D01*
G04 #@! TO.N,GPIO19*
X4952000Y-51732000D02*
X22118000Y-51732000D01*
X22118000Y-51732000D02*
X24160000Y-49690000D01*
X4770000Y-51550000D02*
X4952000Y-51732000D01*
G04 #@! TO.N,GPIO13*
X7035100Y-51275100D02*
X4770000Y-49010000D01*
X17494900Y-51275100D02*
X7035100Y-51275100D01*
X19080000Y-49690000D02*
X17494900Y-51275100D01*
G04 #@! TO.N,GPIO24*
X3500000Y-29959999D02*
X12300000Y-29959999D01*
X12300000Y-29959999D02*
X12300000Y-49690000D01*
X12300000Y-49690000D02*
X14000000Y-49690000D01*
X2230000Y-28689999D02*
X3500000Y-29959999D01*
G04 #@! TO.N,S_DHW*
X32971900Y-30457300D02*
X36077300Y-30457300D01*
X36077300Y-30457300D02*
X39200000Y-33580000D01*
G04 #@! TO.N,S_BLR*
X38921200Y-29301200D02*
X43200000Y-33580000D01*
X34708100Y-29301200D02*
X38921200Y-29301200D01*
G04 #@! TO.N,K8*
X38310000Y-44810000D02*
X31780000Y-44810000D01*
X47200000Y-35920000D02*
X38310000Y-44810000D01*
G04 #@! TO.N,K6*
X35084800Y-40035200D02*
X39200000Y-35920000D01*
X22258700Y-44810000D02*
X27033500Y-40035200D01*
X21620000Y-44810000D02*
X22258700Y-44810000D01*
X27033500Y-40035200D02*
X35084800Y-40035200D01*
G04 #@! TO.N,K7*
X36515500Y-42604500D02*
X43200000Y-35920000D01*
X28905500Y-42604500D02*
X36515500Y-42604500D01*
X26700000Y-44810000D02*
X28905500Y-42604500D01*
G04 #@! TO.N,GPIO12*
X22215200Y-39134800D02*
X17630500Y-39134800D01*
X12787000Y-43978300D02*
X12787000Y-46581500D01*
X3500000Y-47740000D02*
X2230000Y-46470000D01*
X15166500Y-50129100D02*
X14478800Y-50816800D01*
X6133300Y-49498000D02*
X6133300Y-48672400D01*
X24160000Y-37190000D02*
X22215200Y-39134800D01*
X14478800Y-50816800D02*
X7452100Y-50816800D01*
X17630500Y-39134800D02*
X12787000Y-43978300D01*
X6133300Y-48672400D02*
X5200900Y-47740000D01*
X12787000Y-46581500D02*
X15166500Y-48961000D01*
X5200900Y-47740000D02*
X3500000Y-47740000D01*
X15166500Y-48961000D02*
X15166500Y-50129100D01*
X7452100Y-50816800D02*
X6133300Y-49498000D01*
G04 #@! TO.N,GPIO5*
X7670200Y-40120000D02*
X11549300Y-36240900D01*
X6075400Y-42624600D02*
X6075400Y-40949900D01*
X6075400Y-40949900D02*
X6905300Y-40120000D01*
X6905300Y-40120000D02*
X7670200Y-40120000D01*
X4770000Y-43930000D02*
X6075400Y-42624600D01*
X11549300Y-36240900D02*
X11549300Y-35001000D01*
G04 #@! TD*
M02*
