%TF.GenerationSoftware,KiCad,Pcbnew,10.0.6*%
%TF.CreationDate,2026-09-12T12:31:32-04:00*%
%TF.ProjectId,int-board,696e742d-626f-4617-9264-2e6b69636164,rev?*%
%TF.SameCoordinates,Original*%
%TF.FileFunction,Copper,L1,Top*%
%TF.FilePolarity,Positive*%
%FSLAX46Y46*%
G04 Gerber Fmt 4.6, Leading zero omitted, Abs format (unit mm)*
G04 Created by KiCad (PCBNEW 10.0.6) date 2026-09-12 12:31:32*
%MOMM*%
%LPD*%
G01*
G04 APERTURE LIST*
G04 Aperture macros list*
%AMRoundRect*
0 Rectangle with rounded corners*
0 $1 Rounding radius*
0 $2 $3 $4 $5 $6 $7 $8 $9 X,Y pos of 4 corners*
0 Add a 4 corners polygon primitive as box body*
4,1,4,$2,$3,$4,$5,$6,$7,$8,$9,$2,$3,0*
0 Add four circle primitives for the rounded corners*
1,1,$1+$1,$2,$3*
1,1,$1+$1,$4,$5*
1,1,$1+$1,$6,$7*
1,1,$1+$1,$8,$9*
0 Add four rect primitives between the rounded corners*
20,1,$1+$1,$2,$3,$4,$5,0*
20,1,$1+$1,$4,$5,$6,$7,0*
20,1,$1+$1,$6,$7,$8,$9,0*
20,1,$1+$1,$8,$9,$2,$3,0*%
G04 Aperture macros list end*
%TA.AperFunction,ComponentPad*%
%ADD10C,1.600000*%
%TD*%
%TA.AperFunction,ComponentPad*%
%ADD11RoundRect,0.400000X-0.400000X-0.400000X0.400000X-0.400000X0.400000X0.400000X-0.400000X0.400000X0*%
%TD*%
%TA.AperFunction,ComponentPad*%
%ADD12RoundRect,0.250000X0.550000X-0.550000X0.550000X0.550000X-0.550000X0.550000X-0.550000X-0.550000X0*%
%TD*%
%TA.AperFunction,ComponentPad*%
%ADD13RoundRect,0.487500X-0.487500X-0.487500X0.487500X-0.487500X0.487500X0.487500X-0.487500X0.487500X0*%
%TD*%
%TA.AperFunction,ComponentPad*%
%ADD14C,1.950000*%
%TD*%
%TA.AperFunction,ComponentPad*%
%ADD15RoundRect,0.249999X-0.850001X-0.850001X0.850001X-0.850001X0.850001X0.850001X-0.850001X0.850001X0*%
%TD*%
%TA.AperFunction,ComponentPad*%
%ADD16C,2.200000*%
%TD*%
%TA.AperFunction,ComponentPad*%
%ADD17C,1.800000*%
%TD*%
%TA.AperFunction,ComponentPad*%
%ADD18RoundRect,0.450000X0.450000X0.450000X-0.450000X0.450000X-0.450000X-0.450000X0.450000X-0.450000X0*%
%TD*%
%TA.AperFunction,ComponentPad*%
%ADD19RoundRect,0.250001X-0.949999X-0.949999X0.949999X-0.949999X0.949999X0.949999X-0.949999X0.949999X0*%
%TD*%
%TA.AperFunction,ComponentPad*%
%ADD20C,2.400000*%
%TD*%
%TA.AperFunction,ComponentPad*%
%ADD21RoundRect,0.450000X-0.450000X-0.450000X0.450000X-0.450000X0.450000X0.450000X-0.450000X0.450000X0*%
%TD*%
%TA.AperFunction,ComponentPad*%
%ADD22RoundRect,0.487500X-0.487500X0.487500X-0.487500X-0.487500X0.487500X-0.487500X0.487500X0.487500X0*%
%TD*%
%TA.AperFunction,ComponentPad*%
%ADD23RoundRect,0.425000X-0.425000X-0.425000X0.425000X-0.425000X0.425000X0.425000X-0.425000X0.425000X0*%
%TD*%
%TA.AperFunction,ComponentPad*%
%ADD24C,1.700000*%
%TD*%
%TA.AperFunction,ViaPad*%
%ADD25C,0.800000*%
%TD*%
%TA.AperFunction,ViaPad*%
%ADD26C,1.000000*%
%TD*%
%TA.AperFunction,Conductor*%
%ADD27C,0.250000*%
%TD*%
%TA.AperFunction,Conductor*%
%ADD28C,0.500000*%
%TD*%
%TA.AperFunction,Conductor*%
%ADD29C,0.400000*%
%TD*%
%ADD30C,0.350000*%
G04 APERTURE END LIST*
D10*
%TO.P,R7,1*%
%TO.N,K7*%
X40000000Y-35920000D03*
%TO.P,R7,2*%
%TO.N,S_DEHUM*%
X40000000Y-46080000D03*
%TD*%
%TO.P,R1,1*%
%TO.N,K1*%
X32000000Y-23420000D03*
%TO.P,R1,2*%
%TO.N,S_ZV*%
X32000000Y-33580000D03*
%TD*%
D11*
%TO.P,J8,1*%
%TO.N,S_SP-C*%
X57600000Y-75000000D03*
D10*
%TO.P,J8,2*%
%TO.N,S_SP-E*%
X57600000Y-77540000D03*
%TO.P,J8,3*%
%TO.N,COM*%
X57600000Y-80080000D03*
%TD*%
%TO.P,PF1,1*%
%TO.N,N/C*%
X37000000Y-74500000D03*
%TO.P,PF1,2*%
X39540000Y-74500000D03*
%TO.P,PF1,3*%
X42080000Y-74500000D03*
%TO.P,PF1,4*%
X44620000Y-74500000D03*
%TO.P,PF1,5*%
X47160000Y-74500000D03*
%TO.P,PF1,6*%
X49700000Y-74500000D03*
%TO.P,PF1,7*%
X52240000Y-74500000D03*
%TO.P,PF1,8*%
X54780000Y-74500000D03*
%TO.P,PF1,9*%
X37000000Y-77040000D03*
%TO.P,PF1,10*%
X39540000Y-77040000D03*
%TO.P,PF1,11*%
X42080000Y-77040000D03*
%TO.P,PF1,12*%
X44620000Y-77040000D03*
%TO.P,PF1,13*%
X47160000Y-77040000D03*
%TO.P,PF1,14*%
X49700000Y-77040000D03*
%TO.P,PF1,15*%
X52240000Y-77040000D03*
%TO.P,PF1,16*%
X54780000Y-77040000D03*
%TO.P,PF1,17*%
X37000000Y-79580000D03*
%TO.P,PF1,18*%
X39540000Y-79580000D03*
%TO.P,PF1,19*%
X42080000Y-79580000D03*
%TO.P,PF1,20*%
X44620000Y-79580000D03*
%TO.P,PF1,21*%
X47160000Y-79580000D03*
%TO.P,PF1,22*%
X49700000Y-79580000D03*
%TO.P,PF1,23*%
X52240000Y-79580000D03*
%TO.P,PF1,24*%
X54780000Y-79580000D03*
%TO.P,PF1,25*%
X37000000Y-82120000D03*
%TO.P,PF1,26*%
X39540000Y-82120000D03*
%TO.P,PF1,27*%
X42080000Y-82120000D03*
%TO.P,PF1,28*%
X44620000Y-82120000D03*
%TO.P,PF1,29*%
X47160000Y-82120000D03*
%TO.P,PF1,30*%
X49700000Y-82120000D03*
%TO.P,PF1,31*%
X52240000Y-82120000D03*
%TO.P,PF1,32*%
X54780000Y-82120000D03*
%TD*%
D12*
%TO.P,U1,1*%
%TO.N,VS*%
X10500000Y-32310000D03*
D10*
%TO.P,U1,2*%
%TO.N,K1*%
X13040000Y-32310000D03*
%TO.P,U1,3*%
%TO.N,VS*%
X15580000Y-32310000D03*
%TO.P,U1,4*%
%TO.N,K2*%
X18120000Y-32310000D03*
%TO.P,U1,5*%
%TO.N,VS*%
X20660000Y-32310000D03*
%TO.P,U1,6*%
%TO.N,K3*%
X23200000Y-32310000D03*
%TO.P,U1,7*%
%TO.N,VS*%
X25740000Y-32310000D03*
%TO.P,U1,8*%
%TO.N,K4*%
X28280000Y-32310000D03*
%TO.P,U1,9*%
%TO.N,GND*%
X28280000Y-24690000D03*
%TO.P,U1,10*%
%TO.N,GPIO25*%
X25740000Y-24690000D03*
%TO.P,U1,11*%
%TO.N,GND*%
X23200000Y-24690000D03*
%TO.P,U1,12*%
%TO.N,GPIO22*%
X20660000Y-24690000D03*
%TO.P,U1,13*%
%TO.N,GND*%
X18120000Y-24690000D03*
%TO.P,U1,14*%
%TO.N,GPIO27*%
X15580000Y-24690000D03*
%TO.P,U1,15*%
%TO.N,GND*%
X13040000Y-24690000D03*
%TO.P,U1,16*%
%TO.N,GPIO17*%
X10500000Y-24690000D03*
%TD*%
D13*
%TO.P,J1,1*%
%TO.N,S_ZV*%
X9350000Y-6950000D03*
D14*
%TO.P,J1,2*%
%TO.N,S_DHW*%
X11850000Y-6950000D03*
%TO.P,J1,3*%
%TO.N,S_BLR*%
X14350000Y-6950000D03*
%TO.P,J1,4*%
%TO.N,COM*%
X16850000Y-6950000D03*
%TD*%
D13*
%TO.P,J3,1*%
%TO.N,S_DEHUM*%
X32750000Y-6950000D03*
D14*
%TO.P,J3,2*%
%TO.N,S_SCALA*%
X35250000Y-6950000D03*
%TO.P,J3,3*%
%TO.N,S_HPHEAT*%
X37750000Y-6950000D03*
%TO.P,J3,4*%
%TO.N,COM*%
X40250000Y-6950000D03*
%TD*%
D15*
%TO.P,D2,1*%
%TO.N,VS*%
X32500000Y-70200000D03*
D16*
%TO.P,D2,2*%
%TO.N,ACC*%
X42660000Y-70200000D03*
%TD*%
D10*
%TO.P,R5,1*%
%TO.N,K5*%
X32000000Y-35920000D03*
%TO.P,R5,2*%
%TO.N,S_BOS1*%
X32000000Y-46080000D03*
%TD*%
D15*
%TO.P,D3,1*%
%TO.N,ACF*%
X45500000Y-67000000D03*
D16*
%TO.P,D3,2*%
%TO.N,COM*%
X55660000Y-67000000D03*
%TD*%
D17*
%TO.P,TP2,1*%
%TO.N,COM*%
X20500000Y-82500000D03*
%TD*%
D18*
%TO.P,RV1,1*%
%TO.N,ACF*%
X52500000Y-10500000D03*
D17*
%TO.P,RV1,2*%
%TO.N,ACC*%
X47500000Y-10500000D03*
%TD*%
D15*
%TO.P,D4,1*%
%TO.N,ACC*%
X45500000Y-70200000D03*
D16*
%TO.P,D4,2*%
%TO.N,COM*%
X55660000Y-70200000D03*
%TD*%
D17*
%TO.P,TP1,1*%
%TO.N,VS*%
X17500000Y-82500000D03*
%TD*%
%TO.P,TP3,1*%
%TO.N,GND*%
X23500000Y-82500000D03*
%TD*%
D13*
%TO.P,J4,1*%
%TO.N,ACR*%
X44450000Y-6950000D03*
D14*
%TO.P,J4,2*%
%TO.N,ACC*%
X46950000Y-6950000D03*
%TO.P,J4,3*%
%TO.N,S_SP-D*%
X49450000Y-6950000D03*
%TO.P,J4,4*%
%TO.N,COM*%
X51950000Y-6950000D03*
%TD*%
D10*
%TO.P,R6,1*%
%TO.N,K6*%
X36000000Y-35920000D03*
%TO.P,R6,2*%
%TO.N,S_BOS2*%
X36000000Y-46080000D03*
%TD*%
%TO.P,R10,1*%
%TO.N,K10*%
X36000000Y-48420000D03*
%TO.P,R10,2*%
%TO.N,S_SP-D*%
X36000000Y-58580000D03*
%TD*%
D19*
%TO.P,C1,1*%
%TO.N,VS*%
X8500000Y-75500000D03*
D20*
%TO.P,C1,2*%
%TO.N,COM*%
X33500000Y-75500000D03*
%TD*%
D21*
%TO.P,F1,1*%
%TO.N,ACR*%
X52460000Y-27500000D03*
D17*
%TO.P,F1,2*%
%TO.N,ACF*%
X57540000Y-27500000D03*
%TD*%
D15*
%TO.P,D1,1*%
%TO.N,VS*%
X32500000Y-67000000D03*
D16*
%TO.P,D1,2*%
%TO.N,ACF*%
X42660000Y-67000000D03*
%TD*%
D10*
%TO.P,R3,1*%
%TO.N,K3*%
X40000000Y-23420000D03*
%TO.P,R3,2*%
%TO.N,S_BLR*%
X40000000Y-33580000D03*
%TD*%
D22*
%TO.P,J6,1*%
%TO.N,3V3*%
X52700000Y-33000000D03*
D14*
%TO.P,J6,2*%
%TO.N,SDA*%
X52700000Y-35500000D03*
%TO.P,J6,3*%
%TO.N,SCL*%
X52700000Y-38000000D03*
%TO.P,J6,4*%
%TO.N,GPIO4*%
X52700000Y-40500000D03*
%TO.P,J6,5*%
%TO.N,GND*%
X52700000Y-43000000D03*
%TD*%
D10*
%TO.P,R11,1*%
%TO.N,K11*%
X40000000Y-48420000D03*
%TO.P,R11,2*%
%TO.N,S_SP-C*%
X40000000Y-58580000D03*
%TD*%
D22*
%TO.P,J7,1*%
%TO.N,VS*%
X52700000Y-49750000D03*
D14*
%TO.P,J7,2*%
%TO.N,COM*%
X52700000Y-52250000D03*
%TO.P,J7,3*%
%TO.N,+5V*%
X52700000Y-54750000D03*
%TO.P,J7,4*%
%TO.N,GND*%
X52700000Y-57250000D03*
%TD*%
D10*
%TO.P,R4,1*%
%TO.N,K4*%
X44000000Y-23420000D03*
%TO.P,R4,2*%
%TO.N,S_CHIL*%
X44000000Y-33580000D03*
%TD*%
%TO.P,R9,1*%
%TO.N,K9*%
X32000000Y-48420000D03*
%TO.P,R9,2*%
%TO.N,S_HPHEAT*%
X32000000Y-58580000D03*
%TD*%
%TO.P,R12,1*%
%TO.N,K12*%
X44000000Y-48420000D03*
%TO.P,R12,2*%
%TO.N,S_SP-E*%
X44000000Y-58580000D03*
%TD*%
%TO.P,R2,1*%
%TO.N,K2*%
X36000000Y-23420000D03*
%TO.P,R2,2*%
%TO.N,S_DHW*%
X36000000Y-33580000D03*
%TD*%
%TO.P,J9,3*%
%TO.N,SCL*%
X7310000Y-13450000D03*
%TO.P,J9,4*%
%TO.N,GPIO4*%
X7310000Y-15990000D03*
%TO.P,J9,5*%
%TO.N,GND*%
X7310000Y-18530000D03*
%TO.P,J9,6*%
%TO.N,GPIO18*%
X7310000Y-21070000D03*
%TO.P,J9,7*%
%TO.N,SDA*%
X7310000Y-23610000D03*
%TO.P,J9,8*%
%TO.N,+5V*%
X7310000Y-26150000D03*
%TO.P,J9,9*%
%TO.N,3V3*%
X7310000Y-28690000D03*
%TO.P,J9,10*%
%TO.N,GPIO10*%
X7310000Y-31230000D03*
%TO.P,J9,11*%
%TO.N,GPIO9*%
X7310000Y-33770000D03*
%TO.P,J9,12*%
%TO.N,GPIO11*%
X7310000Y-36310000D03*
%TO.P,J9,13*%
%TO.N,GPIO7*%
X7310000Y-38850000D03*
%TO.P,J9,14*%
%TO.N,GPIO8*%
X7310000Y-41390000D03*
%TO.P,J9,15*%
%TO.N,GND*%
X7310000Y-43930000D03*
%TO.P,J9,17*%
X7310000Y-49010000D03*
%TO.P,J9,19*%
%TO.N,GPIO20*%
X7310000Y-54090000D03*
%TO.P,J9,20*%
%TO.N,GPIO21*%
X7310000Y-56630000D03*
%TD*%
D13*
%TO.P,J2,1*%
%TO.N,S_CHIL*%
X21050000Y-6950000D03*
D14*
%TO.P,J2,2*%
%TO.N,S_BOS1*%
X23550000Y-6950000D03*
%TO.P,J2,3*%
%TO.N,S_BOS2*%
X26050000Y-6950000D03*
%TO.P,J2,4*%
%TO.N,COM*%
X28550000Y-6950000D03*
%TD*%
D12*
%TO.P,U2,1*%
%TO.N,VS*%
X10500000Y-44810000D03*
D10*
%TO.P,U2,2*%
%TO.N,K5*%
X13040000Y-44810000D03*
%TO.P,U2,3*%
%TO.N,VS*%
X15580000Y-44810000D03*
%TO.P,U2,4*%
%TO.N,K6*%
X18120000Y-44810000D03*
%TO.P,U2,5*%
%TO.N,VS*%
X20660000Y-44810000D03*
%TO.P,U2,6*%
%TO.N,K7*%
X23200000Y-44810000D03*
%TO.P,U2,7*%
%TO.N,VS*%
X25740000Y-44810000D03*
%TO.P,U2,8*%
%TO.N,K8*%
X28280000Y-44810000D03*
%TO.P,U2,9*%
%TO.N,GND*%
X28280000Y-37190000D03*
%TO.P,U2,10*%
%TO.N,GPIO23*%
X25740000Y-37190000D03*
%TO.P,U2,11*%
%TO.N,GND*%
X23200000Y-37190000D03*
%TO.P,U2,12*%
%TO.N,GPIO12*%
X20660000Y-37190000D03*
%TO.P,U2,13*%
%TO.N,GND*%
X18120000Y-37190000D03*
%TO.P,U2,14*%
%TO.N,GPIO5*%
X15580000Y-37190000D03*
%TO.P,U2,15*%
%TO.N,GND*%
X13040000Y-37190000D03*
%TO.P,U2,16*%
%TO.N,GPIO6*%
X10500000Y-37190000D03*
%TD*%
%TO.P,R8,1*%
%TO.N,K8*%
X44000000Y-35920000D03*
%TO.P,R8,2*%
%TO.N,S_SCALA*%
X44000000Y-46080000D03*
%TD*%
D12*
%TO.P,U3,1*%
%TO.N,VS*%
X10500000Y-57310000D03*
D10*
%TO.P,U3,2*%
%TO.N,K9*%
X13040000Y-57310000D03*
%TO.P,U3,3*%
%TO.N,VS*%
X15580000Y-57310000D03*
%TO.P,U3,4*%
%TO.N,K10*%
X18120000Y-57310000D03*
%TO.P,U3,5*%
%TO.N,VS*%
X20660000Y-57310000D03*
%TO.P,U3,6*%
%TO.N,K11*%
X23200000Y-57310000D03*
%TO.P,U3,7*%
%TO.N,VS*%
X25740000Y-57310000D03*
%TO.P,U3,8*%
%TO.N,K12*%
X28280000Y-57310000D03*
%TO.P,U3,9*%
%TO.N,GND*%
X28280000Y-49690000D03*
%TO.P,U3,10*%
%TO.N,GPIO16*%
X25740000Y-49690000D03*
%TO.P,U3,11*%
%TO.N,GND*%
X23200000Y-49690000D03*
%TO.P,U3,12*%
%TO.N,GPIO13*%
X20660000Y-49690000D03*
%TO.P,U3,13*%
%TO.N,GND*%
X18120000Y-49690000D03*
%TO.P,U3,14*%
%TO.N,GPIO19*%
X15580000Y-49690000D03*
%TO.P,U3,15*%
%TO.N,GND*%
X13040000Y-49690000D03*
%TO.P,U3,16*%
%TO.N,GPIO24*%
X10500000Y-49690000D03*
%TD*%
D23*
%TO.P,J5,1*%
%TO.N,N/C*%
X4770000Y-8370000D03*
D24*
%TO.P,J5,2*%
%TO.N,+5V*%
X2230000Y-8370000D03*
%TO.P,J5,3*%
%TO.N,SDA*%
X4770000Y-10910000D03*
%TO.P,J5,4*%
%TO.N,+5V*%
X2230000Y-10910000D03*
%TO.P,J5,5*%
%TO.N,SCL*%
X4770000Y-13450000D03*
%TO.P,J5,6*%
%TO.N,GND*%
X2230000Y-13450000D03*
%TO.P,J5,7*%
%TO.N,GPIO4*%
X4770000Y-15990000D03*
%TO.P,J5,8*%
%TO.N,N/C*%
X2230000Y-15990000D03*
%TO.P,J5,9*%
%TO.N,GND*%
X4770000Y-18530000D03*
%TO.P,J5,10*%
%TO.N,N/C*%
X2230000Y-18530000D03*
%TO.P,J5,11*%
%TO.N,GPIO17*%
X4770000Y-21070000D03*
%TO.P,J5,12*%
%TO.N,GPIO18*%
X2230000Y-21070000D03*
%TO.P,J5,13*%
%TO.N,GPIO27*%
X4770000Y-23610000D03*
%TO.P,J5,14*%
%TO.N,GND*%
X2230000Y-23610000D03*
%TO.P,J5,15*%
%TO.N,GPIO22*%
X4770000Y-26150000D03*
%TO.P,J5,16*%
%TO.N,GPIO23*%
X2230000Y-26150000D03*
%TO.P,J5,17*%
%TO.N,3V3*%
X4770000Y-28690000D03*
%TO.P,J5,18*%
%TO.N,GPIO24*%
X2230000Y-28690000D03*
%TO.P,J5,19*%
%TO.N,GPIO10*%
X4770000Y-31230000D03*
%TO.P,J5,20*%
%TO.N,GND*%
X2230000Y-31230000D03*
%TO.P,J5,21*%
%TO.N,GPIO9*%
X4770000Y-33770000D03*
%TO.P,J5,22*%
%TO.N,GPIO25*%
X2230000Y-33770000D03*
%TO.P,J5,23*%
%TO.N,GPIO11*%
X4770000Y-36310000D03*
%TO.P,J5,24*%
%TO.N,GPIO8*%
X2230000Y-36310000D03*
%TO.P,J5,25*%
%TO.N,N/C*%
X4770000Y-38850000D03*
%TO.P,J5,26*%
%TO.N,GPIO7*%
X2230000Y-38850000D03*
%TO.P,J5,27*%
%TO.N,N/C*%
X4770000Y-41390000D03*
%TO.P,J5,28*%
X2230000Y-41390000D03*
%TO.P,J5,29*%
%TO.N,GPIO5*%
X4770000Y-43930000D03*
%TO.P,J5,30*%
%TO.N,GND*%
X2230000Y-43930000D03*
%TO.P,J5,31*%
%TO.N,GPIO6*%
X4770000Y-46470000D03*
%TO.P,J5,32*%
%TO.N,GPIO12*%
X2230000Y-46470000D03*
%TO.P,J5,33*%
%TO.N,GPIO13*%
X4770000Y-49010000D03*
%TO.P,J5,34*%
%TO.N,GND*%
X2230000Y-49010000D03*
%TO.P,J5,35*%
%TO.N,GPIO19*%
X4770000Y-51550000D03*
%TO.P,J5,36*%
%TO.N,GPIO16*%
X2230000Y-51550000D03*
%TO.P,J5,37*%
%TO.N,N/C*%
X4770000Y-54090000D03*
%TO.P,J5,38*%
%TO.N,GPIO20*%
X2230000Y-54090000D03*
%TO.P,J5,39*%
%TO.N,N/C*%
X4770000Y-56630000D03*
%TO.P,J5,40*%
%TO.N,GPIO21*%
X2230000Y-56630000D03*
%TD*%
D25*
%TO.N,S_ZV*%
X27147800Y-30153800D03*
D26*
%TO.N,VS*%
X48066800Y-50905000D03*
%TO.N,GND*%
X41514300Y-51643100D03*
X29600200Y-53469400D03*
D25*
%TO.N,S_BLR*%
X30343000Y-37105500D03*
%TO.N,S_SCALA*%
X37002200Y-43954500D03*
D26*
%TO.N,ACC*%
X39593600Y-14778300D03*
%TO.N,ACF*%
X54271600Y-56000000D03*
D25*
%TO.N,3V3*%
X48222700Y-29600000D03*
%TO.N,SDA*%
X46425600Y-17494600D03*
%TO.N,SCL*%
X44821500Y-17503900D03*
%TO.N,GPIO4*%
X43292000Y-17485700D03*
D26*
%TO.N,+5V*%
X53961400Y-16880600D03*
D25*
%TO.N,S_CHIL*%
X42810700Y-7336200D03*
%TO.N,GPIO6*%
X10829000Y-41718500D03*
%TO.N,GPIO24*%
X9903400Y-34348300D03*
%TD*%
%TO.N,S_DEHUM*%
D27*
X34135300Y-5564700D02*
X40793200Y-5564700D01*
X41601700Y-6373200D02*
X41601700Y-44478300D01*
X40793200Y-5564700D02*
X41601700Y-6373200D01*
X41601700Y-44478300D02*
X40000000Y-46080000D01*
X32750000Y-6950000D02*
X34135300Y-5564700D01*
%TO.N,S_ZV*%
X9350000Y-6950000D02*
X19425400Y-17025400D01*
X23363500Y-28998900D02*
X25992900Y-28998900D01*
X19425400Y-17025400D02*
X19425400Y-25060800D01*
X25992900Y-28998900D02*
X27147800Y-30153800D01*
X19425400Y-25060800D02*
X23363500Y-28998900D01*
%TO.N,S_SP-C*%
X45979500Y-63217800D02*
X45979500Y-58960500D01*
X57600000Y-75000000D02*
X57600000Y-74838300D01*
X44446500Y-57427500D02*
X41152500Y-57427500D01*
X45979500Y-58960500D02*
X44446500Y-57427500D01*
X57600000Y-74838300D02*
X45979500Y-63217800D01*
X41152500Y-57427500D02*
X40000000Y-58580000D01*
%TO.N,S_SP-E*%
X56186700Y-74223400D02*
X56186700Y-76126700D01*
X56186700Y-76126700D02*
X57600000Y-77540000D01*
X44000000Y-62036700D02*
X56186700Y-74223400D01*
X44000000Y-58580000D02*
X44000000Y-62036700D01*
%TO.N,COM*%
D28*
X54992300Y-49957700D02*
X52700000Y-52250000D01*
X55660000Y-67000000D02*
X55660000Y-55210000D01*
X55660000Y-70200000D02*
X55660000Y-67000000D01*
X51076600Y-7823400D02*
X51076600Y-11348500D01*
X55660000Y-55210000D02*
X52700000Y-52250000D01*
X54992300Y-15264200D02*
X54992300Y-49957700D01*
X51950000Y-6950000D02*
X51076600Y-7823400D01*
X51076600Y-11348500D02*
X54992300Y-15264200D01*
%TO.N,VS*%
X21961700Y-56008300D02*
X20660000Y-57310000D01*
X11803400Y-31006600D02*
X14276600Y-31006600D01*
X10500000Y-32310000D02*
X11803400Y-31006600D01*
X11842500Y-55967500D02*
X10500000Y-57310000D01*
X8500000Y-75500000D02*
X8500000Y-59310000D01*
X24438300Y-56008300D02*
X21961700Y-56008300D01*
X25740000Y-57310000D02*
X24438300Y-56008300D01*
X14276600Y-31006600D02*
X15580000Y-32310000D01*
X9001700Y-33808300D02*
X10500000Y-32310000D01*
X30698300Y-65198300D02*
X30698300Y-49768300D01*
X52700000Y-49750000D02*
X49221800Y-49750000D01*
X32500000Y-67000000D02*
X30698300Y-65198300D01*
X49221800Y-49750000D02*
X48066800Y-50905000D01*
X30698300Y-49768300D02*
X25740000Y-44810000D01*
X10500000Y-44810000D02*
X9001700Y-43311700D01*
X14237500Y-55967500D02*
X11842500Y-55967500D01*
X32500000Y-67000000D02*
X32500000Y-70200000D01*
X8500000Y-59310000D02*
X10500000Y-57310000D01*
X9001700Y-43311700D02*
X9001700Y-33808300D01*
X15580000Y-57310000D02*
X14237500Y-55967500D01*
%TO.N,GND*%
X45448300Y-51643100D02*
X45448300Y-50251700D01*
X41514300Y-51643100D02*
X45448300Y-51643100D01*
D29*
X750000Y-23610000D02*
X750000Y-13450000D01*
D28*
X24501800Y-25991800D02*
X23200000Y-24690000D01*
X2450700Y-6175600D02*
X5849500Y-6175600D01*
D29*
X750000Y-43930000D02*
X750000Y-49010000D01*
X750000Y-31230000D02*
X2230000Y-31230000D01*
D28*
X29598000Y-28611600D02*
X29598000Y-35872000D01*
X878300Y-13448500D02*
X878300Y-7748000D01*
X14342000Y-48388000D02*
X16818000Y-48388000D01*
X9311200Y-51011200D02*
X11718800Y-51011200D01*
X879800Y-13450000D02*
X878300Y-13448500D01*
X29600200Y-76399800D02*
X29600200Y-53469400D01*
X7310000Y-43930000D02*
X7310000Y-49010000D01*
D29*
X750000Y-49010000D02*
X2230000Y-49010000D01*
D28*
X13040000Y-49690000D02*
X14342000Y-48388000D01*
X29600200Y-53469400D02*
X28280000Y-52149200D01*
D29*
X750000Y-31230000D02*
X750000Y-43930000D01*
D28*
X52700000Y-57250000D02*
X51055200Y-57250000D01*
X51055200Y-57250000D02*
X45448300Y-51643100D01*
D29*
X750000Y-23610000D02*
X750000Y-31230000D01*
D28*
X45448300Y-50251700D02*
X52700000Y-43000000D01*
X28280000Y-52149200D02*
X28280000Y-49690000D01*
D29*
X750000Y-43930000D02*
X2230000Y-43930000D01*
D28*
X26978200Y-25991800D02*
X24501800Y-25991800D01*
D29*
X750000Y-23610000D02*
X2230000Y-23610000D01*
D28*
X16818000Y-48388000D02*
X18120000Y-49690000D01*
X5849500Y-6175600D02*
X13040000Y-13366100D01*
X26978200Y-25991800D02*
X29598000Y-28611600D01*
X7310000Y-49010000D02*
X9311200Y-51011200D01*
X28280000Y-24690000D02*
X26978200Y-25991800D01*
X29598000Y-35872000D02*
X28280000Y-37190000D01*
D29*
X879800Y-13450000D02*
X2230000Y-13450000D01*
D28*
X878300Y-7748000D02*
X2450700Y-6175600D01*
X23500000Y-82500000D02*
X29600200Y-76399800D01*
D29*
X750000Y-13450000D02*
X879800Y-13450000D01*
D28*
X11718800Y-51011200D02*
X13040000Y-49690000D01*
X13040000Y-13366100D02*
X13040000Y-24690000D01*
%TO.N,GPIO25*%
D27*
X9956000Y-30374300D02*
X26331900Y-30374300D01*
X27902800Y-29878900D02*
X26281900Y-28258000D01*
X3500000Y-32500000D02*
X7830300Y-32500000D01*
X2230000Y-33770000D02*
X3500000Y-32500000D01*
X7830300Y-32500000D02*
X9956000Y-30374300D01*
X26843000Y-30885400D02*
X27457400Y-30885400D01*
X22702400Y-23471700D02*
X24521700Y-23471700D01*
X24521700Y-23471700D02*
X25740000Y-24690000D01*
X26331900Y-30374300D02*
X26843000Y-30885400D01*
X21986800Y-24187300D02*
X22702400Y-23471700D01*
X27902800Y-30440000D02*
X27902800Y-29878900D01*
X26281900Y-28258000D02*
X25094100Y-28258000D01*
X25094100Y-28258000D02*
X21986800Y-25150700D01*
X21986800Y-25150700D02*
X21986800Y-24187300D01*
X27457400Y-30885400D02*
X27902800Y-30440000D01*
%TO.N,S_DHW*%
X34503300Y-32083300D02*
X36000000Y-33580000D01*
X13210200Y-5589800D02*
X29129700Y-5589800D01*
X29129700Y-5589800D02*
X34503300Y-10963400D01*
X11850000Y-6950000D02*
X13210200Y-5589800D01*
X34503300Y-10963400D02*
X34503300Y-32083300D01*
%TO.N,S_BLR*%
X30343000Y-22943000D02*
X30343000Y-37105500D01*
X14350000Y-6950000D02*
X30343000Y-22943000D01*
%TO.N,S_SCALA*%
X37126700Y-8826700D02*
X37126700Y-43830000D01*
X35250000Y-6950000D02*
X37126700Y-8826700D01*
X37126700Y-43830000D02*
X37002200Y-43954500D01*
%TO.N,S_HPHEAT*%
X37750000Y-6950000D02*
X37750000Y-52830000D01*
X37750000Y-52830000D02*
X32000000Y-58580000D01*
%TO.N,ACC*%
D28*
X34683800Y-58025900D02*
X34683800Y-62223800D01*
X38618700Y-15753200D02*
X38618700Y-54091000D01*
X34683800Y-62223800D02*
X42660000Y-70200000D01*
X47500000Y-10500000D02*
X46950000Y-9950000D01*
X39593600Y-14778300D02*
X38618700Y-15753200D01*
X38618700Y-54091000D02*
X34683800Y-58025900D01*
X46950000Y-9950000D02*
X46950000Y-6950000D01*
%TO.N,S_BOS1*%
D27*
X23550000Y-6950000D02*
X30849100Y-14249100D01*
X32000000Y-37513400D02*
X32000000Y-46080000D01*
X30849100Y-36362500D02*
X32000000Y-37513400D01*
X30849100Y-14249100D02*
X30849100Y-36362500D01*
%TO.N,ACF*%
D28*
X49393000Y-56785600D02*
X39904800Y-56785600D01*
X54271600Y-57781700D02*
X53283000Y-58770300D01*
X54271600Y-56000000D02*
X54271600Y-57781700D01*
X39904800Y-56785600D02*
X38654800Y-58035600D01*
X52500000Y-10500000D02*
X57540000Y-15540000D01*
X53283000Y-58770300D02*
X51377700Y-58770300D01*
X38654800Y-58035600D02*
X38654800Y-62994800D01*
X57540000Y-15540000D02*
X57540000Y-27500000D01*
X51377700Y-58770300D02*
X49393000Y-56785600D01*
X38654800Y-62994800D02*
X42660000Y-67000000D01*
%TO.N,ACR*%
X52460000Y-21768600D02*
X44450000Y-13758600D01*
X44450000Y-13758600D02*
X44450000Y-6950000D01*
X52460000Y-27500000D02*
X52460000Y-21768600D01*
%TO.N,S_SP-D*%
D27*
X42083200Y-7021400D02*
X43526800Y-5577800D01*
X40225500Y-50786800D02*
X42083200Y-48929100D01*
X36000000Y-58580000D02*
X40225500Y-54354500D01*
X43526800Y-5577800D02*
X48077800Y-5577800D01*
X40225500Y-54354500D02*
X40225500Y-50786800D01*
X42083200Y-48929100D02*
X42083200Y-7021400D01*
X48077800Y-5577800D02*
X49450000Y-6950000D01*
%TO.N,S_BOS2*%
X34000100Y-44080100D02*
X36000000Y-46080000D01*
X34000100Y-14900100D02*
X34000100Y-44080100D01*
X26050000Y-6950000D02*
X34000100Y-14900100D01*
%TO.N,3V3*%
X48222700Y-29600000D02*
X49300000Y-29600000D01*
X49300000Y-29600000D02*
X52700000Y-33000000D01*
%TO.N,SDA*%
X6075400Y-22375400D02*
X7310000Y-23610000D01*
X4770000Y-10910000D02*
X6075400Y-12215400D01*
X6075400Y-12215400D02*
X6075400Y-22375400D01*
X47249700Y-18318700D02*
X46425600Y-17494600D01*
X47249700Y-30049700D02*
X47249700Y-18318700D01*
X52700000Y-35500000D02*
X47249700Y-30049700D01*
%TO.N,SCL*%
X46064000Y-31364000D02*
X52700000Y-38000000D01*
X44821500Y-17503900D02*
X46064000Y-18746400D01*
X46064000Y-18746400D02*
X46064000Y-31364000D01*
%TO.N,GPIO4*%
X52700000Y-40500000D02*
X45141800Y-32941800D01*
X45141700Y-32941800D02*
X45141700Y-19335400D01*
X45141700Y-19335400D02*
X43292000Y-17485700D01*
X45141800Y-32941800D02*
X45141700Y-32941800D01*
%TO.N,+5V*%
D28*
X47053800Y-51346200D02*
X47053800Y-50491400D01*
X53068500Y-44476700D02*
X53356200Y-44476700D01*
X8611700Y-24848300D02*
X8611700Y-10029700D01*
X8611700Y-10029700D02*
X5554000Y-6972000D01*
X2230000Y-10910000D02*
X2230000Y-8370000D01*
X7310000Y-26150000D02*
X8611700Y-24848300D01*
X47053800Y-50491400D02*
X53068500Y-44476700D01*
X5554000Y-6972000D02*
X3628000Y-6972000D01*
X54240400Y-43592500D02*
X54240400Y-17159600D01*
X54240400Y-17159600D02*
X53961400Y-16880600D01*
X52700000Y-54750000D02*
X50457600Y-54750000D01*
X3628000Y-6972000D02*
X2230000Y-8370000D01*
X53356200Y-44476700D02*
X54240400Y-43592500D01*
X50457600Y-54750000D02*
X47053800Y-51346200D01*
%TO.N,S_CHIL*%
D27*
X44000000Y-33580000D02*
X42565200Y-32145200D01*
X42565200Y-32145200D02*
X42565200Y-7581700D01*
X42565200Y-7581700D02*
X42810700Y-7336200D01*
%TO.N,GPIO8*%
X6075400Y-40155400D02*
X7310000Y-41390000D01*
X3500000Y-37580000D02*
X5220400Y-37580000D01*
X2230000Y-36310000D02*
X3500000Y-37580000D01*
X5220400Y-37580000D02*
X6075400Y-38435000D01*
X6075400Y-38435000D02*
X6075400Y-40155400D01*
%TO.N,GPIO6*%
X10500000Y-41389500D02*
X10829000Y-41718500D01*
X10500000Y-37190000D02*
X10500000Y-41389500D01*
%TO.N,GPIO16*%
X3423500Y-52743500D02*
X22686500Y-52743500D01*
X22686500Y-52743500D02*
X25740000Y-49690000D01*
X2230000Y-51550000D02*
X3423500Y-52743500D01*
%TO.N,GPIO24*%
X10500000Y-49690000D02*
X11734700Y-48455300D01*
X11734700Y-48455300D02*
X11734700Y-36179600D01*
X11734700Y-36179600D02*
X9903400Y-34348300D01*
%TD*%
D30*
X27147800Y-30153800D03*
X48066800Y-50905000D03*
X41514300Y-51643100D03*
X29600200Y-53469400D03*
X30343000Y-37105500D03*
X37002200Y-43954500D03*
X39593600Y-14778300D03*
X54271600Y-56000000D03*
X48222700Y-29600000D03*
X46425600Y-17494600D03*
X44821500Y-17503900D03*
X43292000Y-17485700D03*
X53961400Y-16880600D03*
X42810700Y-7336200D03*
X10829000Y-41718500D03*
X9903400Y-34348300D03*
X40000000Y-35920000D03*
X40000000Y-46080000D03*
X32000000Y-23420000D03*
X32000000Y-33580000D03*
X57600000Y-75000000D03*
X57600000Y-77540000D03*
X57600000Y-80080000D03*
X37000000Y-74500000D03*
X39540000Y-74500000D03*
X42080000Y-74500000D03*
X44620000Y-74500000D03*
X47160000Y-74500000D03*
X49700000Y-74500000D03*
X52240000Y-74500000D03*
X54780000Y-74500000D03*
X37000000Y-77040000D03*
X39540000Y-77040000D03*
X42080000Y-77040000D03*
X44620000Y-77040000D03*
X47160000Y-77040000D03*
X49700000Y-77040000D03*
X52240000Y-77040000D03*
X54780000Y-77040000D03*
X37000000Y-79580000D03*
X39540000Y-79580000D03*
X42080000Y-79580000D03*
X44620000Y-79580000D03*
X47160000Y-79580000D03*
X49700000Y-79580000D03*
X52240000Y-79580000D03*
X54780000Y-79580000D03*
X37000000Y-82120000D03*
X39540000Y-82120000D03*
X42080000Y-82120000D03*
X44620000Y-82120000D03*
X47160000Y-82120000D03*
X49700000Y-82120000D03*
X52240000Y-82120000D03*
X54780000Y-82120000D03*
X10500000Y-32310000D03*
X13040000Y-32310000D03*
X15580000Y-32310000D03*
X18120000Y-32310000D03*
X20660000Y-32310000D03*
X23200000Y-32310000D03*
X25740000Y-32310000D03*
X28280000Y-32310000D03*
X28280000Y-24690000D03*
X25740000Y-24690000D03*
X23200000Y-24690000D03*
X20660000Y-24690000D03*
X18120000Y-24690000D03*
X15580000Y-24690000D03*
X13040000Y-24690000D03*
X10500000Y-24690000D03*
X9350000Y-6950000D03*
X11850000Y-6950000D03*
X14350000Y-6950000D03*
X16850000Y-6950000D03*
X32750000Y-6950000D03*
X35250000Y-6950000D03*
X37750000Y-6950000D03*
X40250000Y-6950000D03*
X32500000Y-70200000D03*
X42660000Y-70200000D03*
X32000000Y-35920000D03*
X32000000Y-46080000D03*
X45500000Y-67000000D03*
X55660000Y-67000000D03*
X20500000Y-82500000D03*
X52500000Y-10500000D03*
X47500000Y-10500000D03*
X45500000Y-70200000D03*
X55660000Y-70200000D03*
X17500000Y-82500000D03*
X23500000Y-82500000D03*
X44450000Y-6950000D03*
X46950000Y-6950000D03*
X49450000Y-6950000D03*
X51950000Y-6950000D03*
X36000000Y-35920000D03*
X36000000Y-46080000D03*
X36000000Y-48420000D03*
X36000000Y-58580000D03*
X8500000Y-75500000D03*
X33500000Y-75500000D03*
X52460000Y-27500000D03*
X57540000Y-27500000D03*
X32500000Y-67000000D03*
X42660000Y-67000000D03*
X40000000Y-23420000D03*
X40000000Y-33580000D03*
X52700000Y-33000000D03*
X52700000Y-35500000D03*
X52700000Y-38000000D03*
X52700000Y-40500000D03*
X52700000Y-43000000D03*
X40000000Y-48420000D03*
X40000000Y-58580000D03*
X52700000Y-49750000D03*
X52700000Y-52250000D03*
X52700000Y-54750000D03*
X52700000Y-57250000D03*
X44000000Y-23420000D03*
X44000000Y-33580000D03*
X32000000Y-48420000D03*
X32000000Y-58580000D03*
X44000000Y-48420000D03*
X44000000Y-58580000D03*
X36000000Y-23420000D03*
X36000000Y-33580000D03*
X7310000Y-13450000D03*
X7310000Y-15990000D03*
X7310000Y-18530000D03*
X7310000Y-21070000D03*
X7310000Y-23610000D03*
X7310000Y-26150000D03*
X7310000Y-28690000D03*
X7310000Y-31230000D03*
X7310000Y-33770000D03*
X7310000Y-36310000D03*
X7310000Y-38850000D03*
X7310000Y-41390000D03*
X7310000Y-43930000D03*
X7310000Y-49010000D03*
X7310000Y-54090000D03*
X7310000Y-56630000D03*
X21050000Y-6950000D03*
X23550000Y-6950000D03*
X26050000Y-6950000D03*
X28550000Y-6950000D03*
X10500000Y-44810000D03*
X13040000Y-44810000D03*
X15580000Y-44810000D03*
X18120000Y-44810000D03*
X20660000Y-44810000D03*
X23200000Y-44810000D03*
X25740000Y-44810000D03*
X28280000Y-44810000D03*
X28280000Y-37190000D03*
X25740000Y-37190000D03*
X23200000Y-37190000D03*
X20660000Y-37190000D03*
X18120000Y-37190000D03*
X15580000Y-37190000D03*
X13040000Y-37190000D03*
X10500000Y-37190000D03*
X44000000Y-35920000D03*
X44000000Y-46080000D03*
X10500000Y-57310000D03*
X13040000Y-57310000D03*
X15580000Y-57310000D03*
X18120000Y-57310000D03*
X20660000Y-57310000D03*
X23200000Y-57310000D03*
X25740000Y-57310000D03*
X28280000Y-57310000D03*
X28280000Y-49690000D03*
X25740000Y-49690000D03*
X23200000Y-49690000D03*
X20660000Y-49690000D03*
X18120000Y-49690000D03*
X15580000Y-49690000D03*
X13040000Y-49690000D03*
X10500000Y-49690000D03*
X4770000Y-8370000D03*
X2230000Y-8370000D03*
X4770000Y-10910000D03*
X2230000Y-10910000D03*
X4770000Y-13450000D03*
X2230000Y-13450000D03*
X4770000Y-15990000D03*
X2230000Y-15990000D03*
X4770000Y-18530000D03*
X2230000Y-18530000D03*
X4770000Y-21070000D03*
X2230000Y-21070000D03*
X4770000Y-23610000D03*
X2230000Y-23610000D03*
X4770000Y-26150000D03*
X2230000Y-26150000D03*
X4770000Y-28690000D03*
X2230000Y-28690000D03*
X4770000Y-31230000D03*
X2230000Y-31230000D03*
X4770000Y-33770000D03*
X2230000Y-33770000D03*
X4770000Y-36310000D03*
X2230000Y-36310000D03*
X4770000Y-38850000D03*
X2230000Y-38850000D03*
X4770000Y-41390000D03*
X2230000Y-41390000D03*
X4770000Y-43930000D03*
X2230000Y-43930000D03*
X4770000Y-46470000D03*
X2230000Y-46470000D03*
X4770000Y-49010000D03*
X2230000Y-49010000D03*
X4770000Y-51550000D03*
X2230000Y-51550000D03*
X4770000Y-54090000D03*
X2230000Y-54090000D03*
X4770000Y-56630000D03*
X2230000Y-56630000D03*
M02*
