%TF.GenerationSoftware,KiCad,Pcbnew,10.0.6*%
%TF.CreationDate,2026-09-26T22:36:43-04:00*%
%TF.ProjectId,int-board,696e742d-626f-4617-9264-2e6b69636164,rev?*%
%TF.SameCoordinates,Original*%
%TF.FileFunction,Drillmap*%
%TF.FilePolarity,Positive*%
%FSLAX45Y45*%
G04 Gerber Fmt 4.5, Leading zero omitted, Abs format (unit mm)*
G04 Created by KiCad (PCBNEW 10.0.6) date 2026-09-26 22:36:43*
%MOMM*%
%LPD*%
G01*
G04 APERTURE LIST*
%ADD10C,0.100000*%
%ADD11C,0.200000*%
%ADD12C,0.110000*%
G04 APERTURE END LIST*
D10*
X0Y0D02*
X5900000Y0D01*
X5900000Y-8500000D01*
X0Y-8500000D01*
X0Y0D01*
D11*
D10*
X327990Y-1702470D02*
X367990Y-1742470D01*
X367990Y-1702470D02*
X327990Y-1742470D01*
X1174260Y-2836210D02*
X1214260Y-2876210D01*
X1214260Y-2836210D02*
X1174260Y-2876210D01*
X3493300Y-2952270D02*
X3533300Y-2992270D01*
X3533300Y-2952270D02*
X3493300Y-2992270D01*
X3585900Y-2859420D02*
X3625900Y-2899420D01*
X3625900Y-2859420D02*
X3585900Y-2899420D01*
X3738410Y-5593420D02*
X3778410Y-5633420D01*
X3778410Y-5593420D02*
X3738410Y-5633420D01*
X4346560Y-3923580D02*
X4386560Y-3963580D01*
X4386560Y-3923580D02*
X4346560Y-3963580D01*
X4946530Y-1616630D02*
X4986530Y-1656630D01*
X4986530Y-1616630D02*
X4946530Y-1656630D01*
X5041060Y-1728690D02*
X5081060Y-1768690D01*
X5081060Y-1728690D02*
X5041060Y-1768690D01*
X5116670Y-3065130D02*
X5156670Y-3105130D01*
X5156670Y-3065130D02*
X5116670Y-3105130D01*
X5120590Y-1617640D02*
X5160590Y-1657640D01*
X5160590Y-1617640D02*
X5120590Y-1657640D01*
X5120590Y-2312060D02*
X5160590Y-2352060D01*
X5160590Y-2312060D02*
X5120590Y-2352060D01*
X5184510Y-2755800D02*
X5224510Y-2795800D01*
X5224510Y-2755800D02*
X5184510Y-2795800D01*
X5185170Y-3872110D02*
X5225170Y-3912110D01*
X5225170Y-3872110D02*
X5185170Y-3912110D01*
X5428300Y-2474300D02*
X5468300Y-2514300D01*
X5468300Y-2474300D02*
X5428300Y-2514300D01*
X5444620Y-3372170D02*
X5484620Y-3412170D01*
X5484620Y-3372170D02*
X5444620Y-3412170D01*
X5445470Y-3617500D02*
X5485470Y-3657500D01*
X5485470Y-3617500D02*
X5445470Y-3657500D01*
X5452290Y-3500350D02*
X5492290Y-3540350D01*
X5492290Y-3500350D02*
X5452290Y-3540350D01*
X1440000Y-2469000D02*
G75*
G02*
X1360000Y-2469000I-40000J0D01*
G01*
X1360000Y-2469000D02*
G75*
G02*
X1440000Y-2469000I40000J0D01*
G01*
X1440000Y-3231000D02*
G75*
G02*
X1360000Y-3231000I-40000J0D01*
G01*
X1360000Y-3231000D02*
G75*
G02*
X1440000Y-3231000I40000J0D01*
G01*
X1440000Y-3719000D02*
G75*
G02*
X1360000Y-3719000I-40000J0D01*
G01*
X1360000Y-3719000D02*
G75*
G02*
X1440000Y-3719000I40000J0D01*
G01*
X1440000Y-4481000D02*
G75*
G02*
X1360000Y-4481000I-40000J0D01*
G01*
X1360000Y-4481000D02*
G75*
G02*
X1440000Y-4481000I40000J0D01*
G01*
X1440000Y-4969000D02*
G75*
G02*
X1360000Y-4969000I-40000J0D01*
G01*
X1360000Y-4969000D02*
G75*
G02*
X1440000Y-4969000I40000J0D01*
G01*
X1440000Y-5731000D02*
G75*
G02*
X1360000Y-5731000I-40000J0D01*
G01*
X1360000Y-5731000D02*
G75*
G02*
X1440000Y-5731000I40000J0D01*
G01*
X1694000Y-2469000D02*
G75*
G02*
X1614000Y-2469000I-40000J0D01*
G01*
X1614000Y-2469000D02*
G75*
G02*
X1694000Y-2469000I40000J0D01*
G01*
X1694000Y-3231000D02*
G75*
G02*
X1614000Y-3231000I-40000J0D01*
G01*
X1614000Y-3231000D02*
G75*
G02*
X1694000Y-3231000I40000J0D01*
G01*
X1694000Y-3719000D02*
G75*
G02*
X1614000Y-3719000I-40000J0D01*
G01*
X1614000Y-3719000D02*
G75*
G02*
X1694000Y-3719000I40000J0D01*
G01*
X1694000Y-4481000D02*
G75*
G02*
X1614000Y-4481000I-40000J0D01*
G01*
X1614000Y-4481000D02*
G75*
G02*
X1694000Y-4481000I40000J0D01*
G01*
X1694000Y-4969000D02*
G75*
G02*
X1614000Y-4969000I-40000J0D01*
G01*
X1614000Y-4969000D02*
G75*
G02*
X1694000Y-4969000I40000J0D01*
G01*
X1694000Y-5731000D02*
G75*
G02*
X1614000Y-5731000I-40000J0D01*
G01*
X1614000Y-5731000D02*
G75*
G02*
X1694000Y-5731000I40000J0D01*
G01*
X1948000Y-2469000D02*
G75*
G02*
X1868000Y-2469000I-40000J0D01*
G01*
X1868000Y-2469000D02*
G75*
G02*
X1948000Y-2469000I40000J0D01*
G01*
X1948000Y-3231000D02*
G75*
G02*
X1868000Y-3231000I-40000J0D01*
G01*
X1868000Y-3231000D02*
G75*
G02*
X1948000Y-3231000I40000J0D01*
G01*
X1948000Y-3719000D02*
G75*
G02*
X1868000Y-3719000I-40000J0D01*
G01*
X1868000Y-3719000D02*
G75*
G02*
X1948000Y-3719000I40000J0D01*
G01*
X1948000Y-4481000D02*
G75*
G02*
X1868000Y-4481000I-40000J0D01*
G01*
X1868000Y-4481000D02*
G75*
G02*
X1948000Y-4481000I40000J0D01*
G01*
X1948000Y-4969000D02*
G75*
G02*
X1868000Y-4969000I-40000J0D01*
G01*
X1868000Y-4969000D02*
G75*
G02*
X1948000Y-4969000I40000J0D01*
G01*
X1948000Y-5731000D02*
G75*
G02*
X1868000Y-5731000I-40000J0D01*
G01*
X1868000Y-5731000D02*
G75*
G02*
X1948000Y-5731000I40000J0D01*
G01*
X2202000Y-2469000D02*
G75*
G02*
X2122000Y-2469000I-40000J0D01*
G01*
X2122000Y-2469000D02*
G75*
G02*
X2202000Y-2469000I40000J0D01*
G01*
X2202000Y-3231000D02*
G75*
G02*
X2122000Y-3231000I-40000J0D01*
G01*
X2122000Y-3231000D02*
G75*
G02*
X2202000Y-3231000I40000J0D01*
G01*
X2202000Y-3719000D02*
G75*
G02*
X2122000Y-3719000I-40000J0D01*
G01*
X2122000Y-3719000D02*
G75*
G02*
X2202000Y-3719000I40000J0D01*
G01*
X2202000Y-4481000D02*
G75*
G02*
X2122000Y-4481000I-40000J0D01*
G01*
X2122000Y-4481000D02*
G75*
G02*
X2202000Y-4481000I40000J0D01*
G01*
X2202000Y-4969000D02*
G75*
G02*
X2122000Y-4969000I-40000J0D01*
G01*
X2122000Y-4969000D02*
G75*
G02*
X2202000Y-4969000I40000J0D01*
G01*
X2202000Y-5731000D02*
G75*
G02*
X2122000Y-5731000I-40000J0D01*
G01*
X2122000Y-5731000D02*
G75*
G02*
X2202000Y-5731000I40000J0D01*
G01*
X2456000Y-2469000D02*
G75*
G02*
X2376000Y-2469000I-40000J0D01*
G01*
X2376000Y-2469000D02*
G75*
G02*
X2456000Y-2469000I40000J0D01*
G01*
X2456000Y-3231000D02*
G75*
G02*
X2376000Y-3231000I-40000J0D01*
G01*
X2376000Y-3231000D02*
G75*
G02*
X2456000Y-3231000I40000J0D01*
G01*
X2456000Y-3719000D02*
G75*
G02*
X2376000Y-3719000I-40000J0D01*
G01*
X2376000Y-3719000D02*
G75*
G02*
X2456000Y-3719000I40000J0D01*
G01*
X2456000Y-4481000D02*
G75*
G02*
X2376000Y-4481000I-40000J0D01*
G01*
X2376000Y-4481000D02*
G75*
G02*
X2456000Y-4481000I40000J0D01*
G01*
X2456000Y-4969000D02*
G75*
G02*
X2376000Y-4969000I-40000J0D01*
G01*
X2376000Y-4969000D02*
G75*
G02*
X2456000Y-4969000I40000J0D01*
G01*
X2456000Y-5731000D02*
G75*
G02*
X2376000Y-5731000I-40000J0D01*
G01*
X2376000Y-5731000D02*
G75*
G02*
X2456000Y-5731000I40000J0D01*
G01*
X2710000Y-2469000D02*
G75*
G02*
X2630000Y-2469000I-40000J0D01*
G01*
X2630000Y-2469000D02*
G75*
G02*
X2710000Y-2469000I40000J0D01*
G01*
X2710000Y-3231000D02*
G75*
G02*
X2630000Y-3231000I-40000J0D01*
G01*
X2630000Y-3231000D02*
G75*
G02*
X2710000Y-3231000I40000J0D01*
G01*
X2710000Y-3719000D02*
G75*
G02*
X2630000Y-3719000I-40000J0D01*
G01*
X2630000Y-3719000D02*
G75*
G02*
X2710000Y-3719000I40000J0D01*
G01*
X2710000Y-4481000D02*
G75*
G02*
X2630000Y-4481000I-40000J0D01*
G01*
X2630000Y-4481000D02*
G75*
G02*
X2710000Y-4481000I40000J0D01*
G01*
X2710000Y-4969000D02*
G75*
G02*
X2630000Y-4969000I-40000J0D01*
G01*
X2630000Y-4969000D02*
G75*
G02*
X2710000Y-4969000I40000J0D01*
G01*
X2710000Y-5731000D02*
G75*
G02*
X2630000Y-5731000I-40000J0D01*
G01*
X2630000Y-5731000D02*
G75*
G02*
X2710000Y-5731000I40000J0D01*
G01*
X2964000Y-2469000D02*
G75*
G02*
X2884000Y-2469000I-40000J0D01*
G01*
X2884000Y-2469000D02*
G75*
G02*
X2964000Y-2469000I40000J0D01*
G01*
X2964000Y-3231000D02*
G75*
G02*
X2884000Y-3231000I-40000J0D01*
G01*
X2884000Y-3231000D02*
G75*
G02*
X2964000Y-3231000I40000J0D01*
G01*
X2964000Y-3719000D02*
G75*
G02*
X2884000Y-3719000I-40000J0D01*
G01*
X2884000Y-3719000D02*
G75*
G02*
X2964000Y-3719000I40000J0D01*
G01*
X2964000Y-4481000D02*
G75*
G02*
X2884000Y-4481000I-40000J0D01*
G01*
X2884000Y-4481000D02*
G75*
G02*
X2964000Y-4481000I40000J0D01*
G01*
X2964000Y-4969000D02*
G75*
G02*
X2884000Y-4969000I-40000J0D01*
G01*
X2884000Y-4969000D02*
G75*
G02*
X2964000Y-4969000I40000J0D01*
G01*
X2964000Y-5731000D02*
G75*
G02*
X2884000Y-5731000I-40000J0D01*
G01*
X2884000Y-5731000D02*
G75*
G02*
X2964000Y-5731000I40000J0D01*
G01*
X3218000Y-2469000D02*
G75*
G02*
X3138000Y-2469000I-40000J0D01*
G01*
X3138000Y-2469000D02*
G75*
G02*
X3218000Y-2469000I40000J0D01*
G01*
X3218000Y-3231000D02*
G75*
G02*
X3138000Y-3231000I-40000J0D01*
G01*
X3138000Y-3231000D02*
G75*
G02*
X3218000Y-3231000I40000J0D01*
G01*
X3218000Y-3719000D02*
G75*
G02*
X3138000Y-3719000I-40000J0D01*
G01*
X3138000Y-3719000D02*
G75*
G02*
X3218000Y-3719000I40000J0D01*
G01*
X3218000Y-4481000D02*
G75*
G02*
X3138000Y-4481000I-40000J0D01*
G01*
X3138000Y-4481000D02*
G75*
G02*
X3218000Y-4481000I40000J0D01*
G01*
X3218000Y-4969000D02*
G75*
G02*
X3138000Y-4969000I-40000J0D01*
G01*
X3138000Y-4969000D02*
G75*
G02*
X3218000Y-4969000I40000J0D01*
G01*
X3218000Y-5731000D02*
G75*
G02*
X3138000Y-5731000I-40000J0D01*
G01*
X3138000Y-5731000D02*
G75*
G02*
X3218000Y-5731000I40000J0D01*
G01*
X3560000Y-2342000D02*
G75*
G02*
X3480000Y-2342000I-40000J0D01*
G01*
X3480000Y-2342000D02*
G75*
G02*
X3560000Y-2342000I40000J0D01*
G01*
X3560000Y-3358000D02*
G75*
G02*
X3480000Y-3358000I-40000J0D01*
G01*
X3480000Y-3358000D02*
G75*
G02*
X3560000Y-3358000I40000J0D01*
G01*
X3560000Y-3592000D02*
G75*
G02*
X3480000Y-3592000I-40000J0D01*
G01*
X3480000Y-3592000D02*
G75*
G02*
X3560000Y-3592000I40000J0D01*
G01*
X3560000Y-4608000D02*
G75*
G02*
X3480000Y-4608000I-40000J0D01*
G01*
X3480000Y-4608000D02*
G75*
G02*
X3560000Y-4608000I40000J0D01*
G01*
X3560000Y-4842000D02*
G75*
G02*
X3480000Y-4842000I-40000J0D01*
G01*
X3480000Y-4842000D02*
G75*
G02*
X3560000Y-4842000I40000J0D01*
G01*
X3560000Y-5858000D02*
G75*
G02*
X3480000Y-5858000I-40000J0D01*
G01*
X3480000Y-5858000D02*
G75*
G02*
X3560000Y-5858000I40000J0D01*
G01*
X3960000Y-2342000D02*
G75*
G02*
X3880000Y-2342000I-40000J0D01*
G01*
X3880000Y-2342000D02*
G75*
G02*
X3960000Y-2342000I40000J0D01*
G01*
X3960000Y-3358000D02*
G75*
G02*
X3880000Y-3358000I-40000J0D01*
G01*
X3880000Y-3358000D02*
G75*
G02*
X3960000Y-3358000I40000J0D01*
G01*
X3960000Y-3592000D02*
G75*
G02*
X3880000Y-3592000I-40000J0D01*
G01*
X3880000Y-3592000D02*
G75*
G02*
X3960000Y-3592000I40000J0D01*
G01*
X3960000Y-4608000D02*
G75*
G02*
X3880000Y-4608000I-40000J0D01*
G01*
X3880000Y-4608000D02*
G75*
G02*
X3960000Y-4608000I40000J0D01*
G01*
X3960000Y-4842000D02*
G75*
G02*
X3880000Y-4842000I-40000J0D01*
G01*
X3880000Y-4842000D02*
G75*
G02*
X3960000Y-4842000I40000J0D01*
G01*
X3960000Y-5858000D02*
G75*
G02*
X3880000Y-5858000I-40000J0D01*
G01*
X3880000Y-5858000D02*
G75*
G02*
X3960000Y-5858000I40000J0D01*
G01*
X4360000Y-2342000D02*
G75*
G02*
X4280000Y-2342000I-40000J0D01*
G01*
X4280000Y-2342000D02*
G75*
G02*
X4360000Y-2342000I40000J0D01*
G01*
X4360000Y-3358000D02*
G75*
G02*
X4280000Y-3358000I-40000J0D01*
G01*
X4280000Y-3358000D02*
G75*
G02*
X4360000Y-3358000I40000J0D01*
G01*
X4360000Y-3592000D02*
G75*
G02*
X4280000Y-3592000I-40000J0D01*
G01*
X4280000Y-3592000D02*
G75*
G02*
X4360000Y-3592000I40000J0D01*
G01*
X4360000Y-4608000D02*
G75*
G02*
X4280000Y-4608000I-40000J0D01*
G01*
X4280000Y-4608000D02*
G75*
G02*
X4360000Y-4608000I40000J0D01*
G01*
X4360000Y-4842000D02*
G75*
G02*
X4280000Y-4842000I-40000J0D01*
G01*
X4280000Y-4842000D02*
G75*
G02*
X4360000Y-4842000I40000J0D01*
G01*
X4360000Y-5858000D02*
G75*
G02*
X4280000Y-5858000I-40000J0D01*
G01*
X4280000Y-5858000D02*
G75*
G02*
X4360000Y-5858000I40000J0D01*
G01*
X4760000Y-2342000D02*
G75*
G02*
X4680000Y-2342000I-40000J0D01*
G01*
X4680000Y-2342000D02*
G75*
G02*
X4760000Y-2342000I40000J0D01*
G01*
X4760000Y-3358000D02*
G75*
G02*
X4680000Y-3358000I-40000J0D01*
G01*
X4680000Y-3358000D02*
G75*
G02*
X4760000Y-3358000I40000J0D01*
G01*
X4760000Y-3592000D02*
G75*
G02*
X4680000Y-3592000I-40000J0D01*
G01*
X4680000Y-3592000D02*
G75*
G02*
X4760000Y-3592000I40000J0D01*
G01*
X4760000Y-4608000D02*
G75*
G02*
X4680000Y-4608000I-40000J0D01*
G01*
X4680000Y-4608000D02*
G75*
G02*
X4760000Y-4608000I40000J0D01*
G01*
X4760000Y-4842000D02*
G75*
G02*
X4680000Y-4842000I-40000J0D01*
G01*
X4680000Y-4842000D02*
G75*
G02*
X4760000Y-4842000I40000J0D01*
G01*
X4760000Y-5858000D02*
G75*
G02*
X4680000Y-5858000I-40000J0D01*
G01*
X4680000Y-5858000D02*
G75*
G02*
X4760000Y-5858000I40000J0D01*
G01*
X223000Y-787000D02*
X223000Y-887000D01*
X173000Y-837000D02*
X273000Y-837000D01*
X223000Y-1041000D02*
X223000Y-1141000D01*
X173000Y-1091000D02*
X273000Y-1091000D01*
X223000Y-1295000D02*
X223000Y-1395000D01*
X173000Y-1345000D02*
X273000Y-1345000D01*
X223000Y-1549000D02*
X223000Y-1649000D01*
X173000Y-1599000D02*
X273000Y-1599000D01*
X223000Y-1803000D02*
X223000Y-1903000D01*
X173000Y-1853000D02*
X273000Y-1853000D01*
X223000Y-2057000D02*
X223000Y-2157000D01*
X173000Y-2107000D02*
X273000Y-2107000D01*
X223000Y-2311000D02*
X223000Y-2411000D01*
X173000Y-2361000D02*
X273000Y-2361000D01*
X223000Y-2565000D02*
X223000Y-2665000D01*
X173000Y-2615000D02*
X273000Y-2615000D01*
X223000Y-2819000D02*
X223000Y-2919000D01*
X173000Y-2869000D02*
X273000Y-2869000D01*
X223000Y-3073000D02*
X223000Y-3173000D01*
X173000Y-3123000D02*
X273000Y-3123000D01*
X223000Y-3327000D02*
X223000Y-3427000D01*
X173000Y-3377000D02*
X273000Y-3377000D01*
X223000Y-3581000D02*
X223000Y-3681000D01*
X173000Y-3631000D02*
X273000Y-3631000D01*
X223000Y-3835000D02*
X223000Y-3935000D01*
X173000Y-3885000D02*
X273000Y-3885000D01*
X223000Y-4089000D02*
X223000Y-4189000D01*
X173000Y-4139000D02*
X273000Y-4139000D01*
X223000Y-4343000D02*
X223000Y-4443000D01*
X173000Y-4393000D02*
X273000Y-4393000D01*
X223000Y-4597000D02*
X223000Y-4697000D01*
X173000Y-4647000D02*
X273000Y-4647000D01*
X223000Y-4851000D02*
X223000Y-4951000D01*
X173000Y-4901000D02*
X273000Y-4901000D01*
X223000Y-5105000D02*
X223000Y-5205000D01*
X173000Y-5155000D02*
X273000Y-5155000D01*
X223000Y-5359000D02*
X223000Y-5459000D01*
X173000Y-5409000D02*
X273000Y-5409000D01*
X223000Y-5613000D02*
X223000Y-5713000D01*
X173000Y-5663000D02*
X273000Y-5663000D01*
X477000Y-787000D02*
X477000Y-887000D01*
X427000Y-837000D02*
X527000Y-837000D01*
X477000Y-1041000D02*
X477000Y-1141000D01*
X427000Y-1091000D02*
X527000Y-1091000D01*
X477000Y-1295000D02*
X477000Y-1395000D01*
X427000Y-1345000D02*
X527000Y-1345000D01*
X477000Y-1549000D02*
X477000Y-1649000D01*
X427000Y-1599000D02*
X527000Y-1599000D01*
X477000Y-1803000D02*
X477000Y-1903000D01*
X427000Y-1853000D02*
X527000Y-1853000D01*
X477000Y-2057000D02*
X477000Y-2157000D01*
X427000Y-2107000D02*
X527000Y-2107000D01*
X477000Y-2311000D02*
X477000Y-2411000D01*
X427000Y-2361000D02*
X527000Y-2361000D01*
X477000Y-2565000D02*
X477000Y-2665000D01*
X427000Y-2615000D02*
X527000Y-2615000D01*
X477000Y-2819000D02*
X477000Y-2919000D01*
X427000Y-2869000D02*
X527000Y-2869000D01*
X477000Y-3073000D02*
X477000Y-3173000D01*
X427000Y-3123000D02*
X527000Y-3123000D01*
X477000Y-3327000D02*
X477000Y-3427000D01*
X427000Y-3377000D02*
X527000Y-3377000D01*
X477000Y-3581000D02*
X477000Y-3681000D01*
X427000Y-3631000D02*
X527000Y-3631000D01*
X477000Y-3835000D02*
X477000Y-3935000D01*
X427000Y-3885000D02*
X527000Y-3885000D01*
X477000Y-4089000D02*
X477000Y-4189000D01*
X427000Y-4139000D02*
X527000Y-4139000D01*
X477000Y-4343000D02*
X477000Y-4443000D01*
X427000Y-4393000D02*
X527000Y-4393000D01*
X477000Y-4597000D02*
X477000Y-4697000D01*
X427000Y-4647000D02*
X527000Y-4647000D01*
X477000Y-4851000D02*
X477000Y-4951000D01*
X427000Y-4901000D02*
X527000Y-4901000D01*
X477000Y-5105000D02*
X477000Y-5205000D01*
X427000Y-5155000D02*
X527000Y-5155000D01*
X477000Y-5359000D02*
X477000Y-5459000D01*
X427000Y-5409000D02*
X527000Y-5409000D01*
X477000Y-5613000D02*
X477000Y-5713000D01*
X427000Y-5663000D02*
X527000Y-5663000D01*
X731000Y-1295000D02*
X731000Y-1395000D01*
X681000Y-1345000D02*
X781000Y-1345000D01*
X731000Y-1549000D02*
X731000Y-1649000D01*
X681000Y-1599000D02*
X781000Y-1599000D01*
X731000Y-1803000D02*
X731000Y-1903000D01*
X681000Y-1853000D02*
X781000Y-1853000D01*
X731000Y-2057000D02*
X731000Y-2157000D01*
X681000Y-2107000D02*
X781000Y-2107000D01*
X731000Y-2311000D02*
X731000Y-2411000D01*
X681000Y-2361000D02*
X781000Y-2361000D01*
X731000Y-2565000D02*
X731000Y-2665000D01*
X681000Y-2615000D02*
X781000Y-2615000D01*
X731000Y-2819000D02*
X731000Y-2919000D01*
X681000Y-2869000D02*
X781000Y-2869000D01*
X731000Y-3073000D02*
X731000Y-3173000D01*
X681000Y-3123000D02*
X781000Y-3123000D01*
X731000Y-3327000D02*
X731000Y-3427000D01*
X681000Y-3377000D02*
X781000Y-3377000D01*
X731000Y-3581000D02*
X731000Y-3681000D01*
X681000Y-3631000D02*
X781000Y-3631000D01*
X731000Y-3835000D02*
X731000Y-3935000D01*
X681000Y-3885000D02*
X781000Y-3885000D01*
X731000Y-4089000D02*
X731000Y-4189000D01*
X681000Y-4139000D02*
X781000Y-4139000D01*
X731000Y-4343000D02*
X731000Y-4443000D01*
X681000Y-4393000D02*
X781000Y-4393000D01*
X731000Y-4851000D02*
X731000Y-4951000D01*
X681000Y-4901000D02*
X781000Y-4901000D01*
X731000Y-5359000D02*
X731000Y-5459000D01*
X681000Y-5409000D02*
X781000Y-5409000D01*
X731000Y-5613000D02*
X731000Y-5713000D01*
X681000Y-5663000D02*
X781000Y-5663000D01*
X4000000Y-8050000D02*
X4000000Y-8150000D01*
X3950000Y-8100000D02*
X4050000Y-8100000D01*
X4300000Y-8050000D02*
X4300000Y-8150000D01*
X4250000Y-8100000D02*
X4350000Y-8100000D01*
X4600000Y-8050000D02*
X4600000Y-8150000D01*
X4550000Y-8100000D02*
X4650000Y-8100000D01*
D12*
X973891Y-733891D02*
X973891Y-656109D01*
X896109Y-656109D01*
X896109Y-733891D01*
X973891Y-733891D01*
X1223891Y-733891D02*
X1223891Y-656109D01*
X1146109Y-656109D01*
X1146109Y-733891D01*
X1223891Y-733891D01*
X1473891Y-733891D02*
X1473891Y-656109D01*
X1396109Y-656109D01*
X1396109Y-733891D01*
X1473891Y-733891D01*
X1723891Y-733891D02*
X1723891Y-656109D01*
X1646109Y-656109D01*
X1646109Y-733891D01*
X1723891Y-733891D01*
X2143891Y-733891D02*
X2143891Y-656109D01*
X2066109Y-656109D01*
X2066109Y-733891D01*
X2143891Y-733891D01*
X2393891Y-733891D02*
X2393891Y-656109D01*
X2316109Y-656109D01*
X2316109Y-733891D01*
X2393891Y-733891D01*
X2643891Y-733891D02*
X2643891Y-656109D01*
X2566109Y-656109D01*
X2566109Y-733891D01*
X2643891Y-733891D01*
X2893891Y-733891D02*
X2893891Y-656109D01*
X2816109Y-656109D01*
X2816109Y-733891D01*
X2893891Y-733891D01*
X3313891Y-733891D02*
X3313891Y-656109D01*
X3236109Y-656109D01*
X3236109Y-733891D01*
X3313891Y-733891D01*
X3563891Y-733891D02*
X3563891Y-656109D01*
X3486109Y-656109D01*
X3486109Y-733891D01*
X3563891Y-733891D01*
X3813891Y-733891D02*
X3813891Y-656109D01*
X3736109Y-656109D01*
X3736109Y-733891D01*
X3813891Y-733891D01*
X4063891Y-733891D02*
X4063891Y-656109D01*
X3986109Y-656109D01*
X3986109Y-733891D01*
X4063891Y-733891D01*
X4483891Y-733891D02*
X4483891Y-656109D01*
X4406109Y-656109D01*
X4406109Y-733891D01*
X4483891Y-733891D01*
X4733891Y-733891D02*
X4733891Y-656109D01*
X4656109Y-656109D01*
X4656109Y-733891D01*
X4733891Y-733891D01*
X4983891Y-733891D02*
X4983891Y-656109D01*
X4906109Y-656109D01*
X4906109Y-733891D01*
X4983891Y-733891D01*
X5233891Y-733891D02*
X5233891Y-656109D01*
X5156109Y-656109D01*
X5156109Y-733891D01*
X5233891Y-733891D01*
D11*
X255777Y-8816484D02*
X255777Y-8616484D01*
X255777Y-8616484D02*
X303396Y-8616484D01*
X303396Y-8616484D02*
X331967Y-8626008D01*
X331967Y-8626008D02*
X351015Y-8645055D01*
X351015Y-8645055D02*
X360539Y-8664103D01*
X360539Y-8664103D02*
X370062Y-8702198D01*
X370062Y-8702198D02*
X370062Y-8730770D01*
X370062Y-8730770D02*
X360539Y-8768865D01*
X360539Y-8768865D02*
X351015Y-8787912D01*
X351015Y-8787912D02*
X331967Y-8806960D01*
X331967Y-8806960D02*
X303396Y-8816484D01*
X303396Y-8816484D02*
X255777Y-8816484D01*
X455777Y-8816484D02*
X455777Y-8683150D01*
X455777Y-8721246D02*
X465301Y-8702198D01*
X465301Y-8702198D02*
X474824Y-8692674D01*
X474824Y-8692674D02*
X493872Y-8683150D01*
X493872Y-8683150D02*
X512920Y-8683150D01*
X579586Y-8816484D02*
X579586Y-8683150D01*
X579586Y-8616484D02*
X570063Y-8626008D01*
X570063Y-8626008D02*
X579586Y-8635531D01*
X579586Y-8635531D02*
X589110Y-8626008D01*
X589110Y-8626008D02*
X579586Y-8616484D01*
X579586Y-8616484D02*
X579586Y-8635531D01*
X703396Y-8816484D02*
X684348Y-8806960D01*
X684348Y-8806960D02*
X674824Y-8787912D01*
X674824Y-8787912D02*
X674824Y-8616484D01*
X808158Y-8816484D02*
X789110Y-8806960D01*
X789110Y-8806960D02*
X779586Y-8787912D01*
X779586Y-8787912D02*
X779586Y-8616484D01*
X1036729Y-8816484D02*
X1036729Y-8616484D01*
X1036729Y-8616484D02*
X1103396Y-8759341D01*
X1103396Y-8759341D02*
X1170063Y-8616484D01*
X1170063Y-8616484D02*
X1170063Y-8816484D01*
X1351015Y-8816484D02*
X1351015Y-8711722D01*
X1351015Y-8711722D02*
X1341491Y-8692674D01*
X1341491Y-8692674D02*
X1322444Y-8683150D01*
X1322444Y-8683150D02*
X1284348Y-8683150D01*
X1284348Y-8683150D02*
X1265301Y-8692674D01*
X1351015Y-8806960D02*
X1331967Y-8816484D01*
X1331967Y-8816484D02*
X1284348Y-8816484D01*
X1284348Y-8816484D02*
X1265301Y-8806960D01*
X1265301Y-8806960D02*
X1255777Y-8787912D01*
X1255777Y-8787912D02*
X1255777Y-8768865D01*
X1255777Y-8768865D02*
X1265301Y-8749817D01*
X1265301Y-8749817D02*
X1284348Y-8740293D01*
X1284348Y-8740293D02*
X1331967Y-8740293D01*
X1331967Y-8740293D02*
X1351015Y-8730770D01*
X1446253Y-8683150D02*
X1446253Y-8883150D01*
X1446253Y-8692674D02*
X1465301Y-8683150D01*
X1465301Y-8683150D02*
X1503396Y-8683150D01*
X1503396Y-8683150D02*
X1522443Y-8692674D01*
X1522443Y-8692674D02*
X1531967Y-8702198D01*
X1531967Y-8702198D02*
X1541491Y-8721246D01*
X1541491Y-8721246D02*
X1541491Y-8778389D01*
X1541491Y-8778389D02*
X1531967Y-8797436D01*
X1531967Y-8797436D02*
X1522443Y-8806960D01*
X1522443Y-8806960D02*
X1503396Y-8816484D01*
X1503396Y-8816484D02*
X1465301Y-8816484D01*
X1465301Y-8816484D02*
X1446253Y-8806960D01*
X1627205Y-8797436D02*
X1636729Y-8806960D01*
X1636729Y-8806960D02*
X1627205Y-8816484D01*
X1627205Y-8816484D02*
X1617682Y-8806960D01*
X1617682Y-8806960D02*
X1627205Y-8797436D01*
X1627205Y-8797436D02*
X1627205Y-8816484D01*
X1627205Y-8692674D02*
X1636729Y-8702198D01*
X1636729Y-8702198D02*
X1627205Y-8711722D01*
X1627205Y-8711722D02*
X1617682Y-8702198D01*
X1617682Y-8702198D02*
X1627205Y-8692674D01*
X1627205Y-8692674D02*
X1627205Y-8711722D01*
D10*
X-45000Y-9125000D02*
X-5000Y-9165000D01*
X-5000Y-9125000D02*
X-45000Y-9165000D01*
D11*
X293872Y-9036484D02*
X312920Y-9036484D01*
X312920Y-9036484D02*
X331967Y-9046008D01*
X331967Y-9046008D02*
X341491Y-9055531D01*
X341491Y-9055531D02*
X351015Y-9074579D01*
X351015Y-9074579D02*
X360539Y-9112674D01*
X360539Y-9112674D02*
X360539Y-9160293D01*
X360539Y-9160293D02*
X351015Y-9198389D01*
X351015Y-9198389D02*
X341491Y-9217436D01*
X341491Y-9217436D02*
X331967Y-9226960D01*
X331967Y-9226960D02*
X312920Y-9236484D01*
X312920Y-9236484D02*
X293872Y-9236484D01*
X293872Y-9236484D02*
X274824Y-9226960D01*
X274824Y-9226960D02*
X265301Y-9217436D01*
X265301Y-9217436D02*
X255777Y-9198389D01*
X255777Y-9198389D02*
X246253Y-9160293D01*
X246253Y-9160293D02*
X246253Y-9112674D01*
X246253Y-9112674D02*
X255777Y-9074579D01*
X255777Y-9074579D02*
X265301Y-9055531D01*
X265301Y-9055531D02*
X274824Y-9046008D01*
X274824Y-9046008D02*
X293872Y-9036484D01*
X446253Y-9217436D02*
X455777Y-9226960D01*
X455777Y-9226960D02*
X446253Y-9236484D01*
X446253Y-9236484D02*
X436729Y-9226960D01*
X436729Y-9226960D02*
X446253Y-9217436D01*
X446253Y-9217436D02*
X446253Y-9236484D01*
X627205Y-9103150D02*
X627205Y-9236484D01*
X579586Y-9026960D02*
X531967Y-9169817D01*
X531967Y-9169817D02*
X655777Y-9169817D01*
X770062Y-9036484D02*
X789110Y-9036484D01*
X789110Y-9036484D02*
X808158Y-9046008D01*
X808158Y-9046008D02*
X817682Y-9055531D01*
X817682Y-9055531D02*
X827205Y-9074579D01*
X827205Y-9074579D02*
X836729Y-9112674D01*
X836729Y-9112674D02*
X836729Y-9160293D01*
X836729Y-9160293D02*
X827205Y-9198389D01*
X827205Y-9198389D02*
X817682Y-9217436D01*
X817682Y-9217436D02*
X808158Y-9226960D01*
X808158Y-9226960D02*
X789110Y-9236484D01*
X789110Y-9236484D02*
X770062Y-9236484D01*
X770062Y-9236484D02*
X751015Y-9226960D01*
X751015Y-9226960D02*
X741491Y-9217436D01*
X741491Y-9217436D02*
X731967Y-9198389D01*
X731967Y-9198389D02*
X722443Y-9160293D01*
X722443Y-9160293D02*
X722443Y-9112674D01*
X722443Y-9112674D02*
X731967Y-9074579D01*
X731967Y-9074579D02*
X741491Y-9055531D01*
X741491Y-9055531D02*
X751015Y-9046008D01*
X751015Y-9046008D02*
X770062Y-9036484D01*
X960539Y-9036484D02*
X979586Y-9036484D01*
X979586Y-9036484D02*
X998634Y-9046008D01*
X998634Y-9046008D02*
X1008158Y-9055531D01*
X1008158Y-9055531D02*
X1017682Y-9074579D01*
X1017682Y-9074579D02*
X1027205Y-9112674D01*
X1027205Y-9112674D02*
X1027205Y-9160293D01*
X1027205Y-9160293D02*
X1017682Y-9198389D01*
X1017682Y-9198389D02*
X1008158Y-9217436D01*
X1008158Y-9217436D02*
X998634Y-9226960D01*
X998634Y-9226960D02*
X979586Y-9236484D01*
X979586Y-9236484D02*
X960539Y-9236484D01*
X960539Y-9236484D02*
X941491Y-9226960D01*
X941491Y-9226960D02*
X931967Y-9217436D01*
X931967Y-9217436D02*
X922443Y-9198389D01*
X922443Y-9198389D02*
X912920Y-9160293D01*
X912920Y-9160293D02*
X912920Y-9112674D01*
X912920Y-9112674D02*
X922443Y-9074579D01*
X922443Y-9074579D02*
X931967Y-9055531D01*
X931967Y-9055531D02*
X941491Y-9046008D01*
X941491Y-9046008D02*
X960539Y-9036484D01*
X1112920Y-9236484D02*
X1112920Y-9103150D01*
X1112920Y-9122198D02*
X1122444Y-9112674D01*
X1122444Y-9112674D02*
X1141491Y-9103150D01*
X1141491Y-9103150D02*
X1170063Y-9103150D01*
X1170063Y-9103150D02*
X1189110Y-9112674D01*
X1189110Y-9112674D02*
X1198634Y-9131722D01*
X1198634Y-9131722D02*
X1198634Y-9236484D01*
X1198634Y-9131722D02*
X1208158Y-9112674D01*
X1208158Y-9112674D02*
X1227205Y-9103150D01*
X1227205Y-9103150D02*
X1255777Y-9103150D01*
X1255777Y-9103150D02*
X1274825Y-9112674D01*
X1274825Y-9112674D02*
X1284348Y-9131722D01*
X1284348Y-9131722D02*
X1284348Y-9236484D01*
X1379586Y-9236484D02*
X1379586Y-9103150D01*
X1379586Y-9122198D02*
X1389110Y-9112674D01*
X1389110Y-9112674D02*
X1408158Y-9103150D01*
X1408158Y-9103150D02*
X1436729Y-9103150D01*
X1436729Y-9103150D02*
X1455777Y-9112674D01*
X1455777Y-9112674D02*
X1465301Y-9131722D01*
X1465301Y-9131722D02*
X1465301Y-9236484D01*
X1465301Y-9131722D02*
X1474824Y-9112674D01*
X1474824Y-9112674D02*
X1493872Y-9103150D01*
X1493872Y-9103150D02*
X1522443Y-9103150D01*
X1522443Y-9103150D02*
X1541491Y-9112674D01*
X1541491Y-9112674D02*
X1551015Y-9131722D01*
X1551015Y-9131722D02*
X1551015Y-9236484D01*
X1941491Y-9026960D02*
X1770063Y-9284103D01*
X2198634Y-9036484D02*
X2217682Y-9036484D01*
X2217682Y-9036484D02*
X2236729Y-9046008D01*
X2236729Y-9046008D02*
X2246253Y-9055531D01*
X2246253Y-9055531D02*
X2255777Y-9074579D01*
X2255777Y-9074579D02*
X2265301Y-9112674D01*
X2265301Y-9112674D02*
X2265301Y-9160293D01*
X2265301Y-9160293D02*
X2255777Y-9198389D01*
X2255777Y-9198389D02*
X2246253Y-9217436D01*
X2246253Y-9217436D02*
X2236729Y-9226960D01*
X2236729Y-9226960D02*
X2217682Y-9236484D01*
X2217682Y-9236484D02*
X2198634Y-9236484D01*
X2198634Y-9236484D02*
X2179587Y-9226960D01*
X2179587Y-9226960D02*
X2170063Y-9217436D01*
X2170063Y-9217436D02*
X2160539Y-9198389D01*
X2160539Y-9198389D02*
X2151015Y-9160293D01*
X2151015Y-9160293D02*
X2151015Y-9112674D01*
X2151015Y-9112674D02*
X2160539Y-9074579D01*
X2160539Y-9074579D02*
X2170063Y-9055531D01*
X2170063Y-9055531D02*
X2179587Y-9046008D01*
X2179587Y-9046008D02*
X2198634Y-9036484D01*
X2351015Y-9217436D02*
X2360539Y-9226960D01*
X2360539Y-9226960D02*
X2351015Y-9236484D01*
X2351015Y-9236484D02*
X2341491Y-9226960D01*
X2341491Y-9226960D02*
X2351015Y-9217436D01*
X2351015Y-9217436D02*
X2351015Y-9236484D01*
X2484348Y-9036484D02*
X2503396Y-9036484D01*
X2503396Y-9036484D02*
X2522444Y-9046008D01*
X2522444Y-9046008D02*
X2531968Y-9055531D01*
X2531968Y-9055531D02*
X2541491Y-9074579D01*
X2541491Y-9074579D02*
X2551015Y-9112674D01*
X2551015Y-9112674D02*
X2551015Y-9160293D01*
X2551015Y-9160293D02*
X2541491Y-9198389D01*
X2541491Y-9198389D02*
X2531968Y-9217436D01*
X2531968Y-9217436D02*
X2522444Y-9226960D01*
X2522444Y-9226960D02*
X2503396Y-9236484D01*
X2503396Y-9236484D02*
X2484348Y-9236484D01*
X2484348Y-9236484D02*
X2465301Y-9226960D01*
X2465301Y-9226960D02*
X2455777Y-9217436D01*
X2455777Y-9217436D02*
X2446253Y-9198389D01*
X2446253Y-9198389D02*
X2436729Y-9160293D01*
X2436729Y-9160293D02*
X2436729Y-9112674D01*
X2436729Y-9112674D02*
X2446253Y-9074579D01*
X2446253Y-9074579D02*
X2455777Y-9055531D01*
X2455777Y-9055531D02*
X2465301Y-9046008D01*
X2465301Y-9046008D02*
X2484348Y-9036484D01*
X2741491Y-9236484D02*
X2627206Y-9236484D01*
X2684348Y-9236484D02*
X2684348Y-9036484D01*
X2684348Y-9036484D02*
X2665301Y-9065055D01*
X2665301Y-9065055D02*
X2646253Y-9084103D01*
X2646253Y-9084103D02*
X2627206Y-9093627D01*
X2922444Y-9036484D02*
X2827206Y-9036484D01*
X2827206Y-9036484D02*
X2817682Y-9131722D01*
X2817682Y-9131722D02*
X2827206Y-9122198D01*
X2827206Y-9122198D02*
X2846253Y-9112674D01*
X2846253Y-9112674D02*
X2893872Y-9112674D01*
X2893872Y-9112674D02*
X2912920Y-9122198D01*
X2912920Y-9122198D02*
X2922444Y-9131722D01*
X2922444Y-9131722D02*
X2931967Y-9150770D01*
X2931967Y-9150770D02*
X2931967Y-9198389D01*
X2931967Y-9198389D02*
X2922444Y-9217436D01*
X2922444Y-9217436D02*
X2912920Y-9226960D01*
X2912920Y-9226960D02*
X2893872Y-9236484D01*
X2893872Y-9236484D02*
X2846253Y-9236484D01*
X2846253Y-9236484D02*
X2827206Y-9226960D01*
X2827206Y-9226960D02*
X2817682Y-9217436D01*
X2998634Y-9036484D02*
X3131967Y-9036484D01*
X3131967Y-9036484D02*
X3046253Y-9236484D01*
X3198634Y-9036484D02*
X3198634Y-9074579D01*
X3274825Y-9036484D02*
X3274825Y-9074579D01*
X3570063Y-9312674D02*
X3560539Y-9303150D01*
X3560539Y-9303150D02*
X3541491Y-9274579D01*
X3541491Y-9274579D02*
X3531968Y-9255531D01*
X3531968Y-9255531D02*
X3522444Y-9226960D01*
X3522444Y-9226960D02*
X3512920Y-9179341D01*
X3512920Y-9179341D02*
X3512920Y-9141246D01*
X3512920Y-9141246D02*
X3522444Y-9093627D01*
X3522444Y-9093627D02*
X3531968Y-9065055D01*
X3531968Y-9065055D02*
X3541491Y-9046008D01*
X3541491Y-9046008D02*
X3560539Y-9017436D01*
X3560539Y-9017436D02*
X3570063Y-9007912D01*
X3751015Y-9236484D02*
X3636729Y-9236484D01*
X3693872Y-9236484D02*
X3693872Y-9036484D01*
X3693872Y-9036484D02*
X3674825Y-9065055D01*
X3674825Y-9065055D02*
X3655777Y-9084103D01*
X3655777Y-9084103D02*
X3636729Y-9093627D01*
X3817682Y-9036484D02*
X3951015Y-9036484D01*
X3951015Y-9036484D02*
X3865301Y-9236484D01*
X4179587Y-9236484D02*
X4179587Y-9036484D01*
X4265301Y-9236484D02*
X4265301Y-9131722D01*
X4265301Y-9131722D02*
X4255777Y-9112674D01*
X4255777Y-9112674D02*
X4236730Y-9103150D01*
X4236730Y-9103150D02*
X4208158Y-9103150D01*
X4208158Y-9103150D02*
X4189110Y-9112674D01*
X4189110Y-9112674D02*
X4179587Y-9122198D01*
X4389111Y-9236484D02*
X4370063Y-9226960D01*
X4370063Y-9226960D02*
X4360539Y-9217436D01*
X4360539Y-9217436D02*
X4351015Y-9198389D01*
X4351015Y-9198389D02*
X4351015Y-9141246D01*
X4351015Y-9141246D02*
X4360539Y-9122198D01*
X4360539Y-9122198D02*
X4370063Y-9112674D01*
X4370063Y-9112674D02*
X4389111Y-9103150D01*
X4389111Y-9103150D02*
X4417682Y-9103150D01*
X4417682Y-9103150D02*
X4436730Y-9112674D01*
X4436730Y-9112674D02*
X4446253Y-9122198D01*
X4446253Y-9122198D02*
X4455777Y-9141246D01*
X4455777Y-9141246D02*
X4455777Y-9198389D01*
X4455777Y-9198389D02*
X4446253Y-9217436D01*
X4446253Y-9217436D02*
X4436730Y-9226960D01*
X4436730Y-9226960D02*
X4417682Y-9236484D01*
X4417682Y-9236484D02*
X4389111Y-9236484D01*
X4570063Y-9236484D02*
X4551015Y-9226960D01*
X4551015Y-9226960D02*
X4541492Y-9207912D01*
X4541492Y-9207912D02*
X4541492Y-9036484D01*
X4722444Y-9226960D02*
X4703396Y-9236484D01*
X4703396Y-9236484D02*
X4665301Y-9236484D01*
X4665301Y-9236484D02*
X4646253Y-9226960D01*
X4646253Y-9226960D02*
X4636730Y-9207912D01*
X4636730Y-9207912D02*
X4636730Y-9131722D01*
X4636730Y-9131722D02*
X4646253Y-9112674D01*
X4646253Y-9112674D02*
X4665301Y-9103150D01*
X4665301Y-9103150D02*
X4703396Y-9103150D01*
X4703396Y-9103150D02*
X4722444Y-9112674D01*
X4722444Y-9112674D02*
X4731968Y-9131722D01*
X4731968Y-9131722D02*
X4731968Y-9150770D01*
X4731968Y-9150770D02*
X4636730Y-9169817D01*
X4808158Y-9226960D02*
X4827206Y-9236484D01*
X4827206Y-9236484D02*
X4865301Y-9236484D01*
X4865301Y-9236484D02*
X4884349Y-9226960D01*
X4884349Y-9226960D02*
X4893873Y-9207912D01*
X4893873Y-9207912D02*
X4893873Y-9198389D01*
X4893873Y-9198389D02*
X4884349Y-9179341D01*
X4884349Y-9179341D02*
X4865301Y-9169817D01*
X4865301Y-9169817D02*
X4836730Y-9169817D01*
X4836730Y-9169817D02*
X4817682Y-9160293D01*
X4817682Y-9160293D02*
X4808158Y-9141246D01*
X4808158Y-9141246D02*
X4808158Y-9131722D01*
X4808158Y-9131722D02*
X4817682Y-9112674D01*
X4817682Y-9112674D02*
X4836730Y-9103150D01*
X4836730Y-9103150D02*
X4865301Y-9103150D01*
X4865301Y-9103150D02*
X4884349Y-9112674D01*
X4960539Y-9312674D02*
X4970063Y-9303150D01*
X4970063Y-9303150D02*
X4989111Y-9274579D01*
X4989111Y-9274579D02*
X4998634Y-9255531D01*
X4998634Y-9255531D02*
X5008158Y-9226960D01*
X5008158Y-9226960D02*
X5017682Y-9179341D01*
X5017682Y-9179341D02*
X5017682Y-9141246D01*
X5017682Y-9141246D02*
X5008158Y-9093627D01*
X5008158Y-9093627D02*
X4998634Y-9065055D01*
X4998634Y-9065055D02*
X4989111Y-9046008D01*
X4989111Y-9046008D02*
X4970063Y-9017436D01*
X4970063Y-9017436D02*
X4960539Y-9007912D01*
D10*
X-5000Y-9409000D02*
G75*
G02*
X-85000Y-9409000I-40000J0D01*
G01*
X-85000Y-9409000D02*
G75*
G02*
X-5000Y-9409000I40000J0D01*
G01*
D11*
X293872Y-9300484D02*
X312920Y-9300484D01*
X312920Y-9300484D02*
X331967Y-9310008D01*
X331967Y-9310008D02*
X341491Y-9319531D01*
X341491Y-9319531D02*
X351015Y-9338579D01*
X351015Y-9338579D02*
X360539Y-9376674D01*
X360539Y-9376674D02*
X360539Y-9424293D01*
X360539Y-9424293D02*
X351015Y-9462389D01*
X351015Y-9462389D02*
X341491Y-9481436D01*
X341491Y-9481436D02*
X331967Y-9490960D01*
X331967Y-9490960D02*
X312920Y-9500484D01*
X312920Y-9500484D02*
X293872Y-9500484D01*
X293872Y-9500484D02*
X274824Y-9490960D01*
X274824Y-9490960D02*
X265301Y-9481436D01*
X265301Y-9481436D02*
X255777Y-9462389D01*
X255777Y-9462389D02*
X246253Y-9424293D01*
X246253Y-9424293D02*
X246253Y-9376674D01*
X246253Y-9376674D02*
X255777Y-9338579D01*
X255777Y-9338579D02*
X265301Y-9319531D01*
X265301Y-9319531D02*
X274824Y-9310008D01*
X274824Y-9310008D02*
X293872Y-9300484D01*
X446253Y-9481436D02*
X455777Y-9490960D01*
X455777Y-9490960D02*
X446253Y-9500484D01*
X446253Y-9500484D02*
X436729Y-9490960D01*
X436729Y-9490960D02*
X446253Y-9481436D01*
X446253Y-9481436D02*
X446253Y-9500484D01*
X570063Y-9386198D02*
X551015Y-9376674D01*
X551015Y-9376674D02*
X541491Y-9367150D01*
X541491Y-9367150D02*
X531967Y-9348103D01*
X531967Y-9348103D02*
X531967Y-9338579D01*
X531967Y-9338579D02*
X541491Y-9319531D01*
X541491Y-9319531D02*
X551015Y-9310008D01*
X551015Y-9310008D02*
X570063Y-9300484D01*
X570063Y-9300484D02*
X608158Y-9300484D01*
X608158Y-9300484D02*
X627205Y-9310008D01*
X627205Y-9310008D02*
X636729Y-9319531D01*
X636729Y-9319531D02*
X646253Y-9338579D01*
X646253Y-9338579D02*
X646253Y-9348103D01*
X646253Y-9348103D02*
X636729Y-9367150D01*
X636729Y-9367150D02*
X627205Y-9376674D01*
X627205Y-9376674D02*
X608158Y-9386198D01*
X608158Y-9386198D02*
X570063Y-9386198D01*
X570063Y-9386198D02*
X551015Y-9395722D01*
X551015Y-9395722D02*
X541491Y-9405246D01*
X541491Y-9405246D02*
X531967Y-9424293D01*
X531967Y-9424293D02*
X531967Y-9462389D01*
X531967Y-9462389D02*
X541491Y-9481436D01*
X541491Y-9481436D02*
X551015Y-9490960D01*
X551015Y-9490960D02*
X570063Y-9500484D01*
X570063Y-9500484D02*
X608158Y-9500484D01*
X608158Y-9500484D02*
X627205Y-9490960D01*
X627205Y-9490960D02*
X636729Y-9481436D01*
X636729Y-9481436D02*
X646253Y-9462389D01*
X646253Y-9462389D02*
X646253Y-9424293D01*
X646253Y-9424293D02*
X636729Y-9405246D01*
X636729Y-9405246D02*
X627205Y-9395722D01*
X627205Y-9395722D02*
X608158Y-9386198D01*
X770062Y-9300484D02*
X789110Y-9300484D01*
X789110Y-9300484D02*
X808158Y-9310008D01*
X808158Y-9310008D02*
X817682Y-9319531D01*
X817682Y-9319531D02*
X827205Y-9338579D01*
X827205Y-9338579D02*
X836729Y-9376674D01*
X836729Y-9376674D02*
X836729Y-9424293D01*
X836729Y-9424293D02*
X827205Y-9462389D01*
X827205Y-9462389D02*
X817682Y-9481436D01*
X817682Y-9481436D02*
X808158Y-9490960D01*
X808158Y-9490960D02*
X789110Y-9500484D01*
X789110Y-9500484D02*
X770062Y-9500484D01*
X770062Y-9500484D02*
X751015Y-9490960D01*
X751015Y-9490960D02*
X741491Y-9481436D01*
X741491Y-9481436D02*
X731967Y-9462389D01*
X731967Y-9462389D02*
X722443Y-9424293D01*
X722443Y-9424293D02*
X722443Y-9376674D01*
X722443Y-9376674D02*
X731967Y-9338579D01*
X731967Y-9338579D02*
X741491Y-9319531D01*
X741491Y-9319531D02*
X751015Y-9310008D01*
X751015Y-9310008D02*
X770062Y-9300484D01*
X960539Y-9300484D02*
X979586Y-9300484D01*
X979586Y-9300484D02*
X998634Y-9310008D01*
X998634Y-9310008D02*
X1008158Y-9319531D01*
X1008158Y-9319531D02*
X1017682Y-9338579D01*
X1017682Y-9338579D02*
X1027205Y-9376674D01*
X1027205Y-9376674D02*
X1027205Y-9424293D01*
X1027205Y-9424293D02*
X1017682Y-9462389D01*
X1017682Y-9462389D02*
X1008158Y-9481436D01*
X1008158Y-9481436D02*
X998634Y-9490960D01*
X998634Y-9490960D02*
X979586Y-9500484D01*
X979586Y-9500484D02*
X960539Y-9500484D01*
X960539Y-9500484D02*
X941491Y-9490960D01*
X941491Y-9490960D02*
X931967Y-9481436D01*
X931967Y-9481436D02*
X922443Y-9462389D01*
X922443Y-9462389D02*
X912920Y-9424293D01*
X912920Y-9424293D02*
X912920Y-9376674D01*
X912920Y-9376674D02*
X922443Y-9338579D01*
X922443Y-9338579D02*
X931967Y-9319531D01*
X931967Y-9319531D02*
X941491Y-9310008D01*
X941491Y-9310008D02*
X960539Y-9300484D01*
X1112920Y-9500484D02*
X1112920Y-9367150D01*
X1112920Y-9386198D02*
X1122444Y-9376674D01*
X1122444Y-9376674D02*
X1141491Y-9367150D01*
X1141491Y-9367150D02*
X1170063Y-9367150D01*
X1170063Y-9367150D02*
X1189110Y-9376674D01*
X1189110Y-9376674D02*
X1198634Y-9395722D01*
X1198634Y-9395722D02*
X1198634Y-9500484D01*
X1198634Y-9395722D02*
X1208158Y-9376674D01*
X1208158Y-9376674D02*
X1227205Y-9367150D01*
X1227205Y-9367150D02*
X1255777Y-9367150D01*
X1255777Y-9367150D02*
X1274825Y-9376674D01*
X1274825Y-9376674D02*
X1284348Y-9395722D01*
X1284348Y-9395722D02*
X1284348Y-9500484D01*
X1379586Y-9500484D02*
X1379586Y-9367150D01*
X1379586Y-9386198D02*
X1389110Y-9376674D01*
X1389110Y-9376674D02*
X1408158Y-9367150D01*
X1408158Y-9367150D02*
X1436729Y-9367150D01*
X1436729Y-9367150D02*
X1455777Y-9376674D01*
X1455777Y-9376674D02*
X1465301Y-9395722D01*
X1465301Y-9395722D02*
X1465301Y-9500484D01*
X1465301Y-9395722D02*
X1474824Y-9376674D01*
X1474824Y-9376674D02*
X1493872Y-9367150D01*
X1493872Y-9367150D02*
X1522443Y-9367150D01*
X1522443Y-9367150D02*
X1541491Y-9376674D01*
X1541491Y-9376674D02*
X1551015Y-9395722D01*
X1551015Y-9395722D02*
X1551015Y-9500484D01*
X1941491Y-9290960D02*
X1770063Y-9548103D01*
X2198634Y-9300484D02*
X2217682Y-9300484D01*
X2217682Y-9300484D02*
X2236729Y-9310008D01*
X2236729Y-9310008D02*
X2246253Y-9319531D01*
X2246253Y-9319531D02*
X2255777Y-9338579D01*
X2255777Y-9338579D02*
X2265301Y-9376674D01*
X2265301Y-9376674D02*
X2265301Y-9424293D01*
X2265301Y-9424293D02*
X2255777Y-9462389D01*
X2255777Y-9462389D02*
X2246253Y-9481436D01*
X2246253Y-9481436D02*
X2236729Y-9490960D01*
X2236729Y-9490960D02*
X2217682Y-9500484D01*
X2217682Y-9500484D02*
X2198634Y-9500484D01*
X2198634Y-9500484D02*
X2179587Y-9490960D01*
X2179587Y-9490960D02*
X2170063Y-9481436D01*
X2170063Y-9481436D02*
X2160539Y-9462389D01*
X2160539Y-9462389D02*
X2151015Y-9424293D01*
X2151015Y-9424293D02*
X2151015Y-9376674D01*
X2151015Y-9376674D02*
X2160539Y-9338579D01*
X2160539Y-9338579D02*
X2170063Y-9319531D01*
X2170063Y-9319531D02*
X2179587Y-9310008D01*
X2179587Y-9310008D02*
X2198634Y-9300484D01*
X2351015Y-9481436D02*
X2360539Y-9490960D01*
X2360539Y-9490960D02*
X2351015Y-9500484D01*
X2351015Y-9500484D02*
X2341491Y-9490960D01*
X2341491Y-9490960D02*
X2351015Y-9481436D01*
X2351015Y-9481436D02*
X2351015Y-9500484D01*
X2484348Y-9300484D02*
X2503396Y-9300484D01*
X2503396Y-9300484D02*
X2522444Y-9310008D01*
X2522444Y-9310008D02*
X2531968Y-9319531D01*
X2531968Y-9319531D02*
X2541491Y-9338579D01*
X2541491Y-9338579D02*
X2551015Y-9376674D01*
X2551015Y-9376674D02*
X2551015Y-9424293D01*
X2551015Y-9424293D02*
X2541491Y-9462389D01*
X2541491Y-9462389D02*
X2531968Y-9481436D01*
X2531968Y-9481436D02*
X2522444Y-9490960D01*
X2522444Y-9490960D02*
X2503396Y-9500484D01*
X2503396Y-9500484D02*
X2484348Y-9500484D01*
X2484348Y-9500484D02*
X2465301Y-9490960D01*
X2465301Y-9490960D02*
X2455777Y-9481436D01*
X2455777Y-9481436D02*
X2446253Y-9462389D01*
X2446253Y-9462389D02*
X2436729Y-9424293D01*
X2436729Y-9424293D02*
X2436729Y-9376674D01*
X2436729Y-9376674D02*
X2446253Y-9338579D01*
X2446253Y-9338579D02*
X2455777Y-9319531D01*
X2455777Y-9319531D02*
X2465301Y-9310008D01*
X2465301Y-9310008D02*
X2484348Y-9300484D01*
X2617682Y-9300484D02*
X2741491Y-9300484D01*
X2741491Y-9300484D02*
X2674825Y-9376674D01*
X2674825Y-9376674D02*
X2703396Y-9376674D01*
X2703396Y-9376674D02*
X2722444Y-9386198D01*
X2722444Y-9386198D02*
X2731968Y-9395722D01*
X2731968Y-9395722D02*
X2741491Y-9414770D01*
X2741491Y-9414770D02*
X2741491Y-9462389D01*
X2741491Y-9462389D02*
X2731968Y-9481436D01*
X2731968Y-9481436D02*
X2722444Y-9490960D01*
X2722444Y-9490960D02*
X2703396Y-9500484D01*
X2703396Y-9500484D02*
X2646253Y-9500484D01*
X2646253Y-9500484D02*
X2627206Y-9490960D01*
X2627206Y-9490960D02*
X2617682Y-9481436D01*
X2931967Y-9500484D02*
X2817682Y-9500484D01*
X2874825Y-9500484D02*
X2874825Y-9300484D01*
X2874825Y-9300484D02*
X2855777Y-9329055D01*
X2855777Y-9329055D02*
X2836729Y-9348103D01*
X2836729Y-9348103D02*
X2817682Y-9357627D01*
X3112920Y-9300484D02*
X3017682Y-9300484D01*
X3017682Y-9300484D02*
X3008158Y-9395722D01*
X3008158Y-9395722D02*
X3017682Y-9386198D01*
X3017682Y-9386198D02*
X3036729Y-9376674D01*
X3036729Y-9376674D02*
X3084348Y-9376674D01*
X3084348Y-9376674D02*
X3103396Y-9386198D01*
X3103396Y-9386198D02*
X3112920Y-9395722D01*
X3112920Y-9395722D02*
X3122444Y-9414770D01*
X3122444Y-9414770D02*
X3122444Y-9462389D01*
X3122444Y-9462389D02*
X3112920Y-9481436D01*
X3112920Y-9481436D02*
X3103396Y-9490960D01*
X3103396Y-9490960D02*
X3084348Y-9500484D01*
X3084348Y-9500484D02*
X3036729Y-9500484D01*
X3036729Y-9500484D02*
X3017682Y-9490960D01*
X3017682Y-9490960D02*
X3008158Y-9481436D01*
X3198634Y-9300484D02*
X3198634Y-9338579D01*
X3274825Y-9300484D02*
X3274825Y-9338579D01*
X3570063Y-9576674D02*
X3560539Y-9567150D01*
X3560539Y-9567150D02*
X3541491Y-9538579D01*
X3541491Y-9538579D02*
X3531968Y-9519531D01*
X3531968Y-9519531D02*
X3522444Y-9490960D01*
X3522444Y-9490960D02*
X3512920Y-9443341D01*
X3512920Y-9443341D02*
X3512920Y-9405246D01*
X3512920Y-9405246D02*
X3522444Y-9357627D01*
X3522444Y-9357627D02*
X3531968Y-9329055D01*
X3531968Y-9329055D02*
X3541491Y-9310008D01*
X3541491Y-9310008D02*
X3560539Y-9281436D01*
X3560539Y-9281436D02*
X3570063Y-9271912D01*
X3627206Y-9300484D02*
X3760539Y-9300484D01*
X3760539Y-9300484D02*
X3674825Y-9500484D01*
X3827206Y-9319531D02*
X3836729Y-9310008D01*
X3836729Y-9310008D02*
X3855777Y-9300484D01*
X3855777Y-9300484D02*
X3903396Y-9300484D01*
X3903396Y-9300484D02*
X3922444Y-9310008D01*
X3922444Y-9310008D02*
X3931968Y-9319531D01*
X3931968Y-9319531D02*
X3941491Y-9338579D01*
X3941491Y-9338579D02*
X3941491Y-9357627D01*
X3941491Y-9357627D02*
X3931968Y-9386198D01*
X3931968Y-9386198D02*
X3817682Y-9500484D01*
X3817682Y-9500484D02*
X3941491Y-9500484D01*
X4179587Y-9500484D02*
X4179587Y-9300484D01*
X4265301Y-9500484D02*
X4265301Y-9395722D01*
X4265301Y-9395722D02*
X4255777Y-9376674D01*
X4255777Y-9376674D02*
X4236730Y-9367150D01*
X4236730Y-9367150D02*
X4208158Y-9367150D01*
X4208158Y-9367150D02*
X4189110Y-9376674D01*
X4189110Y-9376674D02*
X4179587Y-9386198D01*
X4389111Y-9500484D02*
X4370063Y-9490960D01*
X4370063Y-9490960D02*
X4360539Y-9481436D01*
X4360539Y-9481436D02*
X4351015Y-9462389D01*
X4351015Y-9462389D02*
X4351015Y-9405246D01*
X4351015Y-9405246D02*
X4360539Y-9386198D01*
X4360539Y-9386198D02*
X4370063Y-9376674D01*
X4370063Y-9376674D02*
X4389111Y-9367150D01*
X4389111Y-9367150D02*
X4417682Y-9367150D01*
X4417682Y-9367150D02*
X4436730Y-9376674D01*
X4436730Y-9376674D02*
X4446253Y-9386198D01*
X4446253Y-9386198D02*
X4455777Y-9405246D01*
X4455777Y-9405246D02*
X4455777Y-9462389D01*
X4455777Y-9462389D02*
X4446253Y-9481436D01*
X4446253Y-9481436D02*
X4436730Y-9490960D01*
X4436730Y-9490960D02*
X4417682Y-9500484D01*
X4417682Y-9500484D02*
X4389111Y-9500484D01*
X4570063Y-9500484D02*
X4551015Y-9490960D01*
X4551015Y-9490960D02*
X4541492Y-9471912D01*
X4541492Y-9471912D02*
X4541492Y-9300484D01*
X4722444Y-9490960D02*
X4703396Y-9500484D01*
X4703396Y-9500484D02*
X4665301Y-9500484D01*
X4665301Y-9500484D02*
X4646253Y-9490960D01*
X4646253Y-9490960D02*
X4636730Y-9471912D01*
X4636730Y-9471912D02*
X4636730Y-9395722D01*
X4636730Y-9395722D02*
X4646253Y-9376674D01*
X4646253Y-9376674D02*
X4665301Y-9367150D01*
X4665301Y-9367150D02*
X4703396Y-9367150D01*
X4703396Y-9367150D02*
X4722444Y-9376674D01*
X4722444Y-9376674D02*
X4731968Y-9395722D01*
X4731968Y-9395722D02*
X4731968Y-9414770D01*
X4731968Y-9414770D02*
X4636730Y-9433817D01*
X4808158Y-9490960D02*
X4827206Y-9500484D01*
X4827206Y-9500484D02*
X4865301Y-9500484D01*
X4865301Y-9500484D02*
X4884349Y-9490960D01*
X4884349Y-9490960D02*
X4893873Y-9471912D01*
X4893873Y-9471912D02*
X4893873Y-9462389D01*
X4893873Y-9462389D02*
X4884349Y-9443341D01*
X4884349Y-9443341D02*
X4865301Y-9433817D01*
X4865301Y-9433817D02*
X4836730Y-9433817D01*
X4836730Y-9433817D02*
X4817682Y-9424293D01*
X4817682Y-9424293D02*
X4808158Y-9405246D01*
X4808158Y-9405246D02*
X4808158Y-9395722D01*
X4808158Y-9395722D02*
X4817682Y-9376674D01*
X4817682Y-9376674D02*
X4836730Y-9367150D01*
X4836730Y-9367150D02*
X4865301Y-9367150D01*
X4865301Y-9367150D02*
X4884349Y-9376674D01*
X4960539Y-9576674D02*
X4970063Y-9567150D01*
X4970063Y-9567150D02*
X4989111Y-9538579D01*
X4989111Y-9538579D02*
X4998634Y-9519531D01*
X4998634Y-9519531D02*
X5008158Y-9490960D01*
X5008158Y-9490960D02*
X5017682Y-9443341D01*
X5017682Y-9443341D02*
X5017682Y-9405246D01*
X5017682Y-9405246D02*
X5008158Y-9357627D01*
X5008158Y-9357627D02*
X4998634Y-9329055D01*
X4998634Y-9329055D02*
X4989111Y-9310008D01*
X4989111Y-9310008D02*
X4970063Y-9281436D01*
X4970063Y-9281436D02*
X4960539Y-9271912D01*
D10*
X-55000Y-9623000D02*
X-55000Y-9723000D01*
X-105000Y-9673000D02*
X-5000Y-9673000D01*
D11*
X360539Y-9764484D02*
X246253Y-9764484D01*
X303396Y-9764484D02*
X303396Y-9564484D01*
X303396Y-9564484D02*
X284348Y-9593055D01*
X284348Y-9593055D02*
X265301Y-9612103D01*
X265301Y-9612103D02*
X246253Y-9621627D01*
X446253Y-9745436D02*
X455777Y-9754960D01*
X455777Y-9754960D02*
X446253Y-9764484D01*
X446253Y-9764484D02*
X436729Y-9754960D01*
X436729Y-9754960D02*
X446253Y-9745436D01*
X446253Y-9745436D02*
X446253Y-9764484D01*
X579586Y-9564484D02*
X598634Y-9564484D01*
X598634Y-9564484D02*
X617682Y-9574008D01*
X617682Y-9574008D02*
X627205Y-9583531D01*
X627205Y-9583531D02*
X636729Y-9602579D01*
X636729Y-9602579D02*
X646253Y-9640674D01*
X646253Y-9640674D02*
X646253Y-9688293D01*
X646253Y-9688293D02*
X636729Y-9726389D01*
X636729Y-9726389D02*
X627205Y-9745436D01*
X627205Y-9745436D02*
X617682Y-9754960D01*
X617682Y-9754960D02*
X598634Y-9764484D01*
X598634Y-9764484D02*
X579586Y-9764484D01*
X579586Y-9764484D02*
X560539Y-9754960D01*
X560539Y-9754960D02*
X551015Y-9745436D01*
X551015Y-9745436D02*
X541491Y-9726389D01*
X541491Y-9726389D02*
X531967Y-9688293D01*
X531967Y-9688293D02*
X531967Y-9640674D01*
X531967Y-9640674D02*
X541491Y-9602579D01*
X541491Y-9602579D02*
X551015Y-9583531D01*
X551015Y-9583531D02*
X560539Y-9574008D01*
X560539Y-9574008D02*
X579586Y-9564484D01*
X770062Y-9564484D02*
X789110Y-9564484D01*
X789110Y-9564484D02*
X808158Y-9574008D01*
X808158Y-9574008D02*
X817682Y-9583531D01*
X817682Y-9583531D02*
X827205Y-9602579D01*
X827205Y-9602579D02*
X836729Y-9640674D01*
X836729Y-9640674D02*
X836729Y-9688293D01*
X836729Y-9688293D02*
X827205Y-9726389D01*
X827205Y-9726389D02*
X817682Y-9745436D01*
X817682Y-9745436D02*
X808158Y-9754960D01*
X808158Y-9754960D02*
X789110Y-9764484D01*
X789110Y-9764484D02*
X770062Y-9764484D01*
X770062Y-9764484D02*
X751015Y-9754960D01*
X751015Y-9754960D02*
X741491Y-9745436D01*
X741491Y-9745436D02*
X731967Y-9726389D01*
X731967Y-9726389D02*
X722443Y-9688293D01*
X722443Y-9688293D02*
X722443Y-9640674D01*
X722443Y-9640674D02*
X731967Y-9602579D01*
X731967Y-9602579D02*
X741491Y-9583531D01*
X741491Y-9583531D02*
X751015Y-9574008D01*
X751015Y-9574008D02*
X770062Y-9564484D01*
X960539Y-9564484D02*
X979586Y-9564484D01*
X979586Y-9564484D02*
X998634Y-9574008D01*
X998634Y-9574008D02*
X1008158Y-9583531D01*
X1008158Y-9583531D02*
X1017682Y-9602579D01*
X1017682Y-9602579D02*
X1027205Y-9640674D01*
X1027205Y-9640674D02*
X1027205Y-9688293D01*
X1027205Y-9688293D02*
X1017682Y-9726389D01*
X1017682Y-9726389D02*
X1008158Y-9745436D01*
X1008158Y-9745436D02*
X998634Y-9754960D01*
X998634Y-9754960D02*
X979586Y-9764484D01*
X979586Y-9764484D02*
X960539Y-9764484D01*
X960539Y-9764484D02*
X941491Y-9754960D01*
X941491Y-9754960D02*
X931967Y-9745436D01*
X931967Y-9745436D02*
X922443Y-9726389D01*
X922443Y-9726389D02*
X912920Y-9688293D01*
X912920Y-9688293D02*
X912920Y-9640674D01*
X912920Y-9640674D02*
X922443Y-9602579D01*
X922443Y-9602579D02*
X931967Y-9583531D01*
X931967Y-9583531D02*
X941491Y-9574008D01*
X941491Y-9574008D02*
X960539Y-9564484D01*
X1112920Y-9764484D02*
X1112920Y-9631150D01*
X1112920Y-9650198D02*
X1122444Y-9640674D01*
X1122444Y-9640674D02*
X1141491Y-9631150D01*
X1141491Y-9631150D02*
X1170063Y-9631150D01*
X1170063Y-9631150D02*
X1189110Y-9640674D01*
X1189110Y-9640674D02*
X1198634Y-9659722D01*
X1198634Y-9659722D02*
X1198634Y-9764484D01*
X1198634Y-9659722D02*
X1208158Y-9640674D01*
X1208158Y-9640674D02*
X1227205Y-9631150D01*
X1227205Y-9631150D02*
X1255777Y-9631150D01*
X1255777Y-9631150D02*
X1274825Y-9640674D01*
X1274825Y-9640674D02*
X1284348Y-9659722D01*
X1284348Y-9659722D02*
X1284348Y-9764484D01*
X1379586Y-9764484D02*
X1379586Y-9631150D01*
X1379586Y-9650198D02*
X1389110Y-9640674D01*
X1389110Y-9640674D02*
X1408158Y-9631150D01*
X1408158Y-9631150D02*
X1436729Y-9631150D01*
X1436729Y-9631150D02*
X1455777Y-9640674D01*
X1455777Y-9640674D02*
X1465301Y-9659722D01*
X1465301Y-9659722D02*
X1465301Y-9764484D01*
X1465301Y-9659722D02*
X1474824Y-9640674D01*
X1474824Y-9640674D02*
X1493872Y-9631150D01*
X1493872Y-9631150D02*
X1522443Y-9631150D01*
X1522443Y-9631150D02*
X1541491Y-9640674D01*
X1541491Y-9640674D02*
X1551015Y-9659722D01*
X1551015Y-9659722D02*
X1551015Y-9764484D01*
X1941491Y-9554960D02*
X1770063Y-9812103D01*
X2198634Y-9564484D02*
X2217682Y-9564484D01*
X2217682Y-9564484D02*
X2236729Y-9574008D01*
X2236729Y-9574008D02*
X2246253Y-9583531D01*
X2246253Y-9583531D02*
X2255777Y-9602579D01*
X2255777Y-9602579D02*
X2265301Y-9640674D01*
X2265301Y-9640674D02*
X2265301Y-9688293D01*
X2265301Y-9688293D02*
X2255777Y-9726389D01*
X2255777Y-9726389D02*
X2246253Y-9745436D01*
X2246253Y-9745436D02*
X2236729Y-9754960D01*
X2236729Y-9754960D02*
X2217682Y-9764484D01*
X2217682Y-9764484D02*
X2198634Y-9764484D01*
X2198634Y-9764484D02*
X2179587Y-9754960D01*
X2179587Y-9754960D02*
X2170063Y-9745436D01*
X2170063Y-9745436D02*
X2160539Y-9726389D01*
X2160539Y-9726389D02*
X2151015Y-9688293D01*
X2151015Y-9688293D02*
X2151015Y-9640674D01*
X2151015Y-9640674D02*
X2160539Y-9602579D01*
X2160539Y-9602579D02*
X2170063Y-9583531D01*
X2170063Y-9583531D02*
X2179587Y-9574008D01*
X2179587Y-9574008D02*
X2198634Y-9564484D01*
X2351015Y-9745436D02*
X2360539Y-9754960D01*
X2360539Y-9754960D02*
X2351015Y-9764484D01*
X2351015Y-9764484D02*
X2341491Y-9754960D01*
X2341491Y-9754960D02*
X2351015Y-9745436D01*
X2351015Y-9745436D02*
X2351015Y-9764484D01*
X2484348Y-9564484D02*
X2503396Y-9564484D01*
X2503396Y-9564484D02*
X2522444Y-9574008D01*
X2522444Y-9574008D02*
X2531968Y-9583531D01*
X2531968Y-9583531D02*
X2541491Y-9602579D01*
X2541491Y-9602579D02*
X2551015Y-9640674D01*
X2551015Y-9640674D02*
X2551015Y-9688293D01*
X2551015Y-9688293D02*
X2541491Y-9726389D01*
X2541491Y-9726389D02*
X2531968Y-9745436D01*
X2531968Y-9745436D02*
X2522444Y-9754960D01*
X2522444Y-9754960D02*
X2503396Y-9764484D01*
X2503396Y-9764484D02*
X2484348Y-9764484D01*
X2484348Y-9764484D02*
X2465301Y-9754960D01*
X2465301Y-9754960D02*
X2455777Y-9745436D01*
X2455777Y-9745436D02*
X2446253Y-9726389D01*
X2446253Y-9726389D02*
X2436729Y-9688293D01*
X2436729Y-9688293D02*
X2436729Y-9640674D01*
X2436729Y-9640674D02*
X2446253Y-9602579D01*
X2446253Y-9602579D02*
X2455777Y-9583531D01*
X2455777Y-9583531D02*
X2465301Y-9574008D01*
X2465301Y-9574008D02*
X2484348Y-9564484D01*
X2617682Y-9564484D02*
X2741491Y-9564484D01*
X2741491Y-9564484D02*
X2674825Y-9640674D01*
X2674825Y-9640674D02*
X2703396Y-9640674D01*
X2703396Y-9640674D02*
X2722444Y-9650198D01*
X2722444Y-9650198D02*
X2731968Y-9659722D01*
X2731968Y-9659722D02*
X2741491Y-9678770D01*
X2741491Y-9678770D02*
X2741491Y-9726389D01*
X2741491Y-9726389D02*
X2731968Y-9745436D01*
X2731968Y-9745436D02*
X2722444Y-9754960D01*
X2722444Y-9754960D02*
X2703396Y-9764484D01*
X2703396Y-9764484D02*
X2646253Y-9764484D01*
X2646253Y-9764484D02*
X2627206Y-9754960D01*
X2627206Y-9754960D02*
X2617682Y-9745436D01*
X2836729Y-9764484D02*
X2874825Y-9764484D01*
X2874825Y-9764484D02*
X2893872Y-9754960D01*
X2893872Y-9754960D02*
X2903396Y-9745436D01*
X2903396Y-9745436D02*
X2922444Y-9716865D01*
X2922444Y-9716865D02*
X2931967Y-9678770D01*
X2931967Y-9678770D02*
X2931967Y-9602579D01*
X2931967Y-9602579D02*
X2922444Y-9583531D01*
X2922444Y-9583531D02*
X2912920Y-9574008D01*
X2912920Y-9574008D02*
X2893872Y-9564484D01*
X2893872Y-9564484D02*
X2855777Y-9564484D01*
X2855777Y-9564484D02*
X2836729Y-9574008D01*
X2836729Y-9574008D02*
X2827206Y-9583531D01*
X2827206Y-9583531D02*
X2817682Y-9602579D01*
X2817682Y-9602579D02*
X2817682Y-9650198D01*
X2817682Y-9650198D02*
X2827206Y-9669246D01*
X2827206Y-9669246D02*
X2836729Y-9678770D01*
X2836729Y-9678770D02*
X2855777Y-9688293D01*
X2855777Y-9688293D02*
X2893872Y-9688293D01*
X2893872Y-9688293D02*
X2912920Y-9678770D01*
X2912920Y-9678770D02*
X2922444Y-9669246D01*
X2922444Y-9669246D02*
X2931967Y-9650198D01*
X3103396Y-9631150D02*
X3103396Y-9764484D01*
X3055777Y-9554960D02*
X3008158Y-9697817D01*
X3008158Y-9697817D02*
X3131967Y-9697817D01*
X3198634Y-9564484D02*
X3198634Y-9602579D01*
X3274825Y-9564484D02*
X3274825Y-9602579D01*
X3570063Y-9840674D02*
X3560539Y-9831150D01*
X3560539Y-9831150D02*
X3541491Y-9802579D01*
X3541491Y-9802579D02*
X3531968Y-9783531D01*
X3531968Y-9783531D02*
X3522444Y-9754960D01*
X3522444Y-9754960D02*
X3512920Y-9707341D01*
X3512920Y-9707341D02*
X3512920Y-9669246D01*
X3512920Y-9669246D02*
X3522444Y-9621627D01*
X3522444Y-9621627D02*
X3531968Y-9593055D01*
X3531968Y-9593055D02*
X3541491Y-9574008D01*
X3541491Y-9574008D02*
X3560539Y-9545436D01*
X3560539Y-9545436D02*
X3570063Y-9535912D01*
X3741491Y-9564484D02*
X3646253Y-9564484D01*
X3646253Y-9564484D02*
X3636729Y-9659722D01*
X3636729Y-9659722D02*
X3646253Y-9650198D01*
X3646253Y-9650198D02*
X3665301Y-9640674D01*
X3665301Y-9640674D02*
X3712920Y-9640674D01*
X3712920Y-9640674D02*
X3731968Y-9650198D01*
X3731968Y-9650198D02*
X3741491Y-9659722D01*
X3741491Y-9659722D02*
X3751015Y-9678770D01*
X3751015Y-9678770D02*
X3751015Y-9726389D01*
X3751015Y-9726389D02*
X3741491Y-9745436D01*
X3741491Y-9745436D02*
X3731968Y-9754960D01*
X3731968Y-9754960D02*
X3712920Y-9764484D01*
X3712920Y-9764484D02*
X3665301Y-9764484D01*
X3665301Y-9764484D02*
X3646253Y-9754960D01*
X3646253Y-9754960D02*
X3636729Y-9745436D01*
X3846253Y-9764484D02*
X3884348Y-9764484D01*
X3884348Y-9764484D02*
X3903396Y-9754960D01*
X3903396Y-9754960D02*
X3912920Y-9745436D01*
X3912920Y-9745436D02*
X3931968Y-9716865D01*
X3931968Y-9716865D02*
X3941491Y-9678770D01*
X3941491Y-9678770D02*
X3941491Y-9602579D01*
X3941491Y-9602579D02*
X3931968Y-9583531D01*
X3931968Y-9583531D02*
X3922444Y-9574008D01*
X3922444Y-9574008D02*
X3903396Y-9564484D01*
X3903396Y-9564484D02*
X3865301Y-9564484D01*
X3865301Y-9564484D02*
X3846253Y-9574008D01*
X3846253Y-9574008D02*
X3836729Y-9583531D01*
X3836729Y-9583531D02*
X3827206Y-9602579D01*
X3827206Y-9602579D02*
X3827206Y-9650198D01*
X3827206Y-9650198D02*
X3836729Y-9669246D01*
X3836729Y-9669246D02*
X3846253Y-9678770D01*
X3846253Y-9678770D02*
X3865301Y-9688293D01*
X3865301Y-9688293D02*
X3903396Y-9688293D01*
X3903396Y-9688293D02*
X3922444Y-9678770D01*
X3922444Y-9678770D02*
X3931968Y-9669246D01*
X3931968Y-9669246D02*
X3941491Y-9650198D01*
X4179587Y-9764484D02*
X4179587Y-9564484D01*
X4265301Y-9764484D02*
X4265301Y-9659722D01*
X4265301Y-9659722D02*
X4255777Y-9640674D01*
X4255777Y-9640674D02*
X4236730Y-9631150D01*
X4236730Y-9631150D02*
X4208158Y-9631150D01*
X4208158Y-9631150D02*
X4189110Y-9640674D01*
X4189110Y-9640674D02*
X4179587Y-9650198D01*
X4389111Y-9764484D02*
X4370063Y-9754960D01*
X4370063Y-9754960D02*
X4360539Y-9745436D01*
X4360539Y-9745436D02*
X4351015Y-9726389D01*
X4351015Y-9726389D02*
X4351015Y-9669246D01*
X4351015Y-9669246D02*
X4360539Y-9650198D01*
X4360539Y-9650198D02*
X4370063Y-9640674D01*
X4370063Y-9640674D02*
X4389111Y-9631150D01*
X4389111Y-9631150D02*
X4417682Y-9631150D01*
X4417682Y-9631150D02*
X4436730Y-9640674D01*
X4436730Y-9640674D02*
X4446253Y-9650198D01*
X4446253Y-9650198D02*
X4455777Y-9669246D01*
X4455777Y-9669246D02*
X4455777Y-9726389D01*
X4455777Y-9726389D02*
X4446253Y-9745436D01*
X4446253Y-9745436D02*
X4436730Y-9754960D01*
X4436730Y-9754960D02*
X4417682Y-9764484D01*
X4417682Y-9764484D02*
X4389111Y-9764484D01*
X4570063Y-9764484D02*
X4551015Y-9754960D01*
X4551015Y-9754960D02*
X4541492Y-9735912D01*
X4541492Y-9735912D02*
X4541492Y-9564484D01*
X4722444Y-9754960D02*
X4703396Y-9764484D01*
X4703396Y-9764484D02*
X4665301Y-9764484D01*
X4665301Y-9764484D02*
X4646253Y-9754960D01*
X4646253Y-9754960D02*
X4636730Y-9735912D01*
X4636730Y-9735912D02*
X4636730Y-9659722D01*
X4636730Y-9659722D02*
X4646253Y-9640674D01*
X4646253Y-9640674D02*
X4665301Y-9631150D01*
X4665301Y-9631150D02*
X4703396Y-9631150D01*
X4703396Y-9631150D02*
X4722444Y-9640674D01*
X4722444Y-9640674D02*
X4731968Y-9659722D01*
X4731968Y-9659722D02*
X4731968Y-9678770D01*
X4731968Y-9678770D02*
X4636730Y-9697817D01*
X4808158Y-9754960D02*
X4827206Y-9764484D01*
X4827206Y-9764484D02*
X4865301Y-9764484D01*
X4865301Y-9764484D02*
X4884349Y-9754960D01*
X4884349Y-9754960D02*
X4893873Y-9735912D01*
X4893873Y-9735912D02*
X4893873Y-9726389D01*
X4893873Y-9726389D02*
X4884349Y-9707341D01*
X4884349Y-9707341D02*
X4865301Y-9697817D01*
X4865301Y-9697817D02*
X4836730Y-9697817D01*
X4836730Y-9697817D02*
X4817682Y-9688293D01*
X4817682Y-9688293D02*
X4808158Y-9669246D01*
X4808158Y-9669246D02*
X4808158Y-9659722D01*
X4808158Y-9659722D02*
X4817682Y-9640674D01*
X4817682Y-9640674D02*
X4836730Y-9631150D01*
X4836730Y-9631150D02*
X4865301Y-9631150D01*
X4865301Y-9631150D02*
X4884349Y-9640674D01*
X4960539Y-9840674D02*
X4970063Y-9831150D01*
X4970063Y-9831150D02*
X4989111Y-9802579D01*
X4989111Y-9802579D02*
X4998634Y-9783531D01*
X4998634Y-9783531D02*
X5008158Y-9754960D01*
X5008158Y-9754960D02*
X5017682Y-9707341D01*
X5017682Y-9707341D02*
X5017682Y-9669246D01*
X5017682Y-9669246D02*
X5008158Y-9621627D01*
X5008158Y-9621627D02*
X4998634Y-9593055D01*
X4998634Y-9593055D02*
X4989111Y-9574008D01*
X4989111Y-9574008D02*
X4970063Y-9545436D01*
X4970063Y-9545436D02*
X4960539Y-9535912D01*
D12*
X-21109Y-9975891D02*
X-21109Y-9898109D01*
X-98891Y-9898109D01*
X-98891Y-9975891D01*
X-21109Y-9975891D01*
D11*
X360539Y-10028484D02*
X246253Y-10028484D01*
X303396Y-10028484D02*
X303396Y-9828484D01*
X303396Y-9828484D02*
X284348Y-9857055D01*
X284348Y-9857055D02*
X265301Y-9876103D01*
X265301Y-9876103D02*
X246253Y-9885627D01*
X446253Y-10009436D02*
X455777Y-10018960D01*
X455777Y-10018960D02*
X446253Y-10028484D01*
X446253Y-10028484D02*
X436729Y-10018960D01*
X436729Y-10018960D02*
X446253Y-10009436D01*
X446253Y-10009436D02*
X446253Y-10028484D01*
X646253Y-10028484D02*
X531967Y-10028484D01*
X589110Y-10028484D02*
X589110Y-9828484D01*
X589110Y-9828484D02*
X570063Y-9857055D01*
X570063Y-9857055D02*
X551015Y-9876103D01*
X551015Y-9876103D02*
X531967Y-9885627D01*
X770062Y-9828484D02*
X789110Y-9828484D01*
X789110Y-9828484D02*
X808158Y-9838008D01*
X808158Y-9838008D02*
X817682Y-9847531D01*
X817682Y-9847531D02*
X827205Y-9866579D01*
X827205Y-9866579D02*
X836729Y-9904674D01*
X836729Y-9904674D02*
X836729Y-9952293D01*
X836729Y-9952293D02*
X827205Y-9990389D01*
X827205Y-9990389D02*
X817682Y-10009436D01*
X817682Y-10009436D02*
X808158Y-10018960D01*
X808158Y-10018960D02*
X789110Y-10028484D01*
X789110Y-10028484D02*
X770062Y-10028484D01*
X770062Y-10028484D02*
X751015Y-10018960D01*
X751015Y-10018960D02*
X741491Y-10009436D01*
X741491Y-10009436D02*
X731967Y-9990389D01*
X731967Y-9990389D02*
X722443Y-9952293D01*
X722443Y-9952293D02*
X722443Y-9904674D01*
X722443Y-9904674D02*
X731967Y-9866579D01*
X731967Y-9866579D02*
X741491Y-9847531D01*
X741491Y-9847531D02*
X751015Y-9838008D01*
X751015Y-9838008D02*
X770062Y-9828484D01*
X960539Y-9828484D02*
X979586Y-9828484D01*
X979586Y-9828484D02*
X998634Y-9838008D01*
X998634Y-9838008D02*
X1008158Y-9847531D01*
X1008158Y-9847531D02*
X1017682Y-9866579D01*
X1017682Y-9866579D02*
X1027205Y-9904674D01*
X1027205Y-9904674D02*
X1027205Y-9952293D01*
X1027205Y-9952293D02*
X1017682Y-9990389D01*
X1017682Y-9990389D02*
X1008158Y-10009436D01*
X1008158Y-10009436D02*
X998634Y-10018960D01*
X998634Y-10018960D02*
X979586Y-10028484D01*
X979586Y-10028484D02*
X960539Y-10028484D01*
X960539Y-10028484D02*
X941491Y-10018960D01*
X941491Y-10018960D02*
X931967Y-10009436D01*
X931967Y-10009436D02*
X922443Y-9990389D01*
X922443Y-9990389D02*
X912920Y-9952293D01*
X912920Y-9952293D02*
X912920Y-9904674D01*
X912920Y-9904674D02*
X922443Y-9866579D01*
X922443Y-9866579D02*
X931967Y-9847531D01*
X931967Y-9847531D02*
X941491Y-9838008D01*
X941491Y-9838008D02*
X960539Y-9828484D01*
X1112920Y-10028484D02*
X1112920Y-9895150D01*
X1112920Y-9914198D02*
X1122444Y-9904674D01*
X1122444Y-9904674D02*
X1141491Y-9895150D01*
X1141491Y-9895150D02*
X1170063Y-9895150D01*
X1170063Y-9895150D02*
X1189110Y-9904674D01*
X1189110Y-9904674D02*
X1198634Y-9923722D01*
X1198634Y-9923722D02*
X1198634Y-10028484D01*
X1198634Y-9923722D02*
X1208158Y-9904674D01*
X1208158Y-9904674D02*
X1227205Y-9895150D01*
X1227205Y-9895150D02*
X1255777Y-9895150D01*
X1255777Y-9895150D02*
X1274825Y-9904674D01*
X1274825Y-9904674D02*
X1284348Y-9923722D01*
X1284348Y-9923722D02*
X1284348Y-10028484D01*
X1379586Y-10028484D02*
X1379586Y-9895150D01*
X1379586Y-9914198D02*
X1389110Y-9904674D01*
X1389110Y-9904674D02*
X1408158Y-9895150D01*
X1408158Y-9895150D02*
X1436729Y-9895150D01*
X1436729Y-9895150D02*
X1455777Y-9904674D01*
X1455777Y-9904674D02*
X1465301Y-9923722D01*
X1465301Y-9923722D02*
X1465301Y-10028484D01*
X1465301Y-9923722D02*
X1474824Y-9904674D01*
X1474824Y-9904674D02*
X1493872Y-9895150D01*
X1493872Y-9895150D02*
X1522443Y-9895150D01*
X1522443Y-9895150D02*
X1541491Y-9904674D01*
X1541491Y-9904674D02*
X1551015Y-9923722D01*
X1551015Y-9923722D02*
X1551015Y-10028484D01*
X1941491Y-9818960D02*
X1770063Y-10076103D01*
X2198634Y-9828484D02*
X2217682Y-9828484D01*
X2217682Y-9828484D02*
X2236729Y-9838008D01*
X2236729Y-9838008D02*
X2246253Y-9847531D01*
X2246253Y-9847531D02*
X2255777Y-9866579D01*
X2255777Y-9866579D02*
X2265301Y-9904674D01*
X2265301Y-9904674D02*
X2265301Y-9952293D01*
X2265301Y-9952293D02*
X2255777Y-9990389D01*
X2255777Y-9990389D02*
X2246253Y-10009436D01*
X2246253Y-10009436D02*
X2236729Y-10018960D01*
X2236729Y-10018960D02*
X2217682Y-10028484D01*
X2217682Y-10028484D02*
X2198634Y-10028484D01*
X2198634Y-10028484D02*
X2179587Y-10018960D01*
X2179587Y-10018960D02*
X2170063Y-10009436D01*
X2170063Y-10009436D02*
X2160539Y-9990389D01*
X2160539Y-9990389D02*
X2151015Y-9952293D01*
X2151015Y-9952293D02*
X2151015Y-9904674D01*
X2151015Y-9904674D02*
X2160539Y-9866579D01*
X2160539Y-9866579D02*
X2170063Y-9847531D01*
X2170063Y-9847531D02*
X2179587Y-9838008D01*
X2179587Y-9838008D02*
X2198634Y-9828484D01*
X2351015Y-10009436D02*
X2360539Y-10018960D01*
X2360539Y-10018960D02*
X2351015Y-10028484D01*
X2351015Y-10028484D02*
X2341491Y-10018960D01*
X2341491Y-10018960D02*
X2351015Y-10009436D01*
X2351015Y-10009436D02*
X2351015Y-10028484D01*
X2484348Y-9828484D02*
X2503396Y-9828484D01*
X2503396Y-9828484D02*
X2522444Y-9838008D01*
X2522444Y-9838008D02*
X2531968Y-9847531D01*
X2531968Y-9847531D02*
X2541491Y-9866579D01*
X2541491Y-9866579D02*
X2551015Y-9904674D01*
X2551015Y-9904674D02*
X2551015Y-9952293D01*
X2551015Y-9952293D02*
X2541491Y-9990389D01*
X2541491Y-9990389D02*
X2531968Y-10009436D01*
X2531968Y-10009436D02*
X2522444Y-10018960D01*
X2522444Y-10018960D02*
X2503396Y-10028484D01*
X2503396Y-10028484D02*
X2484348Y-10028484D01*
X2484348Y-10028484D02*
X2465301Y-10018960D01*
X2465301Y-10018960D02*
X2455777Y-10009436D01*
X2455777Y-10009436D02*
X2446253Y-9990389D01*
X2446253Y-9990389D02*
X2436729Y-9952293D01*
X2436729Y-9952293D02*
X2436729Y-9904674D01*
X2436729Y-9904674D02*
X2446253Y-9866579D01*
X2446253Y-9866579D02*
X2455777Y-9847531D01*
X2455777Y-9847531D02*
X2465301Y-9838008D01*
X2465301Y-9838008D02*
X2484348Y-9828484D01*
X2722444Y-9895150D02*
X2722444Y-10028484D01*
X2674825Y-9818960D02*
X2627206Y-9961817D01*
X2627206Y-9961817D02*
X2751015Y-9961817D01*
X2808158Y-9828484D02*
X2931967Y-9828484D01*
X2931967Y-9828484D02*
X2865301Y-9904674D01*
X2865301Y-9904674D02*
X2893872Y-9904674D01*
X2893872Y-9904674D02*
X2912920Y-9914198D01*
X2912920Y-9914198D02*
X2922444Y-9923722D01*
X2922444Y-9923722D02*
X2931967Y-9942770D01*
X2931967Y-9942770D02*
X2931967Y-9990389D01*
X2931967Y-9990389D02*
X2922444Y-10009436D01*
X2922444Y-10009436D02*
X2912920Y-10018960D01*
X2912920Y-10018960D02*
X2893872Y-10028484D01*
X2893872Y-10028484D02*
X2836729Y-10028484D01*
X2836729Y-10028484D02*
X2817682Y-10018960D01*
X2817682Y-10018960D02*
X2808158Y-10009436D01*
X2998634Y-9828484D02*
X3122444Y-9828484D01*
X3122444Y-9828484D02*
X3055777Y-9904674D01*
X3055777Y-9904674D02*
X3084348Y-9904674D01*
X3084348Y-9904674D02*
X3103396Y-9914198D01*
X3103396Y-9914198D02*
X3112920Y-9923722D01*
X3112920Y-9923722D02*
X3122444Y-9942770D01*
X3122444Y-9942770D02*
X3122444Y-9990389D01*
X3122444Y-9990389D02*
X3112920Y-10009436D01*
X3112920Y-10009436D02*
X3103396Y-10018960D01*
X3103396Y-10018960D02*
X3084348Y-10028484D01*
X3084348Y-10028484D02*
X3027206Y-10028484D01*
X3027206Y-10028484D02*
X3008158Y-10018960D01*
X3008158Y-10018960D02*
X2998634Y-10009436D01*
X3198634Y-9828484D02*
X3198634Y-9866579D01*
X3274825Y-9828484D02*
X3274825Y-9866579D01*
X3570063Y-10104674D02*
X3560539Y-10095150D01*
X3560539Y-10095150D02*
X3541491Y-10066579D01*
X3541491Y-10066579D02*
X3531968Y-10047531D01*
X3531968Y-10047531D02*
X3522444Y-10018960D01*
X3522444Y-10018960D02*
X3512920Y-9971341D01*
X3512920Y-9971341D02*
X3512920Y-9933246D01*
X3512920Y-9933246D02*
X3522444Y-9885627D01*
X3522444Y-9885627D02*
X3531968Y-9857055D01*
X3531968Y-9857055D02*
X3541491Y-9838008D01*
X3541491Y-9838008D02*
X3560539Y-9809436D01*
X3560539Y-9809436D02*
X3570063Y-9799912D01*
X3751015Y-10028484D02*
X3636729Y-10028484D01*
X3693872Y-10028484D02*
X3693872Y-9828484D01*
X3693872Y-9828484D02*
X3674825Y-9857055D01*
X3674825Y-9857055D02*
X3655777Y-9876103D01*
X3655777Y-9876103D02*
X3636729Y-9885627D01*
X3922444Y-9828484D02*
X3884348Y-9828484D01*
X3884348Y-9828484D02*
X3865301Y-9838008D01*
X3865301Y-9838008D02*
X3855777Y-9847531D01*
X3855777Y-9847531D02*
X3836729Y-9876103D01*
X3836729Y-9876103D02*
X3827206Y-9914198D01*
X3827206Y-9914198D02*
X3827206Y-9990389D01*
X3827206Y-9990389D02*
X3836729Y-10009436D01*
X3836729Y-10009436D02*
X3846253Y-10018960D01*
X3846253Y-10018960D02*
X3865301Y-10028484D01*
X3865301Y-10028484D02*
X3903396Y-10028484D01*
X3903396Y-10028484D02*
X3922444Y-10018960D01*
X3922444Y-10018960D02*
X3931968Y-10009436D01*
X3931968Y-10009436D02*
X3941491Y-9990389D01*
X3941491Y-9990389D02*
X3941491Y-9942770D01*
X3941491Y-9942770D02*
X3931968Y-9923722D01*
X3931968Y-9923722D02*
X3922444Y-9914198D01*
X3922444Y-9914198D02*
X3903396Y-9904674D01*
X3903396Y-9904674D02*
X3865301Y-9904674D01*
X3865301Y-9904674D02*
X3846253Y-9914198D01*
X3846253Y-9914198D02*
X3836729Y-9923722D01*
X3836729Y-9923722D02*
X3827206Y-9942770D01*
X4179587Y-10028484D02*
X4179587Y-9828484D01*
X4265301Y-10028484D02*
X4265301Y-9923722D01*
X4265301Y-9923722D02*
X4255777Y-9904674D01*
X4255777Y-9904674D02*
X4236730Y-9895150D01*
X4236730Y-9895150D02*
X4208158Y-9895150D01*
X4208158Y-9895150D02*
X4189110Y-9904674D01*
X4189110Y-9904674D02*
X4179587Y-9914198D01*
X4389111Y-10028484D02*
X4370063Y-10018960D01*
X4370063Y-10018960D02*
X4360539Y-10009436D01*
X4360539Y-10009436D02*
X4351015Y-9990389D01*
X4351015Y-9990389D02*
X4351015Y-9933246D01*
X4351015Y-9933246D02*
X4360539Y-9914198D01*
X4360539Y-9914198D02*
X4370063Y-9904674D01*
X4370063Y-9904674D02*
X4389111Y-9895150D01*
X4389111Y-9895150D02*
X4417682Y-9895150D01*
X4417682Y-9895150D02*
X4436730Y-9904674D01*
X4436730Y-9904674D02*
X4446253Y-9914198D01*
X4446253Y-9914198D02*
X4455777Y-9933246D01*
X4455777Y-9933246D02*
X4455777Y-9990389D01*
X4455777Y-9990389D02*
X4446253Y-10009436D01*
X4446253Y-10009436D02*
X4436730Y-10018960D01*
X4436730Y-10018960D02*
X4417682Y-10028484D01*
X4417682Y-10028484D02*
X4389111Y-10028484D01*
X4570063Y-10028484D02*
X4551015Y-10018960D01*
X4551015Y-10018960D02*
X4541492Y-9999912D01*
X4541492Y-9999912D02*
X4541492Y-9828484D01*
X4722444Y-10018960D02*
X4703396Y-10028484D01*
X4703396Y-10028484D02*
X4665301Y-10028484D01*
X4665301Y-10028484D02*
X4646253Y-10018960D01*
X4646253Y-10018960D02*
X4636730Y-9999912D01*
X4636730Y-9999912D02*
X4636730Y-9923722D01*
X4636730Y-9923722D02*
X4646253Y-9904674D01*
X4646253Y-9904674D02*
X4665301Y-9895150D01*
X4665301Y-9895150D02*
X4703396Y-9895150D01*
X4703396Y-9895150D02*
X4722444Y-9904674D01*
X4722444Y-9904674D02*
X4731968Y-9923722D01*
X4731968Y-9923722D02*
X4731968Y-9942770D01*
X4731968Y-9942770D02*
X4636730Y-9961817D01*
X4808158Y-10018960D02*
X4827206Y-10028484D01*
X4827206Y-10028484D02*
X4865301Y-10028484D01*
X4865301Y-10028484D02*
X4884349Y-10018960D01*
X4884349Y-10018960D02*
X4893873Y-9999912D01*
X4893873Y-9999912D02*
X4893873Y-9990389D01*
X4893873Y-9990389D02*
X4884349Y-9971341D01*
X4884349Y-9971341D02*
X4865301Y-9961817D01*
X4865301Y-9961817D02*
X4836730Y-9961817D01*
X4836730Y-9961817D02*
X4817682Y-9952293D01*
X4817682Y-9952293D02*
X4808158Y-9933246D01*
X4808158Y-9933246D02*
X4808158Y-9923722D01*
X4808158Y-9923722D02*
X4817682Y-9904674D01*
X4817682Y-9904674D02*
X4836730Y-9895150D01*
X4836730Y-9895150D02*
X4865301Y-9895150D01*
X4865301Y-9895150D02*
X4884349Y-9904674D01*
X4960539Y-10104674D02*
X4970063Y-10095150D01*
X4970063Y-10095150D02*
X4989111Y-10066579D01*
X4989111Y-10066579D02*
X4998634Y-10047531D01*
X4998634Y-10047531D02*
X5008158Y-10018960D01*
X5008158Y-10018960D02*
X5017682Y-9971341D01*
X5017682Y-9971341D02*
X5017682Y-9933246D01*
X5017682Y-9933246D02*
X5008158Y-9885627D01*
X5008158Y-9885627D02*
X4998634Y-9857055D01*
X4998634Y-9857055D02*
X4989111Y-9838008D01*
X4989111Y-9838008D02*
X4970063Y-9809436D01*
X4970063Y-9809436D02*
X4960539Y-9799912D01*
M02*
