%TF.GenerationSoftware,KiCad,Pcbnew,10.0.6*%
%TF.CreationDate,2026-09-12T19:59:42-04:00*%
%TF.ProjectId,int-board,696e742d-626f-4617-9264-2e6b69636164,rev?*%
%TF.SameCoordinates,Original*%
%TF.FileFunction,Copper,L1,Top*%
%TF.FilePolarity,Positive*%
%FSLAX46Y46*%
G04 Gerber Fmt 4.6, Leading zero omitted, Abs format (unit mm)*
G04 Created by KiCad (PCBNEW 10.0.6) date 2026-09-12 19:59:42*
%MOMM*%
%LPD*%
G01*
G04 APERTURE LIST*
G04 Aperture macros list*
%AMRoundRect*
0 Rectangle with rounded corners*
0 $1 Rounding radius*
0 $2 $3 $4 $5 $6 $7 $8 $9 X,Y pos of 4 corners*
0 Add a 4 corners polygon primitive as box body*
4,1,4,$2,$3,$4,$5,$6,$7,$8,$9,$2,$3,0*
0 Add four circle primitives for the rounded corners*
1,1,$1+$1,$2,$3*
1,1,$1+$1,$4,$5*
1,1,$1+$1,$6,$7*
1,1,$1+$1,$8,$9*
0 Add four rect primitives between the rounded corners*
20,1,$1+$1,$2,$3,$4,$5,0*
20,1,$1+$1,$4,$5,$6,$7,0*
20,1,$1+$1,$6,$7,$8,$9,0*
20,1,$1+$1,$8,$9,$2,$3,0*%
G04 Aperture macros list end*
%TA.AperFunction,ComponentPad*%
%ADD10RoundRect,0.250000X0.550000X-0.550000X0.550000X0.550000X-0.550000X0.550000X-0.550000X-0.550000X0*%
%TD*%
%TA.AperFunction,ComponentPad*%
%ADD11C,1.600000*%
%TD*%
%TA.AperFunction,ComponentPad*%
%ADD12RoundRect,0.487500X-0.487500X-0.487500X0.487500X-0.487500X0.487500X0.487500X-0.487500X0.487500X0*%
%TD*%
%TA.AperFunction,ComponentPad*%
%ADD13C,1.950000*%
%TD*%
%TA.AperFunction,ComponentPad*%
%ADD14RoundRect,0.487500X-0.487500X0.487500X-0.487500X-0.487500X0.487500X-0.487500X0.487500X0.487500X0*%
%TD*%
%TA.AperFunction,ComponentPad*%
%ADD15RoundRect,0.250001X-0.949999X0.949999X-0.949999X-0.949999X0.949999X-0.949999X0.949999X0.949999X0*%
%TD*%
%TA.AperFunction,ComponentPad*%
%ADD16C,2.400000*%
%TD*%
%TA.AperFunction,ComponentPad*%
%ADD17C,1.800000*%
%TD*%
%TA.AperFunction,ComponentPad*%
%ADD18RoundRect,0.249999X-0.850001X-0.850001X0.850001X-0.850001X0.850001X0.850001X-0.850001X0.850001X0*%
%TD*%
%TA.AperFunction,ComponentPad*%
%ADD19C,2.200000*%
%TD*%
%TA.AperFunction,ComponentPad*%
%ADD20RoundRect,0.450000X0.450000X0.450000X-0.450000X0.450000X-0.450000X-0.450000X0.450000X-0.450000X0*%
%TD*%
%TA.AperFunction,ComponentPad*%
%ADD21RoundRect,0.450000X-0.450000X-0.450000X0.450000X-0.450000X0.450000X0.450000X-0.450000X0.450000X0*%
%TD*%
%TA.AperFunction,ComponentPad*%
%ADD22RoundRect,0.400000X-0.400000X-0.400000X0.400000X-0.400000X0.400000X0.400000X-0.400000X0.400000X0*%
%TD*%
%TA.AperFunction,ComponentPad*%
%ADD23RoundRect,0.425000X-0.425000X-0.425000X0.425000X-0.425000X0.425000X0.425000X-0.425000X0.425000X0*%
%TD*%
%TA.AperFunction,ComponentPad*%
%ADD24C,1.700000*%
%TD*%
%TA.AperFunction,ViaPad*%
%ADD25C,1.000000*%
%TD*%
%TA.AperFunction,ViaPad*%
%ADD26C,0.800000*%
%TD*%
%TA.AperFunction,Conductor*%
%ADD27C,0.500000*%
%TD*%
%TA.AperFunction,Conductor*%
%ADD28C,0.400000*%
%TD*%
%TA.AperFunction,Conductor*%
%ADD29C,0.250000*%
%TD*%
%ADD30C,0.350000*%
G04 APERTURE END LIST*
D10*
%TO.P,U1,1*%
%TO.N,VS*%
X10500000Y-32310000D03*
D11*
%TO.P,U1,2*%
%TO.N,K1*%
X13040000Y-32310000D03*
%TO.P,U1,3*%
%TO.N,VS*%
X15580000Y-32310000D03*
%TO.P,U1,4*%
%TO.N,K2*%
X18120000Y-32310000D03*
%TO.P,U1,5*%
%TO.N,VS*%
X20660000Y-32310000D03*
%TO.P,U1,6*%
%TO.N,K3*%
X23200000Y-32310000D03*
%TO.P,U1,7*%
%TO.N,VS*%
X25740000Y-32310000D03*
%TO.P,U1,8*%
%TO.N,K4*%
X28280000Y-32310000D03*
%TO.P,U1,9*%
%TO.N,GND*%
X28280000Y-24690000D03*
%TO.P,U1,10*%
%TO.N,GPIO25*%
X25740000Y-24690000D03*
%TO.P,U1,11*%
%TO.N,GND*%
X23200000Y-24690000D03*
%TO.P,U1,12*%
%TO.N,GPIO22*%
X20660000Y-24690000D03*
%TO.P,U1,13*%
%TO.N,GND*%
X18120000Y-24690000D03*
%TO.P,U1,14*%
%TO.N,GPIO27*%
X15580000Y-24690000D03*
%TO.P,U1,15*%
%TO.N,GND*%
X13040000Y-24690000D03*
%TO.P,U1,16*%
%TO.N,GPIO17*%
X10500000Y-24690000D03*
%TD*%
%TO.P,J9,3*%
%TO.N,SCL*%
X7310000Y-13450000D03*
%TO.P,J9,4*%
%TO.N,GPIO4*%
X7310000Y-15990000D03*
%TO.P,J9,5*%
%TO.N,GND*%
X7310000Y-18530000D03*
%TO.P,J9,6*%
%TO.N,GPIO18*%
X7310000Y-21070000D03*
%TO.P,J9,7*%
%TO.N,SDA*%
X7310000Y-23610000D03*
%TO.P,J9,8*%
%TO.N,+5V*%
X7310000Y-26150000D03*
%TO.P,J9,9*%
%TO.N,3V3*%
X7310000Y-28690000D03*
%TO.P,J9,10*%
%TO.N,GPIO10*%
X7310000Y-31230000D03*
%TO.P,J9,11*%
%TO.N,GPIO9*%
X7310000Y-33770000D03*
%TO.P,J9,12*%
%TO.N,GPIO11*%
X7310000Y-36310000D03*
%TO.P,J9,13*%
%TO.N,GPIO7*%
X7310000Y-38850000D03*
%TO.P,J9,14*%
%TO.N,GPIO8*%
X7310000Y-41390000D03*
%TO.P,J9,15*%
%TO.N,GND*%
X7310000Y-43930000D03*
%TO.P,J9,17*%
X7310000Y-49010000D03*
%TO.P,J9,19*%
%TO.N,GPIO20*%
X7310000Y-54090000D03*
%TO.P,J9,20*%
%TO.N,GPIO21*%
X7310000Y-56630000D03*
%TD*%
%TO.P,R11,1*%
%TO.N,K11*%
X38250000Y-48420000D03*
%TO.P,R11,2*%
%TO.N,S_SP-C*%
X38250000Y-58580000D03*
%TD*%
D12*
%TO.P,J2,1*%
%TO.N,S_CHIL*%
X21050000Y-6950000D03*
D13*
%TO.P,J2,2*%
%TO.N,S_BOS1*%
X23550000Y-6950000D03*
%TO.P,J2,3*%
%TO.N,S_BOS2*%
X26050000Y-6950000D03*
%TO.P,J2,4*%
%TO.N,COM*%
X28550000Y-6950000D03*
%TD*%
D14*
%TO.P,J6,1*%
%TO.N,3V3*%
X53000000Y-33000000D03*
D13*
%TO.P,J6,2*%
%TO.N,SDA*%
X53000000Y-35500000D03*
%TO.P,J6,3*%
%TO.N,SCL*%
X53000000Y-38000000D03*
%TO.P,J6,4*%
%TO.N,GPIO4*%
X53000000Y-40500000D03*
%TO.P,J6,5*%
%TO.N,GND*%
X53000000Y-43000000D03*
%TD*%
D11*
%TO.P,R7,1*%
%TO.N,K7*%
X38250000Y-35920000D03*
%TO.P,R7,2*%
%TO.N,S_DEHUM*%
X38250000Y-46080000D03*
%TD*%
%TO.P,R9,1*%
%TO.N,K9*%
X31700000Y-48420000D03*
%TO.P,R9,2*%
%TO.N,S_HPHEAT*%
X31700000Y-58580000D03*
%TD*%
%TO.P,R6,1*%
%TO.N,K6*%
X35000000Y-35920000D03*
%TO.P,R6,2*%
%TO.N,S_BOS2*%
X35000000Y-46080000D03*
%TD*%
D10*
%TO.P,U3,1*%
%TO.N,VS*%
X10500000Y-57310000D03*
D11*
%TO.P,U3,2*%
%TO.N,K9*%
X13040000Y-57310000D03*
%TO.P,U3,3*%
%TO.N,VS*%
X15580000Y-57310000D03*
%TO.P,U3,4*%
%TO.N,K10*%
X18120000Y-57310000D03*
%TO.P,U3,5*%
%TO.N,VS*%
X20660000Y-57310000D03*
%TO.P,U3,6*%
%TO.N,K11*%
X23200000Y-57310000D03*
%TO.P,U3,7*%
%TO.N,VS*%
X25740000Y-57310000D03*
%TO.P,U3,8*%
%TO.N,K12*%
X28280000Y-57310000D03*
%TO.P,U3,9*%
%TO.N,GND*%
X28280000Y-49690000D03*
%TO.P,U3,10*%
%TO.N,GPIO16*%
X25740000Y-49690000D03*
%TO.P,U3,11*%
%TO.N,GND*%
X23200000Y-49690000D03*
%TO.P,U3,12*%
%TO.N,GPIO13*%
X20660000Y-49690000D03*
%TO.P,U3,13*%
%TO.N,GND*%
X18120000Y-49690000D03*
%TO.P,U3,14*%
%TO.N,GPIO19*%
X15580000Y-49690000D03*
%TO.P,U3,15*%
%TO.N,GND*%
X13040000Y-49690000D03*
%TO.P,U3,16*%
%TO.N,GPIO24*%
X10500000Y-49690000D03*
%TD*%
D15*
%TO.P,C1,1*%
%TO.N,VS*%
X46800000Y-11100000D03*
D16*
%TO.P,C1,2*%
%TO.N,COM*%
X46800000Y-36100000D03*
%TD*%
D17*
%TO.P,TP3,1*%
%TO.N,GND*%
X46000000Y-81000000D03*
%TD*%
D18*
%TO.P,D3,1*%
%TO.N,ACF*%
X45500000Y-67000000D03*
D19*
%TO.P,D3,2*%
%TO.N,COM*%
X55660000Y-67000000D03*
%TD*%
D20*
%TO.P,RV1,1*%
%TO.N,ACF*%
X57500000Y-10850000D03*
D17*
%TO.P,RV1,2*%
%TO.N,ACC*%
X52500000Y-10850000D03*
%TD*%
D10*
%TO.P,U2,1*%
%TO.N,VS*%
X10500000Y-44810000D03*
D11*
%TO.P,U2,2*%
%TO.N,K5*%
X13040000Y-44810000D03*
%TO.P,U2,3*%
%TO.N,VS*%
X15580000Y-44810000D03*
%TO.P,U2,4*%
%TO.N,K6*%
X18120000Y-44810000D03*
%TO.P,U2,5*%
%TO.N,VS*%
X20660000Y-44810000D03*
%TO.P,U2,6*%
%TO.N,K7*%
X23200000Y-44810000D03*
%TO.P,U2,7*%
%TO.N,VS*%
X25740000Y-44810000D03*
%TO.P,U2,8*%
%TO.N,K8*%
X28280000Y-44810000D03*
%TO.P,U2,9*%
%TO.N,GND*%
X28280000Y-37190000D03*
%TO.P,U2,10*%
%TO.N,GPIO23*%
X25740000Y-37190000D03*
%TO.P,U2,11*%
%TO.N,GND*%
X23200000Y-37190000D03*
%TO.P,U2,12*%
%TO.N,GPIO12*%
X20660000Y-37190000D03*
%TO.P,U2,13*%
%TO.N,GND*%
X18120000Y-37190000D03*
%TO.P,U2,14*%
%TO.N,GPIO5*%
X15580000Y-37190000D03*
%TO.P,U2,15*%
%TO.N,GND*%
X13040000Y-37190000D03*
%TO.P,U2,16*%
%TO.N,GPIO6*%
X10500000Y-37190000D03*
%TD*%
%TO.P,R10,1*%
%TO.N,K10*%
X35000000Y-48420000D03*
%TO.P,R10,2*%
%TO.N,S_SP-D*%
X35000000Y-58580000D03*
%TD*%
D18*
%TO.P,D2,1*%
%TO.N,VS*%
X45500000Y-76600000D03*
D19*
%TO.P,D2,2*%
%TO.N,ACC*%
X55660000Y-76600000D03*
%TD*%
D12*
%TO.P,J4,1*%
%TO.N,ACR*%
X44450000Y-6950000D03*
D13*
%TO.P,J4,2*%
%TO.N,ACC*%
X46950000Y-6950000D03*
%TO.P,J4,3*%
%TO.N,S_SP-D*%
X49450000Y-6950000D03*
%TO.P,J4,4*%
%TO.N,COM*%
X51950000Y-6950000D03*
%TD*%
D18*
%TO.P,D4,1*%
%TO.N,ACC*%
X45500000Y-70200000D03*
D19*
%TO.P,D4,2*%
%TO.N,COM*%
X55660000Y-70200000D03*
%TD*%
D11*
%TO.P,R3,1*%
%TO.N,K3*%
X38250000Y-23420000D03*
%TO.P,R3,2*%
%TO.N,S_BLR*%
X38250000Y-33580000D03*
%TD*%
%TO.P,R1,1*%
%TO.N,K1*%
X31700000Y-23420000D03*
%TO.P,R1,2*%
%TO.N,S_ZV*%
X31700000Y-33580000D03*
%TD*%
D17*
%TO.P,TP1,1*%
%TO.N,VS*%
X40000000Y-81000000D03*
%TD*%
D14*
%TO.P,J7,1*%
%TO.N,VS*%
X53000000Y-49750000D03*
D13*
%TO.P,J7,2*%
%TO.N,COM*%
X53000000Y-52250000D03*
%TO.P,J7,3*%
%TO.N,+5V*%
X53000000Y-54750000D03*
%TO.P,J7,4*%
%TO.N,GND*%
X53000000Y-57250000D03*
%TD*%
D11*
%TO.P,R4,1*%
%TO.N,K4*%
X41500000Y-23420000D03*
%TO.P,R4,2*%
%TO.N,S_CHIL*%
X41500000Y-33580000D03*
%TD*%
D21*
%TO.P,F1,1*%
%TO.N,ACR*%
X52460000Y-28100000D03*
D17*
%TO.P,F1,2*%
%TO.N,ACF*%
X57540000Y-28100000D03*
%TD*%
D18*
%TO.P,D1,1*%
%TO.N,VS*%
X45500000Y-73400000D03*
D19*
%TO.P,D1,2*%
%TO.N,ACF*%
X55660000Y-73400000D03*
%TD*%
D11*
%TO.P,R8,1*%
%TO.N,K8*%
X41500000Y-35920000D03*
%TO.P,R8,2*%
%TO.N,S_SCALA*%
X41500000Y-46080000D03*
%TD*%
D17*
%TO.P,TP2,1*%
%TO.N,COM*%
X43000000Y-81000000D03*
%TD*%
D11*
%TO.P,R12,1*%
%TO.N,K12*%
X41500000Y-48420000D03*
%TO.P,R12,2*%
%TO.N,S_SP-E*%
X41500000Y-58580000D03*
%TD*%
%TO.P,R2,1*%
%TO.N,K2*%
X35000000Y-23420000D03*
%TO.P,R2,2*%
%TO.N,S_DHW*%
X35000000Y-33580000D03*
%TD*%
D12*
%TO.P,J3,1*%
%TO.N,S_DEHUM*%
X32750000Y-6950000D03*
D13*
%TO.P,J3,2*%
%TO.N,S_SCALA*%
X35250000Y-6950000D03*
%TO.P,J3,3*%
%TO.N,S_HPHEAT*%
X37750000Y-6950000D03*
%TO.P,J3,4*%
%TO.N,COM*%
X40250000Y-6950000D03*
%TD*%
D11*
%TO.P,R5,1*%
%TO.N,K5*%
X31700000Y-35920000D03*
%TO.P,R5,2*%
%TO.N,S_BOS1*%
X31700000Y-46080000D03*
%TD*%
D12*
%TO.P,J1,1*%
%TO.N,S_ZV*%
X9350000Y-6950000D03*
D13*
%TO.P,J1,2*%
%TO.N,S_DHW*%
X11850000Y-6950000D03*
%TO.P,J1,3*%
%TO.N,S_BLR*%
X14350000Y-6950000D03*
%TO.P,J1,4*%
%TO.N,COM*%
X16850000Y-6950000D03*
%TD*%
D22*
%TO.P,J8,1*%
%TO.N,S_SP-C*%
X49500000Y-82000000D03*
D11*
%TO.P,J8,2*%
%TO.N,S_SP-E*%
X52040000Y-82000000D03*
%TO.P,J8,3*%
%TO.N,COM*%
X54580000Y-82000000D03*
%TD*%
D23*
%TO.P,J5,1*%
%TO.N,N/C*%
X4770000Y-8370000D03*
D24*
%TO.P,J5,2*%
%TO.N,+5V*%
X2230000Y-8370000D03*
%TO.P,J5,3*%
%TO.N,SDA*%
X4770000Y-10910000D03*
%TO.P,J5,4*%
%TO.N,+5V*%
X2230000Y-10910000D03*
%TO.P,J5,5*%
%TO.N,SCL*%
X4770000Y-13450000D03*
%TO.P,J5,6*%
%TO.N,GND*%
X2230000Y-13450000D03*
%TO.P,J5,7*%
%TO.N,GPIO4*%
X4770000Y-15990000D03*
%TO.P,J5,8*%
%TO.N,N/C*%
X2230000Y-15990000D03*
%TO.P,J5,9*%
%TO.N,GND*%
X4770000Y-18530000D03*
%TO.P,J5,10*%
%TO.N,N/C*%
X2230000Y-18530000D03*
%TO.P,J5,11*%
%TO.N,GPIO17*%
X4770000Y-21070000D03*
%TO.P,J5,12*%
%TO.N,GPIO18*%
X2230000Y-21070000D03*
%TO.P,J5,13*%
%TO.N,GPIO27*%
X4770000Y-23610000D03*
%TO.P,J5,14*%
%TO.N,GND*%
X2230000Y-23610000D03*
%TO.P,J5,15*%
%TO.N,GPIO22*%
X4770000Y-26150000D03*
%TO.P,J5,16*%
%TO.N,GPIO23*%
X2230000Y-26150000D03*
%TO.P,J5,17*%
%TO.N,3V3*%
X4770000Y-28690000D03*
%TO.P,J5,18*%
%TO.N,GPIO24*%
X2230000Y-28690000D03*
%TO.P,J5,19*%
%TO.N,GPIO10*%
X4770000Y-31230000D03*
%TO.P,J5,20*%
%TO.N,GND*%
X2230000Y-31230000D03*
%TO.P,J5,21*%
%TO.N,GPIO9*%
X4770000Y-33770000D03*
%TO.P,J5,22*%
%TO.N,GPIO25*%
X2230000Y-33770000D03*
%TO.P,J5,23*%
%TO.N,GPIO11*%
X4770000Y-36310000D03*
%TO.P,J5,24*%
%TO.N,GPIO8*%
X2230000Y-36310000D03*
%TO.P,J5,25*%
%TO.N,N/C*%
X4770000Y-38850000D03*
%TO.P,J5,26*%
%TO.N,GPIO7*%
X2230000Y-38850000D03*
%TO.P,J5,27*%
%TO.N,N/C*%
X4770000Y-41390000D03*
%TO.P,J5,28*%
X2230000Y-41390000D03*
%TO.P,J5,29*%
%TO.N,GPIO5*%
X4770000Y-43930000D03*
%TO.P,J5,30*%
%TO.N,GND*%
X2230000Y-43930000D03*
%TO.P,J5,31*%
%TO.N,GPIO6*%
X4770000Y-46470000D03*
%TO.P,J5,32*%
%TO.N,GPIO12*%
X2230000Y-46470000D03*
%TO.P,J5,33*%
%TO.N,GPIO13*%
X4770000Y-49010000D03*
%TO.P,J5,34*%
%TO.N,GND*%
X2230000Y-49010000D03*
%TO.P,J5,35*%
%TO.N,GPIO19*%
X4770000Y-51550000D03*
%TO.P,J5,36*%
%TO.N,GPIO16*%
X2230000Y-51550000D03*
%TO.P,J5,37*%
%TO.N,N/C*%
X4770000Y-54090000D03*
%TO.P,J5,38*%
%TO.N,GPIO20*%
X2230000Y-54090000D03*
%TO.P,J5,39*%
%TO.N,N/C*%
X4770000Y-56630000D03*
%TO.P,J5,40*%
%TO.N,GPIO21*%
X2230000Y-56630000D03*
%TD*%
D25*
%TO.N,VS*%
X57061800Y-68805200D03*
%TO.N,GND*%
X51542000Y-60136900D03*
D26*
%TO.N,SCL*%
X47891400Y-17472800D03*
%TO.N,GPIO4*%
X43671300Y-17503300D03*
%TO.N,SDA*%
X43758700Y-15421600D03*
D25*
%TO.N,+5V*%
X42774900Y-13406700D03*
D26*
%TO.N,3V3*%
X45159200Y-17417500D03*
%TO.N,S_CHIL*%
X32406400Y-30164700D03*
%TO.N,S_HPHEAT*%
X42669500Y-47575100D03*
D25*
%TO.N,ACC*%
X41488000Y-60483800D03*
X45836600Y-23845400D03*
D26*
%TO.N,GPIO6*%
X11341600Y-42100700D03*
%TO.N,S_SP-D*%
X36882100Y-55726200D03*
%TO.N,S_BLR*%
X30952900Y-30616500D03*
%TD*%
%TO.N,VS*%
D27*
X24435100Y-33614900D02*
X25740000Y-32310000D01*
X9184300Y-36289900D02*
X11832100Y-33642100D01*
X40000000Y-81000000D02*
X25740000Y-66740000D01*
X45500000Y-73400000D02*
X45500000Y-76600000D01*
X19358100Y-58611900D02*
X16881900Y-58611900D01*
X10500000Y-51530800D02*
X9183600Y-50214400D01*
X20660000Y-32310000D02*
X21964900Y-33614900D01*
X20660000Y-57310000D02*
X19358100Y-58611900D01*
X10500000Y-55979000D02*
X10500000Y-51530800D01*
X16881900Y-58611900D02*
X15580000Y-57310000D01*
X54957200Y-47792800D02*
X54957200Y-19257200D01*
X9183600Y-50214400D02*
X9183600Y-46126400D01*
X57061800Y-68805200D02*
X57262100Y-68604900D01*
X14249000Y-55979000D02*
X10500000Y-55979000D01*
X54957200Y-19257200D02*
X46800000Y-11100000D01*
X15580000Y-32310000D02*
X14247900Y-33642100D01*
X57262100Y-54012100D02*
X53000000Y-49750000D01*
X25740000Y-66740000D02*
X25740000Y-57310000D01*
X14247900Y-33642100D02*
X11832100Y-33642100D01*
X21964900Y-33614900D02*
X24435100Y-33614900D01*
X10500000Y-44810000D02*
X9184300Y-43494300D01*
X11832100Y-33642100D02*
X10500000Y-32310000D01*
X57262100Y-68604900D02*
X57262100Y-54012100D01*
X10500000Y-57310000D02*
X10500000Y-55979000D01*
X9184300Y-43494300D02*
X9184300Y-36289900D01*
X15580000Y-57310000D02*
X14249000Y-55979000D01*
X53000000Y-49750000D02*
X54957200Y-47792800D01*
X9183600Y-46126400D02*
X10500000Y-44810000D01*
%TO.N,GND*%
X19421700Y-48388300D02*
X18120000Y-49690000D01*
X8625100Y-57164300D02*
X8625100Y-53548800D01*
X36946900Y-57253600D02*
X48658700Y-57253600D01*
X29550000Y-49690000D02*
X36946900Y-57086900D01*
X48658700Y-57253600D02*
X51542000Y-60136900D01*
X23200000Y-24690000D02*
X24502000Y-25992000D01*
D28*
X750000Y-23610000D02*
X750000Y-31230000D01*
D27*
X36946900Y-57086900D02*
X36946900Y-57253600D01*
X21898300Y-48388300D02*
X19421700Y-48388300D01*
X8625100Y-53548800D02*
X7310000Y-52233700D01*
D28*
X750000Y-43930000D02*
X750000Y-49010000D01*
X750000Y-31230000D02*
X750000Y-43930000D01*
D27*
X29612600Y-49627400D02*
X29612600Y-38522600D01*
X878300Y-49011500D02*
X878300Y-57228200D01*
X29621300Y-35848700D02*
X29621300Y-28635300D01*
X7310000Y-52233700D02*
X7310000Y-49010000D01*
D28*
X750000Y-23610000D02*
X2230000Y-23610000D01*
D27*
X7803700Y-57985700D02*
X8625100Y-57164300D01*
X878300Y-57228200D02*
X1635800Y-57985700D01*
D28*
X879800Y-49010000D02*
X2230000Y-49010000D01*
D27*
X28280000Y-49690000D02*
X29550000Y-49690000D01*
X14342000Y-48388000D02*
X16818000Y-48388000D01*
X29612600Y-38522600D02*
X28280000Y-37190000D01*
X16818000Y-48388000D02*
X18120000Y-49690000D01*
D28*
X750000Y-49010000D02*
X879800Y-49010000D01*
D27*
X29621300Y-28635300D02*
X26978000Y-25992000D01*
X36946900Y-71946900D02*
X46000000Y-81000000D01*
X36946900Y-57253600D02*
X36946900Y-71946900D01*
D28*
X750000Y-43930000D02*
X2230000Y-43930000D01*
D27*
X879800Y-49010000D02*
X878300Y-49011500D01*
X28280000Y-37190000D02*
X29621300Y-35848700D01*
X26978000Y-25992000D02*
X28280000Y-24690000D01*
X1635800Y-57985700D02*
X7803700Y-57985700D01*
X24502000Y-25992000D02*
X26978000Y-25992000D01*
D28*
X2230000Y-13450000D02*
X750000Y-13450000D01*
X750000Y-13450000D02*
X750000Y-23610000D01*
D27*
X29550000Y-49690000D02*
X29612600Y-49627400D01*
X23200000Y-49690000D02*
X21898300Y-48388300D01*
X7310000Y-49010000D02*
X7310000Y-43930000D01*
D28*
X750000Y-31230000D02*
X2230000Y-31230000D01*
D27*
X13040000Y-49690000D02*
X14342000Y-48388000D01*
%TO.N,SCL*%
D29*
X54324000Y-23905400D02*
X54324000Y-36676000D01*
X47891400Y-17472800D02*
X54324000Y-23905400D01*
X54324000Y-36676000D02*
X53000000Y-38000000D01*
%TO.N,GPIO4*%
X50275000Y-35011100D02*
X48138500Y-32874600D01*
X43671300Y-17596000D02*
X43671300Y-17503300D01*
X53000000Y-40500000D02*
X50275000Y-37775000D01*
X48138500Y-32874600D02*
X48138500Y-22063200D01*
X48138500Y-22063200D02*
X43671300Y-17596000D01*
X50275000Y-37775000D02*
X50275000Y-35011100D01*
%TO.N,SDA*%
X43758700Y-15421600D02*
X43758700Y-16562400D01*
X50723600Y-33223600D02*
X53000000Y-35500000D01*
X44858300Y-18144200D02*
X44967200Y-18144200D01*
X44432500Y-17718400D02*
X44858300Y-18144200D01*
X50723500Y-23900500D02*
X50723500Y-33223600D01*
X44432500Y-17236200D02*
X44432500Y-17718400D01*
X6075400Y-12215400D02*
X6075400Y-22375400D01*
X44967200Y-18144200D02*
X50723500Y-23900500D01*
X43758700Y-16562400D02*
X44432500Y-17236200D01*
X50723500Y-33223600D02*
X50723600Y-33223600D01*
X4770000Y-10910000D02*
X6075400Y-12215400D01*
X6075400Y-22375400D02*
X7310000Y-23610000D01*
%TO.N,+5V*%
D27*
X2230000Y-10910000D02*
X2230000Y-8370000D01*
X42752900Y-13428700D02*
X42752900Y-17924900D01*
X42752900Y-17924900D02*
X46838300Y-22010300D01*
X46838300Y-32843200D02*
X49272200Y-35277100D01*
X5631000Y-7004600D02*
X8638700Y-10012300D01*
X8638700Y-24821300D02*
X7310000Y-26150000D01*
X8638700Y-10012300D02*
X8638700Y-24821300D01*
X46838300Y-22010300D02*
X46838300Y-32843200D01*
X3595400Y-7004600D02*
X5631000Y-7004600D01*
X42774900Y-13406700D02*
X42752900Y-13428700D01*
X49272200Y-51022200D02*
X53000000Y-54750000D01*
X2230000Y-8370000D02*
X3595400Y-7004600D01*
X49272200Y-35277100D02*
X49272200Y-51022200D01*
%TO.N,3V3*%
D29*
X45159200Y-17417500D02*
X51179200Y-23437500D01*
X51179200Y-31179200D02*
X53000000Y-33000000D01*
X51179200Y-23437500D02*
X51179200Y-31179200D01*
%TO.N,GPIO8*%
X6075400Y-40155400D02*
X7310000Y-41390000D01*
X2230000Y-36310000D02*
X3504700Y-37584700D01*
X5222700Y-37584700D02*
X6075400Y-38437400D01*
X3504700Y-37584700D02*
X5222700Y-37584700D01*
X6075400Y-38437400D02*
X6075400Y-40155400D01*
%TO.N,S_SP-C*%
X38250000Y-71937500D02*
X38250000Y-58580000D01*
X45639700Y-78139700D02*
X44452200Y-78139700D01*
X49500000Y-82000000D02*
X45639700Y-78139700D01*
X44452200Y-78139700D02*
X38250000Y-71937500D01*
%TO.N,S_CHIL*%
X32406400Y-25739700D02*
X32406400Y-30164700D01*
X21050000Y-6950000D02*
X30463100Y-16363100D01*
X30463100Y-16363100D02*
X30463100Y-23796400D01*
X30463100Y-23796400D02*
X32406400Y-25739700D01*
%TO.N,S_BOS1*%
X31700000Y-46080000D02*
X33133100Y-44646900D01*
X33133100Y-44646900D02*
X33133100Y-16533100D01*
X33133100Y-16533100D02*
X23550000Y-6950000D01*
%TO.N,S_BOS2*%
X33584800Y-14484800D02*
X26050000Y-6950000D01*
X33584800Y-44664800D02*
X33584800Y-14484800D01*
X35000000Y-46080000D02*
X33584800Y-44664800D01*
%TO.N,COM*%
D27*
X54023900Y-81443900D02*
X54023900Y-71836100D01*
X54023900Y-71836100D02*
X55660000Y-70200000D01*
X52364500Y-58728000D02*
X46800000Y-53163500D01*
X44834900Y-22254400D02*
X44834900Y-34134900D01*
X40250000Y-6950000D02*
X41021500Y-7721500D01*
X41021500Y-7721500D02*
X41021500Y-18441000D01*
X54496200Y-58728000D02*
X54496200Y-53746200D01*
X46800000Y-53163500D02*
X46800000Y-36100000D01*
X41021500Y-18441000D02*
X44834900Y-22254400D01*
X44834900Y-34134900D02*
X46800000Y-36100000D01*
X54580000Y-82000000D02*
X54023900Y-81443900D01*
X54496200Y-58728000D02*
X52364500Y-58728000D01*
X55660000Y-59891800D02*
X54496200Y-58728000D01*
X54496200Y-53746200D02*
X53000000Y-52250000D01*
X55660000Y-70200000D02*
X55660000Y-67000000D01*
X55660000Y-67000000D02*
X55660000Y-59891800D01*
%TO.N,S_DEHUM*%
D29*
X37030100Y-44860100D02*
X37030100Y-11230100D01*
X38250000Y-46080000D02*
X37030100Y-44860100D01*
X37030100Y-11230100D02*
X32750000Y-6950000D01*
%TO.N,S_HPHEAT*%
X40394800Y-18700700D02*
X42669500Y-20975400D01*
X37750000Y-6950000D02*
X40394800Y-9594800D01*
X40394800Y-9594800D02*
X40394800Y-18700700D01*
X42669500Y-20975400D02*
X42669500Y-47575100D01*
%TO.N,GPIO24*%
X11864800Y-48325200D02*
X10500000Y-49690000D01*
X3593000Y-30053000D02*
X15000100Y-30053000D01*
X2230000Y-28690000D02*
X3593000Y-30053000D01*
X16767800Y-31820700D02*
X16767800Y-37972900D01*
X16767800Y-37972900D02*
X11864800Y-42875900D01*
X11864800Y-42875900D02*
X11864800Y-48325200D01*
X15000100Y-30053000D02*
X16767800Y-31820700D01*
%TO.N,ACF*%
D27*
X57540000Y-28100000D02*
X58065300Y-28625300D01*
X58065300Y-28625300D02*
X58065300Y-70994700D01*
X57540000Y-10890000D02*
X57540000Y-28100000D01*
X57500000Y-10850000D02*
X57540000Y-10890000D01*
X58065300Y-70994700D02*
X55660000Y-73400000D01*
%TO.N,ACC*%
X41488000Y-66188000D02*
X45500000Y-70200000D01*
X41773200Y-7234600D02*
X41773200Y-18129500D01*
X45469300Y-5469300D02*
X43538500Y-5469300D01*
X41773200Y-18129500D02*
X45836600Y-22192900D01*
X46950000Y-6950000D02*
X45469300Y-5469300D01*
X41488000Y-60483800D02*
X41488000Y-66188000D01*
X45836600Y-22192900D02*
X45836600Y-23845400D01*
X43538500Y-5469300D02*
X41773200Y-7234600D01*
%TO.N,GPIO23*%
D29*
X19354700Y-31948800D02*
X19354700Y-32717000D01*
X19354700Y-32717000D02*
X21352300Y-34714600D01*
X14825900Y-27420000D02*
X19354700Y-31948800D01*
X23264600Y-34714600D02*
X25740000Y-37190000D01*
X21352300Y-34714600D02*
X23264600Y-34714600D01*
X2230000Y-26150000D02*
X3500000Y-27420000D01*
X3500000Y-27420000D02*
X14825900Y-27420000D01*
%TO.N,GPIO6*%
X10500000Y-37190000D02*
X10500000Y-41259100D01*
X10500000Y-41259100D02*
X11341600Y-42100700D01*
%TO.N,S_SP-D*%
X36578400Y-55422500D02*
X36578400Y-13072600D01*
X36578400Y-13072600D02*
X31441700Y-7935900D01*
X31441700Y-6124300D02*
X32725700Y-4840300D01*
X32725700Y-4840300D02*
X47340300Y-4840300D01*
X47340300Y-4840300D02*
X49450000Y-6950000D01*
X36882100Y-55726200D02*
X36578400Y-55422500D01*
X31441700Y-7935900D02*
X31441700Y-6124300D01*
%TO.N,ACR*%
D27*
X52460000Y-23443100D02*
X44815000Y-15798100D01*
X44815000Y-15798100D02*
X44815000Y-7315000D01*
X52460000Y-28100000D02*
X52460000Y-23443100D01*
X44815000Y-7315000D02*
X44450000Y-6950000D01*
%TO.N,S_BLR*%
D29*
X14350000Y-9095900D02*
X30952900Y-25698800D01*
X30952900Y-25698800D02*
X30952900Y-30616500D01*
X14350000Y-6950000D02*
X14350000Y-9095900D01*
%TO.N,S_ZV*%
X31700000Y-33580000D02*
X31679600Y-33559600D01*
X10703200Y-5596800D02*
X9350000Y-6950000D01*
X29807700Y-23801600D02*
X29807700Y-17979500D01*
X17425000Y-5596800D02*
X10703200Y-5596800D01*
X31679600Y-33559600D02*
X31679600Y-25673500D01*
X31679600Y-25673500D02*
X29807700Y-23801600D01*
X29807700Y-17979500D02*
X17425000Y-5596800D01*
%TO.N,S_SCALA*%
X35250000Y-6950000D02*
X39943100Y-11643100D01*
X39943100Y-44523100D02*
X41500000Y-46080000D01*
X39943100Y-11643100D02*
X39943100Y-44523100D01*
%TO.N,S_SP-E*%
X52040000Y-82000000D02*
X52040000Y-69120000D01*
X52040000Y-69120000D02*
X41500000Y-58580000D01*
%TO.N,S_DHW*%
X10545400Y-8254600D02*
X8519200Y-8254600D01*
X36126700Y-32453300D02*
X35000000Y-33580000D01*
X9089000Y-5079600D02*
X28663100Y-5079600D01*
X28663100Y-5079600D02*
X30605100Y-7021600D01*
X36126700Y-15426900D02*
X36126700Y-32453300D01*
X30605100Y-7021600D02*
X30605100Y-9905300D01*
X30605100Y-9905300D02*
X36126700Y-15426900D01*
X8035100Y-6133500D02*
X9089000Y-5079600D01*
X8035100Y-7770500D02*
X8035100Y-6133500D01*
X11850000Y-6950000D02*
X10545400Y-8254600D01*
X8519200Y-8254600D02*
X8035100Y-7770500D01*
%TD*%
D30*
X57061800Y-68805200D03*
X51542000Y-60136900D03*
X47891400Y-17472800D03*
X43671300Y-17503300D03*
X43758700Y-15421600D03*
X42774900Y-13406700D03*
X45159200Y-17417500D03*
X32406400Y-30164700D03*
X42669500Y-47575100D03*
X41488000Y-60483800D03*
X45836600Y-23845400D03*
X11341600Y-42100700D03*
X36882100Y-55726200D03*
X30952900Y-30616500D03*
X10500000Y-32310000D03*
X13040000Y-32310000D03*
X15580000Y-32310000D03*
X18120000Y-32310000D03*
X20660000Y-32310000D03*
X23200000Y-32310000D03*
X25740000Y-32310000D03*
X28280000Y-32310000D03*
X28280000Y-24690000D03*
X25740000Y-24690000D03*
X23200000Y-24690000D03*
X20660000Y-24690000D03*
X18120000Y-24690000D03*
X15580000Y-24690000D03*
X13040000Y-24690000D03*
X10500000Y-24690000D03*
X7310000Y-13450000D03*
X7310000Y-15990000D03*
X7310000Y-18530000D03*
X7310000Y-21070000D03*
X7310000Y-23610000D03*
X7310000Y-26150000D03*
X7310000Y-28690000D03*
X7310000Y-31230000D03*
X7310000Y-33770000D03*
X7310000Y-36310000D03*
X7310000Y-38850000D03*
X7310000Y-41390000D03*
X7310000Y-43930000D03*
X7310000Y-49010000D03*
X7310000Y-54090000D03*
X7310000Y-56630000D03*
X38250000Y-48420000D03*
X38250000Y-58580000D03*
X21050000Y-6950000D03*
X23550000Y-6950000D03*
X26050000Y-6950000D03*
X28550000Y-6950000D03*
X53000000Y-33000000D03*
X53000000Y-35500000D03*
X53000000Y-38000000D03*
X53000000Y-40500000D03*
X53000000Y-43000000D03*
X38250000Y-35920000D03*
X38250000Y-46080000D03*
X31700000Y-48420000D03*
X31700000Y-58580000D03*
X35000000Y-35920000D03*
X35000000Y-46080000D03*
X10500000Y-57310000D03*
X13040000Y-57310000D03*
X15580000Y-57310000D03*
X18120000Y-57310000D03*
X20660000Y-57310000D03*
X23200000Y-57310000D03*
X25740000Y-57310000D03*
X28280000Y-57310000D03*
X28280000Y-49690000D03*
X25740000Y-49690000D03*
X23200000Y-49690000D03*
X20660000Y-49690000D03*
X18120000Y-49690000D03*
X15580000Y-49690000D03*
X13040000Y-49690000D03*
X10500000Y-49690000D03*
X46800000Y-11100000D03*
X46800000Y-36100000D03*
X46000000Y-81000000D03*
X45500000Y-67000000D03*
X55660000Y-67000000D03*
X57500000Y-10850000D03*
X52500000Y-10850000D03*
X10500000Y-44810000D03*
X13040000Y-44810000D03*
X15580000Y-44810000D03*
X18120000Y-44810000D03*
X20660000Y-44810000D03*
X23200000Y-44810000D03*
X25740000Y-44810000D03*
X28280000Y-44810000D03*
X28280000Y-37190000D03*
X25740000Y-37190000D03*
X23200000Y-37190000D03*
X20660000Y-37190000D03*
X18120000Y-37190000D03*
X15580000Y-37190000D03*
X13040000Y-37190000D03*
X10500000Y-37190000D03*
X35000000Y-48420000D03*
X35000000Y-58580000D03*
X45500000Y-76600000D03*
X55660000Y-76600000D03*
X44450000Y-6950000D03*
X46950000Y-6950000D03*
X49450000Y-6950000D03*
X51950000Y-6950000D03*
X45500000Y-70200000D03*
X55660000Y-70200000D03*
X38250000Y-23420000D03*
X38250000Y-33580000D03*
X31700000Y-23420000D03*
X31700000Y-33580000D03*
X40000000Y-81000000D03*
X53000000Y-49750000D03*
X53000000Y-52250000D03*
X53000000Y-54750000D03*
X53000000Y-57250000D03*
X41500000Y-23420000D03*
X41500000Y-33580000D03*
X52460000Y-28100000D03*
X57540000Y-28100000D03*
X45500000Y-73400000D03*
X55660000Y-73400000D03*
X41500000Y-35920000D03*
X41500000Y-46080000D03*
X43000000Y-81000000D03*
X41500000Y-48420000D03*
X41500000Y-58580000D03*
X35000000Y-23420000D03*
X35000000Y-33580000D03*
X32750000Y-6950000D03*
X35250000Y-6950000D03*
X37750000Y-6950000D03*
X40250000Y-6950000D03*
X31700000Y-35920000D03*
X31700000Y-46080000D03*
X9350000Y-6950000D03*
X11850000Y-6950000D03*
X14350000Y-6950000D03*
X16850000Y-6950000D03*
X49500000Y-82000000D03*
X52040000Y-82000000D03*
X54580000Y-82000000D03*
X4770000Y-8370000D03*
X2230000Y-8370000D03*
X4770000Y-10910000D03*
X2230000Y-10910000D03*
X4770000Y-13450000D03*
X2230000Y-13450000D03*
X4770000Y-15990000D03*
X2230000Y-15990000D03*
X4770000Y-18530000D03*
X2230000Y-18530000D03*
X4770000Y-21070000D03*
X2230000Y-21070000D03*
X4770000Y-23610000D03*
X2230000Y-23610000D03*
X4770000Y-26150000D03*
X2230000Y-26150000D03*
X4770000Y-28690000D03*
X2230000Y-28690000D03*
X4770000Y-31230000D03*
X2230000Y-31230000D03*
X4770000Y-33770000D03*
X2230000Y-33770000D03*
X4770000Y-36310000D03*
X2230000Y-36310000D03*
X4770000Y-38850000D03*
X2230000Y-38850000D03*
X4770000Y-41390000D03*
X2230000Y-41390000D03*
X4770000Y-43930000D03*
X2230000Y-43930000D03*
X4770000Y-46470000D03*
X2230000Y-46470000D03*
X4770000Y-49010000D03*
X2230000Y-49010000D03*
X4770000Y-51550000D03*
X2230000Y-51550000D03*
X4770000Y-54090000D03*
X2230000Y-54090000D03*
X4770000Y-56630000D03*
X2230000Y-56630000D03*
M02*
