%TF.GenerationSoftware,KiCad,Pcbnew,10.0.6*%
%TF.CreationDate,2026-09-12T20:17:33-04:00*%
%TF.ProjectId,int-board,696e742d-626f-4617-9264-2e6b69636164,rev?*%
%TF.SameCoordinates,Original*%
%TF.FileFunction,Copper,L1,Top*%
%TF.FilePolarity,Positive*%
%FSLAX46Y46*%
G04 Gerber Fmt 4.6, Leading zero omitted, Abs format (unit mm)*
G04 Created by KiCad (PCBNEW 10.0.6) date 2026-09-12 20:17:33*
%MOMM*%
%LPD*%
G01*
G04 APERTURE LIST*
G04 Aperture macros list*
%AMRoundRect*
0 Rectangle with rounded corners*
0 $1 Rounding radius*
0 $2 $3 $4 $5 $6 $7 $8 $9 X,Y pos of 4 corners*
0 Add a 4 corners polygon primitive as box body*
4,1,4,$2,$3,$4,$5,$6,$7,$8,$9,$2,$3,0*
0 Add four circle primitives for the rounded corners*
1,1,$1+$1,$2,$3*
1,1,$1+$1,$4,$5*
1,1,$1+$1,$6,$7*
1,1,$1+$1,$8,$9*
0 Add four rect primitives between the rounded corners*
20,1,$1+$1,$2,$3,$4,$5,0*
20,1,$1+$1,$4,$5,$6,$7,0*
20,1,$1+$1,$6,$7,$8,$9,0*
20,1,$1+$1,$8,$9,$2,$3,0*%
G04 Aperture macros list end*
%TA.AperFunction,ComponentPad*%
%ADD10RoundRect,0.250000X0.550000X-0.550000X0.550000X0.550000X-0.550000X0.550000X-0.550000X-0.550000X0*%
%TD*%
%TA.AperFunction,ComponentPad*%
%ADD11C,1.600000*%
%TD*%
%TA.AperFunction,ComponentPad*%
%ADD12RoundRect,0.487500X-0.487500X0.487500X-0.487500X-0.487500X0.487500X-0.487500X0.487500X0.487500X0*%
%TD*%
%TA.AperFunction,ComponentPad*%
%ADD13C,1.950000*%
%TD*%
%TA.AperFunction,ComponentPad*%
%ADD14C,1.800000*%
%TD*%
%TA.AperFunction,ComponentPad*%
%ADD15RoundRect,0.249999X-0.850001X-0.850001X0.850001X-0.850001X0.850001X0.850001X-0.850001X0.850001X0*%
%TD*%
%TA.AperFunction,ComponentPad*%
%ADD16C,2.200000*%
%TD*%
%TA.AperFunction,ComponentPad*%
%ADD17RoundRect,0.487500X-0.487500X-0.487500X0.487500X-0.487500X0.487500X0.487500X-0.487500X0.487500X0*%
%TD*%
%TA.AperFunction,ComponentPad*%
%ADD18RoundRect,0.400000X-0.400000X-0.400000X0.400000X-0.400000X0.400000X0.400000X-0.400000X0.400000X0*%
%TD*%
%TA.AperFunction,ComponentPad*%
%ADD19RoundRect,0.450000X-0.450000X-0.450000X0.450000X-0.450000X0.450000X0.450000X-0.450000X0.450000X0*%
%TD*%
%TA.AperFunction,ComponentPad*%
%ADD20RoundRect,0.250001X-0.949999X0.949999X-0.949999X-0.949999X0.949999X-0.949999X0.949999X0.949999X0*%
%TD*%
%TA.AperFunction,ComponentPad*%
%ADD21C,2.400000*%
%TD*%
%TA.AperFunction,ComponentPad*%
%ADD22RoundRect,0.425000X-0.425000X-0.425000X0.425000X-0.425000X0.425000X0.425000X-0.425000X0.425000X0*%
%TD*%
%TA.AperFunction,ComponentPad*%
%ADD23C,1.700000*%
%TD*%
%TA.AperFunction,ViaPad*%
%ADD24C,0.800000*%
%TD*%
%TA.AperFunction,ViaPad*%
%ADD25C,1.000000*%
%TD*%
%TA.AperFunction,Conductor*%
%ADD26C,0.500000*%
%TD*%
%TA.AperFunction,Conductor*%
%ADD27C,0.400000*%
%TD*%
%TA.AperFunction,Conductor*%
%ADD28C,0.250000*%
%TD*%
%ADD29C,0.350000*%
G04 APERTURE END LIST*
D10*
%TO.P,U2,1*%
%TO.N,VS*%
X10500000Y-44810000D03*
D11*
%TO.P,U2,2*%
%TO.N,K5*%
X13040000Y-44810000D03*
%TO.P,U2,3*%
%TO.N,VS*%
X15580000Y-44810000D03*
%TO.P,U2,4*%
%TO.N,K6*%
X18120000Y-44810000D03*
%TO.P,U2,5*%
%TO.N,VS*%
X20660000Y-44810000D03*
%TO.P,U2,6*%
%TO.N,K7*%
X23200000Y-44810000D03*
%TO.P,U2,7*%
%TO.N,VS*%
X25740000Y-44810000D03*
%TO.P,U2,8*%
%TO.N,K8*%
X28280000Y-44810000D03*
%TO.P,U2,9*%
%TO.N,GND*%
X28280000Y-37190000D03*
%TO.P,U2,10*%
%TO.N,GPIO23*%
X25740000Y-37190000D03*
%TO.P,U2,11*%
%TO.N,GND*%
X23200000Y-37190000D03*
%TO.P,U2,12*%
%TO.N,GPIO12*%
X20660000Y-37190000D03*
%TO.P,U2,13*%
%TO.N,GND*%
X18120000Y-37190000D03*
%TO.P,U2,14*%
%TO.N,GPIO5*%
X15580000Y-37190000D03*
%TO.P,U2,15*%
%TO.N,GND*%
X13040000Y-37190000D03*
%TO.P,U2,16*%
%TO.N,GPIO6*%
X10500000Y-37190000D03*
%TD*%
D10*
%TO.P,U3,1*%
%TO.N,VS*%
X10500000Y-57310000D03*
D11*
%TO.P,U3,2*%
%TO.N,K9*%
X13040000Y-57310000D03*
%TO.P,U3,3*%
%TO.N,VS*%
X15580000Y-57310000D03*
%TO.P,U3,4*%
%TO.N,K10*%
X18120000Y-57310000D03*
%TO.P,U3,5*%
%TO.N,VS*%
X20660000Y-57310000D03*
%TO.P,U3,6*%
%TO.N,K11*%
X23200000Y-57310000D03*
%TO.P,U3,7*%
%TO.N,VS*%
X25740000Y-57310000D03*
%TO.P,U3,8*%
%TO.N,K12*%
X28280000Y-57310000D03*
%TO.P,U3,9*%
%TO.N,GND*%
X28280000Y-49690000D03*
%TO.P,U3,10*%
%TO.N,GPIO16*%
X25740000Y-49690000D03*
%TO.P,U3,11*%
%TO.N,GND*%
X23200000Y-49690000D03*
%TO.P,U3,12*%
%TO.N,GPIO13*%
X20660000Y-49690000D03*
%TO.P,U3,13*%
%TO.N,GND*%
X18120000Y-49690000D03*
%TO.P,U3,14*%
%TO.N,GPIO19*%
X15580000Y-49690000D03*
%TO.P,U3,15*%
%TO.N,GND*%
X13040000Y-49690000D03*
%TO.P,U3,16*%
%TO.N,GPIO24*%
X10500000Y-49690000D03*
%TD*%
D12*
%TO.P,J6,1*%
%TO.N,3V3*%
X53000000Y-33000000D03*
D13*
%TO.P,J6,2*%
%TO.N,SDA*%
X53000000Y-35500000D03*
%TO.P,J6,3*%
%TO.N,SCL*%
X53000000Y-38000000D03*
%TO.P,J6,4*%
%TO.N,GPIO4*%
X53000000Y-40500000D03*
%TO.P,J6,5*%
%TO.N,GND*%
X53000000Y-43000000D03*
%TD*%
D14*
%TO.P,TP3,1*%
%TO.N,GND*%
X46000000Y-81000000D03*
%TD*%
D15*
%TO.P,D3,1*%
%TO.N,ACF*%
X45500000Y-67000000D03*
D16*
%TO.P,D3,2*%
%TO.N,COM*%
X55660000Y-67000000D03*
%TD*%
D10*
%TO.P,U1,1*%
%TO.N,VS*%
X10500000Y-32310000D03*
D11*
%TO.P,U1,2*%
%TO.N,K1*%
X13040000Y-32310000D03*
%TO.P,U1,3*%
%TO.N,VS*%
X15580000Y-32310000D03*
%TO.P,U1,4*%
%TO.N,K2*%
X18120000Y-32310000D03*
%TO.P,U1,5*%
%TO.N,VS*%
X20660000Y-32310000D03*
%TO.P,U1,6*%
%TO.N,K3*%
X23200000Y-32310000D03*
%TO.P,U1,7*%
%TO.N,VS*%
X25740000Y-32310000D03*
%TO.P,U1,8*%
%TO.N,K4*%
X28280000Y-32310000D03*
%TO.P,U1,9*%
%TO.N,GND*%
X28280000Y-24690000D03*
%TO.P,U1,10*%
%TO.N,GPIO25*%
X25740000Y-24690000D03*
%TO.P,U1,11*%
%TO.N,GND*%
X23200000Y-24690000D03*
%TO.P,U1,12*%
%TO.N,GPIO22*%
X20660000Y-24690000D03*
%TO.P,U1,13*%
%TO.N,GND*%
X18120000Y-24690000D03*
%TO.P,U1,14*%
%TO.N,GPIO27*%
X15580000Y-24690000D03*
%TO.P,U1,15*%
%TO.N,GND*%
X13040000Y-24690000D03*
%TO.P,U1,16*%
%TO.N,GPIO17*%
X10500000Y-24690000D03*
%TD*%
%TO.P,R7,1*%
%TO.N,K7*%
X38250000Y-35920000D03*
%TO.P,R7,2*%
%TO.N,S_DEHUM*%
X38250000Y-46080000D03*
%TD*%
D14*
%TO.P,TP1,1*%
%TO.N,VS*%
X40000000Y-81000000D03*
%TD*%
D11*
%TO.P,J9,3*%
%TO.N,SCL*%
X7310000Y-13450000D03*
%TO.P,J9,4*%
%TO.N,GPIO4*%
X7310000Y-15990000D03*
%TO.P,J9,5*%
%TO.N,GND*%
X7310000Y-18530000D03*
%TO.P,J9,6*%
%TO.N,GPIO18*%
X7310000Y-21070000D03*
%TO.P,J9,7*%
%TO.N,SDA*%
X7310000Y-23610000D03*
%TO.P,J9,8*%
%TO.N,+5V*%
X7310000Y-26150000D03*
%TO.P,J9,9*%
%TO.N,3V3*%
X7310000Y-28690000D03*
%TO.P,J9,10*%
%TO.N,GPIO10*%
X7310000Y-31230000D03*
%TO.P,J9,11*%
%TO.N,GPIO9*%
X7310000Y-33770000D03*
%TO.P,J9,12*%
%TO.N,GPIO11*%
X7310000Y-36310000D03*
%TO.P,J9,13*%
%TO.N,GPIO7*%
X7310000Y-38850000D03*
%TO.P,J9,14*%
%TO.N,GPIO8*%
X7310000Y-41390000D03*
%TO.P,J9,15*%
%TO.N,GND*%
X7310000Y-43930000D03*
%TO.P,J9,17*%
X7310000Y-49010000D03*
%TO.P,J9,19*%
%TO.N,GPIO20*%
X7310000Y-54090000D03*
%TO.P,J9,20*%
%TO.N,GPIO21*%
X7310000Y-56630000D03*
%TD*%
D17*
%TO.P,J1,1*%
%TO.N,S_ZV*%
X9350000Y-6950000D03*
D13*
%TO.P,J1,2*%
%TO.N,S_DHW*%
X11850000Y-6950000D03*
%TO.P,J1,3*%
%TO.N,S_BLR*%
X14350000Y-6950000D03*
%TO.P,J1,4*%
%TO.N,COM*%
X16850000Y-6950000D03*
%TD*%
D11*
%TO.P,R12,1*%
%TO.N,K12*%
X41500000Y-48420000D03*
%TO.P,R12,2*%
%TO.N,S_SP-E*%
X41500000Y-58580000D03*
%TD*%
D18*
%TO.P,J8,1*%
%TO.N,S_SP-C*%
X49500000Y-82000000D03*
D11*
%TO.P,J8,2*%
%TO.N,S_SP-E*%
X52040000Y-82000000D03*
%TO.P,J8,3*%
%TO.N,COM*%
X54580000Y-82000000D03*
%TD*%
D19*
%TO.P,F1,1*%
%TO.N,ACR*%
X52460000Y-28100000D03*
D14*
%TO.P,F1,2*%
%TO.N,ACF*%
X57540000Y-28100000D03*
%TD*%
D11*
%TO.P,R1,1*%
%TO.N,K1*%
X31700000Y-23420000D03*
%TO.P,R1,2*%
%TO.N,S_ZV*%
X31700000Y-33580000D03*
%TD*%
D15*
%TO.P,D1,1*%
%TO.N,VS*%
X45500000Y-73400000D03*
D16*
%TO.P,D1,2*%
%TO.N,ACF*%
X55660000Y-73400000D03*
%TD*%
D11*
%TO.P,R5,1*%
%TO.N,K5*%
X31700000Y-35920000D03*
%TO.P,R5,2*%
%TO.N,S_BOS1*%
X31700000Y-46080000D03*
%TD*%
%TO.P,R4,1*%
%TO.N,K4*%
X41500000Y-23420000D03*
%TO.P,R4,2*%
%TO.N,S_CHIL*%
X41500000Y-33580000D03*
%TD*%
%TO.P,R11,1*%
%TO.N,K11*%
X38250000Y-48420000D03*
%TO.P,R11,2*%
%TO.N,S_SP-C*%
X38250000Y-58580000D03*
%TD*%
%TO.P,R8,1*%
%TO.N,K8*%
X41500000Y-35920000D03*
%TO.P,R8,2*%
%TO.N,S_SCALA*%
X41500000Y-46080000D03*
%TD*%
D14*
%TO.P,TP2,1*%
%TO.N,COM*%
X43000000Y-81000000D03*
%TD*%
D20*
%TO.P,C1,1*%
%TO.N,VS*%
X46800000Y-16500000D03*
D21*
%TO.P,C1,2*%
%TO.N,COM*%
X46800000Y-41500000D03*
%TD*%
D15*
%TO.P,D4,1*%
%TO.N,ACC*%
X45500000Y-70200000D03*
D16*
%TO.P,D4,2*%
%TO.N,COM*%
X55660000Y-70200000D03*
%TD*%
D17*
%TO.P,J3,1*%
%TO.N,S_DEHUM*%
X32750000Y-6950000D03*
D13*
%TO.P,J3,2*%
%TO.N,S_SCALA*%
X35250000Y-6950000D03*
%TO.P,J3,3*%
%TO.N,S_HPHEAT*%
X37750000Y-6950000D03*
%TO.P,J3,4*%
%TO.N,COM*%
X40250000Y-6950000D03*
%TD*%
D12*
%TO.P,J7,1*%
%TO.N,VS*%
X53000000Y-49750000D03*
D13*
%TO.P,J7,2*%
%TO.N,COM*%
X53000000Y-52250000D03*
%TO.P,J7,3*%
%TO.N,+5V*%
X53000000Y-54750000D03*
%TO.P,J7,4*%
%TO.N,GND*%
X53000000Y-57250000D03*
%TD*%
D17*
%TO.P,J2,1*%
%TO.N,S_CHIL*%
X21050000Y-6950000D03*
D13*
%TO.P,J2,2*%
%TO.N,S_BOS1*%
X23550000Y-6950000D03*
%TO.P,J2,3*%
%TO.N,S_BOS2*%
X26050000Y-6950000D03*
%TO.P,J2,4*%
%TO.N,COM*%
X28550000Y-6950000D03*
%TD*%
D11*
%TO.P,R10,1*%
%TO.N,K10*%
X35000000Y-48420000D03*
%TO.P,R10,2*%
%TO.N,S_SP-D*%
X35000000Y-58580000D03*
%TD*%
%TO.P,R9,1*%
%TO.N,K9*%
X31700000Y-48420000D03*
%TO.P,R9,2*%
%TO.N,S_HPHEAT*%
X31700000Y-58580000D03*
%TD*%
%TO.P,R3,1*%
%TO.N,K3*%
X38250000Y-23420000D03*
%TO.P,R3,2*%
%TO.N,S_BLR*%
X38250000Y-33580000D03*
%TD*%
D15*
%TO.P,D2,1*%
%TO.N,VS*%
X45500000Y-76600000D03*
D16*
%TO.P,D2,2*%
%TO.N,ACC*%
X55660000Y-76600000D03*
%TD*%
D11*
%TO.P,R2,1*%
%TO.N,K2*%
X35000000Y-23420000D03*
%TO.P,R2,2*%
%TO.N,S_DHW*%
X35000000Y-33580000D03*
%TD*%
%TO.P,R6,1*%
%TO.N,K6*%
X35000000Y-35920000D03*
%TO.P,R6,2*%
%TO.N,S_BOS2*%
X35000000Y-46080000D03*
%TD*%
D17*
%TO.P,J4,1*%
%TO.N,ACR*%
X44450000Y-6950000D03*
D13*
%TO.P,J4,2*%
%TO.N,ACC*%
X46950000Y-6950000D03*
%TO.P,J4,3*%
%TO.N,S_SP-D*%
X49450000Y-6950000D03*
%TO.P,J4,4*%
%TO.N,COM*%
X51950000Y-6950000D03*
%TD*%
D22*
%TO.P,J5,1*%
%TO.N,N/C*%
X4770000Y-8370000D03*
D23*
%TO.P,J5,2*%
%TO.N,+5V*%
X2230000Y-8370000D03*
%TO.P,J5,3*%
%TO.N,SDA*%
X4770000Y-10910000D03*
%TO.P,J5,4*%
%TO.N,+5V*%
X2230000Y-10910000D03*
%TO.P,J5,5*%
%TO.N,SCL*%
X4770000Y-13450000D03*
%TO.P,J5,6*%
%TO.N,GND*%
X2230000Y-13450000D03*
%TO.P,J5,7*%
%TO.N,GPIO4*%
X4770000Y-15990000D03*
%TO.P,J5,8*%
%TO.N,N/C*%
X2230000Y-15990000D03*
%TO.P,J5,9*%
%TO.N,GND*%
X4770000Y-18530000D03*
%TO.P,J5,10*%
%TO.N,N/C*%
X2230000Y-18530000D03*
%TO.P,J5,11*%
%TO.N,GPIO17*%
X4770000Y-21070000D03*
%TO.P,J5,12*%
%TO.N,GPIO18*%
X2230000Y-21070000D03*
%TO.P,J5,13*%
%TO.N,GPIO27*%
X4770000Y-23610000D03*
%TO.P,J5,14*%
%TO.N,GND*%
X2230000Y-23610000D03*
%TO.P,J5,15*%
%TO.N,GPIO22*%
X4770000Y-26150000D03*
%TO.P,J5,16*%
%TO.N,GPIO23*%
X2230000Y-26150000D03*
%TO.P,J5,17*%
%TO.N,3V3*%
X4770000Y-28690000D03*
%TO.P,J5,18*%
%TO.N,GPIO24*%
X2230000Y-28690000D03*
%TO.P,J5,19*%
%TO.N,GPIO10*%
X4770000Y-31230000D03*
%TO.P,J5,20*%
%TO.N,GND*%
X2230000Y-31230000D03*
%TO.P,J5,21*%
%TO.N,GPIO9*%
X4770000Y-33770000D03*
%TO.P,J5,22*%
%TO.N,GPIO25*%
X2230000Y-33770000D03*
%TO.P,J5,23*%
%TO.N,GPIO11*%
X4770000Y-36310000D03*
%TO.P,J5,24*%
%TO.N,GPIO8*%
X2230000Y-36310000D03*
%TO.P,J5,25*%
%TO.N,N/C*%
X4770000Y-38850000D03*
%TO.P,J5,26*%
%TO.N,GPIO7*%
X2230000Y-38850000D03*
%TO.P,J5,27*%
%TO.N,N/C*%
X4770000Y-41390000D03*
%TO.P,J5,28*%
X2230000Y-41390000D03*
%TO.P,J5,29*%
%TO.N,GPIO5*%
X4770000Y-43930000D03*
%TO.P,J5,30*%
%TO.N,GND*%
X2230000Y-43930000D03*
%TO.P,J5,31*%
%TO.N,GPIO6*%
X4770000Y-46470000D03*
%TO.P,J5,32*%
%TO.N,GPIO12*%
X2230000Y-46470000D03*
%TO.P,J5,33*%
%TO.N,GPIO13*%
X4770000Y-49010000D03*
%TO.P,J5,34*%
%TO.N,GND*%
X2230000Y-49010000D03*
%TO.P,J5,35*%
%TO.N,GPIO19*%
X4770000Y-51550000D03*
%TO.P,J5,36*%
%TO.N,GPIO16*%
X2230000Y-51550000D03*
%TO.P,J5,37*%
%TO.N,N/C*%
X4770000Y-54090000D03*
%TO.P,J5,38*%
%TO.N,GPIO20*%
X2230000Y-54090000D03*
%TO.P,J5,39*%
%TO.N,N/C*%
X4770000Y-56630000D03*
%TO.P,J5,40*%
%TO.N,GPIO21*%
X2230000Y-56630000D03*
%TD*%
D24*
%TO.N,3V3*%
X44881400Y-15431300D03*
%TO.N,SDA*%
X50343600Y-16899400D03*
%TO.N,SCL*%
X49554100Y-16114400D03*
%TO.N,GPIO4*%
X48715100Y-16741400D03*
D25*
%TO.N,+5V*%
X29402500Y-26603000D03*
X32815000Y-30015500D03*
X46008200Y-45584000D03*
D24*
%TO.N,S_BLR*%
X26525600Y-30521600D03*
%TO.N,S_SP-E*%
X41500000Y-68811900D03*
%TO.N,S_SP-C*%
X47253200Y-76372000D03*
D25*
%TO.N,ACR*%
X52460000Y-14960000D03*
D24*
%TO.N,S_CHIL*%
X29472000Y-33137600D03*
%TD*%
%TO.N,VS*%
D26*
X53000000Y-49750000D02*
X53000000Y-45292100D01*
X10500000Y-57310000D02*
X9198300Y-56008300D01*
X46799600Y-39091700D02*
X46800000Y-39091300D01*
X53000000Y-45292100D02*
X46799600Y-39091700D01*
X46800000Y-39091300D02*
X46800000Y-16500000D01*
X9187200Y-33622800D02*
X9187200Y-43497200D01*
X9187200Y-43497200D02*
X10500000Y-44810000D01*
X9198300Y-56008300D02*
X9198300Y-46111700D01*
X44999700Y-40891600D02*
X44999700Y-63735200D01*
X47107900Y-65843400D02*
X47107900Y-71792100D01*
X40000000Y-81000000D02*
X25740000Y-66740000D01*
X25740000Y-66740000D02*
X25740000Y-57310000D01*
X44999700Y-63735200D02*
X47107900Y-65843400D01*
X10500000Y-32310000D02*
X9187200Y-33622800D01*
X46799600Y-39091700D02*
X44999700Y-40891600D01*
X9198300Y-46111700D02*
X10500000Y-44810000D01*
X47107900Y-71792100D02*
X45500000Y-73400000D01*
%TO.N,GND*%
X53000000Y-71953900D02*
X53000000Y-57250000D01*
D27*
X879800Y-13450000D02*
X750000Y-13450000D01*
D26*
X45497800Y-80073100D02*
X45497800Y-79456100D01*
D27*
X750000Y-43930000D02*
X750000Y-49010000D01*
X750000Y-43930000D02*
X2230000Y-43930000D01*
D26*
X30260900Y-63213700D02*
X30260900Y-51670900D01*
X30262400Y-64220600D02*
X30262400Y-63215200D01*
D27*
X750000Y-23610000D02*
X750000Y-31230000D01*
D26*
X13040000Y-13364300D02*
X13040000Y-24690000D01*
X45497900Y-79456000D02*
X30262400Y-64220600D01*
X2411500Y-6199800D02*
X5875500Y-6199800D01*
X46000000Y-81000000D02*
X46000000Y-80575300D01*
D27*
X750000Y-23610000D02*
X2230000Y-23610000D01*
D26*
X30262400Y-63215200D02*
X30260900Y-63213700D01*
D27*
X750000Y-49010000D02*
X2230000Y-49010000D01*
D26*
X46000000Y-80575300D02*
X45497800Y-80073100D01*
X45497900Y-79456000D02*
X53000000Y-71953900D01*
X5875500Y-6199800D02*
X13040000Y-13364300D01*
X878300Y-13448500D02*
X878300Y-7733000D01*
X7310000Y-49010000D02*
X7310000Y-43930000D01*
X879800Y-13450000D02*
X878300Y-13448500D01*
X30260900Y-51670900D02*
X28280000Y-49690000D01*
D27*
X2230000Y-13450000D02*
X879800Y-13450000D01*
X750000Y-31230000D02*
X750000Y-43930000D01*
X750000Y-13450000D02*
X750000Y-23610000D01*
D26*
X45497800Y-79456100D02*
X45497900Y-79456000D01*
X878300Y-7733000D02*
X2411500Y-6199800D01*
D27*
X750000Y-31230000D02*
X2230000Y-31230000D01*
%TO.N,GPIO16*%
D28*
X25740000Y-49690000D02*
X24563300Y-50866700D01*
X13445200Y-58502000D02*
X9651600Y-58502000D01*
X3593300Y-52913300D02*
X2230000Y-51550000D01*
X24563300Y-50866700D02*
X20348600Y-50866700D01*
X14274700Y-56940600D02*
X14274700Y-57672500D01*
X20348600Y-50866700D02*
X14274700Y-56940600D01*
X9651600Y-58502000D02*
X8573100Y-57423500D01*
X7637400Y-55360000D02*
X6911100Y-55360000D01*
X14274700Y-57672500D02*
X13445200Y-58502000D01*
X8573100Y-56295700D02*
X7637400Y-55360000D01*
X6911100Y-55360000D02*
X6183300Y-54632200D01*
X6183300Y-53772700D02*
X5323900Y-52913300D01*
X8573100Y-57423500D02*
X8573100Y-56295700D01*
X6183300Y-54632200D02*
X6183300Y-53772700D01*
X5323900Y-52913300D02*
X3593300Y-52913300D01*
%TO.N,GPIO24*%
X3500000Y-29960000D02*
X2230000Y-28690000D01*
X10186400Y-29960000D02*
X3500000Y-29960000D01*
X11683500Y-48506500D02*
X11683500Y-31457100D01*
X11683500Y-31457100D02*
X10186400Y-29960000D01*
X10500000Y-49690000D02*
X11683500Y-48506500D01*
%TO.N,3V3*%
X51131500Y-16659500D02*
X49379600Y-14907600D01*
X53000000Y-33000000D02*
X51131500Y-31131500D01*
X51131500Y-31131500D02*
X51131500Y-16659500D01*
X45405100Y-14907600D02*
X44881400Y-15431300D01*
X49379600Y-14907600D02*
X45405100Y-14907600D01*
%TO.N,SDA*%
X6075400Y-12215400D02*
X6075400Y-22375400D01*
X53000000Y-35500000D02*
X50343600Y-32843600D01*
X50343600Y-32843600D02*
X50343600Y-16899400D01*
X4770000Y-10910000D02*
X6075400Y-12215400D01*
X6075400Y-22375400D02*
X7310000Y-23610000D01*
%TO.N,SCL*%
X53000000Y-38000000D02*
X49554100Y-34554100D01*
X49554100Y-34554100D02*
X49554100Y-16114400D01*
%TO.N,GPIO4*%
X48715100Y-36215100D02*
X48715100Y-16741400D01*
X53000000Y-40500000D02*
X48715100Y-36215100D01*
%TO.N,ACF*%
D26*
X57540000Y-71520000D02*
X55660000Y-73400000D01*
X57540000Y-28100000D02*
X57540000Y-71520000D01*
%TO.N,COM*%
X54058300Y-81478300D02*
X54580000Y-82000000D01*
X54058300Y-71801700D02*
X54058300Y-80695700D01*
X47009900Y-46197100D02*
X47009900Y-41709900D01*
X54514100Y-9514100D02*
X51950000Y-6950000D01*
X46958900Y-82439800D02*
X44439800Y-82439800D01*
X55660000Y-67000000D02*
X55660000Y-70200000D01*
X55660000Y-54910000D02*
X55660000Y-67000000D01*
X54058300Y-80695700D02*
X54058300Y-81478300D01*
X53000000Y-52250000D02*
X55660000Y-54910000D01*
X53000000Y-52187200D02*
X54514100Y-50673100D01*
X47009900Y-41709900D02*
X46800000Y-41500000D01*
X54058300Y-80695700D02*
X48703000Y-80695700D01*
X44439800Y-82439800D02*
X43000000Y-81000000D01*
X53000000Y-52187200D02*
X47009900Y-46197100D01*
X48703000Y-80695700D02*
X46958900Y-82439800D01*
X54514100Y-50673100D02*
X54514100Y-9514100D01*
X55660000Y-70200000D02*
X54058300Y-71801700D01*
X53000000Y-52187200D02*
X53000000Y-52250000D01*
%TO.N,GPIO27*%
D28*
X4770000Y-23610000D02*
X5946700Y-24786700D01*
X12939500Y-27330500D02*
X15580000Y-24690000D01*
X5946700Y-26456700D02*
X6820500Y-27330500D01*
X5946700Y-24786700D02*
X5946700Y-26456700D01*
X6820500Y-27330500D02*
X12939500Y-27330500D01*
%TO.N,S_DEHUM*%
X42054300Y-6183200D02*
X40980200Y-5109100D01*
X34590900Y-5109100D02*
X32750000Y-6950000D01*
X40329700Y-13241400D02*
X42054300Y-11516800D01*
X42054300Y-11516800D02*
X42054300Y-6183200D01*
X40980200Y-5109100D02*
X34590900Y-5109100D01*
X40329700Y-44000300D02*
X40329700Y-13241400D01*
X38250000Y-46080000D02*
X40329700Y-44000300D01*
%TO.N,+5V*%
D26*
X7310000Y-26150000D02*
X8611700Y-24848300D01*
X53000000Y-54750000D02*
X46008200Y-47758200D01*
X29402500Y-26603000D02*
X32815000Y-30015500D01*
X8611700Y-10028800D02*
X5567000Y-6984100D01*
X46008200Y-47758200D02*
X46008200Y-45584000D01*
X5567000Y-6984100D02*
X3615900Y-6984100D01*
X3615900Y-6984100D02*
X2230000Y-8370000D01*
X2230000Y-10910000D02*
X2230000Y-8370000D01*
X8611700Y-24848300D02*
X8611700Y-10028800D01*
%TO.N,GPIO8*%
D28*
X2230000Y-36310000D02*
X3500000Y-37580000D01*
X3500000Y-37580000D02*
X3500000Y-40120000D01*
X3500000Y-40120000D02*
X7310000Y-40120000D01*
X7310000Y-40120000D02*
X7310000Y-41390000D01*
%TO.N,S_ZV*%
X32143300Y-47248500D02*
X32914800Y-46477000D01*
X32914800Y-34794800D02*
X31700000Y-33580000D01*
X24505400Y-36645400D02*
X24505400Y-37607900D01*
X24505400Y-37607900D02*
X29455200Y-42557700D01*
X31264400Y-47248500D02*
X32143300Y-47248500D01*
X21965400Y-19565400D02*
X21965400Y-34105400D01*
X9350000Y-6950000D02*
X21965400Y-19565400D01*
X21965400Y-34105400D02*
X24505400Y-36645400D01*
X29455200Y-45439300D02*
X31264400Y-47248500D01*
X32914800Y-46477000D02*
X32914800Y-34794800D01*
X29455200Y-42557700D02*
X29455200Y-45439300D01*
%TO.N,S_DHW*%
X33837500Y-10297600D02*
X29129700Y-5589800D01*
X29129700Y-5589800D02*
X13210200Y-5589800D01*
X13210200Y-5589800D02*
X11850000Y-6950000D01*
X35000000Y-29669500D02*
X33837500Y-28507000D01*
X35000000Y-33580000D02*
X35000000Y-29669500D01*
X33837500Y-28507000D02*
X33837500Y-10297600D01*
%TO.N,S_BLR*%
X24381700Y-16981700D02*
X24381700Y-28377700D01*
X24381700Y-28377700D02*
X26525600Y-30521600D01*
X14350000Y-6950000D02*
X24381700Y-16981700D01*
%TO.N,S_SP-E*%
X41500000Y-58580000D02*
X41500000Y-68811900D01*
%TO.N,S_SP-C*%
X44479400Y-75000000D02*
X46512100Y-75000000D01*
X38250000Y-58580000D02*
X38250000Y-68770600D01*
X46512100Y-75000000D02*
X47253200Y-75741100D01*
X47253200Y-75741100D02*
X47253200Y-76372000D01*
X38250000Y-68770600D02*
X44479400Y-75000000D01*
%TO.N,ACR*%
D26*
X52460000Y-28100000D02*
X52460000Y-14960000D01*
%TO.N,S_BOS1*%
D28*
X29467000Y-12867000D02*
X29467000Y-25298600D01*
X23550000Y-6950000D02*
X29467000Y-12867000D01*
X29467000Y-25298600D02*
X28523100Y-26242500D01*
X30198700Y-44578700D02*
X31700000Y-46080000D01*
X30198700Y-29953000D02*
X30198700Y-44578700D01*
X28523100Y-26242500D02*
X28523100Y-28277400D01*
X28523100Y-28277400D02*
X30198700Y-29953000D01*
%TO.N,S_CHIL*%
X26974700Y-12874700D02*
X26974700Y-27647500D01*
X26974700Y-27647500D02*
X29472000Y-30144800D01*
X21050000Y-6950000D02*
X26974700Y-12874700D01*
X29472000Y-30144800D02*
X29472000Y-33137600D01*
%TO.N,S_SCALA*%
X37119600Y-12330400D02*
X37119600Y-46609400D01*
X41601700Y-6380800D02*
X41601700Y-7848300D01*
X35250000Y-6950000D02*
X36619700Y-5580300D01*
X40330000Y-47250000D02*
X41500000Y-46080000D01*
X37760200Y-47250000D02*
X40330000Y-47250000D01*
X41601700Y-7848300D02*
X37119600Y-12330400D01*
X40801200Y-5580300D02*
X41601700Y-6380800D01*
X36619700Y-5580300D02*
X40801200Y-5580300D01*
X37119600Y-46609400D02*
X37760200Y-47250000D01*
%TO.N,ACC*%
D26*
X43897300Y-10002700D02*
X43897300Y-68597300D01*
X46950000Y-6950000D02*
X43897300Y-10002700D01*
X43897300Y-68597300D02*
X45500000Y-70200000D01*
%TO.N,S_HPHEAT*%
D28*
X37750000Y-6950000D02*
X36130100Y-8569900D01*
X36130100Y-54149900D02*
X31700000Y-58580000D01*
X36130100Y-8569900D02*
X36130100Y-54149900D01*
%TO.N,S_BOS2*%
X32826700Y-13726700D02*
X32826700Y-28771600D01*
X33857900Y-44937900D02*
X35000000Y-46080000D01*
X26050000Y-6950000D02*
X32826700Y-13726700D01*
X32826700Y-28771600D02*
X33857900Y-29802800D01*
X33857900Y-29802800D02*
X33857900Y-44937900D01*
%TO.N,S_SP-D*%
X43632200Y-5550000D02*
X48050000Y-5550000D01*
X42820800Y-6361400D02*
X43632200Y-5550000D01*
X35000000Y-58580000D02*
X42820800Y-50759200D01*
X42820800Y-50759200D02*
X42820800Y-6361400D01*
X48050000Y-5550000D02*
X49450000Y-6950000D01*
%TD*%
D29*
X44881400Y-15431300D03*
X50343600Y-16899400D03*
X49554100Y-16114400D03*
X48715100Y-16741400D03*
X29402500Y-26603000D03*
X32815000Y-30015500D03*
X46008200Y-45584000D03*
X26525600Y-30521600D03*
X41500000Y-68811900D03*
X47253200Y-76372000D03*
X52460000Y-14960000D03*
X29472000Y-33137600D03*
X10500000Y-44810000D03*
X13040000Y-44810000D03*
X15580000Y-44810000D03*
X18120000Y-44810000D03*
X20660000Y-44810000D03*
X23200000Y-44810000D03*
X25740000Y-44810000D03*
X28280000Y-44810000D03*
X28280000Y-37190000D03*
X25740000Y-37190000D03*
X23200000Y-37190000D03*
X20660000Y-37190000D03*
X18120000Y-37190000D03*
X15580000Y-37190000D03*
X13040000Y-37190000D03*
X10500000Y-37190000D03*
X10500000Y-57310000D03*
X13040000Y-57310000D03*
X15580000Y-57310000D03*
X18120000Y-57310000D03*
X20660000Y-57310000D03*
X23200000Y-57310000D03*
X25740000Y-57310000D03*
X28280000Y-57310000D03*
X28280000Y-49690000D03*
X25740000Y-49690000D03*
X23200000Y-49690000D03*
X20660000Y-49690000D03*
X18120000Y-49690000D03*
X15580000Y-49690000D03*
X13040000Y-49690000D03*
X10500000Y-49690000D03*
X53000000Y-33000000D03*
X53000000Y-35500000D03*
X53000000Y-38000000D03*
X53000000Y-40500000D03*
X53000000Y-43000000D03*
X46000000Y-81000000D03*
X45500000Y-67000000D03*
X55660000Y-67000000D03*
X10500000Y-32310000D03*
X13040000Y-32310000D03*
X15580000Y-32310000D03*
X18120000Y-32310000D03*
X20660000Y-32310000D03*
X23200000Y-32310000D03*
X25740000Y-32310000D03*
X28280000Y-32310000D03*
X28280000Y-24690000D03*
X25740000Y-24690000D03*
X23200000Y-24690000D03*
X20660000Y-24690000D03*
X18120000Y-24690000D03*
X15580000Y-24690000D03*
X13040000Y-24690000D03*
X10500000Y-24690000D03*
X38250000Y-35920000D03*
X38250000Y-46080000D03*
X40000000Y-81000000D03*
X7310000Y-13450000D03*
X7310000Y-15990000D03*
X7310000Y-18530000D03*
X7310000Y-21070000D03*
X7310000Y-23610000D03*
X7310000Y-26150000D03*
X7310000Y-28690000D03*
X7310000Y-31230000D03*
X7310000Y-33770000D03*
X7310000Y-36310000D03*
X7310000Y-38850000D03*
X7310000Y-41390000D03*
X7310000Y-43930000D03*
X7310000Y-49010000D03*
X7310000Y-54090000D03*
X7310000Y-56630000D03*
X9350000Y-6950000D03*
X11850000Y-6950000D03*
X14350000Y-6950000D03*
X16850000Y-6950000D03*
X41500000Y-48420000D03*
X41500000Y-58580000D03*
X49500000Y-82000000D03*
X52040000Y-82000000D03*
X54580000Y-82000000D03*
X52460000Y-28100000D03*
X57540000Y-28100000D03*
X31700000Y-23420000D03*
X31700000Y-33580000D03*
X45500000Y-73400000D03*
X55660000Y-73400000D03*
X31700000Y-35920000D03*
X31700000Y-46080000D03*
X41500000Y-23420000D03*
X41500000Y-33580000D03*
X38250000Y-48420000D03*
X38250000Y-58580000D03*
X41500000Y-35920000D03*
X41500000Y-46080000D03*
X43000000Y-81000000D03*
X46800000Y-16500000D03*
X46800000Y-41500000D03*
X45500000Y-70200000D03*
X55660000Y-70200000D03*
X32750000Y-6950000D03*
X35250000Y-6950000D03*
X37750000Y-6950000D03*
X40250000Y-6950000D03*
X53000000Y-49750000D03*
X53000000Y-52250000D03*
X53000000Y-54750000D03*
X53000000Y-57250000D03*
X21050000Y-6950000D03*
X23550000Y-6950000D03*
X26050000Y-6950000D03*
X28550000Y-6950000D03*
X35000000Y-48420000D03*
X35000000Y-58580000D03*
X31700000Y-48420000D03*
X31700000Y-58580000D03*
X38250000Y-23420000D03*
X38250000Y-33580000D03*
X45500000Y-76600000D03*
X55660000Y-76600000D03*
X35000000Y-23420000D03*
X35000000Y-33580000D03*
X35000000Y-35920000D03*
X35000000Y-46080000D03*
X44450000Y-6950000D03*
X46950000Y-6950000D03*
X49450000Y-6950000D03*
X51950000Y-6950000D03*
X4770000Y-8370000D03*
X2230000Y-8370000D03*
X4770000Y-10910000D03*
X2230000Y-10910000D03*
X4770000Y-13450000D03*
X2230000Y-13450000D03*
X4770000Y-15990000D03*
X2230000Y-15990000D03*
X4770000Y-18530000D03*
X2230000Y-18530000D03*
X4770000Y-21070000D03*
X2230000Y-21070000D03*
X4770000Y-23610000D03*
X2230000Y-23610000D03*
X4770000Y-26150000D03*
X2230000Y-26150000D03*
X4770000Y-28690000D03*
X2230000Y-28690000D03*
X4770000Y-31230000D03*
X2230000Y-31230000D03*
X4770000Y-33770000D03*
X2230000Y-33770000D03*
X4770000Y-36310000D03*
X2230000Y-36310000D03*
X4770000Y-38850000D03*
X2230000Y-38850000D03*
X4770000Y-41390000D03*
X2230000Y-41390000D03*
X4770000Y-43930000D03*
X2230000Y-43930000D03*
X4770000Y-46470000D03*
X2230000Y-46470000D03*
X4770000Y-49010000D03*
X2230000Y-49010000D03*
X4770000Y-51550000D03*
X2230000Y-51550000D03*
X4770000Y-54090000D03*
X2230000Y-54090000D03*
X4770000Y-56630000D03*
X2230000Y-56630000D03*
M02*
