%TF.GenerationSoftware,KiCad,Pcbnew,10.0.6*%
%TF.CreationDate,2026-09-12T11:27:55-04:00*%
%TF.ProjectId,int-board,696e742d-626f-4617-9264-2e6b69636164,rev?*%
%TF.SameCoordinates,Original*%
%TF.FileFunction,Legend,Bot*%
%TF.FilePolarity,Positive*%
%FSLAX46Y46*%
G04 Gerber Fmt 4.6, Leading zero omitted, Abs format (unit mm)*
G04 Created by KiCad (PCBNEW 10.0.6) date 2026-09-12 11:27:55*
%MOMM*%
%LPD*%
G01*
G04 APERTURE LIST*
%ADD10C,0.100000*%
%ADD11C,0.120000*%
G04 APERTURE END LIST*
D10*
X0Y-18110000D02*
X59000000Y-18110000D01*
X0Y-22310000D02*
X59000000Y-22310000D01*
X0Y-61290000D02*
X59000000Y-61290000D01*
X0Y-65489999D02*
X59000000Y-65489999D01*
D11*
X20619047Y-79963855D02*
X20999999Y-79963855D01*
X20999999Y-79963855D02*
X20999999Y-79163855D01*
X20352380Y-79963855D02*
X20352380Y-79163855D01*
X19971428Y-79963855D02*
X19971428Y-79163855D01*
X19971428Y-79163855D02*
X19514285Y-79963855D01*
X19514285Y-79963855D02*
X19514285Y-79163855D01*
X19133333Y-79963855D02*
X19133333Y-79163855D01*
X18676190Y-79963855D02*
X19019048Y-79506712D01*
X18676190Y-79163855D02*
X19133333Y-79620998D01*
X17800000Y-79163855D02*
X17304762Y-79163855D01*
X17304762Y-79163855D02*
X17571428Y-79468617D01*
X17571428Y-79468617D02*
X17457143Y-79468617D01*
X17457143Y-79468617D02*
X17380952Y-79506712D01*
X17380952Y-79506712D02*
X17342857Y-79544807D01*
X17342857Y-79544807D02*
X17304762Y-79620998D01*
X17304762Y-79620998D02*
X17304762Y-79811474D01*
X17304762Y-79811474D02*
X17342857Y-79887664D01*
X17342857Y-79887664D02*
X17380952Y-79925760D01*
X17380952Y-79925760D02*
X17457143Y-79963855D01*
X17457143Y-79963855D02*
X17685714Y-79963855D01*
X17685714Y-79963855D02*
X17761905Y-79925760D01*
X17761905Y-79925760D02*
X17800000Y-79887664D01*
X17076190Y-79163855D02*
X16809523Y-79963855D01*
X16809523Y-79963855D02*
X16542857Y-79163855D01*
X16352381Y-79163855D02*
X15857143Y-79163855D01*
X15857143Y-79163855D02*
X16123809Y-79468617D01*
X16123809Y-79468617D02*
X16009524Y-79468617D01*
X16009524Y-79468617D02*
X15933333Y-79506712D01*
X15933333Y-79506712D02*
X15895238Y-79544807D01*
X15895238Y-79544807D02*
X15857143Y-79620998D01*
X15857143Y-79620998D02*
X15857143Y-79811474D01*
X15857143Y-79811474D02*
X15895238Y-79887664D01*
X15895238Y-79887664D02*
X15933333Y-79925760D01*
X15933333Y-79925760D02*
X16009524Y-79963855D01*
X16009524Y-79963855D02*
X16238095Y-79963855D01*
X16238095Y-79963855D02*
X16314286Y-79925760D01*
X16314286Y-79925760D02*
X16352381Y-79887664D01*
X14942857Y-79925760D02*
X14828571Y-79963855D01*
X14828571Y-79963855D02*
X14638095Y-79963855D01*
X14638095Y-79963855D02*
X14561904Y-79925760D01*
X14561904Y-79925760D02*
X14523809Y-79887664D01*
X14523809Y-79887664D02*
X14485714Y-79811474D01*
X14485714Y-79811474D02*
X14485714Y-79735283D01*
X14485714Y-79735283D02*
X14523809Y-79659093D01*
X14523809Y-79659093D02*
X14561904Y-79620998D01*
X14561904Y-79620998D02*
X14638095Y-79582902D01*
X14638095Y-79582902D02*
X14790476Y-79544807D01*
X14790476Y-79544807D02*
X14866666Y-79506712D01*
X14866666Y-79506712D02*
X14904761Y-79468617D01*
X14904761Y-79468617D02*
X14942857Y-79392426D01*
X14942857Y-79392426D02*
X14942857Y-79316236D01*
X14942857Y-79316236D02*
X14904761Y-79240045D01*
X14904761Y-79240045D02*
X14866666Y-79201950D01*
X14866666Y-79201950D02*
X14790476Y-79163855D01*
X14790476Y-79163855D02*
X14599999Y-79163855D01*
X14599999Y-79163855D02*
X14485714Y-79201950D01*
X14142856Y-79963855D02*
X14142856Y-79163855D01*
X14142856Y-79163855D02*
X13952380Y-79163855D01*
X13952380Y-79163855D02*
X13838094Y-79201950D01*
X13838094Y-79201950D02*
X13761904Y-79278140D01*
X13761904Y-79278140D02*
X13723809Y-79354331D01*
X13723809Y-79354331D02*
X13685713Y-79506712D01*
X13685713Y-79506712D02*
X13685713Y-79620998D01*
X13685713Y-79620998D02*
X13723809Y-79773379D01*
X13723809Y-79773379D02*
X13761904Y-79849569D01*
X13761904Y-79849569D02*
X13838094Y-79925760D01*
X13838094Y-79925760D02*
X13952380Y-79963855D01*
X13952380Y-79963855D02*
X14142856Y-79963855D01*
X13380952Y-79735283D02*
X12999999Y-79735283D01*
X13457142Y-79963855D02*
X13190475Y-79163855D01*
X13190475Y-79163855D02*
X12923809Y-79963855D01*
X12085714Y-79925760D02*
X11971428Y-79963855D01*
X11971428Y-79963855D02*
X11780952Y-79963855D01*
X11780952Y-79963855D02*
X11704761Y-79925760D01*
X11704761Y-79925760D02*
X11666666Y-79887664D01*
X11666666Y-79887664D02*
X11628571Y-79811474D01*
X11628571Y-79811474D02*
X11628571Y-79735283D01*
X11628571Y-79735283D02*
X11666666Y-79659093D01*
X11666666Y-79659093D02*
X11704761Y-79620998D01*
X11704761Y-79620998D02*
X11780952Y-79582902D01*
X11780952Y-79582902D02*
X11933333Y-79544807D01*
X11933333Y-79544807D02*
X12009523Y-79506712D01*
X12009523Y-79506712D02*
X12047618Y-79468617D01*
X12047618Y-79468617D02*
X12085714Y-79392426D01*
X12085714Y-79392426D02*
X12085714Y-79316236D01*
X12085714Y-79316236D02*
X12047618Y-79240045D01*
X12047618Y-79240045D02*
X12009523Y-79201950D01*
X12009523Y-79201950D02*
X11933333Y-79163855D01*
X11933333Y-79163855D02*
X11742856Y-79163855D01*
X11742856Y-79163855D02*
X11628571Y-79201950D01*
X10828570Y-79887664D02*
X10866666Y-79925760D01*
X10866666Y-79925760D02*
X10980951Y-79963855D01*
X10980951Y-79963855D02*
X11057142Y-79963855D01*
X11057142Y-79963855D02*
X11171428Y-79925760D01*
X11171428Y-79925760D02*
X11247618Y-79849569D01*
X11247618Y-79849569D02*
X11285713Y-79773379D01*
X11285713Y-79773379D02*
X11323809Y-79620998D01*
X11323809Y-79620998D02*
X11323809Y-79506712D01*
X11323809Y-79506712D02*
X11285713Y-79354331D01*
X11285713Y-79354331D02*
X11247618Y-79278140D01*
X11247618Y-79278140D02*
X11171428Y-79201950D01*
X11171428Y-79201950D02*
X11057142Y-79163855D01*
X11057142Y-79163855D02*
X10980951Y-79163855D01*
X10980951Y-79163855D02*
X10866666Y-79201950D01*
X10866666Y-79201950D02*
X10828570Y-79240045D01*
X10104761Y-79963855D02*
X10485713Y-79963855D01*
X10485713Y-79963855D02*
X10485713Y-79163855D01*
X8809523Y-79201950D02*
X8885713Y-79163855D01*
X8885713Y-79163855D02*
X8999999Y-79163855D01*
X8999999Y-79163855D02*
X9114285Y-79201950D01*
X9114285Y-79201950D02*
X9190475Y-79278140D01*
X9190475Y-79278140D02*
X9228570Y-79354331D01*
X9228570Y-79354331D02*
X9266666Y-79506712D01*
X9266666Y-79506712D02*
X9266666Y-79620998D01*
X9266666Y-79620998D02*
X9228570Y-79773379D01*
X9228570Y-79773379D02*
X9190475Y-79849569D01*
X9190475Y-79849569D02*
X9114285Y-79925760D01*
X9114285Y-79925760D02*
X8999999Y-79963855D01*
X8999999Y-79963855D02*
X8923808Y-79963855D01*
X8923808Y-79963855D02*
X8809523Y-79925760D01*
X8809523Y-79925760D02*
X8771427Y-79887664D01*
X8771427Y-79887664D02*
X8771427Y-79620998D01*
X8771427Y-79620998D02*
X8923808Y-79620998D01*
X8085713Y-79430521D02*
X8085713Y-79963855D01*
X8276189Y-79125760D02*
X8466666Y-79697188D01*
X8466666Y-79697188D02*
X7971427Y-79697188D01*
X6638094Y-79201950D02*
X6714284Y-79163855D01*
X6714284Y-79163855D02*
X6828570Y-79163855D01*
X6828570Y-79163855D02*
X6942856Y-79201950D01*
X6942856Y-79201950D02*
X7019046Y-79278140D01*
X7019046Y-79278140D02*
X7057141Y-79354331D01*
X7057141Y-79354331D02*
X7095237Y-79506712D01*
X7095237Y-79506712D02*
X7095237Y-79620998D01*
X7095237Y-79620998D02*
X7057141Y-79773379D01*
X7057141Y-79773379D02*
X7019046Y-79849569D01*
X7019046Y-79849569D02*
X6942856Y-79925760D01*
X6942856Y-79925760D02*
X6828570Y-79963855D01*
X6828570Y-79963855D02*
X6752379Y-79963855D01*
X6752379Y-79963855D02*
X6638094Y-79925760D01*
X6638094Y-79925760D02*
X6599998Y-79887664D01*
X6599998Y-79887664D02*
X6599998Y-79620998D01*
X6599998Y-79620998D02*
X6752379Y-79620998D01*
X6257141Y-79963855D02*
X6257141Y-79163855D01*
X6257141Y-79163855D02*
X5799998Y-79963855D01*
X5799998Y-79963855D02*
X5799998Y-79163855D01*
X5419046Y-79963855D02*
X5419046Y-79163855D01*
X5419046Y-79163855D02*
X5228570Y-79163855D01*
X5228570Y-79163855D02*
X5114284Y-79201950D01*
X5114284Y-79201950D02*
X5038094Y-79278140D01*
X5038094Y-79278140D02*
X4999999Y-79354331D01*
X4999999Y-79354331D02*
X4961903Y-79506712D01*
X4961903Y-79506712D02*
X4961903Y-79620998D01*
X4961903Y-79620998D02*
X4999999Y-79773379D01*
X4999999Y-79773379D02*
X5038094Y-79849569D01*
X5038094Y-79849569D02*
X5114284Y-79925760D01*
X5114284Y-79925760D02*
X5228570Y-79963855D01*
X5228570Y-79963855D02*
X5419046Y-79963855D01*
X33728571Y-79963855D02*
X33728571Y-79163855D01*
X33728571Y-79163855D02*
X33423809Y-79163855D01*
X33423809Y-79163855D02*
X33347619Y-79201950D01*
X33347619Y-79201950D02*
X33309524Y-79240045D01*
X33309524Y-79240045D02*
X33271428Y-79316236D01*
X33271428Y-79316236D02*
X33271428Y-79430521D01*
X33271428Y-79430521D02*
X33309524Y-79506712D01*
X33309524Y-79506712D02*
X33347619Y-79544807D01*
X33347619Y-79544807D02*
X33423809Y-79582902D01*
X33423809Y-79582902D02*
X33728571Y-79582902D01*
X33004762Y-79163855D02*
X32814286Y-79963855D01*
X32814286Y-79963855D02*
X32661905Y-79392426D01*
X32661905Y-79392426D02*
X32509524Y-79963855D01*
X32509524Y-79963855D02*
X32319048Y-79163855D01*
X31557142Y-79963855D02*
X31823809Y-79582902D01*
X32014285Y-79963855D02*
X32014285Y-79163855D01*
X32014285Y-79163855D02*
X31709523Y-79163855D01*
X31709523Y-79163855D02*
X31633333Y-79201950D01*
X31633333Y-79201950D02*
X31595238Y-79240045D01*
X31595238Y-79240045D02*
X31557142Y-79316236D01*
X31557142Y-79316236D02*
X31557142Y-79430521D01*
X31557142Y-79430521D02*
X31595238Y-79506712D01*
X31595238Y-79506712D02*
X31633333Y-79544807D01*
X31633333Y-79544807D02*
X31709523Y-79582902D01*
X31709523Y-79582902D02*
X32014285Y-79582902D01*
X30719047Y-79163855D02*
X30452380Y-79963855D01*
X30452380Y-79963855D02*
X30185714Y-79163855D01*
X29957143Y-79925760D02*
X29842857Y-79963855D01*
X29842857Y-79963855D02*
X29652381Y-79963855D01*
X29652381Y-79963855D02*
X29576190Y-79925760D01*
X29576190Y-79925760D02*
X29538095Y-79887664D01*
X29538095Y-79887664D02*
X29500000Y-79811474D01*
X29500000Y-79811474D02*
X29500000Y-79735283D01*
X29500000Y-79735283D02*
X29538095Y-79659093D01*
X29538095Y-79659093D02*
X29576190Y-79620998D01*
X29576190Y-79620998D02*
X29652381Y-79582902D01*
X29652381Y-79582902D02*
X29804762Y-79544807D01*
X29804762Y-79544807D02*
X29880952Y-79506712D01*
X29880952Y-79506712D02*
X29919047Y-79468617D01*
X29919047Y-79468617D02*
X29957143Y-79392426D01*
X29957143Y-79392426D02*
X29957143Y-79316236D01*
X29957143Y-79316236D02*
X29919047Y-79240045D01*
X29919047Y-79240045D02*
X29880952Y-79201950D01*
X29880952Y-79201950D02*
X29804762Y-79163855D01*
X29804762Y-79163855D02*
X29614285Y-79163855D01*
X29614285Y-79163855D02*
X29500000Y-79201950D01*
X28090475Y-79887664D02*
X28128571Y-79925760D01*
X28128571Y-79925760D02*
X28242856Y-79963855D01*
X28242856Y-79963855D02*
X28319047Y-79963855D01*
X28319047Y-79963855D02*
X28433333Y-79925760D01*
X28433333Y-79925760D02*
X28509523Y-79849569D01*
X28509523Y-79849569D02*
X28547618Y-79773379D01*
X28547618Y-79773379D02*
X28585714Y-79620998D01*
X28585714Y-79620998D02*
X28585714Y-79506712D01*
X28585714Y-79506712D02*
X28547618Y-79354331D01*
X28547618Y-79354331D02*
X28509523Y-79278140D01*
X28509523Y-79278140D02*
X28433333Y-79201950D01*
X28433333Y-79201950D02*
X28319047Y-79163855D01*
X28319047Y-79163855D02*
X28242856Y-79163855D01*
X28242856Y-79163855D02*
X28128571Y-79201950D01*
X28128571Y-79201950D02*
X28090475Y-79240045D01*
X27595237Y-79163855D02*
X27442856Y-79163855D01*
X27442856Y-79163855D02*
X27366666Y-79201950D01*
X27366666Y-79201950D02*
X27290475Y-79278140D01*
X27290475Y-79278140D02*
X27252380Y-79430521D01*
X27252380Y-79430521D02*
X27252380Y-79697188D01*
X27252380Y-79697188D02*
X27290475Y-79849569D01*
X27290475Y-79849569D02*
X27366666Y-79925760D01*
X27366666Y-79925760D02*
X27442856Y-79963855D01*
X27442856Y-79963855D02*
X27595237Y-79963855D01*
X27595237Y-79963855D02*
X27671428Y-79925760D01*
X27671428Y-79925760D02*
X27747618Y-79849569D01*
X27747618Y-79849569D02*
X27785714Y-79697188D01*
X27785714Y-79697188D02*
X27785714Y-79430521D01*
X27785714Y-79430521D02*
X27747618Y-79278140D01*
X27747618Y-79278140D02*
X27671428Y-79201950D01*
X27671428Y-79201950D02*
X27595237Y-79163855D01*
X26909523Y-79963855D02*
X26909523Y-79163855D01*
X26909523Y-79163855D02*
X26642857Y-79735283D01*
X26642857Y-79735283D02*
X26376190Y-79163855D01*
X26376190Y-79163855D02*
X26376190Y-79963855D01*
X25004761Y-79163855D02*
X25385713Y-79163855D01*
X25385713Y-79163855D02*
X25423809Y-79544807D01*
X25423809Y-79544807D02*
X25385713Y-79506712D01*
X25385713Y-79506712D02*
X25309523Y-79468617D01*
X25309523Y-79468617D02*
X25119047Y-79468617D01*
X25119047Y-79468617D02*
X25042856Y-79506712D01*
X25042856Y-79506712D02*
X25004761Y-79544807D01*
X25004761Y-79544807D02*
X24966666Y-79620998D01*
X24966666Y-79620998D02*
X24966666Y-79811474D01*
X24966666Y-79811474D02*
X25004761Y-79887664D01*
X25004761Y-79887664D02*
X25042856Y-79925760D01*
X25042856Y-79925760D02*
X25119047Y-79963855D01*
X25119047Y-79963855D02*
X25309523Y-79963855D01*
X25309523Y-79963855D02*
X25385713Y-79925760D01*
X25385713Y-79925760D02*
X25423809Y-79887664D01*
X24738094Y-79163855D02*
X24471427Y-79963855D01*
X24471427Y-79963855D02*
X24204761Y-79163855D01*
X22909523Y-79201950D02*
X22985713Y-79163855D01*
X22985713Y-79163855D02*
X23099999Y-79163855D01*
X23099999Y-79163855D02*
X23214285Y-79201950D01*
X23214285Y-79201950D02*
X23290475Y-79278140D01*
X23290475Y-79278140D02*
X23328570Y-79354331D01*
X23328570Y-79354331D02*
X23366666Y-79506712D01*
X23366666Y-79506712D02*
X23366666Y-79620998D01*
X23366666Y-79620998D02*
X23328570Y-79773379D01*
X23328570Y-79773379D02*
X23290475Y-79849569D01*
X23290475Y-79849569D02*
X23214285Y-79925760D01*
X23214285Y-79925760D02*
X23099999Y-79963855D01*
X23099999Y-79963855D02*
X23023808Y-79963855D01*
X23023808Y-79963855D02*
X22909523Y-79925760D01*
X22909523Y-79925760D02*
X22871427Y-79887664D01*
X22871427Y-79887664D02*
X22871427Y-79620998D01*
X22871427Y-79620998D02*
X23023808Y-79620998D01*
X22528570Y-79963855D02*
X22528570Y-79163855D01*
X22528570Y-79163855D02*
X22071427Y-79963855D01*
X22071427Y-79963855D02*
X22071427Y-79163855D01*
X21690475Y-79963855D02*
X21690475Y-79163855D01*
X21690475Y-79163855D02*
X21499999Y-79163855D01*
X21499999Y-79163855D02*
X21385713Y-79201950D01*
X21385713Y-79201950D02*
X21309523Y-79278140D01*
X21309523Y-79278140D02*
X21271428Y-79354331D01*
X21271428Y-79354331D02*
X21233332Y-79506712D01*
X21233332Y-79506712D02*
X21233332Y-79620998D01*
X21233332Y-79620998D02*
X21271428Y-79773379D01*
X21271428Y-79773379D02*
X21309523Y-79849569D01*
X21309523Y-79849569D02*
X21385713Y-79925760D01*
X21385713Y-79925760D02*
X21499999Y-79963855D01*
X21499999Y-79963855D02*
X21690475Y-79963855D01*
X3766666Y-5333855D02*
X3766666Y-5905283D01*
X3766666Y-5905283D02*
X3804761Y-6019569D01*
X3804761Y-6019569D02*
X3880952Y-6095760D01*
X3880952Y-6095760D02*
X3995237Y-6133855D01*
X3995237Y-6133855D02*
X4071428Y-6133855D01*
X3004761Y-5333855D02*
X3385713Y-5333855D01*
X3385713Y-5333855D02*
X3423809Y-5714807D01*
X3423809Y-5714807D02*
X3385713Y-5676712D01*
X3385713Y-5676712D02*
X3309523Y-5638617D01*
X3309523Y-5638617D02*
X3119047Y-5638617D01*
X3119047Y-5638617D02*
X3042856Y-5676712D01*
X3042856Y-5676712D02*
X3004761Y-5714807D01*
X3004761Y-5714807D02*
X2966666Y-5790998D01*
X2966666Y-5790998D02*
X2966666Y-5981474D01*
X2966666Y-5981474D02*
X3004761Y-6057664D01*
X3004761Y-6057664D02*
X3042856Y-6095760D01*
X3042856Y-6095760D02*
X3119047Y-6133855D01*
X3119047Y-6133855D02*
X3309523Y-6133855D01*
X3309523Y-6133855D02*
X3385713Y-6095760D01*
X3385713Y-6095760D02*
X3423809Y-6057664D01*
M02*
