%TF.GenerationSoftware,KiCad,Pcbnew,10.0.6*%
%TF.CreationDate,2026-09-12T20:40:13-04:00*%
%TF.ProjectId,int-board,696e742d-626f-4617-9264-2e6b69636164,rev?*%
%TF.SameCoordinates,Original*%
%TF.FileFunction,Copper,L1,Top*%
%TF.FilePolarity,Positive*%
%FSLAX46Y46*%
G04 Gerber Fmt 4.6, Leading zero omitted, Abs format (unit mm)*
G04 Created by KiCad (PCBNEW 10.0.6) date 2026-09-12 20:40:13*
%MOMM*%
%LPD*%
G01*
G04 APERTURE LIST*
G04 Aperture macros list*
%AMRoundRect*
0 Rectangle with rounded corners*
0 $1 Rounding radius*
0 $2 $3 $4 $5 $6 $7 $8 $9 X,Y pos of 4 corners*
0 Add a 4 corners polygon primitive as box body*
4,1,4,$2,$3,$4,$5,$6,$7,$8,$9,$2,$3,0*
0 Add four circle primitives for the rounded corners*
1,1,$1+$1,$2,$3*
1,1,$1+$1,$4,$5*
1,1,$1+$1,$6,$7*
1,1,$1+$1,$8,$9*
0 Add four rect primitives between the rounded corners*
20,1,$1+$1,$2,$3,$4,$5,0*
20,1,$1+$1,$4,$5,$6,$7,0*
20,1,$1+$1,$6,$7,$8,$9,0*
20,1,$1+$1,$8,$9,$2,$3,0*%
G04 Aperture macros list end*
%TA.AperFunction,ComponentPad*%
%ADD10C,1.600000*%
%TD*%
%TA.AperFunction,ComponentPad*%
%ADD11RoundRect,0.400000X-0.400000X-0.400000X0.400000X-0.400000X0.400000X0.400000X-0.400000X0.400000X0*%
%TD*%
%TA.AperFunction,ComponentPad*%
%ADD12RoundRect,0.250000X0.550000X-0.550000X0.550000X0.550000X-0.550000X0.550000X-0.550000X-0.550000X0*%
%TD*%
%TA.AperFunction,ComponentPad*%
%ADD13RoundRect,0.487500X-0.487500X0.487500X-0.487500X-0.487500X0.487500X-0.487500X0.487500X0.487500X0*%
%TD*%
%TA.AperFunction,ComponentPad*%
%ADD14C,1.950000*%
%TD*%
%TA.AperFunction,ComponentPad*%
%ADD15RoundRect,0.250001X-0.949999X0.949999X-0.949999X-0.949999X0.949999X-0.949999X0.949999X0.949999X0*%
%TD*%
%TA.AperFunction,ComponentPad*%
%ADD16C,2.400000*%
%TD*%
%TA.AperFunction,ComponentPad*%
%ADD17C,1.800000*%
%TD*%
%TA.AperFunction,ComponentPad*%
%ADD18RoundRect,0.487500X-0.487500X-0.487500X0.487500X-0.487500X0.487500X0.487500X-0.487500X0.487500X0*%
%TD*%
%TA.AperFunction,ComponentPad*%
%ADD19RoundRect,0.249999X-0.850001X-0.850001X0.850001X-0.850001X0.850001X0.850001X-0.850001X0.850001X0*%
%TD*%
%TA.AperFunction,ComponentPad*%
%ADD20C,2.200000*%
%TD*%
%TA.AperFunction,ComponentPad*%
%ADD21RoundRect,0.450000X-0.450000X-0.450000X0.450000X-0.450000X0.450000X0.450000X-0.450000X0.450000X0*%
%TD*%
%TA.AperFunction,ComponentPad*%
%ADD22RoundRect,0.425000X-0.425000X-0.425000X0.425000X-0.425000X0.425000X0.425000X-0.425000X0.425000X0*%
%TD*%
%TA.AperFunction,ComponentPad*%
%ADD23C,1.700000*%
%TD*%
%TA.AperFunction,ViaPad*%
%ADD24C,0.800000*%
%TD*%
%TA.AperFunction,ViaPad*%
%ADD25C,1.000000*%
%TD*%
%TA.AperFunction,Conductor*%
%ADD26C,0.250000*%
%TD*%
%TA.AperFunction,Conductor*%
%ADD27C,0.500000*%
%TD*%
%TA.AperFunction,Conductor*%
%ADD28C,0.400000*%
%TD*%
%ADD29C,0.350000*%
G04 APERTURE END LIST*
D10*
%TO.P,J9,3*%
%TO.N,SCL*%
X7310000Y-13450000D03*
%TO.P,J9,4*%
%TO.N,GPIO4*%
X7310000Y-15990000D03*
%TO.P,J9,5*%
%TO.N,GND*%
X7310000Y-18530000D03*
%TO.P,J9,6*%
%TO.N,GPIO18*%
X7310000Y-21070000D03*
%TO.P,J9,7*%
%TO.N,SDA*%
X7310000Y-23610000D03*
%TO.P,J9,8*%
%TO.N,+5V*%
X7310000Y-26150000D03*
%TO.P,J9,9*%
%TO.N,3V3*%
X7310000Y-28690000D03*
%TO.P,J9,10*%
%TO.N,GPIO10*%
X7310000Y-31230000D03*
%TO.P,J9,11*%
%TO.N,GPIO9*%
X7310000Y-33770000D03*
%TO.P,J9,12*%
%TO.N,GPIO11*%
X7310000Y-36310000D03*
%TO.P,J9,13*%
%TO.N,GPIO7*%
X7310000Y-38850000D03*
%TO.P,J9,14*%
%TO.N,GPIO8*%
X7310000Y-41390000D03*
%TO.P,J9,15*%
%TO.N,GND*%
X7310000Y-43930000D03*
%TO.P,J9,17*%
X7310000Y-49010000D03*
%TO.P,J9,19*%
%TO.N,GPIO20*%
X7310000Y-54090000D03*
%TO.P,J9,20*%
%TO.N,GPIO21*%
X7310000Y-56630000D03*
%TD*%
D11*
%TO.P,J8,1*%
%TO.N,S_SP-C*%
X49500000Y-82000000D03*
D10*
%TO.P,J8,2*%
%TO.N,S_SP-E*%
X52040000Y-82000000D03*
%TO.P,J8,3*%
%TO.N,COM*%
X54580000Y-82000000D03*
%TD*%
D12*
%TO.P,U2,1*%
%TO.N,VS*%
X10500000Y-44810000D03*
D10*
%TO.P,U2,2*%
%TO.N,K5*%
X13040000Y-44810000D03*
%TO.P,U2,3*%
%TO.N,VS*%
X15580000Y-44810000D03*
%TO.P,U2,4*%
%TO.N,K6*%
X18120000Y-44810000D03*
%TO.P,U2,5*%
%TO.N,VS*%
X20660000Y-44810000D03*
%TO.P,U2,6*%
%TO.N,K7*%
X23200000Y-44810000D03*
%TO.P,U2,7*%
%TO.N,VS*%
X25740000Y-44810000D03*
%TO.P,U2,8*%
%TO.N,K8*%
X28280000Y-44810000D03*
%TO.P,U2,9*%
%TO.N,GND*%
X28280000Y-37190000D03*
%TO.P,U2,10*%
%TO.N,GPIO23*%
X25740000Y-37190000D03*
%TO.P,U2,11*%
%TO.N,GND*%
X23200000Y-37190000D03*
%TO.P,U2,12*%
%TO.N,GPIO12*%
X20660000Y-37190000D03*
%TO.P,U2,13*%
%TO.N,GND*%
X18120000Y-37190000D03*
%TO.P,U2,14*%
%TO.N,GPIO5*%
X15580000Y-37190000D03*
%TO.P,U2,15*%
%TO.N,GND*%
X13040000Y-37190000D03*
%TO.P,U2,16*%
%TO.N,GPIO6*%
X10500000Y-37190000D03*
%TD*%
D13*
%TO.P,J7,1*%
%TO.N,VS*%
X53000000Y-46750000D03*
D14*
%TO.P,J7,2*%
%TO.N,COM*%
X53000000Y-49250000D03*
%TO.P,J7,3*%
%TO.N,+5V*%
X53000000Y-51750000D03*
%TO.P,J7,4*%
%TO.N,GND*%
X53000000Y-54250000D03*
%TD*%
D15*
%TO.P,C1,1*%
%TO.N,VS*%
X46800000Y-16500000D03*
D16*
%TO.P,C1,2*%
%TO.N,COM*%
X46800000Y-41500000D03*
%TD*%
D17*
%TO.P,TP2,1*%
%TO.N,COM*%
X43000000Y-81000000D03*
%TD*%
D10*
%TO.P,R12,1*%
%TO.N,K12*%
X41500000Y-48420000D03*
%TO.P,R12,2*%
%TO.N,S_SP-E*%
X41500000Y-58580000D03*
%TD*%
D18*
%TO.P,J2,1*%
%TO.N,S_CHIL*%
X21050000Y-6950000D03*
D14*
%TO.P,J2,2*%
%TO.N,S_BOS1*%
X23550000Y-6950000D03*
%TO.P,J2,3*%
%TO.N,S_BOS2*%
X26050000Y-6950000D03*
%TO.P,J2,4*%
%TO.N,COM*%
X28550000Y-6950000D03*
%TD*%
D10*
%TO.P,R2,1*%
%TO.N,K2*%
X35000000Y-23420000D03*
%TO.P,R2,2*%
%TO.N,S_DHW*%
X35000000Y-33580000D03*
%TD*%
D18*
%TO.P,J1,1*%
%TO.N,S_ZV*%
X9350000Y-6950000D03*
D14*
%TO.P,J1,2*%
%TO.N,S_DHW*%
X11850000Y-6950000D03*
%TO.P,J1,3*%
%TO.N,S_BLR*%
X14350000Y-6950000D03*
%TO.P,J1,4*%
%TO.N,COM*%
X16850000Y-6950000D03*
%TD*%
D10*
%TO.P,R4,1*%
%TO.N,K4*%
X41500000Y-23420000D03*
%TO.P,R4,2*%
%TO.N,S_CHIL*%
X41500000Y-33580000D03*
%TD*%
D19*
%TO.P,D2,1*%
%TO.N,VS*%
X45500000Y-76600000D03*
D20*
%TO.P,D2,2*%
%TO.N,ACC*%
X55660000Y-76600000D03*
%TD*%
D10*
%TO.P,R7,1*%
%TO.N,K7*%
X38250000Y-35920000D03*
%TO.P,R7,2*%
%TO.N,S_DEHUM*%
X38250000Y-46080000D03*
%TD*%
D17*
%TO.P,TP3,1*%
%TO.N,GND*%
X46000000Y-81000000D03*
%TD*%
%TO.P,TP1,1*%
%TO.N,VS*%
X40000000Y-81000000D03*
%TD*%
D19*
%TO.P,D3,1*%
%TO.N,ACF*%
X45500000Y-67000000D03*
D20*
%TO.P,D3,2*%
%TO.N,COM*%
X55660000Y-67000000D03*
%TD*%
D10*
%TO.P,R5,1*%
%TO.N,K5*%
X31700000Y-35920000D03*
%TO.P,R5,2*%
%TO.N,S_BOS1*%
X31700000Y-46080000D03*
%TD*%
D12*
%TO.P,U3,1*%
%TO.N,VS*%
X10500000Y-57310000D03*
D10*
%TO.P,U3,2*%
%TO.N,K9*%
X13040000Y-57310000D03*
%TO.P,U3,3*%
%TO.N,VS*%
X15580000Y-57310000D03*
%TO.P,U3,4*%
%TO.N,K10*%
X18120000Y-57310000D03*
%TO.P,U3,5*%
%TO.N,VS*%
X20660000Y-57310000D03*
%TO.P,U3,6*%
%TO.N,K11*%
X23200000Y-57310000D03*
%TO.P,U3,7*%
%TO.N,VS*%
X25740000Y-57310000D03*
%TO.P,U3,8*%
%TO.N,K12*%
X28280000Y-57310000D03*
%TO.P,U3,9*%
%TO.N,GND*%
X28280000Y-49690000D03*
%TO.P,U3,10*%
%TO.N,GPIO16*%
X25740000Y-49690000D03*
%TO.P,U3,11*%
%TO.N,GND*%
X23200000Y-49690000D03*
%TO.P,U3,12*%
%TO.N,GPIO13*%
X20660000Y-49690000D03*
%TO.P,U3,13*%
%TO.N,GND*%
X18120000Y-49690000D03*
%TO.P,U3,14*%
%TO.N,GPIO19*%
X15580000Y-49690000D03*
%TO.P,U3,15*%
%TO.N,GND*%
X13040000Y-49690000D03*
%TO.P,U3,16*%
%TO.N,GPIO24*%
X10500000Y-49690000D03*
%TD*%
%TO.P,R10,1*%
%TO.N,K10*%
X35000000Y-48420000D03*
%TO.P,R10,2*%
%TO.N,S_SP-D*%
X35000000Y-58580000D03*
%TD*%
%TO.P,R1,1*%
%TO.N,K1*%
X31700000Y-23420000D03*
%TO.P,R1,2*%
%TO.N,S_ZV*%
X31700000Y-33580000D03*
%TD*%
D21*
%TO.P,F1,1*%
%TO.N,ACR*%
X52460000Y-25500000D03*
D17*
%TO.P,F1,2*%
%TO.N,ACF*%
X57540000Y-25500000D03*
%TD*%
D10*
%TO.P,R3,1*%
%TO.N,K3*%
X38250000Y-23420000D03*
%TO.P,R3,2*%
%TO.N,S_BLR*%
X38250000Y-33580000D03*
%TD*%
%TO.P,R6,1*%
%TO.N,K6*%
X35000000Y-35920000D03*
%TO.P,R6,2*%
%TO.N,S_BOS2*%
X35000000Y-46080000D03*
%TD*%
D13*
%TO.P,J6,1*%
%TO.N,3V3*%
X53000000Y-29500000D03*
D14*
%TO.P,J6,2*%
%TO.N,SDA*%
X53000000Y-32000000D03*
%TO.P,J6,3*%
%TO.N,SCL*%
X53000000Y-34500000D03*
%TO.P,J6,4*%
%TO.N,GPIO4*%
X53000000Y-37000000D03*
%TO.P,J6,5*%
%TO.N,GND*%
X53000000Y-39500000D03*
%TD*%
D19*
%TO.P,D4,1*%
%TO.N,ACC*%
X45500000Y-70200000D03*
D20*
%TO.P,D4,2*%
%TO.N,COM*%
X55660000Y-70200000D03*
%TD*%
D12*
%TO.P,U1,1*%
%TO.N,VS*%
X10500000Y-32310000D03*
D10*
%TO.P,U1,2*%
%TO.N,K1*%
X13040000Y-32310000D03*
%TO.P,U1,3*%
%TO.N,VS*%
X15580000Y-32310000D03*
%TO.P,U1,4*%
%TO.N,K2*%
X18120000Y-32310000D03*
%TO.P,U1,5*%
%TO.N,VS*%
X20660000Y-32310000D03*
%TO.P,U1,6*%
%TO.N,K3*%
X23200000Y-32310000D03*
%TO.P,U1,7*%
%TO.N,VS*%
X25740000Y-32310000D03*
%TO.P,U1,8*%
%TO.N,K4*%
X28280000Y-32310000D03*
%TO.P,U1,9*%
%TO.N,GND*%
X28280000Y-24690000D03*
%TO.P,U1,10*%
%TO.N,GPIO25*%
X25740000Y-24690000D03*
%TO.P,U1,11*%
%TO.N,GND*%
X23200000Y-24690000D03*
%TO.P,U1,12*%
%TO.N,GPIO22*%
X20660000Y-24690000D03*
%TO.P,U1,13*%
%TO.N,GND*%
X18120000Y-24690000D03*
%TO.P,U1,14*%
%TO.N,GPIO27*%
X15580000Y-24690000D03*
%TO.P,U1,15*%
%TO.N,GND*%
X13040000Y-24690000D03*
%TO.P,U1,16*%
%TO.N,GPIO17*%
X10500000Y-24690000D03*
%TD*%
%TO.P,R8,1*%
%TO.N,K8*%
X41500000Y-35920000D03*
%TO.P,R8,2*%
%TO.N,S_SCALA*%
X41500000Y-46080000D03*
%TD*%
%TO.P,R9,1*%
%TO.N,K9*%
X31700000Y-48420000D03*
%TO.P,R9,2*%
%TO.N,S_HPHEAT*%
X31700000Y-58580000D03*
%TD*%
%TO.P,R11,1*%
%TO.N,K11*%
X38250000Y-48420000D03*
%TO.P,R11,2*%
%TO.N,S_SP-C*%
X38250000Y-58580000D03*
%TD*%
D19*
%TO.P,D1,1*%
%TO.N,VS*%
X45500000Y-73400000D03*
D20*
%TO.P,D1,2*%
%TO.N,ACF*%
X55660000Y-73400000D03*
%TD*%
D18*
%TO.P,J4,1*%
%TO.N,ACR*%
X44450000Y-6950000D03*
D14*
%TO.P,J4,2*%
%TO.N,ACC*%
X46950000Y-6950000D03*
%TO.P,J4,3*%
%TO.N,S_SP-D*%
X49450000Y-6950000D03*
%TO.P,J4,4*%
%TO.N,COM*%
X51950000Y-6950000D03*
%TD*%
D18*
%TO.P,J3,1*%
%TO.N,S_DEHUM*%
X32750000Y-6950000D03*
D14*
%TO.P,J3,2*%
%TO.N,S_SCALA*%
X35250000Y-6950000D03*
%TO.P,J3,3*%
%TO.N,S_HPHEAT*%
X37750000Y-6950000D03*
%TO.P,J3,4*%
%TO.N,COM*%
X40250000Y-6950000D03*
%TD*%
D22*
%TO.P,J5,1*%
%TO.N,N/C*%
X4770000Y-8370000D03*
D23*
%TO.P,J5,2*%
%TO.N,+5V*%
X2230000Y-8370000D03*
%TO.P,J5,3*%
%TO.N,SDA*%
X4770000Y-10910000D03*
%TO.P,J5,4*%
%TO.N,+5V*%
X2230000Y-10910000D03*
%TO.P,J5,5*%
%TO.N,SCL*%
X4770000Y-13450000D03*
%TO.P,J5,6*%
%TO.N,GND*%
X2230000Y-13450000D03*
%TO.P,J5,7*%
%TO.N,GPIO4*%
X4770000Y-15990000D03*
%TO.P,J5,8*%
%TO.N,N/C*%
X2230000Y-15990000D03*
%TO.P,J5,9*%
%TO.N,GND*%
X4770000Y-18530000D03*
%TO.P,J5,10*%
%TO.N,N/C*%
X2230000Y-18530000D03*
%TO.P,J5,11*%
%TO.N,GPIO17*%
X4770000Y-21070000D03*
%TO.P,J5,12*%
%TO.N,GPIO18*%
X2230000Y-21070000D03*
%TO.P,J5,13*%
%TO.N,GPIO27*%
X4770000Y-23610000D03*
%TO.P,J5,14*%
%TO.N,GND*%
X2230000Y-23610000D03*
%TO.P,J5,15*%
%TO.N,GPIO22*%
X4770000Y-26150000D03*
%TO.P,J5,16*%
%TO.N,GPIO23*%
X2230000Y-26150000D03*
%TO.P,J5,17*%
%TO.N,3V3*%
X4770000Y-28690000D03*
%TO.P,J5,18*%
%TO.N,GPIO24*%
X2230000Y-28690000D03*
%TO.P,J5,19*%
%TO.N,GPIO10*%
X4770000Y-31230000D03*
%TO.P,J5,20*%
%TO.N,GND*%
X2230000Y-31230000D03*
%TO.P,J5,21*%
%TO.N,GPIO9*%
X4770000Y-33770000D03*
%TO.P,J5,22*%
%TO.N,GPIO25*%
X2230000Y-33770000D03*
%TO.P,J5,23*%
%TO.N,GPIO11*%
X4770000Y-36310000D03*
%TO.P,J5,24*%
%TO.N,GPIO8*%
X2230000Y-36310000D03*
%TO.P,J5,25*%
%TO.N,N/C*%
X4770000Y-38850000D03*
%TO.P,J5,26*%
%TO.N,GPIO7*%
X2230000Y-38850000D03*
%TO.P,J5,27*%
%TO.N,N/C*%
X4770000Y-41390000D03*
%TO.P,J5,28*%
X2230000Y-41390000D03*
%TO.P,J5,29*%
%TO.N,GPIO5*%
X4770000Y-43930000D03*
%TO.P,J5,30*%
%TO.N,GND*%
X2230000Y-43930000D03*
%TO.P,J5,31*%
%TO.N,GPIO6*%
X4770000Y-46470000D03*
%TO.P,J5,32*%
%TO.N,GPIO12*%
X2230000Y-46470000D03*
%TO.P,J5,33*%
%TO.N,GPIO13*%
X4770000Y-49010000D03*
%TO.P,J5,34*%
%TO.N,GND*%
X2230000Y-49010000D03*
%TO.P,J5,35*%
%TO.N,GPIO19*%
X4770000Y-51550000D03*
%TO.P,J5,36*%
%TO.N,GPIO16*%
X2230000Y-51550000D03*
%TO.P,J5,37*%
%TO.N,N/C*%
X4770000Y-54090000D03*
%TO.P,J5,38*%
%TO.N,GPIO20*%
X2230000Y-54090000D03*
%TO.P,J5,39*%
%TO.N,N/C*%
X4770000Y-56630000D03*
%TO.P,J5,40*%
%TO.N,GPIO21*%
X2230000Y-56630000D03*
%TD*%
D24*
%TO.N,SCL*%
X46967200Y-12919900D03*
%TO.N,GPIO4*%
X46922500Y-13943800D03*
%TO.N,SDA*%
X50347900Y-15242700D03*
D25*
%TO.N,+5V*%
X44653300Y-9993100D03*
D24*
%TO.N,3V3*%
X51125500Y-17332800D03*
D25*
%TO.N,COM*%
X56261900Y-48308400D03*
%TO.N,VS*%
X46441000Y-25071600D03*
D24*
%TO.N,S_CHIL*%
X35349700Y-29087700D03*
%TO.N,S_BLR*%
X34621000Y-31810300D03*
%TO.N,S_HPHEAT*%
X34737700Y-56455800D03*
%TD*%
%TO.N,SCL*%
D26*
X49318600Y-15271300D02*
X46967200Y-12919900D01*
X49318700Y-15271300D02*
X49318600Y-15271300D01*
X49318700Y-30818700D02*
X49318700Y-15271300D01*
X53000000Y-34500000D02*
X49318700Y-30818700D01*
%TO.N,GPIO4*%
X47060500Y-13943800D02*
X46922500Y-13943800D01*
X48377700Y-15261000D02*
X47060500Y-13943800D01*
X48377700Y-32377700D02*
X48377700Y-15261000D01*
X53000000Y-37000000D02*
X48377700Y-32377700D01*
%TO.N,GND*%
D27*
X28939300Y-28969300D02*
X33008100Y-33038100D01*
X41275400Y-76275400D02*
X46000000Y-81000000D01*
X28280000Y-49690000D02*
X33350000Y-54760000D01*
X54493600Y-40993600D02*
X53000000Y-39500000D01*
X23200000Y-49690000D02*
X24551600Y-48338400D01*
X35584900Y-59906000D02*
X41275400Y-65596500D01*
X23200000Y-24690000D02*
X27479300Y-28969300D01*
X33008100Y-42685500D02*
X28280000Y-47413600D01*
X24551600Y-48338400D02*
X28280000Y-48338400D01*
X41275400Y-65596500D02*
X41275400Y-76275400D01*
X36948300Y-57981100D02*
X40679400Y-54250000D01*
D28*
X750000Y-13450000D02*
X750000Y-49010000D01*
D27*
X33350000Y-54760000D02*
X33350000Y-58787700D01*
X27479300Y-28969300D02*
X28939300Y-28969300D01*
X36948300Y-58542600D02*
X36948300Y-57981100D01*
X53000000Y-54250000D02*
X54493600Y-52756400D01*
X33350000Y-58787700D02*
X34468300Y-59906000D01*
X54493600Y-52756400D02*
X54493600Y-40993600D01*
D28*
X750000Y-13450000D02*
X2230000Y-13450000D01*
D27*
X28280000Y-48338400D02*
X28280000Y-49690000D01*
X35584900Y-59906000D02*
X36948300Y-58542600D01*
D28*
X750000Y-43930000D02*
X2230000Y-43930000D01*
D27*
X28280000Y-47413600D02*
X28280000Y-48338400D01*
X33008100Y-33038100D02*
X33008100Y-42685500D01*
X7310000Y-43930000D02*
X7310000Y-49010000D01*
X34468300Y-59906000D02*
X35584900Y-59906000D01*
D28*
X750000Y-23610000D02*
X2230000Y-23610000D01*
D27*
X40679400Y-54250000D02*
X53000000Y-54250000D01*
D28*
X750000Y-31229999D02*
X2230000Y-31229999D01*
X750000Y-49010000D02*
X2230000Y-49010000D01*
%TO.N,SDA*%
D26*
X6075400Y-12215400D02*
X6075400Y-22375400D01*
X53000000Y-32000000D02*
X50347900Y-29347900D01*
X50347900Y-29347900D02*
X50347900Y-15242700D01*
X4770000Y-10910000D02*
X6075400Y-12215400D01*
X6075400Y-22375400D02*
X7310000Y-23610000D01*
%TO.N,+5V*%
D27*
X3604400Y-6995600D02*
X2230000Y-8370000D01*
X5578500Y-6995600D02*
X3604400Y-6995600D01*
X44653300Y-43403300D02*
X53000000Y-51750000D01*
X8611700Y-10028800D02*
X5578500Y-6995600D01*
X44653300Y-9993100D02*
X44653300Y-43403300D01*
X7310000Y-26150000D02*
X8611700Y-24848300D01*
X2230000Y-10910000D02*
X2230000Y-8370000D01*
X8611700Y-24848300D02*
X8611700Y-10028800D01*
%TO.N,3V3*%
D26*
X53000000Y-29500000D02*
X51125500Y-27625500D01*
X51125500Y-27625500D02*
X51125500Y-17332800D01*
%TO.N,GPIO8*%
X3500000Y-37579999D02*
X3500000Y-40119999D01*
X7310000Y-40119999D02*
X7310000Y-41389999D01*
X3500000Y-40119999D02*
X7310000Y-40119999D01*
X2230000Y-36309999D02*
X3500000Y-37579999D01*
%TO.N,S_SP-C*%
X45216400Y-78941000D02*
X46441000Y-78941000D01*
X42956400Y-76681000D02*
X45216400Y-78941000D01*
X46441000Y-78941000D02*
X49500000Y-82000000D01*
X42956400Y-63286400D02*
X42956400Y-76681000D01*
X38250000Y-58580000D02*
X42956400Y-63286400D01*
%TO.N,S_SP-E*%
X52040000Y-77350300D02*
X52040000Y-82000000D01*
X44452900Y-71799900D02*
X46489600Y-71799900D01*
X43679800Y-71026800D02*
X44452900Y-71799900D01*
X46489600Y-71799900D02*
X52040000Y-77350300D01*
X43679800Y-60759800D02*
X43679800Y-71026800D01*
X41500000Y-58580000D02*
X43679800Y-60759800D01*
%TO.N,COM*%
D27*
X54037600Y-71822400D02*
X55660000Y-70200000D01*
X53000000Y-49250000D02*
X46800000Y-43050000D01*
X55660000Y-67000000D02*
X56011800Y-66648200D01*
X55660000Y-70200000D02*
X55660000Y-67000000D01*
X42268400Y-4931600D02*
X40250000Y-6950000D01*
X43000000Y-81000000D02*
X45328100Y-83328100D01*
X52564500Y-83328100D02*
X54236300Y-81656300D01*
X46800000Y-43050000D02*
X46800000Y-41500000D01*
X56011800Y-48308400D02*
X56011800Y-11011800D01*
X49931600Y-4931600D02*
X42268400Y-4931600D01*
X54236300Y-81656300D02*
X54580000Y-82000000D01*
X56011800Y-11011800D02*
X51950000Y-6950000D01*
X56011800Y-48308400D02*
X56261900Y-48308400D01*
X45328100Y-83328100D02*
X52564500Y-83328100D01*
X51950000Y-6950000D02*
X49931600Y-4931600D01*
X54236300Y-81656300D02*
X54037600Y-81457600D01*
X56011800Y-66648200D02*
X56011800Y-48308400D01*
X54037600Y-81457600D02*
X54037600Y-71822400D01*
%TO.N,VS*%
X46800000Y-24712600D02*
X46441000Y-25071600D01*
X25740000Y-57310000D02*
X40000000Y-71570000D01*
X40000000Y-71570000D02*
X40000000Y-81000000D01*
X46441000Y-25071600D02*
X46441000Y-37125400D01*
X46441000Y-37125400D02*
X53000000Y-43684400D01*
X24384800Y-33665200D02*
X22015200Y-33665200D01*
X25740000Y-44810000D02*
X29583600Y-40966400D01*
X53000000Y-43684400D02*
X53000000Y-46750000D01*
X9142800Y-55952800D02*
X9142800Y-46167200D01*
X45500000Y-73400000D02*
X45500000Y-76600000D01*
X10500000Y-57310000D02*
X9142800Y-55952800D01*
X22015200Y-33665200D02*
X20660000Y-32310000D01*
X29583600Y-36153600D02*
X25740000Y-32310000D01*
X25740000Y-32310000D02*
X24384800Y-33665200D01*
X9142800Y-46167200D02*
X10500000Y-44810000D01*
X29583600Y-40966400D02*
X29583600Y-36153600D01*
X46800000Y-16500000D02*
X46800000Y-24712600D01*
%TO.N,GPIO23*%
D26*
X19603800Y-35430800D02*
X23980800Y-35430800D01*
X12401100Y-27455300D02*
X16885400Y-31939600D01*
X16885400Y-31939600D02*
X16885400Y-32712400D01*
X2230000Y-26150000D02*
X3535300Y-27455300D01*
X23980800Y-35430800D02*
X25740000Y-37190000D01*
X16885400Y-32712400D02*
X19603800Y-35430800D01*
X3535300Y-27455300D02*
X12401100Y-27455300D01*
%TO.N,GPIO6*%
X10500000Y-39886000D02*
X10500000Y-37190000D01*
X6040000Y-45200000D02*
X6040000Y-43479600D01*
X4770000Y-46470000D02*
X6040000Y-45200000D01*
X6894900Y-42624700D02*
X7761300Y-42624700D01*
X6040000Y-43479600D02*
X6894900Y-42624700D01*
X7761300Y-42624700D02*
X10500000Y-39886000D01*
%TO.N,S_CHIL*%
X21050000Y-14788000D02*
X35349700Y-29087700D01*
X21050000Y-6950000D02*
X21050000Y-14788000D01*
%TO.N,S_BOS1*%
X36129800Y-41650200D02*
X31700000Y-46080000D01*
X23550000Y-6950000D02*
X36129800Y-19529800D01*
X36129800Y-19529800D02*
X36129800Y-41650200D01*
%TO.N,S_BOS2*%
X36583000Y-17483000D02*
X36583000Y-44497000D01*
X36583000Y-44497000D02*
X35000000Y-46080000D01*
X26050000Y-6950000D02*
X36583000Y-17483000D01*
%TO.N,S_DHW*%
X26866700Y-21966700D02*
X11850000Y-6950000D01*
X35000000Y-33580000D02*
X26866700Y-25446700D01*
X26866700Y-25446700D02*
X26866700Y-21966700D01*
%TO.N,S_ZV*%
X21894700Y-25099300D02*
X27651800Y-30856400D01*
X27651800Y-30856400D02*
X28976400Y-30856400D01*
X28976400Y-30856400D02*
X31700000Y-33580000D01*
X21894700Y-19494700D02*
X21894700Y-25099300D01*
X9350000Y-6950000D02*
X21894700Y-19494700D01*
%TO.N,S_BLR*%
X14350000Y-8808400D02*
X34621000Y-29079400D01*
X14350000Y-6950000D02*
X14350000Y-8808400D01*
X34621000Y-29079400D02*
X34621000Y-31810300D01*
%TO.N,ACC*%
D27*
X45500000Y-70200000D02*
X55260100Y-60439900D01*
X55260100Y-60439900D02*
X55260100Y-15260100D01*
X55260100Y-15260100D02*
X46950000Y-6950000D01*
%TO.N,S_DEHUM*%
D26*
X37079000Y-44909000D02*
X38250000Y-46080000D01*
X32750000Y-6950000D02*
X37079000Y-11279000D01*
X37079000Y-11279000D02*
X37079000Y-44909000D01*
%TO.N,ACF*%
D27*
X55660000Y-73400000D02*
X57540000Y-71520000D01*
X57540000Y-71520000D02*
X57540000Y-25500000D01*
%TO.N,GPIO19*%
D26*
X8485200Y-57309800D02*
X9683000Y-58507600D01*
X7695300Y-55360000D02*
X8485200Y-56149900D01*
X6905300Y-55360000D02*
X7695300Y-55360000D01*
X11890000Y-57925600D02*
X11890000Y-53380000D01*
X11308000Y-58507600D02*
X11890000Y-57925600D01*
X11890000Y-53380000D02*
X15580000Y-49690000D01*
X6075400Y-54530100D02*
X6905300Y-55360000D01*
X8485200Y-56149900D02*
X8485200Y-57309800D01*
X6075400Y-52855400D02*
X6075400Y-54530100D01*
X9683000Y-58507600D02*
X11308000Y-58507600D01*
X4770000Y-51550000D02*
X6075400Y-52855400D01*
%TO.N,GPIO24*%
X6075400Y-31672300D02*
X6903100Y-32500000D01*
X11714500Y-48475500D02*
X10500000Y-49690000D01*
X6903100Y-32500000D02*
X7721100Y-32500000D01*
X5220400Y-29960000D02*
X6075400Y-30815000D01*
X11714500Y-36493400D02*
X11714500Y-48475500D01*
X2230000Y-28690000D02*
X3500000Y-29960000D01*
X3500000Y-29960000D02*
X5220400Y-29960000D01*
X7721100Y-32500000D02*
X11714500Y-36493400D01*
X6075400Y-30815000D02*
X6075400Y-31672300D01*
%TO.N,S_SP-D*%
X43625100Y-5561200D02*
X43087400Y-6098900D01*
X48061200Y-5561200D02*
X43625100Y-5561200D01*
X43087400Y-50492600D02*
X35000000Y-58580000D01*
X49450000Y-6950000D02*
X48061200Y-5561200D01*
X43087400Y-6098900D02*
X43087400Y-50492600D01*
%TO.N,ACR*%
D27*
X52460000Y-25500000D02*
X52460000Y-14960000D01*
X52460000Y-14960000D02*
X44450000Y-6950000D01*
%TO.N,S_SCALA*%
D26*
X39426100Y-11126100D02*
X39426100Y-44006100D01*
X39426100Y-44006100D02*
X41500000Y-46080000D01*
X35250000Y-6950000D02*
X39426100Y-11126100D01*
%TO.N,S_HPHEAT*%
X42626700Y-48886900D02*
X35057800Y-56455800D01*
X37750000Y-6950000D02*
X42626700Y-11826700D01*
X35057800Y-56455800D02*
X34737700Y-56455800D01*
X42626700Y-11826700D02*
X42626700Y-48886900D01*
%TD*%
D29*
X46967200Y-12919900D03*
X46922500Y-13943800D03*
X50347900Y-15242700D03*
X44653300Y-9993100D03*
X51125500Y-17332800D03*
X56261900Y-48308400D03*
X46441000Y-25071600D03*
X35349700Y-29087700D03*
X34621000Y-31810300D03*
X34737700Y-56455800D03*
X7310000Y-13450000D03*
X7310000Y-15990000D03*
X7310000Y-18530000D03*
X7310000Y-21070000D03*
X7310000Y-23610000D03*
X7310000Y-26150000D03*
X7310000Y-28690000D03*
X7310000Y-31230000D03*
X7310000Y-33770000D03*
X7310000Y-36310000D03*
X7310000Y-38850000D03*
X7310000Y-41390000D03*
X7310000Y-43930000D03*
X7310000Y-49010000D03*
X7310000Y-54090000D03*
X7310000Y-56630000D03*
X49500000Y-82000000D03*
X52040000Y-82000000D03*
X54580000Y-82000000D03*
X10500000Y-44810000D03*
X13040000Y-44810000D03*
X15580000Y-44810000D03*
X18120000Y-44810000D03*
X20660000Y-44810000D03*
X23200000Y-44810000D03*
X25740000Y-44810000D03*
X28280000Y-44810000D03*
X28280000Y-37190000D03*
X25740000Y-37190000D03*
X23200000Y-37190000D03*
X20660000Y-37190000D03*
X18120000Y-37190000D03*
X15580000Y-37190000D03*
X13040000Y-37190000D03*
X10500000Y-37190000D03*
X53000000Y-46750000D03*
X53000000Y-49250000D03*
X53000000Y-51750000D03*
X53000000Y-54250000D03*
X46800000Y-16500000D03*
X46800000Y-41500000D03*
X43000000Y-81000000D03*
X41500000Y-48420000D03*
X41500000Y-58580000D03*
X21050000Y-6950000D03*
X23550000Y-6950000D03*
X26050000Y-6950000D03*
X28550000Y-6950000D03*
X35000000Y-23420000D03*
X35000000Y-33580000D03*
X9350000Y-6950000D03*
X11850000Y-6950000D03*
X14350000Y-6950000D03*
X16850000Y-6950000D03*
X41500000Y-23420000D03*
X41500000Y-33580000D03*
X45500000Y-76600000D03*
X55660000Y-76600000D03*
X38250000Y-35920000D03*
X38250000Y-46080000D03*
X46000000Y-81000000D03*
X40000000Y-81000000D03*
X45500000Y-67000000D03*
X55660000Y-67000000D03*
X31700000Y-35920000D03*
X31700000Y-46080000D03*
X10500000Y-57310000D03*
X13040000Y-57310000D03*
X15580000Y-57310000D03*
X18120000Y-57310000D03*
X20660000Y-57310000D03*
X23200000Y-57310000D03*
X25740000Y-57310000D03*
X28280000Y-57310000D03*
X28280000Y-49690000D03*
X25740000Y-49690000D03*
X23200000Y-49690000D03*
X20660000Y-49690000D03*
X18120000Y-49690000D03*
X15580000Y-49690000D03*
X13040000Y-49690000D03*
X10500000Y-49690000D03*
X35000000Y-48420000D03*
X35000000Y-58580000D03*
X31700000Y-23420000D03*
X31700000Y-33580000D03*
X52460000Y-25500000D03*
X57540000Y-25500000D03*
X38250000Y-23420000D03*
X38250000Y-33580000D03*
X35000000Y-35920000D03*
X35000000Y-46080000D03*
X53000000Y-29500000D03*
X53000000Y-32000000D03*
X53000000Y-34500000D03*
X53000000Y-37000000D03*
X53000000Y-39500000D03*
X45500000Y-70200000D03*
X55660000Y-70200000D03*
X10500000Y-32310000D03*
X13040000Y-32310000D03*
X15580000Y-32310000D03*
X18120000Y-32310000D03*
X20660000Y-32310000D03*
X23200000Y-32310000D03*
X25740000Y-32310000D03*
X28280000Y-32310000D03*
X28280000Y-24690000D03*
X25740000Y-24690000D03*
X23200000Y-24690000D03*
X20660000Y-24690000D03*
X18120000Y-24690000D03*
X15580000Y-24690000D03*
X13040000Y-24690000D03*
X10500000Y-24690000D03*
X41500000Y-35920000D03*
X41500000Y-46080000D03*
X31700000Y-48420000D03*
X31700000Y-58580000D03*
X38250000Y-48420000D03*
X38250000Y-58580000D03*
X45500000Y-73400000D03*
X55660000Y-73400000D03*
X44450000Y-6950000D03*
X46950000Y-6950000D03*
X49450000Y-6950000D03*
X51950000Y-6950000D03*
X32750000Y-6950000D03*
X35250000Y-6950000D03*
X37750000Y-6950000D03*
X40250000Y-6950000D03*
X4770000Y-8370000D03*
X2230000Y-8370000D03*
X4770000Y-10910000D03*
X2230000Y-10910000D03*
X4770000Y-13450000D03*
X2230000Y-13450000D03*
X4770000Y-15990000D03*
X2230000Y-15990000D03*
X4770000Y-18530000D03*
X2230000Y-18530000D03*
X4770000Y-21070000D03*
X2230000Y-21070000D03*
X4770000Y-23610000D03*
X2230000Y-23610000D03*
X4770000Y-26150000D03*
X2230000Y-26150000D03*
X4770000Y-28690000D03*
X2230000Y-28690000D03*
X4770000Y-31230000D03*
X2230000Y-31230000D03*
X4770000Y-33770000D03*
X2230000Y-33770000D03*
X4770000Y-36310000D03*
X2230000Y-36310000D03*
X4770000Y-38850000D03*
X2230000Y-38850000D03*
X4770000Y-41390000D03*
X2230000Y-41390000D03*
X4770000Y-43930000D03*
X2230000Y-43930000D03*
X4770000Y-46470000D03*
X2230000Y-46470000D03*
X4770000Y-49010000D03*
X2230000Y-49010000D03*
X4770000Y-51550000D03*
X2230000Y-51550000D03*
X4770000Y-54090000D03*
X2230000Y-54090000D03*
X4770000Y-56630000D03*
X2230000Y-56630000D03*
M02*
