G04 #@! TF.GenerationSoftware,KiCad,Pcbnew,10.0.6*
G04 #@! TF.CreationDate,2026-09-27T00:03:24-04:00*
G04 #@! TF.ProjectId,int-board,696e742d-626f-4617-9264-2e6b69636164,rev?*
G04 #@! TF.SameCoordinates,Original*
G04 #@! TF.FileFunction,Copper,L1,Top*
G04 #@! TF.FilePolarity,Positive*
%FSLAX46Y46*%
G04 Gerber Fmt 4.6, Leading zero omitted, Abs format (unit mm)*
G04 Created by KiCad (PCBNEW 10.0.6) date 2026-09-27 00:03:24*
%MOMM*%
%LPD*%
G01*
G04 APERTURE LIST*
G04 Aperture macros list*
%AMRoundRect*
0 Rectangle with rounded corners*
0 $1 Rounding radius*
0 $2 $3 $4 $5 $6 $7 $8 $9 X,Y pos of 4 corners*
0 Add a 4 corners polygon primitive as box body*
4,1,4,$2,$3,$4,$5,$6,$7,$8,$9,$2,$3,0*
0 Add four circle primitives for the rounded corners*
1,1,$1+$1,$2,$3*
1,1,$1+$1,$4,$5*
1,1,$1+$1,$6,$7*
1,1,$1+$1,$8,$9*
0 Add four rect primitives between the rounded corners*
20,1,$1+$1,$2,$3,$4,$5,0*
20,1,$1+$1,$4,$5,$6,$7,0*
20,1,$1+$1,$6,$7,$8,$9,0*
20,1,$1+$1,$8,$9,$2,$3,0*%
G04 Aperture macros list end*
G04 #@! TA.AperFunction,ComponentPad*
%ADD10C,1.600000*%
G04 #@! TD*
G04 #@! TA.AperFunction,ComponentPad*
%ADD11RoundRect,0.487500X-0.487500X-0.487500X0.487500X-0.487500X0.487500X0.487500X-0.487500X0.487500X0*%
G04 #@! TD*
G04 #@! TA.AperFunction,ComponentPad*
%ADD12C,1.950000*%
G04 #@! TD*
G04 #@! TA.AperFunction,ComponentPad*
%ADD13C,1.800000*%
G04 #@! TD*
G04 #@! TA.AperFunction,ComponentPad*
%ADD14RoundRect,0.250000X0.550000X-0.550000X0.550000X0.550000X-0.550000X0.550000X-0.550000X-0.550000X0*%
G04 #@! TD*
G04 #@! TA.AperFunction,SMDPad,CuDef*
%ADD15RoundRect,0.150000X0.700000X-0.150000X0.700000X0.150000X-0.700000X0.150000X-0.700000X-0.150000X0*%
G04 #@! TD*
G04 #@! TA.AperFunction,SMDPad,CuDef*
%ADD16RoundRect,0.250000X1.100000X-0.250000X1.100000X0.250000X-1.100000X0.250000X-1.100000X-0.250000X0*%
G04 #@! TD*
G04 #@! TA.AperFunction,ComponentPad*
%ADD17RoundRect,0.425000X-0.425000X-0.425000X0.425000X-0.425000X0.425000X0.425000X-0.425000X0.425000X0*%
G04 #@! TD*
G04 #@! TA.AperFunction,ComponentPad*
%ADD18C,1.700000*%
G04 #@! TD*
G04 #@! TA.AperFunction,ViaPad*
%ADD19C,0.800000*%
G04 #@! TD*
G04 #@! TA.AperFunction,ViaPad*
%ADD20C,1.000000*%
G04 #@! TD*
G04 #@! TA.AperFunction,Conductor*
%ADD21C,0.250000*%
G04 #@! TD*
G04 #@! TA.AperFunction,Conductor*
%ADD22C,0.500000*%
G04 #@! TD*
G04 #@! TA.AperFunction,Conductor*
%ADD23C,0.400000*%
G04 #@! TD*
G04 APERTURE END LIST*
D10*
G04 #@! TO.P,R4,1*
G04 #@! TO.N,K4*
X47200000Y-23420000D03*
G04 #@! TO.P,R4,2*
G04 #@! TO.N,S_CHIL*
X47200000Y-33580000D03*
G04 #@! TD*
D11*
G04 #@! TO.P,J3,1*
G04 #@! TO.N,S_DEHUM*
X32750000Y-6950000D03*
D12*
G04 #@! TO.P,J3,2*
G04 #@! TO.N,S_SCALA*
X35250000Y-6950000D03*
G04 #@! TO.P,J3,3*
G04 #@! TO.N,S_HPHEAT*
X37750000Y-6950000D03*
G04 #@! TO.P,J3,4*
G04 #@! TO.N,COM*
X40250000Y-6950000D03*
G04 #@! TD*
D11*
G04 #@! TO.P,J4,1*
G04 #@! TO.N,S_HPCOOL*
X44450000Y-6950000D03*
D12*
G04 #@! TO.P,J4,2*
G04 #@! TO.N,S_DHWX*
X46950000Y-6950000D03*
G04 #@! TO.P,J4,3*
G04 #@! TO.N,S_SP-E*
X49450000Y-6950000D03*
G04 #@! TO.P,J4,4*
G04 #@! TO.N,COM*
X51950000Y-6950000D03*
G04 #@! TD*
D10*
G04 #@! TO.P,R12,1*
G04 #@! TO.N,K12*
X47200000Y-48420000D03*
G04 #@! TO.P,R12,2*
G04 #@! TO.N,S_SP-E*
X47200000Y-58580000D03*
G04 #@! TD*
D13*
G04 #@! TO.P,TP2,1*
G04 #@! TO.N,COM*
X43000000Y-81000000D03*
G04 #@! TD*
D10*
G04 #@! TO.P,J9,3*
G04 #@! TO.N,SCL*
X7310000Y-13450000D03*
G04 #@! TO.P,J9,4*
G04 #@! TO.N,GPIO4*
X7310000Y-15990000D03*
G04 #@! TO.P,J9,5*
G04 #@! TO.N,GND*
X7310000Y-18530000D03*
G04 #@! TO.P,J9,6*
G04 #@! TO.N,GPIO18*
X7310000Y-21070000D03*
G04 #@! TO.P,J9,7*
G04 #@! TO.N,SDA*
X7310000Y-23610000D03*
G04 #@! TO.P,J9,8*
G04 #@! TO.N,+5V*
X7310000Y-26150000D03*
G04 #@! TO.P,J9,9*
G04 #@! TO.N,3V3*
X7310000Y-28690000D03*
G04 #@! TO.P,J9,10*
G04 #@! TO.N,GPIO10*
X7310000Y-31230000D03*
G04 #@! TO.P,J9,11*
G04 #@! TO.N,GPIO9*
X7310000Y-33770000D03*
G04 #@! TO.P,J9,12*
G04 #@! TO.N,GPIO11*
X7310000Y-36310000D03*
G04 #@! TO.P,J9,13*
G04 #@! TO.N,GPIO7*
X7310000Y-38850000D03*
G04 #@! TO.P,J9,14*
G04 #@! TO.N,GPIO8*
X7310000Y-41390000D03*
G04 #@! TO.P,J9,15*
G04 #@! TO.N,GND*
X7310000Y-43930000D03*
G04 #@! TO.P,J9,17*
X7310000Y-49010000D03*
G04 #@! TO.P,J9,19*
G04 #@! TO.N,GPIO20*
X7310000Y-54090000D03*
G04 #@! TO.P,J9,20*
G04 #@! TO.N,GPIO21*
X7310000Y-56630000D03*
G04 #@! TD*
D14*
G04 #@! TO.P,U1,1*
G04 #@! TO.N,VS*
X14000000Y-32310000D03*
D10*
G04 #@! TO.P,U1,2*
G04 #@! TO.N,K1*
X16540000Y-32310000D03*
G04 #@! TO.P,U1,3*
G04 #@! TO.N,VS*
X19080000Y-32310000D03*
G04 #@! TO.P,U1,4*
G04 #@! TO.N,K2*
X21620000Y-32310000D03*
G04 #@! TO.P,U1,5*
G04 #@! TO.N,VS*
X24160000Y-32310000D03*
G04 #@! TO.P,U1,6*
G04 #@! TO.N,K3*
X26700000Y-32310000D03*
G04 #@! TO.P,U1,7*
G04 #@! TO.N,VS*
X29240000Y-32310000D03*
G04 #@! TO.P,U1,8*
G04 #@! TO.N,K4*
X31780000Y-32310000D03*
G04 #@! TO.P,U1,9*
G04 #@! TO.N,GND*
X31780000Y-24690000D03*
G04 #@! TO.P,U1,10*
G04 #@! TO.N,GPIO25*
X29240000Y-24690000D03*
G04 #@! TO.P,U1,11*
G04 #@! TO.N,GND*
X26700000Y-24690000D03*
G04 #@! TO.P,U1,12*
G04 #@! TO.N,GPIO22*
X24160000Y-24690000D03*
G04 #@! TO.P,U1,13*
G04 #@! TO.N,GND*
X21620000Y-24690000D03*
G04 #@! TO.P,U1,14*
G04 #@! TO.N,GPIO27*
X19080000Y-24690000D03*
G04 #@! TO.P,U1,15*
G04 #@! TO.N,GND*
X16540000Y-24690000D03*
G04 #@! TO.P,U1,16*
G04 #@! TO.N,GPIO17*
X14000000Y-24690000D03*
G04 #@! TD*
G04 #@! TO.P,R5,1*
G04 #@! TO.N,K5*
X35200000Y-35920000D03*
G04 #@! TO.P,R5,2*
G04 #@! TO.N,S_BOS1*
X35200000Y-46080000D03*
G04 #@! TD*
D14*
G04 #@! TO.P,U3,1*
G04 #@! TO.N,VS*
X14000000Y-57310000D03*
D10*
G04 #@! TO.P,U3,2*
G04 #@! TO.N,K9*
X16540000Y-57310000D03*
G04 #@! TO.P,U3,3*
G04 #@! TO.N,VS*
X19080000Y-57310000D03*
G04 #@! TO.P,U3,4*
G04 #@! TO.N,K10*
X21620000Y-57310000D03*
G04 #@! TO.P,U3,5*
G04 #@! TO.N,VS*
X24160000Y-57310000D03*
G04 #@! TO.P,U3,6*
G04 #@! TO.N,K11*
X26700000Y-57310000D03*
G04 #@! TO.P,U3,7*
G04 #@! TO.N,VS*
X29240000Y-57310000D03*
G04 #@! TO.P,U3,8*
G04 #@! TO.N,K12*
X31780000Y-57310000D03*
G04 #@! TO.P,U3,9*
G04 #@! TO.N,GND*
X31780000Y-49690000D03*
G04 #@! TO.P,U3,10*
G04 #@! TO.N,GPIO16*
X29240000Y-49690000D03*
G04 #@! TO.P,U3,11*
G04 #@! TO.N,GND*
X26700000Y-49690000D03*
G04 #@! TO.P,U3,12*
G04 #@! TO.N,GPIO19*
X24160000Y-49690000D03*
G04 #@! TO.P,U3,13*
G04 #@! TO.N,GND*
X21620000Y-49690000D03*
G04 #@! TO.P,U3,14*
G04 #@! TO.N,GPIO13*
X19080000Y-49690000D03*
G04 #@! TO.P,U3,15*
G04 #@! TO.N,GND*
X16540000Y-49690000D03*
G04 #@! TO.P,U3,16*
G04 #@! TO.N,GPIO24*
X14000000Y-49690000D03*
G04 #@! TD*
D13*
G04 #@! TO.P,TP1,1*
G04 #@! TO.N,VS*
X40000000Y-81000000D03*
G04 #@! TD*
D11*
G04 #@! TO.P,J2,1*
G04 #@! TO.N,S_CHIL*
X21050000Y-6950000D03*
D12*
G04 #@! TO.P,J2,2*
G04 #@! TO.N,S_BOS1*
X23550000Y-6950000D03*
G04 #@! TO.P,J2,3*
G04 #@! TO.N,S_BOS2*
X26050000Y-6950000D03*
G04 #@! TO.P,J2,4*
G04 #@! TO.N,COM*
X28550000Y-6950000D03*
G04 #@! TD*
D10*
G04 #@! TO.P,R10,1*
G04 #@! TO.N,K10*
X39200000Y-48420000D03*
G04 #@! TO.P,R10,2*
G04 #@! TO.N,S_HPCOOL*
X39200000Y-58580000D03*
G04 #@! TD*
G04 #@! TO.P,R2,1*
G04 #@! TO.N,K2*
X39200000Y-23420000D03*
G04 #@! TO.P,R2,2*
G04 #@! TO.N,S_DHW*
X39200000Y-33580000D03*
G04 #@! TD*
G04 #@! TO.P,R11,1*
G04 #@! TO.N,K11*
X43200000Y-48420000D03*
G04 #@! TO.P,R11,2*
G04 #@! TO.N,S_DHWX*
X43200000Y-58580000D03*
G04 #@! TD*
G04 #@! TO.P,R3,1*
G04 #@! TO.N,K3*
X43200000Y-23420000D03*
G04 #@! TO.P,R3,2*
G04 #@! TO.N,S_BLR*
X43200000Y-33580000D03*
G04 #@! TD*
D11*
G04 #@! TO.P,J1,1*
G04 #@! TO.N,S_ZV*
X9350000Y-6950000D03*
D12*
G04 #@! TO.P,J1,2*
G04 #@! TO.N,S_DHW*
X11850000Y-6950000D03*
G04 #@! TO.P,J1,3*
G04 #@! TO.N,S_BLR*
X14350000Y-6950000D03*
G04 #@! TO.P,J1,4*
G04 #@! TO.N,COM*
X16850000Y-6950000D03*
G04 #@! TD*
D13*
G04 #@! TO.P,TP3,1*
G04 #@! TO.N,GND*
X46000000Y-81000000D03*
G04 #@! TD*
D10*
G04 #@! TO.P,R8,1*
G04 #@! TO.N,K8*
X47200000Y-35920000D03*
G04 #@! TO.P,R8,2*
G04 #@! TO.N,S_SCALA*
X47200000Y-46080000D03*
G04 #@! TD*
G04 #@! TO.P,R6,1*
G04 #@! TO.N,K6*
X39200000Y-35920000D03*
G04 #@! TO.P,R6,2*
G04 #@! TO.N,S_BOS2*
X39200000Y-46080000D03*
G04 #@! TD*
G04 #@! TO.P,R9,1*
G04 #@! TO.N,K9*
X35200000Y-48420000D03*
G04 #@! TO.P,R9,2*
G04 #@! TO.N,S_HPHEAT*
X35200000Y-58580000D03*
G04 #@! TD*
D14*
G04 #@! TO.P,U2,1*
G04 #@! TO.N,VS*
X14000000Y-44810000D03*
D10*
G04 #@! TO.P,U2,2*
G04 #@! TO.N,K5*
X16540000Y-44810000D03*
G04 #@! TO.P,U2,3*
G04 #@! TO.N,VS*
X19080000Y-44810000D03*
G04 #@! TO.P,U2,4*
G04 #@! TO.N,K6*
X21620000Y-44810000D03*
G04 #@! TO.P,U2,5*
G04 #@! TO.N,VS*
X24160000Y-44810000D03*
G04 #@! TO.P,U2,6*
G04 #@! TO.N,K7*
X26700000Y-44810000D03*
G04 #@! TO.P,U2,7*
G04 #@! TO.N,VS*
X29240000Y-44810000D03*
G04 #@! TO.P,U2,8*
G04 #@! TO.N,K8*
X31780000Y-44810000D03*
G04 #@! TO.P,U2,9*
G04 #@! TO.N,GND*
X31780000Y-37190000D03*
G04 #@! TO.P,U2,10*
G04 #@! TO.N,GPIO23*
X29240000Y-37190000D03*
G04 #@! TO.P,U2,11*
G04 #@! TO.N,GND*
X26700000Y-37190000D03*
G04 #@! TO.P,U2,12*
G04 #@! TO.N,GPIO12*
X24160000Y-37190000D03*
G04 #@! TO.P,U2,13*
G04 #@! TO.N,GND*
X21620000Y-37190000D03*
G04 #@! TO.P,U2,14*
G04 #@! TO.N,GPIO5*
X19080000Y-37190000D03*
G04 #@! TO.P,U2,15*
G04 #@! TO.N,GND*
X16540000Y-37190000D03*
G04 #@! TO.P,U2,16*
G04 #@! TO.N,GPIO6*
X14000000Y-37190000D03*
G04 #@! TD*
G04 #@! TO.P,R7,1*
G04 #@! TO.N,K7*
X43200000Y-35920000D03*
G04 #@! TO.P,R7,2*
G04 #@! TO.N,S_DEHUM*
X43200000Y-46080000D03*
G04 #@! TD*
G04 #@! TO.P,R1,1*
G04 #@! TO.N,K1*
X35200000Y-23420000D03*
G04 #@! TO.P,R1,2*
G04 #@! TO.N,S_ZV*
X35200000Y-33580000D03*
G04 #@! TD*
D15*
G04 #@! TO.P,J6,1*
G04 #@! TO.N,3V3*
X53305000Y-38250000D03*
G04 #@! TO.P,J6,2*
G04 #@! TO.N,SDA*
X53305000Y-37000000D03*
G04 #@! TO.P,J6,3*
G04 #@! TO.N,SCL*
X53305000Y-35750000D03*
G04 #@! TO.P,J6,4*
G04 #@! TO.N,GPIO4*
X53305000Y-34500000D03*
G04 #@! TO.P,J6,5*
G04 #@! TO.N,GND*
X53305000Y-33250000D03*
G04 #@! TO.P,J6,6*
G04 #@! TO.N,VS*
X53305000Y-32000000D03*
G04 #@! TO.P,J6,7*
G04 #@! TO.N,COM*
X53305000Y-30750000D03*
D16*
G04 #@! TO.P,J6,MP*
G04 #@! TO.N,N/C*
X56505000Y-40100000D03*
X56505000Y-28900000D03*
G04 #@! TD*
D17*
G04 #@! TO.P,J5,1*
G04 #@! TO.N,N/C*
X4770000Y-8370000D03*
D18*
G04 #@! TO.P,J5,2*
G04 #@! TO.N,+5V*
X2230000Y-8370000D03*
G04 #@! TO.P,J5,3*
G04 #@! TO.N,SDA*
X4770000Y-10910000D03*
G04 #@! TO.P,J5,4*
G04 #@! TO.N,+5V*
X2230000Y-10910000D03*
G04 #@! TO.P,J5,5*
G04 #@! TO.N,SCL*
X4770000Y-13450000D03*
G04 #@! TO.P,J5,6*
G04 #@! TO.N,GND*
X2230000Y-13450000D03*
G04 #@! TO.P,J5,7*
G04 #@! TO.N,GPIO4*
X4770000Y-15990000D03*
G04 #@! TO.P,J5,8*
G04 #@! TO.N,N/C*
X2230000Y-15990000D03*
G04 #@! TO.P,J5,9*
G04 #@! TO.N,GND*
X4770000Y-18530000D03*
G04 #@! TO.P,J5,10*
G04 #@! TO.N,N/C*
X2230000Y-18530000D03*
G04 #@! TO.P,J5,11*
G04 #@! TO.N,GPIO17*
X4770000Y-21070000D03*
G04 #@! TO.P,J5,12*
G04 #@! TO.N,GPIO18*
X2230000Y-21070000D03*
G04 #@! TO.P,J5,13*
G04 #@! TO.N,GPIO27*
X4770000Y-23610000D03*
G04 #@! TO.P,J5,14*
G04 #@! TO.N,GND*
X2230000Y-23610000D03*
G04 #@! TO.P,J5,15*
G04 #@! TO.N,GPIO22*
X4770000Y-26150000D03*
G04 #@! TO.P,J5,16*
G04 #@! TO.N,GPIO23*
X2230000Y-26150000D03*
G04 #@! TO.P,J5,17*
G04 #@! TO.N,3V3*
X4770000Y-28690000D03*
G04 #@! TO.P,J5,18*
G04 #@! TO.N,GPIO24*
X2230000Y-28690000D03*
G04 #@! TO.P,J5,19*
G04 #@! TO.N,GPIO10*
X4770000Y-31230000D03*
G04 #@! TO.P,J5,20*
G04 #@! TO.N,GND*
X2230000Y-31230000D03*
G04 #@! TO.P,J5,21*
G04 #@! TO.N,GPIO9*
X4770000Y-33770000D03*
G04 #@! TO.P,J5,22*
G04 #@! TO.N,GPIO25*
X2230000Y-33770000D03*
G04 #@! TO.P,J5,23*
G04 #@! TO.N,GPIO11*
X4770000Y-36310000D03*
G04 #@! TO.P,J5,24*
G04 #@! TO.N,GPIO8*
X2230000Y-36310000D03*
G04 #@! TO.P,J5,25*
G04 #@! TO.N,N/C*
X4770000Y-38850000D03*
G04 #@! TO.P,J5,26*
G04 #@! TO.N,GPIO7*
X2230000Y-38850000D03*
G04 #@! TO.P,J5,27*
G04 #@! TO.N,N/C*
X4770000Y-41390000D03*
G04 #@! TO.P,J5,28*
X2230000Y-41390000D03*
G04 #@! TO.P,J5,29*
G04 #@! TO.N,GPIO5*
X4770000Y-43930000D03*
G04 #@! TO.P,J5,30*
G04 #@! TO.N,GND*
X2230000Y-43930000D03*
G04 #@! TO.P,J5,31*
G04 #@! TO.N,GPIO6*
X4770000Y-46470000D03*
G04 #@! TO.P,J5,32*
G04 #@! TO.N,GPIO12*
X2230000Y-46470000D03*
G04 #@! TO.P,J5,33*
G04 #@! TO.N,GPIO13*
X4770000Y-49010000D03*
G04 #@! TO.P,J5,34*
G04 #@! TO.N,GND*
X2230000Y-49010000D03*
G04 #@! TO.P,J5,35*
G04 #@! TO.N,GPIO19*
X4770000Y-51550000D03*
G04 #@! TO.P,J5,36*
G04 #@! TO.N,GPIO16*
X2230000Y-51550000D03*
G04 #@! TO.P,J5,37*
G04 #@! TO.N,N/C*
X4770000Y-54090000D03*
G04 #@! TO.P,J5,38*
G04 #@! TO.N,GPIO20*
X2230000Y-54090000D03*
G04 #@! TO.P,J5,39*
G04 #@! TO.N,N/C*
X4770000Y-56630000D03*
G04 #@! TO.P,J5,40*
G04 #@! TO.N,GPIO21*
X2230000Y-56630000D03*
G04 #@! TD*
D19*
G04 #@! TO.N,S_HPHEAT*
X42859200Y-51948000D03*
D20*
G04 #@! TO.N,COM*
X41851600Y-72354300D03*
D19*
G04 #@! TO.N,S_HPCOOL*
X45465200Y-52359400D03*
G04 #@! TO.N,SCL*
X54338900Y-17280800D03*
G04 #@! TO.N,GPIO4*
X53127200Y-17280800D03*
D20*
G04 #@! TO.N,GND*
X33645400Y-34156500D03*
D19*
G04 #@! TO.N,SDA*
X54859300Y-16223100D03*
G04 #@! TO.N,3V3*
X53180500Y-67672400D03*
D20*
G04 #@! TO.N,VS*
X47503900Y-60140100D03*
D19*
G04 #@! TO.N,S_DHW*
X32971900Y-30457300D03*
G04 #@! TO.N,S_BLR*
X34708100Y-29301200D03*
G04 #@! TO.N,GPIO5*
X11549300Y-35001000D03*
G04 #@! TD*
G04 #@! TO.N,S_CHIL*
D21*
X42705200Y-7667400D02*
X42705200Y-6199100D01*
X41192500Y-4686400D02*
X23313600Y-4686400D01*
X46071800Y-11034000D02*
X42705200Y-7667400D01*
X46071800Y-32451800D02*
X46071800Y-11034000D01*
X42705200Y-6199100D02*
X41192500Y-4686400D01*
X47200000Y-33580000D02*
X46071800Y-32451800D01*
X23313600Y-4686400D02*
X21050000Y-6950000D01*
G04 #@! TO.N,S_DEHUM*
X37975000Y-12175000D02*
X32750000Y-6950000D01*
X43200000Y-46080000D02*
X37975000Y-40855000D01*
X37975000Y-40855000D02*
X37975000Y-12175000D01*
G04 #@! TO.N,S_SCALA*
X42193100Y-6325800D02*
X42193100Y-8430600D01*
X42193100Y-8430600D02*
X45615600Y-11853100D01*
X35250000Y-6950000D02*
X37061900Y-5138100D01*
X41005400Y-5138100D02*
X42193100Y-6325800D01*
X37061900Y-5138100D02*
X41005400Y-5138100D01*
X45615600Y-44495600D02*
X47200000Y-46080000D01*
X45615600Y-11853100D02*
X45615600Y-44495600D01*
G04 #@! TO.N,S_HPHEAT*
X37750000Y-6950000D02*
X39109500Y-5590500D01*
X39109500Y-5590500D02*
X40802100Y-5590500D01*
X41679500Y-6467900D02*
X41679500Y-10155300D01*
X45163900Y-49643300D02*
X42859200Y-51948000D01*
X41679500Y-10155300D02*
X45163900Y-13639700D01*
X40802100Y-5590500D02*
X41679500Y-6467900D01*
X45163900Y-13639700D02*
X45163900Y-49643300D01*
G04 #@! TO.N,COM*
D22*
X44519000Y-13881300D02*
X44519000Y-49013000D01*
X51950000Y-29395000D02*
X53305000Y-30750000D01*
X41851600Y-51680400D02*
X41851600Y-72354300D01*
X40250000Y-9612300D02*
X44519000Y-13881300D01*
X51950000Y-6950000D02*
X51950000Y-29395000D01*
X40250000Y-6950000D02*
X40250000Y-9612300D01*
X44519000Y-49013000D02*
X41851600Y-51680400D01*
G04 #@! TO.N,S_HPCOOL*
D21*
X48343600Y-10843600D02*
X48343600Y-49481000D01*
X44450000Y-6950000D02*
X48343600Y-10843600D01*
X48343600Y-49481000D02*
X45465200Y-52359400D01*
G04 #@! TO.N,S_DHWX*
X46950000Y-6950000D02*
X48813600Y-8813600D01*
X48813600Y-8813600D02*
X48813600Y-52966400D01*
X48813600Y-52966400D02*
X43200000Y-58580000D01*
G04 #@! TO.N,S_SP-E*
X49450000Y-56330000D02*
X47200000Y-58580000D01*
X49450000Y-6950000D02*
X49450000Y-56330000D01*
G04 #@! TO.N,SCL*
X53620600Y-35750000D02*
X55066800Y-34303800D01*
X54338900Y-29041200D02*
X54338900Y-17280800D01*
X55066800Y-29769100D02*
X54338900Y-29041200D01*
X55066800Y-34303800D02*
X55066800Y-29769100D01*
X53305000Y-35750000D02*
X53620600Y-35750000D01*
G04 #@! TO.N,GPIO4*
X54573700Y-33578500D02*
X53652200Y-34500000D01*
X53127200Y-28501100D02*
X54573700Y-29947600D01*
X53127200Y-17280800D02*
X53127200Y-28501100D01*
X53652200Y-34500000D02*
X53305000Y-34500000D01*
X54573700Y-29947600D02*
X54573700Y-33578500D01*
G04 #@! TO.N,GND*
D22*
X878300Y-7771700D02*
X2466500Y-6183500D01*
D23*
X51000000Y-33250000D02*
X51000000Y-78000000D01*
D22*
X2466500Y-6183500D02*
X5830700Y-6183500D01*
D23*
X750000Y-13450000D02*
X750000Y-49010000D01*
X750000Y-49010000D02*
X2230000Y-49010000D01*
D22*
X16540000Y-16892800D02*
X16540000Y-24690000D01*
X33845200Y-46316600D02*
X33845200Y-34356300D01*
X33645400Y-34156500D02*
X33873600Y-33928300D01*
D23*
X51000000Y-78000000D02*
X46000000Y-78000000D01*
D22*
X25398000Y-35888000D02*
X22922000Y-35888000D01*
X33873600Y-30083700D02*
X31780000Y-27990100D01*
D23*
X46000000Y-78000000D02*
X46000000Y-81000000D01*
D22*
X37200100Y-69200100D02*
X37200100Y-55110100D01*
X878300Y-57197700D02*
X878300Y-49011500D01*
X8611700Y-57228300D02*
X7855000Y-57985000D01*
X37200100Y-55110100D02*
X31780000Y-49690000D01*
X31780000Y-27990100D02*
X31780000Y-24690000D01*
D23*
X750000Y-13450000D02*
X2230000Y-13450000D01*
D22*
X33873600Y-33928300D02*
X33873600Y-30083700D01*
X7855000Y-57985000D02*
X1665600Y-57985000D01*
X22922000Y-35888000D02*
X21620000Y-37190000D01*
X878300Y-49011500D02*
X879800Y-49010000D01*
D23*
X750000Y-23610000D02*
X2230000Y-23610000D01*
D22*
X31780000Y-48381800D02*
X33845200Y-46316600D01*
D23*
X750000Y-43930000D02*
X2230000Y-43930000D01*
X750000Y-31229999D02*
X2230000Y-31229999D01*
X53305000Y-33250000D02*
X51000000Y-33250000D01*
D22*
X1665600Y-57985000D02*
X878300Y-57197700D01*
X8611700Y-50311700D02*
X8611700Y-57228300D01*
X46000000Y-78000000D02*
X37200100Y-69200100D01*
X31780000Y-49690000D02*
X31780000Y-48381800D01*
X28008200Y-48381800D02*
X26700000Y-49690000D01*
X5830700Y-6183500D02*
X16540000Y-16892800D01*
X26700000Y-37190000D02*
X25398000Y-35888000D01*
X879800Y-13450000D02*
X878300Y-13448500D01*
X7310000Y-49010000D02*
X8611700Y-50311700D01*
X33845200Y-34356300D02*
X33645400Y-34156500D01*
X878300Y-13448500D02*
X878300Y-7771700D01*
X31780000Y-48381800D02*
X28008200Y-48381800D01*
G04 #@! TO.N,SDA*
D21*
X6075400Y-12215400D02*
X6075400Y-22375400D01*
X4770000Y-10910000D02*
X6075400Y-12215400D01*
X58231200Y-19595000D02*
X58231200Y-32420400D01*
X53651600Y-37000000D02*
X53305000Y-37000000D01*
X58231200Y-32420400D02*
X53651600Y-37000000D01*
X6075400Y-22375400D02*
X7310000Y-23610000D01*
X54859300Y-16223100D02*
X58231200Y-19595000D01*
G04 #@! TO.N,+5V*
D22*
X2230000Y-10910000D02*
X2230000Y-8370000D01*
X2230000Y-8370000D02*
X3621800Y-6978200D01*
X5543700Y-6978200D02*
X8613400Y-10047900D01*
X8613400Y-10047900D02*
X8613400Y-24846600D01*
X3621800Y-6978200D02*
X5543700Y-6978200D01*
X8613400Y-24846600D02*
X7310000Y-26150000D01*
G04 #@! TO.N,3V3*
D21*
X53180500Y-67672400D02*
X53305000Y-67547900D01*
X53305000Y-67547900D02*
X53305000Y-38250000D01*
G04 #@! TO.N,GPIO8*
X3500000Y-40119999D02*
X7310000Y-40119999D01*
X3500000Y-37579999D02*
X3500000Y-40119999D01*
X7310000Y-40119999D02*
X7310000Y-41389999D01*
X2230000Y-36309999D02*
X3500000Y-37579999D01*
G04 #@! TO.N,GPIO20*
X2230000Y-54090000D02*
X3420600Y-52899400D01*
X3420600Y-52899400D02*
X6119400Y-52899400D01*
X6119400Y-52899400D02*
X7310000Y-54090000D01*
G04 #@! TO.N,VS*
D22*
X50190300Y-33030100D02*
X51220400Y-32000000D01*
X25481200Y-46131200D02*
X27918800Y-46131200D01*
X24160000Y-32310000D02*
X22855800Y-33614200D01*
X29240000Y-70240000D02*
X29240000Y-58685900D01*
X47503900Y-60140100D02*
X50190300Y-57453700D01*
X25535900Y-58685900D02*
X24160000Y-57310000D01*
X15302000Y-56008000D02*
X14000000Y-57310000D01*
X15302700Y-33612700D02*
X14000000Y-32310000D01*
X22858100Y-58611900D02*
X20381900Y-58611900D01*
X14000000Y-46149800D02*
X14000000Y-44810000D01*
X12677000Y-47472800D02*
X12677000Y-53383000D01*
X17778000Y-56008000D02*
X15302000Y-56008000D01*
X51220400Y-32000000D02*
X53305000Y-32000000D01*
X19080000Y-57310000D02*
X17778000Y-56008000D01*
X40000000Y-81000000D02*
X29240000Y-70240000D01*
X12677000Y-53383000D02*
X15302000Y-56008000D01*
X24160000Y-44810000D02*
X25481200Y-46131200D01*
X29240000Y-58685900D02*
X29240000Y-57310000D01*
X17740200Y-46149800D02*
X14000000Y-46149800D01*
X29240000Y-32310000D02*
X33081700Y-36151700D01*
X20381900Y-58611900D02*
X19080000Y-57310000D01*
X24160000Y-57310000D02*
X22858100Y-58611900D01*
X17777300Y-33612700D02*
X15302700Y-33612700D01*
X19080000Y-44810000D02*
X17740200Y-46149800D01*
X20384200Y-33614200D02*
X19080000Y-32310000D01*
X14000000Y-46149800D02*
X12677000Y-47472800D01*
X22855800Y-33614200D02*
X20384200Y-33614200D01*
X33081700Y-40968300D02*
X29240000Y-44810000D01*
X50190300Y-57453700D02*
X50190300Y-33030100D01*
X27918800Y-46131200D02*
X29240000Y-44810000D01*
X33081700Y-36151700D02*
X33081700Y-40968300D01*
X19080000Y-32310000D02*
X17777300Y-33612700D01*
X29240000Y-58685900D02*
X25535900Y-58685900D01*
G04 #@! TO.N,GPIO25*
D21*
X8888400Y-35728800D02*
X14181500Y-35728800D01*
X30420200Y-37608600D02*
X30420200Y-35202700D01*
X3500000Y-35040000D02*
X8199600Y-35040000D01*
X16040600Y-38379500D02*
X29649300Y-38379500D01*
X15234700Y-36782000D02*
X15234700Y-37573600D01*
X14181500Y-35728800D02*
X15234700Y-36782000D01*
X28034500Y-25895500D02*
X29240000Y-24690000D01*
X28034500Y-32817000D02*
X28034500Y-25895500D01*
X15234700Y-37573600D02*
X16040600Y-38379500D01*
X8199600Y-35040000D02*
X8888400Y-35728800D01*
X2230000Y-33770000D02*
X3500000Y-35040000D01*
X29649300Y-38379500D02*
X30420200Y-37608600D01*
X30420200Y-35202700D02*
X28034500Y-32817000D01*
G04 #@! TO.N,S_BOS1*
X36346400Y-44933600D02*
X35200000Y-46080000D01*
X23550000Y-6950000D02*
X36346400Y-19746400D01*
X36346400Y-19746400D02*
X36346400Y-44933600D01*
G04 #@! TO.N,S_BOS2*
X26050000Y-6950000D02*
X37001500Y-17901500D01*
X37001500Y-43881500D02*
X39200000Y-46080000D01*
X37001500Y-17901500D02*
X37001500Y-43881500D01*
G04 #@! TO.N,S_DHW*
X11850000Y-6950000D02*
X28030400Y-23130400D01*
X30474700Y-27960100D02*
X32971900Y-30457300D01*
X30474700Y-24281900D02*
X30474700Y-27960100D01*
X29323200Y-23130400D02*
X30474700Y-24281900D01*
X28030400Y-23130400D02*
X29323200Y-23130400D01*
G04 #@! TO.N,S_BLR*
X34708100Y-25922400D02*
X34708100Y-29301200D01*
X17264400Y-8478700D02*
X34708100Y-25922400D01*
X15878700Y-8478700D02*
X17264400Y-8478700D01*
X14350000Y-6950000D02*
X15878700Y-8478700D01*
G04 #@! TO.N,S_ZV*
X10745300Y-5554700D02*
X9350000Y-6950000D01*
X19291500Y-7439000D02*
X17407200Y-5554700D01*
X35445500Y-25413800D02*
X19291500Y-9259800D01*
X19291500Y-9259800D02*
X19291500Y-7439000D01*
X17407200Y-5554700D02*
X10745300Y-5554700D01*
X35200000Y-33580000D02*
X35445500Y-33334500D01*
X35445500Y-33334500D02*
X35445500Y-25413800D01*
G04 #@! TO.N,GPIO23*
X13924800Y-34261200D02*
X26311200Y-34261200D01*
X2230000Y-26150000D02*
X3500000Y-27420000D01*
X12274500Y-32045900D02*
X12274500Y-32610900D01*
X26311200Y-34261200D02*
X29240000Y-37190000D01*
X3500000Y-27420000D02*
X7648600Y-27420000D01*
X12274500Y-32610900D02*
X13924800Y-34261200D01*
X7648600Y-27420000D02*
X12274500Y-32045900D01*
G04 #@! TO.N,GPIO5*
X19080000Y-37190000D02*
X16891000Y-35001000D01*
X16891000Y-35001000D02*
X11549300Y-35001000D01*
G04 #@! TO.N,GPIO6*
X12300000Y-37190000D02*
X14000000Y-37190000D01*
X12300000Y-46469999D02*
X12300000Y-37190000D01*
X4770000Y-46469999D02*
X12300000Y-46469999D01*
G04 #@! TD*
M02*
