%TF.GenerationSoftware,KiCad,Pcbnew,10.0.6*%
%TF.CreationDate,2026-09-12T20:40:13-04:00*%
%TF.ProjectId,int-board,696e742d-626f-4617-9264-2e6b69636164,rev?*%
%TF.SameCoordinates,Original*%
%TF.FileFunction,Copper,L2,Bot*%
%TF.FilePolarity,Positive*%
%FSLAX46Y46*%
G04 Gerber Fmt 4.6, Leading zero omitted, Abs format (unit mm)*
G04 Created by KiCad (PCBNEW 10.0.6) date 2026-09-12 20:40:13*
%MOMM*%
%LPD*%
G01*
G04 APERTURE LIST*
G04 Aperture macros list*
%AMRoundRect*
0 Rectangle with rounded corners*
0 $1 Rounding radius*
0 $2 $3 $4 $5 $6 $7 $8 $9 X,Y pos of 4 corners*
0 Add a 4 corners polygon primitive as box body*
4,1,4,$2,$3,$4,$5,$6,$7,$8,$9,$2,$3,0*
0 Add four circle primitives for the rounded corners*
1,1,$1+$1,$2,$3*
1,1,$1+$1,$4,$5*
1,1,$1+$1,$6,$7*
1,1,$1+$1,$8,$9*
0 Add four rect primitives between the rounded corners*
20,1,$1+$1,$2,$3,$4,$5,0*
20,1,$1+$1,$4,$5,$6,$7,0*
20,1,$1+$1,$6,$7,$8,$9,0*
20,1,$1+$1,$8,$9,$2,$3,0*%
G04 Aperture macros list end*
%TA.AperFunction,ComponentPad*%
%ADD10C,1.600000*%
%TD*%
%TA.AperFunction,ComponentPad*%
%ADD11RoundRect,0.400000X-0.400000X-0.400000X0.400000X-0.400000X0.400000X0.400000X-0.400000X0.400000X0*%
%TD*%
%TA.AperFunction,ComponentPad*%
%ADD12RoundRect,0.250000X0.550000X-0.550000X0.550000X0.550000X-0.550000X0.550000X-0.550000X-0.550000X0*%
%TD*%
%TA.AperFunction,ComponentPad*%
%ADD13RoundRect,0.487500X-0.487500X0.487500X-0.487500X-0.487500X0.487500X-0.487500X0.487500X0.487500X0*%
%TD*%
%TA.AperFunction,ComponentPad*%
%ADD14C,1.950000*%
%TD*%
%TA.AperFunction,ComponentPad*%
%ADD15RoundRect,0.250001X-0.949999X0.949999X-0.949999X-0.949999X0.949999X-0.949999X0.949999X0.949999X0*%
%TD*%
%TA.AperFunction,ComponentPad*%
%ADD16C,2.400000*%
%TD*%
%TA.AperFunction,ComponentPad*%
%ADD17C,1.800000*%
%TD*%
%TA.AperFunction,ComponentPad*%
%ADD18RoundRect,0.487500X-0.487500X-0.487500X0.487500X-0.487500X0.487500X0.487500X-0.487500X0.487500X0*%
%TD*%
%TA.AperFunction,ComponentPad*%
%ADD19RoundRect,0.249999X-0.850001X-0.850001X0.850001X-0.850001X0.850001X0.850001X-0.850001X0.850001X0*%
%TD*%
%TA.AperFunction,ComponentPad*%
%ADD20C,2.200000*%
%TD*%
%TA.AperFunction,ComponentPad*%
%ADD21RoundRect,0.450000X-0.450000X-0.450000X0.450000X-0.450000X0.450000X0.450000X-0.450000X0.450000X0*%
%TD*%
%TA.AperFunction,ComponentPad*%
%ADD22RoundRect,0.425000X-0.425000X-0.425000X0.425000X-0.425000X0.425000X0.425000X-0.425000X0.425000X0*%
%TD*%
%TA.AperFunction,ComponentPad*%
%ADD23C,1.700000*%
%TD*%
%TA.AperFunction,ViaPad*%
%ADD24C,0.800000*%
%TD*%
%TA.AperFunction,ViaPad*%
%ADD25C,1.000000*%
%TD*%
%TA.AperFunction,Conductor*%
%ADD26C,0.250000*%
%TD*%
%TA.AperFunction,Conductor*%
%ADD27C,0.500000*%
%TD*%
%ADD28C,0.350000*%
G04 APERTURE END LIST*
D10*
%TO.P,J9,3*%
%TO.N,SCL*%
X7310000Y-13450000D03*
%TO.P,J9,4*%
%TO.N,GPIO4*%
X7310000Y-15990000D03*
%TO.P,J9,5*%
%TO.N,GND*%
X7310000Y-18530000D03*
%TO.P,J9,6*%
%TO.N,GPIO18*%
X7310000Y-21070000D03*
%TO.P,J9,7*%
%TO.N,SDA*%
X7310000Y-23610000D03*
%TO.P,J9,8*%
%TO.N,+5V*%
X7310000Y-26150000D03*
%TO.P,J9,9*%
%TO.N,3V3*%
X7310000Y-28690000D03*
%TO.P,J9,10*%
%TO.N,GPIO10*%
X7310000Y-31230000D03*
%TO.P,J9,11*%
%TO.N,GPIO9*%
X7310000Y-33770000D03*
%TO.P,J9,12*%
%TO.N,GPIO11*%
X7310000Y-36310000D03*
%TO.P,J9,13*%
%TO.N,GPIO7*%
X7310000Y-38850000D03*
%TO.P,J9,14*%
%TO.N,GPIO8*%
X7310000Y-41390000D03*
%TO.P,J9,15*%
%TO.N,GND*%
X7310000Y-43930000D03*
%TO.P,J9,17*%
X7310000Y-49010000D03*
%TO.P,J9,19*%
%TO.N,GPIO20*%
X7310000Y-54090000D03*
%TO.P,J9,20*%
%TO.N,GPIO21*%
X7310000Y-56630000D03*
%TD*%
D11*
%TO.P,J8,1*%
%TO.N,S_SP-C*%
X49500000Y-82000000D03*
D10*
%TO.P,J8,2*%
%TO.N,S_SP-E*%
X52040000Y-82000000D03*
%TO.P,J8,3*%
%TO.N,COM*%
X54580000Y-82000000D03*
%TD*%
D12*
%TO.P,U2,1*%
%TO.N,VS*%
X10500000Y-44810000D03*
D10*
%TO.P,U2,2*%
%TO.N,K5*%
X13040000Y-44810000D03*
%TO.P,U2,3*%
%TO.N,VS*%
X15580000Y-44810000D03*
%TO.P,U2,4*%
%TO.N,K6*%
X18120000Y-44810000D03*
%TO.P,U2,5*%
%TO.N,VS*%
X20660000Y-44810000D03*
%TO.P,U2,6*%
%TO.N,K7*%
X23200000Y-44810000D03*
%TO.P,U2,7*%
%TO.N,VS*%
X25740000Y-44810000D03*
%TO.P,U2,8*%
%TO.N,K8*%
X28280000Y-44810000D03*
%TO.P,U2,9*%
%TO.N,GND*%
X28280000Y-37190000D03*
%TO.P,U2,10*%
%TO.N,GPIO23*%
X25740000Y-37190000D03*
%TO.P,U2,11*%
%TO.N,GND*%
X23200000Y-37190000D03*
%TO.P,U2,12*%
%TO.N,GPIO12*%
X20660000Y-37190000D03*
%TO.P,U2,13*%
%TO.N,GND*%
X18120000Y-37190000D03*
%TO.P,U2,14*%
%TO.N,GPIO5*%
X15580000Y-37190000D03*
%TO.P,U2,15*%
%TO.N,GND*%
X13040000Y-37190000D03*
%TO.P,U2,16*%
%TO.N,GPIO6*%
X10500000Y-37190000D03*
%TD*%
D13*
%TO.P,J7,1*%
%TO.N,VS*%
X53000000Y-46750000D03*
D14*
%TO.P,J7,2*%
%TO.N,COM*%
X53000000Y-49250000D03*
%TO.P,J7,3*%
%TO.N,+5V*%
X53000000Y-51750000D03*
%TO.P,J7,4*%
%TO.N,GND*%
X53000000Y-54250000D03*
%TD*%
D15*
%TO.P,C1,1*%
%TO.N,VS*%
X46800000Y-16500000D03*
D16*
%TO.P,C1,2*%
%TO.N,COM*%
X46800000Y-41500000D03*
%TD*%
D17*
%TO.P,TP2,1*%
%TO.N,COM*%
X43000000Y-81000000D03*
%TD*%
D10*
%TO.P,R12,1*%
%TO.N,K12*%
X41500000Y-48420000D03*
%TO.P,R12,2*%
%TO.N,S_SP-E*%
X41500000Y-58580000D03*
%TD*%
D18*
%TO.P,J2,1*%
%TO.N,S_CHIL*%
X21050000Y-6950000D03*
D14*
%TO.P,J2,2*%
%TO.N,S_BOS1*%
X23550000Y-6950000D03*
%TO.P,J2,3*%
%TO.N,S_BOS2*%
X26050000Y-6950000D03*
%TO.P,J2,4*%
%TO.N,COM*%
X28550000Y-6950000D03*
%TD*%
D10*
%TO.P,R2,1*%
%TO.N,K2*%
X35000000Y-23420000D03*
%TO.P,R2,2*%
%TO.N,S_DHW*%
X35000000Y-33580000D03*
%TD*%
D18*
%TO.P,J1,1*%
%TO.N,S_ZV*%
X9350000Y-6950000D03*
D14*
%TO.P,J1,2*%
%TO.N,S_DHW*%
X11850000Y-6950000D03*
%TO.P,J1,3*%
%TO.N,S_BLR*%
X14350000Y-6950000D03*
%TO.P,J1,4*%
%TO.N,COM*%
X16850000Y-6950000D03*
%TD*%
D10*
%TO.P,R4,1*%
%TO.N,K4*%
X41500000Y-23420000D03*
%TO.P,R4,2*%
%TO.N,S_CHIL*%
X41500000Y-33580000D03*
%TD*%
D19*
%TO.P,D2,1*%
%TO.N,VS*%
X45500000Y-76600000D03*
D20*
%TO.P,D2,2*%
%TO.N,ACC*%
X55660000Y-76600000D03*
%TD*%
D10*
%TO.P,R7,1*%
%TO.N,K7*%
X38250000Y-35920000D03*
%TO.P,R7,2*%
%TO.N,S_DEHUM*%
X38250000Y-46080000D03*
%TD*%
D17*
%TO.P,TP3,1*%
%TO.N,GND*%
X46000000Y-81000000D03*
%TD*%
%TO.P,TP1,1*%
%TO.N,VS*%
X40000000Y-81000000D03*
%TD*%
D19*
%TO.P,D3,1*%
%TO.N,ACF*%
X45500000Y-67000000D03*
D20*
%TO.P,D3,2*%
%TO.N,COM*%
X55660000Y-67000000D03*
%TD*%
D10*
%TO.P,R5,1*%
%TO.N,K5*%
X31700000Y-35920000D03*
%TO.P,R5,2*%
%TO.N,S_BOS1*%
X31700000Y-46080000D03*
%TD*%
D12*
%TO.P,U3,1*%
%TO.N,VS*%
X10500000Y-57310000D03*
D10*
%TO.P,U3,2*%
%TO.N,K9*%
X13040000Y-57310000D03*
%TO.P,U3,3*%
%TO.N,VS*%
X15580000Y-57310000D03*
%TO.P,U3,4*%
%TO.N,K10*%
X18120000Y-57310000D03*
%TO.P,U3,5*%
%TO.N,VS*%
X20660000Y-57310000D03*
%TO.P,U3,6*%
%TO.N,K11*%
X23200000Y-57310000D03*
%TO.P,U3,7*%
%TO.N,VS*%
X25740000Y-57310000D03*
%TO.P,U3,8*%
%TO.N,K12*%
X28280000Y-57310000D03*
%TO.P,U3,9*%
%TO.N,GND*%
X28280000Y-49690000D03*
%TO.P,U3,10*%
%TO.N,GPIO16*%
X25740000Y-49690000D03*
%TO.P,U3,11*%
%TO.N,GND*%
X23200000Y-49690000D03*
%TO.P,U3,12*%
%TO.N,GPIO13*%
X20660000Y-49690000D03*
%TO.P,U3,13*%
%TO.N,GND*%
X18120000Y-49690000D03*
%TO.P,U3,14*%
%TO.N,GPIO19*%
X15580000Y-49690000D03*
%TO.P,U3,15*%
%TO.N,GND*%
X13040000Y-49690000D03*
%TO.P,U3,16*%
%TO.N,GPIO24*%
X10500000Y-49690000D03*
%TD*%
%TO.P,R10,1*%
%TO.N,K10*%
X35000000Y-48420000D03*
%TO.P,R10,2*%
%TO.N,S_SP-D*%
X35000000Y-58580000D03*
%TD*%
%TO.P,R1,1*%
%TO.N,K1*%
X31700000Y-23420000D03*
%TO.P,R1,2*%
%TO.N,S_ZV*%
X31700000Y-33580000D03*
%TD*%
D21*
%TO.P,F1,1*%
%TO.N,ACR*%
X52460000Y-25500000D03*
D17*
%TO.P,F1,2*%
%TO.N,ACF*%
X57540000Y-25500000D03*
%TD*%
D10*
%TO.P,R3,1*%
%TO.N,K3*%
X38250000Y-23420000D03*
%TO.P,R3,2*%
%TO.N,S_BLR*%
X38250000Y-33580000D03*
%TD*%
%TO.P,R6,1*%
%TO.N,K6*%
X35000000Y-35920000D03*
%TO.P,R6,2*%
%TO.N,S_BOS2*%
X35000000Y-46080000D03*
%TD*%
D13*
%TO.P,J6,1*%
%TO.N,3V3*%
X53000000Y-29500000D03*
D14*
%TO.P,J6,2*%
%TO.N,SDA*%
X53000000Y-32000000D03*
%TO.P,J6,3*%
%TO.N,SCL*%
X53000000Y-34500000D03*
%TO.P,J6,4*%
%TO.N,GPIO4*%
X53000000Y-37000000D03*
%TO.P,J6,5*%
%TO.N,GND*%
X53000000Y-39500000D03*
%TD*%
D19*
%TO.P,D4,1*%
%TO.N,ACC*%
X45500000Y-70200000D03*
D20*
%TO.P,D4,2*%
%TO.N,COM*%
X55660000Y-70200000D03*
%TD*%
D12*
%TO.P,U1,1*%
%TO.N,VS*%
X10500000Y-32310000D03*
D10*
%TO.P,U1,2*%
%TO.N,K1*%
X13040000Y-32310000D03*
%TO.P,U1,3*%
%TO.N,VS*%
X15580000Y-32310000D03*
%TO.P,U1,4*%
%TO.N,K2*%
X18120000Y-32310000D03*
%TO.P,U1,5*%
%TO.N,VS*%
X20660000Y-32310000D03*
%TO.P,U1,6*%
%TO.N,K3*%
X23200000Y-32310000D03*
%TO.P,U1,7*%
%TO.N,VS*%
X25740000Y-32310000D03*
%TO.P,U1,8*%
%TO.N,K4*%
X28280000Y-32310000D03*
%TO.P,U1,9*%
%TO.N,GND*%
X28280000Y-24690000D03*
%TO.P,U1,10*%
%TO.N,GPIO25*%
X25740000Y-24690000D03*
%TO.P,U1,11*%
%TO.N,GND*%
X23200000Y-24690000D03*
%TO.P,U1,12*%
%TO.N,GPIO22*%
X20660000Y-24690000D03*
%TO.P,U1,13*%
%TO.N,GND*%
X18120000Y-24690000D03*
%TO.P,U1,14*%
%TO.N,GPIO27*%
X15580000Y-24690000D03*
%TO.P,U1,15*%
%TO.N,GND*%
X13040000Y-24690000D03*
%TO.P,U1,16*%
%TO.N,GPIO17*%
X10500000Y-24690000D03*
%TD*%
%TO.P,R8,1*%
%TO.N,K8*%
X41500000Y-35920000D03*
%TO.P,R8,2*%
%TO.N,S_SCALA*%
X41500000Y-46080000D03*
%TD*%
%TO.P,R9,1*%
%TO.N,K9*%
X31700000Y-48420000D03*
%TO.P,R9,2*%
%TO.N,S_HPHEAT*%
X31700000Y-58580000D03*
%TD*%
%TO.P,R11,1*%
%TO.N,K11*%
X38250000Y-48420000D03*
%TO.P,R11,2*%
%TO.N,S_SP-C*%
X38250000Y-58580000D03*
%TD*%
D19*
%TO.P,D1,1*%
%TO.N,VS*%
X45500000Y-73400000D03*
D20*
%TO.P,D1,2*%
%TO.N,ACF*%
X55660000Y-73400000D03*
%TD*%
D18*
%TO.P,J4,1*%
%TO.N,ACR*%
X44450000Y-6950000D03*
D14*
%TO.P,J4,2*%
%TO.N,ACC*%
X46950000Y-6950000D03*
%TO.P,J4,3*%
%TO.N,S_SP-D*%
X49450000Y-6950000D03*
%TO.P,J4,4*%
%TO.N,COM*%
X51950000Y-6950000D03*
%TD*%
D18*
%TO.P,J3,1*%
%TO.N,S_DEHUM*%
X32750000Y-6950000D03*
D14*
%TO.P,J3,2*%
%TO.N,S_SCALA*%
X35250000Y-6950000D03*
%TO.P,J3,3*%
%TO.N,S_HPHEAT*%
X37750000Y-6950000D03*
%TO.P,J3,4*%
%TO.N,COM*%
X40250000Y-6950000D03*
%TD*%
D22*
%TO.P,J5,1*%
%TO.N,N/C*%
X4770000Y-8370000D03*
D23*
%TO.P,J5,2*%
%TO.N,+5V*%
X2230000Y-8370000D03*
%TO.P,J5,3*%
%TO.N,SDA*%
X4770000Y-10910000D03*
%TO.P,J5,4*%
%TO.N,+5V*%
X2230000Y-10910000D03*
%TO.P,J5,5*%
%TO.N,SCL*%
X4770000Y-13450000D03*
%TO.P,J5,6*%
%TO.N,GND*%
X2230000Y-13450000D03*
%TO.P,J5,7*%
%TO.N,GPIO4*%
X4770000Y-15990000D03*
%TO.P,J5,8*%
%TO.N,N/C*%
X2230000Y-15990000D03*
%TO.P,J5,9*%
%TO.N,GND*%
X4770000Y-18530000D03*
%TO.P,J5,10*%
%TO.N,N/C*%
X2230000Y-18530000D03*
%TO.P,J5,11*%
%TO.N,GPIO17*%
X4770000Y-21070000D03*
%TO.P,J5,12*%
%TO.N,GPIO18*%
X2230000Y-21070000D03*
%TO.P,J5,13*%
%TO.N,GPIO27*%
X4770000Y-23610000D03*
%TO.P,J5,14*%
%TO.N,GND*%
X2230000Y-23610000D03*
%TO.P,J5,15*%
%TO.N,GPIO22*%
X4770000Y-26150000D03*
%TO.P,J5,16*%
%TO.N,GPIO23*%
X2230000Y-26150000D03*
%TO.P,J5,17*%
%TO.N,3V3*%
X4770000Y-28690000D03*
%TO.P,J5,18*%
%TO.N,GPIO24*%
X2230000Y-28690000D03*
%TO.P,J5,19*%
%TO.N,GPIO10*%
X4770000Y-31230000D03*
%TO.P,J5,20*%
%TO.N,GND*%
X2230000Y-31230000D03*
%TO.P,J5,21*%
%TO.N,GPIO9*%
X4770000Y-33770000D03*
%TO.P,J5,22*%
%TO.N,GPIO25*%
X2230000Y-33770000D03*
%TO.P,J5,23*%
%TO.N,GPIO11*%
X4770000Y-36310000D03*
%TO.P,J5,24*%
%TO.N,GPIO8*%
X2230000Y-36310000D03*
%TO.P,J5,25*%
%TO.N,N/C*%
X4770000Y-38850000D03*
%TO.P,J5,26*%
%TO.N,GPIO7*%
X2230000Y-38850000D03*
%TO.P,J5,27*%
%TO.N,N/C*%
X4770000Y-41390000D03*
%TO.P,J5,28*%
X2230000Y-41390000D03*
%TO.P,J5,29*%
%TO.N,GPIO5*%
X4770000Y-43930000D03*
%TO.P,J5,30*%
%TO.N,GND*%
X2230000Y-43930000D03*
%TO.P,J5,31*%
%TO.N,GPIO6*%
X4770000Y-46470000D03*
%TO.P,J5,32*%
%TO.N,GPIO12*%
X2230000Y-46470000D03*
%TO.P,J5,33*%
%TO.N,GPIO13*%
X4770000Y-49010000D03*
%TO.P,J5,34*%
%TO.N,GND*%
X2230000Y-49010000D03*
%TO.P,J5,35*%
%TO.N,GPIO19*%
X4770000Y-51550000D03*
%TO.P,J5,36*%
%TO.N,GPIO16*%
X2230000Y-51550000D03*
%TO.P,J5,37*%
%TO.N,N/C*%
X4770000Y-54090000D03*
%TO.P,J5,38*%
%TO.N,GPIO20*%
X2230000Y-54090000D03*
%TO.P,J5,39*%
%TO.N,N/C*%
X4770000Y-56630000D03*
%TO.P,J5,40*%
%TO.N,GPIO21*%
X2230000Y-56630000D03*
%TD*%
D24*
%TO.N,SCL*%
X46967200Y-12919900D03*
%TO.N,GPIO4*%
X46922500Y-13943800D03*
%TO.N,SDA*%
X50347900Y-15242700D03*
D25*
%TO.N,+5V*%
X44653300Y-9993100D03*
D24*
%TO.N,3V3*%
X51125500Y-17332800D03*
D25*
%TO.N,COM*%
X56261900Y-48308400D03*
%TO.N,VS*%
X46441000Y-25071600D03*
D24*
%TO.N,S_CHIL*%
X35349700Y-29087700D03*
%TO.N,S_BLR*%
X34621000Y-31810300D03*
%TO.N,S_HPHEAT*%
X34737700Y-56455800D03*
%TD*%
%TO.N,SCL*%
D26*
X7310000Y-13450000D02*
X7840100Y-12919900D01*
X7840100Y-12919900D02*
X46967200Y-12919900D01*
X7310000Y-13450000D02*
X4770000Y-13450000D01*
%TO.N,GPIO4*%
X9356200Y-13943800D02*
X46922500Y-13943800D01*
X4770000Y-15990000D02*
X7310000Y-15990000D01*
X7310000Y-15990000D02*
X9356200Y-13943800D01*
%TO.N,GND*%
D27*
X16814800Y-23384800D02*
X18120000Y-24690000D01*
X8639200Y-57157800D02*
X8639200Y-53164200D01*
X13255000Y-24475000D02*
X14345200Y-23384800D01*
X7781400Y-58015600D02*
X8639200Y-57157800D01*
X10978300Y-51751700D02*
X10051700Y-51751700D01*
X16796700Y-38513300D02*
X18120000Y-37190000D01*
X13040000Y-24690000D02*
X13255000Y-24475000D01*
X23200000Y-37190000D02*
X24503200Y-38493200D01*
X23200000Y-49690000D02*
X21898300Y-50991700D01*
X24512900Y-23377100D02*
X26967100Y-23377100D01*
X19421700Y-23388300D02*
X18120000Y-24690000D01*
X13040000Y-38513300D02*
X16796700Y-38513300D01*
X19421700Y-50991700D02*
X18120000Y-49690000D01*
X16809600Y-51000400D02*
X18120000Y-49690000D01*
X878300Y-50361700D02*
X878300Y-57228200D01*
X18120000Y-37190000D02*
X19438900Y-35871100D01*
X23200000Y-24690000D02*
X21898300Y-23388300D01*
X4770000Y-18530000D02*
X7310000Y-18530000D01*
X23200000Y-24690000D02*
X24512900Y-23377100D01*
X14350400Y-51000400D02*
X16809600Y-51000400D01*
X26976800Y-38493200D02*
X28280000Y-37190000D01*
X26967100Y-23377100D02*
X28280000Y-24690000D01*
X13040000Y-49690000D02*
X10978300Y-51751700D01*
X2230000Y-49010000D02*
X878300Y-50361700D01*
X19438900Y-35871100D02*
X21881100Y-35871100D01*
X12726700Y-38513300D02*
X13040000Y-38513300D01*
X7310000Y-43930000D02*
X12726700Y-38513300D01*
X1665700Y-58015600D02*
X7781400Y-58015600D01*
X21881100Y-35871100D02*
X23200000Y-37190000D01*
X7310000Y-18530000D02*
X13255000Y-24475000D01*
X21898300Y-23388300D02*
X19421700Y-23388300D01*
X13040000Y-49690000D02*
X14350400Y-51000400D01*
X24503200Y-38493200D02*
X26976800Y-38493200D01*
X10051700Y-51751700D02*
X7310000Y-49010000D01*
X14345200Y-23384800D02*
X16814800Y-23384800D01*
X21898300Y-50991700D02*
X19421700Y-50991700D01*
X878300Y-57228200D02*
X1665700Y-58015600D01*
X8639200Y-53164200D02*
X10051700Y-51751700D01*
X13040000Y-38513300D02*
X13040000Y-37190000D01*
%TO.N,GPIO18*%
D26*
X2230000Y-21070000D02*
X3464700Y-19835300D01*
X3464700Y-19835300D02*
X6075300Y-19835300D01*
X6075300Y-19835300D02*
X7310000Y-21070000D01*
%TO.N,SDA*%
X46015200Y-10910000D02*
X50347900Y-15242700D01*
X4770000Y-10910000D02*
X46015200Y-10910000D01*
%TO.N,+5V*%
D27*
X40158400Y-4696200D02*
X42791600Y-7329400D01*
X2230000Y-8370000D02*
X5903800Y-4696200D01*
X5903800Y-4696200D02*
X40158400Y-4696200D01*
X42791600Y-7329400D02*
X42791600Y-8131400D01*
X42791600Y-8131400D02*
X44653300Y-9993100D01*
%TO.N,3V3*%
D26*
X1726300Y-24915300D02*
X973000Y-24162000D01*
X4318500Y-17235000D02*
X38822500Y-17235000D01*
X3430200Y-25671300D02*
X2674200Y-24915300D01*
X2727200Y-19706700D02*
X3534500Y-18899400D01*
X2674200Y-24915300D02*
X1726300Y-24915300D01*
X41188900Y-14868600D02*
X48661300Y-14868600D01*
X48661300Y-14868600D02*
X51125500Y-17332800D01*
X1919400Y-19706700D02*
X2727200Y-19706700D01*
X3534500Y-18899400D02*
X3534500Y-18019000D01*
X3534500Y-18019000D02*
X4318500Y-17235000D01*
X4770000Y-28690000D02*
X3430200Y-27350200D01*
X38822500Y-17235000D02*
X41188900Y-14868600D01*
X973000Y-24162000D02*
X973000Y-20653100D01*
X7310000Y-28690000D02*
X4770000Y-28690000D01*
X3430200Y-27350200D02*
X3430200Y-25671300D01*
X973000Y-20653100D02*
X1919400Y-19706700D01*
%TO.N,GPIO10*%
X4770000Y-31230000D02*
X7310000Y-31230000D01*
%TO.N,GPIO9*%
X4770000Y-33770000D02*
X7310000Y-33770000D01*
%TO.N,GPIO11*%
X4770000Y-36310000D02*
X7310000Y-36310000D01*
%TO.N,GPIO7*%
X2230000Y-38850000D02*
X3420600Y-37659400D01*
X3420600Y-37659400D02*
X6119400Y-37659400D01*
X6119400Y-37659400D02*
X7310000Y-38850000D01*
%TO.N,GPIO20*%
X3420600Y-52899400D02*
X6119400Y-52899400D01*
X2230000Y-54090000D02*
X3420600Y-52899400D01*
X6119400Y-52899400D02*
X7310000Y-54090000D01*
%TO.N,GPIO21*%
X6119400Y-55439400D02*
X7310000Y-56630000D01*
X2230000Y-56630000D02*
X3420600Y-55439400D01*
X3420600Y-55439400D02*
X6119400Y-55439400D01*
%TO.N,COM*%
D27*
X38762000Y-5462000D02*
X40250000Y-6950000D01*
X18328600Y-8428600D02*
X27071400Y-8428600D01*
X28550000Y-6950000D02*
X30038000Y-5462000D01*
X53941600Y-48308400D02*
X56261900Y-48308400D01*
X53000000Y-49250000D02*
X53941600Y-48308400D01*
X16850000Y-6950000D02*
X18328600Y-8428600D01*
X27071400Y-8428600D02*
X28550000Y-6950000D01*
X30038000Y-5462000D02*
X38762000Y-5462000D01*
%TO.N,VS*%
X19358300Y-46111700D02*
X16881700Y-46111700D01*
X16885100Y-33615100D02*
X15580000Y-32310000D01*
X11840000Y-58650000D02*
X10500000Y-57310000D01*
X20660000Y-32310000D02*
X19354900Y-33615100D01*
X20660000Y-44810000D02*
X19358300Y-46111700D01*
X19354900Y-33615100D02*
X16885100Y-33615100D01*
X14277500Y-33612500D02*
X11802500Y-33612500D01*
X24436800Y-46113200D02*
X25740000Y-44810000D01*
X14240000Y-58650000D02*
X11840000Y-58650000D01*
X27048000Y-33618000D02*
X29122500Y-33618000D01*
X16881700Y-46111700D02*
X15580000Y-44810000D01*
X44400000Y-76600000D02*
X40000000Y-81000000D01*
X15580000Y-57310000D02*
X14240000Y-58650000D01*
X25740000Y-32310000D02*
X27048000Y-33618000D01*
X19358100Y-58611900D02*
X16881900Y-58611900D01*
X11802500Y-33612500D02*
X10500000Y-32310000D01*
X24438100Y-58611900D02*
X25740000Y-57310000D01*
X43368300Y-28144300D02*
X46441000Y-25071600D01*
X15580000Y-32310000D02*
X14277500Y-33612500D01*
X16881900Y-58611900D02*
X15580000Y-57310000D01*
X20660000Y-57310000D02*
X19358100Y-58611900D01*
X14278300Y-46111700D02*
X15580000Y-44810000D01*
X20660000Y-44810000D02*
X21963200Y-46113200D01*
X29122500Y-33618000D02*
X34596200Y-28144300D01*
X21963200Y-46113200D02*
X24436800Y-46113200D01*
X11801700Y-46111700D02*
X14278300Y-46111700D01*
X34596200Y-28144300D02*
X43368300Y-28144300D01*
X20660000Y-57310000D02*
X21961900Y-58611900D01*
X45500000Y-76600000D02*
X44400000Y-76600000D01*
X10500000Y-44810000D02*
X11801700Y-46111700D01*
X21961900Y-58611900D02*
X24438100Y-58611900D01*
%TO.N,K5*%
D26*
X31700000Y-35920000D02*
X26932400Y-40687600D01*
X26932400Y-40687600D02*
X17162400Y-40687600D01*
X17162400Y-40687600D02*
X13040000Y-44810000D01*
%TO.N,K6*%
X20477200Y-42452800D02*
X18120000Y-44810000D01*
X28467200Y-42452800D02*
X20477200Y-42452800D01*
X35000000Y-35920000D02*
X28467200Y-42452800D01*
%TO.N,K7*%
X24962100Y-43047900D02*
X23200000Y-44810000D01*
X38250000Y-35920000D02*
X31122100Y-43047900D01*
X31122100Y-43047900D02*
X24962100Y-43047900D01*
%TO.N,K8*%
X41500000Y-35920000D02*
X32610000Y-44810000D01*
X32610000Y-44810000D02*
X28280000Y-44810000D01*
%TO.N,GPIO12*%
X14116800Y-39163100D02*
X18686900Y-39163100D01*
X18686900Y-39163100D02*
X20660000Y-37190000D01*
X8165100Y-45114800D02*
X14116800Y-39163100D01*
X2230000Y-46470000D02*
X3585200Y-45114800D01*
X3585200Y-45114800D02*
X8165100Y-45114800D01*
%TO.N,GPIO5*%
X11734700Y-36796300D02*
X12527800Y-36003200D01*
X14393200Y-36003200D02*
X15580000Y-37190000D01*
X11734700Y-37625200D02*
X11734700Y-36796300D01*
X9096600Y-40263300D02*
X11734700Y-37625200D01*
X6065000Y-42635000D02*
X6065000Y-41041600D01*
X12527800Y-36003200D02*
X14393200Y-36003200D01*
X4770000Y-43930000D02*
X6065000Y-42635000D01*
X6065000Y-41041600D02*
X6843300Y-40263300D01*
X6843300Y-40263300D02*
X9096600Y-40263300D01*
%TO.N,K12*%
X32610000Y-57310000D02*
X28280000Y-57310000D01*
X41500000Y-48420000D02*
X32610000Y-57310000D01*
%TO.N,S_CHIL*%
X41500000Y-33580000D02*
X37007700Y-29087700D01*
X37007700Y-29087700D02*
X35349700Y-29087700D01*
%TO.N,K2*%
X33459700Y-24960300D02*
X35000000Y-23420000D01*
X24325800Y-31114400D02*
X30479900Y-24960300D01*
X18120000Y-32310000D02*
X19315600Y-31114400D01*
X30479900Y-24960300D02*
X33459700Y-24960300D01*
X19315600Y-31114400D02*
X24325800Y-31114400D01*
%TO.N,S_BLR*%
X36480300Y-31810300D02*
X38250000Y-33580000D01*
X34621000Y-31810300D02*
X36480300Y-31810300D01*
%TO.N,K4*%
X37996700Y-26923300D02*
X33666700Y-26923300D01*
X41500000Y-23420000D02*
X37996700Y-26923300D01*
X33666700Y-26923300D02*
X28280000Y-32310000D01*
%TO.N,ACC*%
D27*
X51900000Y-76600000D02*
X55660000Y-76600000D01*
X45500000Y-70200000D02*
X51900000Y-76600000D01*
%TO.N,ACF*%
X49260000Y-67000000D02*
X45500000Y-67000000D01*
X55660000Y-73400000D02*
X49260000Y-67000000D01*
%TO.N,K9*%
D26*
X17788700Y-52561300D02*
X13040000Y-57310000D01*
X27558700Y-52561300D02*
X17788700Y-52561300D01*
X31700000Y-48420000D02*
X27558700Y-52561300D01*
%TO.N,K10*%
X29956800Y-53463200D02*
X21966800Y-53463200D01*
X35000000Y-48420000D02*
X29956800Y-53463200D01*
X21966800Y-53463200D02*
X18120000Y-57310000D01*
%TO.N,K11*%
X31579400Y-55090600D02*
X25419400Y-55090600D01*
X25419400Y-55090600D02*
X23200000Y-57310000D01*
X38250000Y-48420000D02*
X31579400Y-55090600D01*
%TO.N,GPIO16*%
X5257500Y-47646700D02*
X5649900Y-47254300D01*
X23304300Y-47254300D02*
X25740000Y-49690000D01*
X3535400Y-48561400D02*
X4450100Y-47646700D01*
X4450100Y-47646700D02*
X5257500Y-47646700D01*
X2230000Y-51550000D02*
X3535400Y-50244600D01*
X5649900Y-47254300D02*
X23304300Y-47254300D01*
X3535400Y-50244600D02*
X3535400Y-48561400D01*
%TO.N,GPIO13*%
X18740400Y-47770400D02*
X20660000Y-49690000D01*
X4770000Y-49010000D02*
X6009600Y-47770400D01*
X6009600Y-47770400D02*
X18740400Y-47770400D01*
%TO.N,K1*%
X25819500Y-28897100D02*
X31296600Y-23420000D01*
X13040000Y-32310000D02*
X16452900Y-28897100D01*
X16452900Y-28897100D02*
X25819500Y-28897100D01*
X31296600Y-23420000D02*
X31700000Y-23420000D01*
%TO.N,K3*%
X36165800Y-25504200D02*
X38250000Y-23420000D01*
X23200000Y-32310000D02*
X24067400Y-32310000D01*
X24067400Y-32310000D02*
X30873200Y-25504200D01*
X30873200Y-25504200D02*
X36165800Y-25504200D01*
%TO.N,GPIO25*%
X13272300Y-26877800D02*
X23552200Y-26877800D01*
X7650100Y-32500000D02*
X13272300Y-26877800D01*
X23552200Y-26877800D02*
X25740000Y-24690000D01*
X3500000Y-32500000D02*
X7650100Y-32500000D01*
X2230000Y-33770000D02*
X3500000Y-32500000D01*
%TO.N,GPIO22*%
X13060400Y-26368000D02*
X18982000Y-26368000D01*
X6007300Y-27387300D02*
X12041100Y-27387300D01*
X18982000Y-26368000D02*
X20660000Y-24690000D01*
X4770000Y-26150000D02*
X6007300Y-27387300D01*
X12041100Y-27387300D02*
X13060400Y-26368000D01*
%TO.N,GPIO27*%
X6015000Y-24855000D02*
X4770000Y-23610000D01*
X15580000Y-24690000D02*
X14378600Y-25891400D01*
X8375400Y-24855000D02*
X6015000Y-24855000D01*
X9411800Y-25891400D02*
X8375400Y-24855000D01*
X14378600Y-25891400D02*
X9411800Y-25891400D01*
%TO.N,GPIO17*%
X6040000Y-22340000D02*
X8150000Y-22340000D01*
X4770000Y-21070000D02*
X6040000Y-22340000D01*
X8150000Y-22340000D02*
X10500000Y-24690000D01*
%TO.N,S_HPHEAT*%
X34737700Y-56455800D02*
X32613500Y-58580000D01*
X32613500Y-58580000D02*
X31700000Y-58580000D01*
%TD*%
D28*
X46967200Y-12919900D03*
X46922500Y-13943800D03*
X50347900Y-15242700D03*
X44653300Y-9993100D03*
X51125500Y-17332800D03*
X56261900Y-48308400D03*
X46441000Y-25071600D03*
X35349700Y-29087700D03*
X34621000Y-31810300D03*
X34737700Y-56455800D03*
X7310000Y-13450000D03*
X7310000Y-15990000D03*
X7310000Y-18530000D03*
X7310000Y-21070000D03*
X7310000Y-23610000D03*
X7310000Y-26150000D03*
X7310000Y-28690000D03*
X7310000Y-31230000D03*
X7310000Y-33770000D03*
X7310000Y-36310000D03*
X7310000Y-38850000D03*
X7310000Y-41390000D03*
X7310000Y-43930000D03*
X7310000Y-49010000D03*
X7310000Y-54090000D03*
X7310000Y-56630000D03*
X49500000Y-82000000D03*
X52040000Y-82000000D03*
X54580000Y-82000000D03*
X10500000Y-44810000D03*
X13040000Y-44810000D03*
X15580000Y-44810000D03*
X18120000Y-44810000D03*
X20660000Y-44810000D03*
X23200000Y-44810000D03*
X25740000Y-44810000D03*
X28280000Y-44810000D03*
X28280000Y-37190000D03*
X25740000Y-37190000D03*
X23200000Y-37190000D03*
X20660000Y-37190000D03*
X18120000Y-37190000D03*
X15580000Y-37190000D03*
X13040000Y-37190000D03*
X10500000Y-37190000D03*
X53000000Y-46750000D03*
X53000000Y-49250000D03*
X53000000Y-51750000D03*
X53000000Y-54250000D03*
X46800000Y-16500000D03*
X46800000Y-41500000D03*
X43000000Y-81000000D03*
X41500000Y-48420000D03*
X41500000Y-58580000D03*
X21050000Y-6950000D03*
X23550000Y-6950000D03*
X26050000Y-6950000D03*
X28550000Y-6950000D03*
X35000000Y-23420000D03*
X35000000Y-33580000D03*
X9350000Y-6950000D03*
X11850000Y-6950000D03*
X14350000Y-6950000D03*
X16850000Y-6950000D03*
X41500000Y-23420000D03*
X41500000Y-33580000D03*
X45500000Y-76600000D03*
X55660000Y-76600000D03*
X38250000Y-35920000D03*
X38250000Y-46080000D03*
X46000000Y-81000000D03*
X40000000Y-81000000D03*
X45500000Y-67000000D03*
X55660000Y-67000000D03*
X31700000Y-35920000D03*
X31700000Y-46080000D03*
X10500000Y-57310000D03*
X13040000Y-57310000D03*
X15580000Y-57310000D03*
X18120000Y-57310000D03*
X20660000Y-57310000D03*
X23200000Y-57310000D03*
X25740000Y-57310000D03*
X28280000Y-57310000D03*
X28280000Y-49690000D03*
X25740000Y-49690000D03*
X23200000Y-49690000D03*
X20660000Y-49690000D03*
X18120000Y-49690000D03*
X15580000Y-49690000D03*
X13040000Y-49690000D03*
X10500000Y-49690000D03*
X35000000Y-48420000D03*
X35000000Y-58580000D03*
X31700000Y-23420000D03*
X31700000Y-33580000D03*
X52460000Y-25500000D03*
X57540000Y-25500000D03*
X38250000Y-23420000D03*
X38250000Y-33580000D03*
X35000000Y-35920000D03*
X35000000Y-46080000D03*
X53000000Y-29500000D03*
X53000000Y-32000000D03*
X53000000Y-34500000D03*
X53000000Y-37000000D03*
X53000000Y-39500000D03*
X45500000Y-70200000D03*
X55660000Y-70200000D03*
X10500000Y-32310000D03*
X13040000Y-32310000D03*
X15580000Y-32310000D03*
X18120000Y-32310000D03*
X20660000Y-32310000D03*
X23200000Y-32310000D03*
X25740000Y-32310000D03*
X28280000Y-32310000D03*
X28280000Y-24690000D03*
X25740000Y-24690000D03*
X23200000Y-24690000D03*
X20660000Y-24690000D03*
X18120000Y-24690000D03*
X15580000Y-24690000D03*
X13040000Y-24690000D03*
X10500000Y-24690000D03*
X41500000Y-35920000D03*
X41500000Y-46080000D03*
X31700000Y-48420000D03*
X31700000Y-58580000D03*
X38250000Y-48420000D03*
X38250000Y-58580000D03*
X45500000Y-73400000D03*
X55660000Y-73400000D03*
X44450000Y-6950000D03*
X46950000Y-6950000D03*
X49450000Y-6950000D03*
X51950000Y-6950000D03*
X32750000Y-6950000D03*
X35250000Y-6950000D03*
X37750000Y-6950000D03*
X40250000Y-6950000D03*
X4770000Y-8370000D03*
X2230000Y-8370000D03*
X4770000Y-10910000D03*
X2230000Y-10910000D03*
X4770000Y-13450000D03*
X2230000Y-13450000D03*
X4770000Y-15990000D03*
X2230000Y-15990000D03*
X4770000Y-18530000D03*
X2230000Y-18530000D03*
X4770000Y-21070000D03*
X2230000Y-21070000D03*
X4770000Y-23610000D03*
X2230000Y-23610000D03*
X4770000Y-26150000D03*
X2230000Y-26150000D03*
X4770000Y-28690000D03*
X2230000Y-28690000D03*
X4770000Y-31230000D03*
X2230000Y-31230000D03*
X4770000Y-33770000D03*
X2230000Y-33770000D03*
X4770000Y-36310000D03*
X2230000Y-36310000D03*
X4770000Y-38850000D03*
X2230000Y-38850000D03*
X4770000Y-41390000D03*
X2230000Y-41390000D03*
X4770000Y-43930000D03*
X2230000Y-43930000D03*
X4770000Y-46470000D03*
X2230000Y-46470000D03*
X4770000Y-49010000D03*
X2230000Y-49010000D03*
X4770000Y-51550000D03*
X2230000Y-51550000D03*
X4770000Y-54090000D03*
X2230000Y-54090000D03*
X4770000Y-56630000D03*
X2230000Y-56630000D03*
M02*
