M48
; DRILL file KiCad 10.0.6 date 2026-09-12T20:17:33
; FORMAT={-:-/ absolute / metric / decimal}
; #@! TF.CreationDate,2026-09-12T20:17:33-04:00
; #@! TF.GenerationSoftware,Kicad,Pcbnew,10.0.6
; #@! TF.FileFunction,MixedPlating,1,2
FMAT,2
METRIC
; #@! TA.AperFunction,Plated,PTH,ViaDrill
T1C0.400
; #@! TA.AperFunction,Plated,PTH,ViaDrill
T2C0.500
; #@! TA.AperFunction,Plated,PTH,ComponentDrill
T3C0.800
; #@! TA.AperFunction,Plated,PTH,ComponentDrill
T4C1.000
; #@! TA.AperFunction,Plated,PTH,ComponentDrill
T5C1.100
; #@! TA.AperFunction,Plated,PTH,ComponentDrill
T6C1.200
%
G90
G05
T1
X26.526Y-30.522
X29.472Y-33.138
X41.5Y-68.812
X44.881Y-15.431
X47.253Y-76.372
X48.715Y-16.741
X49.554Y-16.114
X50.344Y-16.899
T2
X29.402Y-26.603
X32.815Y-30.015
X46.008Y-45.584
X52.46Y-14.96
T3
X10.5Y-24.69
X10.5Y-32.31
X10.5Y-37.19
X10.5Y-44.81
X10.5Y-49.69
X10.5Y-57.31
X13.04Y-24.69
X13.04Y-32.31
X13.04Y-37.19
X13.04Y-44.81
X13.04Y-49.69
X13.04Y-57.31
X15.58Y-24.69
X15.58Y-32.31
X15.58Y-37.19
X15.58Y-44.81
X15.58Y-49.69
X15.58Y-57.31
X18.12Y-24.69
X18.12Y-32.31
X18.12Y-37.19
X18.12Y-44.81
X18.12Y-49.69
X18.12Y-57.31
X20.66Y-24.69
X20.66Y-32.31
X20.66Y-37.19
X20.66Y-44.81
X20.66Y-49.69
X20.66Y-57.31
X23.2Y-24.69
X23.2Y-32.31
X23.2Y-37.19
X23.2Y-44.81
X23.2Y-49.69
X23.2Y-57.31
X25.74Y-24.69
X25.74Y-32.31
X25.74Y-37.19
X25.74Y-44.81
X25.74Y-49.69
X25.74Y-57.31
X28.28Y-24.69
X28.28Y-32.31
X28.28Y-37.19
X28.28Y-44.81
X28.28Y-49.69
X28.28Y-57.31
X31.7Y-23.42
X31.7Y-33.58
X31.7Y-35.92
X31.7Y-46.08
X31.7Y-48.42
X31.7Y-58.58
X35.0Y-23.42
X35.0Y-33.58
X35.0Y-35.92
X35.0Y-46.08
X35.0Y-48.42
X35.0Y-58.58
X38.25Y-23.42
X38.25Y-33.58
X38.25Y-35.92
X38.25Y-46.08
X38.25Y-48.42
X38.25Y-58.58
X41.5Y-23.42
X41.5Y-33.58
X41.5Y-35.92
X41.5Y-46.08
X41.5Y-48.42
X41.5Y-58.58
T4
X2.23Y-8.37
X2.23Y-10.91
X2.23Y-13.45
X2.23Y-15.99
X2.23Y-18.53
X2.23Y-21.07
X2.23Y-23.61
X2.23Y-26.15
X2.23Y-28.69
X2.23Y-31.23
X2.23Y-33.77
X2.23Y-36.31
X2.23Y-38.85
X2.23Y-41.39
X2.23Y-43.93
X2.23Y-46.47
X2.23Y-49.01
X2.23Y-51.55
X2.23Y-54.09
X2.23Y-56.63
X4.77Y-8.37
X4.77Y-10.91
X4.77Y-13.45
X4.77Y-15.99
X4.77Y-18.53
X4.77Y-21.07
X4.77Y-23.61
X4.77Y-26.15
X4.77Y-28.69
X4.77Y-31.23
X4.77Y-33.77
X4.77Y-36.31
X4.77Y-38.85
X4.77Y-41.39
X4.77Y-43.93
X4.77Y-46.47
X4.77Y-49.01
X4.77Y-51.55
X4.77Y-54.09
X4.77Y-56.63
X7.31Y-13.45
X7.31Y-15.99
X7.31Y-18.53
X7.31Y-21.07
X7.31Y-23.61
X7.31Y-26.15
X7.31Y-28.69
X7.31Y-31.23
X7.31Y-33.77
X7.31Y-36.31
X7.31Y-38.85
X7.31Y-41.39
X7.31Y-43.93
X7.31Y-49.01
X7.31Y-54.09
X7.31Y-56.63
X40.0Y-81.0
X43.0Y-81.0
X46.0Y-81.0
X49.5Y-82.0
X52.04Y-82.0
X52.46Y-28.1
X54.58Y-82.0
X57.54Y-28.1
T5
X9.35Y-6.95
X11.85Y-6.95
X14.35Y-6.95
X16.85Y-6.95
X21.05Y-6.95
X23.55Y-6.95
X26.05Y-6.95
X28.55Y-6.95
X32.75Y-6.95
X35.25Y-6.95
X37.75Y-6.95
X40.25Y-6.95
X44.45Y-6.95
X45.5Y-67.0
X45.5Y-70.2
X45.5Y-73.4
X45.5Y-76.6
X46.95Y-6.95
X49.45Y-6.95
X51.95Y-6.95
X53.0Y-33.0
X53.0Y-35.5
X53.0Y-38.0
X53.0Y-40.5
X53.0Y-43.0
X53.0Y-49.75
X53.0Y-52.25
X53.0Y-54.75
X53.0Y-57.25
X55.66Y-67.0
X55.66Y-70.2
X55.66Y-73.4
X55.66Y-76.6
T6
X46.8Y-16.5
X46.8Y-41.5
M30
