<svg viewBox="0 0 820 610" role="img" aria-label="Complete schematic of the twelve-channel optoisolated input board: the supply enters through a series 1N4007 protection diode into J4.1; on the field side a plus-14-volt rail runs to each LED anode, and each cathode returns through its 4.7-kilohm resistor to its plug position and relay; an isolation barrier separates them from twelve phototransistors whose collectors go to named GPIO pins and whose emitters share a Pi ground rail." xmlns="http://www.w3.org/2000/svg" style="max-width:100%;height:auto">
<rect x="0" y="0" width="820" height="610" fill="#ffffff"/>
<defs><marker id="ar" viewBox="0 0 10 10" refX="9" refY="5" markerWidth="6" markerHeight="6" orient="auto-start-reverse"><path d="M0,0 L10,5 L0,10 z" fill="#1a1a1a"/></marker></defs>
<g fill="#1a1a1a" font-family="IBM Plex Mono, ui-monospace, monospace" font-size="11">
<text x="60" y="34" font-size="12" font-weight="600">FIELD SIDE — isolated, 14 V</text>
<text x="500" y="34" font-size="12" font-weight="600">PI SIDE — 3.3 V logic</text>
<line x1="420" y1="48" x2="420" y2="564" stroke="#1a1a1a" stroke-width="1.5" stroke-dasharray="7 5" opacity=".85"/>
<text x="420" y="62" text-anchor="middle" font-size="10.5" letter-spacing="1.5">ISOLATION BARRIER</text>
<text x="420" y="598" text-anchor="middle" font-size="10.5" opacity=".8">no conductor crosses this line</text>
<line x1="132" y1="88" x2="132" y2="511" stroke="#1a1a1a" stroke-width="2.5"/>
<text x="132" y="80" text-anchor="middle" font-size="11.5" font-weight="600">+14 V rail</text>
<line x1="8" y1="88" x2="36" y2="88" stroke="#1a1a1a" stroke-width="1.6"/>
<polygon points="36,82 36,94 47,88" fill="#1a1a1a"/>
<line x1="47" y1="82" x2="47" y2="94" stroke="#1a1a1a" stroke-width="1.8"/>
<line x1="47" y1="88" x2="131" y2="88" stroke="#1a1a1a" stroke-width="1.6" marker-end="url(#ar)"/>
<text x="42" y="76" text-anchor="middle" font-size="9">1N4007</text>
<text x="92" y="84" text-anchor="end" font-size="10.5">J4.1</text>
<line x1="726" y1="88" x2="726" y2="511" stroke="#1a1a1a" stroke-width="2.5"/>
<text x="726" y="80" text-anchor="middle" font-size="11.5" font-weight="600">Pi GND rail</text>
<line x1="727" y1="88" x2="784" y2="88" stroke="#1a1a1a" stroke-width="1.6" marker-end="url(#ar)"/>
<text x="788" y="84" font-size="10.5">hdr</text>
<g>
<text x="14" y="105" font-size="10" font-weight="600" letter-spacing=".8">BOILER / DHW</text>
<text x="14" y="122" font-size="10.5">J1.1</text>
<text x="60" y="122" font-size="11" font-weight="600">ZV</text>
<line x1="132" y1="109" x2="340" y2="109" stroke="#1a1a1a" stroke-width="1.2"/>
<polygon points="333,109 347,109 340,118" fill="#1a1a1a"/>
<line x1="333" y1="120" x2="347" y2="120" stroke="#1a1a1a" stroke-width="1.8"/>
<line x1="340" y1="120" x2="340" y2="127" stroke="#1a1a1a" stroke-width="1.2"/>
<line x1="340" y1="127" x2="296" y2="127" stroke="#1a1a1a" stroke-width="1.2"/>
<rect x="256" y="120.5" width="40" height="13" rx="1.5" fill="none" stroke="#1a1a1a" stroke-width="1.3"/>
<line x1="256" y1="127" x2="226" y2="127" stroke="#1a1a1a" stroke-width="1.2" marker-end="url(#ar)"/>
<text x="220" y="130" text-anchor="end" font-size="9.5" opacity=".8">to relay</text>
<text x="276" y="119" text-anchor="middle" font-size="9">4.7 k</text>
<text x="352" y="107" font-size="10">A</text>
<text x="352" y="131" font-size="10">K</text>
<text x="370" y="120" font-size="10">LED</text>
<circle cx="500" cy="118" r="11" fill="none" stroke="#1a1a1a" stroke-width="1.3"/>
<line x1="496" y1="112" x2="496" y2="124" stroke="#1a1a1a" stroke-width="1.6"/>
<line x1="496" y1="115" x2="508" y2="110" stroke="#1a1a1a" stroke-width="1.1"/>
<line x1="496" y1="121" x2="508" y2="126" stroke="#1a1a1a" stroke-width="1.1"/>
<text x="500" y="102" text-anchor="middle" font-size="10">photo</text>
<line x1="509" y1="110" x2="598" y2="110" stroke="#1a1a1a" stroke-width="1.2" marker-end="url(#ar)"/>
<text x="604" y="114" font-size="10.5">BCM 17</text>
<line x1="509" y1="126" x2="726" y2="126" stroke="#1a1a1a" stroke-width="1.2"/>
</g>
<g>
<text x="14" y="156" font-size="10.5">J1.2</text>
<text x="60" y="156" font-size="11" font-weight="600">DHW</text>
<line x1="132" y1="143" x2="340" y2="143" stroke="#1a1a1a" stroke-width="1.2"/>
<polygon points="333,143 347,143 340,152" fill="#1a1a1a"/>
<line x1="333" y1="154" x2="347" y2="154" stroke="#1a1a1a" stroke-width="1.8"/>
<line x1="340" y1="154" x2="340" y2="161" stroke="#1a1a1a" stroke-width="1.2"/>
<line x1="340" y1="161" x2="296" y2="161" stroke="#1a1a1a" stroke-width="1.2"/>
<rect x="256" y="154.5" width="40" height="13" rx="1.5" fill="none" stroke="#1a1a1a" stroke-width="1.3"/>
<line x1="256" y1="161" x2="226" y2="161" stroke="#1a1a1a" stroke-width="1.2" marker-end="url(#ar)"/>
<text x="220" y="164" text-anchor="end" font-size="9.5" opacity=".8">to relay</text>
<circle cx="500" cy="152" r="11" fill="none" stroke="#1a1a1a" stroke-width="1.3"/>
<line x1="496" y1="146" x2="496" y2="158" stroke="#1a1a1a" stroke-width="1.6"/>
<line x1="496" y1="149" x2="508" y2="144" stroke="#1a1a1a" stroke-width="1.1"/>
<line x1="496" y1="155" x2="508" y2="160" stroke="#1a1a1a" stroke-width="1.1"/>
<line x1="509" y1="144" x2="598" y2="144" stroke="#1a1a1a" stroke-width="1.2" marker-end="url(#ar)"/>
<text x="604" y="148" font-size="10.5">BCM 27</text>
<line x1="509" y1="160" x2="726" y2="160" stroke="#1a1a1a" stroke-width="1.2"/>
</g>
<g>
<text x="14" y="191" font-size="10.5">J1.3</text>
<text x="60" y="191" font-size="11" font-weight="600">BLR</text>
<line x1="132" y1="178" x2="340" y2="178" stroke="#1a1a1a" stroke-width="1.2"/>
<polygon points="333,178 347,178 340,187" fill="#1a1a1a"/>
<line x1="333" y1="189" x2="347" y2="189" stroke="#1a1a1a" stroke-width="1.8"/>
<line x1="340" y1="189" x2="340" y2="196" stroke="#1a1a1a" stroke-width="1.2"/>
<line x1="340" y1="196" x2="296" y2="196" stroke="#1a1a1a" stroke-width="1.2"/>
<rect x="256" y="189.5" width="40" height="13" rx="1.5" fill="none" stroke="#1a1a1a" stroke-width="1.3"/>
<line x1="256" y1="196" x2="226" y2="196" stroke="#1a1a1a" stroke-width="1.2" marker-end="url(#ar)"/>
<text x="220" y="199" text-anchor="end" font-size="9.5" opacity=".8">to relay</text>
<circle cx="500" cy="187" r="11" fill="none" stroke="#1a1a1a" stroke-width="1.3"/>
<line x1="496" y1="181" x2="496" y2="193" stroke="#1a1a1a" stroke-width="1.6"/>
<line x1="496" y1="184" x2="508" y2="179" stroke="#1a1a1a" stroke-width="1.1"/>
<line x1="496" y1="190" x2="508" y2="195" stroke="#1a1a1a" stroke-width="1.1"/>
<line x1="509" y1="179" x2="598" y2="179" stroke="#1a1a1a" stroke-width="1.2" marker-end="url(#ar)"/>
<text x="604" y="183" font-size="10.5">BCM 22</text>
<line x1="509" y1="195" x2="726" y2="195" stroke="#1a1a1a" stroke-width="1.2"/>
</g>
<g>
<text x="14" y="209" font-size="10" font-weight="600" letter-spacing=".8">COOLING</text>
<text x="14" y="226" font-size="10.5">J2.1</text>
<text x="60" y="226" font-size="11" font-weight="600">CHIL</text>
<line x1="132" y1="213" x2="340" y2="213" stroke="#1a1a1a" stroke-width="1.2"/>
<polygon points="333,213 347,213 340,222" fill="#1a1a1a"/>
<line x1="333" y1="224" x2="347" y2="224" stroke="#1a1a1a" stroke-width="1.8"/>
<line x1="340" y1="224" x2="340" y2="231" stroke="#1a1a1a" stroke-width="1.2"/>
<line x1="340" y1="231" x2="296" y2="231" stroke="#1a1a1a" stroke-width="1.2"/>
<rect x="256" y="224.5" width="40" height="13" rx="1.5" fill="none" stroke="#1a1a1a" stroke-width="1.3"/>
<line x1="256" y1="231" x2="226" y2="231" stroke="#1a1a1a" stroke-width="1.2" marker-end="url(#ar)"/>
<text x="220" y="234" text-anchor="end" font-size="9.5" opacity=".8">to relay</text>
<circle cx="500" cy="222" r="11" fill="none" stroke="#1a1a1a" stroke-width="1.3"/>
<line x1="496" y1="216" x2="496" y2="228" stroke="#1a1a1a" stroke-width="1.6"/>
<line x1="496" y1="219" x2="508" y2="214" stroke="#1a1a1a" stroke-width="1.1"/>
<line x1="496" y1="225" x2="508" y2="230" stroke="#1a1a1a" stroke-width="1.1"/>
<line x1="509" y1="214" x2="598" y2="214" stroke="#1a1a1a" stroke-width="1.2" marker-end="url(#ar)"/>
<text x="604" y="218" font-size="10.5">BCM 25</text>
<line x1="509" y1="230" x2="726" y2="230" stroke="#1a1a1a" stroke-width="1.2"/>
</g>
<g>
<text x="14" y="260" font-size="10.5">J2.2</text>
<text x="60" y="260" font-size="11" font-weight="600">BOS1</text>
<line x1="132" y1="247" x2="340" y2="247" stroke="#1a1a1a" stroke-width="1.2"/>
<polygon points="333,247 347,247 340,256" fill="#1a1a1a"/>
<line x1="333" y1="258" x2="347" y2="258" stroke="#1a1a1a" stroke-width="1.8"/>
<line x1="340" y1="258" x2="340" y2="265" stroke="#1a1a1a" stroke-width="1.2"/>
<line x1="340" y1="265" x2="296" y2="265" stroke="#1a1a1a" stroke-width="1.2"/>
<rect x="256" y="258.5" width="40" height="13" rx="1.5" fill="none" stroke="#1a1a1a" stroke-width="1.3"/>
<line x1="256" y1="265" x2="226" y2="265" stroke="#1a1a1a" stroke-width="1.2" marker-end="url(#ar)"/>
<text x="220" y="268" text-anchor="end" font-size="9.5" opacity=".8">to relay</text>
<circle cx="500" cy="256" r="11" fill="none" stroke="#1a1a1a" stroke-width="1.3"/>
<line x1="496" y1="250" x2="496" y2="262" stroke="#1a1a1a" stroke-width="1.6"/>
<line x1="496" y1="253" x2="508" y2="248" stroke="#1a1a1a" stroke-width="1.1"/>
<line x1="496" y1="259" x2="508" y2="264" stroke="#1a1a1a" stroke-width="1.1"/>
<line x1="509" y1="248" x2="598" y2="248" stroke="#1a1a1a" stroke-width="1.2" marker-end="url(#ar)"/>
<text x="604" y="252" font-size="10.5">BCM 6</text>
<line x1="509" y1="264" x2="726" y2="264" stroke="#1a1a1a" stroke-width="1.2"/>
</g>
<g>
<text x="14" y="294" font-size="10.5">J2.3</text>
<text x="60" y="294" font-size="11" font-weight="600">BOS2</text>
<line x1="132" y1="281" x2="340" y2="281" stroke="#1a1a1a" stroke-width="1.2"/>
<polygon points="333,281 347,281 340,290" fill="#1a1a1a"/>
<line x1="333" y1="292" x2="347" y2="292" stroke="#1a1a1a" stroke-width="1.8"/>
<line x1="340" y1="292" x2="340" y2="299" stroke="#1a1a1a" stroke-width="1.2"/>
<line x1="340" y1="299" x2="296" y2="299" stroke="#1a1a1a" stroke-width="1.2"/>
<rect x="256" y="292.5" width="40" height="13" rx="1.5" fill="none" stroke="#1a1a1a" stroke-width="1.3"/>
<line x1="256" y1="299" x2="226" y2="299" stroke="#1a1a1a" stroke-width="1.2" marker-end="url(#ar)"/>
<text x="220" y="302" text-anchor="end" font-size="9.5" opacity=".8">to relay</text>
<circle cx="500" cy="290" r="11" fill="none" stroke="#1a1a1a" stroke-width="1.3"/>
<line x1="496" y1="284" x2="496" y2="296" stroke="#1a1a1a" stroke-width="1.6"/>
<line x1="496" y1="287" x2="508" y2="282" stroke="#1a1a1a" stroke-width="1.1"/>
<line x1="496" y1="293" x2="508" y2="298" stroke="#1a1a1a" stroke-width="1.1"/>
<line x1="509" y1="282" x2="598" y2="282" stroke="#1a1a1a" stroke-width="1.2" marker-end="url(#ar)"/>
<text x="604" y="286" font-size="10.5">BCM 5</text>
<line x1="509" y1="298" x2="726" y2="298" stroke="#1a1a1a" stroke-width="1.2"/>
</g>
<g>
<text x="14" y="312" font-size="10" font-weight="600" letter-spacing=".8">MIXED</text>
<text x="14" y="329" font-size="10.5">J3.1</text>
<text x="60" y="329" font-size="11" font-weight="600">DEHUM</text>
<line x1="132" y1="316" x2="340" y2="316" stroke="#1a1a1a" stroke-width="1.2"/>
<polygon points="333,316 347,316 340,325" fill="#1a1a1a"/>
<line x1="333" y1="327" x2="347" y2="327" stroke="#1a1a1a" stroke-width="1.8"/>
<line x1="340" y1="327" x2="340" y2="334" stroke="#1a1a1a" stroke-width="1.2"/>
<line x1="340" y1="334" x2="296" y2="334" stroke="#1a1a1a" stroke-width="1.2"/>
<rect x="256" y="327.5" width="40" height="13" rx="1.5" fill="none" stroke="#1a1a1a" stroke-width="1.3"/>
<line x1="256" y1="334" x2="226" y2="334" stroke="#1a1a1a" stroke-width="1.2" marker-end="url(#ar)"/>
<text x="220" y="337" text-anchor="end" font-size="9.5" opacity=".8">to relay</text>
<circle cx="500" cy="325" r="11" fill="none" stroke="#1a1a1a" stroke-width="1.3"/>
<line x1="496" y1="319" x2="496" y2="331" stroke="#1a1a1a" stroke-width="1.6"/>
<line x1="496" y1="322" x2="508" y2="317" stroke="#1a1a1a" stroke-width="1.1"/>
<line x1="496" y1="328" x2="508" y2="333" stroke="#1a1a1a" stroke-width="1.1"/>
<line x1="509" y1="317" x2="598" y2="317" stroke="#1a1a1a" stroke-width="1.2" marker-end="url(#ar)"/>
<text x="604" y="321" font-size="10.5">BCM 12</text>
<line x1="509" y1="333" x2="726" y2="333" stroke="#1a1a1a" stroke-width="1.2"/>
</g>
<g>
<text x="14" y="364" font-size="10.5">J3.2</text>
<text x="60" y="364" font-size="11" font-weight="600">spare</text>
<line x1="132" y1="351" x2="340" y2="351" stroke="#1a1a1a" stroke-width="1.2"/>
<polygon points="333,351 347,351 340,360" fill="#1a1a1a"/>
<line x1="333" y1="362" x2="347" y2="362" stroke="#1a1a1a" stroke-width="1.8"/>
<line x1="340" y1="362" x2="340" y2="369" stroke="#1a1a1a" stroke-width="1.2"/>
<line x1="340" y1="369" x2="296" y2="369" stroke="#1a1a1a" stroke-width="1.2"/>
<rect x="256" y="362.5" width="40" height="13" rx="1.5" fill="none" stroke="#1a1a1a" stroke-width="1.3"/>
<line x1="256" y1="369" x2="226" y2="369" stroke="#1a1a1a" stroke-width="1.2" marker-end="url(#ar)"/>
<text x="220" y="372" text-anchor="end" font-size="9.5" opacity=".8">to relay</text>
<circle cx="500" cy="360" r="11" fill="none" stroke="#1a1a1a" stroke-width="1.3"/>
<line x1="496" y1="354" x2="496" y2="366" stroke="#1a1a1a" stroke-width="1.6"/>
<line x1="496" y1="357" x2="508" y2="352" stroke="#1a1a1a" stroke-width="1.1"/>
<line x1="496" y1="363" x2="508" y2="368" stroke="#1a1a1a" stroke-width="1.1"/>
<line x1="509" y1="352" x2="598" y2="352" stroke="#1a1a1a" stroke-width="1.2" marker-end="url(#ar)"/>
<text x="604" y="356" font-size="10.5">BCM 23</text>
<line x1="509" y1="368" x2="726" y2="368" stroke="#1a1a1a" stroke-width="1.2"/>
</g>
<g>
<text x="14" y="398" font-size="10.5">J3.3</text>
<text x="60" y="398" font-size="11" font-weight="600">spare</text>
<line x1="132" y1="385" x2="340" y2="385" stroke="#1a1a1a" stroke-width="1.2"/>
<polygon points="333,385 347,385 340,394" fill="#1a1a1a"/>
<line x1="333" y1="396" x2="347" y2="396" stroke="#1a1a1a" stroke-width="1.8"/>
<line x1="340" y1="396" x2="340" y2="403" stroke="#1a1a1a" stroke-width="1.2"/>
<line x1="340" y1="403" x2="296" y2="403" stroke="#1a1a1a" stroke-width="1.2"/>
<rect x="256" y="396.5" width="40" height="13" rx="1.5" fill="none" stroke="#1a1a1a" stroke-width="1.3"/>
<line x1="256" y1="403" x2="226" y2="403" stroke="#1a1a1a" stroke-width="1.2" marker-end="url(#ar)"/>
<text x="220" y="406" text-anchor="end" font-size="9.5" opacity=".8">to relay</text>
<circle cx="500" cy="394" r="11" fill="none" stroke="#1a1a1a" stroke-width="1.3"/>
<line x1="496" y1="388" x2="496" y2="400" stroke="#1a1a1a" stroke-width="1.6"/>
<line x1="496" y1="391" x2="508" y2="386" stroke="#1a1a1a" stroke-width="1.1"/>
<line x1="496" y1="397" x2="508" y2="402" stroke="#1a1a1a" stroke-width="1.1"/>
<line x1="509" y1="386" x2="598" y2="386" stroke="#1a1a1a" stroke-width="1.2" marker-end="url(#ar)"/>
<text x="604" y="390" font-size="10.5">BCM 24</text>
<line x1="509" y1="402" x2="726" y2="402" stroke="#1a1a1a" stroke-width="1.2"/>
</g>
<g>
<text x="14" y="415" font-size="10" font-weight="600" letter-spacing=".8">EXPANSION</text>
<text x="14" y="432" font-size="10.5">J4.2</text>
<text x="60" y="432" font-size="11" font-weight="600">spare</text>
<line x1="132" y1="419" x2="340" y2="419" stroke="#1a1a1a" stroke-width="1.2"/>
<polygon points="333,419 347,419 340,428" fill="#1a1a1a"/>
<line x1="333" y1="430" x2="347" y2="430" stroke="#1a1a1a" stroke-width="1.8"/>
<line x1="340" y1="430" x2="340" y2="437" stroke="#1a1a1a" stroke-width="1.2"/>
<line x1="340" y1="437" x2="296" y2="437" stroke="#1a1a1a" stroke-width="1.2"/>
<rect x="256" y="430.5" width="40" height="13" rx="1.5" fill="none" stroke="#1a1a1a" stroke-width="1.3"/>
<line x1="256" y1="437" x2="226" y2="437" stroke="#1a1a1a" stroke-width="1.2" marker-end="url(#ar)"/>
<text x="220" y="440" text-anchor="end" font-size="9.5" opacity=".8">to relay</text>
<circle cx="500" cy="428" r="11" fill="none" stroke="#1a1a1a" stroke-width="1.3"/>
<line x1="496" y1="422" x2="496" y2="434" stroke="#1a1a1a" stroke-width="1.6"/>
<line x1="496" y1="425" x2="508" y2="420" stroke="#1a1a1a" stroke-width="1.1"/>
<line x1="496" y1="431" x2="508" y2="436" stroke="#1a1a1a" stroke-width="1.1"/>
<line x1="509" y1="420" x2="598" y2="420" stroke="#1a1a1a" stroke-width="1.2" marker-end="url(#ar)"/>
<text x="604" y="424" font-size="10.5">BCM 13</text>
<line x1="509" y1="436" x2="726" y2="436" stroke="#1a1a1a" stroke-width="1.2"/>
</g>
<g>
<text x="14" y="467" font-size="10.5">J4.3</text>
<text x="60" y="467" font-size="11" font-weight="600">spare</text>
<line x1="132" y1="454" x2="340" y2="454" stroke="#1a1a1a" stroke-width="1.2"/>
<polygon points="333,454 347,454 340,463" fill="#1a1a1a"/>
<line x1="333" y1="465" x2="347" y2="465" stroke="#1a1a1a" stroke-width="1.8"/>
<line x1="340" y1="465" x2="340" y2="472" stroke="#1a1a1a" stroke-width="1.2"/>
<line x1="340" y1="472" x2="296" y2="472" stroke="#1a1a1a" stroke-width="1.2"/>
<rect x="256" y="465.5" width="40" height="13" rx="1.5" fill="none" stroke="#1a1a1a" stroke-width="1.3"/>
<line x1="256" y1="472" x2="226" y2="472" stroke="#1a1a1a" stroke-width="1.2" marker-end="url(#ar)"/>
<text x="220" y="475" text-anchor="end" font-size="9.5" opacity=".8">to relay</text>
<circle cx="500" cy="463" r="11" fill="none" stroke="#1a1a1a" stroke-width="1.3"/>
<line x1="496" y1="457" x2="496" y2="469" stroke="#1a1a1a" stroke-width="1.6"/>
<line x1="496" y1="460" x2="508" y2="455" stroke="#1a1a1a" stroke-width="1.1"/>
<line x1="496" y1="466" x2="508" y2="471" stroke="#1a1a1a" stroke-width="1.1"/>
<line x1="509" y1="455" x2="598" y2="455" stroke="#1a1a1a" stroke-width="1.2" marker-end="url(#ar)"/>
<text x="604" y="459" font-size="10.5">BCM 19</text>
<line x1="509" y1="471" x2="726" y2="471" stroke="#1a1a1a" stroke-width="1.2"/>
</g>
<g opacity=".42">
<text x="14" y="502" font-size="10.5">—</text>
<text x="60" y="502" font-size="11" font-weight="600">built, unlanded</text>
<line x1="132" y1="489" x2="340" y2="489" stroke="#1a1a1a" stroke-width="1.2"/>
<polygon points="333,489 347,489 340,498" fill="#1a1a1a"/>
<line x1="333" y1="500" x2="347" y2="500" stroke="#1a1a1a" stroke-width="1.8"/>
<line x1="340" y1="500" x2="340" y2="507" stroke="#1a1a1a" stroke-width="1.2"/>
<line x1="340" y1="507" x2="296" y2="507" stroke="#1a1a1a" stroke-width="1.2"/>
<rect x="256" y="500.5" width="40" height="13" rx="1.5" fill="none" stroke="#1a1a1a" stroke-width="1.3"/>
<line x1="256" y1="507" x2="226" y2="507" stroke="#1a1a1a" stroke-width="1.2" marker-end="url(#ar)"/>
<text x="220" y="510" text-anchor="end" font-size="9.5" opacity=".8">to relay</text>
<circle cx="500" cy="498" r="11" fill="none" stroke="#1a1a1a" stroke-width="1.3"/>
<line x1="496" y1="492" x2="496" y2="504" stroke="#1a1a1a" stroke-width="1.6"/>
<line x1="496" y1="495" x2="508" y2="490" stroke="#1a1a1a" stroke-width="1.1"/>
<line x1="496" y1="501" x2="508" y2="506" stroke="#1a1a1a" stroke-width="1.1"/>
<line x1="509" y1="490" x2="598" y2="490" stroke="#1a1a1a" stroke-width="1.2" marker-end="url(#ar)"/>
<text x="604" y="494" font-size="10.5">—</text>
<line x1="509" y1="506" x2="726" y2="506" stroke="#1a1a1a" stroke-width="1.2"/>
</g>
<line x1="46" y1="558" x2="380" y2="558" stroke="#1a1a1a" stroke-width="2.5"/>
<text x="14" y="562" font-size="10.5">V−</text>
<text x="60" y="549" font-size="11" font-weight="600">24 V COM rail — J1.4 · J2.4 · J3.4 · J4.4, and the supply return</text>
<line x1="150" y1="558" x2="150" y2="569" stroke="#1a1a1a" stroke-width="1.3"/>
<text x="150" y="580" text-anchor="middle" font-size="9.5">J1.4</text>
<line x1="230" y1="558" x2="230" y2="569" stroke="#1a1a1a" stroke-width="1.3"/>
<text x="230" y="580" text-anchor="middle" font-size="9.5">J2.4</text>
<line x1="310" y1="558" x2="310" y2="569" stroke="#1a1a1a" stroke-width="1.3"/>
<text x="310" y="580" text-anchor="middle" font-size="9.5">J3.4</text>
<line x1="390" y1="558" x2="390" y2="569" stroke="#1a1a1a" stroke-width="1.3"/>
<text x="390" y="580" text-anchor="middle" font-size="9.5">J4.4</text>
</g></svg>
