<svg viewBox="0 0 1000 1150" role="img" aria-label="Rev C layout of the EXT board: two 3-way surface-mount PTSM probe sockets on the top edge and a 2-way black 24 VAC entry on the bottom edge, each with its entry face on the board edge, a 2-way white vertical PTSM header for the 5 V output, and the envelopes of the latching plugs outside the edges." xmlns="http://www.w3.org/2000/svg" style="max-width:100%;height:auto">
<defs>
<pattern id="hatch" width="4" height="4" patternUnits="userSpaceOnUse" patternTransform="rotate(45)"><line x1="0" y1="0" x2="0" y2="4" stroke="#9aa3ad" stroke-width="0.8"/></pattern>
<marker id="arrg" viewBox="0 0 6 6" refX="5" refY="3" markerWidth="4" markerHeight="4" orient="auto"><path d="M0,0 L6,3 L0,6 z" fill="#5f6368"/></marker>
</defs>
<rect x="0" y="0" width="1000" height="1150" fill="#ffffff"/>
<g font-family="IBM Plex Mono, ui-monospace, monospace" fill="#1a1a1a">
<text x="30" y="30" font-size="15" font-weight="700">Rev C, EXT board: surface-mount PTSM headers flush with the edge, component side up, 9 px per mm</text>
<text x="30" y="48" font-size="9.5" opacity="0.8">Grey: carried over from rev B. Orange: new or moved in rev C. Dashed grey: leaves. Dashed orange: latching plug envelope outside the board.</text>
<g transform="translate(90,185) scale(9)">
<rect x="0" y="0" width="38.5" height="85" fill="#eef1ee" stroke="#2f5f3a" stroke-width="0.3"/>
<text x="1.2" y="37.4" font-size="1.05" font-weight="700">EXT 38.5 x 85</text>
<g stroke="#8a8f94" stroke-width="0.12" stroke-dasharray="0.8 0.5" fill="none">
<line x1="0" y1="18.11" x2="38.5" y2="18.11"/><line x1="0" y1="22.31" x2="38.5" y2="22.31"/>
<line x1="0" y1="61.29" x2="38.5" y2="61.29"/><line x1="0" y1="65.49" x2="38.5" y2="65.49"/>
</g>
<text x="14" y="21.1" font-size="1.1" fill="#8a8f94">rib (solder side)</text>
<text x="17" y="64.3" font-size="1.1" fill="#8a8f94">rib (solder side)</text>
<rect x="0" y="41" width="9.5" height="20" fill="url(#hatch)" stroke="#9aa3ad" stroke-width="0.1"/>
<text x="0.6" y="60.6" font-size="0.8" fill="#6b737c">J1 plug room</text>
<!-- mid field: the power section -->
<!-- GH 7-way top-entry link header at the left edge, beside the opening to INT -->
<rect x="1.5" y="46.5" width="5.6" height="12" fill="#e1e4e1" stroke="#5f6368" stroke-width="0.3"/>
<g fill="#333333" font-size="0.7">
<text x="1.9" y="48.1">7 COM</text><text x="1.9" y="49.6">6 VS</text><text x="1.9" y="51.1">5 GND</text><text x="1.9" y="52.6">4 G4</text><text x="1.9" y="54.1">3 SCL</text><text x="1.9" y="55.6">2 SDA</text><text x="1.9" y="57.1">1 3V3</text>
</g>
<text x="0.6" y="42.6" font-size="0.8" fill="#5f6368">J1 GH BM07B</text>
<text x="0.6" y="43.8" font-size="0.8" fill="#5f6368">top entry, at</text>
<text x="0.6" y="45" font-size="0.8" fill="#5f6368">the opening</text>
<!-- D1-D4 column -->
<g fill="#e1e4e1" stroke="#5f6368" stroke-width="0.2">
<rect x="12.5" y="23.6" width="5.2" height="2.7" rx="0.4"/><rect x="12.5" y="27.1" width="5.2" height="2.7" rx="0.4"/><rect x="12.5" y="30.6" width="5.2" height="2.7" rx="0.4"/><rect x="12.5" y="34.1" width="5.2" height="2.7" rx="0.4"/>
</g>
<g fill="#d9b53a" stroke="#7a6410" stroke-width="0.06">
<circle cx="10" cy="24.95" r="0.6"/><circle cx="20.16" cy="24.95" r="0.6"/><circle cx="10" cy="28.45" r="0.6"/><circle cx="20.16" cy="28.45" r="0.6"/><circle cx="10" cy="31.95" r="0.6"/><circle cx="20.16" cy="31.95" r="0.6"/><circle cx="10" cy="35.45" r="0.6"/><circle cx="20.16" cy="35.45" r="0.6"/>
</g>
<g stroke="#8a6a3a" stroke-width="0.18"><line x1="10" y1="24.95" x2="12.5" y2="24.95"/><line x1="17.7" y1="24.95" x2="20.16" y2="24.95"/><line x1="10" y1="28.45" x2="12.5" y2="28.45"/><line x1="17.7" y1="28.45" x2="20.16" y2="28.45"/><line x1="10" y1="31.95" x2="12.5" y2="31.95"/><line x1="17.7" y1="31.95" x2="20.16" y2="31.95"/><line x1="10" y1="35.45" x2="12.5" y2="35.45"/><line x1="17.7" y1="35.45" x2="20.16" y2="35.45"/></g>
<text x="10.8" y="38.6" font-size="0.9" fill="#5f6368">D1-D4 1N4007 bridge</text>
<!-- C3 reservoir, standing, upper right -->
<circle cx="31.5" cy="30" r="6.25" fill="#e1e4e1" stroke="#5f6368" stroke-width="0.25"/>
<circle cx="29" cy="30" r="0.6" fill="#d9b53a"/><circle cx="34" cy="30" r="0.6" fill="#d9b53a"/>
<text x="27.3" y="27.7" font-size="0.9" font-weight="700" fill="#333333">C3 470u 63V</text>
<text x="27.1" y="32.6" font-size="0.7" fill="#333333">12.5 x 25, standing</text>
<text x="27.6" y="33.8" font-size="0.7" fill="#333333">valley 28 V at peak</text>
<!-- F1 PTC disc standing, below the bridge -->
<rect x="12" y="39.5" width="13" height="3.4" rx="0.5" fill="#e1e4e1" stroke="#5f6368" stroke-width="0.25"/>
<circle cx="15.5" cy="44.5" r="0.6" fill="#d9b53a"/><circle cx="20.58" cy="44.5" r="0.6" fill="#d9b53a"/>
<text x="12.2" y="46.9" font-size="0.9" font-weight="700" fill="#333333">F1 60R110XU</text>
<text x="12.2" y="48.2" font-size="0.75" fill="#333333">1.1 A PTC, standing, 13 tall</text>
<!-- TMR converter along the lower rib -->
<rect x="11" y="50.5" width="22" height="9.6" rx="0.4" fill="#e1e4e1" stroke="#5f6368" stroke-width="0.3"/>
<g fill="#d9b53a" stroke="#7a6410" stroke-width="0.06">
<circle cx="13.11" cy="54.04" r="0.55"/><circle cx="15.65" cy="54.04" r="0.55"/><circle cx="18.19" cy="54.04" r="0.55"/><circle cx="20.73" cy="54.04" r="0.55"/><circle cx="23.27" cy="54.04" r="0.55"/><circle cx="25.81" cy="54.04" r="0.55"/><circle cx="28.35" cy="54.04" r="0.55"/><circle cx="30.89" cy="54.04" r="0.55"/>
</g>
<g fill="#333333" font-size="0.65">
<text x="12.1" y="52.7">1 -Vin</text><text x="14.9" y="52.7">2 +Vin</text><text x="17.6" y="52.7">3 Rmt</text><text x="25.1" y="52.7">6 +Vo</text><text x="27.7" y="52.7">7 -Vo</text><text x="30.2" y="52.7">8 NC</text>
</g>
<text x="12.1" y="57" font-size="0.95" font-weight="700" fill="#333333">U3 TMR 12-4811WI</text>
<text x="12.1" y="58.5" font-size="0.8" fill="#333333">SIP-8, 12.0 tall, 5.1 V 2.4 A</text>

<!-- lower field: J4 against the rib, proto field across to J3, J3 at the bottom edge -->



<g fill="#d9b53a" stroke="#7a6410" stroke-width="0.06">
<circle cx="35.5" cy="68" r="0.75"/><circle cx="35.5" cy="70.54" r="0.75"/><circle cx="35.5" cy="73.08" r="0.75"/>
</g>
<text x="34.2" y="66.6" font-size="0.9" fill="#333">J2</text>
<text x="36.6" y="68.4" font-size="0.75" fill="#333">V</text><text x="36.6" y="70.9" font-size="0.75" fill="#333">D</text><text x="36.6" y="73.4" font-size="0.75" fill="#333">G</text>
<!-- EXT title block at 0.7 scale, left of J4 -->
<g transform="translate(31.2,40.3) scale(0.7)">
<circle cx="0" cy="0" r="4.425" fill="none" stroke="#1a1a1a" stroke-width="0.35"/>
<path d="M -2.35 1.01 L -2.35 -2.51 A 0.24 0.24 0 0 1 -2.11 -2.75 L -1.55 -2.75 A 2 2 0 0 1 -1.55 1.25 L -2.11 1.25 A 0.24 0.24 0 0 1 -2.35 1.01 Z M -1.55 -1.95 L -1.55 0.45 A 1.2 1.2 0 0 0 -1.55 -1.95 Z" fill="#1a1a1a" fill-rule="nonzero"/>
<path d="M 0.8 -1.23 A 0.24 0.24 0 0 1 1.04 -1.47 L 1.36 -1.47 A 0.24 0.24 0 0 1 1.6 -1.23 L 1.6 1.59 A 0.14 0.14 0 0 0 1.74 1.73 L 2.793 1.73 A 0.24 0.24 0 0 1 3.033 1.97 L 3.033 2.29 A 0.24 0.24 0 0 1 2.793 2.53 L 1.04 2.53 A 0.24 0.24 0 0 1 0.8 2.29 Z" fill="#1a1a1a"/>
</g>
<text x="31.2" y="45.2" font-size="0.85" font-weight="700" text-anchor="middle" letter-spacing="0.05">PIVAC MONITORING</text>
<text x="31.2" y="46.7" font-size="0.75" text-anchor="middle">BOARD · v1.0 · Rev C · EXT</text>

<!-- power path arrows -->
<g stroke="#5f6368" stroke-width="0.22" fill="none" marker-end="url(#arrg)">
<path d="M 8 74.6 L 8 73.5 C 8 68, 9.8 64, 9.8 58 L 9.8 48.5 C 9.8 45.5, 12 44.5, 14.7 44.5"/>
<path d="M 20.58 43.7 L 20.3 34.8"/>
<path d="M 20.9 27.95 C 24 27.95, 26 30, 28.2 30"/>
<path d="M 31.5 36.5 C 31.5 44, 16 46, 15.65 53.3"/>
<path d="M 25.81 54.8 C 25.81 60, 27.6 62, 27.6 64.2"/>
<path d="M 10 34.7 C 9.8 40, 8.8 46, 7.4 48.6"/>
</g>
<g font-size="0.7" fill="#5f6368">
<text x="29.2" y="62.6">5.1 V to J4</text>
<text x="11.4" y="63.4" font-size="0.65">24 VAC in</text>
<text x="1.0" y="39.4" font-size="0.65">VS, COM</text>
<text x="1.0" y="40.5" font-size="0.65">to J1.6, 7</text>
</g>

<!-- rev C probe end: two surface-mount sockets centred on the board, face on the edge -->
<rect x="5.90" y="0.00" width="9.20" height="7.50" fill="#f3b45c" stroke="#a45d00" stroke-width="0.25"/>
<rect x="4.55" y="2.10" width="1.35" height="1.30" fill="#f3b45c" stroke="#a45d00" stroke-width="0.12"/>
<rect x="4.55" y="4.70" width="1.35" height="1.50" fill="#f3b45c" stroke="#a45d00" stroke-width="0.12"/>
<rect x="4.25" y="0.80" width="2.20" height="5.60" fill="#d9b53a" fill-opacity="0.75" stroke="#7a6410" stroke-width="0.08"/>
<circle cx="6.90" cy="2.85" r="0.55" fill="#ffffff" stroke="#333" stroke-width="0.1"/>
<rect x="15.10" y="2.10" width="1.35" height="1.30" fill="#f3b45c" stroke="#a45d00" stroke-width="0.12"/>
<rect x="15.10" y="4.70" width="1.35" height="1.50" fill="#f3b45c" stroke="#a45d00" stroke-width="0.12"/>
<rect x="14.55" y="0.80" width="2.20" height="5.60" fill="#d9b53a" fill-opacity="0.75" stroke="#7a6410" stroke-width="0.08"/>
<circle cx="14.10" cy="2.85" r="0.55" fill="#ffffff" stroke="#333" stroke-width="0.1"/>
<rect x="7.40" y="6.60" width="1.20" height="3.20" fill="#d9b53a" stroke="#7a6410" stroke-width="0.08"/>
<rect x="9.90" y="6.60" width="1.20" height="3.20" fill="#d9b53a" stroke="#7a6410" stroke-width="0.08"/>
<rect x="12.40" y="6.60" width="1.20" height="3.20" fill="#d9b53a" stroke="#7a6410" stroke-width="0.08"/>
<text x="10.50" y="5.70" font-size="1.15" font-weight="700" fill="#4a2a00" text-anchor="middle">H1</text>
<rect x="2.10" y="-11.40" width="16.80" height="11.40" fill="none" stroke="#a45d00" stroke-width="0.14" stroke-dasharray="0.9 0.6"/>
<rect x="6.35" y="-11.40" width="8.30" height="11.40" fill="none" stroke="#8a8f94" stroke-width="0.12" stroke-dasharray="0.5 0.4"/>
<text x="10.50" y="-6.20" font-size="0.85" fill="#a45d00" text-anchor="middle">H1 trunk: VCC · DATA · GND</text>
<text x="10.50" y="-5.00" font-size="0.75" fill="#a45d00" text-anchor="middle">latching plug 16.8 wide</text>
<text x="10.50" y="-3.90" font-size="0.7" fill="#6b737c" text-anchor="middle">plain plug inside</text>
<rect x="23.40" y="0.00" width="9.20" height="7.50" fill="#f3b45c" stroke="#a45d00" stroke-width="0.25"/>
<rect x="22.05" y="2.10" width="1.35" height="1.30" fill="#f3b45c" stroke="#a45d00" stroke-width="0.12"/>
<rect x="22.05" y="4.70" width="1.35" height="1.50" fill="#f3b45c" stroke="#a45d00" stroke-width="0.12"/>
<rect x="21.75" y="0.80" width="2.20" height="5.60" fill="#d9b53a" fill-opacity="0.75" stroke="#7a6410" stroke-width="0.08"/>
<circle cx="24.40" cy="2.85" r="0.55" fill="#ffffff" stroke="#333" stroke-width="0.1"/>
<rect x="32.60" y="2.10" width="1.35" height="1.30" fill="#f3b45c" stroke="#a45d00" stroke-width="0.12"/>
<rect x="32.60" y="4.70" width="1.35" height="1.50" fill="#f3b45c" stroke="#a45d00" stroke-width="0.12"/>
<rect x="32.05" y="0.80" width="2.20" height="5.60" fill="#d9b53a" fill-opacity="0.75" stroke="#7a6410" stroke-width="0.08"/>
<circle cx="31.60" cy="2.85" r="0.55" fill="#ffffff" stroke="#333" stroke-width="0.1"/>
<rect x="24.90" y="6.60" width="1.20" height="3.20" fill="#d9b53a" stroke="#7a6410" stroke-width="0.08"/>
<rect x="27.40" y="6.60" width="1.20" height="3.20" fill="#d9b53a" stroke="#7a6410" stroke-width="0.08"/>
<rect x="29.90" y="6.60" width="1.20" height="3.20" fill="#d9b53a" stroke="#7a6410" stroke-width="0.08"/>
<text x="28.00" y="5.70" font-size="1.15" font-weight="700" fill="#4a2a00" text-anchor="middle">H2</text>
<rect x="19.60" y="-11.40" width="16.80" height="11.40" fill="none" stroke="#a45d00" stroke-width="0.14" stroke-dasharray="0.9 0.6"/>
<rect x="23.85" y="-11.40" width="8.30" height="11.40" fill="none" stroke="#8a8f94" stroke-width="0.12" stroke-dasharray="0.5 0.4"/>
<text x="28.00" y="-6.20" font-size="0.85" fill="#a45d00" text-anchor="middle">H2 spare: VCC · DATA · GND</text>
<text x="28.00" y="-5.00" font-size="0.75" fill="#a45d00" text-anchor="middle">latching plug 16.8 wide</text>
<text x="28.00" y="-3.90" font-size="0.7" fill="#6b737c" text-anchor="middle">plain plug inside</text>
<g font-size="0.7" fill="#4a2a00" text-anchor="middle"><text x="8.0" y="11.0">V</text><text x="10.5" y="11.0">D</text><text x="13.0" y="11.0">G</text><text x="25.5" y="11.0">V</text><text x="28.0" y="11.0">D</text><text x="30.5" y="11.0">G</text></g>
<g fill="#b9b9b3" stroke="#a45d00" stroke-width="0.06"><rect x="1.60" y="11.77" width="1.05" height="0.45"/><rect x="6.55" y="11.77" width="1.05" height="0.45"/><rect x="1.60" y="13.04" width="1.05" height="0.45"/><rect x="6.55" y="13.04" width="1.05" height="0.45"/><rect x="1.60" y="14.31" width="1.05" height="0.45"/><rect x="6.55" y="14.31" width="1.05" height="0.45"/><rect x="1.60" y="15.58" width="1.05" height="0.45"/><rect x="6.55" y="15.58" width="1.05" height="0.45"/></g>
<rect x="2.65" y="11.45" width="3.9" height="4.9" fill="#3a3a3a" stroke="#a45d00" stroke-width="0.15"/>
<rect x="10.1" y="12.65" width="7" height="2.5" fill="#d64545" stroke="#a45d00" stroke-width="0.15"/><circle cx="11.1" cy="13.90" r="0.6" fill="#d9b53a" stroke="#7a6410" stroke-width="0.06"/><circle cx="16.1" cy="13.90" r="0.6" fill="#d9b53a" stroke="#7a6410" stroke-width="0.06"/>
<rect x="19.6" y="13.10" width="3" height="1.6" rx="0.6" fill="#d9b53a" stroke="#a45d00" stroke-width="0.12"/>
<rect x="27.63" y="12.80" width="6.3" height="2.2" fill="none" stroke="#a45d00" stroke-width="0.12"/><g stroke="#8a6a3a" stroke-width="0.18"><line x1="25.7" y1="13.90" x2="27.63" y2="13.90"/><line x1="33.93" y1="13.90" x2="35.86" y2="13.90"/></g><circle cx="25.7" cy="13.90" r="0.6" fill="#d9b53a" stroke="#7a6410" stroke-width="0.06"/><circle cx="35.86" cy="13.90" r="0.6" fill="#d9b53a" stroke="#7a6410" stroke-width="0.06"/>
<g font-size="0.75" fill="#a45d00" text-anchor="middle"><text x="4.6" y="17.55">U1 DS2482</text><text x="13.6" y="17.55">C1 100n</text><text x="21.1" y="17.55">JP1</text><text x="30.78" y="17.55">R1 2k2 nf</text></g>
<g fill="#d9b53a" stroke="#a45d00" stroke-width="0.08"><circle cx="15.54" cy="78.14" r="0.7"/><circle cx="18.08" cy="78.14" r="0.7"/><circle cx="20.62" cy="78.14" r="0.7"/><circle cx="23.16" cy="78.14" r="0.7"/><circle cx="25.70" cy="78.14" r="0.7"/><circle cx="28.24" cy="78.14" r="0.7"/><circle cx="30.78" cy="78.14" r="0.7"/><circle cx="33.32" cy="78.14" r="0.7"/><circle cx="15.54" cy="80.68" r="0.7"/><circle cx="18.08" cy="80.68" r="0.7"/><circle cx="20.62" cy="80.68" r="0.7"/><circle cx="23.16" cy="80.68" r="0.7"/><circle cx="25.70" cy="80.68" r="0.7"/><circle cx="28.24" cy="80.68" r="0.7"/><circle cx="30.78" cy="80.68" r="0.7"/><circle cx="33.32" cy="80.68" r="0.7"/><circle cx="15.54" cy="83.22" r="0.7"/><circle cx="18.08" cy="83.22" r="0.7"/><circle cx="20.62" cy="83.22" r="0.7"/><circle cx="23.16" cy="83.22" r="0.7"/><circle cx="25.70" cy="83.22" r="0.7"/><circle cx="28.24" cy="83.22" r="0.7"/><circle cx="30.78" cy="83.22" r="0.7"/><circle cx="33.32" cy="83.22" r="0.7"/></g><text x="34.8" y="80.4" font-size="0.75" fill="#a45d00">PF1</text><text x="34.8" y="81.5" font-size="0.75" fill="#a45d00">proto</text><text x="34.8" y="82.6" font-size="0.75" fill="#a45d00">8 x 3</text>
<rect x="4.65" y="77.50" width="6.70" height="7.50" fill="#f3b45c" stroke="#a45d00" stroke-width="0.25"/>
<rect x="3.30" y="81.60" width="1.35" height="1.30" fill="#f3b45c" stroke="#a45d00" stroke-width="0.12"/>
<rect x="3.30" y="78.80" width="1.35" height="1.50" fill="#f3b45c" stroke="#a45d00" stroke-width="0.12"/>
<rect x="3.00" y="78.60" width="2.20" height="5.60" fill="#d9b53a" fill-opacity="0.75" stroke="#7a6410" stroke-width="0.08"/>
<circle cx="5.65" cy="82.15" r="0.55" fill="#ffffff" stroke="#333" stroke-width="0.1"/>
<rect x="11.35" y="81.60" width="1.35" height="1.30" fill="#f3b45c" stroke="#a45d00" stroke-width="0.12"/>
<rect x="11.35" y="78.80" width="1.35" height="1.50" fill="#f3b45c" stroke="#a45d00" stroke-width="0.12"/>
<rect x="10.80" y="78.60" width="2.20" height="5.60" fill="#d9b53a" fill-opacity="0.75" stroke="#7a6410" stroke-width="0.08"/>
<circle cx="10.35" cy="82.15" r="0.55" fill="#ffffff" stroke="#333" stroke-width="0.1"/>
<rect x="6.15" y="75.20" width="1.20" height="3.20" fill="#d9b53a" stroke="#7a6410" stroke-width="0.08"/>
<rect x="8.65" y="75.20" width="1.20" height="3.20" fill="#d9b53a" stroke="#7a6410" stroke-width="0.08"/>
<text x="8.00" y="80.10" font-size="1.15" font-weight="700" fill="#4a2a00" text-anchor="middle">J3</text>
<rect x="0.85" y="85.00" width="14.30" height="11.40" fill="none" stroke="#a45d00" stroke-width="0.14" stroke-dasharray="0.9 0.6"/>
<rect x="5.10" y="85.00" width="5.80" height="11.40" fill="none" stroke="#8a8f94" stroke-width="0.12" stroke-dasharray="0.5 0.4"/>
<text x="8.00" y="91.20" font-size="0.85" fill="#a45d00" text-anchor="middle">J3 24 VAC, black</text>
<text x="8.00" y="92.40" font-size="0.75" fill="#a45d00" text-anchor="middle">latching plug 14.3 wide</text>
<text x="8.00" y="93.50" font-size="0.7" fill="#6b737c" text-anchor="middle">plain plug inside</text>
<text x="0.9" y="76.4" font-size="0.95" font-weight="700" fill="#1a1a1a">24 VAC</text><text x="0.9" y="77.4" font-size="0.6" fill="#555">silkscreen</text>
<rect x="18.75" y="66" width="2.5" height="7" rx="0.3" fill="#e1e4e1" stroke="#a45d00" stroke-width="0.2"/><circle cx="20.0" cy="67" r="0.55" fill="#d9b53a" stroke="#7a6410" stroke-width="0.06"/><circle cx="20.0" cy="72" r="0.55" fill="#d9b53a" stroke="#7a6410" stroke-width="0.06"/><text x="20.0" y="74.4" font-size="0.65" fill="#a45d00" text-anchor="middle">C4 1u</text><rect x="25.10" y="67.45" width="5.0" height="6.7" fill="#fbfbf7" stroke="#a45d00" stroke-width="0.3"/><rect x="24.80" y="65.80" width="5.6" height="2.2" fill="#d9b53a" fill-opacity="0.75" stroke="#7a6410" stroke-width="0.08"/><rect x="24.80" y="73.60" width="5.6" height="2.2" fill="#d9b53a" fill-opacity="0.75" stroke="#7a6410" stroke-width="0.08"/><rect x="29.30" y="68.95" width="3.2" height="1.2" fill="#d9b53a" stroke="#7a6410" stroke-width="0.08"/><rect x="27.20" y="69.15" width="0.8" height="0.8" fill="#8a8f94"/><rect x="29.30" y="71.45" width="3.2" height="1.2" fill="#d9b53a" stroke="#7a6410" stroke-width="0.08"/><rect x="27.20" y="71.65" width="0.8" height="0.8" fill="#8a8f94"/><circle cx="29.70" cy="68.15" r="0.45" fill="#ffffff" stroke="#333" stroke-width="0.1"/><circle cx="29.70" cy="73.45" r="0.45" fill="#ffffff" stroke="#333" stroke-width="0.1"/><text x="26.20" y="71.15" font-size="0.95" font-weight="700" fill="#4a2a00" text-anchor="middle">J4</text><text x="27.10" y="68.90" font-size="0.6" fill="#4a2a00">+5</text><text x="27.30" y="73.20" font-size="0.6" fill="#4a2a00">G</text><rect x="25.00" y="63.65" width="5.2" height="14.3" fill="none" stroke="#a45d00" stroke-width="0.14" stroke-dasharray="0.9 0.6"/><g font-weight="700" fill="#1a1a1a" font-size="1.1" text-anchor="middle"><text transform="translate(22.7,70.9) rotate(-90)">5VDC output only</text><text transform="translate(24.2,70.9) rotate(-90)">to Pi</text></g>
<!-- dimensions -->
<g stroke="#1a1a1a" stroke-width="0.1" fill="none"><line x1="10.5" y1="-13.2" x2="28" y2="-13.2"/><line x1="10.5" y1="-14" x2="10.5" y2="-12.4"/><line x1="28" y1="-14" x2="28" y2="-12.4"/></g>
<text x="29.0" y="-12.9" font-size="0.9">17.5 between centres, centred on the board</text>
</g>
<g transform="translate(470,185)" font-size="11">
<rect x="0" y="0" width="505" height="765" rx="6" fill="#f7f7f4" stroke="#d0d0cb"/>
<text x="14" y="24" font-weight="700" font-size="12">What rev C changes</text>
<text x="14" y="46">H1, H2 and J3 are PTSM 0,5/n-HH-2,5-SMD headers with the</text>
<text x="14" y="60">entry face on the board edge. Rev B's through-hole headers</text>
<text x="14" y="74">stood 1.7 mm outside it on one row of pins.</text>
<text x="14" y="100" font-weight="700">Each header is held by</text>
<text x="14" y="118">two anchor pads 2.2 x 5.6, 0.8 mm in from the edge</text>
<text x="14" y="132">two pegs in 1.1 mm unplated holes, 2.85 mm in</text>
<text x="14" y="146">signal pads 1.2 x 3.2 behind the body, ending 9.8 mm in</text>
<text x="14" y="160">the body flat on the board over its 7.5 mm depth</text>
<text x="14" y="186" font-weight="700">Positions, mm from the board's top left</text>
<text x="14" y="204">H1  3-way black  centre x 10.5  top edge</text>
<text x="14" y="218">H2  3-way black  centre x 28.0  top edge</text>
<text x="14" y="232">J3  2-way black  centre x 8.0   bottom edge</text>
<text x="14" y="246">J4  2-way white  vertical, turned 90, plug stands 18.4</text>
<text x="14" y="272" font-weight="700">Plugs</text>
<text x="14" y="290">Plain plugs: 1778845 probes, 1778832 J3, 1704853 J4.</text>
<text x="14" y="304">Latching plugs are wider than the header, so the sockets</text>
<text x="14" y="318">stand 17.5 mm apart: 1709443 on H1 and H2 (16.8 wide),</text>
<text x="14" y="332">1709442 on J3, 1709457 on J4 (14.3 wide). 11.4 mm stands</text>
<text x="14" y="346">beyond the header. The latch is a tooth on each arm in a</text>
<text x="14" y="360">window in the header's side wall, 1.2 to 2.1 mm in.</text>
<text x="14" y="386" font-weight="700">Moved</text>
<text x="14" y="404">U1, C1, JP1 and R1 stand in one row, 2.5 mm apart and</text>
<text x="14" y="418">centred, 2 mm below the header pads.</text>
<text x="14" y="432">PF1 is 8 x 3 from x 15.54, y 78.14. C4 sits 3.3 mm left.</text>
<text x="14" y="458" font-weight="700">Leaves</text>
<text x="14" y="476">H3, U2, C2, JP2 and the tie slots TS1.</text>
<text x="14" y="502" font-weight="700">Unchanged from rev B</text>
<text x="14" y="520">J1 GH link, D1-D4, F1, C3, U3, J2 and the title block,</text>
<text x="14" y="534">with their nets. The INT board.</text>
<text x="14" y="560" font-weight="700" fill="#a45d00">J3 and J4 take the same plug</text>
<text x="14" y="578">J3 is black and marked 24 VAC; J4 is white and marked</text>
<text x="14" y="592">5VDC output only, to Pi, reading upward between C4 and</text>
<text x="14" y="606">J4. Print the top copper at 1:1 before ordering.</text>
<g transform="translate(14,650)">
<rect x="0" y="-9" width="14" height="10" fill="#e1e4e1" stroke="#5f6368" stroke-width="0.8"/><text x="20" y="0">carried over from rev B</text>
<rect x="0" y="11" width="14" height="10" fill="#f3b45c" stroke="#a45d00" stroke-width="1"/><text x="20" y="20">new or moved in rev C</text>
<rect x="0" y="31" width="14" height="10" fill="none" stroke="#8a8f94" stroke-width="1" stroke-dasharray="2 1.5"/><text x="20" y="40">leaves</text>
<rect x="0" y="51" width="14" height="10" fill="none" stroke="#a45d00" stroke-width="1" stroke-dasharray="3 2"/><text x="20" y="60">latching plug envelope</text>
<rect x="250" y="-9" width="14" height="10" fill="#d9b53a" stroke="#7a6410" stroke-width="0.6"/><text x="270" y="0">pad</text>
<circle cx="257" cy="16" r="4" fill="#fff" stroke="#333"/><text x="270" y="20">unplated peg hole</text>
<line x1="250" y1="36" x2="340" y2="36" stroke="#1a1a1a" stroke-width="2"/><text x="346" y="40">10 mm</text>
<text x="250" y="60" opacity="0.75">nf = not fitted</text>
</g>
</g>
</g>
</svg>
